<svg xmlns="http://www.w3.org/2000/svg" viewBox="0 0 7.9819 5.1882"><rect width="7.9819" height="5.1882" fill="#e70013"/><path d="M3.9909,1.2934A1.3008,1.3008,0,1,0,5.2917,2.5941,1.3006,1.3006,0,0,0,3.9909,1.2934Zm.1223,2.2655a.97.97,0,0,1-1.0944-.9364.9757.9757,0,0,1,.9635-1.0058.9938.9938,0,0,1,.6374.24.9749.9749,0,0,1,.1495.1593.8126.8126,0,0,0-.5769-.2038.7989.7989,0,0,0-.7124.6767.7822.7822,0,0,0,.327.7513A.8066.8066,0,0,0,4.77,3.1781,1.0029,1.0029,0,0,1,4.1132,3.5589Zm.6-.6254-.3979-.1292-.2459.3384V2.7244l-.3978-.1293.3978-.1293V2.0475l.2459.3384.3979-.1293-.2459.3385Z" fill="#fff"/></svg>