<svg xmlns="http://www.w3.org/2000/svg" viewBox="0 0 7.9819 5.1882"><polygon points="0 0 0 5.188 3.458 2.596 0 0" fill="#fff"/><polygon points="0 5.188 7.982 5.188 7.982 2.596 3.458 2.596 0 5.188" fill="#c03"/><polygon points="0 0 3.458 2.596 7.982 2.596 7.982 0 0 0" fill="#003666"/><polygon points="0.297 0.828 0.335 1.007 0.409 0.84 0.591 0.859 0.455 0.736 0.529 0.569 0.371 0.661 0.235 0.538 0.273 0.717 0.115 0.809 0.297 0.828" fill="#fc0"/><path d="M.603,2.4361l-.0461.0512.406.0545v0L.9609,2.564l-.445-.0226-.057.0524.057.0569.445-.0269v0L.9635,2.65h0l-.4066.0546L.603,2.756l.3657-.0745h0a.44.44,0,0,0,.067.1594l-.3105.2055.0036.0688.3257-.2486,0,0,.0145.0175-.3307.2987L.7347,3.26H.8152l.2957-.3337h0l.022.0179-.0014-.001-.2489.3262.0688.0036.2059-.3113L1.156,2.96a.4378.4378,0,0,0,.1612.0661l-.0744.3649.0513.0461.0545-.4061h0l.0226.0021-.0225.4451.0523.0569.057-.0569-.027-.4451h0l.0267-.0026h0l.0546.4067.0512-.0461-.0745-.3657h0a.4385.4385,0,0,0,.1594-.067l.2054.3106.0688-.0036L1.6732,2.94l0,0L1.69,2.9257l.2988.3307.0773.0032v-.08l-.3338-.2957h0l.018-.022-.001.0014.3261.249.0036-.0689L1.768,2.8372l-.0009.0011a.438.438,0,0,0,.0662-.1612l.3648.0744L2.2442,2.7l-.4061-.0545v0l.002-.0226.4451.0226.057-.0524-.057-.0569L1.84,2.5638v0l-.0025-.0268h0l.4066-.0545-.0461-.0513-.3657.0746h0a.436.436,0,0,0-.067-.1594l.3106-.2055-.0036-.0688-.3257.2486,0,0L1.7325,2.304l.3306-.2987.0033-.0773H1.9858L1.69,2.2617h0l-.022-.0179.0014.0009.2489-.3261L1.85,1.9151l-.2059.3113.0012.0008a.4385.4385,0,0,0-.1612-.0661l.0743-.3649L1.507,1.75l-.0545.4061H1.453L1.43,2.1542l.0225-.4451-.0524-.0569-.0569.0569.0269.4451h0l-.0267.0026h0L1.29,1.75l-.0512.0461.0745.3657h0a.4385.4385,0,0,0-.1594.067L.9481,1.9183l-.0689.0036.2487.3257,0,0-.0174.0145L.812,1.9312.7347,1.928v.0805l.3338.2957h0l-.018.0219.001-.0013-.3261-.249-.0037.0689.3113.2058.0009-.0011a.438.438,0,0,0-.0662.1612Z" fill="#fc0"/><polygon points="2.843 2.687 2.95 2.835 2.95 2.652 3.124 2.596 2.95 2.539 2.95 2.356 2.843 2.504 2.669 2.448 2.777 2.596 2.669 2.743 2.843 2.687" fill="#fc0"/><polygon points="0.228 4.646 0.366 4.525 0.523 4.62 0.451 4.451 0.589 4.331 0.407 4.347 0.336 4.179 0.295 4.357 0.113 4.373 0.269 4.467 0.228 4.646" fill="#fc0"/></svg>