<svg xmlns="http://www.w3.org/2000/svg" viewBox="0 0 7.9818 5.1882"><rect width="7.9818" height="5.1882" fill="#de2910"/><polygon points="1.513 1.116 1.342 0.59 1.171 1.116 0.619 1.116 1.066 1.441 0.895 1.966 1.342 1.641 1.789 1.966 1.618 1.441 2.065 1.116 1.513 1.116" fill="#ffde00"/><polygon points="3.372 1.78 3.193 1.78 3.137 1.609 3.082 1.78 2.902 1.78 3.048 1.885 2.992 2.056 3.137 1.951 3.283 2.056 3.227 1.885 3.372 1.78" fill="#ffde00"/><polygon points="3.067 1.151 3.092 1.329 3.177 1.171 3.353 1.202 3.229 1.073 3.313 0.914 3.152 0.993 3.027 0.864 3.052 1.042 2.891 1.12 3.067 1.151" fill="#ffde00"/><polygon points="2.586 0.662 2.679 0.816 2.695 0.637 2.869 0.597 2.704 0.527 2.72 0.348 2.602 0.483 2.437 0.413 2.529 0.567 2.412 0.702 2.586 0.662" fill="#ffde00"/><polygon points="2.71 2.136 2.599 2.277 2.431 2.216 2.531 2.365 2.421 2.506 2.593 2.457 2.694 2.606 2.7 2.426 2.872 2.377 2.704 2.315 2.71 2.136" fill="#ffde00"/></svg>