<svg xmlns="http://www.w3.org/2000/svg" viewBox="0 0 7.9818 5.1882"><path d="M3.492,1.0376l-.01,0a1.55,1.55,0,0,1,.5087.0887A1.4419,1.4419,0,0,0,3.492,1.0376Z" fill="none"/><path d="M3.492,4.1505a1.4418,1.4418,0,0,0,.4989-.0889,1.5551,1.5551,0,0,1-.5087.0887Z" fill="none"/><path d="M0,0V5.1882H7.9818V0ZM3.9909,4.0616a1.4418,1.4418,0,0,1-.4989.0889l-.01,0-.01,0a1.5565,1.5565,0,1,1,0-3.1129l.01,0,.01,0a1.4419,1.4419,0,0,1,.4989.089,1.5566,1.5566,0,0,1,0,2.935Z" fill="#009eff"/><path d="M3.9909,1.1266a1.55,1.55,0,0,0-.5087-.0887l-.01,0a1.5565,1.5565,0,1,0,0,3.1129l.01,0a1.5564,1.5564,0,0,0,.5087-3.0237Z" fill="#ff0"/></svg>