<svg xmlns="http://www.w3.org/2000/svg" viewBox="0 0 7.9819 5.1882"><rect y="4.6117" width="7.9819" height="0.5765" fill="#fff"/><rect y="3.4588" width="7.9819" height="0.5765" fill="#fff"/><path d="M0,0V2.8823H7.9819V2.3059h-5.1V1.7294h5.1V1.1529h-5.1V.5764h5.1V0ZM2.0923,1.6267a.36.36,0,0,0,.09.0255.2723.2723,0,0,1,.0762.0222.2994.2994,0,0,1,.1385.171v0h0l.0007.0017-.0025.0067-.0025.0006-.0045-.0024a.1911.1911,0,0,0-.0822-.0709.1815.1815,0,0,0-.0856-.01l-.05,0a1.15,1.15,0,0,1-.1879-.0127.6581.6581,0,0,1-.1154-.0308l.3447.4835L1.7474,1.881a.3745.3745,0,0,0,.0242.1515.3576.3576,0,0,0,.0452.0814.2683.2683,0,0,1,.0381.0695.3.3,0,0,1-.0229.2189h0l-.0008.0017-.0049.0032-.0016,0L1.821,2.4009a.19.19,0,0,0-.008-.1082A.1807.1807,0,0,0,1.76,2.2251L1.7239,2.19A1.1568,1.1568,0,0,1,1.6,2.0484a.6643.6643,0,0,1-.06-.1034l-.0981.5857-.0943-.5623a.3761.3761,0,0,0-.09.1243.36.36,0,0,0-.0256.09.2652.2652,0,0,1-.0222.0761.3.3,0,0,1-.171.1386h0l-.0017.0007-.002,0-.0047-.0029.0017-.007a.19.19,0,0,0,.0709-.0822.18.18,0,0,0,.01-.0855c0-.0141-.0006-.03,0-.05a1.1591,1.1591,0,0,1,.0126-.1879.667.667,0,0,1,.0308-.1154l-.4835.3447.331-.4642a.375.375,0,0,0-.1516.0242.3545.3545,0,0,0-.0813.0452.2707.2707,0,0,1-.07.0381.2219.2219,0,0,1-.0731.0118A.3668.3668,0,0,1,.48,1.8315L.4773,1.825l.0062-.0037a.19.19,0,0,0,.1082-.008A.1807.1807,0,0,0,.6593,1.76l.0349-.0356A1.1645,1.1645,0,0,1,.836,1.6a.6643.6643,0,0,1,.1034-.06L.3537,1.4424l.5624-.0943a.3771.3771,0,0,0-.1243-.09.36.36,0,0,0-.0895-.0256A.2684.2684,0,0,1,.6262,1.21a.3.3,0,0,1-.1386-.171h0L.4868,1.0375l.0026-.0067.0069.0017a.191.191,0,0,0,.0822.0709.18.18,0,0,0,.0856.01c.0141,0,.03-.0006.05,0a1.16,1.16,0,0,1,.1879.0126.6551.6551,0,0,1,.1153.0309L.6725.6728l.4643.331A.3767.3767,0,0,0,1.1126.8522.3622.3622,0,0,0,1.0674.7709a.2679.2679,0,0,1-.0382-.07.3.3,0,0,1,.023-.2189h0L1.0529.4806,1.06.4777l.0036.0061a.1925.1925,0,0,0,.008.1083A.1813.1813,0,0,0,1.1246.66L1.16.6945a1.1559,1.1559,0,0,1,.1239.1418.6656.6656,0,0,1,.06.1034L1.4421.3541l.0942.5623a.376.376,0,0,0,.09-.1243.3588.3588,0,0,0,.0255-.09A.2717.2717,0,0,1,1.6741.6265a.3.3,0,0,1,.171-.1386h0L1.847.4872,1.8537.49,1.8519.4966A.1922.1922,0,0,0,1.781.5788a.1817.1817,0,0,0-.01.0856l.0005.05a1.15,1.15,0,0,1-.0127.1879.6571.6571,0,0,1-.0308.1153L2.2116.6728l-.331.4643a.3765.3765,0,0,0,.1516-.0242.3615.3615,0,0,0,.0814-.0452.2685.2685,0,0,1,.07-.0382.3.3,0,0,1,.2189.023h0l.0017.0007.003.0066-.0062.0037a.1912.1912,0,0,0-.1082.0079.1807.1807,0,0,0-.0676.0535L2.19,1.1605a1.1483,1.1483,0,0,1-.1418.1239.6564.6564,0,0,1-.1034.06l.5857.0982-.5623.0942A.3757.3757,0,0,0,2.0923,1.6267Z" fill="#fff"/><polygon points="0 2.882 0 3.459 7.982 3.459 7.982 2.882 2.882 2.882 0 2.882" fill="#0933ae"/><rect y="4.0353" width="7.9819" height="0.5764" fill="#0933ae"/><rect x="2.8824" y="1.7294" width="5.0995" height="0.5765" fill="#0933ae"/><rect x="2.8824" y="0.5764" width="5.0995" height="0.5765" fill="#0933ae"/><path d="M1.1244,1.5781l0-.0007c-.0239.0068-.0479.0145-.0714.0229a1.0231,1.0231,0,0,0-.1683.0746,1.8415,1.8415,0,0,0-.1572.1065l-.02.0141a.2488.2488,0,0,1-.0727.0432.2032.2032,0,0,1-.0634.01l-.0079,0A.241.241,0,0,0,.6975,1.845a.2588.2588,0,0,0,.0669-.0368A.3744.3744,0,0,1,.848,1.7618a.3893.3893,0,0,1,.1629-.0246Z" fill="#ffc81e"/><path d="M1.5891,1.7549l.55.3919L1.6823,1.69A.3478.3478,0,0,1,1.5891,1.7549Z" fill="#ffc81e"/><path d="M1.69,1.6827l.4565.4565-.3919-.55A.35.35,0,0,1,1.69,1.6827Z" fill="#ffc81e"/><path d="M.5959,1.1422a.2377.2377,0,0,0,.0788.02l.0239.0039a1.8145,1.8145,0,0,1,.1876.0361,1.0288,1.0288,0,0,1,.1735.0668c.02.01.04.02.0594.03l-.0906-.127A.6455.6455,0,0,0,.9,1.1362a1.1445,1.1445,0,0,0-.1861-.0125c-.02,0-.0356,0-.05,0a.19.19,0,0,1-.09-.0108.18.18,0,0,1-.0474-.03A.2009.2009,0,0,0,.5959,1.1422Z" fill="#ffc81e"/><path d="M1.13,1.5894l-.392.55.4566-.4565A.3453.3453,0,0,1,1.13,1.5894Z" fill="#ffc81e"/><path d="M1.1215,1.3137l0-.0007c-.0218-.0121-.0442-.0236-.0667-.0343a1.023,1.023,0,0,0-.1718-.0662,1.8327,1.8327,0,0,0-.1864-.0359L.673,1.1728a.2481.2481,0,0,1-.0819-.021.2016.2016,0,0,1-.0573-.0433.2423.2423,0,0,0,.0971.0921.26.26,0,0,0,.0733.0213.3732.3732,0,0,1,.0919.0263.3888.3888,0,0,1,.1326.0978Z" fill="#ffc81e"/><path d="M1.4475.4515V1.097a.3417.3417,0,0,1,.1116.02Z" fill="#ffc81e"/><path d="M1.7865,2.1831l-.0142-.02a1.8546,1.8546,0,0,1-.1071-.1581,1.0328,1.0328,0,0,1-.0754-.17c-.0074-.0209-.0143-.0421-.0206-.0634l-.0258.1538a.6584.6584,0,0,0,.0654.1164,1.1444,1.1444,0,0,0,.1228.14l.0354.0348a.1894.1894,0,0,1,.056.0713.18.18,0,0,1,.0124.0546.1994.1994,0,0,0-.0072-.09A.2405.2405,0,0,0,1.7865,2.1831Z" fill="#ffc81e"/><path d="M1.7369,1.8735,1.5777,1.76l-.0006,0c.0068.024.0145.048.0229.0715A1.0267,1.0267,0,0,0,1.6746,2a1.8255,1.8255,0,0,0,.1065.1572l.0141.02a.2478.2478,0,0,1,.0432.0728.2024.2024,0,0,1,.01.0711.2416.2416,0,0,0-.0035-.1338A.2588.2588,0,0,0,1.8079,2.12a.3734.3734,0,0,1-.0464-.0835A.39.39,0,0,1,1.7369,1.8735Z" fill="#ffc81e"/><path d="M.6315,1.8285a.24.24,0,0,0,.07-.0417l.02-.0142a1.8523,1.8523,0,0,1,.1582-.1071,1.0291,1.0291,0,0,1,.17-.0754c.0208-.0074.0421-.0143.0634-.0206L.9586,1.5437a.6575.6575,0,0,0-.1163.0654,1.1466,1.1466,0,0,0-.1405.1228l-.0347.0354a.19.19,0,0,1-.0713.056.18.18,0,0,1-.0546.0124A.2.2,0,0,0,.6315,1.8285Z" fill="#ffc81e"/><path d="M1.0977.7016l.0141.02a1.815,1.815,0,0,1,.1071.1581,1.0291,1.0291,0,0,1,.0754.17c.0075.0208.0143.0421.0206.0634L1.3407.9589A.6452.6452,0,0,0,1.2753.8426,1.1473,1.1473,0,0,0,1.1526.7021L1.1171.6674a.1914.1914,0,0,1-.056-.0713A.1834.1834,0,0,1,1.0487.5415a.2.2,0,0,0,.0073.09A.238.238,0,0,0,1.0977.7016Z" fill="#ffc81e"/><path d="M1.4415,1.6291a.2079.2079,0,0,0,.03-.002A.2284.2284,0,0,0,1.5,1.6217a.344.344,0,0,0,.0576-.02A.2312.2312,0,0,0,1.53,1.5906a.0921.0921,0,0,0-.0283-.0049l-.0136.0016-.0133.0044-.0156.0053-.017.0022a.0832.0832,0,0,1-.0172-.0014L1.409,1.5933,1.3954,1.59a.07.07,0,0,0-.0138-.0011.1465.1465,0,0,0-.0571.0161.3438.3438,0,0,0,.0581.0186A.255.255,0,0,0,1.4415,1.6291Z" fill="#ffc81e"/><path d="M1.4367,1.097V.4515l-.1116.6659A.3413.3413,0,0,1,1.4367,1.097Z" fill="#ffc81e"/><path d="M1.3147,1.3312a.0315.0315,0,0,1,0,.0617c.0364-.0014.06-.0166.06-.0309S1.3511,1.3327,1.3147,1.3312Z" fill="#ffc81e"/><path d="M1.7671,1.5594l.6658-.1116H1.7874A.3443.3443,0,0,1,1.7671,1.5594Z" fill="#ffc81e"/><path d="M1.7767,1.4424a.3347.3347,0,1,0-.3346.3346A.335.335,0,0,0,1.7767,1.4424Zm-.2511-.1585a.1148.1148,0,0,1,.0553-.0185l.0074,0h.0074l.0147.0017a.118.118,0,0,1,.028.0086.11.11,0,0,1,.0441.0358.1852.1852,0,0,0-.0491-.0225l-.0126-.0032-.0129-.0019a.1369.1369,0,0,0-.0256,0l-.0065.0006-.0063.001-.0126.0026-.0245.0087a.2064.2064,0,0,0-.0453.0294A.1107.1107,0,0,1,1.5256,1.2839Zm-.1015.2306a.0252.0252,0,0,0,.012.0129.0234.0234,0,0,0,.015,0,.023.023,0,0,0,.0117-.0121.0239.0239,0,0,1,.0151-.0138.023.023,0,0,1,.0169.0038l.0069.0022c.0036-.0016.0059-.0091.005-.0159a.0221.0221,0,0,0-.0118-.0157l-.0023-.0073L1.5,1.4665a.033.033,0,0,1,.0176.0238.0262.0262,0,0,1-.0113.0273A.0178.0178,0,0,1,1.49,1.515L1.48,1.5122l-.0081.0087a.0335.0335,0,0,1-.0173.0169L1.4443,1.54l-.0122-.0022A.0344.0344,0,0,1,1.4147,1.52l-.0065-.0075-.0067.0037a.02.02,0,0,1-.0161.0065.0279.0279,0,0,1-.02-.0244A.0337.0337,0,0,1,1.38,1.4666l.0075.0012-.0011.0075a.023.023,0,0,0-.01.0213c.0009.0066.0056.0144.0107.0152l.0076-.004A.0186.0186,0,0,1,1.41,1.5016C1.4174,1.5026,1.4209,1.509,1.4241,1.5145Zm-.2234-.2032a.11.11,0,0,1,.0441-.0358.1166.1166,0,0,1,.028-.0086l.0147-.0017h.0074l.0074,0a.1244.1244,0,0,1,.0289.0057.1263.1263,0,0,1,.0264.0128.1107.1107,0,0,1,.0385.0417.2064.2064,0,0,0-.0453-.0294l-.0245-.0087-.0126-.0026-.0064-.001-.0064-.0006a.1381.1381,0,0,0-.0257,0l-.0128.0019L1.25,1.2888A.1861.1861,0,0,0,1.2007,1.3113Zm.0314.0507.0015-.008-.0119.0124-.0043.0021-.0033-.0012L1.2132,1.36l.0133-.0139a.11.11,0,0,1,.0686-.0249h0L1.309,1.32c.0431,0,.0769.0183.0769.0417s-.0338.0418-.0769.0418S1.2321,1.3855,1.2321,1.362Zm.23.3263H1.4162l-.0016-.0035c0-.0048.0141-.0075.0244-.0074s.0245.0029.025.0076Zm.0956-.0863a.1561.1561,0,0,1-.0534.0332.1721.1721,0,0,1-.0308.0088l-.0079.0013-.008.001-.0161.0008a.18.18,0,0,1-.0631-.01.1592.1592,0,0,1-.0541-.0321.1151.1151,0,0,1,.025-.0193A.0911.0911,0,0,1,1.38,1.5743a.0741.0741,0,0,1,.017,0l.0165.0032a.0856.0856,0,0,0,.0276.0043.0821.0821,0,0,0,.0272-.0056l.0164-.0041a.0707.0707,0,0,1,.0172,0,.0837.0837,0,0,1,.031.0109.1159.1159,0,0,1,.0248.02ZM1.67,1.3673l-.0033.0012-.0042-.0021L1.65,1.354l.0014.008c0,.0235-.0337.0418-.0768.0418s-.0769-.0183-.0769-.0418.0338-.0417.0769-.0417l.0138.0007h0a.11.11,0,0,1,.0686.0249l.0134.0139Z" fill="#ffc81e"/><path d="M2.2883,1.7425a.241.241,0,0,0-.0789-.02l-.0239-.0038a1.8423,1.8423,0,0,1-.1876-.0361,1.04,1.04,0,0,1-.1735-.0669c-.02-.0095-.04-.02-.0593-.03l.0905.1271a.6561.6561,0,0,0,.1285.036,1.1445,1.1445,0,0,0,.1861.0125c.02,0,.0356,0,.05-.0005a.1908.1908,0,0,1,.09.0108.1818.1818,0,0,1,.0473.03A.2006.2006,0,0,0,2.2883,1.7425Z" fill="#ffc81e"/><path d="M1.7874,1.437h.6455l-.6658-.1116A.3438.3438,0,0,1,1.7874,1.437Z" fill="#ffc81e"/><path d="M1.1472,1.0112l.1592.1135.0007,0c-.0069-.0239-.0146-.0479-.0229-.0714A1.0231,1.0231,0,0,0,1.21.8847,1.8661,1.8661,0,0,0,1.1031.7275l-.0142-.02A.2488.2488,0,0,1,1.0457.6352a.2053.2053,0,0,1-.01-.0712.2425.2425,0,0,0,.0035.1338.2588.2588,0,0,0,.0368.0669.3744.3744,0,0,1,.0464.0836A.3877.3877,0,0,1,1.1472,1.0112Z" fill="#ffc81e"/><path d="M1.2771,1.362a.0314.0314,0,0,1,.0251-.0308l-.0067.0005h0c-.0319.0032-.0525.0172-.0525.03s.0236.0292.0594.0309A.0315.0315,0,0,1,1.2771,1.362Z" fill="#ffc81e"/><path d="M1.5884,1.3317h0l-.0068-.0005a.0315.0315,0,0,1,0,.0617c.0358-.0017.0593-.0168.0593-.0309S1.62,1.3349,1.5884,1.3317Z" fill="#ffc81e"/><path d="M2.2526,1.0563a.2378.2378,0,0,0-.07.0417l-.02.0141a1.79,1.79,0,0,1-.1582.1071,1.0441,1.0441,0,0,1-.17.0755c-.0209.0074-.0422.0143-.0634.02l.1538.0258a.6522.6522,0,0,0,.1164-.0654,1.145,1.145,0,0,0,.14-.1227l.0348-.0355a.1914.1914,0,0,1,.0713-.056A.18.18,0,0,1,2.343,1.049.2015.2015,0,0,0,2.2526,1.0563Z" fill="#ffc81e"/><path d="M1.5438,1.362a.0313.0313,0,0,1,.0253-.0308c-.0364.0015-.06.0166-.06.0308s.024.0295.06.0309A.0314.0314,0,0,1,1.5438,1.362Z" fill="#ffc81e"/><path d="M1.6823,1.1945,2.1389.7379l-.55.392A.3433.3433,0,0,1,1.6823,1.1945Z" fill="#ffc81e"/><path d="M1.0967,1.4478H.4512l.6659.1116A.3417.3417,0,0,1,1.0967,1.4478Z" fill="#ffc81e"/><path d="M1.7546,1.2953l.3919-.55L1.69,1.2021A.3493.3493,0,0,1,1.7546,1.2953Z" fill="#ffc81e"/><path d="M1.7626,1.5711l0,.0006c.0217.0121.0441.0237.0667.0344a1.0264,1.0264,0,0,0,.1717.0662,1.8145,1.8145,0,0,0,.1865.0358l.0238.0039a.251.251,0,0,1,.082.0209.2048.2048,0,0,1,.0572.0434.2413.2413,0,0,0-.0971-.0922A.2612.2612,0,0,0,2.18,1.6629a.3756.3756,0,0,1-.0919-.0263.391.391,0,0,1-.1326-.0978Z" fill="#ffc81e"/><path d="M1.4367,2.4332V1.7877a.3438.3438,0,0,1-.1116-.02Z" fill="#ffc81e"/><path d="M1.1171,1.3254.4512,1.437h.6455A.3413.3413,0,0,1,1.1171,1.3254Z" fill="#ffc81e"/><path d="M1.4475,1.7877v.6455l.1116-.6658A.3443.3443,0,0,1,1.4475,1.7877Z" fill="#ffc81e"/><path d="M1.1942,1.2021.7376.7455l.392.55A.3448.3448,0,0,1,1.1942,1.2021Z" fill="#ffc81e"/><path d="M1.3127,1.7626c-.0121.0218-.0236.0442-.0343.0668a1.0176,1.0176,0,0,0-.0662.1717,1.836,1.836,0,0,0-.0359.1865l-.0039.0238a.246.246,0,0,1-.0209.082.2026.2026,0,0,1-.0433.0572A.2417.2417,0,0,0,1.2,2.2535.2583.2583,0,0,0,1.2216,2.18a.3756.3756,0,0,1,.0263-.0919.39.39,0,0,1,.0978-.1326l-.0323-.1928Z" fill="#ffc81e"/><path d="M1.76,1.3067l0,.0007c.0239-.0069.048-.0146.0715-.0229A1.02,1.02,0,0,0,2,1.21a1.7952,1.7952,0,0,0,.1572-.1064l.02-.0142a.2524.2524,0,0,1,.0728-.0432.202.202,0,0,1,.0711-.01.2416.2416,0,0,0-.1338.0034.26.26,0,0,0-.0669.0368.3721.3721,0,0,1-.0836.0464.3888.3888,0,0,1-.1629.0246Z" fill="#ffc81e"/><path d="M1.1618,2.21l.0039-.0239a1.8145,1.8145,0,0,1,.0361-.1876,1.0323,1.0323,0,0,1,.0668-.1735c.01-.02.02-.04.03-.0593l-.127.0905a.6564.6564,0,0,0-.0361.1285,1.154,1.154,0,0,0-.0124.1861c0,.02,0,.0356,0,.05a.1917.1917,0,0,1-.0109.09.1814.1814,0,0,1-.03.0474.2012.2012,0,0,0,.0587-.0691A.2388.2388,0,0,0,1.1618,2.21Z" fill="#ffc81e"/><path d="M1.2018,1.69l-.4566.4565.55-.3919A.3493.3493,0,0,1,1.2018,1.69Z" fill="#ffc81e"/><path d="M1.7223.675,1.7185.6989a1.8651,1.8651,0,0,1-.0361.1876,1.0359,1.0359,0,0,1-.0669.1735c-.0095.02-.02.04-.03.0594l.127-.0906A.6458.6458,0,0,0,1.7483.9,1.1445,1.1445,0,0,0,1.7608.7142l0-.05a.19.19,0,0,1,.0108-.09.1823.1823,0,0,1,.03-.0474.2009.2009,0,0,0-.0587.069A.24.24,0,0,0,1.7223.675Z" fill="#ffc81e"/><path d="M1.5714,1.1221c.0121-.0218.0236-.0442.0344-.0667A1.0283,1.0283,0,0,0,1.672.8836,1.8112,1.8112,0,0,0,1.7078.6972L1.7117.6733A.246.246,0,0,1,1.7326.5914.202.202,0,0,1,1.776.5341a.2419.2419,0,0,0-.0922.0971.2631.2631,0,0,0-.0212.0733.3732.3732,0,0,1-.0263.0919A.3894.3894,0,0,1,1.5384.929l.0323.1928Z" fill="#ffc81e"/><path d="M1.295,1.13l-.55-.392.4566.4566A.3448.3448,0,0,1,1.295,1.13Z" fill="#ffc81e"/><path d="M1.9447,1.3442a.6564.6564,0,0,0,.1034-.06A1.1483,1.1483,0,0,0,2.19,1.1605l.0349-.0356a.1807.1807,0,0,1,.0676-.0535.1912.1912,0,0,1,.1082-.0079L2.4068,1.06l-.003-.0066-.0017-.0007h0a.3.3,0,0,0-.2189-.023.2685.2685,0,0,0-.07.0382.3615.3615,0,0,1-.0814.0452.3765.3765,0,0,1-.1516.0242l.331-.4643-.4835.3447A.6571.6571,0,0,0,1.7589.9022,1.15,1.15,0,0,0,1.7716.7143l-.0005-.05a.1817.1817,0,0,1,.01-.0856A.1922.1922,0,0,1,1.8519.4966L1.8537.49,1.847.4872,1.8452.4878h0a.3.3,0,0,0-.171.1386.2717.2717,0,0,0-.0222.0761.3588.3588,0,0,1-.0255.09.376.376,0,0,1-.09.1243L1.4421.3541,1.3439.94a.6656.6656,0,0,0-.06-.1034A1.1559,1.1559,0,0,0,1.16.6945L1.1246.66A.1813.1813,0,0,1,1.0711.5921a.1925.1925,0,0,1-.008-.1083L1.06.4777,1.0529.4806,1.0522.4823h0a.3.3,0,0,0-.023.2189.2679.2679,0,0,0,.0382.07.3622.3622,0,0,1,.0452.0813.3767.3767,0,0,1,.0242.1516L.6725.6728l.3447.4836a.6551.6551,0,0,0-.1153-.0309A1.16,1.16,0,0,0,.714,1.1129c-.02,0-.0358,0-.05,0a.18.18,0,0,1-.0856-.01.191.191,0,0,1-.0822-.0709L.4894,1.0308l-.0026.0067.0007.0017h0a.3.3,0,0,0,.1386.171.2684.2684,0,0,0,.0761.0222.36.36,0,0,1,.0895.0256.3771.3771,0,0,1,.1243.09l-.5624.0943.5857.0981A.6643.6643,0,0,0,.836,1.6a1.1645,1.1645,0,0,0-.1418.1239L.6593,1.76a.1807.1807,0,0,1-.0676.0535.19.19,0,0,1-.1082.008L.4773,1.825l.003.0065a.3668.3668,0,0,0,.1476.0355A.2219.2219,0,0,0,.701,1.8552a.2707.2707,0,0,0,.07-.0381.3545.3545,0,0,1,.0813-.0452.375.375,0,0,1,.1516-.0242l-.331.4642.4835-.3447a.667.667,0,0,0-.0308.1154,1.1591,1.1591,0,0,0-.0126.1879c0,.02,0,.0358,0,.05a.18.18,0,0,1-.01.0855.19.19,0,0,1-.0709.0822l-.0017.007.0047.0029.002,0,.0017-.0007h0a.3.3,0,0,0,.171-.1386.2652.2652,0,0,0,.0222-.0761.36.36,0,0,1,.0256-.09.3761.3761,0,0,1,.09-.1243l.0943.5623L1.54,1.945a.6643.6643,0,0,0,.06.1034,1.1568,1.1568,0,0,0,.1239.1418l.0356.0349a.1807.1807,0,0,1,.0535.0676.19.19,0,0,1,.008.1082l.0037.0062.0016,0,.0049-.0032.0008-.0017h0a.3.3,0,0,0,.0229-.2189.2683.2683,0,0,0-.0381-.0695.3576.3576,0,0,1-.0452-.0814.3745.3745,0,0,1-.0242-.1515l.4642.3309-.3447-.4835a.6581.6581,0,0,0,.1154.0308,1.15,1.15,0,0,0,.1879.0127l.05,0a.1815.1815,0,0,1,.0856.01.1911.1911,0,0,1,.0822.0709l.0045.0024.0025-.0006.0025-.0067-.0007-.0017h0v0a.2994.2994,0,0,0-.1385-.171.2723.2723,0,0,0-.0762-.0222.36.36,0,0,1-.09-.0255.3757.3757,0,0,1-.1242-.09L2.53,1.4424Zm.4882.0928H1.7874a.3438.3438,0,0,0-.02-.1116Zm-.1445-.3756a.1914.1914,0,0,0-.0713.056l-.0348.0355a1.145,1.145,0,0,1-.14.1227.6522.6522,0,0,1-.1164.0654l-.1538-.0258c.0212-.0062.0425-.0131.0634-.02a1.0441,1.0441,0,0,0,.17-.0755,1.79,1.79,0,0,0,.1582-.1071l.02-.0141a.2378.2378,0,0,1,.07-.0417.2015.2015,0,0,1,.09-.0073A.18.18,0,0,0,2.2884,1.0614Zm-.2523.0615A.3721.3721,0,0,0,2.12,1.0765.26.26,0,0,1,2.1866,1.04.2416.2416,0,0,1,2.32,1.0363a.202.202,0,0,0-.0711.01.2524.2524,0,0,0-.0728.0432l-.02.0142A1.7952,1.7952,0,0,1,2,1.21a1.02,1.02,0,0,1-.1682.0747c-.0235.0083-.0476.016-.0715.0229l0-.0007.1135-.1592A.3888.3888,0,0,0,2.0361,1.1229Zm-.2815.1724A.3493.3493,0,0,0,1.69,1.2021L2.1465.7455ZM2.1389.7379l-.4566.4566A.3433.3433,0,0,0,1.5891,1.13ZM1.8009.5272a.1823.1823,0,0,0-.03.0474.19.19,0,0,0-.0108.09l0,.05A1.1445,1.1445,0,0,1,1.7483.9a.6458.6458,0,0,1-.0361.1285l-.127.0906c.0106-.0195.0208-.0394.03-.0594A1.0359,1.0359,0,0,0,1.6824.8865,1.8651,1.8651,0,0,0,1.7185.6989L1.7223.675a.24.24,0,0,1,.02-.0788A.2009.2009,0,0,1,1.8009.5272ZM1.6363.7964A.3732.3732,0,0,0,1.6626.7045.2631.2631,0,0,1,1.6838.6312.2419.2419,0,0,1,1.776.5341a.202.202,0,0,0-.0434.0573.246.246,0,0,0-.0209.0819L1.7078.6972A1.8112,1.8112,0,0,1,1.672.8836a1.0283,1.0283,0,0,1-.0662.1718c-.0108.0225-.0223.0449-.0344.0667l-.0007,0L1.5384.929A.3894.3894,0,0,0,1.6363.7964ZM1.4475.4515l.1116.6659a.3417.3417,0,0,0-.1116-.02Zm-.0108,0V1.097a.3413.3413,0,0,0-.1116.02Zm-.388.09a.1834.1834,0,0,0,.0124.0546.1914.1914,0,0,0,.056.0713l.0355.0347a1.1473,1.1473,0,0,1,.1227.1405.6452.6452,0,0,1,.0654.1163l-.0258.1539c-.0063-.0213-.0131-.0426-.0206-.0634a1.0291,1.0291,0,0,0-.0754-.17A1.815,1.815,0,0,0,1.1118.7213l-.0141-.02a.238.238,0,0,1-.0417-.07A.2.2,0,0,1,1.0487.5415Zm.0739.3068A.3744.3744,0,0,0,1.0762.7647.2588.2588,0,0,1,1.0394.6978.2425.2425,0,0,1,1.0359.564a.2053.2053,0,0,0,.01.0712.2488.2488,0,0,0,.0432.0727l.0142.02A1.8661,1.8661,0,0,1,1.21.8847a1.0231,1.0231,0,0,1,.0746.1683c.0083.0235.016.0475.0229.0714l-.0007,0-.1592-.1135A.3877.3877,0,0,0,1.1226.8483ZM1.295,1.13a.3448.3448,0,0,0-.0932.0646L.7452.7379ZM.7376.7455l.4566.4566a.3448.3448,0,0,0-.0646.0932Zm-.1633.3678a.19.19,0,0,0,.09.0108c.014,0,.03-.0005.05,0A1.1445,1.1445,0,0,1,.9,1.1362a.6455.6455,0,0,1,.1285.036l.0906.127c-.02-.0106-.0394-.0208-.0594-.03a1.0288,1.0288,0,0,0-.1735-.0668A1.8145,1.8145,0,0,0,.6986,1.166L.6747,1.1621a.2377.2377,0,0,1-.0788-.02.2009.2009,0,0,1-.069-.0587A.18.18,0,0,0,.5743,1.1133Zm.2218.1349a.3732.3732,0,0,0-.0919-.0263.26.26,0,0,1-.0733-.0213.2423.2423,0,0,1-.0971-.0921.2016.2016,0,0,0,.0573.0433.2481.2481,0,0,0,.0819.021l.0239.0038a1.8327,1.8327,0,0,1,.1864.0359,1.023,1.023,0,0,1,.1718.0662c.0225.0107.0449.0222.0667.0343l0,.0007L.9287,1.346A.3888.3888,0,0,0,.7961,1.2482Zm.321.0772a.3413.3413,0,0,0-.02.1116H.4512Zm-.6659.1224h.6455a.3417.3417,0,0,0,.02.1116Zm.1446.3755a.19.19,0,0,0,.0713-.056l.0347-.0354a1.1466,1.1466,0,0,1,.1405-.1228.6575.6575,0,0,1,.1163-.0654l.1539.0258c-.0213.0063-.0426.0132-.0634.0206a1.0291,1.0291,0,0,0-.17.0754,1.8523,1.8523,0,0,0-.1582.1071l-.02.0142a.24.24,0,0,1-.07.0417.2.2,0,0,1-.09.0072A.18.18,0,0,0,.5958,1.8233ZM.848,1.7618a.3744.3744,0,0,0-.0836.0464.2588.2588,0,0,1-.0669.0368.241.241,0,0,1-.1339.0035l.0079,0a.2032.2032,0,0,0,.0634-.01.2488.2488,0,0,0,.0727-.0432l.02-.0141a1.8415,1.8415,0,0,1,.1572-.1065A1.0231,1.0231,0,0,1,1.0527,1.6c.0235-.0084.0475-.0161.0714-.0229l0,0-.1134.1594A.3893.3893,0,0,0,.848,1.7618ZM1.13,1.5894a.3453.3453,0,0,0,.0646.0933l-.4566.4565Zm-.3844.5574L1.2018,1.69a.3493.3493,0,0,0,.0932.0646Zm.338.2108a.1814.1814,0,0,0,.03-.0474.1917.1917,0,0,0,.0109-.09c0-.0141-.0006-.03,0-.05a1.154,1.154,0,0,1,.0124-.1861.6564.6564,0,0,1,.0361-.1285l.127-.0905c-.0106.0194-.0208.0393-.03.0593a1.0323,1.0323,0,0,0-.0668.1735,1.8145,1.8145,0,0,0-.0361.1876L1.1618,2.21a.2388.2388,0,0,1-.02.0788A.2012.2012,0,0,1,1.0832,2.3576Zm.1647-.2693a.3756.3756,0,0,0-.0263.0919A.2583.2583,0,0,1,1.2,2.2535a.2417.2417,0,0,1-.0921.0971.2026.2026,0,0,0,.0433-.0572.246.246,0,0,0,.0209-.082l.0039-.0238a1.836,1.836,0,0,1,.0359-.1865,1.0176,1.0176,0,0,1,.0662-.1717c.0107-.0226.0222-.045.0343-.0668l.0007,0,.0323.1928A.39.39,0,0,0,1.2479,2.0883Zm.1888.3449-.1116-.6658a.3438.3438,0,0,0,.1116.02Zm-.3293-.9908a.3347.3347,0,1,1,.3347.3346A.335.335,0,0,1,1.1074,1.4424Zm.34.9908V1.7877a.3443.3443,0,0,0,.1116-.02Zm.3879-.09a.18.18,0,0,0-.0124-.0546.1894.1894,0,0,0-.056-.0713l-.0354-.0348a1.1444,1.1444,0,0,1-.1228-.14.6584.6584,0,0,1-.0654-.1164l.0258-.1538c.0063.0213.0132.0425.0206.0634a1.0328,1.0328,0,0,0,.0754.17,1.8546,1.8546,0,0,0,.1071.1581l.0142.02a.2405.2405,0,0,1,.0417.07A.1994.1994,0,0,1,1.8354,2.3433Zm-.0739-.3068a.3734.3734,0,0,0,.0464.0835.2588.2588,0,0,1,.0368.0669.2416.2416,0,0,1,.0035.1338.2024.2024,0,0,0-.01-.0711.2478.2478,0,0,0-.0432-.0728l-.0141-.02A1.8255,1.8255,0,0,1,1.6746,2,1.0267,1.0267,0,0,1,1.6,1.8318c-.0084-.0235-.0161-.0475-.0229-.0715l.0006,0,.1592.1135A.39.39,0,0,0,1.7615,2.0365Zm-.1724-.2816A.3478.3478,0,0,0,1.6823,1.69l.4566.4565Zm.5574.3843L1.69,1.6827a.35.35,0,0,0,.0646-.0933ZM2.31,1.7714a.1908.1908,0,0,0-.09-.0108c-.014,0-.03.0006-.05.0005a1.1445,1.1445,0,0,1-.1861-.0125.6561.6561,0,0,1-.1285-.036l-.0905-.1271c.0194.0106.0393.0208.0593.03a1.04,1.04,0,0,0,.1735.0669,1.8423,1.8423,0,0,0,.1876.0361l.0239.0038a.241.241,0,0,1,.0789.02.2006.2006,0,0,1,.0689.0587A.1818.1818,0,0,0,2.31,1.7714ZM2.088,1.6366a.3756.3756,0,0,0,.0919.0263.2612.2612,0,0,1,.0733.0212.2413.2413,0,0,1,.0971.0922.2048.2048,0,0,0-.0572-.0434.251.251,0,0,0-.082-.0209l-.0238-.0039a1.8145,1.8145,0,0,1-.1865-.0358,1.0264,1.0264,0,0,1-.1717-.0662c-.0226-.0107-.045-.0223-.0667-.0344l0-.0006.1928-.0323A.391.391,0,0,0,2.088,1.6366Zm-.3209-.0772a.3443.3443,0,0,0,.02-.1116h.6455Z"/><path d="M1.2624,1.2856l.0128-.0019a.1381.1381,0,0,1,.0257,0l.0064.0006.0064.001.0126.0026.0245.0087a.2064.2064,0,0,1,.0453.0294.1107.1107,0,0,0-.0385-.0417.1263.1263,0,0,0-.0264-.0128.1244.1244,0,0,0-.0289-.0057l-.0074,0H1.2875l-.0147.0017a.1166.1166,0,0,0-.028.0086.11.11,0,0,0-.0441.0358.1861.1861,0,0,1,.049-.0225Z"/><path d="M1.5569,1.2875,1.57,1.2849l.0063-.001.0065-.0006a.1369.1369,0,0,1,.0256,0l.0129.0019.0126.0032a.1852.1852,0,0,1,.0491.0225.11.11,0,0,0-.0441-.0358.118.118,0,0,0-.028-.0086l-.0147-.0017H1.5883l-.0074,0a.1148.1148,0,0,0-.0553.0185.1107.1107,0,0,0-.0385.0417.2064.2064,0,0,1,.0453-.0294Z"/><path d="M1.3859,1.362c0-.0234-.0338-.0417-.0769-.0417l-.0138.0007h0a.11.11,0,0,0-.0686.0249L1.2132,1.36l.0009.0076.0033.0012.0043-.0021.0119-.0124-.0015.008c0,.0235.0338.0418.0769.0418S1.3859,1.3855,1.3859,1.362Zm-.143,0c0-.0131.0206-.0271.0525-.03h0l.0067-.0005a.0315.0315,0,0,0,0,.0617C1.2665,1.3912,1.2429,1.3761,1.2429,1.362Zm.0718.0309a.0315.0315,0,0,0,0-.0617c.0364.0015.06.0166.06.0308S1.3511,1.3915,1.3147,1.3929Z"/><path d="M1.6572,1.3458a.11.11,0,0,0-.0686-.0249h0L1.5748,1.32c-.0431,0-.0769.0183-.0769.0417s.0338.0418.0769.0418.0768-.0183.0768-.0418L1.65,1.354l.0119.0124.0042.0021L1.67,1.3673l.001-.0076Zm-.1485.0162c0-.0142.024-.0293.06-.0308a.0315.0315,0,0,0,0,.0617C1.5327,1.3915,1.5087,1.3763,1.5087,1.362Zm.0728.0309a.0315.0315,0,0,0,0-.0617l.0068.0005h0c.0319.0032.0524.0172.0524.03S1.6173,1.3912,1.5815,1.3929Z"/><path d="M1.3869,1.5118c-.0051-.0008-.01-.0086-.0107-.0152a.023.023,0,0,1,.01-.0213l.0011-.0075L1.38,1.4666a.0337.0337,0,0,0-.0142.0315.0279.0279,0,0,0,.02.0244.02.02,0,0,0,.0161-.0065l.0067-.0037.0065.0075a.0344.0344,0,0,0,.0174.0176l.0122.0022.0106-.0018a.0335.0335,0,0,0,.0173-.0169L1.48,1.5122,1.49,1.515a.0178.0178,0,0,0,.0165.0026A.0262.0262,0,0,0,1.5174,1.49.033.033,0,0,0,1.5,1.4665l-.0072.0023.0023.0073a.0221.0221,0,0,1,.0118.0157c.0009.0068-.0014.0143-.005.0159l-.0069-.0022a.023.023,0,0,0-.0169-.0038.0239.0239,0,0,0-.0151.0138.023.023,0,0,1-.0117.0121.0234.0234,0,0,1-.015,0,.0252.0252,0,0,1-.012-.0129c-.0032-.0055-.0067-.0119-.0144-.0129a.0186.0186,0,0,0-.0152.0062Z"/><path d="M1.5023,1.5716a.0707.0707,0,0,0-.0172,0l-.0164.0041a.0821.0821,0,0,1-.0272.0056.0856.0856,0,0,1-.0276-.0043l-.0165-.0032a.0741.0741,0,0,0-.017,0,.0911.0911,0,0,0-.0309.0109.1151.1151,0,0,0-.025.0193.1465.1465,0,0,1,.0571-.0161.07.07,0,0,1,.0138.0011l.0136.0038.0157.0045a.0832.0832,0,0,0,.0172.0014l.017-.0022.0156-.0053.0133-.0044.0136-.0016a.0921.0921,0,0,1,.0283.0049.2312.2312,0,0,1,.0282.0114.344.344,0,0,1-.0576.02.2284.2284,0,0,1-.0293.0054.2079.2079,0,0,1-.03.002.255.255,0,0,1-.0589-.006.3438.3438,0,0,1-.0581-.0186.1592.1592,0,0,0,.0541.0321.18.18,0,0,0,.0631.01l.0161-.0008.008-.001.0079-.0013a.1721.1721,0,0,0,.0308-.0088.1561.1561,0,0,0,.0534-.0332h0a.1159.1159,0,0,0-.0248-.02A.0837.0837,0,0,0,1.5023,1.5716Z"/><path d="M1.439,1.6774c-.01,0-.0239.0026-.0244.0074l.0016.0035h.0461L1.464,1.685C1.4635,1.68,1.45,1.6774,1.439,1.6774Z"/></svg>