<svg xmlns="http://www.w3.org/2000/svg" viewBox="0 0 7.9818 5.1882"><rect width="7.9818" height="5.1882" fill="#fff"/><path d="M4.1532,4.1548a.2766.2766,0,0,1,.2457-.2009.1675.1675,0,0,1-.0128.0769A.2455.2455,0,0,1,4.1532,4.1548Z" fill="#54552c"/><path d="M4.181,4.2253A.3118.3118,0,0,1,4.39,4.1761a.2912.2912,0,0,1,.1047.0364.2853.2853,0,0,1-.3141.0128Z" fill="#54552c"/><path d="M4.3583,4.1184a.2551.2551,0,0,1,.265-.07.0918.0918,0,0,1-.0123.03C4.5747,4.1344,4.4739,4.1466,4.3583,4.1184Z" fill="#54552c"/><path d="M4.5763,3.9624A.2184.2184,0,0,1,4.634,3.86a.2317.2317,0,0,1,.1731-.062.2142.2142,0,0,1-.2308.1645Z" fill="#54552c"/><path d="M4.6618,4.0907A.133.133,0,0,1,4.696,4.05a.1911.1911,0,0,1,.1325-.0278.4383.4383,0,0,1,.1346.0256.2736.2736,0,0,1-.1624.07A.27.27,0,0,1,4.6618,4.0907Z" fill="#54552c"/><path d="M4.9909,3.8428a.1448.1448,0,0,1-.0162.0451c-.0585.1045-.2293.0968-.2445.0959a.2707.2707,0,0,1,.09-.0983A.2751.2751,0,0,1,4.9909,3.8428Z" fill="#54552c"/><path d="M4.9417,3.7958a.64.64,0,0,1,.0449-.1133.2469.2469,0,0,1,.1043-.1282.1629.1629,0,0,1,.0667-.015.4045.4045,0,0,1-.2159.2565Z" fill="#54552c"/><path d="M5.0294,3.9026a.3453.3453,0,0,1,.1816-.0833.3365.3365,0,0,1,.13.0085.2756.2756,0,0,1-.1133.0791A.283.283,0,0,1,5.0294,3.9026Z" fill="#54552c"/><path d="M5.07,3.7936a.2544.2544,0,0,1,.2008-.1944.2221.2221,0,0,1-.2008.1944Z" fill="#54552c"/><path d="M5.3093,3.5479a.365.365,0,0,1,.2287-.2843.1912.1912,0,0,1,0,.1482.21.21,0,0,1-.0894.0848A.3731.3731,0,0,1,5.3093,3.5479Z" fill="#54552c"/><path d="M5.23,3.5457c-.0016-.0145-.0035-.0359-.0042-.0619a.2125.2125,0,0,1,.0064-.0855.1193.1193,0,0,1,.06-.06.2474.2474,0,0,1-.062.2073Z" fill="#54552c"/><path d="M5.305,3.6633a.232.232,0,0,1,.0748-.077.2363.2363,0,0,1,.1454-.0342.1111.1111,0,0,1-.0236.0791.131.131,0,0,1-.0854.0363A.2727.2727,0,0,1,5.305,3.6633Z" fill="#54552c"/><path d="M4.8584,3.8193c-.01-.012.0006-.0353.0107-.0471.0078-.009.0241-.022.0342-.017.0138.0068.0173.0484-.0043.0641A.0331.0331,0,0,1,4.8584,3.8193Z" fill="#54552c"/><path d="M4.961,3.98c.0007-.0183.0131-.0392.0256-.0384.01.0005.017.0136.0193.0235.0055.0242-.0147.0528-.0278.0513C4.9679,4.0147,4.96,3.9951,4.961,3.98Z" fill="#54552c"/><path d="M4.4609,3.9389c.0144-.02.045-.031.0556-.0213s.0009.0383-.0128.0555c-.0112.014-.0331.03-.0449.0235S4.4471,3.9586,4.4609,3.9389Z" fill="#54552c"/><path d="M4.572,4.159c.0084-.0165.0291-.032.0428-.0256s.0154.03.0085.047c-.0085.02-.0336.0353-.047.0278S4.5635,4.1759,4.572,4.159Z" fill="#54552c"/><path d="M5.2327,3.7758c-.0076-.0148.0092-.04.03-.0506.0239-.0118.0584-.0052.064.011s-.0164.0384-.0384.0467C5.2692,3.79,5.24,3.79,5.2327,3.7758Z" fill="#54552c"/><path d="M3.88,4.4005l.109-.1282L4.1,4.4005l.0683-.0641-.1089-.09L4.11,4.22l-.032-.033-.0874.047-.0985-.047-.0257.033.0556.0269-.1154.0876Z" fill="#54552c"/><path d="M3.8286,4.1548a.2766.2766,0,0,0-.2458-.2009.17.17,0,0,0,.0128.0769A.2458.2458,0,0,0,3.8286,4.1548Z" fill="#54552c"/><path d="M3.8008,4.2253a.312.312,0,0,0-.2094-.0492.29.29,0,0,0-.1047.0364.2853.2853,0,0,0,.3141.0128Z" fill="#54552c"/><path d="M3.6234,4.1184a.255.255,0,0,0-.265-.07.0918.0918,0,0,0,.0124.03C3.4071,4.1344,3.5079,4.1466,3.6234,4.1184Z" fill="#54552c"/><path d="M3.4055,3.9624A.2184.2184,0,0,0,3.3478,3.86a.2317.2317,0,0,0-.1731-.062.2142.2142,0,0,0,.2308.1645Z" fill="#54552c"/><path d="M3.32,4.0907A.133.133,0,0,0,3.2858,4.05a.1911.1911,0,0,0-.1325-.0278.4383.4383,0,0,0-.1346.0256.2736.2736,0,0,0,.1624.07A.27.27,0,0,0,3.32,4.0907Z" fill="#54552c"/><path d="M2.9909,3.8428a.1448.1448,0,0,0,.0162.0451c.0585.1045.2292.0968.2445.0959a.27.27,0,0,0-.09-.0983A.2749.2749,0,0,0,2.9909,3.8428Z" fill="#54552c"/><path d="M3.04,3.7958a.6324.6324,0,0,0-.0449-.1133.2467.2467,0,0,0-.1042-.1282.1632.1632,0,0,0-.0667-.015.4048.4048,0,0,0,.2158.2565Z" fill="#54552c"/><path d="M2.9524,3.9026a.3457.3457,0,0,0-.1816-.0833.3365.3365,0,0,0-.13.0085.2749.2749,0,0,0,.1133.0791A.283.283,0,0,0,2.9524,3.9026Z" fill="#54552c"/><path d="M2.9118,3.7936a.2543.2543,0,0,0-.2009-.1944.2279.2279,0,0,0,.0727.1389A.2254.2254,0,0,0,2.9118,3.7936Z" fill="#54552c"/><path d="M2.6725,3.5479a.365.365,0,0,0-.2287-.2843.1907.1907,0,0,0,0,.1482.2093.2093,0,0,0,.0893.0848A.3741.3741,0,0,0,2.6725,3.5479Z" fill="#54552c"/><path d="M2.7515,3.5457c.0016-.0145.0036-.0359.0043-.0619a.2143.2143,0,0,0-.0064-.0855.12.12,0,0,0-.06-.06.2469.2469,0,0,0,.0619.2073Z" fill="#54552c"/><path d="M2.6767,3.6633a.23.23,0,0,0-.0748-.077.236.236,0,0,0-.1453-.0342.1109.1109,0,0,0,.0235.0791.131.131,0,0,0,.0855.0363A.2722.2722,0,0,0,2.6767,3.6633Z" fill="#54552c"/><path d="M3.1234,3.8193c.01-.012-.0007-.0353-.0107-.0471-.0078-.009-.0242-.022-.0342-.017-.0138.0068-.0174.0484.0043.0641A.0331.0331,0,0,0,3.1234,3.8193Z" fill="#54552c"/><path d="M3.0208,3.98c-.0008-.0183-.0132-.0392-.0257-.0384-.01.0005-.0169.0136-.0192.0235-.0055.0242.0146.0528.0278.0513C3.0139,4.0147,3.0214,3.9951,3.0208,3.98Z" fill="#54552c"/><path d="M3.5209,3.9389c-.0145-.02-.045-.031-.0556-.0213s-.0009.0383.0128.0555c.0112.014.0331.03.0449.0235S3.5347,3.9586,3.5209,3.9389Z" fill="#54552c"/><path d="M3.41,4.159c-.0084-.0165-.029-.032-.0427-.0256s-.0155.03-.0086.047c.0085.02.0337.0353.0471.0278S3.4182,4.1759,3.41,4.159Z" fill="#54552c"/><path d="M2.749,3.7758c.0077-.0148-.0091-.04-.03-.0506-.0239-.0118-.0585-.0052-.064.011s.0164.0384.0383.0467C2.7125,3.79,2.7415,3.79,2.749,3.7758Z" fill="#54552c"/><path d="M4.3742,2.8887c.0061-.0067.01-.0162.0162-.0229a.2581.2581,0,0,1,.0329-.0225c.0168-.0138.0239-.0425.0449-.0486.0262-.0075.059.008.0863.0017.0216-.005.0192-.0235.0292-.0429s.0291-.0352.0336-.0567c.003-.0143.0026-.0289.0052-.0433.0065-.0349-.0055-.08.0086-.112a.1514.1514,0,0,1,.0262-.0348.3664.3664,0,0,1,.04-.0445.1585.1585,0,0,1,.1048-.0176.6029.6029,0,0,1,.1174.0151.2559.2559,0,0,1,.0705.0324c.019.0117.029.0283.0527.0289.02.0005.0324-.0059.0373-.024.0025-.009,0-.0147.0043-.022a.0961.0961,0,0,1,.0309-.0258.1933.1933,0,0,1,.095-.01.4567.4567,0,0,1,.0585,0,.2493.2493,0,0,1,.0894.0278c.0158.0088.0435.0316.0617.0289-.0025-.0079.0036-.0143.0027-.0229A.3387.3387,0,0,0,5.33,2.301,1.0276,1.0276,0,0,1,5.1036,2.02a.2168.2168,0,0,1-.0078-.1593.4279.4279,0,0,1,.04-.0588c.0149-.0251.0392-.06.0522-.0856.0156-.03.0456-.0215.0736-.019.04.0035.0919.0159.1233-.0131.0271-.025.0114-.0466.023-.0778a.3991.3991,0,0,1,.076-.1007c.0265-.0307.0573-.0366.09-.0593A.41.41,0,0,1,5.65,1.4061c.0334-.0145.0626-.0325.0966-.0457a.1913.1913,0,0,0,.0678-.0386.5031.5031,0,0,1,.09-.084A.3138.3138,0,0,0,6,1.1785c.0108-.0133.0054-.0292.0146-.0446A.2673.2673,0,0,1,6.0429,1.1c.032-.036.0835-.0446.1226-.0708s.0873-.008.1228-.0416A.0932.0932,0,0,0,6.31.9393.2121.2121,0,0,0,6.3274.8677a.3962.3962,0,0,0-.071.02.3226.3226,0,0,0-.0556.04C6.1839.8835,6.1708.94,6.1572.95a.18.18,0,0,1-.065.0162c-.0114-.0028-.0058-.0141-.0217-.01-.02.0053-.0419.0333-.0612.0422a.1115.1115,0,0,1-.0555.0056c-.0511-.0008-.05.0317-.0734.0656-.0153.0216-.0408.029-.0616.0434a.1174.1174,0,0,1-.0426.0252c-.01.002-.0221-.0019-.0326,0-.0246.004-.0395.0288-.0638.035a.1754.1754,0,0,1-.0605.0015c-.0165-.0025-.0125-.0073-.0263.0018a.1157.1157,0,0,0-.0253.034.18.18,0,0,1-.0617.0637c-.0231.0135-.0479.0206-.0721.0321a.5812.5812,0,0,0-.0741.0483,1.0642,1.0642,0,0,1-.2759.1033.3327.3327,0,0,1-.103.0327.3146.3146,0,0,0-.1261.0038c-.0455.0214-.0852.05-.1289.0748-.0178.01-.0351.02-.0526.0305-.0345.0214-.08.0029-.1177.0168a.2918.2918,0,0,1-.0915.0249.2519.2519,0,0,0-.09.0181.1971.1971,0,0,1-.0671.0053c-.0211.0018-.04.0058-.0616.0058A.6307.6307,0,0,1,4.12,1.6635c-.0265-.0056-.0535-.0073-.08-.0153a.469.469,0,0,0-.06-.0065c-.0085-.0015-.0195-.01-.0282-.0091-.0068.0007-.01.0086-.0167.01a.121.121,0,0,1-.0367-.008c-.0168-.0037-.0241-.0145-.0374-.0191a.0752.0752,0,0,0-.0333.0019A.1518.1518,0,0,1,3.69,1.59c-.0084.0106-.0171.0294-.03.0345a.1143.1143,0,0,1-.0669-.0074c-.0165-.0057-.0313-.0179-.0469-.023s-.0357.0032-.053-.001c-.0307-.0075-.0547-.0331-.0849-.0434-.0186-.0064-.0486-.0378-.0673-.0338a.6053.6053,0,0,0,.0031.0769.0876.0876,0,0,0,.0019.0312c.004.0083.0144.0108.0188.02a.2609.2609,0,0,1,.006.0767.56.56,0,0,1,.0021.071.4057.4057,0,0,1-.0312.1236c-.0107.0264-.0192.0564-.0321.0807-.01.0191-.0456.0567-.0689.0575a.1818.1818,0,0,1-.0366.0221.0435.0435,0,0,1-.0411.0035c-.016-.006-.0287-.0042-.0423-.0165a.0988.0988,0,0,0-.0179-.0154c-.0088-.005-.0191-.0063-.0279-.0112l-.0173-.01c-.0083-.0035-.0167-.0023-.025-.0051-.0108-.0037-.0132-.0138-.0245-.0175-.0089-.0029-.0166-.0077-.0252-.01-.016-.0037-.0341-.0006-.05-.0029a.0756.0756,0,0,1-.0345-.0123c-.008-.0053-.0135-.0118-.0235-.0126a.1275.1275,0,0,0-.0426.0134.0212.0212,0,0,0-.0248,0c-.0065.0056-.0078.0175-.0152.0233s-.0146.0028-.0241.004A.06.06,0,0,0,2.742,2.02c-.01.0065-.0142.0051-.0262.003-.0148-.0027-.0349-.0184-.0421.0014a.1292.1292,0,0,1-.0155.0351c-.01.0132-.0244.0218-.0339.0354-.0209.03-.0308.0631-.0486.0944a.1632.1632,0,0,1-.0279.0372c-.0167.0162-.0294.0353-.0464.0511A.0912.0912,0,0,1,2.448,2.31a.1313.1313,0,0,1-.0343-.0024c-.017-.0035-.0344-.0006-.0515-.0036a.0679.0679,0,0,1-.0349-.02.2109.2109,0,0,0-.05-.0359A.0739.0739,0,0,1,2.24,2.2045a.0755.0755,0,0,0-.0088-.0183c-.0045-.0059-.0118-.01-.0151-.0166-.018-.0005-.0224-.0013-.0283.0168a.3427.3427,0,0,0-.012.0436.14.14,0,0,0,.0163.1c.018.0284.052.0472.058.0821a.1734.1734,0,0,1,0,.0566c-.003.0128-.0185.0205-.0173.0331s.0081.0063.0117.0122c.0051.0086.0091.0184.0138.0274.0081.0152.0186.0284.0139.0469-.005.02-.02.0263-.0087.0459.0047.008.0142.0133.0193.0211.0065.01.01.0219.0164.0318.0274.0385.0858.0351.0965.0888a.3165.3165,0,0,0,.0531.1711c.0207.0207.05.024.0693.0466a.127.127,0,0,0,.0848.0471.4956.4956,0,0,1,.1662.0781.2259.2259,0,0,0,.0613.0364c.0222.0065.0469.0057.0689.0129a.144.144,0,0,0,.067.0178c.0217-.0022.0308-.02.0537-.0173a.2938.2938,0,0,0,.0952-.0246.8312.8312,0,0,1,.0907-.014c.0171-.0025.0225-.0129.0414-.0061a.0926.0926,0,0,1,.0345.0283.2413.2413,0,0,1,.0934.1808c.0166.0007.0343-.0037.05-.0026.0183.0012.0291.012.0456.0167s.0692.02.0768,0S3.5,3.2788,3.4961,3.25a.1345.1345,0,0,1,.0272-.0927.2416.2416,0,0,1,.0846-.0706.4081.4081,0,0,1,.0775-.0238.4459.4459,0,0,1,.0761-.0277c.03-.0048.05.0115.0794.0154a.3074.3074,0,0,0,.1043-.0054c.0227-.0059.03-.0209.05-.0306.0234-.0111.0328.0014.0518.0016.0279,0,.0434-.0239.0723-.0282.0383-.0058.0557-.0272.09-.0432A.5062.5062,0,0,1,4.3742,2.8887Z" fill="#dc820a"/></svg>