<svg xmlns="http://www.w3.org/2000/svg" viewBox="0 0 7.9819 5.1882"><rect y="3.4588" width="7.9819" height="1.7294" fill="#d21126"/><path d="M0,3.4588H7.9819V1.7294H0Zm5.4325-.5854.0532.1459.1552-.0054L5.5185,3.11l.0531.146-.1288-.0869L5.32,3.2643l.0428-.1493-.1287-.0869L5.39,3.0227Zm-.24-.3294.144-.0582-.0823.1317.1.119-.1507-.0376-.0823.1318L5.11,2.6757,4.959,2.6381,5.103,2.58,5.0921,2.425ZM4.6189,2.12l.1345.0777.1154-.104-.0323.152.1346.0776L4.8166,2.34l-.0323.1519L4.7211,2.35l-.1544.0162.1154-.1039Zm-.396-.0977.0729-.1371.0216.1538.153.027-.14.0681.0216.1538-.1079-.1118-.14.0681.073-.1371L4.07,1.9955Zm-.5585.0167.0217-.1538.0729.1371.1529-.0269-.1079.1117.0729.1371-.14-.0681L3.63,2.288l.0216-.1538-.14-.0681Zm-.5514.0547.1154.104L3.363,2.12,3.3,2.262l.1154.1039L3.2607,2.35l-.0631.1419L3.1653,2.34l-.1545-.0163.1345-.0776Zm-.4671.392.144.0582.1-.119L2.8789,2.58l.144.0582-.1507.0376-.0108.155-.0823-.1318-.1507.0376.1-.119Zm-.15.5335.0532-.1459.0428.1493.1552.0054-.1288.0869.0428.1493L2.539,3.1686,2.41,3.2555l.0531-.146L2.341,3.0139Z" fill="#00287d"/><path d="M0,0V1.7294H7.9819V0Z" fill="#ffd200"/><polygon points="4.105 2.244 4.244 2.176 4.352 2.288 4.331 2.134 4.47 2.066 4.317 2.039 4.296 1.885 4.223 2.022 4.07 1.995 4.178 2.107 4.105 2.244" fill="#fff"/><polygon points="4.721 2.35 4.784 2.492 4.817 2.34 4.971 2.323 4.836 2.246 4.869 2.094 4.753 2.198 4.619 2.12 4.682 2.262 4.567 2.366 4.721 2.35" fill="#fff"/><polygon points="4.959 2.638 5.11 2.676 5.12 2.831 5.203 2.699 5.353 2.736 5.254 2.618 5.336 2.486 5.192 2.544 5.092 2.425 5.103 2.58 4.959 2.638" fill="#fff"/><polygon points="5.363 3.115 5.32 3.264 5.443 3.169 5.572 3.255 5.518 3.109 5.641 3.014 5.486 3.019 5.432 2.873 5.39 3.023 5.234 3.028 5.363 3.115" fill="#fff"/><polygon points="3.629 2.288 3.737 2.176 3.877 2.244 3.804 2.107 3.912 1.995 3.759 2.022 3.686 1.885 3.664 2.039 3.511 2.066 3.651 2.134 3.629 2.288" fill="#fff"/><polygon points="3.165 2.34 3.198 2.492 3.261 2.35 3.415 2.366 3.3 2.262 3.363 2.12 3.228 2.198 3.113 2.094 3.145 2.246 3.011 2.323 3.165 2.34" fill="#fff"/><polygon points="2.779 2.699 2.861 2.831 2.872 2.676 3.023 2.638 2.879 2.58 2.89 2.425 2.79 2.544 2.646 2.486 2.728 2.618 2.628 2.736 2.779 2.699" fill="#fff"/><polygon points="2.41 3.255 2.539 3.169 2.661 3.264 2.619 3.115 2.747 3.028 2.592 3.023 2.549 2.873 2.496 3.019 2.341 3.014 2.463 3.109 2.41 3.255" fill="#fff"/></svg>