<svg xmlns="http://www.w3.org/2000/svg" viewBox="0 0 7.9818 5.1882"><rect width="7.9818" height="5.1882" fill="#c00"/><polygon points="4.332 1.966 4.615 2.355 5.072 2.206 4.789 2.595 5.072 2.984 4.615 2.835 4.332 3.224 4.332 2.743 3.875 2.595 4.332 2.447 4.332 1.966" fill="#fff"/><path d="M3.9649,1.9178a1.3383,1.3383,0,0,0-.5225-.4817,1.3064,1.3064,0,0,0-.5744-.1446,1.299,1.299,0,0,0-1.1,2.0145,1.3505,1.3505,0,0,0,.8894.5781,1.4062,1.4062,0,0,0,1.0533-.31,1.2764,1.2764,0,0,0,.2549-.3032,1.0323,1.0323,0,0,1-1.4927.0809,1.0715,1.0715,0,0,1-.3261-.8227,1.0918,1.0918,0,0,1,.4439-.7847,1.044,1.044,0,0,1,.6837-.1834A1.0578,1.0578,0,0,1,3.9649,1.9178Z" fill="#fff"/></svg>