<svg xmlns="http://www.w3.org/2000/svg" viewBox="0 0 7.9818 5.1882"><rect width="2.0473" height="5.1882" fill="#fdfffe"/><rect x="2.0473" width="5.9345" height="5.1882" fill="#013f1a"/><path d="M4.22,3.1043a1.432,1.432,0,0,0,2.1733.1239,1.6294,1.6294,0,0,1-1.4346.9339,1.6026,1.6026,0,0,1-1.56-1.56A1.6238,1.6238,0,0,1,4.4978,1.1014a1.4861,1.4861,0,0,0-.47.6533A1.5031,1.5031,0,0,0,4.22,3.1043Z" fill="#fdfffe"/><polygon points="5.533 1.42 5.792 1.708 6.146 1.55 5.952 1.885 6.211 2.173 5.832 2.093 5.639 2.428 5.598 2.043 5.22 1.962 5.573 1.805 5.533 1.42" fill="#fdfffe"/></svg>