<svg xmlns="http://www.w3.org/2000/svg" viewBox="0 0 7.9854 5.1882"><polygon points="0.937 0 0.004 0 0.004 0.623 2.958 2.594 0.004 4.566 0.004 5.188 0.937 5.188 4.047 3.113 7.985 3.113 7.985 2.075 4.047 2.075 0.937 0" fill="#063"/><polygon points="1.559 5.188 7.985 5.188 7.985 3.459 4.15 3.459 1.559 5.188" fill="#039"/><polygon points="1.559 0 4.15 1.729 7.985 1.729 7.985 0 1.559 0" fill="#c33"/><polygon points="0 0.623 0 1.038 2.335 2.594 0 4.151 0 4.566 2.957 2.594 0 0.623" fill="#fc0"/><polygon points="0 1.038 0 4.151 2.335 2.594 0 1.038"/><polygon points="1.559 0 0.937 0 4.047 2.075 7.985 2.075 7.985 1.729 4.15 1.729 1.559 0" fill="#fff"/><polygon points="0.937 5.188 1.559 5.188 4.15 3.459 7.985 3.459 7.985 3.113 4.047 3.113 0.937 5.188" fill="#fff"/></svg>