<svg xmlns="http://www.w3.org/2000/svg" viewBox="0 0 7.9818 5.1882"><polygon points="0 5.188 7.982 5.188 7.982 3.891 1.995 3.891 0 5.188" fill="#427fc4"/><polygon points="1.995 3.891 7.982 3.891 7.982 2.594 3.991 2.594 1.995 3.891" fill="#c71a2c"/><polygon points="3.991 2.594 7.982 2.594 7.982 1.297 1.995 1.297 3.991 2.594" fill="#fff"/><polygon points="0 0 1.995 1.297 7.982 1.297 7.982 0 0 0" fill="#f9bf23"/><polygon points="1.995 1.297 0 0 0 1.297 0 2.594 0 3.891 0 5.188 1.995 3.891 3.991 2.594 1.995 1.297" fill="#449635"/><path d="M.8676,2.5938a1.0553,1.0553,0,0,1,.8286-1.0274.981.981,0,0,0-.2979-.0359,1.0724,1.0724,0,0,0-.7113.3277,1.093,1.093,0,0,0-.2924.7356,1.11,1.11,0,0,0,.4523.8732,1.0965,1.0965,0,0,0,.8537.1559A1.0553,1.0553,0,0,1,.8676,2.5938Z" fill="#fff"/><polygon points="1.686 1.632 1.641 1.773 1.493 1.773 1.612 1.86 1.567 2.001 1.686 1.914 1.806 2.001 1.761 1.86 1.881 1.773 1.732 1.773 1.686 1.632" fill="#fff"/><polygon points="1.686 2.138 1.641 2.279 1.493 2.279 1.612 2.366 1.567 2.507 1.686 2.42 1.806 2.507 1.761 2.366 1.881 2.279 1.732 2.279 1.686 2.138" fill="#fff"/><polygon points="1.686 2.645 1.641 2.786 1.493 2.786 1.612 2.873 1.567 3.014 1.686 2.927 1.806 3.014 1.761 2.873 1.881 2.786 1.732 2.786 1.686 2.645" fill="#fff"/><polygon points="1.732 3.292 1.686 3.151 1.641 3.292 1.493 3.292 1.612 3.379 1.567 3.52 1.686 3.433 1.806 3.52 1.761 3.379 1.881 3.292 1.732 3.292" fill="#fff"/></svg>