<svg xmlns="http://www.w3.org/2000/svg" viewBox="0 0 7.9818 5.1882"><rect width="7.9818" height="5.1882" fill="#ce1126"/><path d="M4.7172,2.6413l.0471-.01.0018,0-.0475-.0192Z" fill="#fcd116"/><path d="M2.9654,2.4766c-.0288.02-.0582.0385-.0875.0563a.4227.4227,0,0,1-.1459.0689.2412.2412,0,0,1-.06.0025.3126.3126,0,0,0,.0346.026h0l.0247-.0048a1.1709,1.1709,0,0,1,.2036-.0237A1.0641,1.0641,0,0,1,3.18,2.625l.0765-.0309Z" fill="#fcd116"/><path d="M3.9909,1.8851a.71.71,0,0,0-.7091.709q0,.0276.0021.0546a2.6778,2.6778,0,0,1,.2676.0806,1.4765,1.4765,0,0,0,.2106.0605,1.0644,1.0644,0,0,0,.219.0322,1.169,1.169,0,0,0,.3736-.0692c.0674-.02.113-.0354.1571-.0508a1.6812,1.6812,0,0,1,.1863-.0563c.0012-.017.0019-.0342.0019-.0516A.71.71,0,0,0,3.9909,1.8851Z" fill="#fcd116"/><path d="M3.2133,2.632l.0514.012-.0015-.0322Z" fill="#fcd116"/><path d="M4.0808,3.1915c-.0341.0026-.0694.0037-.1068.003-.0208,0-.04-.0013-.0591-.0026.0212.0024.0426.0038.0662.0043A.7341.7341,0,0,0,4.0808,3.1915Z" fill="#fcd116"/><path d="M4.2847,1.6046c-.0142-.0316-.0277-.0639-.04-.096A.42.42,0,0,1,4.202,1.353.2374.2374,0,0,1,4.21,1.294a.2961.2961,0,0,0-.0317.03.4384.4384,0,0,0-.0738.1214c-.0186.0389-.0357.0795-.0508.12l.0648.3056Z" fill="#fcd116"/><path d="M5.3093,2.584a.3006.3006,0,0,0-.0346-.026.44.44,0,0,0-.1324-.0517c-.0416-.0115-.0845-.0213-.1275-.029l-.29.1168.0753.03a1.2368,1.2368,0,0,1,.1977-.0218,1.1057,1.1057,0,0,1,.18.01A.2335.2335,0,0,1,5.25,2.5865.2412.2412,0,0,1,5.3093,2.584Z" fill="#fcd116"/><path d="M4.3394,1.9552l.0733-.52-.278.4453A.7221.7221,0,0,1,4.3394,1.9552Z" fill="#fcd116"/><path d="M3.8471,1.8805l-.278-.4453.0733.52A.7221.7221,0,0,1,3.8471,1.8805Z" fill="#fcd116"/><path d="M3.9286,1.5638c-.0243-.0249-.048-.0506-.0707-.0764a.419.419,0,0,1-.0931-.1317.2382.2382,0,0,1-.0128-.0582.3186.3186,0,0,0-.02.0386.4448.4448,0,0,0-.0278.1394c-.0042.0429-.0063.0869-.0065.1306l.1654.265Z" fill="#fcd116"/><path d="M4.6687,2.3286l.39-.3511-.5.1626A.7284.7284,0,0,1,4.6687,2.3286Z" fill="#fcd116"/><path d="M4.6808,2.343l.314.0108c.02-.0282.0415-.056.063-.0828a.4177.4177,0,0,1,.1135-.1146.236.236,0,0,1,.0551-.0227.3093.3093,0,0,0-.0415-.0126.436.436,0,0,0-.1421-.0033c-.043.0034-.0867.0089-.13.0163Z" fill="#fcd116"/><path d="M4.358,1.9583l.2475-.1935c-.0026-.0347-.0043-.07-.0051-.104A.422.422,0,0,1,4.6137,1.5a.2447.2447,0,0,1,.0276-.0529.3261.3261,0,0,0-.04.017.4393.4393,0,0,0-.111.0889c-.0307.03-.0606.0625-.0889.0959Z" fill="#fcd116"/><path d="M4.5533,2.1222,4.852,2.025c.01-.0334.02-.0669.0309-.0994A.4192.4192,0,0,1,4.95,1.779a.24.24,0,0,1,.044-.04.3288.3288,0,0,0-.0433.0023.44.44,0,0,0-.1346.0456c-.0393.0178-.0784.0379-.1164.06Z" fill="#fcd116"/><path d="M.8568,3.5715a.6508.6508,0,0,1-.0985.0026L.7349,3.5724a.3073.3073,0,0,0,.0342.0035A.4431.4431,0,0,0,.8568,3.5715Z" fill="#fcd116"/><polygon points="3.916 3.566 3.915 3.566 3.916 3.566 3.916 3.566" fill="#fcd116"/><path d="M3.9811,3.57c.0224.0005.0437,0,.0646-.0014l0-.0011c-.0233.001-.0472.0014-.072.0009l-.0383-.0014,0,.0008C3.95,3.5693,3.9652,3.57,3.9811,3.57Z" fill="#fcd116"/><path d="M4.0808,3.5657l-.0153.0011,0,.0006Z" fill="#fcd116"/><path d="M3.6238,1.9583,3.58,1.6472c-.0313-.0151-.0624-.0311-.0925-.0476a.4211.4211,0,0,1-.1326-.0919.2382.2382,0,0,1-.0319-.05.3116.3116,0,0,0-.0052.043.438.438,0,0,0,.0215.1405c.0108.0418.0238.0838.0386.125Z" fill="#fcd116"/><path d="M.8568,3.1973A.6508.6508,0,0,1,.7583,3.2L.7349,3.1983l.0342.0035A.443.443,0,0,0,.8568,3.1973Z" fill="#fcd116"/><path d="M.8568,3.9457a.6641.6641,0,0,1-.0985.0026L.7349,3.9466A.3073.3073,0,0,0,.7691,3.95.4431.4431,0,0,0,.8568,3.9457Z" fill="#fcd116"/><path d="M.0444,3.73,0,3.7248V3.726l.0083,0Z" fill="#fcd116"/><path d="M4.0808,3.94c-.0341.0026-.0694.0037-.1068.003-.0208,0-.04-.0013-.0591-.0027.0212.0024.0426.0039.0662.0043A.7345.7345,0,0,0,4.0808,3.94Z" fill="#fcd116"/><path d="M.8568,4.32a.678.678,0,0,1-.0985.0026L.7349,4.3208a.3331.3331,0,0,0,.0342.0035A.4508.4508,0,0,0,.8568,4.32Z" fill="#fcd116"/><path d="M7.6248,4.5757a1.1308,1.1308,0,0,1-.1819.0724l-.0158.0046H7.4263a1.215,1.215,0,0,1-.2229.0395A.9049.9049,0,0,1,6.8489,4.62a1.3772,1.3772,0,0,1-.1365-.0557,1.04,1.04,0,0,0-.1413-.0548.5866.5866,0,0,0-.1676-.0361.559.559,0,0,0-.1647.0236.8149.8149,0,0,0-.15.0547c-.0388.0174-.0873.0391-.1623.0669a.9128.9128,0,0,1-.3228.0812H5.5957a.8069.8069,0,0,1-.2477-.0467,1.2564,1.2564,0,0,1-.2041-.08,1.104,1.104,0,0,0-.1851-.0716.5688.5688,0,0,0-.1862-.03.5848.5848,0,0,0-.131.0216.8159.8159,0,0,0-.1554.0569c-.0359.0163-.0766.0348-.1362.0571a.9261.9261,0,0,1-.3721.0837.84.84,0,0,1-.2222-.04,1.1807,1.1807,0,0,1-.1973-.0733A1.5026,1.5026,0,0,0,3.37,4.5043a.5223.5223,0,0,0-.1839-.0332.4871.4871,0,0,0-.1094.0172,1.0369,1.0369,0,0,0-.1891.0667c-.0442.0192-.0942.041-.1664.0662a.8805.8805,0,0,1-.3441.0716.8347.8347,0,0,1-.2092-.0365A1.0061,1.0061,0,0,1,1.9688,4.58a.9927.9927,0,0,0-.1346-.0561.6685.6685,0,0,0-.2534-.0493.8.8,0,0,0-.2417.0581.7971.7971,0,0,0-.1024.043.9506.9506,0,0,1-.1174.05.901.901,0,0,1-.361.0708,1.077,1.077,0,0,1-.3446-.098C.3693,4.5813.3359,4.5668.3065,4.5539A.8924.8924,0,0,0,.1684,4.503.95.95,0,0,0,0,4.4731v.7151H7.9818V4.4748a.7647.7647,0,0,0-.2526.0552C7.6886,4.5451,7.6576,4.56,7.6248,4.5757Z" fill="#003f87"/><path d="M.0444,4.1038,0,4.099V4.1l.0083,0Z" fill="#fcd116"/><path d="M4.0808,4.3141c-.0341.0026-.0694.0037-.1068.003-.0208,0-.04-.0014-.0591-.0027.0212.0024.0426.0038.0662.0043A.7345.7345,0,0,0,4.0808,4.3141Z" fill="#fcd116"/><path d="M3.4224,2.14l-.5-.1626.39.3511A.7284.7284,0,0,1,3.4224,2.14Z" fill="#fcd116"/><path d="M3.301,2.343l-.2336-.21c-.0337.0086-.0678.0163-.1015.023a.42.42,0,0,1-.1606.0149.2423.2423,0,0,1-.0568-.0181.3143.3143,0,0,0,.0237.0363.44.44,0,0,0,.1067.0939c.0352.025.0721.0489.11.0709Z" fill="#fcd116"/><path d="M4.5368,2.1131l.2468-.4637L4.37,1.9729A.7321.7321,0,0,1,4.5368,2.1131Z" fill="#fcd116"/><path d="M3.9909,1.8662A.7241.7241,0,0,1,4.1,1.8744l-.1089-.5135-.1089.5135A.7241.7241,0,0,1,3.9909,1.8662Z" fill="#fcd116"/><path d="M3.4285,2.1222l-.1476-.2773c-.0346-.0035-.0693-.0079-.1033-.0131a.4206.4206,0,0,1-.156-.041.2419.2419,0,0,1-.0472-.0364.3153.3153,0,0,0,.01.0422.4418.4418,0,0,0,.0682.1247c.0245.0356.0511.0706.0791.1042Z" fill="#fcd116"/><path d="M3.301,2.3619,2.7764,2.38l.4868.1964A.7218.7218,0,0,1,3.301,2.3619Z" fill="#fcd116"/><path d="M3.6119,1.9729l-.4137-.3235.2468.4637A.7321.7321,0,0,1,3.6119,1.9729Z" fill="#fcd116"/><path d="M4.7186,2.5764,5.01,2.4589l0,0L5.2054,2.38l-.5246-.0181A.7218.7218,0,0,1,4.7186,2.5764Z" fill="#fcd116"/><path d="M.0444,2.9813,0,2.9764v.0012l.0083,0Z" fill="#fcd116"/><path d="M.0444,3.3555,0,3.3506v.0012l.0083,0Z" fill="#fcd116"/><path d="M4.0653,3.5674l0-.0006-.0195.001,0,.0011Z" fill="#bd9c08"/><path d="M3.9359,3.5681l0-.0008-.02-.0012h0Z" fill="#bd9c08"/><path d="M2.7071,2.63a.3126.3126,0,0,1-.0346-.026.2412.2412,0,0,0,.06-.0025.4227.4227,0,0,0,.1459-.0689c.0293-.0178.0587-.0368.0875-.0563l.2913.1175L3.18,2.625l.0331.007.05-.02.0015.0322.0072.0017.012.003q-.0021-.027-.0021-.0546a.7091.7091,0,0,1,1.4182,0c0,.0174-.0007.0346-.0019.0516l.0191-.0044.0014-.03.0475.0192L4.8,2.6245l-.0753-.03.29-.1168c.043.0077.0859.0175.1275.029a.44.44,0,0,1,.1324.0517.3006.3006,0,0,1,.0346.026.2412.2412,0,0,0-.06.0025.2335.2335,0,0,0-.0713.0265l.0335.005a.1525.1525,0,0,1,.0409-.0129.2292.2292,0,0,1,.0825.0015l.03.0059-.021-.0217a.3434.3434,0,0,0-.059-.0487.482.482,0,0,0-.1377-.054c-.0328-.0091-.0664-.0171-.1-.0239l.2066-.0834a.0094.0094,0,0,0-.0032-.0181l-.2329-.0081c.0178-.0244.0362-.0485.0549-.0718.0715-.0893.0953-.1028.1081-.11a.2292.2292,0,0,1,.078-.0268l.03-.0046-.0272-.0132a.3408.3408,0,0,0-.0722-.0255.4785.4785,0,0,0-.1478-.0037c-.0339.0027-.0682.0066-.1023.0118l.1656-.149L5.1065,1.95a.01.01,0,0,0-.0111-.0042l-.2217.0721c.0084-.029.0175-.058.0271-.0863a.3946.3946,0,0,1,.0639-.14A.2294.2294,0,0,1,5.0289,1.74l.0265-.0146-.03-.0031a.3432.3432,0,0,0-.0765.0007.4782.4782,0,0,0-.14.0471c-.0309.0141-.0618.03-.0921.0461l.1047-.1967-.0023-.0117-.0119,0-.1836.1436c-.002-.03-.0034-.06-.0041-.09a.3947.3947,0,0,1,.0121-.1538A.2278.2278,0,0,1,4.674,1.436l.02-.0227-.0293.0073a.3473.3473,0,0,0-.0717.0268.48.48,0,0,0-.1156.0922c-.0243.0239-.048.049-.0708.0749l.0311-.2207a.0093.0093,0,0,0-.0061-.01.0092.0092,0,0,0-.0112.0038l-.1235.1978-.012-.0279L4.2816,1.55l-.0037-.0089-.0063-.0152-.01-.0241a.3959.3959,0,0,1-.0412-.1486.23.23,0,0,1,.0159-.081l.0109-.0281-.025.0169a.342.342,0,0,0-.0582.05.4763.4763,0,0,0-.0771.1262c-.0146.0307-.0283.0624-.0409.0945L4,1.3134a.0094.0094,0,0,0-.0184,0l-.0484.2281c-.021-.0218-.0415-.0442-.0612-.0666a.3954.3954,0,0,1-.09-.1255A.2289.2289,0,0,1,3.77,1.2678l.0007-.03-.0177.0244a.3373.3373,0,0,0-.0377.0666.4775.4775,0,0,0-.0293.145c-.0033.0339-.0053.0683-.0061.1029l-.118-.1891a.0095.0095,0,0,0-.0174.0063l.0326.2309c-.0272-.0134-.0542-.0273-.08-.0417a.3921.3921,0,0,1-.1271-.0873.228.228,0,0,1-.04-.0722l-.01-.0286-.0083.029a.3416.3416,0,0,0-.0127.0755.479.479,0,0,0,.0221.1462c.0085.033.0184.0661.0294.0988l-.1755-.1373-.0119,0-.0023.0117.1095.2058c-.03-.0033-.06-.0072-.09-.0117a.3907.3907,0,0,1-.1493-.0386A.227.227,0,0,1,2.969,1.72L2.95,1.6968l.0021.03a.335.335,0,0,0,.014.0752.4761.4761,0,0,0,.0707.13c.0193.028.04.0558.0614.0828l-.2119-.069a.01.01,0,0,0-.0111.0042l.0019.0118.1733.1559c-.0294.0072-.059.0139-.0883.02a.3933.3933,0,0,1-.1535.0148.2274.2274,0,0,1-.077-.03l-.0258-.0156.0123.0275a.3407.3407,0,0,0,.0389.066.4793.4793,0,0,0,.1109.0978c.0277.02.0565.0388.086.0568l-.2227.0077a.0094.0094,0,0,0-.0032.0181l.2161.0873c-.0251.0168-.0506.0332-.0761.0487a.397.397,0,0,1-.1392.0664.2271.2271,0,0,1-.0825-.0016l-.03-.0059.021.0217a.3265.3265,0,0,0,.044.0383L2.7073,2.63Zm2.4983-.25L5.01,2.4587l0,0-.2912.1175a.7218.7218,0,0,0-.0378-.2145Zm-.1626-.2622a.436.436,0,0,1,.1421.0033.3093.3093,0,0,1,.0415.0126.236.236,0,0,0-.0551.0227.4177.4177,0,0,0-.1135.1146c-.0215.0268-.0427.0546-.063.0828l-.314-.0108.2322-.2089C4.9561,2.1267,5,2.1212,5.0428,2.1178Zm.0161-.14-.39.3511A.7284.7284,0,0,0,4.5594,2.14Zm-.2424-.1907a.44.44,0,0,1,.1346-.0456.3288.3288,0,0,1,.0433-.0023.24.24,0,0,0-.044.04.4192.4192,0,0,0-.0675.1466c-.011.0325-.0214.066-.0309.0994l-.2987.0972L4.7,1.8465C4.7381,1.8247,4.7772,1.8046,4.8165,1.7868Zm-.0329-.1374-.2468.4637a.7321.7321,0,0,0-.1669-.14Zm-.2931-.0963a.4393.4393,0,0,1,.111-.0889.3261.3261,0,0,1,.04-.017A.2447.2447,0,0,0,4.6137,1.5.422.422,0,0,0,4.6,1.6608c.0008.0343.0025.0693.0051.104l-.2475.1935.0436-.3093C4.43,1.6156,4.46,1.5833,4.4905,1.5531Zm-.0778-.1179-.0733.52a.7221.7221,0,0,0-.2047-.0747Zm-.3083.01a.4384.4384,0,0,1,.0738-.1214.2961.2961,0,0,1,.0317-.03.2374.2374,0,0,0-.0079.059.42.42,0,0,0,.0425.1556c.0125.0321.026.0644.04.096l-.1663.2665-.0648-.3056C4.0687,1.5245,4.0858,1.4839,4.1044,1.445Zm-.1135-.0841L4.1,1.8744a.7272.7272,0,0,0-.2178,0Zm-.2864.1146a.4448.4448,0,0,1,.0278-.1394.3186.3186,0,0,1,.02-.0386.2382.2382,0,0,0,.0128.0582.419.419,0,0,0,.0931.1317c.0227.0258.0464.0515.0707.0764l-.0652.3073-.1654-.265C3.6982,1.5624,3.7,1.5184,3.7045,1.4755Zm-.1354-.04.278.4453a.7221.7221,0,0,0-.2047.0747Zm-.23.2057A.438.438,0,0,1,3.3177,1.5a.3116.3116,0,0,1,.0052-.043.2382.2382,0,0,0,.0319.05A.4211.4211,0,0,0,3.4874,1.6c.03.0165.0612.0325.0925.0476l.0439.3111-.246-.1924C3.363,1.7247,3.35,1.6827,3.3392,1.6409Zm-.141.0085.4137.3235a.7321.7321,0,0,0-.1669.14Zm-.1458.2719a.4418.4418,0,0,1-.0682-.1247.3153.3153,0,0,1-.01-.0422.2419.2419,0,0,0,.0472.0364.4206.4206,0,0,0,.156.041c.034.0052.0687.01.1033.0131l.1476.2773-.297-.0967C3.1035,1.9919,3.0769,1.9569,3.0524,1.9213Zm-.13.0562.5.1626a.7284.7284,0,0,0-.1093.1885Zm-.044.3054a.44.44,0,0,1-.1067-.0939.3143.3143,0,0,1-.0237-.0363.2423.2423,0,0,0,.0568.0181.42.42,0,0,0,.1606-.0149c.0337-.0067.0678-.0144.1015-.023l.2336.21-.3122.0108C2.951,2.3318,2.9141,2.3079,2.8789,2.2829ZM2.7764,2.38l.5246-.0181a.7218.7218,0,0,0-.0378.2145Z" fill="#bd9c08"/><path d="M7.9119,4.1067a.8072.8072,0,0,0-.1827.0491c-.0406.0152-.0716.03-.1044.0457a1.1216,1.1216,0,0,1-.1819.0724l-.0158.0047H7.4263a1.2882,1.2882,0,0,1-.1917.0368c-.0152.002-.03.0037-.045.0046a.3222.3222,0,0,1-.0674-.0034,1.1517,1.1517,0,0,1-.2733-.0712A1.3772,1.3772,0,0,1,6.7124,4.19a1.04,1.04,0,0,0-.1413-.0548.8693.8693,0,0,0-.1276-.0323l-.0322-.0021a.5735.5735,0,0,0-.08.0028.84.84,0,0,0-.0922.0192.808.808,0,0,0-.15.0546c-.0388.0174-.0873.0391-.1623.0669a1.0752,1.0752,0,0,1-.28.0791.3327.3327,0,0,1-.0457.0038.36.36,0,0,1-.0588-.0041.9829.9829,0,0,1-.1939-.0442,1.2564,1.2564,0,0,1-.2041-.08,1.104,1.104,0,0,0-.1851-.0716.8042.8042,0,0,0-.11-.0252.65.65,0,0,0-.0836-.0027c-.0109,0-.0242.001-.04.0026a.7587.7587,0,0,0-.0838.0174.81.81,0,0,0-.1554.0568c-.0359.0164-.0766.0349-.1362.0572a1.1243,1.1243,0,0,1-.29.0807.4369.4369,0,0,1-.0768.0046.4273.4273,0,0,1-.0509-.0043.99.99,0,0,1-.1767-.0375,1.1632,1.1632,0,0,1-.1973-.0733A1.5026,1.5026,0,0,0,3.37,4.13a.73.73,0,0,0-.1152-.0291.5981.5981,0,0,0-.0753-.0024l-.04.0025c-.0183.0027-.0381.0069-.0627.013a1.0369,1.0369,0,0,0-.1891.0667c-.0442.0192-.0942.041-.1664.0662a1.09,1.09,0,0,1-.263.0691.41.41,0,0,1-.0744.0042.48.48,0,0,1-.0519-.0045.9462.9462,0,0,1-.164-.0337.9936.9936,0,0,1-.1987-.0759A.9927.9927,0,0,0,1.8342,4.15a.96.96,0,0,0-.1671-.0449.686.686,0,0,0-.0951-.0026c-.0144.0005-.0284.0015-.0421.0029a.9953.9953,0,0,0-.1908.0535.7855.7855,0,0,0-.1024.0429.9351.9351,0,0,1-.1174.05A1.105,1.105,0,0,1,.8568,4.32a.4508.4508,0,0,1-.0877.0044.3331.3331,0,0,1-.0342-.0035,1.1888,1.1888,0,0,1-.3212-.0964C.3693,4.2072.3359,4.1926.3065,4.18a.8924.8924,0,0,0-.1381-.0509.969.969,0,0,0-.124-.025L.0083,4.1,0,4.1v.373a.95.95,0,0,1,.1684.03.8924.8924,0,0,1,.1381.0509c.0294.0129.0628.0274.1072.0447a1.077,1.077,0,0,0,.3446.098.901.901,0,0,0,.361-.0708.9506.9506,0,0,0,.1174-.05.7971.7971,0,0,1,.1024-.043.8.8,0,0,1,.2417-.0581.6685.6685,0,0,1,.2534.0493.9927.9927,0,0,1,.1346.0561,1.0061,1.0061,0,0,0,.1987.0759.8347.8347,0,0,0,.2092.0365.8805.8805,0,0,0,.3441-.0716c.0722-.0252.1222-.047.1664-.0662a1.0369,1.0369,0,0,1,.1891-.0667.4871.4871,0,0,1,.1094-.0172.5223.5223,0,0,1,.1839.0332,1.5026,1.5026,0,0,1,.1888.0735,1.1807,1.1807,0,0,0,.1973.0733.84.84,0,0,0,.2222.04A.9261.9261,0,0,0,4.35,4.6075c.06-.0223.1-.0408.1362-.0571a.8159.8159,0,0,1,.1554-.0569.5848.5848,0,0,1,.131-.0216.5688.5688,0,0,1,.1862.03,1.104,1.104,0,0,1,.1851.0716,1.2564,1.2564,0,0,0,.2041.08A.8069.8069,0,0,0,5.5957,4.7h.0077a.9128.9128,0,0,0,.3228-.0812c.075-.0278.1235-.05.1623-.0669a.8149.8149,0,0,1,.15-.0547.559.559,0,0,1,.1647-.0236.5866.5866,0,0,1,.1676.0361,1.04,1.04,0,0,1,.1413.0548,1.3772,1.3772,0,0,0,.1365.0557.9049.9049,0,0,0,.3545.0726,1.215,1.215,0,0,0,.2229-.0395h.0008l.0158-.0046a1.1308,1.1308,0,0,0,.1819-.0724c.0328-.0157.0638-.0306.1044-.0457a.7647.7647,0,0,1,.2526-.0552V4.1022H7.978C7.9549,4.103,7.9329,4.1046,7.9119,4.1067Z" fill="#fff"/><path d="M7.9119,3.7325a.811.811,0,0,0-.1827.0491c-.0406.0152-.0716.03-.1044.0457A1.1125,1.1125,0,0,1,7.4429,3.9l-.0158.0047H7.4263a1.2882,1.2882,0,0,1-.1917.0368c-.0152.0021-.03.0037-.045.0046a.3222.3222,0,0,1-.0674-.0034,1.1563,1.1563,0,0,1-.2733-.0711,1.4024,1.4024,0,0,1-.1365-.0557,1.0272,1.0272,0,0,0-.1413-.0548.8735.8735,0,0,0-.1276-.0324l-.0322-.0021a.5735.5735,0,0,0-.08.0028.84.84,0,0,0-.0922.0192.8152.8152,0,0,0-.15.0546c-.0388.0175-.0873.0391-.1623.0669a1.0752,1.0752,0,0,1-.28.0791.3177.3177,0,0,1-.0457.0038.36.36,0,0,1-.0588-.0041.99.99,0,0,1-.1939-.0441,1.2752,1.2752,0,0,1-.2041-.08,1.0868,1.0868,0,0,0-.1851-.0716.7914.7914,0,0,0-.11-.0253.65.65,0,0,0-.0836-.0027c-.0109,0-.0242.001-.04.0026a.7829.7829,0,0,0-.0838.0174.8025.8025,0,0,0-.1554.0569c-.0359.0163-.0766.0348-.1362.0571a1.1243,1.1243,0,0,1-.29.0807.4369.4369,0,0,1-.0768.0046A.4074.4074,0,0,1,3.9324,3.94a.9809.9809,0,0,1-.1767-.0375,1.1632,1.1632,0,0,1-.1973-.0733A1.5212,1.5212,0,0,0,3.37,3.756a.7316.7316,0,0,0-.1152-.0292.5981.5981,0,0,0-.0753-.0024l-.04.0025c-.0183.0028-.0381.0069-.0627.013a1.0445,1.0445,0,0,0-.1891.0667c-.0442.0192-.0942.041-.1664.0662a1.09,1.09,0,0,1-.263.0692.4194.4194,0,0,1-.0744.0041.4561.4561,0,0,1-.0519-.0045.9558.9558,0,0,1-.164-.0336.999.999,0,0,1-.1987-.076.994.994,0,0,0-.1346-.056.9516.9516,0,0,0-.1671-.0449.67.67,0,0,0-.0951-.0027L1.53,3.7313a.9953.9953,0,0,0-.1908.0535.7691.7691,0,0,0-.1024.043.9537.9537,0,0,1-.1174.05,1.105,1.105,0,0,1-.2625.0683A.4431.4431,0,0,1,.7691,3.95a.3073.3073,0,0,1-.0342-.0035A1.1888,1.1888,0,0,1,.4137,3.85C.3693,3.833.3359,3.8184.3065,3.8056a.8821.8821,0,0,0-.1381-.051.9656.9656,0,0,0-.124-.025L.0083,3.7263,0,3.726v.373l.0444.0048a.969.969,0,0,1,.124.025A.8924.8924,0,0,1,.3065,4.18c.0294.0129.0628.0275.1072.0447a1.1888,1.1888,0,0,0,.3212.0964l.0234.0017A.678.678,0,0,0,.8568,4.32a1.105,1.105,0,0,0,.2625-.0683.9351.9351,0,0,0,.1174-.05.7855.7855,0,0,1,.1024-.0429A.9953.9953,0,0,1,1.53,4.1055a.4813.4813,0,0,1,.1372,0,.96.96,0,0,1,.1671.0449.9927.9927,0,0,1,.1346.0561.9936.9936,0,0,0,.1987.0759.9462.9462,0,0,0,.164.0337c.0144.0013.0294.0023.0452.0028a.6294.6294,0,0,0,.0811-.0025,1.09,1.09,0,0,0,.263-.0691c.0722-.0252.1222-.047.1664-.0662a1.0369,1.0369,0,0,1,.1891-.0667c.0246-.0061.0444-.01.0627-.013a.3951.3951,0,0,1,.0467-.0042.3886.3886,0,0,1,.0687.0041A.73.73,0,0,1,3.37,4.13a1.5026,1.5026,0,0,1,.1888.0735,1.1632,1.1632,0,0,0,.1973.0733.99.99,0,0,0,.1767.0375c.0145.0013.03.0023.0455.0027a.6658.6658,0,0,0,.0822-.003,1.1243,1.1243,0,0,0,.29-.0807c.06-.0223.1-.0408.1362-.0572a.81.81,0,0,1,.1554-.0568.7587.7587,0,0,1,.0838-.0174.4216.4216,0,0,1,.0472-.0043.4283.4283,0,0,1,.0766.0044.8042.8042,0,0,1,.11.0252,1.104,1.104,0,0,1,.1851.0716,1.2564,1.2564,0,0,0,.2041.08.9829.9829,0,0,0,.1939.0442c.0172.0016.035.0025.0538.0025h.0077c.0147,0,.029-.001.043-.0022a1.0752,1.0752,0,0,0,.28-.0791c.075-.0278.1235-.05.1623-.0669a.808.808,0,0,1,.15-.0546.84.84,0,0,1,.0922-.0192.396.396,0,0,1,.0725-.0045.3158.3158,0,0,1,.04.0038.8693.8693,0,0,1,.1276.0323,1.04,1.04,0,0,1,.1413.0548,1.3772,1.3772,0,0,0,.1365.0557,1.1517,1.1517,0,0,0,.2733.0712.5228.5228,0,0,0,.0812.0014l.0312-.0026a1.2882,1.2882,0,0,0,.1917-.0368h.0008l.0158-.0047a1.1216,1.1216,0,0,0,.1819-.0724c.0328-.0157.0638-.03.1044-.0457a.8072.8072,0,0,1,.1827-.0491c.0218-.003.045-.0051.07-.0061V3.728H7.978C7.9549,3.7288,7.9329,3.73,7.9119,3.7325Z" fill="#003f87"/><path d="M7.9119,3.3584a.8133.8133,0,0,0-.1827.049c-.0406.0152-.0716.03-.1044.0457a1.1125,1.1125,0,0,1-.1819.0724L7.4271,3.53H7.4263a1.2882,1.2882,0,0,1-.1917.0368c-.0152.0021-.03.0037-.045.0046a.3289.3289,0,0,1-.0674-.0033,1.1614,1.1614,0,0,1-.2733-.0712,1.3772,1.3772,0,0,1-.1365-.0557,1.0272,1.0272,0,0,0-.1413-.0548.8872.8872,0,0,0-.1276-.0324l-.0322-.002a.5864.5864,0,0,0-.08.0027.84.84,0,0,0-.0922.0192.8077.8077,0,0,0-.15.0547c-.0388.0174-.0873.039-.1623.0669a1.0784,1.0784,0,0,1-.28.079.3177.3177,0,0,1-.0457.0038.36.36,0,0,1-.0588-.0041A.9824.9824,0,0,1,5.348,3.53a1.2752,1.2752,0,0,1-.2041-.08,1.0953,1.0953,0,0,0-.1851-.0716.7894.7894,0,0,0-.11-.0252.6232.6232,0,0,0-.0807-.0028H4.7656l-.013.0006-.0272.002a.7829.7829,0,0,0-.0838.0174.8092.8092,0,0,0-.1554.0569c-.0359.0163-.0766.0348-.1362.0571a1.1243,1.1243,0,0,1-.29.0807l-.0119.0017-.0151.0015a.4282.4282,0,0,1-.05.0014l-.0347-.0022-.0151-.0019-.0011,0a.9809.9809,0,0,1-.1767-.0375,1.1632,1.1632,0,0,1-.1973-.0733A1.5212,1.5212,0,0,0,3.37,3.3818a.7316.7316,0,0,0-.1152-.0292A.5981.5981,0,0,0,3.1791,3.35l-.04.0026a.6325.6325,0,0,0-.0627.013,1.0374,1.0374,0,0,0-.1891.0666c-.0442.0193-.0942.0411-.1664.0663a1.09,1.09,0,0,1-.263.0691.41.41,0,0,1-.0744.0041.4343.4343,0,0,1-.0519-.0045.9558.9558,0,0,1-.164-.0336.999.999,0,0,1-.1987-.076.994.994,0,0,0-.1346-.056.9516.9516,0,0,0-.1671-.0449.7014.7014,0,0,0-.0951-.0027L1.53,3.3571a.9953.9953,0,0,0-.1908.0535.7829.7829,0,0,0-.1024.043.9666.9666,0,0,1-.1174.05,1.11,1.11,0,0,1-.2625.0682.4431.4431,0,0,1-.0877.0044.3073.3073,0,0,1-.0342-.0035A1.1888,1.1888,0,0,1,.4137,3.476C.3693,3.4588.3359,3.4442.3065,3.4314A.8923.8923,0,0,0,.1684,3.38a.9517.9517,0,0,0-.124-.0249L.0083,3.3521,0,3.3518v.373L.0444,3.73a.9656.9656,0,0,1,.124.025.8821.8821,0,0,1,.1381.051c.0294.0128.0628.0274.1072.0446a1.1888,1.1888,0,0,0,.3212.0964l.0234.0017a.6641.6641,0,0,0,.0985-.0026,1.105,1.105,0,0,0,.2625-.0683.9537.9537,0,0,0,.1174-.05.7691.7691,0,0,1,.1024-.043A.9953.9953,0,0,1,1.53,3.7313c.0165-.0023.0333-.004.0509-.0047a.4725.4725,0,0,1,.0863.0045.9516.9516,0,0,1,.1671.0449.994.994,0,0,1,.1346.056.999.999,0,0,0,.1987.076.9558.9558,0,0,0,.164.0336c.0144.0014.0294.0023.0452.0028a.6486.6486,0,0,0,.0811-.0024,1.09,1.09,0,0,0,.263-.0692c.0722-.0252.1222-.047.1664-.0662A1.0445,1.0445,0,0,1,3.0763,3.74c.0246-.0061.0444-.01.0627-.013a.3746.3746,0,0,1,.0467-.0041.3794.3794,0,0,1,.0687.004A.7316.7316,0,0,1,3.37,3.756a1.5212,1.5212,0,0,1,.1888.0734,1.1632,1.1632,0,0,0,.1973.0733.9809.9809,0,0,0,.1767.0375c.0145.0014.03.0023.0455.0027A.6651.6651,0,0,0,4.06,3.94a1.1243,1.1243,0,0,0,.29-.0807c.06-.0223.1-.0408.1362-.0571a.8025.8025,0,0,1,.1554-.0569.7829.7829,0,0,1,.0838-.0174.4216.4216,0,0,1,.0472-.0043.4378.4378,0,0,1,.0766.0044.7914.7914,0,0,1,.11.0253,1.0868,1.0868,0,0,1,.1851.0716,1.2752,1.2752,0,0,0,.2041.08.99.99,0,0,0,.1939.0441c.0172.0016.035.0025.0538.0025h.0077c.0147,0,.029-.0009.043-.0022a1.0752,1.0752,0,0,0,.28-.0791c.075-.0278.1235-.0494.1623-.0669a.8152.8152,0,0,1,.15-.0546.84.84,0,0,1,.0922-.0192.4054.4054,0,0,1,.0725-.0045.3158.3158,0,0,1,.04.0038.8735.8735,0,0,1,.1276.0324,1.0272,1.0272,0,0,1,.1413.0548,1.4024,1.4024,0,0,0,.1365.0557,1.1563,1.1563,0,0,0,.2733.0711.5228.5228,0,0,0,.0812.0014l.0312-.0026a1.2882,1.2882,0,0,0,.1917-.0368h.0008L7.4429,3.9a1.1125,1.1125,0,0,0,.1819-.0724c.0328-.0157.0638-.03.1044-.0457a.811.811,0,0,1,.1827-.0491c.0218-.0029.045-.0051.07-.0061V3.3538H7.978C7.9549,3.3546,7.9329,3.3562,7.9119,3.3584Z" fill="#fff"/><path d="M7.9119,2.9842a.8072.8072,0,0,0-.1827.0491c-.0406.0151-.0716.03-.1044.0456a1.1207,1.1207,0,0,1-.1819.0725l-.0158.0046H7.4263a1.2752,1.2752,0,0,1-.1917.0368c-.0152.0021-.03.0037-.045.0046a.3289.3289,0,0,1-.0674-.0033,1.1565,1.1565,0,0,1-.2733-.0712,1.3772,1.3772,0,0,1-.1365-.0557,1.04,1.04,0,0,0-.1413-.0548A.8872.8872,0,0,0,6.4435,2.98l-.0322-.002a.5864.5864,0,0,0-.08.0027A.84.84,0,0,0,6.2388,3a.8077.8077,0,0,0-.15.0547c-.0388.0174-.0873.0391-.1623.0669a1.0745,1.0745,0,0,1-.28.079.3177.3177,0,0,1-.0457.0038A.3606.3606,0,0,1,5.5419,3.2a.99.99,0,0,1-.1939-.0442,1.2564,1.2564,0,0,1-.2041-.08,1.0953,1.0953,0,0,0-.1851-.0716.8042.8042,0,0,0-.11-.0252.6324.6324,0,0,0-.0836-.0027c-.0109,0-.0242.001-.04.0025a.8593.8593,0,0,0-.2392.0743C4.45,3.07,4.41,3.0885,4.35,3.1108a1.1243,1.1243,0,0,1-.29.0807.4367.4367,0,0,1-.0768.0047.4273.4273,0,0,1-.0509-.0043.99.99,0,0,1-.1767-.0375,1.1807,1.1807,0,0,1-.1973-.0733A1.5026,1.5026,0,0,0,3.37,3.0076a.7428.7428,0,0,0-.1152-.0292.618.618,0,0,0-.0753-.0023l-.04.0025c-.0183.0027-.0381.0069-.0627.013a1.0374,1.0374,0,0,0-.1891.0666c-.0442.0193-.0942.0411-.1664.0663a1.09,1.09,0,0,1-.263.0691.41.41,0,0,1-.0744.0041.4343.4343,0,0,1-.0519-.0045.9464.9464,0,0,1-.164-.0336,1.0061,1.0061,0,0,1-.1987-.0759.9927.9927,0,0,0-.1346-.0561.96.96,0,0,0-.1671-.0449A.7014.7014,0,0,0,1.572,2.98L1.53,2.9829a.9953.9953,0,0,0-.1908.0535.7829.7829,0,0,0-.1024.043.9506.9506,0,0,1-.1174.05,1.11,1.11,0,0,1-.2625.0682.443.443,0,0,1-.0877.0045L.7349,3.1983a1.1925,1.1925,0,0,1-.3212-.0964C.3693,3.0846.3359,3.07.3065,3.0572a.8924.8924,0,0,0-.1381-.0509.9358.9358,0,0,0-.124-.025L.0083,2.9779,0,2.9776v.373l.0444.0049a.9517.9517,0,0,1,.124.0249.8923.8923,0,0,1,.1381.051c.0294.0128.0628.0274.1072.0446a1.1888,1.1888,0,0,0,.3212.0964l.0234.0017a.6508.6508,0,0,0,.0985-.0026,1.11,1.11,0,0,0,.2625-.0682.9666.9666,0,0,0,.1174-.05.7829.7829,0,0,1,.1024-.043A.9953.9953,0,0,1,1.53,3.3571c.0165-.0023.0333-.0039.0509-.0046a.464.464,0,0,1,.0863.0044.9516.9516,0,0,1,.1671.0449.994.994,0,0,1,.1346.056.999.999,0,0,0,.1987.076.9558.9558,0,0,0,.164.0336c.0144.0014.0294.0024.0452.0029a.6676.6676,0,0,0,.0811-.0025,1.09,1.09,0,0,0,.263-.0691c.0722-.0252.1222-.047.1664-.0663a1.0374,1.0374,0,0,1,.1891-.0666.6325.6325,0,0,1,.0627-.013.3568.3568,0,0,1,.0467-.0042.3887.3887,0,0,1,.0687.004.7316.7316,0,0,1,.1152.0292,1.5212,1.5212,0,0,1,.1888.0734,1.1632,1.1632,0,0,0,.1973.0733.9809.9809,0,0,0,.1767.0375h.001l.0151.0012.0294.0014c.0191,0,.0375,0,.0553-.0009l.0151-.001L4.06,3.5657a1.1243,1.1243,0,0,0,.29-.0807c.06-.0223.1-.0408.1362-.0571a.8092.8092,0,0,1,.1554-.0569.7829.7829,0,0,1,.0838-.0174l.0268-.0031L4.768,3.35h.0046a.4283.4283,0,0,1,.0766.0044.7894.7894,0,0,1,.11.0252,1.0953,1.0953,0,0,1,.1851.0716,1.2752,1.2752,0,0,0,.2041.08.9824.9824,0,0,0,.1939.0441c.0172.0016.035.0025.0538.0025h.0077c.0147,0,.029-.0009.043-.0022a1.0784,1.0784,0,0,0,.28-.079c.075-.0279.1235-.0495.1623-.0669a.8077.8077,0,0,1,.15-.0547.84.84,0,0,1,.0922-.0192.3937.3937,0,0,1,.0725-.0044.31.31,0,0,1,.04.0037.8872.8872,0,0,1,.1276.0324,1.0272,1.0272,0,0,1,.1413.0548,1.3772,1.3772,0,0,0,.1365.0557,1.1614,1.1614,0,0,0,.2733.0712.5355.5355,0,0,0,.0812.0013l.0312-.0026A1.2882,1.2882,0,0,0,7.4263,3.53h.0008l.0158-.0047a1.1125,1.1125,0,0,0,.1819-.0724c.0328-.0157.0638-.03.1044-.0457a.8133.8133,0,0,1,.1827-.049.6947.6947,0,0,1,.07-.0061V2.98H7.978C7.9549,2.98,7.9329,2.982,7.9119,2.9842Z" fill="#003f87"/><path d="M7.65,2.6751c-.0508.0189-.09.0376-.1245.0542a.8971.8971,0,0,1-.1466.0588,1.0248,1.0248,0,0,1-.19.0352.7305.7305,0,0,1-.2662-.06,1.171,1.171,0,0,1-.1155-.0472A1.259,1.259,0,0,0,6.6388,2.65a.8153.8153,0,0,0-.2275-.0466.7684.7684,0,0,0-.2287.0307,1.0389,1.0389,0,0,0-.1874.0678c-.0375.0168-.08.0358-.1476.0608a.7346.7346,0,0,1-.2469.067.5926.5926,0,0,1-.1889-.0373,1.0237,1.0237,0,0,1-.17-.0666,1.3336,1.3336,0,0,0-.22-.085c-.0331-.01-.0631-.0173-.0914-.0232l-.0257-.005a.658.658,0,0,0-.1389-.01.741.741,0,0,0-.152.0218l-.0264.0065-.0014,0-.0362.01-.0147.0044a1.0838,1.0838,0,0,0-.1433.0563c-.0339.0154-.069.0313-.1209.0508a.7166.7166,0,0,1-.2874.0692A.6444.6444,0,0,1,3.8149,2.79a.9453.9453,0,0,1-.162-.0605,1.729,1.729,0,0,0-.2058-.0806l-.0092-.003L3.4323,2.644l-.04-.012-.0254-.007a.6373.6373,0,0,0-.1882-.0231.7032.7032,0,0,0-.1566.0237l-.019.0048-.02.0053a1.3082,1.3082,0,0,0-.1877.0692c-.0423.0184-.086.0375-.15.06a.6785.6785,0,0,1-.263.0589.6331.6331,0,0,1-.1576-.0288.7672.7672,0,0,1-.157-.06,1.2256,1.2256,0,0,0-.1637-.0679.8765.8765,0,0,0-.3331-.0607,1,1,0,0,0-.3074.0707,1.0347,1.0347,0,0,0-.1293.0543.7078.7078,0,0,1-.0911.0386.6907.6907,0,0,1-.2751.0581.9232.9232,0,0,1-.2734-.0828c-.04-.0154-.0694-.0283-.098-.0408A1.0966,1.0966,0,0,0,.227,2.6415a1.1823,1.1823,0,0,0-.2187-.0378L0,2.6034v.373l.0444.0049a.9358.9358,0,0,1,.124.025.8924.8924,0,0,1,.1381.0509c.0294.0129.0628.0274.1072.0447a1.1925,1.1925,0,0,0,.3212.0964L.7583,3.2a.6508.6508,0,0,0,.0985-.0026,1.11,1.11,0,0,0,.2625-.0682.9506.9506,0,0,0,.1174-.05.7829.7829,0,0,1,.1024-.043A.9953.9953,0,0,1,1.53,2.9829c.0165-.0023.0333-.0039.0509-.0046a.4728.4728,0,0,1,.0863.0044.96.96,0,0,1,.1671.0449.9927.9927,0,0,1,.1346.0561,1.0061,1.0061,0,0,0,.1987.0759.9464.9464,0,0,0,.164.0336c.0144.0014.0294.0024.0452.0029a.6676.6676,0,0,0,.0811-.0025,1.09,1.09,0,0,0,.263-.0691c.0722-.0252.1222-.047.1664-.0663a1.0374,1.0374,0,0,1,.1891-.0666c.0246-.0061.0444-.01.0627-.013a.3951.3951,0,0,1,.0467-.0042.3887.3887,0,0,1,.0687.004.7428.7428,0,0,1,.1152.0292,1.5026,1.5026,0,0,1,.1888.0735,1.1807,1.1807,0,0,0,.1973.0733.99.99,0,0,0,.1767.0375c.0145.0013.03.0022.0455.0026a.6658.6658,0,0,0,.0822-.003,1.1243,1.1243,0,0,0,.29-.0807c.06-.0223.1-.0408.1362-.0571a.8593.8593,0,0,1,.2392-.0743.4166.4166,0,0,1,.0472-.0042.4283.4283,0,0,1,.0766.0044.8042.8042,0,0,1,.11.0252,1.0953,1.0953,0,0,1,.1851.0716,1.2564,1.2564,0,0,0,.2041.08A.99.99,0,0,0,5.5419,3.2c.0172.0016.035.0025.0538.0025h.0077c.0147,0,.029-.0009.043-.0022a1.0745,1.0745,0,0,0,.28-.079c.075-.0278.1235-.05.1623-.0669A.8077.8077,0,0,1,6.2388,3a.84.84,0,0,1,.0922-.0192.3937.3937,0,0,1,.0725-.0044.31.31,0,0,1,.04.0037.8872.8872,0,0,1,.1276.0324,1.04,1.04,0,0,1,.1413.0548,1.3772,1.3772,0,0,0,.1365.0557,1.1565,1.1565,0,0,0,.2733.0712.5229.5229,0,0,0,.0812.0013l.0312-.0026a1.2752,1.2752,0,0,0,.1917-.0368h.0008l.0158-.0046a1.1207,1.1207,0,0,0,.1819-.0725c.0328-.0157.0638-.03.1044-.0456a.8072.8072,0,0,1,.1827-.0491c.0218-.003.045-.0051.07-.0061V2.6054H7.978A.9812.9812,0,0,0,7.65,2.6751Z" fill="#fff"/><path d="M3.7259.6488A.2272.2272,0,0,0,3.6711.58.7334.7334,0,0,0,3.3455.4839H3.3447C3.1411.4565,3.1028.4507,3.0676.4448a1.6572,1.6572,0,0,1-.2684-.062L2.759.3686a.8149.8149,0,0,0,.0894.0463,1.28,1.28,0,0,0,.2723.08L3.1466.5l.0888.0167c.0734.014.11.021.1253.0241A1.3185,1.3185,0,0,1,3.578.5984a.5663.5663,0,0,1,.1125.0547A.5031.5031,0,0,1,3.7394.689.1883.1883,0,0,0,3.7259.6488Z" fill="#fcd116"/><path d="M3.0707.4258c.035.0058.0732.0117.2765.0389H3.348a.745.745,0,0,1,.3355.1.246.246,0,0,1,.06.076.2113.2113,0,0,1,.018.063h.0458c.0169-.013.0337-.0267.05-.0409L3.8744.6472A.296.296,0,0,0,3.8421.594.3778.3778,0,0,0,3.6677.4777.5987.5987,0,0,0,3.4988.4494L3.4244.4426C3.3889.4392,3.3529.4351,3.3181.4311S3.2478.423,3.2126.42C3.0876.4077,2.9393.3851,2.771.3526l.0343.0119A1.6117,1.6117,0,0,0,3.0707.4258Z" fill="#fcd116"/><path d="M4.75.4052C4.713.4087,4.6973.409,4.6734.4093c-.0254,0-.06.0008-.14.0056a.7982.7982,0,0,0-.2665.0378A.7361.7361,0,0,0,4.124.5336c-.029.02-.0464.0337-.0846.0645L3.9946.6342C3.9505.67,3.9051.7051,3.86.74l-.0059.002L3.8462.7385A.01.01,0,0,1,3.8479.725c.0454-.035.0907-.0706.1347-.1058l.0447-.036c.0386-.0312.0562-.0454.0859-.0656A.756.756,0,0,1,4.2594.4348.8112.8112,0,0,1,4.532.3956C4.6125.3909,4.6475.39,4.6731.39A.7408.7408,0,0,0,4.7483.386,2.3236,2.3236,0,0,0,5.0408.3333C5.0747.3259,5.1088.318,5.143.31c-.0787.01-.1569.0193-.2339.0279-.1841.0206-.2335.0231-.2752.0241L4.575.3626c-.0345,0-.0642,0-.1139.0041A1.0688,1.0688,0,0,0,4.2559.4a.5784.5784,0,0,0-.0617.019.6239.6239,0,0,0-.2323.1661L3.9472.6008A.9416.9416,0,0,1,3.87.6772c-.0173.0152-.0353.03-.0535.0438L3.8105.723H3.6757L3.67.7211A.3141.3141,0,0,0,3.5066.6572a.1471.1471,0,0,0-.073.0134.1335.1335,0,0,0-.04.03L3.3869.7037H3.1994L3.1921.708l0,.0076h.2239a.01.01,0,1,1,0,.0192h-.21l.001.0012a.1637.1637,0,0,0,.034.03h.2089l.007.0029a.6632.6632,0,0,0,.1708.1281.5523.5523,0,0,0,.2036.0664A.5588.5588,0,0,0,3.9823.959.7252.7252,0,0,0,4.12.9209c.1082-.0382.1907-.0746.2061-.0815q.041-.0183.0843-.0351L4.4129.8034Q4.5016.7691,4.6.741L4.1477.7327c-.0086.01-.0186.0217-.0318.0355a.3739.3739,0,0,1-.1383.1034.1891.1891,0,0,1-.1012.0149A.1806.1806,0,0,1,3.7745.8306l0-.0136a.01.01,0,0,1,.0136.0005.1617.1617,0,0,0,.0908.05A.17.17,0,0,0,3.9707.8536.3531.3531,0,0,0,4.102.7548c.0134-.0139.0231-.025.0317-.0354L4.1373.715l.014-.0178A.925.925,0,0,1,4.2126.6249L4.2468.59A.1157.1157,0,0,1,4.3182.5565,2.4173,2.4173,0,0,0,4.6891.497C4.784.4739,4.8623.4484,4.92.43A2.1459,2.1459,0,0,0,5.14.3483c.0263-.0116.0524-.0239.0781-.0368C5.16.3259,5.1023.34,5.0449.3521A2.3622,2.3622,0,0,1,4.75.4052ZM3.492.7314A.0281.0281,0,1,1,3.52.7033.0281.0281,0,0,1,3.492.7314Zm.3192.1793A.7612.7612,0,0,0,4.0061.9012.7674.7674,0,0,0,4.2772.7966.01.01,0,0,1,4.29.8.01.01,0,0,1,4.2873.813.785.785,0,0,1,4.01.92a.7825.7825,0,0,1-.1377.0122Q3.8408.9324,3.81.93A.01.01,0,0,1,3.8112.9107Z" fill="#fcd116"/><path d="M4.3338.8571h.2694l-.01-.0116A.0976.0976,0,0,0,4.5315.824a.6357.6357,0,0,0-.114-.0018c-.0285.0111-.0563.0227-.0832.0347Z" fill="#fcd116"/><path d="M5.2967.2705c-.1309.0177-.262.0338-.39.0482-.1833.0205-.2324.023-.2736.024L4.575.3434c-.0349,0-.065,0-.1154.0041a1.0894,1.0894,0,0,0-.2088.034.616.616,0,0,0-.0634.02.65.65,0,0,0-.24.1708L3.9331.5878c-.0126.0135-.0263.0283-.044.0455a.322.322,0,0,0-.0317-.051A.396.396,0,0,0,3.6741.46.6193.6193,0,0,0,3.5005.43L3.4262.4235C3.3909.42,3.355.416,3.32.412S3.25.4039,3.2145.4005A5.1671,5.1671,0,0,1,2.6763.314a.01.01,0,0,0-.0107.0054.01.01,0,0,0,.003.0117.8722.8722,0,0,0,.172.1014A1.294,1.294,0,0,0,3.117.5142l.0261.0049.0887.0167c.0733.014.11.021.125.0241a1.3029,1.3029,0,0,1,.2144.0565A.5528.5528,0,0,1,3.68.6693a.4892.4892,0,0,1,.0468.0344H3.6788A.3305.3305,0,0,0,3.507.6379a.1671.1671,0,0,0-.0819.0155.1542.1542,0,0,0-.0424.031H3.1994A.0277.0277,0,0,0,3.176.7267L3.178.73l.001.0016.0128.0171A.1839.1839,0,0,0,3.2324.784l.0052.0015h.2078a.6789.6789,0,0,0,.1729.1289.5725.5725,0,0,0,.21.0685.5609.5609,0,0,0,.06.0032A.61.61,0,0,0,3.9853.978.7271.7271,0,0,0,4.1266.939c.0673-.0237.1248-.0468.1626-.0626h.33l.008-.0043L4.6281.863A.0923.0923,0,0,0,4.6066.8315a.1173.1173,0,0,0-.073-.0267c-.02-.0021-.04-.0032-.06-.0035.0622-.0221.1277-.0419.196-.0594A.01.01,0,0,0,4.6675.723L4.1628.7137,4.1665.709a.8867.8867,0,0,1,.06-.0709L4.26.6033A.096.096,0,0,1,4.32.5757a2.4441,2.4441,0,0,0,.3739-.06c.0955-.0233.1743-.0489.2318-.0676A2.1459,2.1459,0,0,0,5.1478.3659c.0528-.0233.1049-.0494.1549-.0774a.01.01,0,0,0-.006-.018ZM3.2126.42c.0352.0034.071.0075.1055.0115s.0708.0081.1063.0115l.0744.0068a.5987.5987,0,0,1,.1689.0283A.3778.3778,0,0,1,3.8421.594a.296.296,0,0,1,.0323.0532L3.8571.6628c-.0162.0142-.033.0279-.05.0409H3.7614a.2113.2113,0,0,0-.018-.063.246.246,0,0,0-.06-.076.745.745,0,0,0-.3355-.1H3.3472C3.1439.4375,3.1057.4316,3.0707.4258A1.6117,1.6117,0,0,1,2.8053.3645L2.771.3526C2.9393.3851,3.0876.4077,3.2126.42Zm.4779.2335A.5663.5663,0,0,0,3.578.5984,1.3185,1.3185,0,0,0,3.3607.541c-.015-.0031-.0519-.01-.1253-.0241L3.1466.5,3.1207.4953a1.28,1.28,0,0,1-.2723-.08A.8149.8149,0,0,1,2.759.3686l.04.0142a1.6572,1.6572,0,0,0,.2684.062c.0352.0059.0735.0117.2771.039h.0008A.7334.7334,0,0,1,3.6711.58a.2272.2272,0,0,1,.0548.0693.1883.1883,0,0,1,.0135.04A.5031.5031,0,0,0,3.6905.6531Zm.841.1709a.0976.0976,0,0,1,.0618.0215l.01.0116H4.3338l0,0c.0269-.012.0547-.0236.0832-.0347A.6357.6357,0,0,1,4.5315.824ZM5.14.3483A2.1459,2.1459,0,0,1,4.92.43c-.0572.0186-.1355.0441-.23.0672a2.4173,2.4173,0,0,1-.3709.06A.1157.1157,0,0,0,4.2468.59L4.2126.6249a.925.925,0,0,0-.0613.0723L4.1373.715,4.1337.7194c-.0086.01-.0183.0215-.0317.0354a.3531.3531,0,0,1-.1313.0988.17.17,0,0,1-.0913.0139.1617.1617,0,0,1-.0908-.05A.01.01,0,0,0,3.775.817l0,.0136a.1806.1806,0,0,0,.1019.0559A.1891.1891,0,0,0,3.9776.8716.3739.3739,0,0,0,4.1159.7682c.0132-.0138.0232-.0251.0318-.0355L4.6.741q-.0978.0279-.1866.0624L4.4106.8043q-.0433.0168-.0843.0351C4.3109.8463,4.2284.8827,4.12.9209A.7252.7252,0,0,1,3.9823.959a.5588.5588,0,0,1-.1515.0047A.5523.5523,0,0,1,3.6272.8973.6632.6632,0,0,1,3.4564.7692L3.4494.7663H3.2405a.1637.1637,0,0,1-.034-.03L3.2055.7348h.21a.01.01,0,1,0,0-.0192H3.1918l0-.0076L3.1994.7037h.1875L3.394.7006a.1335.1335,0,0,1,.04-.03.1471.1471,0,0,1,.073-.0134A.3141.3141,0,0,1,3.67.7211L3.6757.723h.1348L3.8163.721C3.8345.7072,3.8525.6924,3.87.6772A.9416.9416,0,0,0,3.9472.6008L3.9619.5852A.6239.6239,0,0,1,4.1942.4191.5784.5784,0,0,1,4.2559.4,1.0688,1.0688,0,0,1,4.4611.3667c.05-.0038.0794-.0039.1139-.0041L4.6339.3619c.0417-.001.0911-.0035.2752-.0241C4.9861.3292,5.0643.32,5.143.31c-.0342.0081-.0683.016-.1022.0234A2.3236,2.3236,0,0,1,4.7483.386.7408.7408,0,0,1,4.6731.39c-.0256,0-.0606.0009-.1411.0056a.8112.8112,0,0,0-.2726.0392.756.756,0,0,0-.1462.0828c-.03.02-.0473.0344-.0859.0656l-.0447.036C3.9386.6544,3.8933.69,3.8479.725a.01.01,0,0,0-.0017.0135l.0076.0037L3.86.74c.0454-.0351.0908-.0707.1349-.106L4.0394.5981C4.0776.5673,4.095.5533,4.124.5336A.7361.7361,0,0,1,4.2666.4527.7982.7982,0,0,1,4.5331.4149c.08-.0048.1149-.0053.14-.0056.0239,0,.04-.0006.0767-.0041A2.3622,2.3622,0,0,0,5.0449.3521C5.1023.34,5.16.3259,5.2181.3115,5.1924.3244,5.1663.3367,5.14.3483Z" fill="#bd9c08"/><path d="M3.81.93q.0311.0026.0621.0025A.7825.7825,0,0,0,4.01.92.785.785,0,0,0,4.2873.813.01.01,0,0,0,4.29.8.01.01,0,0,0,4.2772.7966a.7674.7674,0,0,1-.2711.1046.7612.7612,0,0,1-.1949.0095A.01.01,0,0,0,3.81.93Z" fill="#bd9c08"/><path d="M3.492.6752A.0281.0281,0,1,0,3.52.7033.0281.0281,0,0,0,3.492.6752Z" fill="#bd9c08"/></svg>