<svg xmlns="http://www.w3.org/2000/svg" viewBox="0 0 7.9818 5.1882"><rect width="3.9909" height="5.1882" fill="#fff"/><rect x="3.9909" width="3.9909" height="5.1882" fill="#c81827"/><path d="M1.1244.9551,1.1332.9537C1.128.9506,1.1216.9457,1.1215.94S1.1287.927,1.1332.9236L1.1247.9165l-.0015,0A.0158.0158,0,0,1,1.11.9137l-.0019,0-.0089.003a.0977.0977,0,0,1-.0419.0074h-.001L1.0526.9255l.0051.011.0129.0107.0049.004A.1078.1078,0,0,1,1.1085.919h0L1.1122.92V.9253A.1382.1382,0,0,0,1.0946.987l.0082.0118L1.1079.9947a.03.03,0,0,1-.0094-.02l.0053-.009c.009-.0068.0169,0,.0234.0054l.0092.0059L1.14.9762V.9724L1.1333.9646H1.1327c-.0038,0-.01,0-.0121-.0045l0-.0034Z" fill="#d6d6d6"/><polygon points="1.056 0.805 1.057 0.808 1.058 0.809 1.067 0.801 1.058 0.803 1.056 0.805" fill="#d6d6d6"/><polygon points="1 0.797 1.001 0.796 1.008 0.789 1.009 0.788 1.006 0.788 0.999 0.794 0.996 0.794 0.996 0.795 1 0.797 1 0.797" fill="#d6d6d6"/><path d="M1.0518.9533V.9528a.1054.1054,0,0,1-.017-.016L1.0169.9482h0A.0935.0935,0,0,1,1.0518.9533Z" fill="#d6d6d6"/><path d="M.9389.8964.9615.89l.0011,0A.0771.0771,0,0,1,.947.8527.0309.0309,0,0,1,.9407.8239.02.02,0,0,1,.9265.83a.0609.0609,0,0,1-.018.0238A.0223.0223,0,0,0,.9063.8646L.91.87.9118.8716l.001.0073Z" fill="#d6d6d6"/><polygon points="1.15 0.685 1.133 0.697 1.145 0.705 1.15 0.685" fill="#d6d6d6"/><polygon points="0.933 0.654 0.931 0.674 0.945 0.67 0.933 0.654" fill="#d6d6d6"/><path d="M1.0081,1.1117a.21.21,0,1,0-.21-.21A.21.21,0,0,0,1.0081,1.1117ZM.8389.9912.8481.9805.853.9738.8517.97l0,0C.8455.9583.8436.9339.8527.9269.8584.9226.8667.9262.8755.93A.0451.0451,0,0,0,.9.9359.0537.0537,0,0,1,.9213.9053L.9034.8893.9014.888H.9L.8971.8872.8917.8842.89.8837.8874.8807.886.88.8838.8759C.8785.87.8766.8661.8781.864S.88.8617.8875.8639l0-.0005a.1022.1022,0,0,1,.003-.02L.8868.8469A.0374.0374,0,0,1,.8643.86.0235.0235,0,0,1,.8473.85l0-.0018L.8483.8473.8514.8456l0-.0019a.0094.0094,0,0,1-.01-.0012C.84.8408.8387.8373.8417.83l0-.0035C.8428.8207.8439.81.854.8074A.0226.0226,0,0,1,.8573.7907.0149.0149,0,0,1,.8738.783L.8769.7758A.0158.0158,0,0,1,.8883.7679.02.02,0,0,1,.899.7585L.9077.7574a.09.09,0,0,1,.0254,0L.9385.7527H.9391L.9463.7521.9581.7508l.01-.002a.03.03,0,0,1,.058.0088v0h0A.0127.0127,0,0,1,1.0352.7572L1.04.7539l.006,0L1.0491.76,1.05.7621l.0015.0007a.1219.1219,0,0,1,.0223.004L1.0889.77l.005.0037A.021.021,0,0,1,1.0955.788L1.0929.7922l-.0046.001L1.08.7981,1.0631.8158A.0561.0561,0,0,1,1.0775.844l.0012.0022L1.09.8593,1.0932.86a.091.091,0,0,0,.022-.0174L1.1208.84a.092.092,0,0,1,.0225.0081l.0149.0059.0026.0013.0176.0149L1.18.8769,1.1758.8814A.0123.0123,0,0,1,1.1616.876L1.16.875,1.1509.8707A.0477.0477,0,0,0,1.12.8624L1.1181.8645A.0463.0463,0,0,1,1.1048.89l0,.0029.0021.0015a.0412.0412,0,0,1,.02.0047l.0009.0007.0275.0229L1.1561.924l.01.0172,0,.0006.0007.0011V.9446L1.1644.9491,1.1576.95,1.162.9585l0,.0016a.0439.0439,0,0,1-.0051.0185L1.1587.978l.0013,0,.0031.0032.005.0017L1.17.9862l.0026.0014.0017.0058L1.1729.995,1.1653.9966l-.0055.01c-.002.0035-.0195.0315-.0342.0308a.0154.0154,0,0,1-.0119.0048l-.0049.0035.0219.0123.002.003-.0014.0034-.0139.0115-.0024.0009H.9L.895,1.0751.8862,1.0672l-.001-.0044L.889,1.06l.0353.0019L.8982,1.0554l-.0013-.002.0018-.0016.0177,0L.9393,1.05.947,1.0412.95,1.04.97,1.0373.9754,1.03a.0494.0494,0,0,0-.0228-.0068L.9442,1.02a.0259.0259,0,0,1,.0016-.0152A.0516.0516,0,0,0,.9485.9889L.9467.9868A.0723.0723,0,0,1,.9025.951.0278.0278,0,0,1,.8859.9482.0222.0222,0,0,0,.8694.9462L.8681.9469.8729.9544C.8772.9592.8824.9653.8814.9717l0,.0018C.8807.9771.88.9809.8721.9861L.8692.9907.8706.9952.8712.9957l.0006.002L.87.9989h0l.0013.0137-.009.0046L.857,1.022a.0192.0192,0,0,0,0,.01l0,.0018-.0014.0008h0L.8514,1.0329.8493,1.0292v0L.8448,1.0244l0,0A.0306.0306,0,0,1,.836,1Z" fill="#d6d6d6"/><path d="M1.1256.9845,1.1184.9807h0L1.1172.9815c-.0015.003.0027.009.0067.0149a.0517.0517,0,0,1,.0089.0163l.0161-.0114L1.1516.9859,1.144.9905A.023.023,0,0,1,1.1256.9845Z" fill="#d6d6d6"/><path d="M1.0033.9854l0,.0026h0l.0008,0,.0107-.002A.0435.0435,0,0,1,1.0364.9839c.0038.0009.0078.0045.0166.0124L1.0573,1l.0118.0012L1.0656.9987l-.0033,0H1.0606L1.06.9979,1.0579.9945H1.0534l-.0029,0L1.0488.9914C1.0482.9881,1.0465.9842,1.0421.984L1.04.9828,1.0385.98,1.0369.9742l-.01-.0037L1.0231.9675c-.0008-.0033-.0038-.0091-.0145-.01L1.0053.9536V.9523l-.0026,0a.0331.0331,0,0,1,0,.0287Z" fill="#d6d6d6"/><path d="M.97,1,.97,1.0028a.031.031,0,0,0,.0143.0143.0239.0239,0,0,1,.0332-.0087h0l.0151-.0035.0092-.0023L1.0378.9974l-.001.0013c-.0018.0028-.0039.0039-.0092.001a.0774.0774,0,0,1-.0322.0036c-.0021.0015-.008.005-.0127.0012C.98,1.0026.98.9987.9806.9938A.051.051,0,0,0,.98.981.0373.0373,0,0,1,.97,1Z" fill="#d6d6d6"/><polygon points="0.97 0.771 0.969 0.77 0.968 0.77 0.97 0.771" fill="#d6d6d6"/><polygon points="0.756 0.908 0.763 0.909 0.771 0.909 0.778 0.906 0.783 0.901 0.785 0.894 0.784 0.888 0.78 0.883 0.774 0.88 0.767 0.879 0.759 0.88 0.752 0.883 0.747 0.887 0.745 0.895 0.746 0.901 0.75 0.906 0.756 0.908" fill="#d6d6d6"/><path d="M.8081,1.1021a.07.07,0,0,1,.0164.0945l-.0133.0087a.106.106,0,0,0,.0157,0L.8393,1.204v.3921h.3384v-.392L1.19,1.205a.0978.0978,0,0,0,.0144,0l-.0125-.0083a.07.07,0,0,1,.0164-.0945.07.07,0,0,1,.0945-.0164l.0084.0125a.1226.1226,0,0,0,0-.0135L1.31,1.0726h.3982V.7311H1.3168V.72A.1172.1172,0,0,0,1.3142.695a.0416.0416,0,0,1-.0115.0233A.07.07,0,0,1,1.2082.702.07.07,0,0,1,1.1918.6075l.006-.0048H1.1972l-.0117,0V.208H.8393V.6045L.8263.6026.8171.6018.8245.6075A.07.07,0,0,1,.8081.702.07.07,0,0,1,.7136.7183L.71.714.71.7176l.0019.013H.3077v.3449H.71l-.0011.0123,0,.0047.0053-.0068A.07.07,0,0,1,.8081,1.1021Zm.2-.4805a.28.28,0,1,1-.28.28A.2808.2808,0,0,1,1.0081.6216Z" fill="#d6d6d6"/><path d="M1.0081,1.1768A.2748.2748,0,1,0,.7334.902.275.275,0,0,0,1.0081,1.1768ZM.9008,1.1359a.0114.0114,0,1,1,.0114-.0114A.0114.0114,0,0,1,.9008,1.1359Zm.1274.0165H1.01V1.17l-.0057.0057L.9988,1.17v-.018H.9808L.9751,1.1467.9808,1.141h.018V1.123l.0057-.0057L1.01,1.123v.018h.018l.0057.0057Zm.0794-.0165a.0114.0114,0,1,1,.0114-.0114A.0114.0114,0,0,1,1.1076,1.1359ZM1.27.9529l0,.003,0,.0022,0,.0011L1.2681.96,1.267.96,1.2451.9661,1.2612.98l0,.0006,0,.0009V.9827l0,.0012,0,.0011,0,.0007L1.2607.9863l0,0,0,0L1.2411.9665,1.2219.9614,1.2211.96V.9588l0-.0015,0-.0014,0-.0009L1.2232.9543l.0191.005L1.2635.9538,1.2663.9527,1.2675.9508V.9493L1.27.95Zm0-.077L1.2705.8737l0-.0017.0021,0L1.2739.88l.0007.0084V.892l0,.0041L1.2732.9,1.2714.9031,1.2685.9054l-.004.0009L1.26.9057,1.2565.9038,1.2539.9008,1.252.897h0l0,.0021L1.25.9014l-.0018.002L1.2455.905,1.2368.9082,1.2339.9094,1.2323.9105,1.2316.9118V.9135l-.002,0,0-.0016,0-.0017,0-.0015V.9079l0-.0022L1.23.9039,1.2315.9024l.003-.0012L1.2438.8981,1.2469.8965,1.2487.8944l.0007-.003V.8873l.0022,0,.0011.0053.0021.0037L1.2582.898l.0047.0006.0039-.001L1.27.8951,1.271.8915l0-.0045,0-.0023L1.27.884,1.23.8857,1.2283.8848l0-.0014,0-.0016,0-.0014V.88l.0009-.001L1.2674.8769Zm-.0282-.08L1.2433.7957,1.2454.7951,1.2475.7945,1.25.7939l.0015,0,.0008,0L1.2539.8l.002.0056L1.26.8181l.0021.0056L1.2647.83l0,.0007L1.263.8315,1.2611.8323,1.259.8331,1.257.8339,1.2555.8345l-.0008,0L1.2538.8331,1.2577.83,1.2594.8278V.825L1.258.8211,1.2563.8164,1.218.83,1.2167.83,1.216.8284,1.2153.827l0-.0013,0-.0009L1.215.8236,1.2539.81,1.2523.8051,1.2508.8013,1.249.799,1.2461.7981l-.0047,0L1.2409.7965ZM1.1707.7514,1.2031.7273,1.2045.7222l0,0h.0009L1.2069.723l.0013.0014.0012.0014L1.21.7266l0,.0007,0,.0008-.0115.043L1.2255.7489l.0008,0L1.2276.75l.0015.0017V.753l-.03.0225L1.1931.78l-.0008,0L1.1913.7785,1.19.7772l0-.0005V.7761L1.2016.7328,1.1741.7555H1.1734L1.172.754,1.1706.7523ZM1.1126.7063,1.1509.6807l0-.0023,0,0,.001,0,.0013.0007.0015.0007L1.1566.68,1.1575.68l0,.0014-.01.0465,0,.0005-.001,0L1.1451.7283,1.1435.7275,1.1422.7267,1.1414.7262l0-.001L1.1448.708,1.1305.6989l-.0138.01H1.1158L1.1144.7082,1.1127.7071l0-.0007Zm-.052-.02L1.0715.65l0-.0018,0-.0011L1.0707.6463,1.07.6457l-.0016,0,0-.0021.004.0005.0033,0L1.078.6448l.0012,0L1.08.6466,1.0689.6835l0,.0014V.6858l.0007.0006.0016,0L1.0745.688l.0049.0013h.0035l.003-.0017L1.0894.6838l.0018.001L1.0906.6861,1.0893.6885,1.0879.6913,1.0864.6937,1.0842.6945,1.0773.6923l-.01-.003L1.0612.6874,1.0606.6869ZM.9984.6361l.0033,0,.0025,0h.0012l.0012.0012,0,.0385V.6767l0,.0008.0008,0h.01l.0034-.001L1.0237.6745,1.026.67,1.028.67l0,.0014,0,.0027L1.0266.6775,1.0259.68,1.024.6815H1.0167l-.01,0H1l-.0007,0L.999.68l0-.0379,0-.0017L.9986.64.9976.6389H.9946l0-.0022ZM.9289.6485l0,0L.9293.6472.9306.6466.9321.646.9334.6455l.0009,0L.9357.6457l.029.0378,0,0L.9644.6849.963.6855.9614.6861.96.6866l-.001,0-.001,0L.9473.6726.9311.6776.93.6948l0,.0006L.9279.696.926.6966l-.0007,0v0L.93.65ZM.8548.6905.86.6822.8675.6751.873.6721.8783.67H.879l0,0L.88.6712.8814.6727.8825.6744.8836.6759.8845.6771l0,.0007L.8834.679.88.6764.8759.6757.8718.6767.8679.6786.8624.6838.86.69l0,.0067L.8635.7035.87.71.8767.7139l.0081,0L.8935.71.895.7093.8966.7081.89.6979.8888.6965.8878.6959H.8867L.8855.6966l0,0-.0005,0L.8832.6956.8863.6933.8888.6915.8906.69.8915.69l.0017,0,.01.0154V.706L.8983.7109.8927.7151.883.72.8736.72.865.7169.858.71.8541.7ZM1.0081.6867A.2153.2153,0,1,1,.7928.902.2155.2155,0,0,1,1.0081.6867ZM.7518.8286.754.82.7554.8167.7573.8131.76.81.7624.8076.7659.8065.77.807.774.8092l.0025.003L.7779.816l0,.0042h0L.78.8185.7817.8167.7841.8155.7873.815H.8l.0019,0L.8027.8136.8034.812.8053.8126l0,.0016,0,.0017,0,.0015,0,.001L.8032.82.8017.8217.7994.8224H.7963l-.01,0-.0035,0L.7805.8238.7788.8263.7772.83.775.83.7759.8245.7753.82.773.8171.7688.8148l-.0041,0L.7613.8157.7586.8186.7567.8226.7562.8249.7573.826.7954.8388.7961.84l0,.0015,0,.0015,0,.0013,0,.0009L.7936.8458.7568.8335H.7541L.7528.8354l0,.0016L.75.8365Zm-.01.0639L.7433.8835.748.8768.7553.8726.765.8714l.01.002L.7828.8785.7872.8863l.0013.01L.7867.9053.7819.9121.7745.9162l-.01.0013L.7544.9154.747.91.7427.9025Zm.0548.074L.76.9757.7573.9772V.98L.7578.981.7558.9818.7548.98.7536.9766.7524.9735.7517.9712.7483.9578.7476.9551.7468.9521l0-.0009.0013,0L.75.95.7524.95.7544.949l.0015,0,.0008,0L.7574.95.7535.9525.7518.9547V.9575L.7525.9616.7541.9679l0,.001,0,0H.7559L.7727.965.7711.9594.77.9551.7689.9523l0-.0014L.7693.95l.0015,0,.0017,0L.7757.9642.7939.96.7952.96.7958.9616.7963.9631l0,.0013,0,.001Z" fill="#d6d6d6"/><path d="M1.3391.7085A.1415.1415,0,0,0,1.2939.6154.14.14,0,0,0,1.2082.58V.1853H.8166V.5791a.1231.1231,0,0,0-.13.1288H.285v.39H.6856a.13.13,0,0,0,.131.13v.3906H1.2V1.2279a.1356.1356,0,0,0,.1336-.1326h.3972V.7085Zm-.6308.384,0-.0047L.71,1.0755H.3077V.7306H.7122L.71.7176.71.714a.0733.0733,0,0,1,.02-.09A.0753.0753,0,0,1,.8171.6018L.8263.6026l.013.0019V.208h.3462V.6031l.0117,0h.0006a.0743.0743,0,0,1,.0885.0212A.0857.0857,0,0,1,1.3142.695.1172.1172,0,0,1,1.3169.72V.7311h.3918v.3415H1.31l.0008.0121a.1226.1226,0,0,1,0,.0135.0906.0906,0,0,1-.1068.1067.0978.0978,0,0,1-.0144,0l-.0122-.0009v.392H.8393V1.204l-.0124.0012a.106.106,0,0,1-.0157,0A.0794.0794,0,0,1,.73,1.18.0749.0749,0,0,1,.7083,1.0925Z" fill="#c81827"/><polygon points="1.039 1.041 1.037 1.043 1.044 1.04 1.041 1.038 1.039 1.041" fill="#8c8c8c"/><path d="M1.1037,1.0474l-.01.0016a.0142.0142,0,0,1-.0139,0l-.0122.003L1.06,1.0505l-.0014,0v.0029l-.0019.0015L1.0476,1.05,1.0449,1.05l-.0149.004-.01.0021-.0023-.0006-.001-.0018.0039-.0064.0006-.0012.0016-.007a.0217.0217,0,0,1-.0124-.0136l-.0008,0,.0083.0147,0,.0059-.005.0028H1.0122l-.0106-.0013L.9975,1.0446.9948,1.0429h0L.9907,1.0413.9881,1.0391a.0326.0326,0,0,1-.0157.0047h0L.9691,1.0417l0-.0006L.95,1.0434l-.0077.0091,0,0,.0011.0017-.0018.0017h0l-.0235,0H.9149l.0271.0072.0013.002-.0018.0015L.8888,1.064l-.0014.0019.0012-.0014.0089.008L.9,1.0736H1.115l.014-.0115L1.13,1.06l-.0009.0016-.0251-.0141Z" fill="#8c8c8c"/><path d="M1.1484.9411l-.0009,0L1.1455.9409H1.1436L1.14.9386,1.1355.9265c-.0066.0049-.01.01-.01.0133s.0037.0071.01.0108l.0017.0033L1.1346.957A.0213.0213,0,0,1,1.124.9587l.0086.0022h.0006l.0034.0022L1.1425.97l.0008.0009,0,.0078L1.1361.9807,1.1248.974C1.1175.9677,1.1122.964,1.106.9687L1.1021.9751a.0276.0276,0,0,0,.0084.0172l.001.0028L1.11.9976l-.01.0093.0013-.0044L1.1,1.0017A.1063.1063,0,0,0,1.053.9576.0858.0858,0,0,0,1.0091.9529l0,0a.0187.0187,0,0,1,.0177.0134A.02.02,0,0,1,1.04.9718L1.0421.98v0a.011.011,0,0,1,.01.01L1.06.9915l.0028.0037.0042,0c.005.0017.0082.0086.01.0126a.0158.0158,0,0,1,.0115.0087.0072.0072,0,0,0,.008,0l.0026,0,0,.0025-.0063.0021L1.0864,1.02l-.0017-.0019a.012.012,0,0,0-.0088-.0066l-.0028-.0024-.0013-.003-.0109-.0021.001.0009,0,.0019-.0014.0011-.0032,0-.0091-.0014-.0007,0-.0023-.001-.0123.0029-.0152.0035-.0024,0h0a.02.02,0,0,0-.0284.0073h0l.003.0017.0019,0a.0163.0163,0,0,1,.0143.0013l.002-.0013.0029,0,.0023.0021c.0029.0071.0063.0113.01.0126l.0016-.0067.0022-.0013.0013.0022-.004.0172L1.0235,1.05l-.0023.0027L1.0286,1.05l.001,0,.0138-.0036.007.0015.0041.003,0-.0014,0-.0019.0017-.0007.0013,0L1.06,1.0461v-.002l0,0-.0015-.005v-.002l-.0021,0c-.0051.0051-.0175.0121-.0217.0091l-.0012-.0019.0033-.0052c.0038-.0039.0069-.0075.005-.0115l.0009-.0024.0024.0009-.0008.0095.0034.0037.0065-.0052.0012-.0006.0058.0015.0008.005.0008.0022.0007.0011,0,.0051a.0223.0223,0,0,0,.0153-.0021l.0036,0a.0111.0111,0,0,0,.0107,0l.0013,0,.0083-.0012.0022-.0009L1.1112,1.04l.0024-.001.0093-.0038.002-.0011c.01.0019.0253-.018.0318-.0287l.0054-.01L1.1645.9931,1.1707.9918,1.17.99l-.0015,0L1.1673.9892,1.1667.9879,1.1658.9858,1.1616.9851,1.16.9845l0-.0018L1.1589.9818c-.0039.0018-.006.011-.0065.02l-.0013.0026-.0164.0117-.0033,0-.0021-.0026A.0546.0546,0,0,0,1.121.9984C1.1158.9911,1.1114.9847,1.1141.98L1.1172.9772l.01.0043c.0049.0033.01.0071.0153.0055A.0292.0292,0,0,0,1.1586.96l-.01-.0188ZM1.14.95,1.1378.9505l-.0013,0L1.1342.9482,1.1368.9436,1.14.9429l.0017.0029Z" fill="#8c8c8c"/><path d="M.9784,1.0319.9724,1.04l.0127-.0037Z" fill="#8c8c8c"/><path d="M.9989.9527l-.0021,0-.0009,0-.0078,0L.9858.9544l0,.0031L.9811.9715.98.9728A.0363.0363,0,0,1,.9842.9939l.0007.0078L.9939,1,.9955,1A.0749.0749,0,0,0,1.0272.996l.0015,0c.004.0023.0043.0017.005.0006l.005-.0031h0l.0016.0012.0065.0074L1.05.9988h0L1.0355.9874A.04.04,0,0,0,1.0162.99L1.0036.9918,1.0012.9906,1,.9855.9991.9821l0-.0022C1.0047.9745,1.0024.9615.9989.9527Z" fill="#8c8c8c"/><polygon points="1.052 1.002 1.05 1.004 1.056 1.005 1.054 1.002 1.052 1.002" fill="#8c8c8c"/><path d="M.8526,1.0277v0l.0008-.0067a.01.01,0,0,1,.0082-.0078l.0062-.0028L.8655.9979V.9962L.8665.9954.8657.99.87.983C.8769.9788.8772.9762.8775.9731l0-.002C.8786.9663.8742.9613.87.9568S.8631.9487.8649.9453L.868.9429a.0248.0248,0,0,1,.0192.002.0278.0278,0,0,0,.014.0027L.8994.9406V.94A.0523.0523,0,0,1,.874.9334C.8659.93.8589.9268.8549.93.8481.935.8489.9572.8546.9677l0,0L.8566.9739A.0131.0131,0,0,1,.85.9832l-.0083.01L.84,1.0008a.0272.0272,0,0,0,.0074.0206Z" fill="#8c8c8c"/><path d="M.9041.8227C.9111.8109.9164.8056.9213.8055A.0237.0237,0,0,1,.9339.7943C.9355.7881.9441.7834.9531.78A.0212.0212,0,0,1,.972.7773h0L.9632.7714.9539.774H.9533L.9421.7706.9344.7666.9322.7609a.0853.0853,0,0,0-.0242,0H.9075L.9.7619A.0162.0162,0,0,0,.8911.77L.8894.7715.8811.7762.8773.7847l0,.002-.002,0A.0116.0116,0,0,0,.86.7926C.8568.7983.8562.8056.8582.8075l0,.002L.857.8106c-.0089,0-.01.0081-.0113.0167L.8451.8316C.8433.8357.8431.8387.8444.84l.0081,0H.854L.8549.8407l0,.0067L.8519.85C.8646.8619.8738.8537.8844.8442L.8929.8371A.0255.0255,0,0,1,.9041.8227Z" fill="#8c8c8c"/><path d="M.9786.7658.9726.769.9771.776.9789.7745S.98.7722.9786.7661Z" fill="#8c8c8c"/><path d="M.9847.7506A.0161.0161,0,0,1,.9959.7449H.999l.0018,0h.0006a.0212.0212,0,0,1,.0141.01l.0026.0062,0,.0008V.7629a.0133.0133,0,0,1-.0035.012l0,.002L1.0156.7756,1.0208.7663,1.0222.7576A.0266.0266,0,0,0,.9962.7305.026.026,0,0,0,.9715.7493L.9828.7526Z" fill="#8c8c8c"/><path d="M1.0146.8031a.0327.0327,0,0,0-.0012.0248l0,0,.0023.0095a.1378.1378,0,0,0,.04-.0258L1.0539.81,1.0528.804,1.0573.8,1.069.7957,1.072.7948,1.0779.7871,1.08.7864l.0052,0,.0015.001V.7894L1.0843.792,1.0864.79,1.0881.79l.0029,0L1.092.7874A.0179.0179,0,0,0,1.0906.7751L1.0885.7736,1.0728.77,1.0512.7664,1.0471.7645,1.0455.76,1.0444.7572H1.0421L1.0382.76l0,.0016a.0716.0716,0,0,1-.01.0174A.12.12,0,0,0,1.0146.8031ZM1.0412.77,1.0443.769l.0018.0029-.0015.004L1.0423.7767l-.0014,0L1.0387.7744Z" fill="#8c8c8c"/><polygon points="1.158 0.946 1.159 0.947 1.162 0.946 1.163 0.944 1.16 0.943 1.158 0.946" fill="#8c8c8c"/><path d="M1.017.8452l0,.0032L1.0085.8606,1.0058.8694A.05.05,0,0,1,1.04.8862l0,.0009a.1469.1469,0,0,0,.01.0351L1.0552.9205l.0025,0a.0931.0931,0,0,0,.04-.0072L1.1072.91l.005.0008a.0124.0124,0,0,0,.01.0018l.0038.0008a.0541.0541,0,0,1,.0181.02l.0025.004L1.1485.9343,1.15.9331l.0016.0013.0037.0081L1.1586.94l.0019,0L1.1529.9257,1.1523.925,1.1248.902l0,0a.0388.0388,0,0,0-.018-.0042L1.1009.8937,1.1022.887A.043.043,0,0,0,1.1146.864L1.12.8588a.05.05,0,0,1,.033.0088l.0082.0039L1.1647.874a.0086.0086,0,0,0,.01.0039L1.1768.876,1.176.8733,1.1585.8584,1.1574.8579,1.1418.8518A.0869.0869,0,0,0,1.12.844L1.1181.8448A.0923.0923,0,0,1,1.095.8631L1.0871.8614,1.0765.849,1.0739.8438A.0532.0532,0,0,0,1.0605.8182.1244.1244,0,0,1,1.017.8452Z" fill="#8c8c8c"/><path d="M1.0148,1.0444l0-.0026-.0006-.0011-.0072.0008-.0026.0035.0082.0005Z" fill="#8c8c8c"/><path d="M.9476.9833.9521.9887a.0547.0547,0,0,1-.0028.0167l-.0018.0127L.9529,1.02a.0622.0622,0,0,1,.04.019l.0017.0006h0L1,1.0422l.0012.0012.0037-.0048.0075-.002L1.0054,1.026.9933,1.0244.9885,1.0238l-.003-.0017a.0393.0393,0,0,1-.019-.0179L.968.9971A.0332.0332,0,0,0,.9766.9745L.9785.969.9819.9571l0-.0031L.988.9487l.0078,0,.0023,0c.0011.0005.0058.0015.0173-.0039L1.0326.934A.0485.0485,0,0,1,1.0215.9015.2229.2229,0,0,1,.9669.8927l0,0L.9624.8936l-.02.0053L.9519.9051.9524.9057l.0135.02V.9286L.9641.9294H.9634L.9391.9211l-.0007,0L.924.9078A.0506.0506,0,0,0,.903.9389V.94A.0633.0633,0,0,0,.9476.9833Z" fill="#8c8c8c"/><path d="M.8444,1.024l0,0,.0044.0044v0l.0021.0037.0035.0015h0l.0014-.0008,0-.0018a.0192.0192,0,0,1,0-.01l.0051-.0048.009-.0046L.87.9989h0L.8718.9977.8712.9957.8706.9952.8692.9907.8721.9861C.88.9809.8807.9771.8811.9735l0-.0018C.8824.9653.8772.9592.8729.9544L.8681.9469.8694.9462a.0222.0222,0,0,1,.0165.002A.0278.0278,0,0,0,.9025.951.0723.0723,0,0,0,.9467.9868L.9485.9889a.0516.0516,0,0,1-.0027.0155A.0259.0259,0,0,0,.9442,1.02l.0084.0036A.0494.0494,0,0,1,.9754,1.03L.97,1.0373.95,1.04.947,1.0412.9393,1.05l-.0229.0019-.0177,0-.0018.0016.0013.002.0261.0069L.889,1.06l-.0038.0024.001.0044.0088.0079L.9,1.0772H1.115l.0024-.0009.0139-.0115.0014-.0034-.002-.003-.0219-.0123.0049-.0035a.0154.0154,0,0,0,.0119-.0048c.0147.0007.0322-.0273.0342-.0308l.0055-.01L1.1729.995,1.1744.9934,1.1727.9876,1.17.9862,1.1681.9831,1.1631.9814,1.16.9782l-.0013,0L1.1571.9786A.0439.0439,0,0,0,1.1622.96l0-.0016L1.1576.95,1.1644.9491,1.1665.9446V.9429L1.1659.9418l0-.0006L1.1561.924,1.1546.9222,1.1271.8993,1.1262.8986a.0412.0412,0,0,0-.02-.0047L1.1043.8924l0-.0029a.0463.0463,0,0,0,.0133-.025L1.12.8624a.0477.0477,0,0,1,.0307.0083L1.16.875l.0015.001a.0123.0123,0,0,0,.0142.0054L1.18.8769,1.1784.8706,1.1608.8557,1.1582.8544,1.1433.8485A.092.092,0,0,0,1.1208.84L1.1152.8426A.091.091,0,0,1,1.0932.86L1.09.8593,1.0787.8462,1.0775.844A.0561.0561,0,0,0,1.0631.8158L1.08.7981,1.0883.7932l.0046-.001L1.0955.788A.021.021,0,0,0,1.0939.7737L1.0889.77,1.0736.7668a.1219.1219,0,0,0-.0223-.004L1.05.7621,1.0491.76,1.0464.7542l-.006,0L1.0352.7572a.0127.0127,0,0,0-.0093.0006h0v0A.03.03,0,0,0,.9678.7488l-.01.002L.9463.7521.9391.7526H.9385L.9331.7574a.09.09,0,0,0-.0254,0L.899.7585A.02.02,0,0,0,.8883.7679.0158.0158,0,0,0,.8769.7758L.8738.783A.0149.0149,0,0,0,.8573.7907.0226.0226,0,0,0,.854.8074C.8439.81.8428.8207.8421.8269l0,.0035c-.003.0069-.0016.01,0,.0121a.0094.0094,0,0,0,.01.0012l0,.0019L.8483.8473.8469.8485l0,.0018A.0235.0235,0,0,0,.8643.86.0374.0374,0,0,0,.8868.8469L.8908.8433a.1022.1022,0,0,0-.003.02l0,.0005C.88.8617.8786.8634.8781.864s0,.0061.0057.0119L.886.88.8874.8807.89.8837l.0014,0,.0054.003L.9.888H.9014l.002.0013.0179.016A.0537.0537,0,0,0,.9.9359.0451.0451,0,0,1,.8755.93C.8667.9262.8584.9226.8527.9269.8436.9339.8455.9583.8515.9694l0,0L.853.9738.8481.9805.8389.9912.836,1A.0306.0306,0,0,0,.8444,1.024Zm.04-.1533L.8813.8664h0L.8857.8672Zm.0942.1612.0067.0047L.9724,1.04Zm.15.03L1.13,1.06l-.0008.0022-.014.0115H.9L.8975,1.0725l-.0089-.008-.0012.0014L.8888,1.064l.0527.0028.0018-.0015L.942,1.0633.9149,1.0561H.9176l.0235,0h0l.0018-.0017L.9418,1.0529l0,0L.95,1.0434l.019-.0023,0,.0006.0033.0021h0a.0326.0326,0,0,0,.0157-.0047l.0026.0022.0041.0016h0l.0027.0018.0041.0032.0106.0013h.0006l.005-.0028,0-.0059L1.01,1.0257l.0008,0a.0217.0217,0,0,0,.0124.0136l-.0016.007-.0006.0012-.0039.0064.001.0018.0023.0006.01-.0021.0149-.004.0027.0006.0085.0048.0019-.0015V1.0508l.0014,0,.008.0013.0122-.003a.0142.0142,0,0,0,.0139,0l.01-.0016h0ZM1.0046,1.045l.0026-.0035.0072-.0008.0006.0011,0,.0026-.002.0011ZM1.1586.96A.0292.0292,0,0,1,1.1429.987c-.0048.0016-.01-.0022-.0153-.0055l-.01-.0043L1.1141.98c-.0027.0049.0017.0113.0069.0186a.0546.0546,0,0,1,.0083.0151l.0021.0026.0033,0,.0164-.0117.0013-.0026c0-.0087.0026-.0179.0065-.02L1.16.9827l0,.0018.0016.0006.0042.0007.0009.0021.0006.0013L1.1686.99,1.17.99l.0006.0017L1.1645.9931,1.1621.995l-.0054.01c-.0065.0107-.0215.0306-.0318.0287l-.002.0011-.0093.0038-.0024.001-.0071.0032-.0022.0009-.0083.0012-.0013,0a.0111.0111,0,0,1-.0107,0l-.0036,0a.0223.0223,0,0,1-.0153.0021l0-.0051-.0007-.0011-.0008-.0022-.0008-.005-.0058-.0015-.0012.0006-.0065.0052-.0034-.0037.0008-.0095-.0024-.0009-.0009.0024c.0019.004-.0012.0076-.005.0115l-.0033.0052.0012.0019c.0042.003.0166-.004.0217-.0091l.0021,0v.002l.0015.005,0,0v.002l-.0021.0012-.0013,0-.0017.0007,0,.0019,0,.0014L1.05,1.0481l-.007-.0015L1.03,1.05l-.001,0-.0074.0019L1.0235,1.05l.0016-.0028.004-.0172-.0013-.0022-.0022.0013-.0016.0067c-.004-.0013-.0074-.0055-.01-.0126l-.0023-.0021-.0029,0-.002.0013A.0163.0163,0,0,0,.9922,1.021l-.0019,0L.9873,1.019h0a.02.02,0,0,1,.0284-.0073h0l.0024,0,.0152-.0035.0123-.0029.0023.001.0007,0,.0091.0014.0032,0,.0014-.0011,0-.0019-.001-.0009.0109.0021.0013.003.0028.0024a.012.012,0,0,1,.0088.0066l.0017.0019.0056.0015L1.0983,1.02l0-.0025-.0026,0a.0072.0072,0,0,1-.008,0,.0158.0158,0,0,0-.0115-.0087c-.0015-.004-.0047-.0109-.01-.0126l-.0042,0L1.06.9915,1.0524.9907a.011.011,0,0,0-.01-.01v0L1.04.9718a.02.02,0,0,0-.013-.0051A.0187.0187,0,0,0,1.0089.9533l0,0A.0858.0858,0,0,1,1.053.9576.1063.1063,0,0,1,1.1,1.0017l.0011.0008L1.1,1.0069,1.11.9976,1.1115.9951,1.1105.9923A.0276.0276,0,0,1,1.1021.9751L1.106.9687c.0062-.0047.0115-.001.0188.0053l.0113.0067L1.1429.9784l0-.0078L1.1425.97,1.1366.9631,1.1332.9609H1.1326L1.124.9587A.0213.0213,0,0,0,1.1346.957L1.1368.9539,1.1351.9506C1.1288.9469,1.1252.943,1.1251.94s.0038-.0084.01-.0133L1.14.9386l.0032.0022h.0019l.002.0006.0009,0h0Zm-.007.026-.0027.0154-.0161.0114A.0517.0517,0,0,0,1.1239.9964C1.12.9905,1.1157.9845,1.1172.9815L1.118.9807h0l.0072.0038a.023.023,0,0,0,.0184.006ZM1.0438,1.04l-.0068.0023.0018-.0018.0027-.0029ZM.9991.9821,1,.9855l.0015.0051.0024.0012L1.0162.99A.04.04,0,0,1,1.0355.9874L1.05.9987h0l-.0028.0035L1.0407.9949,1.0391.9937h0l-.005.0031c-.0007.0011-.001.0017-.005-.0006l-.0015,0A.0749.0749,0,0,1,.9955,1L.9939,1l-.009.0018L.9842.9939A.0363.0363,0,0,0,.98.9728L.9811.9715.9854.9575l0-.0031L.9881.9523l.0078,0,.0009,0,.0021,0c.0035.0088.0058.0218,0,.0272ZM1.0028.9527l.0026,0V.9536l.0033.0036c.0107.0012.0137.007.0145.01l.0034.003.01.0037L1.0385.98,1.04.9828,1.0421.984c.0044,0,.0061.0041.0067.0074L1.0505.994l.0029,0h.0045L1.06.9979l.001.0013h.0017l.0033,0,.0035.0029L1.0573,1,1.053.9963C1.0442.9884,1.04.9848,1.0364.9839a.0435.0435,0,0,0-.0212.0025l-.0107.002-.0008,0h0l0-.0026L1.0028.9814A.0331.0331,0,0,0,1.0028.9527Zm.0537.0519-.006-.0009.0012-.0017h.002ZM.9806.9938c0,.0049,0,.0088.0021.0107.0047.0038.0106,0,.0127-.0012A.0774.0774,0,0,0,1.0276,1c.0053.0029.0074.0018.0092-.001l.001-.0013.0038.0052-.0092.0023-.0151.0035h0a.0239.0239,0,0,0-.0332.0087A.031.031,0,0,1,.97,1.0028L.97,1A.0373.0373,0,0,0,.98.981.051.051,0,0,1,.9806.9938Zm.036-.0455h0L1.0348.9368a.1054.1054,0,0,0,.017.016V.9533A.0935.0935,0,0,0,1.0166.9483Zm.068.02h.001L1.09.9667C1.0911.9647,1.09.9625,1.0784.9535a.1078.1078,0,0,1,.031-.031V.9232a.1312.1312,0,0,0-.0179.06L1.0758.9674ZM1.0783.9643,1.08.9625,1.0829.962l.003.0029ZM1.1206.96c.002.0048.0083.0046.0121.0045h.0006L1.14.9724V.9762L1.1364.9771,1.1272.9712C1.1207.9658,1.1128.959,1.1038.9658l-.0053.009a.03.03,0,0,0,.0094.02L1.1028.9988,1.0946.987A.1382.1382,0,0,1,1.1122.9253V.92L1.1085.919h0a.1078.1078,0,0,0-.033.0322L1.0706.9472,1.0577.9365,1.0526.9255,1.0564.9239h.001A.0977.0977,0,0,0,1.0993.9164l.0089-.003.0019,0a.0158.0158,0,0,0,.0131.0025l.0015,0,.0085.0071c-.0045.0034-.0119.01-.0117.0163s.0065.0107.0117.0138L1.1244.9551,1.1211.9566ZM1.1628.9437,1.162.9464H1.1592L1.1584.9457,1.16.943Zm-.0889-.1L1.0765.849l.0106.0124L1.095.8631A.0923.0923,0,0,0,1.1181.8448L1.12.844a.0869.0869,0,0,1,.0215.0078l.0156.0061.0011.0005L1.176.8733,1.1768.876,1.175.8779a.0086.0086,0,0,1-.01-.0039L1.1609.8715,1.1527.8676A.05.05,0,0,0,1.12.8588L1.1146.864a.043.043,0,0,1-.0124.023L1.1009.8937l.0054.0038a.0388.0388,0,0,1,.018.0042l0,0,.0275.023.0006.0007.0076.0136-.0019,0-.003.0028L1.1519.9344,1.15.9331,1.1485.9343,1.1471.9376,1.1446.9336a.0541.0541,0,0,0-.0181-.02L1.1227.9126a.0124.0124,0,0,1-.01-.0018L1.1072.91,1.0981.913a.0931.0931,0,0,1-.04.0072l-.0025,0L1.0511.9222a.1469.1469,0,0,1-.01-.0351l0-.0009A.05.05,0,0,0,1.0058.8694L1.0085.8606,1.0168.8484l0-.0032a.1244.1244,0,0,0,.0435-.027A.0532.0532,0,0,1,1.0739.8438ZM1.0078.856,1.0089.8475,1.0134.8463V.8477ZM1.0582.81,1.0567.8077l0-.0025L1.058.8035,1.0667.8008Zm-.02-.05L1.0421.7571h.0023L1.0455.76l.0016.0049.0041.0019L1.0728.77l.0157.0033.0021.0015A.0179.0179,0,0,1,1.092.7874L1.091.7892l-.0029,0L1.0864.79,1.0843.792,1.0861.7894V.7876L1.0847.7866l-.0052,0L1.0779.7871,1.072.7948,1.069.7957,1.0573.8,1.0528.804,1.0539.81l.0016.002a.1378.1378,0,0,1-.04.0258L1.0136.8283l0,0A.0327.0327,0,0,1,1.0146.8031.12.12,0,0,1,1.0285.7785a.0716.0716,0,0,0,.01-.0174Zm-.01.0013.0067,0L1.0256.7765a.1224.1224,0,0,0-.0144.0254A.0359.0359,0,0,0,1.01.8294l.0024.01-.004.0014-.0054-.02L1.0037.7977,1.0106.7918l0,0ZM.9821.7655l0-.0019A.045.045,0,0,1,1,.7662a.0433.0433,0,0,0,.0142.0026L1.0121.7726l0,.0007L1.01.7812l0,.003L1.006.7837l-.0023.001L1.0021.7868h0L.9991.7836H.9966V.786L.9994.7892H1L.9976.79H.9966L.9945.791.9912.7933h0L.9764.7809.9818.7767C.9834.7746.9835.771.9821.7655ZM.9969.8012.9949.7991,1,.8013V.803ZM1,.8088V.81L.9988.8083.9974.8077.9939.8053.9924.8041.9891.8014.9883.8l0,0L.9893.8l.0009,0L.9938.8031.995.8043.9979.8066.9992.8083ZM.9956.7948.9964.7942.999.7937,1.0062.7876l.0026,0L1.008.7892,1.0007.7955,1,.7969v0ZM.9789.7745.9771.776.9726.769.9786.7658v0C.98.7722.9793.774.9789.7745ZM.99.7969H.982L.9806.7981.9808.8.986.8036l.005.004L.9961.811l0,0,0,.001L.9958.8134c0,.0008-.0044.0214.0027.03l.0062.0039,0,.0081,0,.0031L.9933.85A.05.05,0,0,1,.9769.8336L.9743.8229A.0374.0374,0,0,0,.9682.803L.9623.796.9544.783C.957.7814.9662.7767.9721.7815A.1091.1091,0,0,0,.99.7969ZM1.0018.83l.0027.01ZM.9962.7305a.0266.0266,0,0,1,.026.0271L1.0208.7663,1.0156.7756,1.0145.7769l0-.002a.0133.0133,0,0,0,.0035-.012V.7621l0-.0008L1.0155.7551a.0212.0212,0,0,0-.0141-.01H1.0008l-.0018,0H.9959A.0161.0161,0,0,0,.9847.7506L.9828.7526.9715.7493A.026.026,0,0,1,.9962.7305ZM.94.7562l.007,0L.9591.7543l.0008,0C.9648.75.978.7544.9826.7565L.9848.7559S.991.7475.9986.7484a.0177.0177,0,0,1,.0136.0083l.0029.0085L1.0014.7628A.0438.0438,0,0,0,.98.76L.98.7606.9683.7666.9627.7677l-.0008,0L.9538.77a.0165.0165,0,0,1-.01-.003l-.0009,0L.9371.7643.9358.76ZM.97.771.9685.77l.0007,0ZM.8844.8442C.8738.8537.8646.8619.8519.85L.8545.8474l0-.0067L.854.84H.8525L.8444.84C.8431.8387.8433.8357.8451.8316L.8457.8273C.8466.8187.8481.811.857.8106L.8586.81l0-.002C.8562.8056.8568.7983.86.7926A.0116.0116,0,0,1,.875.7871l.002,0,0-.002L.8811.7762.8894.7715.8911.77A.0162.0162,0,0,1,.9.7619L.9075.761H.908a.0853.0853,0,0,1,.0242,0L.9344.7666l.0077.004L.9533.774H.9539L.9632.7714.972.7772h0A.0212.0212,0,0,0,.9531.78C.9441.7834.9355.7881.9339.7943A.0237.0237,0,0,0,.9213.8055c-.0049,0-.01.0054-.0172.0172A.0255.0255,0,0,0,.8929.8371Zm.0189.03C.9023.8753.9024.8765.9026.8805V.8842L.9.8844l0,0-.0014,0L.8946.8819.8937.8806H.8923L.8905.8787.89.8774l-.0015,0L.8872.8734.8911.865l0-.001S.8924.832.9061.8257L.9069.825C.9135.8138.9186.8085.9222.8092L.9243.8079a.018.018,0,0,1,.0115-.01L.9373.7959c0-.0044.0076-.0086.0136-.0114A.0306.0306,0,0,0,.96.7983L.9654.8052a.0351.0351,0,0,1,.0054.018l.003.0123A.0549.0549,0,0,0,.9912.8533l.01.0077,0,.01.0005.0013.0013.0005a.0491.0491,0,0,1,.0348.0153.1816.1816,0,0,0,.0173.05l0,0L1.0684.95l.0107.0088L1.0778.96l-.003.004L1.0672.96,1.0657.9587h0l-.001.0006h0L1.0555.9549V.9521L1.0547.9505A.0578.0578,0,0,1,1.0253.9L1.0247.8981l-.0015,0A.2006.2006,0,0,1,.9679.8892C.9615.8873.9515.864.9505.8517L.95.8505A.03.03,0,0,1,.9486.8148l0-.0025-.0025,0L.9442.8146A.022.022,0,0,1,.9252.826L.9233.8275C.9216.838.9061.8508.9059.8509L.9054.8515A.0276.0276,0,0,0,.9027.8652L.908.873l.0006,0L.91.8762.9077.8751ZM.9118.8716.91.87.9063.8646A.0223.0223,0,0,1,.9085.8535.0609.0609,0,0,0,.9265.83.02.02,0,0,0,.9407.8239.0309.0309,0,0,0,.947.8527.0771.0771,0,0,0,.9626.89L.9615.89.9389.8964.9128.8789ZM.9056.8865.9061.8857V.8788L.91.8815.95.908.9605.9245.9406.9178ZM.903.9389A.0506.0506,0,0,1,.924.9078L.9384.9207l.0007,0L.9634.9293H.9641L.9658.9286V.9261L.9524.9057.9519.9051.9426.8989l.02-.0053L.9666.8925l0,0a.2229.2229,0,0,0,.0546.0088A.0485.0485,0,0,0,1.0326.934L1.0154.9449C1.0039.95.9992.9493.9981.9488l-.0023,0-.0078,0L.9822.954l0,.0031L.9785.969.9766.9745A.0332.0332,0,0,1,.968.9971l-.0015.0071a.0393.0393,0,0,0,.019.0179l.003.0017.0048.0006.0121.0016.0071.0106-.0075.002-.0037.0048L1,1.0422l-.0053-.003h0L.9931,1.0386a.0622.0622,0,0,0-.04-.019L.9475,1.0181l.0018-.0127A.0547.0547,0,0,0,.9521.9887L.9476.9833A.0633.0633,0,0,1,.9029.94ZM.8421.9929.85.9832A.0131.0131,0,0,0,.8566.9739L.8549.9681l0,0C.8489.9572.8481.935.8549.93c.004-.003.011,0,.0191.0036A.0523.0523,0,0,0,.8993.94v.001l.0018.007A.0278.0278,0,0,1,.8872.9449.0248.0248,0,0,0,.868.9429L.8649.9453C.8631.9487.8664.9524.87.9568s.0084.01.0076.0143l0,.002C.8772.9762.8769.9788.87.983L.8657.99.8665.9954.8655.9962V.9979l.0024.0129-.0062.0028a.01.01,0,0,0-.0082.0078l-.0008.0067v0L.8469,1.0214A.0272.0272,0,0,1,.84,1.0008Z"/><polygon points="0.881 0.866 0.884 0.871 0.886 0.867 0.881 0.866 0.881 0.866" fill="#8c8c8c"/><polygon points="0.96 0.925 0.95 0.908 0.91 0.881 0.906 0.879 0.906 0.88 0.906 0.886 0.906 0.887 0.941 0.918 0.96 0.925" fill="#8c8c8c"/><path d="M1.0914.9829a.1312.1312,0,0,1,.0179-.06V.9225a.1078.1078,0,0,0-.031.031c.0111.009.0127.0112.0116.0132L1.0856.9685h-.001L1.0758.9674Z" fill="#8c8c8c"/><path d="M.9764.7809.9912.7933h0L.9945.791.9966.7905h.001L1,.7893h0L.9965.786V.7835H.9991L1.002.7867h0L1.0037.7847,1.006.7837,1.01.7842l0-.003L1.0116.7733l0-.0007L1.0146.7688A.0433.0433,0,0,1,1,.7662.045.045,0,0,0,.9824.7636l0,.0019c.0014.0055.0013.0091,0,.0112ZM1.003.77l.0053,0L1.0106.772,1.0092.7753,1.0063.7764l-.0011,0L1.0027.7735Z" fill="#8c8c8c"/><path d="M.91.8762.9086.8734.908.873.9027.8652A.0276.0276,0,0,1,.9054.8515L.9059.8509S.9216.838.9233.8275L.9252.826A.022.022,0,0,0,.9442.8146L.9458.8126l.0025,0,0,.0025A.03.03,0,0,0,.95.8505L.9505.8517c.001.0123.011.0356.0174.0375a.2006.2006,0,0,0,.0553.0085l.0015,0L1.0253.9a.0578.0578,0,0,0,.0294.0508l.0007.0016V.9549l.0087.0044h0l.001-.0006h0L1.0672.96l.0076.004L1.0778.96,1.0791.9588,1.0684.95,1.055.9389l0,0a.1816.1816,0,0,1-.0173-.05A.0491.0491,0,0,0,1.0025.8728L1.0012.8723,1.0007.871l0-.01L.9912.8533A.0549.0549,0,0,1,.9738.8355L.9708.8232A.0351.0351,0,0,0,.9654.8052L.96.7983A.0306.0306,0,0,1,.9509.7845C.9449.7873.9377.7915.9373.7959L.9358.7976a.018.018,0,0,0-.0115.01L.9222.8092C.9186.8085.9135.8138.9069.825L.9061.8257C.8924.832.8914.8637.8914.864l0,.001L.8872.8734.8883.8772l.0015,0L.8905.8787.8923.8806H.8937L.8946.8819.8977.8835l.0014,0,0,0,.0032,0V.8805c0-.004,0-.0052.0007-.0061L.9077.8751Z" fill="#8c8c8c"/><polygon points="1.083 0.962 1.08 0.962 1.078 0.964 1.086 0.965 1.083 0.962" fill="#8c8c8c"/><path d="M.9428.7671l.0009,0a.0165.0165,0,0,0,.01.003L.9619.768l.0008,0L.9683.7666.98.7606.98.76a.0438.0438,0,0,1,.021.0025l.0137.0024L1.0122.7567A.0177.0177,0,0,0,.9986.7484C.991.7475.9849.7558.9848.7559L.9826.7565C.978.7544.9648.75.96.7539l-.0008,0L.9466.7557l-.007,0L.9358.76.9371.7643Z" fill="#8c8c8c"/><polygon points="1 0.801 0.995 0.799 0.997 0.801 1 0.803 1 0.801" fill="#8c8c8c"/><path d="M.9544.783.9623.796.9682.803a.0374.0374,0,0,1,.0061.02L.9769.8336A.05.05,0,0,0,.9933.85l.0105.0084,0-.0031,0-.0081L.9985.8437C.9914.8348.9957.8142.9958.8134L.9968.8122l0-.001,0,0L.991.8076.986.8036.9808.8l0-.0017L.982.797H.99A.1091.1091,0,0,1,.9721.7815C.9662.7767.957.7814.9544.783Z" fill="#8c8c8c"/><path d="M1.0045.84,1.0018.83Z" fill="#8c8c8c"/><polygon points="0.998 0.807 0.995 0.804 0.994 0.803 0.99 0.801 0.989 0.8 0.988 0.8 0.988 0.8 0.989 0.801 0.992 0.804 0.994 0.805 0.997 0.808 0.999 0.808 1 0.81 1 0.809 0.999 0.808 0.998 0.807" fill="#8c8c8c"/><path d="M1.0106.7918,1.0037.7977,1.0031.8209l.0054.02.004-.0014L1.01.8294A.0359.0359,0,0,1,1.0112.8019.1224.1224,0,0,1,1.0256.7765L1.0347.7611l-.0067,0-.017.03Z" fill="#8c8c8c"/><polygon points="1.013 0.846 1.009 0.847 1.008 0.856 1.013 0.848 1.013 0.846" fill="#8c8c8c"/><polygon points="1.005 0.776 1.006 0.776 1.009 0.775 1.011 0.772 1.008 0.77 1.003 0.77 1.003 0.773 1.005 0.776"/><polygon points="1.041 0.776 1.042 0.777 1.045 0.776 1.046 0.772 1.044 0.769 1.041 0.77 1.039 0.774 1.041 0.776"/><polygon points="1.14 0.943 1.137 0.944 1.134 0.948 1.136 0.95 1.138 0.951 1.14 0.95 1.142 0.946 1.14 0.943"/><path d="M1.0081,1.1173A.2153.2153,0,1,0,.7928.902.2155.2155,0,0,0,1.0081,1.1173Zm0-.4249a.21.21,0,1,1-.21.21A.21.21,0,0,1,1.0081.6924Z" fill="#666"/><polygon points="0.796 0.963 0.796 0.962 0.795 0.96 0.794 0.96 0.776 0.964 0.772 0.949 0.771 0.949 0.769 0.95 0.768 0.951 0.769 0.952 0.77 0.955 0.771 0.959 0.773 0.965 0.756 0.969 0.755 0.969 0.755 0.969 0.754 0.969 0.754 0.968 0.752 0.962 0.752 0.958 0.752 0.955 0.753 0.952 0.757 0.95 0.757 0.948 0.756 0.949 0.754 0.949 0.752 0.95 0.75 0.95 0.748 0.951 0.747 0.951 0.747 0.952 0.748 0.955 0.748 0.958 0.752 0.971 0.752 0.974 0.754 0.977 0.755 0.98 0.756 0.982 0.758 0.981 0.757 0.979 0.757 0.977 0.76 0.976 0.796 0.967 0.797 0.965 0.797 0.964 0.796 0.963"/><path d="M.7544.9154l.01.0021.01-.0013L.7819.9121.7867.9053.7885.8963.7872.8863.7828.8785.7753.8734.765.8714l-.01.0012L.748.8768.7433.8835.7415.8925l.0012.01L.747.91ZM.7446.8945.7467.8873.7518.8826.7588.88.7668.8794.7738.88.78.8831.7839.8877.7853.8942.7832.9014.778.9062.7709.9088.7629.9094.7559.9084.75.9056.746.9011Z"/><polygon points="0.753 0.835 0.754 0.834 0.757 0.834 0.794 0.846 0.795 0.845 0.795 0.844 0.795 0.843 0.796 0.842 0.796 0.84 0.795 0.839 0.757 0.826 0.756 0.825 0.757 0.823 0.759 0.819 0.761 0.816 0.765 0.814 0.769 0.815 0.773 0.817 0.775 0.82 0.776 0.825 0.775 0.83 0.777 0.83 0.779 0.826 0.78 0.824 0.783 0.822 0.786 0.822 0.796 0.823 0.799 0.822 0.802 0.822 0.803 0.82 0.804 0.818 0.804 0.817 0.805 0.816 0.805 0.814 0.805 0.813 0.803 0.812 0.803 0.814 0.802 0.815 0.8 0.815 0.797 0.815 0.787 0.815 0.784 0.816 0.782 0.817 0.78 0.818 0.779 0.82 0.778 0.82 0.778 0.816 0.776 0.812 0.774 0.809 0.77 0.807 0.766 0.807 0.762 0.808 0.76 0.81 0.757 0.813 0.755 0.817 0.754 0.82 0.752 0.829 0.75 0.836 0.752 0.837 0.753 0.835"/><polygon points="0.858 0.71 0.865 0.717 0.874 0.72 0.883 0.72 0.893 0.715 0.898 0.711 0.903 0.706 0.903 0.705 0.893 0.69 0.891 0.69 0.891 0.69 0.889 0.692 0.886 0.693 0.883 0.696 0.884 0.697 0.885 0.697 0.885 0.697 0.887 0.696 0.888 0.696 0.889 0.697 0.89 0.698 0.897 0.708 0.895 0.709 0.893 0.71 0.885 0.714 0.877 0.714 0.869 0.71 0.863 0.703 0.86 0.697 0.86 0.69 0.862 0.684 0.868 0.679 0.872 0.677 0.876 0.676 0.88 0.676 0.883 0.679 0.885 0.678 0.884 0.677 0.884 0.676 0.882 0.674 0.881 0.673 0.88 0.671 0.879 0.67 0.879 0.67 0.878 0.67 0.873 0.672 0.867 0.675 0.859 0.682 0.855 0.691 0.854 0.7 0.858 0.71"/><path d="M.9253.6964l.0007,0L.9279.696.9294.6954l0-.0006L.9311.6776.9473.6726.958.6866l.001,0,.001,0,.0014,0L.963.6855.9644.6849.965.6839l0,0L.9357.6457.9343.6452l-.0009,0L.9321.646.9306.6466.9293.6472.9287.6481l0,0L.93.65.9253.6962ZM.9329.6537.9453.67.9314.6741Z"/><path d="M.9963.6388H.9976L.9986.64.9992.6406l0,.0017L.999.68l0,.0006L1,.6811h.0064l.01,0H1.024L1.0259.68,1.0266.6775,1.0273.6744l0-.0027,0-.0014L1.026.67,1.0237.6745,1.0213.6769l-.0034.001h-.01l-.0008,0,0-.0008V.6752l0-.0385L1.0054.6355H1.0042l-.0025,0-.0033,0L.9944.6367l0,.0022Z"/><polygon points="1.067 0.689 1.077 0.692 1.084 0.694 1.086 0.694 1.088 0.691 1.089 0.689 1.091 0.686 1.091 0.685 1.089 0.684 1.086 0.688 1.083 0.689 1.079 0.689 1.074 0.688 1.071 0.687 1.069 0.686 1.069 0.686 1.069 0.685 1.069 0.684 1.08 0.647 1.079 0.645 1.078 0.645 1.076 0.644 1.072 0.644 1.068 0.643 1.068 0.645 1.069 0.646 1.071 0.646 1.071 0.647 1.072 0.648 1.071 0.65 1.061 0.686 1.061 0.687 1.061 0.687 1.067 0.689"/><path d="M1.1144.7082,1.1158.709h.0009l.0138-.01L1.1448.708,1.141.7252l0,.001.0008.0005.0013.0008.0016.0008L1.1465.729l.001,0,0-.0005.01-.0465,0-.0014L1.1566.68,1.1554.6792,1.1539.6785,1.1526.6778l-.001,0,0,0,0,.0023L1.1126.7063h0l0,.0007ZM1.15.6848l-.0045.02L1.1334.6968Z"/><polygon points="1.173 0.755 1.174 0.755 1.202 0.733 1.19 0.776 1.19 0.777 1.19 0.777 1.191 0.779 1.192 0.78 1.193 0.78 1.199 0.775 1.229 0.753 1.229 0.752 1.228 0.75 1.226 0.749 1.225 0.749 1.199 0.771 1.21 0.728 1.21 0.727 1.21 0.727 1.209 0.726 1.208 0.724 1.207 0.723 1.206 0.722 1.205 0.722 1.204 0.722 1.203 0.727 1.171 0.751 1.171 0.752 1.172 0.754 1.173 0.755"/><polygon points="1.246 0.798 1.249 0.799 1.251 0.801 1.252 0.805 1.254 0.81 1.215 0.824 1.214 0.825 1.215 0.826 1.215 0.827 1.216 0.828 1.217 0.83 1.218 0.83 1.256 0.816 1.258 0.821 1.259 0.825 1.259 0.828 1.258 0.83 1.254 0.833 1.255 0.835 1.255 0.835 1.257 0.834 1.259 0.833 1.261 0.832 1.263 0.832 1.264 0.831 1.265 0.83 1.262 0.824 1.26 0.818 1.256 0.806 1.254 0.8 1.252 0.794 1.251 0.794 1.249 0.794 1.247 0.794 1.245 0.795 1.243 0.796 1.242 0.796 1.241 0.797 1.241 0.798 1.246 0.798"/><polygon points="1.228 0.88 1.228 0.88 1.228 0.882 1.228 0.883 1.228 0.885 1.229 0.886 1.27 0.884 1.271 0.885 1.271 0.887 1.271 0.891 1.269 0.895 1.267 0.898 1.263 0.899 1.258 0.898 1.255 0.896 1.253 0.892 1.252 0.887 1.249 0.887 1.249 0.891 1.249 0.894 1.247 0.897 1.244 0.898 1.234 0.901 1.231 0.902 1.23 0.904 1.229 0.906 1.229 0.908 1.229 0.909 1.229 0.91 1.229 0.912 1.229 0.914 1.231 0.914 1.232 0.912 1.232 0.91 1.234 0.909 1.237 0.908 1.245 0.905 1.248 0.903 1.25 0.901 1.251 0.899 1.252 0.897 1.252 0.897 1.254 0.901 1.256 0.904 1.26 0.906 1.264 0.906 1.268 0.905 1.271 0.903 1.273 0.9 1.274 0.896 1.275 0.892 1.275 0.888 1.274 0.88 1.272 0.872 1.27 0.872 1.27 0.874 1.27 0.876 1.267 0.877 1.229 0.879 1.228 0.88"/><polygon points="1.268 0.95 1.267 0.951 1.266 0.953 1.263 0.954 1.242 0.959 1.223 0.954 1.222 0.955 1.222 0.956 1.221 0.957 1.221 0.959 1.221 0.96 1.222 0.961 1.241 0.967 1.26 0.986 1.26 0.986 1.261 0.986 1.261 0.986 1.261 0.985 1.262 0.984 1.262 0.983 1.262 0.981 1.262 0.981 1.261 0.98 1.245 0.966 1.267 0.96 1.268 0.96 1.269 0.959 1.269 0.958 1.269 0.956 1.27 0.953 1.27 0.95 1.268 0.949 1.268 0.95"/><path d="M1.0081,1.1825A.28.28,0,1,0,.7277.902.2808.2808,0,0,0,1.0081,1.1825Zm0-.5553A.2748.2748,0,1,1,.7334.902.2751.2751,0,0,1,1.0081.6272Z" fill="#666"/><polygon points="1.028 1.141 1.01 1.141 1.01 1.123 1.004 1.117 0.999 1.123 0.999 1.141 0.981 1.141 0.975 1.147 0.981 1.152 0.999 1.152 0.999 1.17 1.004 1.176 1.01 1.17 1.01 1.152 1.028 1.152 1.034 1.147 1.028 1.141"/><circle cx="0.9008" cy="1.1245" r="0.0114"/><circle cx="1.1076" cy="1.1245" r="0.0114"/><path d="M.8081.702A.07.07,0,0,0,.8245.6075L.8171.6018A.0753.0753,0,0,0,.73.6239a.0733.0733,0,0,0-.02.09L.7136.7183A.07.07,0,0,0,.8081.702ZM.773.7029.7167.6713.7219.666.75.6818.77.6942h0L.7581.6734.7427.6452.7479.64l.03.0576ZM.8165.66.7725.6154.7774.6106l.044.044Z" fill="#8c8c8c"/><path d="M.7427.6452.7581.6734.77.6941h0L.75.6818.7219.666.7167.6713.773.7029.7784.6976.7479.64Z" fill="#d6d6d6"/><rect x="0.7935" y="0.6039" width="0.0069" height="0.0623" transform="translate(-0.2157 0.7484) rotate(-44.935)" fill="#d6d6d6"/><path d="M.73,1.18a.0794.0794,0,0,0,.0812.0251l.0133-.0087a.07.07,0,0,0-.0164-.0945.07.07,0,0,0-.0945-.0164l-.0053.0068A.0749.0749,0,0,0,.73,1.18Zm.0791-.0431-.0317.0564L.7721,1.1882l.0158-.0275L.8,1.14h0L.78,1.1521l-.0282.0154L.7461,1.1623l.0576-.0305ZM.7607,1.0888l.0049.0049-.0441.044L.7167,1.1328Z" fill="#8c8c8c"/><path d="M.7513,1.1675.78,1.1521.8,1.14h0l-.0124.02-.0158.0275.0053.0053.0317-.0564L.8037,1.1318l-.0576.0305Z" fill="#d6d6d6"/><rect x="0.71" y="1.1098" width="0.0623" height="0.0069" transform="translate(-0.5701 0.8501) rotate(-45)" fill="#d6d6d6"/><path d="M1.2082,1.1021a.07.07,0,0,0-.0164.0945l.0125.0083a.0906.0906,0,0,0,.1068-.1067l-.0084-.0125A.07.07,0,0,0,1.2082,1.1021Zm.0351-.001L1.3,1.1328l-.0053.0053-.0275-.0158-.02-.0124h0l.012.0207.0154.0281-.0052.0052-.03-.0575ZM1.2,1.1446l.044.044-.0049.0049-.044-.044Z" fill="#8c8c8c"/><path d="M1.2736,1.1588l-.0154-.0281L1.2462,1.11h0l.02.0124.0275.0158L1.3,1.1328l-.0563-.0317-.0054.0054.03.0575Z" fill="#d6d6d6"/><rect x="1.2159" y="1.1379" width="0.0069" height="0.0622" transform="translate(-0.4695 1.2046) rotate(-45)" fill="#d6d6d6"/><path d="M1.2082.702a.07.07,0,0,0,.0945.0163A.0416.0416,0,0,0,1.3142.695.0857.0857,0,0,0,1.2863.6239.0743.0743,0,0,0,1.1978.6027l-.006.0048A.07.07,0,0,0,1.2082.702ZM1.2072.6669,1.2389.6106l.0053.0052L1.2284.6434,1.216.6639h0L1.2368.6519,1.2649.6366,1.27.6418l-.0576.03Zm.0484.0484L1.2507.71l.044-.044L1.3.6713Z" fill="#8c8c8c"/><path d="M1.2649.6366,1.2368.6519,1.2161.664h0L1.2284.6434,1.2442.6158,1.2389.6106,1.2072.6669l.0054.0054L1.27.6418Z" fill="#d6d6d6"/><rect x="1.244" y="0.6874" width="0.0622" height="0.0069" transform="translate(-0.115 1.104) rotate(-45)" fill="#d6d6d6"/></svg>