<svg xmlns="http://www.w3.org/2000/svg" viewBox="0 0 7.9818 5.1882"><rect width="7.9818" height="5.1882" fill="#f7e017"/><polygon points="0 2.678 7.982 4.835 7.982 3.732 0 1.575 0 2.678"/><polygon points="0 1.575 7.982 3.732 7.982 2.51 0 0.354 0 1.575" fill="#fff"/><circle cx="3.6389" cy="3.4512" r="0.0087" fill="#f7e017"/><path d="M3.2166,3.3365c-.0041-.0081-.0031-.0212-.0172-.02a.0173.0173,0,0,0-.0156.0137.0227.0227,0,0,0,.0087.0263c.0243.0158.0429.04.0643.0557.0237.0176.0231.0283.0159.05l-.0022.007a.01.01,0,0,0,.016.01.075.075,0,0,1,.0707-.0134.1.1,0,0,0,.1-.0416l.0167-.022a.01.01,0,0,1,.015.0121c-.02.0266-.0438.05-.063.0765-.0215.03-.0139.0481.0221.0576a.0837.0837,0,0,0,.0553-.0113.01.01,0,0,1,.013.0067l.0059.0242.001.0026a.0665.0665,0,0,0,.0815.0345c.0334-.0077.06-.023.0589-.0632-.0005-.0136.009-.0366-.0067-.0386-.0226-.0028-.0143.0228-.0187.0364l-.0028.0145a.0481.0481,0,0,1-.0673.0244c-.0276-.0117-.0281-.03-.0135-.0534l.0021-.003a.01.01,0,0,0-.0124-.014l-.02.01h0c-.0005-.0092.0037-.0214-.0106-.0235s-.0193.0079-.024.0186c-.0079.0179-.0206.0191-.036.01-.0182-.0109-.0093-.0227,0-.0333.0231-.0272.0471-.0536.07-.0808.0066-.0078.0209-.0146.0149-.0262-.0041-.0078-.0126-.0069-.021-.0061a.01.01,0,0,1-.0106-.0081c-.0029-.02-.0135-.0206-.03-.0031-.0191.0207-.0364.0433-.0557.0639a.0453.0453,0,0,1-.049.0165.01.01,0,0,1-.0039-.0161l.0067-.0067c.0069-.0093.0244-.0166.0167-.0292s-.0258-.0118-.04-.0058-.0313.0144-.0473.0207c-.0078.003-.0175.0062-.0229-.0034-.0042-.0074.0014-.0144.0062-.02.0187-.0213.038-.042.0564-.0635.0057-.0065.0217-.0117.0124-.0222s-.0237-.0049-.0322.0054c-.0118.0141-.02.0311-.033.0441A.0432.0432,0,0,1,3.2166,3.3365Zm.1332.0721.0131.002c-.0094.01-.0178.018-.0239.01S3.3438,3.4105,3.35,3.4086Zm-.0285.02.0058.012L3.32,3.4463l-.0054-.0037Z" fill="#f7e017"/><path d="M3.6686,3.6008c.04.0352.0011.0413-.0189.05a.1727.1727,0,0,1-.1356-.0119c-.0084-.003-.02-.0129-.0259-.0008s.003.0205.0123.0268a.0918.0918,0,0,0,.0233.01.1731.1731,0,0,0,.1931-.046.0484.0484,0,0,1,.08.0079.02.02,0,0,0,.0171.0115c.0493-.0022.0947.0229.1439.02a.3219.3219,0,0,1,.11.0064.1073.1073,0,0,0,.0748-.0129c.0336-.0157.0535-.0523.0905-.0648l0-.0056c-.0307-.008-.0613-.0167-.0924-.0226-.0155-.0029-.0372.0017-.0372.0206,0,.0166.02.0059.0307.0077l.0179.0033c.0085.0027.0169.0076.0182.0166.0017.011-.01.0128-.0166.0164a.0964.0964,0,0,1-.0911.0111.1148.1148,0,0,0-.0679-.01c-.0462.0195-.0877-.0144-.1313-.0022-.0134.0037-.0354,0-.0323-.0194.0058-.0368-.015-.0254-.0322-.0213-.0284.0067-.049.0033-.05-.0323-.0007-.0145-.0075-.0281-.0233-.0289-.0233-.0012-.0377.0156-.0508.0321C3.6654,3.575,3.6569,3.5905,3.6686,3.6008Zm.0432-.037c.0063,0,.01.0047.01.0135a.0107.0107,0,0,1-.0111.0094.01.01,0,0,1-.0122-.01A.0113.0113,0,0,1,3.7118,3.5638Z" fill="#f7e017"/><path d="M4.4206,3.8241a.0087.0087,0,0,0,0-.0173.0087.0087,0,1,0,0,.0173Z" fill="#f7e017"/><path d="M3.8926,4.0483a.0478.0478,0,0,0,.0144-.03c.0056-.0312.01-.0626.0137-.0942.0011-.0107.0133-.03-.009-.0309-.0152-.0006-.0258.0126-.0229.0309a.4249.4249,0,0,1-.0044.12A.005.005,0,0,0,3.8926,4.0483Z" fill="#f7e017"/><path d="M3.8024,3.53a.0087.0087,0,1,0,0-.0173.0087.0087,0,0,0,0,.0173Z" fill="#f7e017"/><path d="M3.1845,3.2814c.0187-.012.0146-.029.0115-.0462-.0019-.01-.01-.0237.003-.03.0207-.01.038.0031.0539.0145.0129.0093.0264.02.0156.0395-.0044.0079-.018.0163-.0074.0246.0129.01.0218-.005.03-.0124A.0256.0256,0,0,0,3.2952,3.23.1421.1421,0,0,0,3.23,3.1843c-.053-.0159-.0688-.0032-.0629.05.001.0093.0053.0206-.0056.0266s-.0187-.0026-.0263-.0084a.1261.1261,0,0,1-.0489-.1133.0655.0655,0,0,1,.05-.0643.0053.0053,0,0,0-.0016-.01.0688.0688,0,0,0-.0753.0544.139.139,0,0,0,.0771.1589A.0443.0443,0,0,0,3.1845,3.2814Z" fill="#f7e017"/><path d="M4.7536,3.1205a.4941.4941,0,0,1,.0853.0863c.013.0153.0235.0126.0368.0007a.28.28,0,0,0,.0428-.0489c.0273-.0394.0283-.0418.0289-.0459a.084.084,0,0,0-.0214-.0582.2787.2787,0,0,0-.0823-.0759c-.0064-.0055-.0156-.0182-.0241-.0073a.0224.0224,0,0,0,.0068.0324l.0193.0107a.2246.2246,0,0,1,.0783.0814c.0051.01.0071.0222-.0039.03s-.0184-.0023-.0253-.0084l-.038-.0355a.0115.0115,0,0,0-.0179.0139h0c.01.0166.023.0318.033.0486a.0274.0274,0,0,1-.0109.041c-.0171.01-.0205-.0068-.0269-.0158a.4291.4291,0,0,0-.0611-.0687c-.0069-.0063-.0147-.0217-.0261-.01A.02.02,0,0,0,4.7536,3.1205Z" fill="#f7e017"/><path d="M3.34,3.8232c.03-.02.0385-.0551.0562-.0839.005-.008.0232-.02.0025-.0283-.0139-.0056-.0262.0044-.0292.02a.408.408,0,0,1-.0325.09Z" fill="#f7e017"/><path d="M4.85,2.9585a.636.636,0,0,1,.0678.053l.0018.0017.0054.0073a.008.008,0,0,0,.0124-.01L4.93,3.0032l-.0016-.0016a.45.45,0,0,0-.0772-.079.0081.0081,0,0,0-.0128.0047A.0248.0248,0,0,0,4.85,2.9585Z" fill="#f7e017"/><path d="M3.4291,3.5552a.0087.0087,0,0,0,0,.0173.0087.0087,0,1,0,0-.0173Z" fill="#f7e017"/><path d="M4.4182,3.5791l.0035.0143c.0027,0,.0065-.0106.0083-.0169.0055-.02,0-.0279.0061-.035s.0149-.0071.0281-.0059c.0621.006.09-.0238.0913-.0865,0-.0091-.0049-.0219.01-.023a.0764.0764,0,0,1,.0532.0106c.0134.01.0037.0271.0006.0413a.1724.1724,0,0,1-.0536.0865c-.009.009-.0232.0144-.0245.03h0a.01.01,0,0,0,.0142.0009A.1475.1475,0,0,0,4.64,3.4624c0-.0538.0025-.0555.0549-.06.0241-.0022.0423-.0125.04-.038a.0488.0488,0,0,1,.033-.0512A.0681.0681,0,0,0,4.81,3.2378c-.0014-.0108-.0015-.0261-.0158-.0245s-.0129.016-.0091.0268c.0106.03-.0046.0462-.0309.0509a.1135.1135,0,0,0-.0925.0749c-.0053.0134-.0132.0223-.031.0112-.0491-.03-.0549-.0278-.0824.025h0c-.0129-.0055-.0176-.0339-.0363-.0185-.0148.0121-.0037.0294.0047.0434a.1212.1212,0,0,1,.0105.0194.0429.0429,0,0,1-.0489.06c-.0166-.0033-.0235-.027-.0252-.0316l-.007-.0153c-.005-.0005-.0076.0159-.0188.0181L4.42,3.4767c-.0084-.0034-.0077-.0144-.01-.0225-.0032-.01.0007-.03-.0173-.0251a.0252.0252,0,0,0-.0116.0376A.2421.2421,0,0,1,4.4182,3.5791Zm.29-.2294c.0066,0,.0114.0039.011.0139a.0163.0163,0,0,1-.0128.0151.0115.0115,0,0,1-.0133-.01A.0153.0153,0,0,1,4.7083,3.35Zm-.11.0316c.0094.0009.0163.0053.0161.0154A.0119.0119,0,0,1,4.6,3.409a.0176.0176,0,0,1-.0168-.0158C4.5831,3.3847,4.59,3.3817,4.5981,3.3813Z" fill="#f7e017"/><path d="M4.2079,3.6483a.0072.0072,0,0,0-.012.0041c-.0043.0216-.0024.0356.0278.0334.0114-.0008.0221,0,.0246.0155s.0081.029.0281.0271a.0394.0394,0,0,0,.04-.027.0415.0415,0,0,1,.0287-.03c.0457-.016.057-.0353.0517-.0837a.6959.6959,0,0,0-.0343-.1243c-.0034-.0111-.0028-.0262-.0162-.0309-.0074-.0025-.0118.0072-.0167.0125-.0124.0135.0006.0219.006.032a.2751.2751,0,0,1,.0382.1333c0,.027-.0125.0406-.0418.0373a.1229.1229,0,0,0-.0761.001C4.24,3.657,4.2233,3.6628,4.2079,3.6483Zm.07.022c.0136-.0006.0189.0086.02.02a.0134.0134,0,0,1-.0109.0154.0227.0227,0,0,1-.0214-.0214A.0119.0119,0,0,1,4.2781,3.67Z" fill="#f7e017"/><path d="M4.4665,3.3876a.0087.0087,0,1,0-.0087-.0086A.0087.0087,0,0,0,4.4665,3.3876Z" fill="#f7e017"/><path d="M4.7024,3.1837A.0837.0837,0,0,1,4.7133,3.2c.0067.0117.01.0176.0137.0178s.0044-.0022.0142-.0178a.2969.2969,0,0,0,.0169-.0359.0067.0067,0,0,0-.0043-.01.0147.0147,0,0,0-.0146.0034c-.0061.0054-.0128.0107-.0183.0034-.0043-.0056.0021-.01.0088-.013a.0154.0154,0,0,0,.0087-.0114c.0018-.0142-.012-.0136-.0231-.0115-.02.0037-.0332.04-.0177.0537Z" fill="#f7e017"/><path d="M4.4838,3.7719a.0087.0087,0,1,0-.0087-.0087A.0086.0086,0,0,0,4.4838,3.7719Z" fill="#f7e017"/><path d="M4.1164,3.9338c-.0118.0023-.0172.014-.021.024-.0073.0189.0124.017.0206.0236a.0536.0536,0,0,1,.0224.0478c-.0021.0225-.0223.0191-.037.0216a.0322.0322,0,0,0-.03.0283.0092.0092,0,0,0,.0127.01l.032-.0136a.0709.0709,0,0,0,.0316-.12C4.14,3.9452,4.1327,3.9307,4.1164,3.9338Z" fill="#f7e017"/><circle cx="4.8275" cy="3.7106" r="0.0087" fill="#f7e017"/><path d="M4.5264,3.8894c-.0384-.0071-.0361-.0317-.0331-.06.0012-.011.0029-.03-.0122-.03-.018,0-.0223.0185-.0175.0338a.05.05,0,0,1-.0188.0585l-.007.0067a.0109.0109,0,0,0,.0135.0164h0c.0156-.0085.0315-.0181.0448.0026s-.0021.0319-.0154.043a.2026.2026,0,0,1-.075.0384c-.0313.009-.0506.01-.0616.0017s-.0011-.03-.0119-.0585l-.0039-.0054c-.01-.0026-.04.04-.0288.0655.0087.02.0387.0224.0538.0239a.1729.1729,0,0,0,.1757-.1083C4.5329,3.9073,4.5416,3.8922,4.5264,3.8894Z" fill="#f7e017"/><path d="M4.0252,3.8951c-.0159.0021-.0238.0159-.0163.0337a.2052.2052,0,0,1,.0082.0832.2433.2433,0,0,0,0,.0382.0078.0078,0,0,0,.0144.0024A.0665.0665,0,0,0,4.0358,4.03a.4791.4791,0,0,0,.0012-.11C4.0364,3.911,4.0412,3.893,4.0252,3.8951Z" fill="#f7e017"/><path d="M4.7036,3.71c-.0023-.0191-.0049-.04-.032-.0425a.0371.0371,0,0,0-.0435.0308.0681.0681,0,0,0,.0089.07c.0046.0048.0111.0033.0173.0015.0089-.0025.0195-.0109.0269-.0008s.0007.0212-.004.0311a.27.27,0,0,1-.0714.0884.2477.2477,0,0,0-.0316.0254.0073.0073,0,0,0,.0065.012.0754.0754,0,0,0,.0327-.0152A.197.197,0,0,0,4.7036,3.71Zm-.0455.03c-.01-.0009-.0128-.0133-.0127-.0233s.0032-.0172.0137-.0182c.0131-.0011.0161.0078.0165.0194C4.6744,3.7284,4.6713,3.7411,4.6581,3.74Z" fill="#f7e017"/><path d="M4.4477,4.0212a.0087.0087,0,1,0,.0087.0086A.0086.0086,0,0,0,4.4477,4.0212Z" fill="#f7e017"/><path d="M4.4033,4.0385a.0087.0087,0,1,0,.0086.0087A.0087.0087,0,0,0,4.4033,4.0385Z" fill="#f7e017"/><path d="M4.8271,3.6344a.152.152,0,0,1-.0474.0312.05.05,0,0,0-.0364.0562.1733.1733,0,0,1-.0383.12c-.0041.0048-.01.0093-.0116.0168a.0077.0077,0,0,0,.01.0083A.0656.0656,0,0,0,4.73,3.8463a.1426.1426,0,0,0,.035-.1091.0463.0463,0,0,1,.029-.0517.0767.0767,0,0,0,.0455-.0429A.0078.0078,0,0,0,4.8271,3.6344Z" fill="#f7e017"/><path d="M3.97,3.9915a.0265.0265,0,0,0-.0171.03c.0078.0421-.0182.0529-.0519.0595s-.07,0-.106.0049a.0047.0047,0,0,0-.0018.0087.1754.1754,0,0,0,.1008.0077.0931.0931,0,0,0,.0907-.0776c.0028-.0106.0087-.0212.0017-.0318C3.9817,3.9862,3.9752,3.9886,3.97,3.9915Z" fill="#f7e017"/><path d="M3.2912,3.7334c.0067-.01.0151-.0213.0054-.0337a.0427.0427,0,0,0-.0439-.0123l-.0189.0088c-.0559.03-.0731.0267-.1119-.0232A.0706.0706,0,0,0,3.08,3.641c-.0065,0-.0114.0006-.0135.0062s.0027.0089.0064.0118c.0057.0045.0146.0073.0173.0131A.1054.1054,0,0,0,3.2,3.7375a.0173.0173,0,0,1,.0194.0178c.0016.0322.0188.02.0343.0124A.0982.0982,0,0,0,3.2912,3.7334Zm-.0451-.0042a.0123.0123,0,0,1,.0025-.0108l.0093-.0037c.0065,0,.0076.0051.0077.01l-.0019.0078c0,.0006-.0043.0069-.01.0061S3.2462,3.73,3.2461,3.7292Z" fill="#f7e017"/><path d="M3.819,3.9909c.0045-.0267.0087-.0534.0123-.08.0012-.0089.0069-.022-.0066-.0248s-.0191.0086-.0242.0189a.0448.0448,0,0,0,.0009.0287.1254.1254,0,0,1-.01.0721c-.01.0222-.04.0267-.0453.007-.01-.0383-.03-.0265-.0518-.0171-.0111.0048-.0257.0128-.03-.0054-.0058-.0249-.0215-.0223-.0395-.02-.0115.0015-.0275.0078-.0317-.0085-.0058-.0223-.022-.0188-.0374-.0205a.3349.3349,0,0,1-.1155-.02c-.0368-.0182-.0429-.0339-.026-.07a.4564.4564,0,0,1,.0465-.0877.0052.0052,0,0,0-.0043-.0083c-.0272.0008-.0424.0106-.0432.0393a.0766.0766,0,0,1-.047.0731c-.0289.0116-.05-.0118-.07-.03l-.0211-.0206c-.0059-.0051-.0115-.0159-.0211-.0079-.0076.0064-.004.016-.0011.0241a.0706.0706,0,0,0,.0432.0378c.0233.01.055.0123.07.0293a.2023.2023,0,0,0,.1505.057c.04.0031.0627.0459.1048.0383L3.6263,4c.0017.0366.0274.0229.046.0211.0148-.0014.0312-.0071.0409.0072a.0494.0494,0,0,0,.0644.0188A.0632.0632,0,0,0,3.819,3.9909Z" fill="#f7e017"/><path d="M2.4472,2.7306l.01.0126a.1862.1862,0,0,1,.0391.1143v.35a.0489.0489,0,0,0,.0261.0435.2426.2426,0,0,0,.13.0269.24.24,0,0,0,.0911-.0261.05.05,0,0,0,.027-.0444l-.0048-.5155a.1678.1678,0,0,0-.0575-.1249c-.0245-.0212-.0288-.0177-.0542-.0375a.57.57,0,0,1-.1017-.1128.1049.1049,0,0,0-.0455-.0419c-.0129-.005-.0389-.0113-.0475-.0006-.0133.0166.03.056.0616.1349.0243.0608.0346.1274.0216.1331-.01.0044-.0232-.0326-.0721-.0675s-.0681-.0216-.0936-.0508c-.0293-.0335-.007-.0547-.0382-.1121-.0248-.0455-.0458-.045-.0551-.0832-.0083-.0338.0061-.0425-.0016-.0794-.0091-.0439-.04-.0839-.0542-.08s-.0107.05-.0074.1012a.6809.6809,0,0,0,.0394.2162.3764.3764,0,0,0,.0749.14C2.3712,2.6654,2.4022,2.6768,2.4472,2.7306Z" fill="#c30725"/><path d="M2.4343,2.3394c.0009.0047.0051.0235.0123.024.0049,0,.0067-.0079.0178-.0123l.0124-.0031c.0074-.0052.0031-.0226-.0007-.0388a.2579.2579,0,0,0-.024-.0813c-.006-.01-.0153-.0249-.0246-.0234s-.0119.0139-.0123.0154c-.0066.0218.014.0311.0184.0629C2.4367,2.3047,2.4284,2.3108,2.4343,2.3394Z" fill="#c30725"/><path d="M2.3,2.3259c.0056.01.0084.0067.0221.0231a.181.181,0,0,1,.0268.0434c.0312.0669.02.0874.0457.1132a.3886.3886,0,0,0,.0551.0346.3129.3129,0,0,1,.0471.03c.0192.0159.0262.0277.0295.0259.0048-.0027,0-.0313-.0175-.0545-.0241-.0326-.0482-.0225-.073-.0527-.0179-.0217-.0042-.0254-.0305-.0739a.6088.6088,0,0,0-.04-.0619l-.0121-.0161c-.0179-.03-.0051-.0528-.011-.0874-.0069-.04-.0353-.0751-.0472-.0721-.0091.0023-.01.0271-.01.0287-.0006.0175.0064.0239.0111.0406C2.3066,2.2842,2.2849,2.3006,2.3,2.3259Z" fill="#c30725"/><path d="M2.3662,2.3222c.009.0225.0126.0122.037.0536a.24.24,0,0,1,.0351.072.0452.0452,0,0,0,.0111.0287c.0068.0065.012.0051.0231.0111.0191.01.0258.027.0277.0258s0-.0066-.0231-.0526c-.0125-.0246-.0233-.0446-.0287-.0545-.0287-.0533-.0277-.05-.0286-.0527-.0194-.05.0057-.07-.0139-.1118-.014-.03-.0421-.0519-.0508-.0471-.0044.0024-.0028.011,0,.036A.41.41,0,0,0,2.3662,2.3222Z" fill="#c30725"/><path d="M2.4754,3.26c-.0061.0069-.0027.0208-.002.0237a.0565.0565,0,0,0,.03.0334.2732.2732,0,0,0,.1268.0345.2855.2855,0,0,0,.122-.0345.0543.0543,0,0,0,.03-.0314c.0007-.0028.0038-.015-.0013-.0213-.0146-.018-.0744.04-.1515.04S2.4916,3.2415,2.4754,3.26Z" fill="#c30725"/><path d="M2.4516,3.331c-.0071.0068-.0031.0208-.0023.0237a.0615.0615,0,0,0,.0351.0334.3669.3669,0,0,0,.1489.0345.3824.3824,0,0,0,.1432-.0345.059.059,0,0,0,.0347-.0314c.0009-.0029.0045-.015-.0015-.0213-.0172-.018-.0873.04-.1779.04C2.54,3.3742,2.4707,3.3126,2.4516,3.331Z" fill="#c30725"/><path d="M2.8426,3.4353c.001-.0028.0053-.0149-.0017-.0212-.02-.0181-.1026.04-.2088.0395-.1082-.0007-.1891-.0624-.2114-.044-.0084.0069-.0037.0209-.0028.0237a.0681.0681,0,0,0,.0412.0335.4972.4972,0,0,0,.1748.0344.5171.5171,0,0,0,.168-.0344C2.8184,3.46,2.8372,3.4507,2.8426,3.4353Z" fill="#c30725"/><path d="M5.754,2.1692c-.014-.0042-.0451.0358-.0543.08-.0077.0369.0067.0456-.0015.0794-.0093.0382-.03.0377-.0552.0832-.0312.0574-.0089.0786-.0381.1121-.0255.0292-.0454.0164-.0937.0508s-.062.0719-.0721.0675c-.013-.0057-.0027-.0723.0216-.1331.0316-.0789.0749-.1183.0616-.1349-.0086-.0107-.0346-.0044-.0474.0006a.1046.1046,0,0,0-.0456.0419.57.57,0,0,1-.1017.1128c-.0254.02-.03.0163-.0542.0375a.1681.1681,0,0,0-.0575.1249l-.0047.5155a.0494.0494,0,0,0,.027.0444.2385.2385,0,0,0,.091.0261.2421.2421,0,0,0,.13-.0269.0489.0489,0,0,0,.0261-.0435v-.35a.1862.1862,0,0,1,.0391-.1143l.01-.0126c.045-.0538.076-.0652.1124-.1044a.3764.3764,0,0,0,.0749-.14A.6781.6781,0,0,0,5.7613,2.27C5.7646,2.2191,5.7675,2.1732,5.754,2.1692Z" fill="#c30725"/><path d="M5.5051,2.348l.0123.0031c.0111.0044.013.0127.0178.0123.0073-.0005.0114-.0193.0124-.024.0059-.0286-.0025-.0347.0006-.0566.0044-.0318.025-.0411.0185-.0629,0-.0015-.0045-.0141-.0124-.0154s-.0186.0135-.0246.0234a.2608.2608,0,0,0-.024.0813C5.5019,2.3254,5.4977,2.3428,5.5051,2.348Z" fill="#c30725"/><path d="M5.6287,2.3366l-.0121.0161a.5841.5841,0,0,0-.04.0619c-.0263.0485-.0126.0522-.0305.0739-.0248.03-.0489.02-.073.0527-.0171.0232-.0223.0518-.0175.0545.0033.0018.01-.01.0295-.0259a.31.31,0,0,1,.0472-.03.3913.3913,0,0,0,.055-.0346c.0256-.0258.0145-.0463.0457-.1132A.1843.1843,0,0,1,5.66,2.349c.0137-.0164.0166-.0135.0222-.0231.0147-.0253-.007-.0417.0037-.0795.0047-.0167.0116-.0231.011-.0406,0-.0016-.001-.0264-.01-.0287-.0119-.003-.04.0318-.0471.0721C5.6338,2.2838,5.6465,2.3066,5.6287,2.3366Z" fill="#c30725"/><path d="M5.562,2.3536c-.0009.0025,0-.0006-.0286.0527-.0054.01-.0162.03-.0287.0545-.0233.046-.0241.052-.023.0526s.0085-.0154.0277-.0258c.011-.006.0162-.0046.0231-.0111a.0452.0452,0,0,0,.0111-.0287.2354.2354,0,0,1,.0351-.072c.0243-.0414.028-.0311.0369-.0536a.41.41,0,0,0,.0111-.0915c.0028-.025.0044-.0336,0-.036-.0087-.0048-.0368.0174-.0508.0471C5.5564,2.2833,5.5814,2.3036,5.562,2.3536Z" fill="#c30725"/><path d="M5.23,3.317a.2855.2855,0,0,0,.122.0345.2737.2737,0,0,0,.1269-.0345.0566.0566,0,0,0,.03-.0334c.0007-.0029.0041-.0168-.0019-.0237-.0163-.0184-.075.0433-.1535.044s-.1369-.0576-.1516-.04c-.0051.0063-.002.0185-.0013.0213A.0546.0546,0,0,0,5.23,3.317Z" fill="#c30725"/><path d="M5.2053,3.3881a.3824.3824,0,0,0,.1432.0345.3669.3669,0,0,0,.1489-.0345.0615.0615,0,0,0,.0351-.0334c.0008-.0029.0048-.0169-.0023-.0237-.019-.0184-.088.0432-.18.044-.09.0007-.1607-.0576-.1779-.04-.006.0063-.0024.0184-.0015.0213A.059.059,0,0,0,5.2053,3.3881Z" fill="#c30725"/><path d="M5.5612,3.41c-.0224-.0184-.1032.0433-.2115.044-.1062.0008-.1886-.0576-.2087-.0395-.007.0063-.0028.0184-.0018.0212.0054.0154.0242.0248.0408.0315a.5171.5171,0,0,0,.168.0344.4964.4964,0,0,0,.1747-.0344.0681.0681,0,0,0,.0412-.0335C5.5648,3.4305,5.57,3.4165,5.5612,3.41Z" fill="#c30725"/><path d="M3.9724,3.8221a1.1254,1.1254,0,0,0,.86-.4312,1.0273,1.0273,0,0,0,.064-1.1162.7269.7269,0,0,0-.1084-.1281.9688.9688,0,0,1,.0074.786.8853.8853,0,0,1-1.6238-.0049.9724.9724,0,0,1-.0074-.7564.7618.7618,0,0,0-.1133.1527,1.0274,1.0274,0,0,0,.0936,1.0546A1.1284,1.1284,0,0,0,3.9724,3.8221Zm-.5433-.25a.0087.0087,0,1,1,.0087-.0087A.0087.0087,0,0,1,3.4291,3.5725Zm1.4091-.6452a.0081.0081,0,0,1,.0128-.0047.45.45,0,0,1,.0772.079l.0016.0016.0079.0071a.008.008,0,0,1-.0124.01L4.92,3.0132l-.0018-.0017a.636.636,0,0,0-.0678-.053A.0248.0248,0,0,1,4.8382,2.9273Zm-.0912.1642c.0114-.0122.0192.0032.0261.01a.4291.4291,0,0,1,.0611.0687c.0064.009.01.0261.0269.0158a.0274.0274,0,0,0,.0109-.041c-.01-.0168-.0226-.032-.033-.0486h0a.0115.0115,0,0,1,.0179-.0139l.038.0355c.0069.0061.0144.0161.0253.0084s.009-.02.0039-.03a.2246.2246,0,0,0-.0783-.0814l-.0193-.0107A.0224.0224,0,0,1,4.82,2.9713c.0085-.0109.0177.0018.0241.0073a.2787.2787,0,0,1,.0823.0759.084.084,0,0,1,.0214.0582c-.0006.0041-.0016.0065-.0289.0459a.28.28,0,0,1-.0428.0489c-.0133.0119-.0238.0146-.0368-.0007a.4941.4941,0,0,0-.0853-.0863A.02.02,0,0,1,4.747,3.0915Zm-.0317.0336c.0111-.0021.0249-.0027.0231.0115A.0154.0154,0,0,1,4.73,3.148c-.0067.0032-.0131.0074-.0088.013.0055.0073.0122.002.0183-.0034a.0147.0147,0,0,1,.0146-.0034.0067.0067,0,0,1,.0043.01A.2969.2969,0,0,1,4.7412,3.2c-.01.0156-.0115.0179-.0142.0178S4.72,3.2119,4.7133,3.2a.0837.0837,0,0,0-.0109-.0165l-.0048-.0049C4.6821,3.1649,4.6952,3.1288,4.7153,3.1251ZM4.4665,3.37a.0087.0087,0,1,1-.0087.0087A.0087.0087,0,0,1,4.4665,3.37Zm-.074.0588c.018-.0054.0141.0149.0173.0251.0026.0081.0019.0191.01.0225l.0069.0006c.0112-.0022.0138-.0186.0188-.0181l.007.0153c.0017.0046.0086.0283.0252.0316a.0429.0429,0,0,0,.0489-.06.1212.1212,0,0,0-.0105-.0194c-.0084-.014-.0195-.0313-.0047-.0434.0187-.0154.0234.013.0363.0185h0c.0275-.0528.0333-.0552.0824-.025.0178.0111.0257.0022.031-.0112a.1135.1135,0,0,1,.0925-.0749c.0263-.0047.0415-.0209.0309-.0509-.0038-.0108-.0051-.0252.0091-.0268s.0144.0137.0158.0245a.0681.0681,0,0,1-.0411.0751.0488.0488,0,0,0-.033.0512c.0018.0255-.0164.0358-.04.038-.0524.0048-.0544.0065-.0549.06a.1475.1475,0,0,1-.0845.1326.01.01,0,0,1-.0142-.0009h0c.0013-.0152.0155-.0206.0245-.03A.1724.1724,0,0,0,4.62,3.478c.0031-.0142.0128-.0308-.0006-.0413a.0764.0764,0,0,0-.0532-.0106c-.0152.0011-.01.0139-.01.023-.0016.0627-.0292.0925-.0913.0865-.0132-.0012-.0228-.0007-.0281.0059s-.0006.0153-.0061.035c-.0018.0063-.0056.0172-.0083.0169l-.0035-.0143a.2421.2421,0,0,0-.0373-.1124A.0252.0252,0,0,1,4.3925,3.4291Zm-.0607.2184c.0293.0033.0415-.01.0418-.0373a.2751.2751,0,0,0-.0382-.1333c-.0054-.01-.0184-.0185-.006-.032.0049-.0053.0093-.015.0167-.0125.0134.0047.0128.02.0162.0309a.6959.6959,0,0,1,.0343.1243c.0053.0484-.006.0677-.0517.0837a.0415.0415,0,0,0-.0287.03.0394.0394,0,0,1-.04.027c-.02.0019-.0256-.0117-.0281-.0271s-.0132-.0163-.0246-.0155c-.03.0022-.0321-.0118-.0278-.0334a.0072.0072,0,0,1,.012-.0041c.0154.0145.0316.0087.0478,0A.1229.1229,0,0,1,4.3318,3.6475Zm-.5294-.1348a.0087.0087,0,1,1-.0086.0086A.0086.0086,0,0,1,3.8024,3.5127Zm-.0776.0192c.0158.0008.0226.0144.0233.0289.0015.0356.0221.039.05.0323.0172-.0041.038-.0155.0322.0213-.0031.02.0189.0231.0323.0194.0436-.0122.0851.0217.1313.0022a.1148.1148,0,0,1,.0679.01.0964.0964,0,0,0,.0911-.0111c.0071-.0036.0183-.0054.0166-.0164-.0013-.009-.01-.0139-.0182-.0166l-.0179-.0033c-.0109-.0018-.0306.0089-.0307-.0077,0-.0189.0217-.0235.0372-.0206.0311.0059.0617.0146.0924.0226l0,.0056c-.037.0125-.0569.0491-.0905.0648a.1073.1073,0,0,1-.0748.0129.3219.3219,0,0,0-.11-.0064c-.0492.0028-.0946-.0223-.1439-.02a.02.02,0,0,1-.0171-.0115.0484.0484,0,0,0-.08-.0079.1731.1731,0,0,1-.1931.046.0918.0918,0,0,1-.0233-.01c-.0093-.0063-.0182-.0158-.0123-.0268s.0175-.0022.0259.0008a.1727.1727,0,0,0,.1356.0119c.02-.0092.0586-.0153.0189-.05-.0117-.01-.0032-.0258.0054-.0368C3.6871,3.5475,3.7015,3.5307,3.7248,3.5319Zm-.0859-.0894a.0087.0087,0,1,1-.0087.0087A.0087.0087,0,0,1,3.6389,3.4425Zm-.2821-.1436c.0093.01-.0067.0157-.0124.0222-.0184.0215-.0377.0422-.0564.0635-.0048.0054-.01.0124-.0062.02.0054.01.0151.0064.0229.0034.016-.0063.0314-.014.0473-.0207s.032-.0079.04.0058-.01.02-.0167.0292l-.0067.0067a.01.01,0,0,0,.0039.0161.0453.0453,0,0,0,.049-.0165c.0193-.0206.0366-.0432.0557-.0639.0161-.0175.0267-.0168.03.0031a.01.01,0,0,0,.0106.0081c.0084-.0008.0169-.0017.021.0061.006.0116-.0083.0184-.0149.0262-.0231.0272-.0471.0536-.07.0808-.0091.0106-.018.0224,0,.0333.0154.0093.0281.0081.036-.01.0047-.0107.0106-.0206.024-.0186s.01.0143.0106.0235h0l.02-.01a.01.01,0,0,1,.0124.014l-.0021.003c-.0146.0229-.0141.0417.0135.0534a.0481.0481,0,0,0,.0673-.0244l.0028-.0145c.0044-.0136-.0039-.0392.0187-.0364.0157.002.0062.025.0067.0386.0015.04-.0255.0555-.0589.0632A.0665.0665,0,0,1,3.523,3.57L3.522,3.567l-.0059-.0242a.01.01,0,0,0-.013-.0067.0837.0837,0,0,1-.0553.0113c-.036-.01-.0436-.0275-.0221-.0576.0192-.0268.0435-.05.063-.0765a.01.01,0,0,0-.015-.0121l-.0167.022a.1.1,0,0,1-.1.0416.075.075,0,0,0-.0707.0134.01.01,0,0,1-.016-.01l.0022-.007c.0072-.0212.0078-.0319-.0159-.05-.0214-.0161-.04-.04-.0643-.0557A.0227.0227,0,0,1,3.1838,3.33a.0173.0173,0,0,1,.0156-.0137c.0141-.0012.0131.0119.0172.02a.0432.0432,0,0,0,.075.0119c.0127-.013.0212-.03.033-.0441C3.3331,3.294,3.3472,3.2881,3.3568,3.2989Zm-.2979-.18a.0688.0688,0,0,1,.0753-.0544.0053.0053,0,0,1,.0016.01.0655.0655,0,0,0-.05.0643.1261.1261,0,0,0,.0489.1133c.0076.0058.0158.0141.0263.0084s.0066-.0173.0056-.0266c-.0059-.0534.01-.0661.0629-.05a.1421.1421,0,0,1,.0655.0459.0256.0256,0,0,1-.0036.0413c-.0087.0074-.0176.0224-.03.0124-.0106-.0083.003-.0167.0074-.0246.0108-.02-.0027-.03-.0156-.0395-.0159-.0114-.0332-.0247-.0539-.0145-.0128.0062-.0049.02-.003.03.0031.0172.0072.0342-.0115.0462a.0443.0443,0,0,1-.0485-.0032A.139.139,0,0,1,3.0589,3.1193Z" fill="#c30725"/><path d="M3.32,3.4463l.0069-.0055-.0058-.012-.0065.0138Z" fill="#c30725"/><path d="M4.6,3.409a.0119.0119,0,0,0,.0141-.0123c0-.01-.0067-.0145-.0161-.0154-.0079,0-.015.0034-.0148.0119A.0176.0176,0,0,0,4.6,3.409Z" fill="#c30725"/><path d="M3.3629,3.4106,3.35,3.4086c-.006.0019-.0174.004-.0108.0123S3.3535,3.421,3.3629,3.4106Z" fill="#c30725"/><path d="M4.2873,3.7061a.0134.0134,0,0,0,.0109-.0154c-.0012-.0118-.0065-.021-.02-.02a.0119.0119,0,0,0-.0122.0144A.0227.0227,0,0,0,4.2873,3.7061Z" fill="#c30725"/><path d="M4.7065,3.3787a.0163.0163,0,0,0,.0128-.0151c0-.01-.0044-.0143-.011-.0139a.0153.0153,0,0,0-.0151.0186A.0115.0115,0,0,0,4.7065,3.3787Z" fill="#c30725"/><path d="M3.7112,3.5867a.0107.0107,0,0,0,.0111-.0094c0-.0088-.0042-.0131-.01-.0135a.0113.0113,0,0,0-.0128.0132A.01.01,0,0,0,3.7112,3.5867Z" fill="#c30725"/><path d="M3.2637,3.7326l.0019-.0078c0-.005-.0012-.01-.0077-.01l-.0093.0037a.0123.0123,0,0,0-.0025.0108s.0018.0086.0077.01S3.2634,3.7332,3.2637,3.7326Z" fill="#c30725"/><path d="M4.6591,3.6985c-.01.001-.0136.0093-.0137.0182s.0024.0224.0127.0233c.0132.0011.0163-.0116.0175-.0221C4.6752,3.7063,4.6722,3.6974,4.6591,3.6985Z" fill="#c30725"/><path d="M5.1225,3.8579a.1314.1314,0,0,0,.0206-.11A.1589.1589,0,0,0,4.93,3.7008a.1375.1375,0,0,0,.0314-.1183.1251.1251,0,0,0-.0831-.0905c-.0781-.021-.1653.0721-.1995.1055a1.0819,1.0819,0,0,1-.7436.2641,1.2124,1.2124,0,0,1-.6758-.305c-.02-.0215-.0825-.0924-.15-.0819a.1289.1289,0,0,0-.0936.0887.146.146,0,0,0,.0437.1522.2045.2045,0,0,0-.1546-.0191.1027.1027,0,0,0-.0708.0523.0992.0992,0,0,0,.0277.1017.1116.1116,0,0,0-.1035.0591.1035.1035,0,0,0-.006.0691.3491.3491,0,0,1,.3-.0055.9561.9561,0,0,0,.19.1175c.0629.025.0915.0235.1133.0123A.1314.1314,0,0,0,3.4124,4a1.113,1.113,0,0,0,1.176-.0231.1111.1111,0,0,0,.0173.0911c.0388.0461.1142.0276.1287.0241.0505-.0124.06-.0383.12-.08a.3949.3949,0,0,1,.19-.0776.29.29,0,0,1,.1854.0573.1079.1079,0,0,0-.0047-.07A.1158.1158,0,0,0,5.1225,3.8579Zm-.6387-.1033a.0087.0087,0,0,1,0,.0173.0087.0087,0,1,1,0-.0173Zm-.0632.0522a.0087.0087,0,1,1-.0087.0087A.0086.0086,0,0,1,4.4206,3.8068Zm-.5318.117c-.0029-.0183.0077-.0315.0229-.0309.0223.0009.01.02.009.0309-.0033.0316-.0081.063-.0137.0942a.0478.0478,0,0,1-.0144.03.005.005,0,0,1-.0082-.0044A.4249.4249,0,0,0,3.8888,3.9238Zm-.5515-.1031a.408.408,0,0,0,.0325-.09c.003-.0155.0153-.0255.0292-.02.0207.0083.0025.02-.0025.0283-.0177.0288-.0266.0637-.0562.0839Zm-.1184-.0654A.0173.0173,0,0,0,3.2,3.7375.1054.1054,0,0,1,3.09,3.6721c-.0027-.0058-.0116-.0086-.0173-.0131-.0037-.0029-.0086-.0056-.0064-.0118s.007-.0061.0135-.0062a.0706.0706,0,0,1,.0417.032c.0388.05.056.0534.1119.0232l.0189-.0088A.0427.0427,0,0,1,3.2966,3.7c.01.0124.0013.0237-.0054.0337a.0982.0982,0,0,1-.038.0343C3.2377,3.7754,3.2205,3.7875,3.2189,3.7553Zm.4943.2728c-.01-.0143-.0261-.0086-.0409-.0072-.0186.0018-.0443.0155-.046-.0211l-.0046-.0051c-.0421.0076-.0649-.0352-.1048-.0383a.2023.2023,0,0,1-.1505-.057c-.0151-.017-.0468-.0188-.07-.0293a.0706.0706,0,0,1-.0432-.0378c-.0029-.0081-.0065-.0177.0011-.0241.01-.008.0152.0028.0211.0079l.0211.0206c.02.0185.0414.0419.07.03a.0766.0766,0,0,0,.047-.0731c.0008-.0287.016-.0385.0432-.0393a.0052.0052,0,0,1,.0043.0083.4564.4564,0,0,0-.0465.0877c-.0169.0364-.0108.0521.026.07a.3349.3349,0,0,0,.1155.02c.0154.0017.0316-.0018.0374.0205.0042.0163.02.01.0317.0085.018-.0023.0337-.0049.0395.02.0043.0182.0189.01.03.0054.0222-.0094.0422-.0212.0518.0171.0049.02.0355.0152.0453-.007a.1254.1254,0,0,0,.01-.0721.0448.0448,0,0,1-.0009-.0287c.0051-.01.012-.0215.0242-.0189s.0078.0159.0066.0248c-.0036.0267-.0078.0534-.0123.08a.0632.0632,0,0,1-.0414.056A.0494.0494,0,0,1,3.7132,4.0281Zm.271-.0038a.0931.0931,0,0,1-.0907.0776.1754.1754,0,0,1-.1008-.0077.0047.0047,0,0,1,.0018-.0087c.0356-.0048.0709.0019.106-.0049s.06-.0174.0519-.0595a.0265.0265,0,0,1,.0171-.03c.0057-.0029.0122-.0053.0164.001C3.9929,4.0031,3.987,4.0137,3.9842,4.0243Zm.0516.0055a.0665.0665,0,0,1-.0045.0228A.0078.0078,0,0,1,4.0169,4.05a.2433.2433,0,0,1,0-.0382.2052.2052,0,0,0-.0082-.0832c-.0075-.0178,0-.0316.0163-.0337s.0112.0159.0118.025A.4791.4791,0,0,1,4.0358,4.03Zm.08.0459-.032.0136a.0092.0092,0,0,1-.0127-.01.0322.0322,0,0,1,.03-.0283c.0147-.0025.0349.0009.037-.0216a.0536.0536,0,0,0-.0224-.0478c-.0082-.0066-.0279-.0047-.0206-.0236.0038-.01.0092-.0217.021-.024.0163-.0031.0231.0114.0311.0216A.0709.0709,0,0,1,4.1159,4.0757Zm.2874-.02a.0087.0087,0,1,1,.0086-.0086A.0087.0087,0,0,1,4.4033,4.0558Zm.0444-.0173A.0087.0087,0,1,1,4.4564,4.03.0087.0087,0,0,1,4.4477,4.0385Zm.0814-.1212a.1729.1729,0,0,1-.1757.1083c-.0151-.0015-.0451-.0044-.0538-.0239-.0116-.0257.019-.0681.0288-.0655l.0039.0054c.0108.0287.0017.05.0119.0585s.03.0073.0616-.0017a.2026.2026,0,0,0,.075-.0384c.0133-.0111.0285-.0227.0154-.043s-.0292-.0111-.0448-.0026h0a.0109.0109,0,0,1-.0135-.0164l.007-.0067a.05.05,0,0,0,.0188-.0585c-.0048-.0153,0-.0336.0175-.0338.0151,0,.0134.0191.0122.03-.003.0285-.0053.0531.0331.06C4.5416,3.8922,4.5329,3.9073,4.5291,3.9173Zm.0843-.0066a.0754.0754,0,0,1-.0327.0152.0073.0073,0,0,1-.0065-.012.2477.2477,0,0,1,.0316-.0254A.27.27,0,0,0,4.6772,3.8c.0047-.01.0115-.0212.004-.0311s-.018-.0017-.0269.0008c-.0062.0018-.0127.0033-.0173-.0015a.0681.0681,0,0,1-.0089-.07.0371.0371,0,0,1,.0435-.0308c.0271.0024.03.0234.032.0425A.197.197,0,0,1,4.6134,3.9107Zm.2141-.1914a.0087.0087,0,1,1,.0087-.0087A.0087.0087,0,0,1,4.8275,3.7193Zm.0119-.0767a.0767.0767,0,0,1-.0455.0429.0463.0463,0,0,0-.029.0517.1426.1426,0,0,1-.035.1091.0656.0656,0,0,1-.0264.0206.0077.0077,0,0,1-.01-.0083c.0012-.0075.0075-.012.0116-.0168a.1733.1733,0,0,0,.0383-.12A.05.05,0,0,1,4.78,3.6656a.152.152,0,0,0,.0474-.0312A.0078.0078,0,0,1,4.8394,3.6426Z" fill="#c30725"/><path d="M3.74,3.2677a.2569.2569,0,0,0,.0936.1331.2985.2985,0,0,0,.2908.0185.2685.2685,0,0,0,.1219-.1466c-.0094.004-.0238.01-.0419.016-.0267.0089-.0276.0069-.04.0119-.0338.0134-.0365.0312-.07.0481a.1535.1535,0,0,1-.0438.0141l.0022-.0214a.2.2,0,0,0,.0009-.0429.1311.1311,0,0,0-.0323-.056c-.01-.0127-.0185-.0226-.0246-.0291a.3288.3288,0,0,0-.0265.0285.142.142,0,0,0-.0321.0514.11.11,0,0,0-.0037.0444.1071.1071,0,0,0,.0059.0237A.1142.1142,0,0,1,3.888,3.346c-.0256-.0155-.0258-.0312-.0524-.0448a.3631.3631,0,0,0-.0481-.014A.3469.3469,0,0,1,3.74,3.2677Z" fill="#c30725"/><path d="M3.88,3.3127a.1248.1248,0,0,0,.0259.0176A.156.156,0,0,1,3.92,3.273.28.28,0,0,1,3.95,3.23c.0341-.0454.04-.05.0469-.0492s.01.0042.032.0345a.3664.3664,0,0,1,.04.06.14.14,0,0,1,.0084.0592A.1366.1366,0,0,0,4.1,3.3173a.1851.1851,0,0,0,.0527-.12c.0126-.1245-.0826-.1764-.064-.2815a.194.194,0,0,1,.048-.0942.0372.0372,0,0,0-.0186-.0081c-.0377-.0041-.0685.0615-.0837.0549-.0093-.0041.0011-.03-.0148-.0561a.0743.0743,0,0,0-.0264-.0255.0715.0715,0,0,0-.0235.0218c-.0173.0264-.0067.0531-.0166.0573-.0141.006-.0374-.0472-.0807-.0495a.0564.0564,0,0,0-.0185.0021.2181.2181,0,0,1,.0438.1179c.0033.0877-.0591.1108-.0656.2209A.1956.1956,0,0,0,3.88,3.3127Z" fill="#c30725"/><path d="M3.9669,2.4023c-.0107.0065-.04-.0468-.085-.0481a.0633.0633,0,0,0-.0271.0056.2018.2018,0,0,1,.0728.1444c0,.0527-.03.0639-.0451.1531-.0072.0434-.0167.1062.02.1412a.0852.0852,0,0,0,.04.0208l.01-.0189a.1526.1526,0,0,1,.02-.0292c.01-.01.0147-.0158.0216-.0157s.0118.0068.0234.02a.1124.1124,0,0,1,.0209.03l.0062.0188a.0679.0679,0,0,0,.0329-.0106c.0406-.027.0371-.0964.0348-.1311-.0062-.0976-.0453-.1162-.042-.182a.21.21,0,0,1,.0617-.1315.0581.0581,0,0,0-.0314-.01c-.04,0-.07.0507-.08.0442-.0066-.0041.0057-.0244-.0045-.0453a.0509.0509,0,0,0-.0227-.0219.0483.0483,0,0,0-.02.0188C3.9608,2.3758,3.9739,2.398,3.9669,2.4023Z" fill="#c30725"/><path d="M3.8763,1.6711l.0616-.069L4,1.66l.06-.06.0653.0764L4.18,1.6088l.0869.0672a.53.53,0,0,1-.0493-.1134.5369.5369,0,0,1-.0222-.1269.3822.3822,0,0,1-.3905.0062.6583.6583,0,0,1-.0647.23l.0785-.07Z" fill="#c30725"/><path d="M3.1888,2.0505a.2259.2259,0,0,0,.1-.0049.4608.4608,0,0,0,.085-.032c.0294-.0133.0311-.0162.0653-.0315.0621-.0277.08-.0287.0883-.0211.0008.0008.0049.0047.0041.0088-.0018.0094-.0278.0116-.0351.0123a.6148.6148,0,0,0-.1374.0567.8138.8138,0,0,1-.1262.04.1087.1087,0,0,0,.0468.0554.13.13,0,0,0,.1016.0006c.0621-.0186.0614-.0461.1374-.0819.0489-.0231.1076-.0392.1136-.0283l-.0009.008c-.0051.0114-.0251.0128-.0326.0135a.317.317,0,0,0-.0826.0308.47.47,0,0,0-.07.0425c-.0259.0175-.047.0335-.0622.0456a.1217.1217,0,0,0,.0684.0468.1437.1437,0,0,0,.101-.0228.5012.5012,0,0,0,.0727-.0567.364.364,0,0,1,.109-.0665c.0024.003-.0137.0193-.0179.0234a.6267.6267,0,0,1-.0788.0555c-.0141.0108-.01.01-.0357.0314-.0227.0192-.042.0337-.0549.0431a.0791.0791,0,0,0,.03.0431c.0452.0293.1215-.0076.1627-.0388s.05-.0594.1225-.1164L3.8861,2.09l-.0191.0333c-.02.0348-.0271.0444-.0258.0591a.0385.0385,0,0,0,.0141.0284c.0073.0045.0183.0035.04.0012l.0228-.0031A.1133.1133,0,0,0,3.9,2.2526a.0988.0988,0,0,0,.0086.0677.0954.0954,0,0,0,.0456.0407.0767.0767,0,0,1,.0215-.0376l.0144-.01.01-.0024.0095.0024.0144.01a.077.077,0,0,1,.0216.0376A.0958.0958,0,0,0,4.09,2.32a.099.099,0,0,0,.0087-.0677.1148.1148,0,0,0-.0185-.0438l.0228.0031c.0217.0023.0328.0033.04-.0012a.0383.0383,0,0,0,.0142-.0284c.0012-.0147-.0056-.0243-.0259-.0591L4.1126,2.09l.0228.0173c.0726.057.081.0849.1226.1164s.1175.0681.1626.0388a.0786.0786,0,0,0,.03-.0431c-.0129-.0094-.0322-.0239-.0548-.0431-.0257-.0218-.0217-.0206-.0358-.0314a.6341.6341,0,0,1-.0788-.0555c-.0041-.0041-.02-.02-.0179-.0234a.3651.3651,0,0,1,.1091.0665.4958.4958,0,0,0,.0727.0567.1436.1436,0,0,0,.101.0228.1221.1221,0,0,0,.0684-.0468c-.0153-.0121-.0363-.0281-.0623-.0456a.4648.4648,0,0,0-.07-.0425A.3181.3181,0,0,0,4.4,2.0462c-.0076-.0007-.0275-.0021-.0327-.0135l-.0008-.008c.006-.0109.0646.0052.1135.0283.0761.0358.0753.0633.1374.0819a.13.13,0,0,0,.1017-.0006.1092.1092,0,0,0,.0468-.0554.8192.8192,0,0,1-.1263-.04.6129.6129,0,0,0-.1374-.0567c-.0073-.0007-.0333-.0029-.0351-.0123-.0008-.0041.0033-.008.0041-.0088.0083-.0076.0263-.0066.0883.0211.0342.0153.0359.0182.0653.0315a.4608.4608,0,0,0,.085.032.2259.2259,0,0,0,.1.0049c.082-.02.1182-.1166.1232-.1306a.4652.4652,0,0,1-.1946.01.5233.5233,0,0,1-.1873-.0739c-.061-.0361-.0521-.044-.1-.0715a.3744.3744,0,0,0-.2932-.0456.3075.3075,0,0,0-.1269.0814V1.6587l-.0319.0224-.032-.0224V1.82a.3063.3063,0,0,0-.1269-.0814.3745.3745,0,0,0-.2932.0456c-.0476.0275-.0388.0354-.1.0715A.5219.5219,0,0,1,3.26,1.93a.4658.4658,0,0,1-.1947-.01C3.0706,1.9339,3.1068,2.0308,3.1888,2.0505Z" fill="#c30725"/><path d="M3.9761,1.0748v.3523h.05V1.262l.1627.0752-.09-.1171.1183-.0418-.1922-.1035c.0092-.0031.0294-.0108.03-.021,0-.0118-.0269-.023-.05-.0228s-.0482.0107-.0485.0236C3.9565,1.0566,3.9569,1.065,3.9761,1.0748Z" fill="#c30725"/><path d="M3.98,1.48c.109.005.2166-.0407.2134-.0637-.0015-.0117-.0325-.0236-.1554-.0259l.0005.0474H3.966l0-.0474c-.1271.0057-.1536.0194-.1549.03C3.809,1.4423,3.8953,1.4765,3.98,1.48Z" fill="#c30725"/></svg>