<svg xmlns="http://www.w3.org/2000/svg" viewBox="0 0 7.9819 5.1882"><rect width="7.9819" height="5.1882" fill="#e7072c"/><path d="M4.944,2.5175a.9538.9538,0,0,0-.0232-.1465l0-.0017a.9444.9444,0,0,0-.0459-.141l-.0007-.0017a.9572.9572,0,0,0-.0676-.1318l-.001-.0016a.9609.9609,0,0,0-.0873-.12l-.0013-.0014a.9584.9584,0,0,0-.1048-.1046L4.61,1.8663a.963.963,0,0,0-.12-.0873l-.0015-.0009a.9485.9485,0,0,0-.1321-.0674L4.3553,1.71a.9592.9592,0,0,0-.141-.0457l-.0018,0a.9523.9523,0,0,0-.1464-.0229l-.0018,0c-.0242-.0018-.0487-.0031-.0734-.0031s-.05.0013-.0749.0032l-.0017,0a.9538.9538,0,0,0-.1465.0232l-.0017,0a.9444.9444,0,0,0-.141.0459l-.0017.0007a.9473.9473,0,0,0-.1319.0676L3.49,1.78a.9609.9609,0,0,0-.12.0873l-.0014.0013a.9664.9664,0,0,0-.1046.1047l-.0013.0015a.963.963,0,0,0-.0873.12l-.001.0015a.959.959,0,0,0-.0673.1321L3.1068,2.23a.9592.9592,0,0,0-.0457.141l0,.0018a.9523.9523,0,0,0-.0229.1464l0,.0018c-.0018.0242-.0031.0486-.0031.0733s.0013.05.0032.0749l0,.0018a.9558.9558,0,0,0,.0232.1465l0,.0017a.9444.9444,0,0,0,.0459.141l.0007.0017a.9462.9462,0,0,0,.0676.1318l.001.0016a.9609.9609,0,0,0,.0873.12l.0013.0014a.9664.9664,0,0,0,.1047.1046l.0015.0013a.963.963,0,0,0,.12.0873l.0015.0009a.9485.9485,0,0,0,.1321.0674l.0017.0007a.9592.9592,0,0,0,.141.0457l.0018,0a.9523.9523,0,0,0,.1464.0229l.0018,0c.0242.0018.0486.0031.0733.0031s.05-.0013.0749-.0033h.0018a.9558.9558,0,0,0,.1465-.0232l.0017,0a.9444.9444,0,0,0,.141-.0459l.0017-.0007A.9572.9572,0,0,0,4.49,3.4094l.0016-.001a.9673.9673,0,0,0,.1195-.0873L4.6129,3.32a.9584.9584,0,0,0,.1046-.1048l.0013-.0014a.963.963,0,0,0,.0873-.12l.0009-.0015A.9485.9485,0,0,0,4.8744,2.96l.0007-.0017a.9592.9592,0,0,0,.0457-.141l0-.0018a.9523.9523,0,0,0,.0229-.1464l0-.0018c.0018-.0242.0031-.0486.0031-.0734s-.0013-.05-.0033-.0749Zm-.32-.4578a1.23,1.23,0,0,0-.36.0918c-.0178-.0134-.0359-.0265-.0544-.039a1.2285,1.2285,0,0,1,.3843-.0905C4.604,2.0343,4.6139,2.0468,4.6235,2.06Zm-.1009-.1121.0289.0279a1.2987,1.2987,0,0,0-.4074.0956l-.0263-.0153-.0306-.0166A1.3082,1.3082,0,0,1,4.5226,1.9476Zm-.3486.2466q-.03.0159-.0605.0344c-.0185-.0141-.037-.0273-.0556-.04q.03-.0182.06-.0337l.0426.0293Zm-.64-.3082a.7855.7855,0,0,1,.9153.0024,1.3551,1.3551,0,0,0-.4582.1054,1.355,1.355,0,0,0-.46-.1057Zm.457.2609c-.02-.0117-.04-.0227-.06-.0329q.03-.0171.06-.032c.02.01.04.0206.06.032Q4.0216,2.1293,3.9915,2.1469Zm.0553.1256q-.0279.02-.0553.0417-.0276-.022-.0553-.0417c.0183-.0145.0368-.028.0553-.0409Q4.0192,2.251,4.0468,2.2725ZM3.459,1.9473a1.3066,1.3066,0,0,1,.4369.0918l-.0312.017L3.839,2.071A1.3,1.3,0,0,0,3.43,1.9752Zm.4661.2414c-.0186.0126-.0372.0258-.0557.04q-.03-.0185-.06-.0344l.0126-.01q.0216-.0154.0432-.03Q3.8948,2.1707,3.9251,2.1887Zm-.5369-.167a1.2247,1.2247,0,0,1,.3854.0908q-.0276.0188-.0543.0389a1.2353,1.2353,0,0,0-.3608-.0921C3.368,2.0465,3.3779,2.0339,3.3882,2.0217Zm-.1365.7743A.7852.7852,0,0,1,3.33,2.1009a1.1666,1.1666,0,0,1,.3342.0946,1.3564,1.3564,0,0,0-.2475.2764A1.4621,1.4621,0,0,0,3.2517,2.796Zm.0742.1505A1.3107,1.3107,0,0,1,3.7511,2.24q.03.017.06.0363a1.2937,1.2937,0,0,0-.4211.7572A.7864.7864,0,0,1,3.3259,2.9465Zm.2953-.0987a1.2819,1.2819,0,0,0-.0674.3328.7734.7734,0,0,1-.0656-.0492,1.2127,1.2127,0,0,1,.3884-.8085q.0271.0208.0539.0441A1.1669,1.1669,0,0,0,3.6212,2.8478Zm.37.4658a.782.782,0,0,1-.3244-.07,1.197,1.197,0,0,1,.3249-.8187,1.1978,1.1978,0,0,1,.3247.8184A.7821.7821,0,0,1,3.9909,3.3136ZM4.4288,3.18a1.2856,1.2856,0,0,0-.0675-.3327,1.1649,1.1649,0,0,0-.309-.48q.0269-.0234.054-.0442a1.2133,1.2133,0,0,1,.3881.808A.8079.8079,0,0,1,4.4288,3.18Zm.1641-.1475a1.2934,1.2934,0,0,0-.4207-.7565q.03-.0195.06-.0363a1.31,1.31,0,0,1,.4247.7057A.8023.8023,0,0,1,4.5929,3.0327Zm.1377-.2378a1.47,1.47,0,0,0-.1646-.3233,1.3615,1.3615,0,0,0-.2472-.2761,1.168,1.168,0,0,1,.3333-.0943.7849.7849,0,0,1,.0785.6937Z" fill="none"/><path d="M4.2318,2.24q-.03.0168-.06.0363a1.2934,1.2934,0,0,1,.4207.7565.8023.8023,0,0,0,.0636-.0871A1.31,1.31,0,0,0,4.2318,2.24Z" fill="#ff0"/><path d="M3.9305,2.367q-.0267-.0232-.0539-.0441a1.2127,1.2127,0,0,0-.3884.8085.7734.7734,0,0,0,.0656.0492,1.2819,1.2819,0,0,1,.0674-.3328A1.1669,1.1669,0,0,1,3.9305,2.367Z" fill="#ff0"/><path d="M4.1063,2.3229q-.0272.0208-.054.0442a1.1649,1.1649,0,0,1,.309.48,1.2856,1.2856,0,0,1,.0675.3327.8079.8079,0,0,0,.0656-.0493A1.2133,1.2133,0,0,0,4.1063,2.3229Z" fill="#ff0"/><path d="M3.6665,3.2433a.7839.7839,0,0,0,.65,0,1.1978,1.1978,0,0,0-.3247-.8184A1.197,1.197,0,0,0,3.6665,3.2433Z" fill="#ff0"/><path d="M4.45,1.8884a.7855.7855,0,0,0-.9153-.0024l-.0028.0021a1.355,1.355,0,0,1,.46.1057A1.3551,1.3551,0,0,1,4.45,1.8884Z" fill="#ff0"/><path d="M4.1178,2.0558l.0263.0153a1.2987,1.2987,0,0,1,.4074-.0956l-.0289-.0279a1.3082,1.3082,0,0,0-.4354.0916Z" fill="#ff0"/><path d="M4.3188,2.1955a1.3615,1.3615,0,0,1,.2472.2761,1.47,1.47,0,0,1,.1646.3233.7849.7849,0,0,0-.0785-.6937A1.168,1.168,0,0,0,4.3188,2.1955Z" fill="#ff0"/><path d="M3.8107,2.2761q-.03-.0194-.06-.0363a1.3107,1.3107,0,0,0-.4252.7067.7864.7864,0,0,0,.0637.0868A1.2937,1.2937,0,0,1,3.8107,2.2761Z" fill="#ff0"/><path d="M4.2638,2.1515a1.23,1.23,0,0,1,.36-.0918c-.01-.0129-.0195-.0254-.03-.0377a1.2285,1.2285,0,0,0-.3843.0905C4.2279,2.125,4.246,2.1381,4.2638,2.1515Z" fill="#ff0"/><path d="M3.9362,2.2725q.0277.02.0553.0417.0275-.022.0553-.0417-.0276-.0216-.0553-.0409C3.973,2.2445,3.9545,2.258,3.9362,2.2725Z" fill="#ff0"/><path d="M3.7736,2.1125a1.2247,1.2247,0,0,0-.3854-.0908c-.01.0122-.02.0248-.03.0376a1.2353,1.2353,0,0,1,.3608.0921Q3.746,2.1313,3.7736,2.1125Z" fill="#ff0"/><path d="M3.8216,2.1847l-.0126.01q.03.0159.06.0344c.0185-.0141.0371-.0273.0557-.04q-.03-.018-.06-.0336Q3.8432,2.1692,3.8216,2.1847Z" fill="#ff0"/><path d="M4.0579,2.1888c.0186.0125.0371.0257.0556.04q.03-.0185.0605-.0344l-.0131-.01-.0426-.0293Q4.0882,2.1707,4.0579,2.1888Z" fill="#ff0"/><path d="M3.9916,2.082q-.03.0149-.06.032c.02.01.04.0212.06.0329q.03-.0175.06-.0329C4.0314,2.1026,4.0114,2.0919,3.9916,2.082Z" fill="#ff0"/><path d="M3.8647,2.0561l.0312-.017a1.3066,1.3066,0,0,0-.4369-.0918L3.43,1.9752a1.3,1.3,0,0,1,.4087.0958Z" fill="#ff0"/><path d="M3.6641,2.1955A1.1666,1.1666,0,0,0,3.33,2.1009a.7852.7852,0,0,0-.0782.6951,1.4621,1.4621,0,0,1,.1649-.3241A1.3564,1.3564,0,0,1,3.6641,2.1955Z" fill="#ff0"/><path d="M5.2622,2.6591a.7533.7533,0,0,0,.2027.0039.2083.2083,0,0,0,.0738-.0275.2014.2014,0,0,0,.0472-.04.39.39,0,0,1-.0954.0109.4837.4837,0,0,1-.1122-.0178c-.074-.0174-.0948-.0266-.181-.0492a.85.85,0,0,0-.1142-.0255.492.492,0,0,0-.1321.0028.6467.6467,0,0,1,.0649-.0237.986.986,0,0,1,.2408-.0332.7544.7544,0,0,0,.2008-.0278.2067.2067,0,0,0,.0686-.0388.202.202,0,0,0,.04-.0472.3907.3907,0,0,1-.0926.0256.48.48,0,0,1-.1136,0c-.0758-.0057-.0978-.0115-.1865-.02a.86.86,0,0,0-.1167-.0074.4918.4918,0,0,0-.13.0235.6537.6537,0,0,1,.06-.0336.9835.9835,0,0,1,.2327-.07.7567.7567,0,0,0,.194-.0589.2116.2116,0,0,0,.0616-.049.2041.2041,0,0,0,.0325-.053.3888.3888,0,0,1-.0874.04.4811.4811,0,0,1-.1122.0178c-.0757.0063-.0984.004-.1874.0092a.8553.8553,0,0,0-.1164.0109.4937.4937,0,0,0-.1248.0435.6434.6434,0,0,1,.0544-.0426.9813.9813,0,0,1,.2187-.1059.7558.7558,0,0,0,.1824-.0886.2085.2085,0,0,0,.0533-.058.2.2,0,0,0,.0237-.0574.3852.3852,0,0,1-.08.053.479.479,0,0,1-.108.0351c-.0738.0181-.0965.0193-.1836.0384a.8547.8547,0,0,0-.1133.029.4919.4919,0,0,0-.1164.0625.6588.6588,0,0,1,.047-.0506.9892.9892,0,0,1,.1995-.1389.7559.7559,0,0,0,.1663-.1159.211.211,0,0,0,.0435-.0657.2.2,0,0,0,.0145-.06.3909.3909,0,0,1-.0708.0649.4851.4851,0,0,1-.1012.0516c-.07.0294-.0924.0342-.1754.0666a.8575.8575,0,0,0-.1074.0464.4945.4945,0,0,0-.1052.08A.6655.6655,0,0,1,4.7605,1.91a.98.98,0,0,1,.1753-.1684.7565.7565,0,0,0,.1461-.1405.21.21,0,0,0,.0327-.0717A.2028.2028,0,0,0,5.12,1.467a.3851.3851,0,0,1-.06.0751.476.476,0,0,1-.0918.0668c-.0646.04-.0859.0483-.1628.0933a.8575.8575,0,0,0-.0988.0626.4939.4939,0,0,0-.0914.0954.6659.6659,0,0,1,.0291-.0626.9843.9843,0,0,1,.1468-.1938.7531.7531,0,0,0,.1223-.1616.2091.2091,0,0,0,.0211-.0759.2037.2037,0,0,0-.0048-.062.389.389,0,0,1-.0474.0836.4822.4822,0,0,1-.08.08c-.0576.05-.0773.061-.1463.1175a.874.874,0,0,0-.0878.0773.491.491,0,0,0-.0753.1086.6845.6845,0,0,1,.0189-.0665.9893.9893,0,0,1,.1148-.2143.758.758,0,0,0,.0955-.1788A.21.21,0,0,0,4.73,1.2338a.2026.2026,0,0,0-.0145-.06.3817.3817,0,0,1-.0337.09.4752.4752,0,0,1-.0667.0919c-.0491.058-.0667.0724-.126.139a.8489.8489,0,0,0-.0746.09.4963.4963,0,0,0-.0575.119.6809.6809,0,0,1,.0084-.0686.98.98,0,0,1,.08-.23.7586.7586,0,0,0,.0663-.1916.2032.2032,0,0,0-.0271-.1361.3889.3889,0,0,1-.0192.0941.4812.4812,0,0,1-.0515.1012c-.04.065-.0547.082-.1028.157a.8651.8651,0,0,0-.06.1007.4933.4933,0,0,0-.0381.1265.6486.6486,0,0,1-.0025-.069.9783.9783,0,0,1,.0429-.2393.7579.7579,0,0,0,.0356-.2.2106.2106,0,0,0-.0157-.0772.2029.2029,0,0,0-.0325-.053.3907.3907,0,0,1-.0042.096.4793.4793,0,0,1-.0351.108c-.0287.07-.0411.0895-.0769.1711a.8607.8607,0,0,0-.0431.1088.4941.4941,0,0,0-.0179.1309.6607.6607,0,0,1-.0132-.0678.9843.9843,0,0,1,.0049-.243A.7533.7533,0,0,0,4.06,1.12a.2083.2083,0,0,0-.0275-.0738.2044.2044,0,0,0-.04-.0473.3916.3916,0,0,1,.0109.0955.4837.4837,0,0,1-.0178.1122c-.0174.0739-.0266.0948-.0492.181A.85.85,0,0,0,3.91,1.502a.492.492,0,0,0,.0028.1321.6467.6467,0,0,1-.0237-.0649.986.986,0,0,1-.0332-.2408.7558.7558,0,0,0-.0278-.2009A.2073.2073,0,0,0,3.79,1.059a.202.202,0,0,0-.0472-.04.3907.3907,0,0,1,.0256.0926.48.48,0,0,1,0,.1136c-.0057.0758-.0115.0978-.02.1865A.86.86,0,0,0,3.74,1.528a.4918.4918,0,0,0,.0235.13.6537.6537,0,0,1-.0336-.06.9835.9835,0,0,1-.07-.2327.7567.7567,0,0,0-.0589-.194.2116.2116,0,0,0-.049-.0616.2041.2041,0,0,0-.053-.0325.3888.3888,0,0,1,.04.0874.4811.4811,0,0,1,.0178.1122c.0063.0757.004.0984.0092.1874a.8571.8571,0,0,0,.0109.1164.4937.4937,0,0,0,.0435.1248.6434.6434,0,0,1-.0426-.0544.9833.9833,0,0,1-.1059-.2188A.7568.7568,0,0,0,3.3831,1.25a.2085.2085,0,0,0-.058-.0533.2041.2041,0,0,0-.0574-.0238.3891.3891,0,0,1,.053.08.479.479,0,0,1,.0351.108c.0181.0738.0193.0965.0384.1836a.8547.8547,0,0,0,.029.1133.4919.4919,0,0,0,.0625.1164.6588.6588,0,0,1-.0506-.047.9892.9892,0,0,1-.1389-.1995A.7535.7535,0,0,0,3.18,1.3612a.2093.2093,0,0,0-.0657-.0435.2.2,0,0,0-.06-.0145.3909.3909,0,0,1,.0649.0708.4824.4824,0,0,1,.0516.1012c.0294.07.0342.0924.0666.1754a.8575.8575,0,0,0,.0464.1074.4945.4945,0,0,0,.08.1052.6655.6655,0,0,1-.0573-.0386.984.984,0,0,1-.1684-.1753.7508.7508,0,0,0-.1405-.1461.21.21,0,0,0-.0717-.0327.2028.2028,0,0,0-.0619-.0049.3851.3851,0,0,1,.0751.06.476.476,0,0,1,.0668.0918c.04.0646.0483.0859.0933.1628a.8438.8438,0,0,0,.0626.0988A.4911.4911,0,0,0,3.257,1.97a.6544.6544,0,0,1-.0626-.0291.9843.9843,0,0,1-.1938-.1468A.757.757,0,0,0,2.839,1.672a.2092.2092,0,0,0-.0759-.021.2037.2037,0,0,0-.062.0048.389.389,0,0,1,.0836.0474.4822.4822,0,0,1,.08.08c.05.0576.061.0773.1175.1463a.8585.8585,0,0,0,.0773.0877.492.492,0,0,0,.1086.0754.6845.6845,0,0,1-.0665-.0189.9868.9868,0,0,1-.2143-.1148.758.758,0,0,0-.1788-.0955.2078.2078,0,0,0-.0783-.0089.2026.2026,0,0,0-.06.0145.3852.3852,0,0,1,.09.0336.48.48,0,0,1,.0919.0667c.058.0492.0724.0668.139.1261a.8514.8514,0,0,0,.09.0746.4963.4963,0,0,0,.119.0575.6809.6809,0,0,1-.0686-.0084.9856.9856,0,0,1-.23-.08A.7586.7586,0,0,0,2.61,2.0732.2032.2032,0,0,0,2.4743,2.1a.3889.3889,0,0,1,.0941.0192A.4812.4812,0,0,1,2.67,2.171c.065.04.082.0547.157.1028a.8651.8651,0,0,0,.1007.06.4933.4933,0,0,0,.1265.0381.6764.6764,0,0,1-.069.0025.9838.9838,0,0,1-.2393-.0429.7579.7579,0,0,0-.2-.0356.2106.2106,0,0,0-.0772.0157.2029.2029,0,0,0-.053.0325.3858.3858,0,0,1,.096.0042.4827.4827,0,0,1,.108.035c.07.0288.09.0412.1711.077A.8607.8607,0,0,0,2.9,2.503a.4936.4936,0,0,0,.1309.0179.6607.6607,0,0,1-.0678.0132.9844.9844,0,0,1-.243-.0049.7533.7533,0,0,0-.2027-.0039.2083.2083,0,0,0-.0738.0275.2044.2044,0,0,0-.0473.04.391.391,0,0,1,.0955-.0109A.4781.4781,0,0,1,2.6036,2.6c.0739.0174.0948.0266.181.0492a.853.853,0,0,0,.1141.0255.4968.4968,0,0,0,.1322-.0028.6726.6726,0,0,1-.0649.0237.987.987,0,0,1-.2408.0332.7558.7558,0,0,0-.2009.0278.2073.2073,0,0,0-.0685.0388.202.202,0,0,0-.04.0472.3907.3907,0,0,1,.0926-.0256.48.48,0,0,1,.1136,0c.0758.0057.0978.0115.1865.02a.86.86,0,0,0,.1167.0074.4918.4918,0,0,0,.13-.0235.6537.6537,0,0,1-.06.0336.9835.9835,0,0,1-.2327.07.7567.7567,0,0,0-.194.0589.2116.2116,0,0,0-.0616.049.2041.2041,0,0,0-.0325.053.3888.3888,0,0,1,.0874-.04.4811.4811,0,0,1,.1122-.0178c.0757-.0063.0984-.004.1874-.0092a.8571.8571,0,0,0,.1164-.0109.4937.4937,0,0,0,.1248-.0435.6646.6646,0,0,1-.0544.0426.9883.9883,0,0,1-.2188.1059.76.76,0,0,0-.1823.0885.2106.2106,0,0,0-.0533.0581.2041.2041,0,0,0-.0238.0574.3891.3891,0,0,1,.08-.053.479.479,0,0,1,.108-.0351c.0738-.0181.0965-.0194.1836-.0384a.8547.8547,0,0,0,.1133-.029.4939.4939,0,0,0,.1164-.0625.6588.6588,0,0,1-.047.0506.9864.9864,0,0,1-.1995.1388.7572.7572,0,0,0-.1663.116.2093.2093,0,0,0-.0435.0657.2.2,0,0,0-.0145.06.3909.3909,0,0,1,.0708-.0649.4824.4824,0,0,1,.1012-.0516c.07-.0294.0924-.0342.1754-.0666a.8575.8575,0,0,0,.1074-.0464.4978.4978,0,0,0,.1052-.08.6655.6655,0,0,1-.0386.0573.984.984,0,0,1-.1753.1684.7508.7508,0,0,0-.1461.14.2083.2083,0,0,0-.0327.0717.2028.2028,0,0,0-.0049.0619.3909.3909,0,0,1,.06-.0752.4823.4823,0,0,1,.0919-.0667c.0646-.04.0859-.0483.1628-.0933a.8575.8575,0,0,0,.0988-.0626.4939.4939,0,0,0,.0914-.0954.6659.6659,0,0,1-.0291.0626.9843.9843,0,0,1-.1468.1938.757.757,0,0,0-.1224.1616.2111.2111,0,0,0-.0211.0759.2065.2065,0,0,0,.0049.062A.3847.3847,0,0,1,3.1,3.8a.4822.4822,0,0,1,.08-.08c.0576-.05.0773-.061.1463-.1175a.8585.8585,0,0,0,.0877-.0773A.4943.4943,0,0,0,3.49,3.4166a.6845.6845,0,0,1-.0189.0665.9917.9917,0,0,1-.1148.2143.7561.7561,0,0,0-.0955.1788.21.21,0,0,0-.009.0783.2023.2023,0,0,0,.0146.06.3852.3852,0,0,1,.0336-.09.48.48,0,0,1,.0667-.0919c.0492-.058.0668-.0724.1261-.139a.8619.8619,0,0,0,.0746-.09.4963.4963,0,0,0,.0575-.119.6809.6809,0,0,1-.0084.0686.9856.9856,0,0,1-.08.23.7547.7547,0,0,0-.0663.1916.2032.2032,0,0,0,.0271.1361.3889.3889,0,0,1,.0192-.0941.4812.4812,0,0,1,.0515-.1012c.0395-.065.0547-.082.1028-.157a.8651.8651,0,0,0,.06-.1007.4933.4933,0,0,0,.0381-.1265.6764.6764,0,0,1,.0025.069.9846.9846,0,0,1-.0429.2393.7579.7579,0,0,0-.0356.2.2106.2106,0,0,0,.0157.0772.2047.2047,0,0,0,.0325.053.3858.3858,0,0,1,.0042-.096.4827.4827,0,0,1,.035-.108c.0288-.07.0412-.0895.077-.1711A.8668.8668,0,0,0,3.9,3.6855a.4941.4941,0,0,0,.0179-.1309.6607.6607,0,0,1,.0132.0678.9843.9843,0,0,1-.0049.243.7533.7533,0,0,0-.0039.2027.2083.2083,0,0,0,.0275.0738.1991.1991,0,0,0,.04.0472.39.39,0,0,1-.0109-.0954.4817.4817,0,0,1,.0177-.1122c.0175-.074.0267-.0948.0492-.181a.8387.8387,0,0,0,.0256-.1142.4962.4962,0,0,0-.0028-.1321.6726.6726,0,0,1,.0237.0649.986.986,0,0,1,.0332.2408.7544.7544,0,0,0,.0278.2008.2079.2079,0,0,0,.0387.0686.2042.2042,0,0,0,.0473.04.3907.3907,0,0,1-.0256-.0926.48.48,0,0,1,0-.1136c.0056-.0758.0115-.0978.02-.1865A.86.86,0,0,0,4.2415,3.66a.4918.4918,0,0,0-.0235-.13.6537.6537,0,0,1,.0336.06.9835.9835,0,0,1,.07.2327.7567.7567,0,0,0,.0589.194.2116.2116,0,0,0,.049.0616.2041.2041,0,0,0,.053.0325.3888.3888,0,0,1-.04-.0874.4811.4811,0,0,1-.0178-.1122c-.0063-.0757-.004-.0984-.0092-.1874a.8571.8571,0,0,0-.0109-.1164.4937.4937,0,0,0-.0435-.1248.6873.6873,0,0,1,.0426.0544.9863.9863,0,0,1,.1059.2187.7593.7593,0,0,0,.0885.1824.2106.2106,0,0,0,.0581.0533.2.2,0,0,0,.0574.0237.3852.3852,0,0,1-.053-.08.4737.4737,0,0,1-.0351-.108c-.0181-.0738-.0194-.0965-.0384-.1836a.8547.8547,0,0,0-.029-.1133.4919.4919,0,0,0-.0625-.1164.6588.6588,0,0,1,.0506.047.9864.9864,0,0,1,.1388.2.76.76,0,0,0,.116.1663.2093.2093,0,0,0,.0657.0435.2.2,0,0,0,.06.0145.3909.3909,0,0,1-.0649-.0708.4851.4851,0,0,1-.0516-.1012c-.0294-.07-.0342-.0924-.0666-.1754A.8575.8575,0,0,0,4.6982,3.43a.4978.4978,0,0,0-.08-.1052.6655.6655,0,0,1,.0573.0386.9879.9879,0,0,1,.1684.1753.7565.7565,0,0,0,.14.1461.21.21,0,0,0,.0717.0327.2028.2028,0,0,0,.0619.0049.3852.3852,0,0,1-.0752-.06.48.48,0,0,1-.0668-.0918c-.04-.0646-.0482-.0859-.0932-.1628A.8575.8575,0,0,0,4.82,3.3094a.4939.4939,0,0,0-.0954-.0914.6659.6659,0,0,1,.0626.0291.9843.9843,0,0,1,.1938.1468.757.757,0,0,0,.1616.1224.2092.2092,0,0,0,.0759.021.2027.2027,0,0,0,.0619-.0048.391.391,0,0,1-.0835-.0474.4822.4822,0,0,1-.08-.08c-.05-.0576-.061-.0773-.1175-.1463a.874.874,0,0,0-.0773-.0878.4933.4933,0,0,0-.1086-.0753.6845.6845,0,0,1,.0665.0189.9917.9917,0,0,1,.2143.1148.7541.7541,0,0,0,.1788.0955.21.21,0,0,0,.0783.0089.2026.2026,0,0,0,.06-.0145.3852.3852,0,0,1-.09-.0336A.4818.4818,0,0,1,5.23,3.2187c-.058-.0491-.0724-.0667-.139-.126a.8489.8489,0,0,0-.09-.0746.4963.4963,0,0,0-.119-.0575A.6843.6843,0,0,1,4.95,2.969a.9856.9856,0,0,1,.23.08.7586.7586,0,0,0,.1916.0663.2032.2032,0,0,0,.1361-.0271.3889.3889,0,0,1-.0941-.0192.4836.4836,0,0,1-.1013-.0515c-.0649-.04-.0819-.0547-.1569-.1028a.8651.8651,0,0,0-.1007-.06.4933.4933,0,0,0-.1265-.0381.6486.6486,0,0,1,.069-.0025.979.979,0,0,1,.2393.0429.7579.7579,0,0,0,.2.0356.2106.2106,0,0,0,.0772-.0157.2047.2047,0,0,0,.053-.0325A.3858.3858,0,0,1,5.47,2.84a.4827.4827,0,0,1-.108-.035c-.07-.0288-.0895-.0412-.1712-.077a.8609.8609,0,0,0-.1087-.0431.4941.4941,0,0,0-.1309-.0179.6607.6607,0,0,1,.0678-.0132A.9843.9843,0,0,1,5.2622,2.6591Zm-.3179.0084,0,.0018a.9523.9523,0,0,1-.0229.1464l0,.0018a.9592.9592,0,0,1-.0457.141L4.8744,2.96a.9485.9485,0,0,1-.0674.1321l-.0009.0015a.963.963,0,0,1-.0873.12l-.0013.0014a.9584.9584,0,0,1-.1046.1048l-.0015.0013a.9673.9673,0,0,1-.1195.0873l-.0016.001a.9572.9572,0,0,1-.1318.0676l-.0017.0007a.9444.9444,0,0,1-.141.0459l-.0017,0a.9558.9558,0,0,1-.1465.0232H4.0658c-.0247.002-.05.0033-.0749.0033s-.0491-.0013-.0733-.0031l-.0018,0a.9523.9523,0,0,1-.1464-.0229l-.0018,0a.9592.9592,0,0,1-.141-.0457l-.0017-.0007A.9485.9485,0,0,1,3.4928,3.41l-.0015-.0009a.963.963,0,0,1-.12-.0873L3.37,3.3207a.9664.9664,0,0,1-.1047-.1046L3.264,3.2147a.9609.9609,0,0,1-.0873-.12l-.001-.0016a.9462.9462,0,0,1-.0676-.1318L3.1074,2.96a.9444.9444,0,0,1-.0459-.141l0-.0017a.9558.9558,0,0,1-.0232-.1465l0-.0018c-.0019-.0247-.0032-.05-.0032-.0749s.0013-.0491.0031-.0733l0-.0018a.9523.9523,0,0,1,.0229-.1464l0-.0018a.9592.9592,0,0,1,.0457-.141l.0007-.0017a.959.959,0,0,1,.0673-.1321l.001-.0015a.963.963,0,0,1,.0873-.12l.0013-.0015a.9664.9664,0,0,1,.1046-.1047L3.37,1.8672A.9609.9609,0,0,1,3.49,1.78l.0015-.001a.9473.9473,0,0,1,.1319-.0676l.0017-.0007a.9444.9444,0,0,1,.141-.0459l.0017,0a.9538.9538,0,0,1,.1465-.0232l.0017,0c.0248-.0019.05-.0032.0749-.0032s.0492.0013.0734.0031l.0018,0a.9523.9523,0,0,1,.1464.0229l.0018,0a.9592.9592,0,0,1,.141.0457l.0017.0007a.9485.9485,0,0,1,.1321.0674l.0015.0009a.963.963,0,0,1,.12.0873l.0014.0013a.9584.9584,0,0,1,.1048.1046l.0013.0014a.9609.9609,0,0,1,.0873.12l.001.0016a.9572.9572,0,0,1,.0676.1318l.0007.0017a.9444.9444,0,0,1,.0459.141l0,.0017a.9538.9538,0,0,1,.0232.1465v.0017c.002.0248.0033.05.0033.0749S4.9461,2.6433,4.9443,2.6675Z" fill="#ff0"/></svg>