<svg xmlns="http://www.w3.org/2000/svg" viewBox="0 0 7.9819 5.1882"><rect y="1.005" width="7.9819" height="3.1735" fill="#f01928"/><rect y="4.3255" width="7.9819" height="0.8627" fill="#0550a0"/><rect width="7.9819" height="0.858" fill="#0550a0"/><rect y="0.858" width="7.9819" height="0.147" fill="#fff"/><rect y="4.1785" width="7.9819" height="0.147" fill="#fff"/><path d="M2.262,3.7563A1.1622,1.1622,0,1,0,1.1,2.5941,1.1623,1.1623,0,0,0,2.262,3.7563ZM2.0138,2.2525l.2482-.7638.2482.7638h.8031l-.65.4721.2482.7638-.65-.4721-.65.4721L1.86,2.7246l-.65-.4721Z" fill="#fff"/><polygon points="1.612 3.488 2.262 3.016 2.912 3.488 2.663 2.725 3.313 2.253 2.51 2.253 2.262 1.489 2.014 2.253 1.211 2.253 1.86 2.725 1.612 3.488" fill="#f01928"/></svg>