<svg xmlns="http://www.w3.org/2000/svg" viewBox="0 0 7.9819 5.1882"><rect width="7.9819" height="5.1752" fill="#429805"/><rect y="1.7433" width="7.9819" height="3.4449" fill="#e71d1f"/><polygon points="1.33 1.729 1.995 2.594 1.33 3.459 1.311 3.484 7.982 3.484 7.982 1.705 1.311 1.705 1.33 1.729" fill="#fff"/><path d="M3.71,3.0848H3.9a.1057.1057,0,0,1,.0883.0474l.0011.0018L3.9922,3.13a.1061.1061,0,0,1,.0868-.0451h.1893a.1283.1283,0,0,0,.1282-.1282V2.07H3.5822v.8869A.1283.1283,0,0,0,3.71,3.0848Zm-.0673-.6375c.0013-.01.0142-.0146.02-.0163a.04.04,0,0,1,.0186-.001l.0052-.014a.0344.0344,0,0,1,.0174-.013.0435.0435,0,0,1,.0323.0016l.0032-.01a.016.016,0,0,1,.0111-.0052.0189.0189,0,0,1,.0109.0027l-.0016-.01a.021.021,0,0,1,.01-.0154l.0047-.0016L3.78,2.3644l-.0048-.0071a.04.04,0,0,1-.0089-.0285.0277.0277,0,0,1,.0074-.0122.0492.0492,0,0,1,.0145-.01L3.797,2.302,3.7934,2.29a.0194.0194,0,0,1,0-.012c.0005-.0011.002-.0045.01-.0079a.0541.0541,0,0,1,.0232-.004.04.04,0,0,1,.0184-.0417.0434.0434,0,0,1,.0289-.0056V2.2136l.0028-.01a.0231.0231,0,0,1,.0218-.0083l-.0031-.0126a.0288.0288,0,0,1,0-.0143.0231.0231,0,0,1,.0132-.0123.046.046,0,0,1,.0346-.0007.0322.0322,0,0,1,.0073-.0161A.04.04,0,0,1,3.98,2.1273a.0811.0811,0,0,1,.06.0239.0622.0622,0,0,1,.0156.0262.0606.0606,0,0,1,.0017.0251l.0122.0012a.0559.0559,0,0,1,.0222.0087.0467.0467,0,0,1,.0169.024l.0054-.005a.0428.0428,0,0,1,.0148-.0086.0349.0349,0,0,1,.0161-.0008l.0035-.0106A.027.027,0,0,1,4.1658,2.2a.0378.0378,0,0,1,.0312.0074.0308.0308,0,0,1,.0115.0169l0,.0058.0126-.0009a.04.04,0,0,1,.0161.0021.0283.0283,0,0,1,.014.0142.0286.0286,0,0,1-.0051.0286l.0149-.0021a.0741.0741,0,0,1,.0228,0,.0407.0407,0,0,1,.0262.0184.0413.0413,0,0,1,.0025.0332l.01.003a.0566.0566,0,0,1,.03.018.0381.0381,0,0,1,.0046.0284.0508.0508,0,0,1-.0333.034l-.0009.008a.04.04,0,0,1-.0267.0256.0615.0615,0,0,1-.0491-.0036l-.0144.0094a.0878.0878,0,0,1-.04.0123l-.0071-.0005a.0661.0661,0,0,1-.045-.0343.1426.1426,0,0,1-.0324.0029l-.0161-.0014a.1428.1428,0,0,0-.0528.0482.1559.1559,0,0,0-.0218.0612.2178.2178,0,0,0-.002.0512l.0025.0484c.0012.0265.0026.0539.0044.0808l.0022.0332a.4549.4549,0,0,0,.0249.139l.0057.016c.0066.0182.0148.0409.0193.0583l.0018.0076.0032.0141,0,.0009.003.0182a.0217.0217,0,0,1-.0022.0147.02.02,0,0,1-.0151.0066A.03.03,0,0,1,4.0482,3.02L4.04,3.0251l-.0088-.0007a.0321.0321,0,0,1-.0285.0181l-.003,0a.0315.0315,0,0,1-.0257-.0189l-.0092.0075a.0358.0358,0,0,1-.0223.0085c-.0125-.0013-.02-.0151-.0217-.0191a.025.025,0,0,1-.0261.0044.0252.0252,0,0,1-.0135-.0169.0239.0239,0,0,1,0-.01.0317.0317,0,0,1,.0059-.0137h0a.753.753,0,0,0,.0431-.13,1.02,1.02,0,0,0,.028-.1727c.0031-.0367.0033-.0606.0036-.091A.7622.7622,0,0,0,3.9563,2.51a.1063.1063,0,0,0-.0178-.0553.0857.0857,0,0,0-.0166-.0169L3.92,2.4408a.0343.0343,0,0,1-.027.0091L3.88,2.4469l.0031.0093v0a.044.044,0,0,1,.0015.0214.0317.0317,0,0,1-.0165.019.0387.0387,0,0,1-.0193.0049.0613.0613,0,0,1-.0279-.0076.0536.0536,0,0,1-.0177-.0165.0372.0372,0,0,1-.0219,0,.07.07,0,0,1-.0182-.0108L3.7565,2.462a.0379.0379,0,0,1-.0109.02.0386.0386,0,0,1-.0238.01H3.7182a.0338.0338,0,0,1-.0218-.0071.0354.0354,0,0,1-.01-.0132c-.0082,0-.0327-.0017-.041-.0162A.0153.0153,0,0,1,3.6431,2.4473Z" fill="#fff"/><path d="M4.22,3.1752l0,.001.0015.008h0l-.0006.0747A.7473.7473,0,0,0,4.34,3.2454.4694.4694,0,0,0,4.5037,3.19c.0966-.0573.1028-.1178.1028-.1183a.0637.0637,0,0,0-.0007-.011A.0521.0521,0,0,0,4.6,3.0451v0a.244.244,0,0,1-.0166-.049L4.581,2.9846l-.0044-.02-.0054-.0211L4.57,2.94l-.008.0181a.3183.3183,0,0,1-.055.08.3035.3035,0,0,1-.143.0785.4681.4681,0,0,1-.13.0107c-.0439,0-.0887-.0055-.0891-.0055l-.0008,0-.003,0,.0005.0128,0,.0026,0,.0056.0005.0057.0445.0068C4.19,3.1554,4.2142,3.1623,4.22,3.1752ZM4.5325,3.05l.0588.03-.01.0088-.0132-.007-.0185.0161.0053.0139-.01.0086-.0222-.0621Zm-.0311.0254.0364.05-.01.0073-.0365-.0494Zm-.0508.0436a.0272.0272,0,0,1,.0129-.0184.0253.0253,0,0,1,.019-.0043l.0114.0061-.0087.0091-.0079-.0039L4.4687,3.11a.0145.0145,0,0,0-.0067.01.024.024,0,0,0,.0051.0156.0259.0259,0,0,0,.0125.0117.0135.0135,0,0,0,.0118-.0018l.0055-.0072a.0186.0186,0,0,0-.0011-.0111l.0122-.0033a.027.027,0,0,1-.0322.0343.0321.0321,0,0,1-.019-.0149A.0336.0336,0,0,1,4.4506,3.1189ZM4.4329,3.12l.03.0536-.0108.006-.03-.0535ZM4.417,3.13l.0046.0094-.0163.008.0226.0458-.0111.0055-.0226-.0458-.0163.0081-.0046-.0093Zm-.0858.0439.0053-.0083L4.3473,3.16a.0254.0254,0,0,1,.0181-.0007.0177.0177,0,0,1,.01.0109l-.0116.0044-.0054-.0054L4.35,3.1692l-.0073.0048-.0007.0043.003.0029a.03.03,0,0,0,.0121,0,.0542.0542,0,0,1,.0141,0l.0084.0037.0054.0085,0,.01L4.38,3.2132,4.3681,3.22a.0264.0264,0,0,1-.0187.0006.0237.0237,0,0,1-.0121-.0126l.0111-.0049.007.0071h.0095l.0077-.0053.001-.0066-.0023-.0031-.0051-.0011-.01.0006a.0332.0332,0,0,1-.0152-.0014.0162.0162,0,0,1-.0093-.01Zm-.0491.0035L4.289,3.21l.0026.01.005.0052.0084,0,.0074-.0037.002-.0059-.0016-.01-.007-.0333L4.3179,3.17l.0067.0315.0022.0155-.002.0083-.006.0064-.0112.0043a.0344.0344,0,0,1-.0135.0008L4.286,3.2327l-.0048-.0059-.0044-.015L4.27,3.18Zm-.0446.0488L4.24,3.233l.0065.0024.0055-.0031a.019.019,0,0,0,0-.01L4.2468,3.183l.0122-.0017.0055.0384a.0407.0407,0,0,1,0,.0119L4.26,3.241l-.0119.005a.0188.0188,0,0,1-.0146-.0031.0211.0211,0,0,1-.007-.0141Z" fill="#fff"/><path d="M4.5289,2.8889c.01-.0062.0143-.0093.0208-.0081.0115.002.02.0172.0254.0449l.004.0161.0054.0213.0031.0135a.0786.0786,0,0,0,.03-.026.0883.0883,0,0,0,.013-.0484.14.14,0,0,0-.0145-.0612l-.0071-.0179a.3241.3241,0,0,1-.0183-.0822l-.0029.0069a.2431.2431,0,0,1-.0279.0464.1636.1636,0,0,1-.0169.0192L4.52,2.8381c-.0272.0307-.03.04-.0315.0479a.054.054,0,0,0,.0023.0247l.0244-.0132Z" fill="#fff"/><polygon points="4.558 3.077 4.537 3.065 4.545 3.088 4.558 3.077" fill="#fff"/><polygon points="3.63 3.2 3.646 3.203 3.642 3.179 3.63 3.2" fill="#fff"/><path d="M3.7614,3.2331l.0006-.0438,0-.002a.0244.0244,0,0,1,.0058-.0165c.0071-.0095.0178-.0131.0461-.019l.0293-.0057V3.1453H3.844l.0012-.0094c0-.0064,0-.0125-.0027-.015L3.8333,3.12h0a.5946.5946,0,0,1-.06.01.4608.4608,0,0,1-.13-.0056.3782.3782,0,0,1-.1341-.0579.3271.3271,0,0,1-.0732-.0707.1447.1447,0,0,1-.0271-.0431c-.0039.0148-.0082.0294-.013.0438a.3925.3925,0,0,1-.0213.057v0l-.0019.0046c-.0019.006-.0025.0157.01.0376a.1659.1659,0,0,0,.0185.027.4057.4057,0,0,0,.0924.0776h0a.402.402,0,0,0,.13.0391,1.0478,1.0478,0,0,0,.1379.0175C3.7613,3.25,3.7614,3.2425,3.7614,3.2331ZM3.4542,3.13l-.0087-.0012-.01-.0066-.0084-.0106-.0017-.0087.002-.0074.01-.0123.0222-.0241.0091.0084-.0225.0245-.0067.0078-.0013.0071.0045.0072.0073.0038.006-.0017.0075-.0073.023-.025.0091.0084-.0218.0237-.0114.0108Zm.0433.039L3.5,3.1216l-.0226.033-.01-.0065.0346-.0507.01.0068L3.51,3.1523l.0231-.0339.01.0065-.0346.0507Zm.0242.0145.0294-.0539.0109.0059-.0294.054Zm.0666.0238-.01.0013-.0107-.0028-.0216-.0088L3.569,3.14l.021.0084.01.0055.0065.0087a.0249.0249,0,0,1,.0017.0114l-.0035.0142-.0066.0114Zm.0622.0218L3.648,3.2139l-.024-.0048-.0078.0127-.0129-.0027.0357-.0554.0128.0026.0119.0651Zm.0753-.0124-.0069.0107L3.71,3.2316a.0383.0383,0,0,1-.0111.0011L3.6757,3.232l.0016-.0614L3.7,3.1712l.0117.0015.0091.0059.0056.01a.0483.0483,0,0,1,.0016.0146Z" fill="#fff"/><path d="M4.2122,3.193l.0015-.0072V3.1842h0l-.001-.0052,0-.0006c-.0035-.0078-.0209-.0142-.0271-.0159l-.0417-.0063c.001.0122.0011.0338,0,.0653a.1954.1954,0,0,0,.0545-.015A.0291.0291,0,0,0,4.2122,3.193Z" fill="#fff"/><path d="M3.774,3.1757a.0164.0164,0,0,0-.0042.0109c.0008.01.0156.017.0212.02a.1937.1937,0,0,0,.0457.0126l.0043-.0272a.3108.3108,0,0,0,.002-.0373L3.8153,3.16C3.7873,3.1656,3.7792,3.1687,3.774,3.1757Z" fill="#fff"/><path d="M4.2022,3.2137A.6534.6534,0,0,1,4,3.2394H3.9968a.7839.7839,0,0,1-.2092-.0258A.0675.0675,0,0,1,3.77,3.2024l0,.0308c0,.01,0,.0175,0,.0246h0l0,.0031.0022.0294.0014.01c.005.024.0847.05.2227.0522.0019,0,.1671.0075.2109-.04l.0039-.0059.0019-.0092,0-.0335.0006-.0589Zm-.2448.0822L3.95,3.2994,3.9345,3.3h-.01V3.328H3.91V3.255h.0237l.0175.0011.0105.0071a.0229.0229,0,0,1,.0043.0142l-.0025.0113Zm.063.0321L4.014,3.3114H3.9848l-.006.0166H3.9632l.0284-.073h.0156l.0292.073Zm.0768,0H4.0379V3.3147l.0384-.0474h-.034V3.255h.0534v.0114l-.04.0493h.0415Z" fill="#fff"/><path d="M3.591,3.16,3.5818,3.156l-.0052-.0021-.0152.0378.0086.0034.0072.0023.0056-.0005.0052-.0043.0054-.01.0029-.0106-.001-.0068Z" fill="#fff"/><path d="M3.9426,3.2678l-.0106,0H3.9249V3.288h.008l.0117-.0011.0046-.0036.0017-.0057L3.9485,3.271Z" fill="#fff"/><path d="M4.567,2.9263c-.0064-.032-.0152-.0369-.0187-.0375s-.0063.0013-.015.0069l-.014.0088-.0256.0138a.3228.3228,0,0,0,.0166.0292.3085.3085,0,0,0,.0281.0373.3285.3285,0,0,0,.0167-.03Z" fill="#fff"/><path d="M3.4138,2.8941a.0294.0294,0,0,1,.0186-.0127c.0059-.0007.0092.0014.0172.0064l.0191.0116.0173.0085.0069.0025a.0783.0783,0,0,0-.0012-.0168c-.0036-.0205-.0144-.0331-.04-.0635l-.0026-.0029A.4457.4457,0,0,1,3.4023,2.77a.2111.2111,0,0,1-.0167-.0349l-.0049.027c-.0041.0218-.01.05-.0168.0816L3.3582,2.87c-.0072.0346-.0081.0393-.0065.0481a.078.078,0,0,0,.0311.0536l.0107.0058c.0042-.0139.0081-.0278.0114-.0418l0-.0034A.0538.0538,0,0,1,3.4138,2.8941Z" fill="#fff"/><polygon points="3.989 3.299 4.009 3.299 3.999 3.272 3.989 3.299" fill="#fff"/><path d="M3.8136,2.4578l.0031-.0034.002-.0026a.0166.0166,0,0,0,0-.011.0223.0223,0,0,0-.0106-.0137.0231.0231,0,0,0-.0146-.0021.0307.0307,0,0,0-.0185.0106l-.0012-.0011a.0319.0319,0,0,1,.02-.0111.0254.0254,0,0,1,.0156.0023.0235.0235,0,0,1,.0113.0147l.0008.0038.01-.0022h0a.0315.0315,0,0,1,.0156.0039l.0014.0008.0034.0023L3.85,2.45l-.003-.0021-.0015-.0008a.0284.0284,0,0,0-.0147-.0036h0l-.01.0022L3.82,2.4525l-.0023.003-.0031.0034-.008.0106-.0021.0072a.0534.0534,0,0,0,.0173.0162.05.05,0,0,0,.0456.0027.03.03,0,0,0,.0157-.018.0421.0421,0,0,0-.0015-.0206v0l-.0038-.0109,0-.0009H3.879l.0139.0037A.0329.0329,0,0,0,3.9186,2.44a.04.04,0,0,0,.0072-.0227.0907.0907,0,0,0,.0008-.0156l0-.0008h.0008a.0219.0219,0,0,0,.0181.0024.019.019,0,0,0,.01-.0087.0192.0192,0,0,0,.002-.012l0-.0008H3.96A.0622.0622,0,0,0,4.0082,2.4.333.333,0,0,0,4.04,2.3908l.01-.0038A.0284.0284,0,0,1,4.05,2.3608l.007-.0074.0009.0014-.0065.0068a.0272.0272,0,0,0,.0011.025l.0083.01.0077.008.0071.0075.01.0094a.0471.0471,0,0,0,.0226.0039A.1478.1478,0,0,0,4.14,2.4227l.0005-.0018v0l0-.0008.0009-.0023.0008-.0015.0044-.0072.0092-.0074L4.1613,2.4h.0066l.0056.0014,0,0,.0027.0022-.0015.0007-.002-.0015h0L4.1679,2.402H4.1614l-.0045.0009-.0087.007-.0043.0069-.0008.0016L4.1424,2.42l0,.0009v0l0,.0013h0a.066.066,0,0,0,.0441.034.0765.0765,0,0,0,.0461-.0117l.014-.009V2.4179l0-.0049-.0017-.0037-.0024-.0034L4.24,2.404l.0013-.0009.0014.0019.0026.0035.0018.004,0,.0055,0,.0073v.01a.06.06,0,0,0,.0481.0037.038.038,0,0,0,.0257-.0245l.0008-.0082h0l0,0-.0012-.0005-.0028-.0013-.0021-.0009-.0037-.0014L4.305,2.4006H4.3044a.0128.0128,0,0,0-.012.002l-.0036.004-.0014.0015,0,0,0,0-.0008.0006h0L4.285,2.4089l0-.0028V2.4049l0-.0025,0-.0023,0-.0027-.0007-.0051L4.2809,2.388l0-.0008-.0028-.0038-.0005-.0005L4.2732,2.38,4.27,2.3779l-.0086-.002V2.3743l.0091.0021.004.002.0042.0033.0005.0005.0031.0043,0,.0007.0021.0047.0007.0053,0,.0027,0,.0021,0,.0027v.0022h0l.0012-.0013.0038-.0042a.0145.0145,0,0,1,.0134-.0024h.0007l.007.0017.0039.0015.002.0008.0031.0015.0009,0,.0013.0007a.0489.0489,0,0,0,.032-.0327.0363.0363,0,0,0-.0043-.0271.0553.0553,0,0,0-.0291-.0174l-.01-.0032,0,0V2.3241a.0391.0391,0,0,0-.002-.0325.0387.0387,0,0,0-.0252-.0177.07.07,0,0,0-.0222,0L4.246,2.276l-.0015.0005-.0006,0-.0018,0-.0011,0-.003,0H4.2372l-.006.0006H4.23l-.0056.0006H4.2234L4.2172,2.28,4.21,2.2822l-.0049.0024h0l-.001.0005-.0028.0017-.0006,0-.001.0009-.0008-.0015.0007-.0005L4.2,2.2856l.0031-.0018.001,0h0l.0051-.0025.0077-.0024.0065-.001h.0014L4.23,2.2767H4.231l.0061-.0006h.0008l.0027,0,.0013,0,.0015,0h0v0A.0273.0273,0,0,0,4.25,2.2462a.0261.0261,0,0,0-.0131-.0133.0378.0378,0,0,0-.0155-.002l-.0133.001-.0007,0,0-.0006,0-.0064a.0286.0286,0,0,0-.0109-.0159.0355.0355,0,0,0-.03-.0071.0258.0258,0,0,0-.0161.01l-.0033.0108,0,.0006H4.1458a.0339.0339,0,0,0-.0162.0006.0413.0413,0,0,0-.0143.0084L4.11,2.2381l0,.0069-.0005.0089-.0013.0146L4.1032,2.28l-.0005.001-.0045.0059-.0009-.0014.004-.0053,0-.001.004-.0106.0013-.0144,0-.009,0-.0064,0,0a.0449.0449,0,0,0-.0167-.0245.0522.0522,0,0,0-.0215-.0084l-.0128-.0012h0l-.003.0024-.0011.0009L4.0484,2.21l-.0021.0013-.0071.0041-.01.006a.0245.0245,0,0,0-.01.0156l0,.0063v.0029l0,.0049,0,.0009h0l-.0006,0-.0032-.004-.0041-.0048a.0221.0221,0,0,0-.014-.0058h0L3.9847,2.24l-.0054.0054-.0013-.001.0057-.0057.0128-.0031h0a.0234.0234,0,0,1,.0152.0063l.0043.0049.0014.0019V2.2434l0-.0065A.0259.0259,0,0,1,4.0286,2.22l.01-.0061.007-.0041.0021-.0013.0038-.0025.001-.0009.0037-.0029a.0584.0584,0,0,0-.0017-.0246.0612.0612,0,0,0-.0152-.0255A.0794.0794,0,0,0,3.98,2.1289a.0387.0387,0,0,0-.0284.011.0307.0307,0,0,0-.007.0162l0,.0006H3.9437a.0452.0452,0,0,0-.0343,0,.0218.0218,0,0,0-.0124.0114.0282.0282,0,0,0,0,.0135l.0034.0136v.0008l-.0007,0a.0221.0221,0,0,0-.0215.0073l-.0026.01,0,.0057h.0011a.025.025,0,0,1,.0181.0078l.0041.0121.0074-.0084a.0214.0214,0,0,1,.0122-.0046c.0087.0006.0182.0145.0192.0366H3.9365c-.0009-.021-.01-.0345-.0177-.0351a.0208.0208,0,0,0-.0112.0043.0249.0249,0,0,0-.0086.0118l-.0009.0005-.0006-.0009a.0213.0213,0,0,0-.0035-.0154.0244.0244,0,0,0-.0171-.0072.0429.0429,0,0,0-.0306.005.0378.0378,0,0,0-.0175.041l0,.0007-.0006,0a.052.052,0,0,0-.0235.0038c-.0078.0032-.0091.0061-.01.007a.018.018,0,0,0,0,.0111l.0038.0121v.0007l0,0-.01.0046a.05.05,0,0,0-.014.01.0254.0254,0,0,0-.007.0115.0382.0382,0,0,0,.0087.0273l.0049.0073,0,0,.0027-.0014.0027-.0014.0116-.002a.0823.0823,0,0,1,.0249.0045l-.0006.0015A.0782.0782,0,0,0,3.7986,2.36l-.0111.0019-.0025.0013-.0028.0015-.0072.0021-.0041.0013a.02.02,0,0,0-.0093.0143.0181.0181,0,0,0,.0031.0116l0,.001h-.001a.0185.0185,0,0,0-.0126-.0044.0145.0145,0,0,0-.01.0046.0136.0136,0,0,0-.0028.01l0,.0007H3.737a.0428.0428,0,0,0-.0323-.0021.0323.0323,0,0,0-.0166.0124l-.005.0142,0,.0005-.0006,0a.0384.0384,0,0,0-.0188.0008c-.004.0012-.0174.006-.0186.0149l.0021.0082c.0083.0145.0349.0153.04.0154l.0007.0005a.033.033,0,0,0,.01.013.0337.0337,0,0,0,.0243.0067.0372.0372,0,0,0,.0228-.01A.0367.0367,0,0,0,3.7552,2.46L3.7557,2.46h.0008l.0079.006a.0666.0666,0,0,0,.0177.0107.0359.0359,0,0,0,.021,0l.0023-.0074Zm.3241-.1184.0009,0,.0049-.0015.0073-.0013a.0279.0279,0,0,1,.0126.0028.0579.0579,0,0,1,.0267.0231l.0015-.0015L4.1924,2.36l.0015-.0015.0014-.0015.0072-.0055.002-.0014a.0348.0348,0,0,1,.0218-.004v.0016a.033.033,0,0,0-.0207.0038l-.0021.0013-.0069.0054L4.1951,2.36l-.0016.0016-.0008.0008-.0017.0021L4.19,2.3647h0l-.0007,0a.0578.0578,0,0,0-.0267-.0238.0282.0282,0,0,0-.0119-.0026l-.007.0013-.0048.0015-.0009,0-.0024.001-.0011-.0012Zm-.1848-.04.0054,0h.0075l.0109.0042.0017.0009a.0948.0948,0,0,1,.028.0225l.0042.0055.0058.0073.0008-.0013.0008-.001.0007-.0015.0025-.0039.0026-.0039.0033-.0048a.029.029,0,0,1,.023-.0052H4.053v.0016H4.05a.0272.0272,0,0,0-.0217.0047l-.0031.0045-.0027.0041L4.02,2.3363l-.0008.0014-.0009.0013-.001.002-.0006.0006h0l-.0006,0-.0068-.0085-.0042-.0053a.0885.0885,0,0,0-.0275-.0221l-.0017-.0009-.01-.0041H3.9584l-.0055,0Zm-.03.0611h.0011v.0016h-.001l-.0076.0018L3.9084,2.37l-.0034.01v.0071l0,.0007-.0008,0L3.9,2.3867l-.0044-.0018a.0179.0179,0,0,0-.0148.0015L3.8766,2.39,3.876,2.39l-.0039.0025V2.3911l.0029-.0021.0006-.0006L3.88,2.385a.02.02,0,0,1,.0162-.0017l.0045.002.0026.0011V2.38l.0037-.0112.0073-.0068Zm-.09-.0488h.0105a.0308.0308,0,0,1,.0173.0079l.005.0062a.06.06,0,0,1,.0188-.0235.0224.0224,0,0,1,.0169-.004l.01.007L3.91,2.3059,3.9008,2.3a.0208.0208,0,0,0-.0157.0037.0625.0625,0,0,0-.0191.0244l-.0007.0005h0l-.0007-.0006-.0052-.007a.0286.0286,0,0,0-.0164-.0076h-.01l-.006,0V2.3118Z" fill="#429805"/><path d="M4.0148,2.9878a.1948.1948,0,0,1-.0018-.0325V2.9509l-.0018-.04V2.91L4.009,2.869l-.0013-.0227c-.0015-.0273-.0018-.0464-.0024-.0752-.0012-.0575-.0025-.1169,0-.1909.002-.06.006-.12.012-.18l-.0087.0021a.0474.0474,0,0,1-.0273-.0045c.0017.1213.0029.2175.0036.2861.001.0984.0006.1015,0,.1032s0,.0012,0,.014v.0033c0,.02.0009.05-.0006.0889l-.0007.0141-.0008.0167-.0008.0256a.4088.4088,0,0,1-.0034.05l-.0041.023A.03.03,0,0,0,4,3.0407a.03.03,0,0,0,.03-.0172L4.022,3.0119A.0747.0747,0,0,1,4.0148,2.9878Z" fill="#64430b"/><path d="M4.0189,2.3993l-.004.043L4.0414,2.42l.0226-.0171-.0047-.0047-.008-.0094-.0105.0038Z" fill="#fff"/><path d="M4.0147,2.4447c-.0038.0453-.0064.0907-.0078.1355-.0024.074-.0012.1334,0,.1908.0006.0289.001.0479.0024.0752l.0013.0227.0022.0408v.0015l.0017.04v.0045a.2032.2032,0,0,0,.0018.0322.0743.0743,0,0,0,.0071.0236l.0075.0116.0083.0007.0079-.0046a.3719.3719,0,0,0-.0042-.073.3768.3768,0,0,0-.02-.0745l.0015-.0006a.3809.3809,0,0,1,.02.0749.3725.3725,0,0,1,.0042.0731.0291.0291,0,0,0,.0165.0037.0187.0187,0,0,0,.014-.0059c.0023-.0032.0022-.0065.0019-.0137l-.003-.0179,0-.001L4.0748,2.97,4.073,2.9624c-.0045-.0173-.0127-.04-.0192-.0582l-.0058-.016a.5094.5094,0,0,1-.0166-.0618.4739.4739,0,0,1-.0083-.0776l-.0022-.0332c-.0018-.0269-.0032-.0543-.0044-.0808L4.014,2.5864a.22.22,0,0,1,.002-.0515.1582.1582,0,0,1,.022-.0619A.1443.1443,0,0,1,4.09,2.4251l-.0049-.002-.0109-.01L4.067,2.4058l-.0019-.002-.0227.0172Z" fill="#64430b"/><path d="M3.7109,3.1854l-.0057-.003-.01-.0009-.0055,0-.0011.0407.0092,0,.0076,0L3.71,3.22l.0034-.0059.0016-.0112a.0369.0369,0,0,0-.001-.011Z" fill="#fff"/><path d="M3.98,2.4464l-.0007-.05A.1039.1039,0,0,1,3.96,2.3843l-.0023.0109a.0211.0211,0,0,1-.0115.01l-.01.0008.0194.0144A.1778.1778,0,0,1,3.98,2.4464Z" fill="#fff"/><path d="M3.9808,2.9492l.0008-.0257.0008-.0167.0006-.014c.0015-.0389.001-.069.0007-.0889V2.8007a.1358.1358,0,0,1,0-.0143c0-.0015.0005-.0047-.0005-.103-.0006-.0585-.0015-.1372-.0028-.2343a.1708.1708,0,0,0-.0259-.0278A.1731.1731,0,0,0,3.93,2.4038l-.002-.0009a.0864.0864,0,0,1-.0008.0144.0584.0584,0,0,1-.0047.0193A.088.088,0,0,1,3.94,2.454a.1066.1066,0,0,1,.0181.056.7338.7338,0,0,1,.0051.0809c0,.03-.0005.0543-.0036.0911a1.025,1.025,0,0,1-.028.1729.7268.7268,0,0,1-.0434.13v0a.0293.0293,0,0,0-.0056.013.0264.0264,0,0,0,0,.0094.0242.0242,0,0,0,.0127.0157A.0232.0232,0,0,0,3.92,3.0187l-.0026-.0162a.0537.0537,0,0,1,.005-.0224.7046.7046,0,0,0,.0446-.1437A.2815.2815,0,0,0,3.97,2.7971h.0016a.2871.2871,0,0,1-.0033.04.7034.7034,0,0,1-.0447.144.0519.0519,0,0,0-.0049.0218l.0026.0162c0,.0009.0076.0178.0208.0191A.0352.0352,0,0,0,3.9636,3.03l.01-.008.0041-.0229A.4053.4053,0,0,0,3.9808,2.9492Z" fill="#960"/><path d="M3.4918,2.9185l-.0089-.0031-.0182-.009-.0194-.0117-.0119-.0053a.0226.0226,0,0,0-.0132.01.0458.0458,0,0,0-.0076.0328.0967.0967,0,0,0,.0251.0533c.01-.0106.02-.0216.0292-.033S3.484,2.93,3.4918,2.9185Z" fill="#fff"/><polygon points="3.95 1.936 3.927 1.901 3.948 1.864 3.905 1.866 3.884 1.831 3.866 1.867 3.824 1.869 3.846 1.904 3.826 1.94 3.869 1.939 3.889 1.974 3.907 1.937 3.95 1.936" fill="#ff0"/><path d="M3.9541,1.86l-.047.0019-.023-.0392-.02.0407-.0471.0014.0253.0388-.0225.04.047-.0019.023.0392.02-.0407.047-.0014-.0253-.0388Zm-.0853.0783L3.8262,1.94l.02-.0366-.0229-.0351.0427-.0013.0181-.0365.0206.0352.0427-.0017-.02.0366.0229.0351-.0427.0013-.0181.0365Z"/><polygon points="4.139 1.904 4.161 1.869 4.119 1.867 4.101 1.831 4.08 1.866 4.037 1.864 4.058 1.901 4.035 1.936 4.078 1.937 4.096 1.974 4.116 1.939 4.159 1.94 4.139 1.904" fill="#ff0"/><path d="M4.1211,1.8638l-.02-.0407-.023.0392L4.031,1.86l.0225.04L4.0282,1.94l.047.0014.02.0407.023-.0392.047.0019-.0225-.04.0253-.0388Zm-.0254.11-.0181-.0365-.0427-.0013.0229-.0351-.02-.0366.0427.0017.0206-.0352.0181.0365.0427.0013-.0229.0351.02.0366-.0427-.0017Z"/><polygon points="4.348 1.942 4.377 1.912 4.336 1.903 4.325 1.863 4.298 1.894 4.256 1.884 4.269 1.924 4.24 1.954 4.282 1.964 4.293 2.003 4.319 1.972 4.361 1.982 4.348 1.942" fill="#ff0"/><path d="M4.3385,1.9l-.012-.0438-.03.0341-.0458-.0108.0143.044-.0321.0332.0459.01.012.0438.03-.0341.0458.0108-.0143-.044L4.3844,1.91Zm-.0459.1033-.0109-.0393-.0416-.01.0292-.03-.013-.04.0415.01.0269-.0306.0109.0394.0416.0094-.0292.03.0131.04-.0416-.01Z"/><polygon points="3.745 1.954 3.716 1.924 3.729 1.884 3.687 1.894 3.66 1.863 3.649 1.903 3.608 1.912 3.637 1.942 3.624 1.982 3.666 1.972 3.693 2.003 3.703 1.964 3.745 1.954" fill="#ff0"/><path d="M3.7344,1.8791,3.6886,1.89l-.03-.0341L3.6466,1.9l-.0459.01.0322.0332-.0144.044.0458-.0108.03.0341.012-.0438.0459-.01L3.72,1.9231Zm-.0688.0932-.0415.01.013-.04-.0292-.03L3.65,1.9028,3.66,1.8634l.0269.0306.0416-.01-.0131.04.0292.03-.0416.01-.0108.0393Z"/><polygon points="3.513 1.973 3.516 1.931 3.478 1.951 3.444 1.928 3.443 1.968 3.405 1.988 3.441 2.01 3.438 2.052 3.476 2.032 3.509 2.055 3.51 2.014 3.548 1.995 3.513 1.973" fill="#ff0"/><path d="M3.52,1.925l-.0418.0215-.0374-.0258L3.44,1.9661l-.042.0212.0393.0245-.0034.0461.0419-.0216.0373.0258.0011-.0454.0421-.0211-.0393-.0245Zm-.0107.13L3.4758,2.032l-.0379.02.003-.0418-.0356-.0221.0382-.0192.0009-.0408.0336.0232.0379-.02-.003.0418.0356.0221L3.51,2.0144Z"/><polygon points="4.544 2.01 4.58 1.988 4.542 1.968 4.541 1.928 4.507 1.951 4.469 1.931 4.472 1.973 4.437 1.995 4.475 2.014 4.476 2.055 4.509 2.032 4.547 2.052 4.544 2.01" fill="#ff0"/><path d="M4.5873,1.9873l-.042-.0212-.0011-.0454-.0374.0258L4.465,1.925l.0033.0461-.0392.0245.042.0211.0011.0454L4.51,2.0363l.0419.0216-.0033-.0461Zm-.1116.0679-.001-.0408-.0381-.0192.0356-.0221-.003-.0418.0379.02.0336-.0232.0009.0408.0382.0192L4.5442,2.01l.003.0418-.0379-.02Z"/><path d="M3.71,3.0929H3.9a.0975.0975,0,0,1,.0815.0438l.0077.0117.01-.0138a.0977.0977,0,0,1,.08-.0417h.1893a.1365.1365,0,0,0,.1363-.1363v-.895H3.5741v.895A.1365.1365,0,0,0,3.71,3.0929ZM3.5822,2.07h.8143v.8869a.1283.1283,0,0,1-.1282.1282H4.079a.1061.1061,0,0,0-.0868.0451l-.0028.0041-.0011-.0018A.1057.1057,0,0,0,3.9,3.0848H3.71a.1283.1283,0,0,1-.1282-.1282Z"/><path d="M3.6864,2.4727a.0354.0354,0,0,0,.01.0132.0338.0338,0,0,0,.0218.0071h.0036a.0386.0386,0,0,0,.0238-.01.0379.0379,0,0,0,.0109-.02l.0069.0053a.07.07,0,0,0,.0182.0108.0372.0372,0,0,0,.0219,0l0,0V2.4762a.0359.0359,0,0,1-.021,0,.0666.0666,0,0,1-.0177-.0107L3.7565,2.46H3.7557L3.7552,2.46a.0367.0367,0,0,1-.0107.0208.0372.0372,0,0,1-.0228.01.0337.0337,0,0,1-.0243-.0067.033.033,0,0,1-.01-.013L3.687,2.4711c-.0053,0-.0319-.0009-.04-.0154l-.0021-.0082c.0012-.0089.0146-.0137.0186-.0149a.0384.0384,0,0,1,.0188-.0008l.0006,0,0-.0005.005-.0142a.0323.0323,0,0,1,.0166-.0124.0428.0428,0,0,1,.0323.0021h.0008l0-.0007a.0136.0136,0,0,1,.0028-.01.0145.0145,0,0,1,.01-.0046.0185.0185,0,0,1,.0126.0044h.001l0-.001a.0181.0181,0,0,1-.0031-.0116.02.02,0,0,1,.0093-.0143l.0041-.0013.0072-.0021.0028-.0015.0025-.0013L3.7986,2.36a.0782.0782,0,0,1,.0242.0044l.0006-.0015a.0823.0823,0,0,0-.0249-.0045l-.0116.002-.0027.0014-.0027.0014,0,0,0,.0005-.0013.001L3.78,2.3644l-.0048.0012L3.77,2.3672a.021.021,0,0,0-.01.0154l.0016.01a.0189.0189,0,0,0-.0109-.0027.016.016,0,0,0-.0111.0052l-.0032.01a.0435.0435,0,0,0-.0323-.0016.0344.0344,0,0,0-.0174.013l-.0052.014a.04.04,0,0,0-.0186.001c-.0056.0017-.0185.0067-.02.0163a.0153.0153,0,0,0,.0023.0092C3.6537,2.471,3.6782,2.4726,3.6864,2.4727Z"/><path d="M3.7762,2.3565a.0382.0382,0,0,1-.0087-.0273.0254.0254,0,0,1,.007-.0115.05.05,0,0,1,.014-.01l.01-.0046,0,0V2.3021L3.795,2.29a.018.018,0,0,1,0-.0111c0-.0009.0017-.0038.01-.007a.052.052,0,0,1,.0235-.0038l.0006,0,0-.0007a.0378.0378,0,0,1,.0175-.041.0429.0429,0,0,1,.0306-.005.0244.0244,0,0,1,.0171.0072.0213.0213,0,0,1,.0035.0154l.0006.0009.0009-.0005a.0249.0249,0,0,1,.0086-.0118.0208.0208,0,0,1,.0112-.0043c.0078.0006.0168.0141.0177.0351h.0016c-.001-.0221-.01-.036-.0192-.0366a.0214.0214,0,0,0-.0122.0046l-.0074.0084-.0041-.0121A.025.025,0,0,0,3.8771,2.22H3.876V2.22l-.0016,0,0-.0011a.0434.0434,0,0,0-.0289.0056.04.04,0,0,0-.0184.0417.0541.0541,0,0,0-.0232.004c-.0083.0034-.01.0068-.01.0079a.0194.0194,0,0,0,0,.012l.0036.0117-.0092.0044a.0492.0492,0,0,0-.0145.01.0277.0277,0,0,0-.0074.0122.04.04,0,0,0,.0089.0285l.0048.0071.0015-.0006Z"/><polygon points="3.781 2.364 3.781 2.364 3.78 2.364 3.78 2.365 3.781 2.364"/><path d="M3.8758,2.2137l.0026-.01A.0221.0221,0,0,1,3.9,2.1966l.0007,0V2.1955l-.0034-.0136a.0282.0282,0,0,1,0-.0135.0218.0218,0,0,1,.0124-.0114.0452.0452,0,0,1,.0343,0h.0007l0-.0006a.0307.0307,0,0,1,.007-.0162.0387.0387,0,0,1,.0284-.011.0794.0794,0,0,1,.0589.0234.0612.0612,0,0,1,.0152.0255.0584.0584,0,0,1,.0017.0246l0,0,.0008.0015-.0009.0005h0l.0128.0012a.0522.0522,0,0,1,.0215.0084.0449.0449,0,0,1,.0167.0245l0,0V2.2377H4.11v0l.0058-.0054A.0413.0413,0,0,1,4.13,2.2243a.0339.0339,0,0,1,.0162-.0006h.0006l0-.0006L4.15,2.2122a.0258.0258,0,0,1,.0161-.01.0355.0355,0,0,1,.03.0071.0286.0286,0,0,1,.0109.0159l0,.0064,0,.0006.0007,0,.0133-.001a.0378.0378,0,0,1,.0155.002.0261.0261,0,0,1,.0131.0133.0273.0273,0,0,1-.0064.0287v0h0l.001,0,.001.0013h0l.0157-.0023a.07.07,0,0,1,.0222,0,.0387.0387,0,0,1,.0252.0177.0391.0391,0,0,1,.002.0325v.0007l0,0,.01.0032a.0553.0553,0,0,1,.0291.0174.0363.0363,0,0,1,.0043.0271.0489.0489,0,0,1-.032.0327l0,0-.0012.0011-.0005,0h0l-.0008.0082a.038.038,0,0,1-.0257.0245.06.06,0,0,1-.0481-.0037v.0006H4.246v0l-.014.009a.0765.0765,0,0,1-.0461.0117.066.066,0,0,1-.0441-.034h0v0H4.14V2.4227a.1478.1478,0,0,1-.0317.0028.0471.0471,0,0,1-.0226-.0039l-.01-.0094-.0071-.0075-.0077-.008-.0083-.01a.0272.0272,0,0,1-.0011-.025l.0065-.0068-.0009-.0014-.007.0074a.0284.0284,0,0,0,.0009.0262l.0008,0,.0006.0016-.0007,0,.008.0094.0047.0047.0007-.0005.001.0013-.0006,0,.0019.002.0071.0075.0109.01.0049.002.0018-.001.0007.0015h0l.0161.0014a.1426.1426,0,0,0,.0324-.0029.0661.0661,0,0,0,.045.0343l.0071.0005a.0878.0878,0,0,0,.04-.0123l.0144-.0094a.0615.0615,0,0,0,.0491.0036.04.04,0,0,0,.0267-.0256l.0009-.008a.0508.0508,0,0,0,.0333-.034.0381.0381,0,0,0-.0046-.0284.0566.0566,0,0,0-.03-.018l-.01-.003a.0413.0413,0,0,0-.0025-.0332.0407.0407,0,0,0-.0262-.0184.0741.0741,0,0,0-.0228,0l-.0149.0021a.0286.0286,0,0,0,.0051-.0286.0283.0283,0,0,0-.014-.0142.04.04,0,0,0-.0161-.0021L4.209,2.23l0-.0058a.0308.0308,0,0,0-.0115-.0169A.0378.0378,0,0,0,4.1658,2.2a.027.027,0,0,0-.0171.0113l-.0035.0106a.0349.0349,0,0,0-.0161.0008.0428.0428,0,0,0-.0148.0086l-.0054.005a.0467.0467,0,0,0-.0169-.024A.0559.0559,0,0,0,4.07,2.2037l-.0122-.0012a.0606.0606,0,0,0-.0017-.0251A.0622.0622,0,0,0,4.04,2.1512a.0811.0811,0,0,0-.06-.0239.04.04,0,0,0-.0294.0115.0322.0322,0,0,0-.0073.0161.046.046,0,0,0-.0346.0007.0231.0231,0,0,0-.0132.0123.0288.0288,0,0,0,0,.0143l.0031.0126a.0231.0231,0,0,0-.0218.0083l-.0028.01v.0055l.0017,0Z"/><polygon points="3.876 2.22 3.876 2.219 3.874 2.219 3.874 2.22 3.876 2.22"/><path d="M3.9222,2.4362l0,0a.0584.0584,0,0,0,.0047-.0193.0864.0864,0,0,0,.0008-.0144l.002.0009h0l.0009-.0014.0049.0032.01-.0008a.0211.0211,0,0,0,.0115-.01L3.96,2.3843a.1039.1039,0,0,0,.0194.0122V2.396h.0016v.0013a.0474.0474,0,0,0,.0273.0045L4.0172,2.4V2.3985l.0016,0v.0006l.0219-.007.0105-.0038-.0006-.0012v0l-.01.0038A.333.333,0,0,1,4.0082,2.4.0622.0622,0,0,1,3.96,2.3818H3.9588l0,.0008a.0192.0192,0,0,1-.002.012.019.019,0,0,1-.01.0087.0219.0219,0,0,1-.0181-.0024H3.927l0,.0008a.0907.0907,0,0,1-.0008.0156.04.04,0,0,1-.0072.0227.0329.0329,0,0,1-.0257.0085L3.879,2.4446H3.8781l0,.0009.0038.0109v0a.0421.0421,0,0,1,.0015.0206.03.03,0,0,1-.0157.018.05.05,0,0,1-.0456-.0027.0534.0534,0,0,1-.0173-.0162L3.8068,2.47l.008-.0106.0031-.0034.0023-.003.0012-.0066h0L3.82,2.4445l.0009,0L3.8205,2.44a.0235.0235,0,0,0-.0113-.0147.0254.0254,0,0,0-.0156-.0023.0319.0319,0,0,0-.02.0111l.0012.0011a.0307.0307,0,0,1,.0185-.0106.0231.0231,0,0,1,.0146.0021.0223.0223,0,0,1,.0106.0137.0166.0166,0,0,1,0,.011l-.002.0026-.0031.0034-.0082.011-.0023.0074h0l0,.0015,0,0a.0536.0536,0,0,0,.0177.0165.0613.0613,0,0,0,.0279.0076.0387.0387,0,0,0,.0193-.0049.0317.0317,0,0,0,.0165-.019.044.044,0,0,0-.0015-.0214v0L3.88,2.4469l.0126.003a.0343.0343,0,0,0,.027-.0091l.0021-.0028-.0007-.0005Z"/><rect x="3.803" y="2.4761" width="0.0008" height="0.0016" transform="translate(-0.4119 0.794) rotate(-11.3099)"/><polygon points="4.051 2.389 4.052 2.388 4.051 2.387 4.051 2.387 4.051 2.387 4.051 2.389"/><path d="M3.8326,2.3132h.01a.0286.0286,0,0,1,.0164.0076l.0052.007.0007.0006h0l.0007-.0005a.0625.0625,0,0,1,.0191-.0244A.0208.0208,0,0,1,3.9008,2.3l.0087.0062.0014-.0008-.01-.007a.0224.0224,0,0,0-.0169.004.06.06,0,0,0-.0188.0235L3.86,2.3194a.0308.0308,0,0,0-.0173-.0079H3.8326l-.006,0v.0016Z"/><path d="M3.9071,2.3692,3.9034,2.38v.006l-.0026-.0011-.0045-.002A.02.02,0,0,0,3.88,2.385l-.0047.0034-.0006.0006-.0029.0021v.0016L3.876,2.39,3.8766,2.39l.0044-.0032a.0179.0179,0,0,1,.0148-.0015L3.9,2.3867l.0038.0017.0008,0,0-.0007V2.38l.0034-.01.0068-.0063.0076-.0018h.001V2.36H3.9226l-.0082.002Z"/><path d="M3.8311,2.4437a.0284.0284,0,0,1,.0147.0036l.0015.0008L3.85,2.45l.0012-.0012-.0034-.0023-.0014-.0008a.0315.0315,0,0,0-.0156-.0039h0l-.01.0022v.0017l.01-.0022Z"/><polygon points="3.82 2.445 3.821 2.446 3.821 2.446 3.821 2.444 3.82 2.445"/><path d="M3.9656,2.3005l.01.0041.0017.0009a.0885.0885,0,0,1,.0275.0221l.0042.0053.0068.0085.0006,0h0l.0006-.0006.001-.002.0009-.0013L4.02,2.3363l.0023-.0037.0027-.0041.0031-.0045A.0272.0272,0,0,1,4.05,2.3193h.003V2.3178H4.05a.029.029,0,0,0-.023.0052l-.0033.0048-.0026.0039-.0025.0039L4.018,2.337l-.0008.001-.0008.0013L4.0106,2.332l-.0042-.0055a.0948.0948,0,0,0-.028-.0225l-.0017-.0009-.0109-.0042H3.9583l-.0054,0v.0016l.0055,0Z"/><path d="M4.0513,2.2062l-.0038.0025L4.0454,2.21l-.007.0041-.01.0061a.0259.0259,0,0,0-.0106.0167l0,.0065v.0055L4.016,2.247l-.0043-.0049a.0233.0233,0,0,0-.0151-.0063h0l-.0128.0031-.0057.0057.0013.001L3.9847,2.24l.0118-.0028h0a.0221.0221,0,0,1,.014.0058l.0041.0048.0032.004.0006,0h0l0-.0009,0-.0049V2.2434l0-.0063a.0245.0245,0,0,1,.01-.0156l.01-.006.0071-.0041L4.0484,2.21l.0039-.0027.0011-.0009.003-.0024,0,0,0-.0006V2.2024l-.0037.0029Z"/><polygon points="4.056 2.204 4.056 2.204 4.057 2.204 4.056 2.202 4.056 2.202 4.056 2.203 4.056 2.204"/><path d="M4.1071,2.2538l-.0013.0144-.004.0106,0,.001-.004.0053.0009.0014.0045-.0059.0005-.001.0042-.0111.0013-.0146.0005-.0089,0-.0069,0,0-.0008,0,0,0,0,.0064Z"/><rect x="4.1076" y="2.2375" width="0.0019" height="0.0012" transform="translate(-0.4202 1.0633) rotate(-14.0362)"/><polygon points="4.242 2.275 4.241 2.276 4.238 2.276 4.237 2.276 4.231 2.277 4.23 2.277 4.225 2.277 4.223 2.277 4.217 2.278 4.209 2.281 4.204 2.283 4.204 2.283 4.203 2.284 4.2 2.286 4.199 2.286 4.198 2.287 4.199 2.288 4.2 2.287 4.201 2.287 4.203 2.285 4.204 2.285 4.205 2.285 4.21 2.282 4.217 2.28 4.223 2.279 4.225 2.279 4.23 2.278 4.231 2.278 4.237 2.278 4.238 2.278 4.241 2.277 4.242 2.277 4.244 2.277 4.244 2.276 4.246 2.276 4.245 2.276 4.244 2.276 4.244 2.275 4.243 2.275 4.242 2.275"/><polygon points="4.244 2.276 4.245 2.276 4.246 2.276 4.246 2.276 4.245 2.275 4.244 2.275 4.244 2.275 4.244 2.276"/><polygon points="4.142 2.421 4.142 2.42 4.143 2.418 4.144 2.417 4.148 2.41 4.157 2.403 4.161 2.402 4.168 2.402 4.173 2.403 4.173 2.403 4.175 2.405 4.176 2.404 4.174 2.402 4.173 2.402 4.168 2.4 4.161 2.4 4.156 2.401 4.147 2.409 4.142 2.416 4.142 2.418 4.141 2.42 4.141 2.421 4.14 2.421 4.14 2.423 4.141 2.422 4.142 2.423 4.142 2.422 4.142 2.421"/><polygon points="4.14 2.423 4.14 2.423 4.142 2.423 4.142 2.423 4.141 2.422 4.14 2.423"/><path d="M4.1382,2.341l.0009,0,.0048-.0015.007-.0013a.0282.0282,0,0,1,.0119.0026.0578.0578,0,0,1,.0267.0238l.0007,0h0l.0007-.0006.0017-.0021.0008-.0008L4.1951,2.36l.0014-.0014.0069-.0054.0021-.0013a.033.033,0,0,1,.0207-.0038V2.3461a.0348.0348,0,0,0-.0218.004l-.002.0014-.0072.0055-.0014.0015L4.1924,2.36l-.0008.0007L4.19,2.3622a.0579.0579,0,0,0-.0267-.0231.0279.0279,0,0,0-.0126-.0028l-.0073.0013-.0049.0015-.0009,0-.003.0014.0011.0012Z"/><polygon points="4.247 2.432 4.247 2.425 4.248 2.418 4.247 2.413 4.245 2.409 4.243 2.405 4.241 2.403 4.24 2.404 4.242 2.406 4.244 2.409 4.246 2.413 4.246 2.418 4.246 2.425 4.246 2.432 4.246 2.436 4.246 2.436 4.247 2.436 4.247 2.436 4.248 2.436 4.247 2.436 4.247 2.432"/><polygon points="4.247 2.436 4.246 2.436 4.246 2.436 4.248 2.436 4.248 2.436 4.247 2.436 4.247 2.436"/><path d="M4.3214,2.4045,4.3183,2.403l-.002-.0008-.0039-.0015-.007-.0017H4.3047a.0145.0145,0,0,0-.0134.0024l-.0038.0042-.0012.0013h0V2.4047l0-.0027,0-.0021,0-.0027-.0007-.0053-.0021-.0047,0-.0007-.0031-.0043-.0005-.0005-.0042-.0033-.004-.002L4.261,2.3743v.0016l.0086.002.0037.0018.004.0032.0005.0005.0028.0038,0,.0008.0019.0043.0007.0051,0,.0027,0,.0023,0,.0025v.0012l0,.0028.0007.0005h0l.0008-.0006,0,0,0,0,.0014-.0015.0036-.004a.0128.0128,0,0,1,.012-.002H4.305l.0069.0017.0037.0014.0021.0009.0028.0013.0012.0005,0,0,.0006-.0007.0008,0-.0013-.0007Z"/><polygon points="4.322 2.407 4.323 2.407 4.324 2.406 4.324 2.406 4.323 2.406 4.322 2.407"/><path d="M3.9824,2.9492l.0008-.0256.0008-.0167.0007-.0141c.0015-.0388.001-.069.0006-.0889V2.8006c0-.0128,0-.0132,0-.014s.0006-.0048,0-.1032c-.0007-.0686-.0019-.1648-.0036-.2861L3.98,2.3965l.0007.05.0015.0019-.0013.001,0,0c.0013.0971.0022.1758.0028.2343.001.0983.0007.1015.0005.103a.1358.1358,0,0,0,0,.0143v.0032c0,.02.0008.05-.0007.0889l-.0006.014-.0008.0167-.0008.0257a.4053.4053,0,0,1-.0034.05l-.0041.0229v0l.0009-.0009.0005.0012v0l.0041-.023A.4088.4088,0,0,0,3.9824,2.9492Z"/><polygon points="3.981 2.396 3.98 2.396 3.98 2.396 3.981 2.397 3.981 2.396"/><path d="M4.0164,2.9876a.2032.2032,0,0,1-.0018-.0322V2.9509l-.0017-.04V2.91l-.0022-.0408-.0013-.0227c-.0014-.0273-.0018-.0463-.0024-.0752-.0012-.0574-.0024-.1168,0-.1908.0014-.0448.004-.09.0078-.1355l0,0-.0011-.0012.0015-.0014.004-.043-.0017,0c-.006.06-.01.1209-.012.18-.0024.074-.0011.1334,0,.1909.0006.0288.0009.0479.0024.0752l.0013.0227.0022.0408v.0015l.0018.04v.0044a.1948.1948,0,0,0,.0018.0325.0747.0747,0,0,0,.0072.0241l.0075.0116,0,0,0-.0007.0007,0h0l-.0075-.0116A.0743.0743,0,0,1,4.0164,2.9876Z"/><polygon points="4.019 2.399 4.017 2.399 4.017 2.4 4.019 2.399 4.019 2.399"/><path d="M4.0149,2.4423l0,.0024.0277-.0237.0227-.0172L4.064,2.4026,4.0414,2.42Z"/><polygon points="4.066 2.403 4.065 2.402 4.064 2.403 4.065 2.404 4.066 2.403"/><polygon points="4.014 2.445 4.015 2.445 4.015 2.442 4.013 2.444 4.014 2.445"/><path d="M4.038,2.473a.1582.1582,0,0,0-.022.0619.22.22,0,0,0-.002.0515l.0025.0484c.0012.0265.0026.0539.0044.0808l.0022.0332a.4739.4739,0,0,0,.0083.0776.5094.5094,0,0,0,.0166.0618l.0058.016c.0065.0182.0147.0409.0192.0582l.0018.0075.0032.0141,0,.001.003.0179c0,.0072,0,.01-.0019.0137a.0187.0187,0,0,1-.014.0059.0291.0291,0,0,1-.0165-.0037v0H4.0472v0l-.0079.0046L4.031,3.0228l.0005.0006-.0013.001-.0007-.0009A.03.03,0,0,1,4,3.0407a.03.03,0,0,1-.0246-.0188l0,.0011-.0016,0,0-.001-.01.008a.0352.0352,0,0,1-.0213.0082c-.0132-.0013-.02-.0182-.0208-.0191h0L3.92,3.0192V3.0187a.0232.0232,0,0,1-.0248.0045.0242.0242,0,0,1-.0127-.0157.0264.0264,0,0,1,0-.0094.0293.0293,0,0,1,.0056-.013v0a.7268.7268,0,0,0,.0434-.13,1.025,1.025,0,0,0,.028-.1729c.0031-.0368.0033-.0608.0036-.0911A.7338.7338,0,0,0,3.9579,2.51.1066.1066,0,0,0,3.94,2.454a.088.088,0,0,0-.0171-.0174l-.0008.0014a.0857.0857,0,0,1,.0166.0169.1063.1063,0,0,1,.0178.0553.7622.7622,0,0,1,.0051.0806c0,.03,0,.0543-.0036.091a1.02,1.02,0,0,1-.028.1727.753.753,0,0,1-.0431.13h0a.0317.0317,0,0,0-.0059.0137.0239.0239,0,0,0,0,.01.0252.0252,0,0,0,.0135.0169A.025.025,0,0,0,3.9205,3.02c.0018.004.0092.0178.0217.0191a.0358.0358,0,0,0,.0223-.0085l.0092-.0075a.0315.0315,0,0,0,.0257.0189l.003,0a.0321.0321,0,0,0,.0285-.0181l.0088.0007L4.0482,3.02a.03.03,0,0,0,.0173.0038.02.02,0,0,0,.0151-.0066.0217.0217,0,0,0,.0022-.0147L4.08,2.9846l0-.0009L4.0764,2.97,4.0746,2.962c-.0045-.0174-.0127-.04-.0193-.0583L4.05,2.8877a.4549.4549,0,0,1-.0249-.139l-.0022-.0332c-.0018-.0269-.0032-.0543-.0044-.0808l-.0025-.0484a.2178.2178,0,0,1,.002-.0512.1559.1559,0,0,1,.0218-.0612.1428.1428,0,0,1,.0528-.0482L4.09,2.4251A.1443.1443,0,0,0,4.038,2.473Z"/><polygon points="4.092 2.424 4.09 2.425 4.092 2.426 4.092 2.426 4.092 2.424"/><polygon points="3.922 2.436 3.921 2.438 3.922 2.438 3.923 2.437 3.922 2.436"/><polygon points="3.974 3.02 3.973 3.021 3.973 3.022 3.973 3.023 3.975 3.023 3.975 3.022 3.975 3.022 3.974 3.02"/><polygon points="4.03 3.022 4.03 3.023 4.029 3.024 4.03 3.024 4.031 3.023 4.031 3.023 4.031 3.023 4.03 3.022"/><path d="M3.9238,2.9807a.7034.7034,0,0,0,.0447-.144.2871.2871,0,0,0,.0033-.04H3.97a.2815.2815,0,0,1-.0033.0393.7046.7046,0,0,1-.0446.1437.0537.0537,0,0,0-.005.0224l.0026.0162,0,0,.0009-.0008,0,.0011h0l-.0026-.0162A.0519.0519,0,0,1,3.9238,2.9807Z"/><polygon points="3.921 3.017 3.92 3.018 3.92 3.019 3.92 3.019 3.921 3.019 3.921 3.019 3.921 3.019 3.921 3.017"/><path d="M4.0446,2.9457a.3809.3809,0,0,0-.02-.0749l-.0015.0006a.3768.3768,0,0,1,.02.0745.3719.3719,0,0,1,.0042.073l0,0,0,0,.0006,0,0,0A.3725.3725,0,0,0,4.0446,2.9457Z"/><polygon points="4.048 3.018 4.047 3.019 4.047 3.019 4.047 3.019 4.049 3.019 4.049 3.019 4.048 3.019 4.048 3.018"/><path d="M3.98,2.4491V2.4464A.1778.1778,0,0,0,3.9554,2.42L3.936,2.4056,3.93,2.4038a.1731.1731,0,0,1,.0242.0175A.1708.1708,0,0,1,3.98,2.4491Z"/><polygon points="3.931 2.402 3.93 2.404 3.93 2.404 3.936 2.406 3.931 2.402"/><polygon points="3.98 2.449 3.982 2.448 3.98 2.446 3.98 2.449 3.98 2.449"/><path d="M4.6168,2.82a.3238.3238,0,0,1-.0191-.0993l-.0009-.0237L4.59,2.72l-.0092.0245a.23.23,0,0,1-.027.0448.1467.1467,0,0,1-.0162.0184l-.0236.0251c-.0263.03-.0317.04-.0334.052a.0653.0653,0,0,0,.0053.0356v0a.3219.3219,0,0,0,.0177.0313.3159.3159,0,0,0,.03.04l.0045-.007A.3085.3085,0,0,1,4.51,2.9475a.3228.3228,0,0,1-.0166-.0292L4.49,2.92l-.0034-.0073.004-.002a.054.054,0,0,1-.0023-.0247c.0012-.0084.0043-.0172.0315-.0479l.0233-.0247A.1636.1636,0,0,0,4.56,2.7942a.2431.2431,0,0,0,.0279-.0464l.0029-.0069a.3241.3241,0,0,0,.0183.0822l.0071.0179a.14.14,0,0,1,.0145.0612.0883.0883,0,0,1-.013.0484.0786.0786,0,0,1-.03.026l.0013.0064,0,.0017a.086.086,0,0,0,.0352-.03.0968.0968,0,0,0,.0144-.0528.1487.1487,0,0,0-.0151-.0643Z"/><path d="M4.5837,2.9784l.0039-.0018-.0031-.0135-.0054-.0213-.004-.0161h0l-.008.0016,0-.0011-.0119.0285a.3285.3285,0,0,1-.0167.03l.0035.0039-.006.0055-.002-.0024a.2876.2876,0,0,1-.0324.0406.2954.2954,0,0,1-.1392.0764.464.464,0,0,1-.1283.01c-.0413,0-.0834-.0049-.0878-.0054a.0106.0106,0,0,0-.01.0008c-.0045.0032-.0039.0085-.0028.02l0,.0027,0,.0053.0009.0093a.5563.5563,0,0,1,.0007.0707l.0081-.0012c.0009-.0315.0008-.0531,0-.0653l-.0052-.0008.0012-.008.0031,0-.0005-.0057,0-.0056,0-.0026-.0005-.0128.003,0,.0008,0s.0452.0053.0891.0055a.4681.4681,0,0,0,.13-.0107.3035.3035,0,0,0,.143-.0785.3183.3183,0,0,0,.055-.08L4.57,2.94l.0009.0037.0054.0211.0044.02.0025.0112a.244.244,0,0,0,.0166.049v0a.0521.0521,0,0,1,.0056.0159.0637.0637,0,0,1,.0007.011S4.6,3.133,4.5037,3.19a.4694.4694,0,0,1-.1638.0551.7473.7473,0,0,1-.1187.0135V3.267a.7546.7546,0,0,0,.12-.0137.4753.4753,0,0,0,.1664-.056.2611.2611,0,0,0,.0886-.08.1052.1052,0,0,0,.0182-.0447A.08.08,0,0,0,4.6138,3.06a.0631.0631,0,0,0-.0064-.0183v0a.233.233,0,0,1-.0159-.0473l-.0021-.0091-.0024.0011Z"/><polygon points="4.542 2.989 4.538 2.985 4.534 2.992 4.536 2.994 4.542 2.989"/><polygon points="4.588 2.977 4.584 2.978 4.587 2.986 4.589 2.985 4.589 2.983 4.588 2.977"/><path d="M4.5333,2.8957c.0087-.0056.0118-.0075.015-.0069s.0123.0055.0187.0375l0-.001.0045-.0129.0032.0133h0C4.57,2.898,4.5612,2.8828,4.55,2.8808c-.0065-.0012-.0112.0019-.0208.0081l-.0138.0086-.0244.0132.0024.0064.0006.0012.0256-.0138Z"/><polygon points="4.491 2.911 4.487 2.913 4.49 2.92 4.494 2.918 4.493 2.917 4.491 2.911"/><polygon points="4.572 2.912 4.567 2.925 4.567 2.926 4.567 2.927 4.575 2.926 4.575 2.926 4.575 2.926 4.572 2.912"/><path d="M3.8361,3.2222l.0006-.0033a.1937.1937,0,0,1-.0457-.0126c-.0056-.0027-.02-.01-.0212-.02a.0164.0164,0,0,1,.0042-.0109c.0052-.007.0133-.01.0413-.016l.0277-.0053V3.1461l-.0293.0057c-.0283.0059-.039.01-.0461.019a.0244.0244,0,0,0-.0058.0165l0,.002v0H3.77l0,.0134a.0675.0675,0,0,0,.0177.0112.7839.7839,0,0,0,.2092.0258H4a.6534.6534,0,0,0,.2027-.0257l.0114-.0085V3.1858l-.0015.0072a.0291.0291,0,0,1-.0138.0135.1954.1954,0,0,1-.0545.015l0,.0081-.0081,0,0-.0067a1.1217,1.1217,0,0,1-.1389.0086,1.2278,1.2278,0,0,1-.1522-.011l-.0007.0036Z"/><path d="M4.2125,3.1784l0,.0006.001.0052h.0081L4.22,3.1762l0-.001c-.0057-.0129-.03-.02-.0326-.02l-.0445-.0068,0,.0029.0006.0054.0417.0063C4.1916,3.1642,4.209,3.1706,4.2125,3.1784Z"/><path d="M3.3828,2.972a.078.078,0,0,1-.0311-.0536C3.35,2.91,3.351,2.9049,3.3582,2.87l.0057-.0271c.0068-.0321.0127-.06.0168-.0816l.0049-.027a.2111.2111,0,0,0,.0167.0349.4457.4457,0,0,0,.0463.0577l.0026.0029c.0261.03.0369.043.04.0635a.0783.0783,0,0,1,.0012.0168L3.486,2.9079l-.0173-.0085L3.45,2.8878c-.008-.005-.0113-.0071-.0172-.0064a.0294.0294,0,0,0-.0186.0127.0538.0538,0,0,0-.0092.0385l0,.0034,0-.0007.0079.0019-.004.0157a.1447.1447,0,0,0,.0271.0431.3271.3271,0,0,0,.0732.0707.3782.3782,0,0,0,.1341.0579.4608.4608,0,0,0,.13.0056.5946.5946,0,0,0,.06-.01h0l.0092.0006c.0031.0025.0029.0086.0027.015l-.0012.0094.007,0V3.15l.0022-.0139a.0251.0251,0,0,0-.0058-.0216.0187.0187,0,0,0-.0159-.0022H3.831a.5671.5671,0,0,1-.0588.01.4472.4472,0,0,1-.1271-.0054A.37.37,0,0,1,3.5139,3.06a.3137.3137,0,0,1-.071-.0685L3.44,2.9941l-.0057-.0056.0031-.0033a.0967.0967,0,0,1-.0251-.0533A.0458.0458,0,0,1,3.42,2.8991a.0226.0226,0,0,1,.0132-.01l.0119.0053.0194.0117.0182.009.0089.0031.0017-.0024L3.5,2.9206l0,0h0l.0005-.0049a.0915.0915,0,0,0-.001-.024c-.0041-.0227-.0153-.0357-.0424-.0673l-.0026-.003a.4368.4368,0,0,1-.0454-.0566.2054.2054,0,0,1-.0212-.0487l-.005-.0174L3.38,2.7171l-.0074.043c-.0042.0217-.01.0494-.0168.0814L3.35,2.8686a.1316.1316,0,0,0-.0066.0512.0859.0859,0,0,0,.0345.0589l.0129.0068.0024-.0077Z"/><polygon points="4.144 3.23 4.144 3.221 4.136 3.223 4.136 3.229 4.144 3.23"/><polygon points="4.143 3.148 4.14 3.147 4.138 3.155 4.144 3.156 4.143 3.151 4.143 3.148"/><path d="M3.6235,3.24a.402.402,0,0,1-.13-.0391h0a.4057.4057,0,0,1-.0924-.0776.1659.1659,0,0,1-.0185-.027c-.0123-.0219-.0117-.0316-.01-.0376l.0019-.0046v0a.3925.3925,0,0,0,.0213-.057c.0048-.0144.0091-.029.013-.0438L3.4049,2.936c-.0033.014-.0072.0279-.0114.0418l.004.0015-.0027.0076-.0037-.0014-.0028.0087a.384.384,0,0,1-.0208.0558v0l-.0025.0059c-.0023.0075-.0033.0194.01.044a.1689.1689,0,0,0,.02.0284.4655.4655,0,0,0,.0656.06.2539.2539,0,0,0,.029.0191v0a.4147.4147,0,0,0,.1325.04,1.0716,1.0716,0,0,0,.14.0177l0-.0082A1.0478,1.0478,0,0,1,3.6235,3.24Z"/><polygon points="3.769 3.258 3.769 3.261 3.77 3.258 3.769 3.258"/><path d="M3.4051,2.9353l0,.0007.0041.0169.004-.0157Z"/><polygon points="3.397 2.979 3.393 2.978 3.391 2.985 3.395 2.987 3.397 2.979"/><polygon points="4.214 3.184 4.214 3.184 4.214 3.186 4.214 3.184"/><path d="M3.77,3.2332l0-.0308a.0244.0244,0,0,1-.0079-.0131l-.0006.0438c0,.0094,0,.0171,0,.0242l.0081.0005C3.7694,3.2507,3.7694,3.2428,3.77,3.2332Z"/><path d="M4.2146,3.2591l.0066,0,.0006-.0747h0A.0338.0338,0,0,1,4.22,3.196l-.0061.0092-.0006.0589,0,.0335-.0019.0092-.0039.0059c-.0438.0474-.209.04-.2109.04-.138-.0018-.2177-.0282-.2227-.0522l-.0014-.01L3.77,3.261l0,.0049-.0077,0,.002.026.0016.0106c.0044.0211.0415.0343.072.0417a.74.74,0,0,0,.1584.0168l.0283.0006c.05,0,.1535-.0049.1887-.043L4.218,3.31l.0026-.0124,0-.0307-.0064,0Z"/><polygon points="4.221 3.259 4.215 3.259 4.215 3.267 4.221 3.267 4.221 3.264 4.221 3.259"/><path d="M3.77,3.2024l0-.0134H3.762v0A.0244.0244,0,0,0,3.77,3.2024Z"/><path d="M4.2137,3.1858v.0194L4.22,3.196a.0338.0338,0,0,0,.0021-.0118H4.2137Z"/><polygon points="3.769 3.261 3.769 3.258 3.761 3.257 3.762 3.266 3.769 3.266 3.769 3.261"/><path d="M3.85,3.1531l-.0025,0-.0047.0009a.3108.3108,0,0,1-.002.0373l-.0043.0272.008.0014.0044-.0277a.3563.3563,0,0,0,.002-.0426l0,.0007Z"/><polygon points="3.843 3.146 3.844 3.146 3.844 3.145 3.843 3.145 3.843 3.146"/><polygon points="3.836 3.222 3.844 3.224 3.845 3.22 3.837 3.219 3.836 3.222"/><polygon points="3.844 3.145 3.844 3.146 3.843 3.146 3.843 3.154 3.848 3.154 3.85 3.153 3.851 3.151 3.851 3.15 3.851 3.145 3.844 3.145"/><path d="M3.4918,2.9185c-.0078.0116-.0161.0229-.0249.0337s-.019.0224-.0292.033l.0046.0056.0006.0007c.0106-.0109.0208-.0224.03-.0343s.0184-.0238.0267-.0362L3.4955,2.92Z"/><polygon points="3.493 2.916 3.492 2.918 3.495 2.92 3.5 2.921 3.5 2.921 3.493 2.916"/><polygon points="3.438 2.985 3.435 2.989 3.44 2.994 3.443 2.992 3.442 2.991 3.438 2.985"/><path d="M3.4735,3.1156l.0218-.0237-.0091-.0084-.023.025-.0075.0073-.006.0017-.0073-.0038-.0045-.0072.0013-.0071.0067-.0078.0225-.0245-.0091-.0084-.0222.0241-.01.0123-.002.0074.0017.0087.0084.0106.01.0066.0087.0012.0079-.0032Z"/><path d="M3.4523,3.1315,3.4448,3.13l-.01-.007L3.4254,3.112l-.0019-.01.0023-.0082.01-.0126.0234-.0255.0119.0109-.0238.0258L3.4408,3.1l-.001.0057.0039.0062.0062.0033.0047-.0013.0072-.0071.0243-.0264.0118.011-.0231.0251-.0116.011-.0088.0035Zm.0071-.07-.021.0228L3.429,3.096l-.0018.0066.0016.0079.008.01.0093.0062.0079.0011.0071-.0028.011-.0106h0l.0206-.0223-.0064-.0059L3.4645,3.11l-.0077.0075L3.45,3.1193l-.0084-.0042-.0051-.0083.0016-.0083L3.4445,3.09l.0213-.0231Z"/><polygon points="3.533 3.118 3.51 3.152 3.512 3.104 3.502 3.097 3.468 3.148 3.477 3.155 3.5 3.122 3.497 3.169 3.508 3.176 3.542 3.125 3.533 3.118"/><path d="M3.5083,3.1782,3.4956,3.17l.0019-.0416-.02.0292L3.465,3.1486l.0367-.0538.0124.0085-.0021.0425.0205-.03.0125.0085Zm-.0089-.01.0079.0054L3.54,3.1254,3.5334,3.121l-.0258.0378L3.51,3.1052,3.5027,3.1,3.47,3.1476l.0065.0045.0252-.037Z"/><polygon points="3.551 3.129 3.522 3.183 3.533 3.189 3.562 3.135 3.551 3.129"/><path d="M3.5334,3.1916l-.0142-.0077L3.55,3.1267l.0142.0077Zm-.0091-.0092.0076.0041L3.56,3.1359l-.0076-.0042Z"/><path d="M3.6086,3.1737a.0249.0249,0,0,0-.0017-.0114L3.6,3.1536l-.01-.0055L3.569,3.14l-.0229.0569.0216.0088.0107.0028.01-.0013.01-.0076.0066-.0114ZM3.5963,3.172l-.0029.0106-.0054.01-.0052.0043-.0056.0005L3.57,3.1951l-.0086-.0034.0152-.0378.0052.0021L3.591,3.16l.0043.0049Z"/><path d="M3.5805,3.21H3.5783l-.0113-.003-.0233-.0094.0243-.0605.0227.0092.0109.0057.007.01a.0287.0287,0,0,1,.0019.0122h0l-.0037.0148L3.6,3.2005l-.0109.0082Zm-.032-.0146.02.008.01.0028.0091-.0012.01-.0071.0063-.0109.0034-.0136-.0016-.0107L3.5993,3.155l-.01-.0052L3.57,3.1421Zm.0306.0038-.0022,0-.0076-.0024-.01-.0041.0166-.0412.0069.0028.01.0045.0048.0056.0013.0077h0l-.0031.0112-.0056.01-.0061.0049Zm-.0153-.0088.0069.0028.0067.0021.0048,0,.0044-.0037.0051-.0095.0028-.01-.0009-.006L3.59,3.1619l-.0089-.0042-.0035-.0014Z"/><path d="M3.639,3.1637l-.0357.0554.0129.0027.0078-.0127.024.0048.0025.0148.0132.0027-.0119-.0651ZM3.63,3.2l.0126-.0207.0038.024Z"/><path d="M3.6661,3.2337,3.6489,3.23l-.0025-.0147-.0215-.0043-.0078.0126L3.6,3.22l.0378-.0588.0153.0031Zm-.014-.0066.0093.0019L3.65,3.1678l-.01-.0021-.0334.0522.0089.0018.0078-.0127.0265.0054Zm-.0037-.0217L3.6268,3.201l.0166-.0273Zm-.0157-.007.0112.0023-.0025-.0164Z"/><path d="M3.7208,3.1786l-.0091-.0059L3.7,3.1712l-.0227-.0006-.0016.0614.0233.0007A.0383.0383,0,0,0,3.71,3.2316l.0088-.0046.0069-.0107.0022-.013a.0483.0483,0,0,0-.0016-.0146Zm-.0056.0238-.0016.0112L3.71,3.22l-.005.0024-.0076,0-.0092,0L3.69,3.1813l.0055,0,.01.0009.0057.003.0033.006A.0369.0369,0,0,1,3.7152,3.2024Z"/><path d="M3.7008,3.2345H3.699l-.0252-.0007.0017-.0651L3.7,3.1694l.0121.0016.01.0064.006.0108a.0455.0455,0,0,1,.0017.0151l-.0023.0137L3.72,3.2283l-.01.0051ZM3.6776,3.23l.0215.0006A.0377.0377,0,0,0,3.71,3.23l.0081-.0043.0064-.01.0021-.0125a.0411.0411,0,0,0-.0015-.0139L3.7194,3.18l-.0083-.0054L3.7,3.1731l-.0208-.0006ZM3.7,3.2241H3.6976l-.0111,0,.0012-.0444.0074,0,.0106.001.0065.0035.0038.0068a.0377.0377,0,0,1,.001.0116l-.0016.0117-.004.0067-.0058.0028ZM3.69,3.22l.0074,0,.007,0L3.709,3.218l.0029-.005.0014-.0106h0a.03.03,0,0,0-.0009-.01L3.71,3.1867l-.0048-.0025-.01-.0008-.0037,0Z"/><path d="M3.9661,3.2774a.0229.0229,0,0,0-.0043-.0142l-.0105-.0071L3.9338,3.255H3.91v.073h.0148V3.3h.01l.0153-.001.0076-.0035.0062-.0072Zm-.0169.0059-.0046.0036-.0117.0011h-.008V3.2673H3.932l.0106,0,.0059.0032.0024.0066Z"/><path d="M3.9267,3.33H3.9083V3.2531h.0255l.018.0012a.0213.0213,0,0,1,.0115.0078.0242.0242,0,0,1,.0046.0153L3.9652,3.29l-.0067.0078L3.95,3.3012l-.0157.0011H3.9267ZM3.912,3.3261h.011V3.2986h.0115l.0149-.001.007-.0032.0056-.0066.0022-.01A.0208.0208,0,0,0,3.96,3.2643l-.01-.0065-.017-.001H3.912ZM3.9329,3.29h-.01V3.2655h.009l.0109.0005L3.95,3.27l.0028.0078-.002.0067-.0054.0043Zm-.0062-.0037h.0062l.011-.001.0038-.003h0l.0013-.0046-.0019-.0053L3.9423,3.27l-.01,0H3.9267Z"/><path d="M3.9916,3.255l-.0284.073h.0156l.006-.0166H4.014L4.02,3.328h.016l-.0292-.073Zm-.0022.0441.01-.0271.01.0271Z"/><path d="M4.0392,3.33h-.02l-.0064-.0166H3.9861L3.98,3.33h-.02l.03-.0767h.0181Zm-.0175-.0037h.012l-.0278-.0693h-.013l-.027.0693h.0116l.006-.0166h.0318Zm-.01-.0252H3.9867l.0125-.0343Zm-.02-.0037h.0146l-.0074-.02Z"/><polygon points="4.096 3.266 4.096 3.255 4.042 3.255 4.042 3.267 4.076 3.267 4.038 3.315 4.038 3.328 4.097 3.328 4.097 3.316 4.056 3.316 4.096 3.266"/><path d="M4.0991,3.33h-.063V3.314l.0363-.0448H4.04V3.2531h.0571v.014L4.06,3.3138h.04ZM4.04,3.3261h.0556V3.3175H4.0518l.042-.0517v-.009h-.05v.0087H4.08l-.04.05Z"/><path d="M4.2331,3.2429a.0188.0188,0,0,0,.0146.0031L4.26,3.241l.0052-.0094a.0407.0407,0,0,0,0-.0119L4.259,3.1813l-.0122.0017.0056.0393a.019.019,0,0,1,0,.01l-.0055.0031L4.24,3.233l-.0026-.0071-.0114.0029A.0211.0211,0,0,0,4.2331,3.2429Z"/><path d="M4.2438,3.2481,4.232,3.2444h0a.0225.0225,0,0,1-.0077-.0153l0-.0016.015-.0039,0,.0019.0022.0063.0048.0018L4.25,3.2314a.0163.0163,0,0,0,0-.0088l-.0059-.0412.0159-.0022.0057.04a.0412.0412,0,0,1,0,.0124l-.0058.01-.0129.0054Zm-.01-.0066a.0164.0164,0,0,0,.0131.0026L4.2583,3.24l.0047-.0084a.0361.0361,0,0,0,0-.0112l-.0053-.0366-.0085.0012.0053.0374a.02.02,0,0,1,0,.0111l-.0068.0042-.0082-.0031-.0026-.006-.0079.002.0061.0113Z"/><path d="M4.2812,3.2268l.0048.0059.0081.0037a.0344.0344,0,0,0,.0135-.0008l.0112-.0043.006-.0064.002-.0083-.0022-.0155L4.3179,3.17l-.0121.0025.007.0333.0016.01-.002.0059-.0074.0037-.0084,0L4.2916,3.22,4.289,3.21l-.0069-.0326L4.27,3.18l.0068.0321Z"/><path d="M4.2982,3.2386l-.0045,0-.0089-.0041L4.28,3.2275h0L4.275,3.2121l-.0072-.0338.0158-.0034.0072.0344.0025.01.0041.0042.0073,0L4.311,3.22l.0016-.0046-.0016-.01-.0074-.0351.0158-.0033.007.0333.0023.0159-.0023.0092L4.32,3.2329l-.0118.0045ZM4.2829,3.226l.0043.0053.0073.0033a.0345.0345,0,0,0,.0127-.0008l.0105-.004.0055-.0058.0018-.0074-.0022-.0151-.0063-.03-.0085.0018.0066.0314.0017.0106-.0025.0071-.0084.0044-.01-.0007L4.29,3.22l-.0027-.01-.0065-.0308-.0085.0018.0064.03Z"/><path d="M4.3407,3.1927a.0332.0332,0,0,0,.0152.0014l.01-.0006.0051.0011.0023.0031-.001.0066L4.3649,3.21H4.3554l-.007-.0071-.0111.0049a.0237.0237,0,0,0,.0121.0126A.0264.0264,0,0,0,4.3681,3.22L4.38,3.2132l.0057-.0091,0-.01L4.38,3.1852l-.0084-.0037a.0542.0542,0,0,0-.0141,0,.03.03,0,0,1-.0121,0l-.003-.0029.0007-.0043L4.35,3.1692l.0081-.0005.0054.0054L4.3755,3.17a.0177.0177,0,0,0-.01-.0109.0254.0254,0,0,0-.0181.0007l-.0108.0058-.0053.0083,0,.0092A.0162.0162,0,0,0,4.3407,3.1927Z"/><path d="M4.3571,3.2234l-.0084-.0016a.0253.0253,0,0,1-.013-.0135l-.0008-.0017L4.3492,3.2l.0008.0015.0061.0063.0082,0,.0068-.0045.0008-.005L4.37,3.1962l-.0042-.0009-.01.0006A.0342.0342,0,0,1,4.34,3.1944a.0178.0178,0,0,1-.01-.011l0-.01.0059-.0093.0114-.0062a.0272.0272,0,0,1,.0194-.0006.0191.0191,0,0,1,.0111.0119l.0007.0017-.0149.0057L4.3623,3.175l-.0044-.0045-.0069,0-.0064.0041,0,.0026L4.346,3.18a.0306.0306,0,0,0,.0113,0,.0645.0645,0,0,1,.0146,0l.0093.0042.0059.0094,0,.0113-.0063.01-.0126.0067ZM4.34,3.2085a.0207.0207,0,0,0,.01.01.0251.0251,0,0,0,.0174-.0006l.0113-.006.0051-.0082,0-.0093-.0048-.0076-.0075-.0034a.0612.0612,0,0,0-.0137,0,.0321.0321,0,0,1-.0129,0l-.004-.0041.0009-.0059L4.35,3.1675l.0094-.0005.0055.0048.0084-.0032-.0084-.0081a.024.024,0,0,0-.0168.0007l-.01.0055-.0047.0074,0,.0081a.0142.0142,0,0,0,.0083.0088.0323.0323,0,0,0,.0143.0012l.01-.0006.006.0014.0032.0041-.0012.0082-.0087.006a.0154.0154,0,0,1-.0108,0l-.007-.0064Z"/><polygon points="4.394 3.153 4.417 3.198 4.428 3.193 4.405 3.147 4.422 3.139 4.417 3.13 4.373 3.151 4.378 3.161 4.394 3.153"/><path d="M4.416,3.2008l-.0226-.0457-.0164.0081-.0062-.0127.0471-.0232.0062.0126-.0163.0081.0226.0457ZM4.395,3.15l.0226.0458.0078-.0039-.0226-.0457.0163-.0081-.0029-.006-.04.02.003.006Z"/><polygon points="4.463 3.174 4.433 3.12 4.422 3.127 4.452 3.18 4.463 3.174"/><path d="M4.4515,3.1826,4.42,3.1258l.0141-.0079.0319.0568Zm-.0269-.0554.0283.05.0076-.0042-.0283-.05Z"/><path d="M4.4758,3.1581a.0264.0264,0,0,0,.0215-.0038.0245.0245,0,0,0,.0107-.03l-.0122.0033a.0186.0186,0,0,1,.0011.0111l-.0055.0072a.0135.0135,0,0,1-.0118.0018.0259.0259,0,0,1-.0125-.0117A.024.024,0,0,1,4.462,3.12a.0145.0145,0,0,1,.0067-.01l.0086-.0022.0079.0039.0087-.0091-.0114-.0061a.0253.0253,0,0,0-.019.0043.0272.0272,0,0,0-.0129.0184.0336.0336,0,0,0,.0062.0243A.0321.0321,0,0,0,4.4758,3.1581Z"/><path d="M4.4823,3.1608,4.4754,3.16a.0333.0333,0,0,1-.02-.0157.0351.0351,0,0,1-.0065-.0256.0289.0289,0,0,1,.0137-.02.0278.0278,0,0,1,.02-.0046l.0123.0066.0015.0013-.0114.0118-.0013-.0013-.0068-.0034-.0074.002L4.4639,3.12a.022.022,0,0,0,.0047.0144.0244.0244,0,0,0,.0115.0109l.01-.0015.0047-.0062a.0173.0173,0,0,0-.001-.01l-.0007-.0018.0158-.0043,0,.0017a.0293.0293,0,0,1,0,.0187.0282.0282,0,0,1-.0118.0138A.0287.0287,0,0,1,4.4823,3.1608Zm-.0041-.0632-.0137.0044a.0255.0255,0,0,0-.0121.0172.0318.0318,0,0,0,.006.023.03.03,0,0,0,.0179.0142.0243.0243,0,0,0,.03-.03l-.0085.0023,0,.01-.0062.0083a.0156.0156,0,0,1-.0134.002.0272.0272,0,0,1-.0135-.0125A.0256.0256,0,0,1,4.46,3.12a.0157.0157,0,0,1,.0075-.0114l.01-.0025.0076.0031.0061-.0064-.009-.0044Z"/><rect x="4.5084" y="3.073" width="0.0124" height="0.0614" transform="translate(-0.9612 3.2778) rotate(-36.329)"/><path d="M4.5275,3.1347l-.0387-.0524.013-.01.0386.0524ZM4.494,3.0831l.0342.0464.007-.0051L4.501,3.0779Z"/><path d="M4.5547,3.112l-.0053-.0139.0185-.0161.0132.007.01-.0088-.0588-.03-.01.0086.0222.0621Zm.0034-.0352-.0126.011-.0087-.0226Z"/><path d="M4.5439,3.1238,4.52,3.058l.0118-.01.0624.0321-.0132.0115-.0132-.007-.0166.0144.0053.0138Zm-.0192-.0647.0209.0583.0069-.006-.0053-.0138L4.5677,3.08l.0132.007.0071-.0062-.0553-.0284Zm.02.0318-.0114-.03.0281.0154ZM4.54,3.0692l.006.0155.0086-.0075Z"/><polygon points="0 0 1.995 2.594 0 5.188 0 0" fill="#0073ce"/></svg>