<svg xmlns="http://www.w3.org/2000/svg" viewBox="0 0 7.9818 5.1882"><path d="M3.7744,1.3127V0H3.3416V1.4683A1.2912,1.2912,0,0,1,3.7744,1.3127Z" fill="#ffd116"/><path d="M3.3416,3.72V5.1882h.4328V3.8754A1.289,1.289,0,0,1,3.3416,3.72Z" fill="#ffd116"/><path d="M3.9909,3.8935a1.3087,1.3087,0,0,1-.2165-.0181V5.1882h.4329V3.8754A1.3084,1.3084,0,0,1,3.9909,3.8935Z"/><path d="M3.9909,1.2947a1.3084,1.3084,0,0,1,.2164.018V0H3.7744V1.3127A1.3087,1.3087,0,0,1,3.9909,1.2947Z"/><path d="M4.2073,3.8754V5.1882H4.64V3.72A1.2916,1.2916,0,0,1,4.2073,3.8754Z" fill="#fff"/><path d="M4.64,1.4683V0H4.2073V1.3127A1.2917,1.2917,0,0,1,4.64,1.4683Z" fill="#fff"/><path d="M7.9818,1.9448v0H5.1169a1.29,1.29,0,0,1,.1553.4325h2.71V1.9448Z" fill="#ffd116"/><path d="M2.8649,1.9452H0v.4325H2.71A1.2885,1.2885,0,0,1,2.8649,1.9452Z" fill="#ffd116"/><path d="M2.6915,2.5941a1.3066,1.3066,0,0,1,.018-.2164H0v.4328H2.71A1.3084,1.3084,0,0,1,2.6915,2.5941Z"/><path d="M5.29,2.5941a1.2977,1.2977,0,0,1-.0181.2164h2.71V2.3777h-2.71A1.2959,1.2959,0,0,1,5.29,2.5941Z"/><path d="M2.71,2.8105H0V3.243H2.8649A1.29,1.29,0,0,1,2.71,2.8105Z" fill="#fff"/><path d="M5.1169,3.243H7.9818v0h0V2.8105h-2.71A1.2921,1.2921,0,0,1,5.1169,3.243Z" fill="#fff"/><path d="M3.3416,1.4683V0H0V1.9452H2.8649A1.3056,1.3056,0,0,1,3.3416,1.4683Z" fill="#00703f"/><path d="M2.8649,3.243H0V5.1882H3.3416V3.72A1.3053,1.3053,0,0,1,2.8649,3.243Z" fill="#00703f"/><path d="M5.1169,3.243A1.3063,1.3063,0,0,1,4.64,3.72V5.1882H7.9818V3.243Z" fill="#00703f"/><path d="M5.1169,1.9452H7.9818V0H4.64V1.4683A1.3056,1.3056,0,0,1,5.1169,1.9452Z" fill="#00703f"/><path d="M4.2041,3.0469c.0027,0,.01-.0029.02-.0233a.16.16,0,0,0,.0166-.0673.1132.1132,0,0,1-.0376-.0118.0955.0955,0,0,1-.0177.0469l-.01.0117a.0456.0456,0,0,0,.0035.0212C4.1837,3.0334,4.1938,3.0477,4.2041,3.0469Z" fill="#00703f"/><path d="M4.0809,2.9a.064.064,0,0,0,.0016.0251c.0029.0109.0115.0316.0232.0322h.0005c.0086,0,.016-.0112.0218-.02a.1037.1037,0,0,0,.0164-.0532c-.0156-.02-.0294-.0374-.0452-.0612a.1371.1371,0,0,1-.0145.0705Z" fill="#00703f"/><path d="M4.1575,3.0077c.0094.0013.0189-.0115.0246-.0191a.09.09,0,0,0,.017-.0465.2075.2075,0,0,1-.05-.053.1067.1067,0,0,1-.0168.05l-.0026.0039a.1194.1194,0,0,0,.0052.028C4.1385,2.9835,4.1457,3.0061,4.1575,3.0077Z" fill="#00703f"/><path d="M4.0263,3.057l-.0007.0122a.0345.0345,0,0,0,.0008.0158c.0025.0071.0091.0132.0222.0253l.0072.0041c.0051,0,.0093-.005.0114-.0082l-.0088-.0117A.073.073,0,0,1,4.05,3.0619a.3832.3832,0,0,1-.0024-.0389l-.0028,0-.01-.0061-.008.0113C4.0269,3.0375,4.0267,3.0473,4.0263,3.057Z" fill="#00703f"/><path d="M4.105,2.4106l-.0008,0-.0018,0-.0158-.0089-.0045-.0033-.0113-.011.0018.02,0,.004c.0009.0065.0014.01,0,.0127a.0806.0806,0,0,0,.0106.0346c.0125.0213.0382.0415.05.0349s.0087-.0334.0068-.0443A.376.376,0,0,1,4.105,2.4106Z" fill="#00703f"/><path d="M4.1411,3.1226c.01.0013.0206-.0138.0261-.0218a.12.12,0,0,0,.0195-.0576.0618.0618,0,0,1-.0113-.017.0518.0518,0,0,1-.004-.0187.0213.0213,0,0,1-.0126.005h-.002l-.0087-.0042a.0429.0429,0,0,1-.0172.0245l-.0039.0025a.13.13,0,0,1-.0121.0432.066.066,0,0,0,.011.03C4.13,3.1151,4.1349,3.1218,4.1411,3.1226Z" fill="#00703f"/><path d="M4.0817,3.1086h0c.01,0,.0175-.0129.0238-.0232a.1215.1215,0,0,0,.0161-.0478l-.0076.0015H4.1129c-.0141-.0011-.0262-.02-.03-.0458a.0545.0545,0,0,1-.01.0152.0426.0426,0,0,1-.02.0143.381.381,0,0,0,.0024.0387.0676.0676,0,0,0,.0077.0306C4.0652,3.0965,4.0723,3.1084,4.0817,3.1086Z" fill="#00703f"/><path d="M4.265,2.6027a.1544.1544,0,0,0-.004-.0289.3126.3126,0,0,0-.05-.1077A.3677.3677,0,0,0,4.1817,2.43l0,.005a.2852.2852,0,0,0,.0041.0362l0,.0011V2.48a.0944.0944,0,0,1,.0091.0463c-.0006.01-.0021.032-.0138.0359l-.0029.0005a.5463.5463,0,0,1,.0252.0533l.0017.0043a.0759.0759,0,0,0,.0162.0284c.009.0091.0269.0214.0368.0157a.0263.0263,0,0,0,.01-.0188.0346.0346,0,0,0,0-.0118Z" fill="#00703f"/><path d="M4.0918,2.62l-.0021,0c-.0043,0-.0118-.0035-.0267-.0215a.24.24,0,0,1-.0179-.0243.3026.3026,0,0,0,.0039.0468.2953.2953,0,0,0,.0542.12.1254.1254,0,0,0,.025.0211l.01.0043a.022.022,0,0,0,.0109-.0028c.0072-.0041.0123-.03.0082-.0706l-.0008-.0012a.1085.1085,0,0,1-.0129-.031L4.14,2.65a.2116.2116,0,0,0-.0325-.06l-.0034-.0024v.0014C4.1042,2.5956,4.1025,2.6172,4.0918,2.62Z" fill="#00703f"/><path d="M3.9326,2.9307l.0106-.0037a.52.52,0,0,1-.0405-.038C3.9082,2.9158,3.9217,2.93,3.9326,2.9307Z" fill="#00703f"/><path d="M4.02,2.9761l-.0024.004c-.0148-.0088-.029-.0184-.0428-.0284a.1158.1158,0,0,0,.004.0294.117.117,0,0,0,.0191.0379c.0086.0123.0115.0127.0126.0129.0085.0012.0178-.0125.0215-.0193l-.0031-.0051-.002-.0065a.24.24,0,0,1-.004-.0914l.0046-.0161a.185.185,0,0,1-.0037-.0774.14.14,0,0,1,.0147-.0386.1365.1365,0,0,1,.0195-.0264A1.1059,1.1059,0,0,1,3.9792,2.49l-.004-.0191a.6525.6525,0,0,1-.011-.0931.6025.6025,0,0,1,.0026-.086.0549.0549,0,0,1-.0342-.0341.0457.0457,0,0,1-.0014-.0161L3.93,2.2423l-.0093.0013a.0408.0408,0,0,1-.0225-.0073l-.009-.01a.0406.0406,0,0,1-.0264.017l-.0043,0a.0489.0489,0,0,1-.0431-.0311l-.0006-.002a.657.657,0,0,0-.0585.2067.6374.6374,0,0,0,.0043.1758.5784.5784,0,0,0,.1335.2794A.5428.5428,0,0,0,4.02,2.9761Z" fill="#9461c9"/><path d="M4.1359,2.4991h0a.0817.0817,0,0,0,.01.0261c.0083.0148.0251.0352.0349.032s.01-.0246.0106-.0317a.0914.0914,0,0,0-.0084-.0435h0c-.0047,0-.014-.0054-.036-.0263C4.1474,2.4682,4.1485,2.4922,4.1359,2.4991Z" fill="#00703f"/><path d="M3.9585,2.22a.0442.0442,0,0,0,.0294.0119h0A.04.04,0,0,0,4.02,2.2167a.0393.0393,0,0,0,.0063-.0312L4.02,2.1721l-.003.0006H4.0156L4.0031,2.17l-.008-.0024-.0138-.0039a.0392.0392,0,0,1-.0181.0123.0438.0438,0,0,1,.0028.03A.0373.0373,0,0,1,3.9585,2.22Z" fill="#00703f"/><path d="M3.9676,2.2874a.0978.0978,0,0,1,.01-.0233.0883.0883,0,0,1,.0256-.03l-.0152.0025h0a.0489.0489,0,0,1-.0325-.0131l-.009.0083-.01.0078a.0387.0387,0,0,0,.001.017A.05.05,0,0,0,3.9676,2.2874Z" fill="#00703f"/><path d="M4.1346,2.32l.0152.0338.0144.0291A.172.172,0,0,1,4.18,2.42l0,.0018a.3666.3666,0,0,1,.0346.0419.3156.3156,0,0,1,.0511.1093.1617.1617,0,0,1,.004.0278.1551.1551,0,0,1,.0228.0265.1625.1625,0,0,1,.0251.1041.3523.3523,0,0,1,.027.0675.3482.3482,0,0,1,.0114.0589.61.61,0,0,0-.0026-.0812A.6909.6909,0,0,0,4.291,2.56a1.1079,1.1079,0,0,0-.1268-.2208A.2886.2886,0,0,1,4.1346,2.32Z" fill="#00703f"/><path d="M3.9,2.2022a.0678.0678,0,0,1-.0081.02l.0089.01a.0347.0347,0,0,0,.0277.0052.0373.0373,0,0,0,.0148-.01.05.05,0,0,0,.0181-.024.04.04,0,0,0-.0028-.027L3.95,2.1786H3.9472a.05.05,0,0,1-.0317-.0122l-.0018.0013A.0349.0349,0,0,1,3.9,2.2022Z" fill="#00703f"/><path d="M4.0213,2.4428a.0725.0725,0,0,1,.018.0137l.0043.0029c.0015-.0005.0028-.0082.0015-.0195a.0668.0668,0,0,0-.0076-.0243.09.09,0,0,0-.0163-.0218L4.0178,2.39a.1233.1233,0,0,1-.0256-.0469l.0045-.0014a.1174.1174,0,0,0,.0246.0451l.0034.0036a.1063.1063,0,0,1,.0156.02c.0235.0155.028.0125.0284.0121s.0005-.0041,0-.01l-.0006-.004-.0021-.0272a.2239.2239,0,0,1-.0152-.0227c-.008-.0136-.0171-.0277-.027-.0418l.0038-.0028c.01.0143.0192.0285.0272.0423a.1708.1708,0,0,0,.03.0385l.0043.0032.0132.008a.0314.0314,0,0,0,0-.0179.4751.4751,0,0,0-.04-.1055l.0042-.002a.4653.4653,0,0,1,.04.1067.0469.0469,0,0,1,0,.0182.3739.3739,0,0,0,.0367.0415c.031.03.0369.03.0378.03l0-.0039,0-.0013a.2817.2817,0,0,1-.0042-.0367L4.1749,2.421A.1591.1591,0,0,0,4.16,2.3854l-.0144-.0293-.0185-.0412-.0055-.004a.2671.2671,0,0,1-.0533-.05.0811.0811,0,0,1-.0163-.0291.0566.0566,0,0,0-.0307-.0011.07.07,0,0,0-.04.0357.0962.0962,0,0,0-.01.0244.5946.5946,0,0,0-.0027.0865A.1571.1571,0,0,0,4,2.4254.0779.0779,0,0,0,4.0213,2.4428Z" fill="#00703f"/><path d="M3.9794,2.1224a.4574.4574,0,0,1-.0469.0051.0516.0516,0,0,1-.0134.0357.043.043,0,0,0,.0306.0107A.04.04,0,0,0,3.9786,2.16a.051.051,0,0,0,.0074-.0273V2.1214Z" fill="#00703f"/><path d="M3.9787,2.1177a.2868.2868,0,0,0,.1124-.0327.2259.2259,0,0,0,.0327-.0233l.0013-.0012.0015.001a.1071.1071,0,0,0,.0646.0185.1017.1017,0,0,0,.03-.0063L4.21,2.07a.1492.1492,0,0,1-.0572-.0383l-.005-.0046c-.01-.01-.0257-.0221-.0565-.0471a.5421.5421,0,0,0-.07-.0516.1674.1674,0,0,0-.0512-.0234.1557.1557,0,0,0-.0744.0047.1359.1359,0,0,0-.07.0324.0823.0823,0,0,0-.0183.0275.0727.0727,0,0,0-.0046.027A.0345.0345,0,0,1,3.8294,2a.0377.0377,0,0,1,.0152.0353l-.004.0127a.0352.0352,0,0,1,.0229.0294.0342.0342,0,0,1-.0129.0233.1211.1211,0,0,0,.03.017A.1867.1867,0,0,0,3.9787,2.1177Zm-.02-.1059a.0412.0412,0,0,1-.0331.0137H3.9227A.0392.0392,0,0,1,3.891,2.01.024.024,0,0,1,3.89,1.9869c.006-.011.0209-.0122.0317-.013s.0335-.0026.0408.011A.0269.0269,0,0,1,3.959,2.0118Z" fill="#9461c9"/><path d="M3.9337,1.978l-.0114.0006c-.01.0008-.0232.0018-.028.0105a.02.02,0,0,0,.0007.0185.0343.0343,0,0,0,.0279.0131.0379.0379,0,0,0,.0323-.0117.0215.0215,0,0,0,.0033-.0218C3.9545,1.98,3.9434,1.978,3.9337,1.978ZM3.9243,2.01a.0116.0116,0,1,1,.0115-.0115A.0116.0116,0,0,1,3.9243,2.01Z" fill="#d91c30"/><path d="M4.0311,3l.0017.0054s.005.0106.0132.0126.0188-.008.0233-.0129a.0512.0512,0,0,0,.011-.02l.0032-.02a.2125.2125,0,0,0,0-.0226L4.0779,2.926l-.0022-.018c-.0057.0082-.0132.016-.0216.016H4.0525c-.0091-.0011-.0183-.0124-.0228-.0228l-.0026.01A.2425.2425,0,0,0,4.0311,3Z" fill="#00703f"/><path d="M4.037,2.1657,4.0358,2.16l-.011.01.0061.0141a.0435.0435,0,0,1-.0071.0352l-.0081.008L4.02,2.2263a.06.06,0,0,1,.0308,0L4.05,2.2219a.0584.0584,0,0,1,.0035-.0228A.0842.0842,0,0,1,4.037,2.1657Z" fill="#00703f"/><path d="M3.838,2.0522a.1314.1314,0,0,1-.0321.0274l-.015.0091-.0086.005a.0744.0744,0,0,0-.0168.0164l.0162.0077a.059.059,0,0,0,.0317,0A.0691.0691,0,0,0,3.8454,2.1c.0072-.0073.0134-.0136.0134-.022A.0314.0314,0,0,0,3.838,2.0522Z" fill="#ffd116"/><path d="M4.2145,2.69c.0092.0105.0182.0216.0267.0329.0128.0169.0206.0292.03.0435l.0037.0057c.0194.03.0293.044.0365.054a.2335.2335,0,0,1,.0194.03.399.399,0,0,1,.0225.0454A.35.35,0,0,0,4.34,2.8a.3443.3443,0,0,0-.0418-.0925.3347.3347,0,0,0-.0331-.0428l-.0042.0035L4.2526,2.67a.0583.0583,0,0,1-.0343-.0187l-.0037-.0042a.1175.1175,0,0,1,.0015.0271Z" fill="#00703f"/><path d="M4.1133,3.0343a.0271.0271,0,0,0,.015-.0055.04.04,0,0,0,.016-.0245A.1047.1047,0,0,1,4.13,2.9727l-.0049-.0235a.0259.0259,0,0,1-.019.0125H4.1054A.0232.0232,0,0,1,4.0887,2.95l-.0005.0148-.0023.0177C4.0884,3.0139,4.1018,3.0334,4.1133,3.0343Z" fill="#00703f"/><path d="M3.78,2.09l.009-.0053.0145-.0088c.02-.0136.0348-.0244.0368-.0408a.0337.0337,0,0,0-.0131-.0308L3.8136,2a.0938.0938,0,0,0-.0226.0041.0845.0845,0,0,0-.0552.032.0806.0806,0,0,0-.009.05.1443.1443,0,0,0,.0158.06A.1016.1016,0,0,1,3.78,2.09Zm.0225-.0658a.0108.0108,0,1,1-.0108.0108A.0108.0108,0,0,1,3.8022,2.024Z" fill="#ffd116"/><path d="M4.1947,2.72c.0087-.002.0149-.0193.0167-.0462a.1143.1143,0,0,0-.0042-.0384l-.0061-.014-.0017-.0043a.5586.5586,0,0,0-.0266-.0561.0565.0565,0,0,1-.0219-.0189.0759.0759,0,0,1-.0025.0256c-.003.0109-.0061.0223-.0163.0263l-.0074.0014-.0078-.0013a.208.208,0,0,1,.0279.0544l.0035.0113a.11.11,0,0,0,.0124.03C4.1737,2.7109,4.1864,2.7223,4.1947,2.72Z" fill="#00703f"/><path d="M4.2679,2.6606a.3414.3414,0,0,1,.0343.0442l.011.0184A.1545.1545,0,0,0,4.2884,2.63a.1425.1425,0,0,0-.0183-.022l.0027.0251a.0407.0407,0,0,1,0,.0133Z" fill="#00703f"/><path d="M3.9634,3.0159A.0624.0624,0,0,0,3.9765,2.99l-.0026-.0079A.1158.1158,0,0,1,3.97,2.9482L3.9468,2.93a.0235.0235,0,0,1-.0138.0053h0c-.0111,0-.0215-.0105-.0284-.0263a.1946.1946,0,0,0,.0007.0425.1218.1218,0,0,0,.0113.0416c.0111.0226.0234.0353.0329.0341C3.9542,3.0268,3.9581,3.0222,3.9634,3.0159Z" fill="#00703f"/><path d="M4.3265,2.8582a.2393.2393,0,0,0-.0191-.03c-.0072-.01-.0172-.0239-.0367-.0542L4.267,2.7684c-.0091-.0142-.0169-.0264-.03-.0432l-.024-.03c-.0027.0138-.0078.0271-.0176.0294l-.003,0-.0026,0,.0041.0124a.1128.1128,0,0,0,.0173.0288l.0005.0005.0173.0248.0138.02c.0411.0553.0618.083.07.0952a.3145.3145,0,0,1,.0511.0951.2341.2341,0,0,0-.0074-.0743A.2957.2957,0,0,0,4.3265,2.8582Z" fill="#00703f"/><path d="M3.9838,2.4892a.913.913,0,0,0,.0947.2394.7233.7233,0,0,0,.0816.1246.6735.6735,0,0,0,.0685.0708l-.0163-.02a.4137.4137,0,0,1-.0577-.083.2816.2816,0,0,1-.0182-.05l-.0109-.0048A.1319.1319,0,0,1,4.1,2.7445a.299.299,0,0,1-.0551-.1221.29.29,0,0,1-.004-.0552L4.032,2.5519c-.01-.0194-.02-.0395-.0287-.06L4.0076,2.49c.009.02.0186.04.0286.06a.2468.2468,0,0,0,.03.0463c.0166.02.0224.02.0238.02.0058-.0017.0089-.0151.0094-.0269a.0643.0643,0,0,0-.0031-.0217.3958.3958,0,0,0-.0178-.0478.0172.0172,0,0,1-.0109.0086l-.0025,0c-.0073,0-.0142-.0063-.0228-.0141a.1321.1321,0,0,1-.028-.042.2226.2226,0,0,1-.0136-.0385l-.0049-.0049A.1662.1662,0,0,1,3.97,2.39c.0008.0121.0023.0282.0049.0471Z" fill="#00703f"/><path d="M4.0451,2.4639l-.0016,0L4.036,2.46a.0712.0712,0,0,0-.017-.0129l-.0114-.0076A.2065.2065,0,0,0,4.019,2.47a.1258.1258,0,0,0,.0269.0405c.0085.0078.0152.014.0212.0128.01-.0019.017-.0236.0176-.0528l-.0055-.0082a.085.085,0,0,1-.011-.0343H4.0668a.05.05,0,0,1-.0225-.0092.07.07,0,0,1,.0055.02C4.0507,2.4476,4.0514,2.4618,4.0451,2.4639Z" fill="#00703f"/><path d="M4.1255,2.0664a.2291.2291,0,0,1-.032.0227.204.204,0,0,1-.0477.02.1638.1638,0,0,0,.0207.0175.1545.1545,0,0,0,.0627.0264.1106.1106,0,0,0,.04.0006A.108.108,0,0,0,4.23,2.1179l-.02-.0041A.1278.1278,0,0,1,4.1549,2.08.116.116,0,0,1,4.1255,2.0664Z" fill="#9461c9"/><path d="M4.1722,3.224l-.0393.0007.0189.01a.0311.0311,0,0,1,.0173.017.0217.0217,0,0,1-.004.02L4.16,3.276a.077.077,0,0,0,.0226.0328l.0169.0107C4.1915,3.2967,4.1826,3.2658,4.1722,3.224Z" fill="#00703f"/><path d="M4.1043,2.5812A.0258.0258,0,0,0,4.13,2.59c.0081-.0032.0109-.0133.0136-.0232a.0736.0736,0,0,0,.0012-.0324l-.0042-.0067a.0932.0932,0,0,1-.01-.027l-.0026,0a.0626.0626,0,0,1-.039-.0247.1081.1081,0,0,1-.0075.0379.398.398,0,0,1,.0194.0518Z" fill="#00703f"/><path d="M4.3093,2.91c-.0082-.0122-.0288-.04-.07-.0951l-.014-.02L4.2084,2.77l0-.0006a.117.117,0,0,1-.018-.03l-.005-.016a.069.069,0,0,1-.022-.0215c.0026.0354-.0016.0611-.0113.0666l-.01.0033a.276.276,0,0,0,.0175.0475.4068.4068,0,0,0,.0571.082c.0165.0205.0257.031.0331.0394a.43.43,0,0,1,.0271.0334A.6262.6262,0,0,1,4.32,3.04c.01.0172.016.0315.0243.05.0074.016.0144.0322.021.0482.0016-.0162.0025-.0326.0025-.049a.3482.3482,0,0,0-.0066-.0816A.2922.2922,0,0,0,4.3093,2.91Z" fill="#00703f"/><path d="M4.17,2.1587,4.1519,2.16a.1378.1378,0,0,1-.0234-.0022.16.16,0,0,1-.0647-.0273.1626.1626,0,0,1-.0232-.02l-.0113.0027.0016.0064c.0068.0225.0243.0378.0607.0636a.4638.4638,0,0,0,.0429.029.12.12,0,0,0,.0946.01A.095.095,0,0,0,4.27,2.19l-.0226-.0093A.2759.2759,0,0,1,4.1969,2.15.1061.1061,0,0,1,4.17,2.1587Z" fill="#9461c9"/><path d="M4.275,3.2222l-.0979.0018c.0337.1351.0524.1543.06.1534.015-.0014.027-.066.0309-.0872A.3986.3986,0,0,0,4.275,3.2222Z" fill="#00703f"/><path d="M4.1581,3.1312,4.2774,3.13c.0023-.0232.0035-.0469.0035-.07a.74.74,0,0,0-.0036-.0759l-.0049-.0068-.0149-.0191-.0116-.0007a.1652.1652,0,0,1-.0171.0689c-.01.0206-.019.0254-.0243.0258H4.2033a.02.02,0,0,1-.0122-.0046.123.123,0,0,1-.02.0557.0305.0305,0,0,1-.0055.0226Z" fill="#00703f"/><path d="M4.3057,3.1341a.0415.0415,0,1,0,.0414.0414.0415.0415,0,0,0-.0414-.0414Z" fill="#9c4a00"/><path d="M4.64,1.4683a1.2917,1.2917,0,0,0-.4329-.1556,1.31,1.31,0,0,0-.4329,0,1.2912,1.2912,0,0,0-.4328.1556,1.3056,1.3056,0,0,0-.4767.4769,1.2885,1.2885,0,0,0-.1554.4325,1.31,1.31,0,0,0,0,.4328,1.29,1.29,0,0,0,.1554.4325,1.3053,1.3053,0,0,0,.4767.4768,1.289,1.289,0,0,0,.4328.1556,1.3033,1.3033,0,0,0,.4329,0A1.2916,1.2916,0,0,0,4.64,3.72a1.3063,1.3063,0,0,0,.4767-.4769,1.3007,1.3007,0,0,0,0-1.2978A1.3056,1.3056,0,0,0,4.64,1.4683Zm-.2.1824.1178.0856.1178-.0856-.045.1384.1178.0856H4.6035l-.045.1385-.045-.1385H4.368l.1177-.0856Zm-.4948-.0843.045-.1384.045.1384h.1456l-.1178.0856.045.1385-.1178-.0856-.1178.0856.045-.1385L3.8,1.5664Zm-.64.0843.1177.0856.1178-.0856-.045.1384.1178.0856H3.4682l-.045.1385-.0449-.1385H3.2327l.1178-.0856Zm-.4236.583h.1455l.045-.1384.045.1384H3.263l-.1178.0856.045.1385-.1178-.0856-.1177.0856L3,2.3193Zm.0728.4967.1177.0856L3.19,2.73l-.045.1385.1178.0855H3.1174l-.045.1385-.045-.1385H2.8819L3,2.8689Zm.5863.8071-.1178-.0856-.1177.0856.045-.1385-.1178-.0856h.1456l.0449-.1384.045.1384h.1456L3.496,3.399Zm.4949.0842-.045.1385-.045-.1385H3.8l.1178-.0855-.045-.1385.1178.0856.1178-.0856-.045.1385.1178.0855Zm.2481-.3148-.0161.01c-.0076.0354-.0168.0638-.03.065H4.237c-.0076,0-.0186-.0085-.0356-.0567a.08.08,0,0,1-.022-.0131.081.081,0,0,1-.024-.0348L4.1426,3.28l-.0083,0-.01-.0006L4.12,3.28l-.0131.0008a.1113.1113,0,0,1-.0318-.0047L4.0726,3.275l-.0134.005-.0144.0017a.0653.0653,0,0,1-.02-.0031L4.0094,3.28l-.022-.0026A.1.1,0,0,1,3.9307,3.24l-.006-.008L3.6659,3.23,3.6651,3.23c-.0148-.0195-.0358-.048-.0515-.0725-.0073-.0112-.0092-.0188-.0058-.0231l.0091-.003.011-.0014a.05.05,0,0,0,.0161-.0071.0241.0241,0,0,0,.0088-.0151l.0055-.0137a.0635.0635,0,0,1,.0424-.025.0733.0733,0,0,1,.0507.0033.0745.0745,0,0,1,.0382.0646h.1342l.012-.0144a.1261.1261,0,0,1,.0348-.0271.1459.1459,0,0,1-.0182-.0411l-.005-.0218c-.0152,0-.0287-.0229-.0356-.0368A.1284.1284,0,0,1,3.9,2.9523a.2053.2053,0,0,1,0-.0531l-.0036-.0165-.0063-.0068a.5833.5833,0,0,1-.1346-.2818.6419.6419,0,0,1-.0044-.1772.6587.6587,0,0,1,.0619-.2142.0411.0411,0,0,1,.0035-.0205.0444.0444,0,0,1,.0109-.0146.0329.0329,0,0,1,.0068-.0192l.0115-.0092a.0587.0587,0,0,1,.0022-.0166l.0055-.0135-.0066-.0048a.0731.0731,0,0,1-.0326.0181l-.0175.0023L3.78,2.1224a.061.061,0,0,1-.0176-.0085.13.13,0,0,0-.0173.04l-.0014.0057-.0029-.0052a.1494.1494,0,0,1-.0191-.067.0849.0849,0,0,1,.01-.0533A.0891.0891,0,0,1,3.79,2l.0076-.0019a.0767.0767,0,0,1,.0049-.03.0842.0842,0,0,1,.0194-.0291.14.14,0,0,1,.0719-.0337A.16.16,0,0,1,3.97,1.9008a.1678.1678,0,0,1,.0525.0239.5275.5275,0,0,1,.0711.0521c.0308.025.0463.0376.0567.0472l.005.0047a.1484.1484,0,0,0,.0555.0373l.0185.0046.0075.0013L4.23,2.075a.103.103,0,0,1-.0658.0075.116.116,0,0,0,.0709.0311l.0046,0-.0029.0035a.1257.1257,0,0,1-.0353.03.27.27,0,0,0,.048.0289l.0252.01.0029.0011L4.2758,2.19a.1056.1056,0,0,1-.0342.0319.1366.1366,0,0,0,.035.017l.0206.0046.0037.0006-.0021.0031a.1092.1092,0,0,1-.0444.0383.0782.0782,0,0,0,.0568.0223l.0048,0-.0028.0039a.1081.1081,0,0,1-.0648.0437l-.0178.0017a.1336.1336,0,0,1-.0333-.005.1364.1364,0,0,1-.0241-.0084,1.1177,1.1177,0,0,1,.1221.2146.69.69,0,0,1,.0627.2176.6231.6231,0,0,1,0,.1229l0,.0144.0041.0133a.2415.2415,0,0,1,.0062.091.3908.3908,0,0,1,.0044.0715.502.502,0,0,1-.0035.0589l-.0011.0092-.0034-.0086c-.0076-.0189-.0158-.0379-.0244-.0565l-.0076-.0164c.0005.009.0008.0181.0007.0271l-.0012.0348a.0461.0461,0,0,1-.0092.0811A.1167.1167,0,0,1,4.284,3.3069Zm.3923.2306-.1178-.0856-.1178.0856.045-.1385L4.368,3.3134h.1455l.045-.1384.045.1384h.1456l-.1178.0856ZM5.1,2.9544H4.9543l-.045.1385-.0449-.1385H4.7188l.1177-.0855L4.7916,2.73l.1177.0856L5.0271,2.73l-.045.1385Zm-.0728-.4966-.1178-.0856-.1177.0856.0449-.1385-.1177-.0856h.1456l.0449-.1384.045.1384H5.1l-.1178.0856Z" fill="#d91c30"/><path d="M3.9081,3.1758a.0759.0759,0,0,1,.0125-.0345H3.785V3.1389a.0633.0633,0,0,0-.0831-.0658.06.06,0,0,0-.0394.0229l-.005.0126a.0291.0291,0,0,1-.0106.0176.055.055,0,0,1-.0178.0079l-.0119.0015-.0056.0011c-.0007.001-.0023.0049.006.0178.0154.0239.0359.0518.0507.0712l.2533.0017A.0812.0812,0,0,1,3.9081,3.1758Z" fill="#9c4a00"/><path d="M4.3176,3.22l-.0118.0016h0l-.0261,0a.398.398,0,0,1-.0066.0689l-.0039.02.0119-.0077A.1111.1111,0,0,0,4.3176,3.22Z" fill="#00703f"/><path d="M4.2308,2.2272a.0919.0919,0,0,1-.0345.0065.15.15,0,0,1-.0637-.0169.4217.4217,0,0,1-.0437-.0294.2429.2429,0,0,1-.05-.0419l.0022.0191a.0905.0905,0,0,0,.0233.04.2245.2245,0,0,0,.0993.0739.12.12,0,0,0,.0839.0048.1014.1014,0,0,0,.0448-.0356l-.0176-.0042a.14.14,0,0,1-.0383-.019Z" fill="#9461c9"/><path d="M4.0979,2.8117h.0006v.001a.8519.8519,0,0,0,.0507.0693c.0378.0481.0477.0535.0535.0568a.114.114,0,0,0,.0507.0139l-.0046-.0054a.6623.6623,0,0,1-.0923-.0911.7277.7277,0,0,1-.0822-.1254.997.997,0,0,1-.0732-.1625.9007.9007,0,0,0,.0615.1821C4.0778,2.78,4.0954,2.8078,4.0979,2.8117Z" fill="#d91c30"/><path d="M3.8407,2.2344a.0381.0381,0,0,0,.0214.0045.0435.0435,0,0,0,.0321-.0329l-.009.0039-.0128.0019A.0488.0488,0,0,1,3.85,2.2062a.0434.0434,0,0,1-.0218-.0288L3.828,2.174l-.0068.01a.0384.0384,0,0,0-.0014.0272A.04.04,0,0,0,3.8407,2.2344Z" fill="#00703f"/><path d="M4.25,2.2876a.0911.0911,0,0,1-.0338.0063.172.172,0,0,1-.0533-.0109.2264.2264,0,0,1-.1012-.0753l-.0039-.0043a.05.05,0,0,0-.0023.0182.0634.0634,0,0,0,.0168.0364.2646.2646,0,0,0,.0523.0491.2.2,0,0,0,.0741.04.106.106,0,0,0,.0491.0032.1016.1016,0,0,0,.0591-.038A.0826.0826,0,0,1,4.28,2.3074l-.0083-.0036A.0818.0818,0,0,1,4.25,2.2876Z" fill="#9461c9"/><path d="M4.026,3.2454A.0929.0929,0,0,1,4,3.1943a.0883.0883,0,0,1,.01-.0536.0909.0909,0,0,1,.0294-.0324.06.06,0,0,1-.0174-.0217l0-.001-.0037.007c-.0038.0061-.0133.0214-.0253.0215a.1014.1014,0,0,0-.0224.0282.086.086,0,0,0,.0086.0992.1.1,0,0,0,.0462.0322.06.06,0,0,0,.033.0017l.0081-.0027A.11.11,0,0,1,4.026,3.2454Z" fill="#ffd116"/><path d="M3.9919,3.1094c.01.0008.0189-.0142.0219-.0191l.0068-.0151,0-.0062.0007-.0122,0-.0245-.0109.0044-.0018,0c-.0029,0-.0068-.0019-.0157-.0148a.1429.1429,0,0,1-.0144-.0244.067.067,0,0,1-.0123.0216.0352.0352,0,0,1-.0149.0127l.0048.0211a.14.14,0,0,0,.0176.04C3.9819,3.1031,3.986,3.1089,3.9919,3.1094Z" fill="#00703f"/><path d="M3.8526,2.202a.041.041,0,0,0,.0312.0034.0368.0368,0,0,0,.0241-.0212.0327.0327,0,0,0,.0015-.0136.0452.0452,0,0,1-.02.0057H3.888A.0426.0426,0,0,1,3.85,2.1545l-.0031-.01-.0082.007a.0309.0309,0,0,0-.0052.0252A.0385.0385,0,0,0,3.8526,2.202Z" fill="#00703f"/><path d="M4.0335,2.898c.0037.01.0123.02.02.0213.0116.0014.0234-.0212.0274-.0286a.1354.1354,0,0,0,.0134-.0765c-.0026-.004-.0191-.03-.034-.0586a.1307.1307,0,0,0-.0177.0242.1335.1335,0,0,0-.0142.0374.1828.1828,0,0,0,.0039.0758Z" fill="#00703f"/><path d="M3.9752,3.2444a.0945.0945,0,0,1-.0215-.0557A.0956.0956,0,0,1,3.9661,3.14a.106.106,0,0,1,.021-.0272.0374.0374,0,0,1-.0138-.014.1223.1223,0,0,0-.034.0265.089.089,0,0,0-.0265.0508.086.086,0,0,0,.0216.0611.0959.0959,0,0,0,.0541.0354.0913.0913,0,0,0,.0266.0023A.1018.1018,0,0,1,3.9752,3.2444Z" fill="#ffd116"/><path d="M3.9842,2.16l.0123.0035.008.0024.0123.0026a.0271.0271,0,0,0,.0181-.0146.0818.0818,0,0,1,0-.014.068.068,0,0,1-.0085-.0181l-.0017-.0067-.034.0061a.0945.0945,0,0,1,0,.0119A.0615.0615,0,0,1,3.9842,2.16Z" fill="#00703f"/><path d="M4.3057,3.1294h0a.0451.0451,0,0,1,.0213.0053l.0011-.0321c0-.0127,0-.0255-.0013-.0381l-.0114-.022a.5512.5512,0,0,0-.0327-.0515c.002.0227.003.0457.003.0685s-.0013.0469-.0036.07Z" fill="#00703f"/><path d="M4.1646,3.2533c-.0018-.0063-.0072-.01-.0151-.0142A.3236.3236,0,0,0,4.12,3.2239a.0391.0391,0,0,1-.0136-.0085.0464.0464,0,0,1-.0114-.0462.0742.0742,0,0,1,.0371-.03l.01-.005c.0182-.01.02-.0115.0205-.0124L4.1669,3.11c-.0062.0084-.0146.0179-.0244.0179l-.002,0c-.0083-.001-.0135-.0086-.0185-.0159a.07.07,0,0,1-.0108-.026L4.11,3.0878c-.0067.0112-.0151.0251-.0272.0255a.0914.0914,0,0,0-.03.0442.0833.0833,0,0,0-.0015.0468.1.1,0,0,0,.0373.05.1579.1579,0,0,0,.0292.0191.0927.0927,0,0,0,.0251.0013c.01-.001.0156-.0017.0193-.006A.0174.0174,0,0,0,4.1646,3.2533Z" fill="#ffd116"/><path d="M3.889,2.1716a.0405.0405,0,0,0,.0237-.0089.0449.0449,0,0,0,.015-.035l-.0093,0a.1015.1015,0,0,1-.0392-.0056l-.0214-.0107-.005.0122a.0412.0412,0,0,0,.0011.0286A.0384.0384,0,0,0,3.889,2.1716Z" fill="#00703f"/><path d="M4.0461,3.2055a.087.087,0,0,1,.0015-.0494.0955.0955,0,0,1,.0288-.0438l-.0056-.003a.02.02,0,0,1-.0147.01h0a.0161.0161,0,0,1-.01-.0053L4.043,3.1116a.0854.0854,0,0,0-.0288.0313.0831.0831,0,0,0-.01.0508.0873.0873,0,0,0,.0248.0485.1063.1063,0,0,0,.0816.0335.1469.1469,0,0,1-.0262-.0177A.1031.1031,0,0,1,4.0461,3.2055Z" fill="#ffd116"/><path d="M4.1441,3.1389l-.01.005c-.014.007-.03.015-.0349.0271a.0411.0411,0,0,0,.01.0411l.0122.0075.0013.0006.1629-.0029a.046.046,0,0,1-.0013-.0829L4.15,3.136Z" fill="#9c4a00"/><polygon points="3.929 1.648 3.891 1.766 3.991 1.693 4.091 1.766 4.053 1.648 4.152 1.576 4.029 1.576 3.991 1.458 3.953 1.576 3.829 1.576 3.929 1.648" fill="#00703f"/><polygon points="3.323 1.675 3.361 1.793 3.262 1.865 3.385 1.865 3.423 1.983 3.461 1.865 3.585 1.865 3.485 1.793 3.523 1.675 3.423 1.748 3.323 1.675" fill="#00703f"/><polygon points="3.011 2.316 2.973 2.433 3.072 2.36 3.172 2.433 3.134 2.316 3.234 2.243 3.111 2.243 3.072 2.126 3.034 2.243 2.911 2.243 3.011 2.316" fill="#00703f"/><polygon points="3.134 2.873 3.172 2.755 3.072 2.828 2.973 2.755 3.011 2.873 2.911 2.945 3.034 2.945 3.072 3.062 3.111 2.945 3.234 2.945 3.134 2.873" fill="#00703f"/><polygon points="3.585 3.323 3.461 3.323 3.423 3.206 3.385 3.323 3.262 3.323 3.361 3.395 3.323 3.513 3.423 3.44 3.523 3.513 3.485 3.395 3.585 3.323" fill="#00703f"/><polygon points="4.053 3.54 4.091 3.422 3.991 3.495 3.891 3.422 3.929 3.54 3.829 3.612 3.953 3.612 3.991 3.73 4.029 3.612 4.152 3.612 4.053 3.54" fill="#00703f"/><polygon points="4.658 3.513 4.62 3.395 4.72 3.323 4.597 3.323 4.558 3.206 4.52 3.323 4.397 3.323 4.497 3.395 4.459 3.513 4.558 3.44 4.658 3.513" fill="#00703f"/><polygon points="4.971 2.873 5.009 2.755 4.909 2.828 4.809 2.755 4.848 2.873 4.748 2.945 4.871 2.945 4.909 3.062 4.947 2.945 5.071 2.945 4.971 2.873" fill="#00703f"/><polygon points="4.848 2.316 4.809 2.433 4.909 2.36 5.009 2.433 4.971 2.316 5.071 2.243 4.947 2.243 4.909 2.126 4.871 2.243 4.748 2.243 4.848 2.316" fill="#00703f"/><polygon points="4.397 1.865 4.52 1.865 4.558 1.983 4.597 1.865 4.72 1.865 4.62 1.793 4.658 1.675 4.558 1.748 4.459 1.675 4.497 1.793 4.397 1.865" fill="#00703f"/><path d="M3.8731,1.7905l.1178-.0856.1178.0856-.045-.1385.1178-.0856H4.0359l-.045-.1384-.045.1384H3.8l.1178.0856Zm.1178-.332.0381.1174h.1234l-.1.0725.0381.1174-.1-.0725-.1.0725.0381-.1174-.1-.0725h.1235Z"/><path d="M3.2327,1.8747h.1456l.0449.1385.045-.1385h.1456L3.496,1.7891l.045-.1384-.1178.0856-.1177-.0856.045.1384Zm.2523-.0819.1.0725H3.4614l-.0382.1173-.0381-.1173H3.2617l.1-.0725-.0381-.1174.1.0725.1-.0725Z"/><path d="M2.9547,2.4578l.1177-.0856.1178.0856-.045-.1385.1178-.0856H3.1174l-.045-.1384-.045.1384H2.8819L3,2.3193Zm.1177-.332.0382.1174H3.234l-.1.0725.0382.1174-.1-.0726-.1.0726.0381-.1174-.1-.0725h.1234Z"/><path d="M2.8819,2.9544h.1455l.045.1385.045-.1385H3.263l-.1178-.0855L3.19,2.73l-.1178.0856L2.9547,2.73,3,2.8689Zm.1905.108L3.0343,2.945H2.9109l.1-.0725-.0381-.1174.1.0725.1-.0725-.0382.1174.1.0725H3.1106Z"/><path d="M3.4682,3.3134l-.045-.1384-.0449.1384H3.2327l.1178.0856-.045.1385.1177-.0856.1178.0856L3.496,3.399l.1178-.0856Zm-.045.1269-.1.0725.0381-.1174-.1-.0725h.1234l.0381-.1174.0382.1174h.1234l-.1.0725.0381.1174Z"/><path d="M4.1087,3.3977l-.1178.0856-.1178-.0856.045.1385L3.8,3.6217h.1456l.045.1385.045-.1385h.1456l-.1178-.0855Zm-.1178.332-.0381-.1174H3.8293l.1-.0725-.0381-.1174.1.0725.1-.0725L4.0526,3.54l.1.0725H4.029Z"/><path d="M4.7491,3.3134H4.6035l-.045-.1384-.045.1384H4.368l.1177.0856-.045.1385.1178-.0856.1178.0856-.045-.1385Zm-.2523.082-.1-.0725H4.52l.0381-.1174.0382.1174H4.72l-.1.0725.0382.1174-.1-.0725-.1.0725Z"/><path d="M5.0271,2.73l-.1178.0856L4.7916,2.73l.0449.1385-.1177.0855h.1456l.0449.1385.045-.1385H5.1l-.1178-.0855Zm-.1178.332L4.8712,2.945H4.7478l.1-.0725L4.81,2.7551l.1.0725.1-.0725-.0381.1174.1.0725H4.9475Z"/><path d="M5.1,2.2337H4.9543l-.045-.1384-.0449.1384H4.7188l.1177.0856-.0449.1385.1177-.0856.1178.0856-.045-.1385Zm-.1906-.1079.0382.1174h.1234l-.1.0725.0381.1174-.1-.0726-.1.0726.0381-.1174-.1-.0725h.1234Z"/><path d="M4.5135,1.8747l.045.1385.045-.1385h.1456l-.1178-.0856.045-.1384-.1178.0856-.1178-.0856.045.1384-.1177.0856Zm.045-.1268.1-.0725L4.62,1.7928l.1.0725H4.5967l-.0382.1173L4.52,1.8653H4.397l.1-.0725-.0381-.1174Z"/><path d="M4.3224,3.2185a.0461.0461,0,0,0,.0092-.0811l.0012-.0348c0-.009,0-.0181-.0007-.0271l.0076.0164c.0086.0186.0168.0376.0244.0565l.0034.0086.0011-.0092a.502.502,0,0,0,.0035-.0589.3908.3908,0,0,0-.0044-.0715.2415.2415,0,0,0-.0062-.091l-.0041-.0133,0-.0144a.6231.6231,0,0,0,0-.1229.69.69,0,0,0-.0627-.2176,1.1177,1.1177,0,0,0-.1221-.2146.1364.1364,0,0,0,.0241.0084.1336.1336,0,0,0,.0333.005l.0178-.0017a.1081.1081,0,0,0,.0648-.0437l.0028-.0039-.0048,0a.0782.0782,0,0,1-.0568-.0223.1092.1092,0,0,0,.0444-.0383l.0021-.0031-.0037-.0006L4.2766,2.239a.1366.1366,0,0,1-.035-.017A.1056.1056,0,0,0,4.2758,2.19l.0018-.0025-.0029-.0011-.0252-.01a.27.27,0,0,1-.048-.0289.1257.1257,0,0,0,.0353-.03L4.24,2.1139l-.0046,0a.116.116,0,0,1-.0709-.0311A.103.103,0,0,0,4.23,2.075l.007-.0031L4.23,2.0706,4.211,2.066a.1484.1484,0,0,1-.0555-.0373l-.005-.0047c-.01-.01-.0259-.0222-.0567-.0472a.5275.5275,0,0,0-.0711-.0521A.1678.1678,0,0,0,3.97,1.9008a.16.16,0,0,0-.0765.0047.14.14,0,0,0-.0719.0337.0842.0842,0,0,0-.0194.0291.0767.0767,0,0,0-.0049.03L3.79,2a.0891.0891,0,0,0-.0581.034.0849.0849,0,0,0-.01.0533.1494.1494,0,0,0,.0191.067l.0029.0052.0014-.0057a.13.13,0,0,1,.0173-.04.061.061,0,0,0,.0176.0085l.0167.0023.0175-.0023a.0731.0731,0,0,0,.0326-.0181l.0066.0048-.0055.0135a.0587.0587,0,0,0-.0022.0166l-.0115.0092a.0329.0329,0,0,0-.0068.0192.0444.0444,0,0,0-.0109.0146.0411.0411,0,0,0-.0035.0205.6587.6587,0,0,0-.0619.2142.6419.6419,0,0,0,.0044.1772.5833.5833,0,0,0,.1346.2818l.0063.0068L3.9,2.8992a.2053.2053,0,0,0,0,.0531.1284.1284,0,0,0,.0117.0431c.0069.0139.02.0365.0356.0368l.005.0218a.1459.1459,0,0,0,.0182.0411.1261.1261,0,0,0-.0348.0271l-.012.0144H3.79a.0745.0745,0,0,0-.0382-.0646.0733.0733,0,0,0-.0507-.0033.0635.0635,0,0,0-.0424.025l-.0055.0137a.0241.0241,0,0,1-.0088.0151.05.05,0,0,1-.0161.0071l-.011.0014-.0091.003c-.0034.0043-.0015.0119.0058.0231.0157.0245.0367.053.0515.0725l.0008.0009.2588.0018.006.008a.1.1,0,0,0,.0567.0371l.022.0026.0156-.0013a.0653.0653,0,0,0,.02.0031L4.0592,3.28l.0134-.005.0025.0008a.1113.1113,0,0,0,.0318.0047L4.12,3.28l.0042-.0005.01.0006.0083,0,.0128-.0019a.081.081,0,0,0,.024.0348.08.08,0,0,0,.022.0131c.017.0482.028.0567.0356.0567h.0009c.0132-.0012.0224-.03.03-.065l.0161-.01A.1167.1167,0,0,0,4.3224,3.2185Zm.0247-.043a.0414.0414,0,1,1-.0414-.0414h0A.0415.0415,0,0,1,4.3471,3.1755ZM4.028,2.8172A.1335.1335,0,0,1,4.0422,2.78.1307.1307,0,0,1,4.06,2.7556c.0149.0285.0314.0546.034.0586a.1354.1354,0,0,1-.0134.0765c-.004.0074-.0158.03-.0274.0286-.0073-.001-.0159-.0118-.02-.0213l-.0016-.005A.1828.1828,0,0,1,4.028,2.8172Zm-.1143-.6494.0018-.0013a.05.05,0,0,0,.0317.0122H3.95l.0087-.0013a.04.04,0,0,1,.0028.027.05.05,0,0,1-.0181.024.0373.0373,0,0,1-.0148.01.0347.0347,0,0,1-.0277-.0052l-.0089-.01a.0678.0678,0,0,0,.0081-.02.0349.0349,0,0,0,.0136-.0344Zm.077-.0471.034-.0061.0017.0067a.068.068,0,0,0,.0085.0181.0818.0818,0,0,0,0,.014.0271.0271,0,0,1-.0181.0146l-.0123-.0026-.008-.0024L3.9842,2.16a.0615.0615,0,0,0,.0065-.0269A.0945.0945,0,0,0,3.9907,2.1207Zm.06.1012.0006.0048a.06.06,0,0,0-.0308,0l-.0045.0013.0081-.008a.0435.0435,0,0,0,.0071-.0352L4.0248,2.17l.011-.01.0012.0054a.0842.0842,0,0,0,.0169.0334A.0584.0584,0,0,0,4.05,2.2219Zm-.0872-.046a.0392.0392,0,0,0,.0181-.0123l.0138.0039.008.0024.0125.0029h.0017l.003-.0006.006.0134a.0393.0393,0,0,1-.0063.0312.04.04,0,0,1-.0321.0152h0A.0442.0442,0,0,1,3.9585,2.22a.0373.0373,0,0,0,.0075-.0144A.0438.0438,0,0,0,3.9632,2.1759Zm.0228-.0436a.051.051,0,0,1-.0074.0273.04.04,0,0,1-.0289.0143.043.043,0,0,1-.0306-.0107.0516.0516,0,0,0,.0134-.0357.4574.4574,0,0,0,.0469-.0051l.0066-.001Zm-.05.1073.01-.0078.009-.0083a.0489.0489,0,0,0,.0325.0131h0l.0152-.0025a.0883.0883,0,0,0-.0256.03.0978.0978,0,0,0-.01.0233.05.05,0,0,1-.03-.0308A.0387.0387,0,0,1,3.9362,2.24Zm.0327.1378a.5946.5946,0,0,1,.0027-.0865.0962.0962,0,0,1,.01-.0244.07.07,0,0,1,.04-.0357.0566.0566,0,0,1,.0307.0011.0811.0811,0,0,0,.0163.0291.2671.2671,0,0,0,.0533.05l.0055.004.0185.0412.0144.0293a.1591.1591,0,0,1,.0149.0356l.0024.0145a.2817.2817,0,0,0,.0042.0367l0,.0013,0,.0039c-.0009,0-.0068.0005-.0378-.03a.3739.3739,0,0,1-.0367-.0415.0469.0469,0,0,0,0-.0182.4653.4653,0,0,0-.04-.1067l-.0042.002a.4751.4751,0,0,1,.04.1055.0314.0314,0,0,1,0,.0179l-.0132-.008L4.085,2.3956a.1708.1708,0,0,1-.03-.0385c-.008-.0138-.0171-.028-.0272-.0423l-.0038.0028c.01.0141.019.0282.027.0418a.2239.2239,0,0,0,.0152.0227l.0021.0272.0006.004c.0007.0055.0011.0088,0,.01s-.0049.0034-.0284-.0121a.1063.1063,0,0,0-.0156-.02l-.0034-.0036a.1174.1174,0,0,1-.0246-.0451l-.0045.0014a.1233.1233,0,0,0,.0256.0469l.0034.0037a.09.09,0,0,1,.0163.0218.0668.0668,0,0,1,.0076.0243c.0013.0113,0,.019-.0015.0195l-.0043-.0029a.0725.0725,0,0,0-.018-.0137A.0779.0779,0,0,1,4,2.4254.1571.1571,0,0,1,3.9689,2.3774Zm.3039.2553L4.27,2.6076a.1425.1425,0,0,1,.0183.022.1545.1545,0,0,1,.0248.0936l-.011-.0184a.3414.3414,0,0,0-.0343-.0442l.0048-.0146A.0407.0407,0,0,0,4.2728,2.6327Zm-.0582.0146.0037.0042a.0583.0583,0,0,0,.0343.0187l.0083-.0021.0042-.0035a.3347.3347,0,0,1,.0331.0428A.3443.3443,0,0,1,4.34,2.8a.35.35,0,0,1,.0131.1014.399.399,0,0,0-.0225-.0454.2335.2335,0,0,0-.0194-.03c-.0072-.01-.0171-.0238-.0365-.054L4.271,2.7659c-.0092-.0143-.017-.0266-.03-.0435C4.2327,2.7111,4.2237,2.7,4.2145,2.69l.0016-.0151A.1175.1175,0,0,0,4.2146,2.6473Zm.0534-.0021a.0263.0263,0,0,1-.01.0188c-.01.0057-.0278-.0066-.0368-.0157A.0759.0759,0,0,1,4.2055,2.62l-.0017-.0043a.5463.5463,0,0,0-.0252-.0533l.0029-.0005c.0117-.0039.0132-.0264.0138-.0359A.0944.0944,0,0,0,4.1862,2.48v-.007l0-.0011a.2852.2852,0,0,1-.0041-.0362l0-.005a.3677.3677,0,0,1,.0289.0358.3126.3126,0,0,1,.05.1077.1544.1544,0,0,1,.004.0289l.0031.0307A.0346.0346,0,0,1,4.268,2.6452ZM4.05,2.4393a.07.07,0,0,0-.0055-.02.05.05,0,0,0,.0225.0092h.0014a.085.085,0,0,0,.011.0343l.0055.0082c-.0006.0292-.0078.0509-.0176.0528-.006.0012-.0127-.005-.0212-.0128A.1258.1258,0,0,1,4.019,2.47a.2065.2065,0,0,1-.0114-.0308l.0114.0076a.0712.0712,0,0,1,.017.0129l.0075.0043.0016,0C4.0514,2.4618,4.0507,2.4476,4.05,2.4393Zm.0961.0166c.022.0209.0313.0263.036.0263h0a.0914.0914,0,0,1,.0084.0435c0,.0071-.0019.0288-.0106.0317s-.0266-.0172-.0349-.032a.0876.0876,0,0,1-.01-.026l.0005,0C4.1485,2.4922,4.1474,2.4682,4.1459,2.4559Zm-.0123.039c-.0121.0066-.0378-.0136-.05-.0349a.0806.0806,0,0,1-.0106-.0346c.0018-.0025.0013-.0062,0-.0127l0-.004-.0018-.02.0113.011.0045.0033.0158.0089.0018,0,.0008,0a.376.376,0,0,0,.0354.04C4.1423,2.4615,4.1446,2.489,4.1336,2.4949Zm-.0443-.0187a.0626.0626,0,0,0,.039.0247l.0026,0a.0932.0932,0,0,0,.01.027l.0042.0067a.0736.0736,0,0,1-.0012.0324c-.0027.01-.0055.02-.0136.0232a.0258.0258,0,0,1-.026-.0087l-.0031-.0153a.398.398,0,0,0-.0194-.0518A.1081.1081,0,0,0,4.0893,2.4762Zm.0152.1129V2.5877l.0034.0024a.2116.2116,0,0,1,.0325.06l.0034.0112a.1085.1085,0,0,0,.0129.031l.0008.0012c.0041.041-.001.0665-.0082.0706a.0217.0217,0,0,1-.0108.0028l-.01-.0043a.1254.1254,0,0,1-.025-.0211.2953.2953,0,0,1-.0542-.12.3026.3026,0,0,1-.0039-.0468.24.24,0,0,0,.0179.0243c.0149.018.0224.0215.0267.0215l.0021,0C4.1025,2.6172,4.1042,2.5956,4.1045,2.5891Zm.0438.071-.0035-.0113a.208.208,0,0,0-.0279-.0544l.0078.0013.0074-.0014c.01-.004.0133-.0154.0163-.0263a.0759.0759,0,0,0,.0025-.0256.0565.0565,0,0,0,.0219.0189.5586.5586,0,0,1,.0266.0561l.0017.0043.0061.014a.1143.1143,0,0,1,.0042.0384c-.0018.0269-.008.0442-.0167.0462s-.021-.0094-.034-.03A.11.11,0,0,1,4.1483,2.66Zm-.1521-.2314.0049.0049a.2226.2226,0,0,0,.0136.0385.1321.1321,0,0,0,.028.042c.0086.0078.0155.0141.0228.0141l.0025,0a.0172.0172,0,0,0,.0109-.0086.3958.3958,0,0,1,.0178.0478A.0643.0643,0,0,1,4.1,2.5889c0,.0118-.0036.0252-.0094.0269-.0014,0-.0072,0-.0238-.02a.2468.2468,0,0,1-.03-.0463c-.01-.0194-.02-.0394-.0286-.06l-.0043.0019c.009.02.0187.04.0287.06l.0084.0153a.29.29,0,0,0,.004.0552A.299.299,0,0,0,4.1,2.7445a.1319.1319,0,0,0,.026.0221l.0109.0048a.2816.2816,0,0,0,.0182.05.4137.4137,0,0,0,.0577.083l.0163.02A.6735.6735,0,0,1,4.16,2.8532a.7233.7233,0,0,1-.0816-.1246.913.913,0,0,1-.0947-.2394l-.0094-.052C3.9718,2.4183,3.97,2.4022,3.97,2.39A.1662.1662,0,0,0,3.9962,2.4287Zm.0781.3021a.7277.7277,0,0,0,.0822.1254.6623.6623,0,0,0,.0923.0911l.0046.0054a.114.114,0,0,1-.0507-.0139c-.0058-.0033-.0157-.0087-.0535-.0568a.8519.8519,0,0,1-.0507-.0693v-.001H4.0979c-.0025-.0039-.02-.0317-.0353-.0613a.9007.9007,0,0,1-.0615-.1821A.997.997,0,0,0,4.0743,2.7308Zm.0249.0916c.0158.0238.03.0414.0452.0612a.1037.1037,0,0,1-.0164.0532c-.0058.009-.0132.02-.0218.02h0c-.0118-.0006-.02-.0213-.0233-.0322A.064.064,0,0,1,4.0809,2.9l.0038-.0068A.1371.1371,0,0,0,4.0992,2.8224Zm-.011.1427L4.0887,2.95a.0232.0232,0,0,0,.0167.0114h.0008a.0259.0259,0,0,0,.019-.0125l.0049.0235a.1047.1047,0,0,0,.0142.0316.04.04,0,0,1-.016.0245.0271.0271,0,0,1-.015.0055c-.0115-.0009-.0249-.02-.0274-.0515Zm.0464.0062a.1194.1194,0,0,1-.0052-.028l.0026-.0039a.1067.1067,0,0,0,.0168-.05.2075.2075,0,0,0,.05.053.09.09,0,0,1-.017.0465c-.0057.0076-.0152.02-.0246.0191C4.1457,3.0061,4.1385,2.9835,4.1346,2.9713Zm.0416.0318.01-.0117a.0955.0955,0,0,0,.0177-.0469.1132.1132,0,0,0,.0376.0118.16.16,0,0,1-.0166.0673c-.01.02-.0178.0231-.02.0233-.01.0008-.02-.0135-.0244-.0226A.0456.0456,0,0,1,4.1762,3.0031Zm-.1237-.0792h.0016c.0084,0,.0159-.0078.0216-.016l.0022.018.0061.0161a.2125.2125,0,0,1,0,.0226l-.0032.02a.0512.0512,0,0,1-.011.02c-.0045.0049-.0138.0151-.0233.0129s-.013-.0122-.0132-.0126L4.0311,3a.2425.2425,0,0,1-.004-.09l.0026-.01C4.0342,2.9115,4.0434,2.9228,4.0525,2.9239Zm-.0177.0926.01.0061.0028,0a.3832.3832,0,0,0,.0024.0389.073.073,0,0,0,.0083.0326l.0088.0117c-.0021.0032-.0063.0084-.0114.0082L4.0486,3.11c-.0131-.0121-.02-.0182-.0222-.0253a.0345.0345,0,0,1-.0008-.0158l.0007-.0122c0-.01.0006-.0195,0-.0292Zm.0277.0755a.0676.0676,0,0,1-.0077-.0306.381.381,0,0,1-.0024-.0387.0426.0426,0,0,0,.02-.0143.0545.0545,0,0,0,.01-.0152c.0043.026.0164.0447.03.0458h.0014l.0076-.0015a.1215.1215,0,0,1-.0161.0478c-.0063.01-.0141.0232-.0238.0232h0C4.0723,3.1084,4.0652,3.0965,4.0625,3.092Zm.0645-.0568.0039-.0025a.0429.0429,0,0,0,.0172-.0245l.0087.0042h.002a.0213.0213,0,0,0,.0126-.005.0518.0518,0,0,0,.004.0187.0618.0618,0,0,0,.0113.017.12.12,0,0,1-.0195.0576c-.0055.008-.0157.0231-.0261.0218-.0062-.0008-.0108-.0075-.0152-.014a.066.066,0,0,1-.011-.03A.13.13,0,0,0,4.127,3.0352Zm.0445.0675a.123.123,0,0,0,.02-.0557.02.02,0,0,0,.0122.0046h.0012c.0053,0,.0138-.0052.0243-.0258a.1652.1652,0,0,0,.0171-.0689l.0116.0007.0149.0191.0049.0068a.74.74,0,0,1,.0036.0759c0,.0234-.0012.0471-.0035.07l-.1193.0015.0079-.0059A.0305.0305,0,0,0,4.1715,3.1027Zm.1135.0317a.046.046,0,0,0,.0013.0829L4.1234,3.22,4.1221,3.22,4.11,3.2121A.0411.0411,0,0,1,4.1,3.171c.0051-.0121.0209-.02.0349-.0271l.01-.005L4.15,3.136ZM4.2827,2.991a.5512.5512,0,0,1,.0327.0515l.0114.022c.0009.0126.0014.0254.0013.0381l-.0011.0321a.0451.0451,0,0,0-.0213-.0053h0l-.0236,0c.0023-.0233.0035-.0469.0036-.07S4.2847,3.0137,4.2827,2.991Zm.0847.0979c0,.0164-.0009.0328-.0025.049-.0066-.016-.0136-.0322-.021-.0482-.0083-.018-.0148-.0323-.0243-.05a.6262.6262,0,0,0-.0434-.0663.43.43,0,0,0-.0271-.0334c-.0074-.0084-.0166-.0189-.0331-.0394a.4068.4068,0,0,1-.0571-.082.276.276,0,0,1-.0175-.0475l.01-.0033c.01-.0055.0139-.0312.0113-.0666a.069.069,0,0,0,.022.0215l.005.016a.117.117,0,0,0,.018.03l0,.0006.017.0243.014.02c.0411.0552.0617.0829.07.0951a.2922.2922,0,0,1,.0515.0978A.3482.3482,0,0,1,4.3674,3.0889Zm-.0031-.087a.3145.3145,0,0,0-.0511-.0951c-.0082-.0122-.0289-.04-.07-.0952l-.0138-.02-.0173-.0248-.0005-.0005a.1128.1128,0,0,1-.0173-.0288L4.19,2.725l.0026,0,.003,0c.01-.0023.0149-.0156.0176-.0294l.024.03c.0127.0168.0205.029.03.0432l.0037.0058c.0195.03.03.0441.0367.0542a.2393.2393,0,0,1,.0191.03.2957.2957,0,0,1,.03.0694A.2341.2341,0,0,1,4.3643,3.0019ZM4.291,2.56a.6909.6909,0,0,1,.0623.2163.61.61,0,0,1,.0026.0812.3482.3482,0,0,0-.0114-.0589.3523.3523,0,0,0-.027-.0675.1625.1625,0,0,0-.0251-.1041A.1551.1551,0,0,0,4.27,2.6005a.1617.1617,0,0,0-.004-.0278.3156.3156,0,0,0-.0511-.1093A.3666.3666,0,0,0,4.18,2.4215l0-.0018a.172.172,0,0,0-.0153-.0365L4.15,2.3541,4.1346,2.32a.2886.2886,0,0,0,.03.0189A1.1079,1.1079,0,0,1,4.291,2.56ZM4.28,2.3074a.0826.0826,0,0,0,.0265.0052.1016.1016,0,0,1-.0591.038.106.106,0,0,1-.0491-.0032.2.2,0,0,1-.0741-.04A.2646.2646,0,0,1,4.072,2.258a.0634.0634,0,0,1-.0168-.0364.05.05,0,0,1,.0023-.0182l.0039.0043a.2264.2264,0,0,0,.1012.0753.172.172,0,0,0,.0533.0109A.0911.0911,0,0,0,4.25,2.2876h0a.0818.0818,0,0,0,.0221.0162Zm-.0049-.0639.0176.0042a.1014.1014,0,0,1-.0448.0356.12.12,0,0,1-.0839-.0048.2245.2245,0,0,1-.0993-.0739.0905.0905,0,0,1-.0233-.04l-.0022-.0191a.2429.2429,0,0,0,.05.0419.4217.4217,0,0,0,.0437.0294.15.15,0,0,0,.0637.0169.0919.0919,0,0,0,.0345-.0065l.0061-.0027A.14.14,0,0,0,4.2752,2.2435Zm-.0277-.0629L4.27,2.19a.095.095,0,0,1-.041.0329.12.12,0,0,1-.0946-.01.4638.4638,0,0,1-.0429-.029c-.0364-.0258-.0539-.0411-.0607-.0636l-.0016-.0064.0113-.0027a.1626.1626,0,0,0,.0232.02.16.16,0,0,0,.0647.0273.1378.1378,0,0,0,.0234.0022L4.17,2.1587A.1061.1061,0,0,0,4.1969,2.15.2759.2759,0,0,0,4.2475,2.1806ZM4.21,2.1138l.02.0041a.108.108,0,0,1-.0608.0361.1106.1106,0,0,1-.04-.0006.1545.1545,0,0,1-.0627-.0264A.1638.1638,0,0,1,4.0458,2.11a.204.204,0,0,0,.0477-.02.2291.2291,0,0,0,.032-.0227.116.116,0,0,0,.0294.0138A.1278.1278,0,0,0,4.21,2.1138Zm-.4672.033a.1443.1443,0,0,1-.0158-.06.0806.0806,0,0,1,.009-.05.0845.0845,0,0,1,.0552-.032A.0938.0938,0,0,1,3.8136,2l.0133.0037a.0337.0337,0,0,1,.0131.0308c-.002.0164-.0173.0272-.0368.0408l-.0145.0088L3.78,2.09A.1016.1016,0,0,0,3.7426,2.1468ZM3.8454,2.1a.0691.0691,0,0,1-.032.0182.059.059,0,0,1-.0317,0L3.7655,2.11a.0744.0744,0,0,1,.0168-.0164l.0086-.005.015-.0091a.1314.1314,0,0,0,.0321-.0274.0314.0314,0,0,1,.0208.0254C3.8588,2.086,3.8526,2.0923,3.8454,2.1Zm.0052.0013a.0342.0342,0,0,0,.0129-.0233.0352.0352,0,0,0-.0229-.0294l.004-.0127A.0377.0377,0,0,0,3.8294,2a.0345.0345,0,0,0-.0272-.0032.0727.0727,0,0,1,.0046-.027.0823.0823,0,0,1,.0183-.0275.1359.1359,0,0,1,.07-.0324.1557.1557,0,0,1,.0744-.0047.1674.1674,0,0,1,.0512.0234.5421.5421,0,0,1,.07.0516c.0308.025.0462.0376.0565.0471l.005.0046A.1492.1492,0,0,0,4.21,2.07l.0115.0033a.1017.1017,0,0,1-.03.0063.1071.1071,0,0,1-.0646-.0185l-.0015-.001-.0013.0012a.2259.2259,0,0,1-.0327.0233.2868.2868,0,0,1-.1124.0327.1867.1867,0,0,1-.0978,0A.1211.1211,0,0,1,3.8506,2.1009Zm.0022.0229.005-.0122.0214.0107a.1015.1015,0,0,0,.0392.0056l.0093,0a.0449.0449,0,0,1-.015.035.0405.0405,0,0,1-.0237.0089.0384.0384,0,0,1-.0351-.0192A.0412.0412,0,0,1,3.8528,2.1238Zm-.0145.0275.0082-.007.0031.01a.0426.0426,0,0,0,.0384.0218h.0012a.0452.0452,0,0,0,.02-.0057.0327.0327,0,0,1-.0015.0136.0368.0368,0,0,1-.0241.0212.041.041,0,0,1-.0312-.0034.0385.0385,0,0,1-.0195-.0255A.0309.0309,0,0,1,3.8383,2.1513Zm-.0171.0328.0068-.01.0005.0034a.0434.0434,0,0,0,.0218.0288.0488.0488,0,0,0,.0221.0056L3.8852,2.21l.009-.0039a.0435.0435,0,0,1-.0321.0329.0381.0381,0,0,1-.0214-.0045A.04.04,0,0,1,3.82,2.2113.0384.0384,0,0,1,3.8212,2.1841Zm.0728.6886a.5784.5784,0,0,1-.1335-.2794.6374.6374,0,0,1-.0043-.1758.657.657,0,0,1,.0585-.2067l.0006.002a.0489.0489,0,0,0,.0431.0311l.0043,0a.0406.0406,0,0,0,.0264-.017l.009.01a.0408.0408,0,0,0,.0225.0073L3.93,2.2423l.0013-.0005a.0457.0457,0,0,0,.0014.0161.0549.0549,0,0,0,.0342.0341.6025.6025,0,0,0-.0026.086.6525.6525,0,0,0,.011.0931l.004.0191a1.1059,1.1059,0,0,0,.0784.2609.1365.1365,0,0,0-.0195.0264.14.14,0,0,0-.0147.0386.185.185,0,0,0,.0037.0774L4.0225,2.91a.24.24,0,0,0,.004.0914l.002.0065.0031.0051c-.0037.0068-.013.0205-.0215.0193-.0011,0-.004-.0006-.0126-.0129a.117.117,0,0,1-.0191-.0379.1158.1158,0,0,1-.004-.0294c.0138.01.028.02.0428.0284l.0024-.004A.5428.5428,0,0,1,3.894,2.8727Zm.0492.0543-.0106.0037c-.0109,0-.0244-.0149-.03-.0417A.52.52,0,0,0,3.9432,2.927Zm-.0271.0663a.1218.1218,0,0,1-.0113-.0416.1946.1946,0,0,1-.0007-.0425c.0069.0158.0173.0259.0284.0263h0A.0235.0235,0,0,0,3.9468,2.93l.0229.018a.1158.1158,0,0,0,.0042.0342l.0026.0079a.0624.0624,0,0,1-.0131.0256c-.0053.0063-.0092.0109-.0144.0115C3.94,3.0286,3.9272,3.0159,3.9161,2.9933Zm.0408.0594-.0048-.0211a.0352.0352,0,0,0,.0149-.0127.067.067,0,0,0,.0123-.0216.1429.1429,0,0,0,.0144.0244c.0089.0129.0128.0144.0157.0148l.0018,0,.0109-.0044,0,.0245-.0007.0122,0,.0062L4.0138,3.09c-.003.0049-.0121.02-.0219.0191-.0059,0-.01-.0063-.0174-.017A.14.14,0,0,1,3.9569,3.0527Zm-.2887.173c-.0148-.0194-.0353-.0473-.0507-.0712-.0083-.0129-.0067-.0168-.006-.0178l.0056-.0011.0119-.0015a.055.055,0,0,0,.0178-.0079.0291.0291,0,0,0,.0106-.0176l.005-.0126a.06.06,0,0,1,.0394-.0229.0633.0633,0,0,1,.0831.0658v.0023h.1356a.0759.0759,0,0,0-.0125.0345.0812.0812,0,0,0,.0134.0516Zm.32.047a.0959.0959,0,0,1-.0541-.0354.086.086,0,0,1-.0216-.0611.089.089,0,0,1,.0265-.0508.1223.1223,0,0,1,.034-.0265.0374.0374,0,0,0,.0138.014.106.106,0,0,0-.021.0272.0956.0956,0,0,0-.0124.0486.0945.0945,0,0,0,.0215.0557.1018.1018,0,0,0,.04.0306A.0913.0913,0,0,1,3.9885,3.2727Zm.07.0027a.06.06,0,0,1-.033-.0017.1.1,0,0,1-.0462-.0322A.086.086,0,0,1,3.97,3.1423a.1014.1014,0,0,1,.0224-.0282c.012,0,.0215-.0154.0253-.0215l.0037-.007,0,.001a.06.06,0,0,0,.0174.0217.0909.0909,0,0,0-.0294.0324A.0883.0883,0,0,0,4,3.1943a.0929.0929,0,0,0,.026.0511.11.11,0,0,0,.04.0273Zm.0184-.0041a.1062.1062,0,0,1-.047-.0291.0873.0873,0,0,1-.0248-.0485.0831.0831,0,0,1,.01-.0508.0854.0854,0,0,1,.0288-.0313l.0024.0022a.0161.0161,0,0,0,.01.0053h0a.02.02,0,0,0,.0149-.01l.0056.003a.0955.0955,0,0,0-.0288.0438.087.087,0,0,0-.0015.0494.1031.1031,0,0,0,.0388.0525.1469.1469,0,0,0,.0262.0177A.1065.1065,0,0,1,4.0765,3.2713Zm.0657.0035a.0927.0927,0,0,1-.0251-.0013.1579.1579,0,0,1-.0292-.0191.1.1,0,0,1-.0373-.05.0833.0833,0,0,1,.0015-.0468.0914.0914,0,0,1,.03-.0442c.0121,0,.0205-.0143.0272-.0255l.0014-.0025a.07.07,0,0,0,.0108.026c.005.0073.01.0149.0185.0159l.002,0c.01,0,.0182-.01.0244-.0179l-.0045.0128c-.0007.0009-.0023.0028-.0205.0124l-.01.005a.0742.0742,0,0,0-.0371.03.0464.0464,0,0,0,.0114.0462.0391.0391,0,0,0,.0136.0085.3236.3236,0,0,1,.0294.0152c.0079.0045.0133.0079.0151.0142a.0174.0174,0,0,1-.0031.0155C4.1578,3.2731,4.1526,3.2738,4.1422,3.2748Zm.04.034A.077.077,0,0,1,4.16,3.276l.0053-.0041a.0217.0217,0,0,0,.004-.02.0311.0311,0,0,0-.0173-.017l-.0189-.01.0393-.0007c.01.0418.0193.0727.0271.0955Zm.0551.0686c-.008.0009-.0267-.0183-.06-.1534l.0979-.0018a.3986.3986,0,0,1-.0066.068C4.2645,3.3114,4.2525,3.376,4.2375,3.3774Zm.0436-.0741-.0119.0077.0039-.02A.398.398,0,0,0,4.28,3.2221l.0261,0h0L4.3176,3.22A.1111.1111,0,0,1,4.2811,3.3033Z"/><path d="M3.9219,1.9739c-.0108.0008-.0257.002-.0317.013A.024.024,0,0,0,3.891,2.01a.0392.0392,0,0,0,.0317.0153h.0032a.0412.0412,0,0,0,.0331-.0137.0269.0269,0,0,0,.0037-.0269C3.9554,1.9713,3.9328,1.973,3.9219,1.9739Zm.0333.0351a.0379.0379,0,0,1-.0323.0117.0343.0343,0,0,1-.0279-.0131.02.02,0,0,1-.0007-.0185c.0048-.0087.0177-.01.028-.0105l.0114-.0006c.01,0,.0208.0016.0248.0092A.0215.0215,0,0,1,3.9552,2.009Z"/><path d="M3.9243,1.9865a.0116.0116,0,1,0,.0115.0116A.0116.0116,0,0,0,3.9243,1.9865Z"/><circle cx="3.8022" cy="2.0348" r="0.0108"/></svg>