<svg xmlns="http://www.w3.org/2000/svg" viewBox="0 0 7.9818 5.1882"><rect width="3.9909" height="2.9647" fill="#050069"/><polygon points="0 2.965 0 3.335 7.982 3.335 7.982 2.965 3.991 2.965 0 2.965" fill="#cd0505"/><rect y="4.447" width="7.9818" height="0.3706" fill="#cd0505"/><rect y="4.0764" width="7.9818" height="0.3706" fill="#fff"/><rect y="3.7058" width="7.9818" height="0.3706" fill="#cd0505"/><rect y="3.3353" width="7.9818" height="0.3705" fill="#fff"/><rect x="3.9909" y="2.5941" width="3.9909" height="0.3706" fill="#fff"/><rect y="4.8176" width="7.9818" height="0.3706" fill="#fff"/><rect x="3.9909" y="0.7412" width="3.9909" height="0.3705" fill="#cd0505"/><rect x="3.9909" y="2.2235" width="3.9909" height="0.3706" fill="#cd0505"/><rect x="3.9909" y="1.1117" width="3.9909" height="0.3706" fill="#fff"/><rect x="3.9909" width="3.9909" height="0.3706" fill="#cd0505"/><rect x="3.9909" y="0.3706" width="3.9909" height="0.3706" fill="#fff"/><rect x="3.9909" y="1.8529" width="3.9909" height="0.3706" fill="#fff"/><rect x="3.9909" y="1.4823" width="3.9909" height="0.3706" fill="#cd0505"/><polygon points="2.903 1.317 3.038 1.159 3.188 0.983 2.847 1.159 2.798 1.184 2.805 1.159 2.89 0.835 2.909 0.76 2.853 0.835 2.644 1.111 2.59 0.835 2.559 0.679 2.529 0.835 2.474 1.109 2.269 0.835 2.212 0.759 2.231 0.835 2.315 1.159 2.322 1.183 2.275 1.159 1.933 0.981 2.083 1.159 2.216 1.315 1.778 1.302 2.178 1.481 2.175 1.482 1.778 1.659 2.215 1.646 2.08 1.806 1.932 1.98 2.269 1.806 2.321 1.779 2.314 1.806 2.23 2.129 2.21 2.203 2.266 2.129 2.474 1.853 2.528 2.129 2.558 2.283 2.588 2.129 2.643 1.853 2.85 2.129 2.906 2.204 2.886 2.129 2.803 1.806 2.796 1.78 2.846 1.806 3.185 1.982 3.036 1.806 2.903 1.647 3.34 1.661 2.941 1.482 2.941 1.482 3.341 1.305 2.903 1.317" fill="#ffcd05"/><path d="M1.26,2.1292q-.0291-.0259-.0559-.0547a.8306.8306,0,0,1-.1677-.2688.8876.8876,0,0,1-.0151-.5884c.0066-.02.0139-.04.0217-.0586a.8679.8679,0,0,1,.235-.3235A.8328.8328,0,0,1,1.3789.76.9254.9254,0,0,1,2.1332.6724,1.12,1.12,0,0,0,1.637.5117a.9494.9494,0,0,0-.136,0,.9064.9064,0,0,0-.2823.0666A.93.93,0,0,0,.8664.8352a1.0292,1.0292,0,0,0-.2439.647v.016a1.0263,1.0263,0,0,0,.0517.3075.948.948,0,0,0,.18.3235.91.91,0,0,0,.0891.09.9684.9684,0,0,0,.6142.2334l.0238,0,.028,0a1.0237,1.0237,0,0,0,.5154-.1565A.8722.8722,0,0,1,1.26,2.1292Z" fill="#ffcd05"/></svg>