<svg xmlns="http://www.w3.org/2000/svg" viewBox="0 0 7.9819 5.1882"><rect width="7.98" height="1.0377" fill="#3d8444"/><polygon points="0.002 3.891 0 3.891 0 5.188 7.98 5.188 7.98 4.151 0.002 4.151 0.002 3.891" fill="#3d8444"/><path d="M.0019,3.6318H7.98V1.5565H0V3.8912H.0019ZM3.75,2.3715,3.99,1.65l.24.7217h.7781l-.63.446.2405.7216-.63-.446-.63.446.24-.7216-.6294-.446Z" fill="#ac1134"/><polygon points="7.98 1.297 7.98 1.038 0 1.038 0 1.297 0 1.556 7.98 1.556 7.98 1.297" fill="#fff"/><polygon points="7.982 3.632 7.98 3.632 0.002 3.632 0.002 3.891 0.002 4.151 7.98 4.151 7.982 4.151 7.982 3.632" fill="#fff"/><polygon points="3.36 3.539 3.99 3.093 4.619 3.539 4.379 2.817 5.008 2.371 4.23 2.371 3.99 1.65 3.75 2.371 2.971 2.371 3.601 2.817 3.36 3.539" fill="#e7bf24"/></svg>