<svg xmlns="http://www.w3.org/2000/svg" viewBox="0 0 7.9819 5.1882"><polygon points="4.554 3.46 4.552 3.459 3.43 3.459 3.428 3.46 3.428 3.459 0 3.459 0 5.188 7.982 5.188 7.982 3.459 4.553 3.459 4.554 3.46"/><polygon points="0 0 0 1.729 3.99 1.729 3.991 1.728 3.991 1.729 7.982 1.729 7.982 0 0 0" fill="#d20f23"/><polygon points="4.554 3.46 4.553 3.459 4.552 3.459 4.554 3.46"/><polygon points="3.991 1.728 3.99 1.729 3.991 1.729 3.991 1.728"/><polygon points="3.991 1.729 3.99 1.729 0 1.729 0 3.459 3.428 3.459 3.43 3.459 4.552 3.459 4.553 3.459 7.982 3.459 7.982 1.729 3.991 1.729" fill="#fff"/><polygon points="3.428 3.46 3.43 3.459 3.428 3.459 3.428 3.46"/></svg>