<svg xmlns="http://www.w3.org/2000/svg" viewBox="0 0 7.9818 5.1882"><rect width="7.9818" height="5.1882" fill="#033a97"/><rect y="2.5941" width="7.9818" height="1.3008" fill="#fff"/><polygon points="2.889 1.711 2.836 1.874 2.664 1.874 2.803 1.975 2.75 2.139 2.889 2.038 3.028 2.139 2.975 1.975 3.114 1.874 2.942 1.874 2.889 1.711" fill="#fbce14"/><polygon points="2.128 1.965 2.075 2.128 1.903 2.128 2.042 2.229 1.989 2.393 2.128 2.292 2.267 2.393 2.214 2.229 2.353 2.128 2.181 2.128 2.128 1.965" fill="#fbce14"/><polygon points="1.656 2.606 1.602 2.77 1.431 2.77 1.57 2.871 1.517 3.034 1.656 2.933 1.795 3.034 1.742 2.871 1.881 2.77 1.709 2.77 1.656 2.606" fill="#fbce14"/><polygon points="1.656 3.738 1.795 3.839 1.742 3.675 1.881 3.574 1.709 3.574 1.656 3.411 1.602 3.574 1.431 3.574 1.57 3.675 1.517 3.839 1.656 3.738" fill="#fbce14"/><polygon points="2.185 4.218 2.132 4.054 2.078 4.218 1.907 4.218 2.046 4.319 1.993 4.482 2.132 4.381 2.271 4.482 2.217 4.319 2.356 4.218 2.185 4.218" fill="#fbce14"/><polygon points="2.946 4.466 2.893 4.302 2.84 4.466 2.668 4.466 2.807 4.566 2.754 4.73 2.893 4.629 3.032 4.73 2.979 4.566 3.118 4.466 2.946 4.466" fill="#fbce14"/><polygon points="3.707 4.218 3.654 4.054 3.601 4.218 3.429 4.218 3.568 4.319 3.515 4.482 3.654 4.381 3.793 4.482 3.74 4.319 3.879 4.218 3.707 4.218" fill="#fbce14"/><polygon points="4.181 3.574 4.128 3.411 4.074 3.574 3.903 3.574 4.042 3.675 3.989 3.839 4.128 3.738 4.267 3.839 4.213 3.675 4.352 3.574 4.181 3.574" fill="#fbce14"/><polygon points="3.989 3.034 4.128 2.933 4.267 3.034 4.213 2.871 4.352 2.77 4.181 2.77 4.128 2.606 4.074 2.77 3.903 2.77 4.042 2.871 3.989 3.034" fill="#fbce14"/><polygon points="3.511 2.393 3.65 2.292 3.789 2.393 3.736 2.229 3.875 2.128 3.704 2.128 3.65 1.965 3.597 2.128 3.425 2.128 3.565 2.229 3.511 2.393" fill="#fbce14"/><rect y="3.0277" width="7.9818" height="0.4336" fill="#d41724"/></svg>