<svg xmlns="http://www.w3.org/2000/svg" viewBox="0 0 7.9818 5.1882"><polygon points="3.512 0 3.191 0 2.557 0 2.232 0 2.232 2.015 0 2.015 0 2.289 0 2.899 0 3.174 2.232 3.174 2.232 5.188 2.557 5.188 3.191 5.188 3.512 5.188 3.512 3.174 7.982 3.174 7.982 2.899 7.982 2.289 7.982 2.015 3.512 2.015 3.512 0" fill="#fffeec"/><polygon points="2.232 0 2.092 0 0 0 0 1.834 0 2.015 2.232 2.015 2.232 0" fill="#00519c"/><polygon points="0 3.174 0 3.354 0 5.188 2.092 5.188 2.232 5.188 2.232 3.174 0 3.174" fill="#00519c"/><polygon points="3.512 5.188 3.652 5.188 7.982 5.188 7.982 3.354 7.982 3.174 3.512 3.174 3.512 5.188" fill="#00519c"/><polygon points="3.652 0 3.512 0 3.512 2.015 7.982 2.015 7.982 1.834 7.982 0 3.652 0" fill="#00519c"/><polygon points="3.179 0 2.577 0 2.569 0 2.569 2.3 0 2.3 0 2.888 2.569 2.888 2.569 5.188 2.577 5.188 3.179 5.188 3.179 2.888 7.982 2.888 7.982 2.3 3.179 2.3 3.179 0" fill="#d70015"/></svg>