<svg xmlns="http://www.w3.org/2000/svg" viewBox="0 0 7.9819 5.1882"><rect width="7.9819" height="5.1882" fill="#d4213f"/><rect y="0.7782" width="7.9819" height="3.6317" fill="#055f35"/><polygon points="3.991 1.012 4.137 1.462 4.611 1.462 4.228 1.741 4.374 2.192 3.991 1.913 3.608 2.192 3.754 1.741 3.371 1.462 3.845 1.462 3.991 1.012" fill="#ffc500"/><path d="M2.3739,1.6658a1.6194,1.6194,0,0,0,3.2387,0,1.7347,1.7347,0,0,1-.0358.9913,1.6669,1.6669,0,0,1-.1668.3377,1.7259,1.7259,0,0,1-.6967.6184A1.6865,1.6865,0,0,1,2.3314,2.3467,1.64,1.64,0,0,1,2.3739,1.6658Z" fill="#ffc500"/></svg>