<svg xmlns="http://www.w3.org/2000/svg" viewBox="0 0 7.9937 5.2066"><rect x="0.009" y="2.6033" width="7.9818" height="2.5941" transform="translate(-0.009 0.0092) rotate(-0.1321)" fill="#ce1126"/><rect x="0.003" y="0.0092" width="7.9818" height="2.5941" transform="translate(-0.003 0.0092) rotate(-0.1321)" fill="#002b7f"/><path d="M1.7231.99a.049.049,0,0,1-.0205.0373l.0523-.0123A.05.05,0,0,1,1.7231.99Z" fill="none"/><path d="M2.297,1.0545l.0087.0115a.2324.2324,0,0,1,.02.0348l-.001-.01a.0489.0489,0,0,1,.0136-.034.0509.0509,0,0,1-.0179.0035A.0493.0493,0,0,1,2.297,1.0545Z" fill="none"/><path d="M2.2475,1.0017A.057.057,0,0,1,2.235,1a.2266.2266,0,0,1,.0405.031.0489.0489,0,0,1-.0042-.02A.05.05,0,0,1,2.2746.9936.0494.0494,0,0,1,2.2475,1.0017Z" fill="none"/><path d="M1.1674.9329a.0494.0494,0,0,1-.0392.0363c.0236.0006.0458.0024.0674.005A.05.05,0,0,1,1.1674.9329Z" fill="none"/><path d="M1.0721.9339a.0493.0493,0,0,1-.0276.0385L1.0689.97,1.11.9689A.0493.0493,0,0,1,1.0721.9339Z" fill="none"/><path d="M.8272,1.2A.0494.0494,0,0,1,.79,1.2357a.05.05,0,0,1,.0353.0386A.4143.4143,0,0,1,.8272,1.2Z" fill="none"/><path d="M.8375,1.3553a.4645.4645,0,0,1-.0117-.07A.0494.0494,0,0,1,.7932,1.33H.7941A.0493.0493,0,0,1,.8375,1.3553Z" fill="none"/><path d="M2.1044.9343A.05.05,0,0,1,2.07.9669c.0122,0,.0247,0,.0378.001l.0191.0014A.05.05,0,0,1,2.1044.9343Z" fill="none"/><path d="M.8573,1.4171q-.0076-.02-.0138-.04V1.379a.0489.0489,0,0,1-.0194.0392A.2117.2117,0,0,1,.8573,1.4171Z" fill="none"/><path d="M2.3742,1.14a.0493.0493,0,0,1-.0405-.0216.314.314,0,0,1,.0153.06A.0493.0493,0,0,1,2.3742,1.14Z" fill="none"/><path d="M1.8935.9865,1.9077.9839,1.9521.9765a.05.05,0,0,1-.04-.0374l.0007.0082A.0489.0489,0,0,1,1.8935.9865Z" fill="none"/><path d="M2.01.9317a.0492.0492,0,0,1-.0282.0407c.02-.0024.0418-.0043.0645-.005A.05.05,0,0,1,2.01.9317Z" fill="none"/><path d="M.8718,1.0693.8856,1.052A.049.049,0,0,1,.843,1.06a.0492.0492,0,0,1,.0111.0309l-.001.0094A.2334.2334,0,0,1,.8718,1.0693Z" fill="none"/><path d="M1.798,1.0057,1.85.9949A.0493.0493,0,0,1,1.8154.9581l.0009.0091A.05.05,0,0,1,1.798,1.0057Z" fill="none"/><path d="M2.3218,1.4138a.19.19,0,0,1,.0331.0009.05.05,0,0,1-.02-.0392V1.3738C2.3312,1.3882,2.3265,1.4017,2.3218,1.4138Z" fill="none"/><path d="M2.3883,1.232a.05.05,0,0,1-.0361-.03.4075.4075,0,0,1,.002.0658A.05.05,0,0,1,2.3883,1.232Z" fill="none"/><path d="M.9457,1.0021.93,1.0048A.0487.0487,0,0,1,.9024.9965l.0027.0161a.05.05,0,0,1-.0078.0267A.2488.2488,0,0,1,.9457,1.0021Z" fill="none"/><path d="M.96.9946A.215.215,0,0,1,1.0151.9767.05.05,0,0,1,.9788.95l0,.0055A.05.05,0,0,1,.96.9946Z" fill="none"/><path d="M2.3529,1.2846a.4559.4559,0,0,1-.0114.067.05.05,0,0,1,.0431-.0257h.001A.05.05,0,0,1,2.3529,1.2846Z" fill="none"/><polygon points="1.631 0.556 1.589 0.489 1.548 0.556 1.59 0.623 1.631 0.556" fill="#ffd83d"/><circle cx="1.5913" cy="1.3057" r="0.0412" fill="#ffd83d"/><path d="M.9574,1.43a.0969.0969,0,0,1-.0251-.0284l.01.0386L.9574,1.45Z"/><path d="M.9327,1.4355.9185,1.381.9144,1.3631h0c-.0094-.0409-.0154-.074-.019-.1011h0a.2249.2249,0,0,1,.0031-.1165A.198.198,0,0,1,.9405,1.08a.2361.2361,0,0,1,.067-.0451.4331.4331,0,0,1,.2692,0,1.7092,1.7092,0,0,1,.2134.0566l.0035-.05c-.0749-.0185-.1507-.0345-.2255-.0476A.7858.7858,0,0,0,1.07.9785a.2593.2593,0,0,0-.1163.0286.2328.2328,0,0,0-.0747.067.2575.2575,0,0,0-.0431.1272.4372.4372,0,0,0,.0311.2165A.1991.1991,0,0,1,.9327,1.4355Z" fill="#ffd83d"/><path d="M1.6251,1.2151a.034.034,0,1,0-.034.034A.0342.0342,0,0,0,1.6251,1.2151Z" fill="#ffd83d"/><path d="M1.2752,1.0426a.4266.4266,0,0,0-.2643-.0006.2244.2244,0,0,0-.0644.0434l-.0132.0153a.213.213,0,0,1,.0735-.052.2674.2674,0,0,1,.0875-.02.3881.3881,0,0,1,.1229.0108.4094.4094,0,0,1,.1878.0959h.0009v.0008l.0174.0172a.3763.3763,0,0,1,.0564.0781l0-.0064L1.49,1.1A1.69,1.69,0,0,0,1.2752,1.0426Z"/><path d="M1.0219,1.5323a.1915.1915,0,0,1,.05-.1265l-.0009.0007a.13.13,0,0,1-.0745.0395l-.0062,0a.0581.0581,0,0,1-.0251-.01v.02A.1806.1806,0,0,1,1.0219,1.5323Z"/><circle cx="1.5907" cy="1.069" r="0.0236" fill="#ffd83d"/><circle cx="1.5909" cy="1.1387" r="0.026" fill="#ffd83d"/><path d="M2.21,1.888l-.0061-.0062h0a4.0845,4.0845,0,0,0-.6128-.0452h0a4.0663,4.0663,0,0,0-.6124.0481h0l-.0062.0062L.9659,1.8864l-.0383.0063c.0642.1046.2724.1148.6934.112.382-.0026.5714-.015.6327-.1151l-.0383-.0061Z"/><path d="M1.5906,1.0271a.0237.0237,0,1,0-.0236-.0235A.0236.0236,0,0,0,1.5906,1.0271Z" fill="#ffd83d"/><circle cx="1.9603" cy="0.9278" r="0.0412" fill="#ffd83d"/><path d="M1.9048.9473a.0413.0413,0,1,0-.0412.0413A.0413.0413,0,0,0,1.9048.9473Z" fill="#ffd83d"/><path d="M2.2475.9935A.0412.0412,0,1,0,2.2062.9524.0413.0413,0,0,0,2.2475.9935Z" fill="#ffd83d"/><path d="M2.1534.9685A.0412.0412,0,1,0,2.1121.9274.0411.0411,0,0,0,2.1534.9685Z" fill="#ffd83d"/><path d="M2.0574.9605A.0412.0412,0,1,0,2.0161.92.0412.0412,0,0,0,2.0574.9605Z" fill="#ffd83d"/><polygon points="1.732 0.663 1.681 0.626 1.629 0.663 1.681 0.699 1.732 0.663" fill="#ffd83d"/><path d="M1.767,1.0085A.0412.0412,0,1,0,1.7257.9674.0412.0412,0,0,0,1.767,1.0085Z" fill="#ffd83d"/><path d="M1.4757,1.28l.0027-.0331-.0028-.0055Z" fill="#ffd83d"/><path d="M1.6327.9875A.0412.0412,0,1,0,1.6738.9463.0413.0413,0,0,0,1.6327.9875Z" fill="#ffd83d"/><path d="M1.6191.7892l.012-.02L1.59.7026,1.5489.77l.0122.02A.0928.0928,0,0,1,1.59.7845.09.09,0,0,1,1.6191.7892Z" fill="#ffd83d"/><path d="M2.3436,1.3755a.0412.0412,0,1,0,.0411-.0413A.0411.0411,0,0,0,2.3436,1.3755Z" fill="#ffd83d"/><path d="M2.28,1.0113A.0412.0412,0,1,0,2.3206.97.0413.0413,0,0,0,2.28,1.0113Z" fill="#ffd83d"/><path d="M2.3334,1.0911a.0412.0412,0,1,0,.041-.0413A.0411.0411,0,0,0,2.3334,1.0911Z" fill="#ffd83d"/><circle cx="2.402" cy="1.2795" r="0.0412" fill="#ffd83d"/><path d="M2.357,1.1837a.0412.0412,0,1,0,.0411-.0413A.0412.0412,0,0,0,2.357,1.1837Z" fill="#ffd83d"/><path d="M2.3159,1.4225a.1787.1787,0,0,0-.0966.0364.1763.1763,0,0,0-.0627.1047l-.0047.0033-.0034-.0045A.1931.1931,0,0,0,2.1,1.408a.1627.1627,0,0,0-.0789-.0454L2.008,1.3612l-.0112,0a.2823.2823,0,0,0-.2084.1865l-.005.0023-.0028-.0046a.1438.1438,0,0,0-.0082-.0828A.1272.1272,0,0,0,1.7417,1.42l-.0092-.0095C1.7038,1.3789,1.7,1.3434,1.69,1.2252c-.0054-.0645-.01-.1276-.0144-.1874v-.001H1.6741a.0494.0494,0,0,1-.05-.0492A.05.05,0,0,1,1.6336.959.0923.0923,0,0,1,1.5479.96a.0493.0493,0,0,1-.04.0777l-.0057,0v.0013c-.004.06-.0086.1233-.0136.1875-.0092.1182-.0132.1537-.0418.1858l-.0092.01a.13.13,0,0,0-.03.0423.1448.1448,0,0,0-.0077.0828l-.0029.0046-.005-.0023a.2818.2818,0,0,0-.2092-.1855l-.0111,0-.013.0015a.1624.1624,0,0,0-.0787.0457.1928.1928,0,0,0-.0479.1546L1.028,1.57l-.0047-.0033a.1715.1715,0,0,0-.16-.14.2152.2152,0,0,0-.1474.0464.7566.7566,0,0,1,.077.1173A.79.79,0,0,1,.834,1.683c.01.0259.0214.0552.04.097s.04.088.0494.1051l.0424-.0069V1.85l.0062-.0062L.9779,1.85v.0266l.0226-.0035V1.8386l.0062-.0061.0062.0061V1.871l.0213-.0031V1.832L1.04,1.8258l.0062.0062v.0342L1.07,1.863l-.0013-.0036v-.035l.0062-.0062.0062.0062v.035l0,.0022.0373-.0046-.002-.0046v-.035l.0061-.0062.0062.0062v.035l-.0009.0035.0365-.0041-.0006-.0026v-.035L1.17,1.808l.0062.0062v.035l0,.0014.0351-.0036-.0033-.0054v-.035L1.2138,1.8l.0062.0062v.035l-.0024.0048.0366-.0033L1.2517,1.838V1.803l.0062-.0062.0061.0062v.035l-.0019.0045L1.2976,1.84l-.0027-.0051V1.8l.0062-.0062L1.3072,1.8v.035l-.0021.0046.0354-.0025-.0031-.0053v-.035L1.3435,1.79l.0062.0062v.035l-.0025.005.0349-.0021-.0008-.003v-.035L1.3875,1.79l.0061.0062v.035l0,.0025.0326-.0016-.0019-.0044v-.035L1.43,1.7865l.0062.0062v.035l-.0016.0041.0332-.0013-.0007-.0029v-.035l.0061-.0062.0062.0062v.035L1.4789,1.83l.0407-.001,0-.0017v-.035l.0062-.0062.0062.0062v.035l0,.0015.0539-.0006v-.036l.0062-.0063.0061.0062v.036l.0522,0,0-.0015v-.035l.0062-.0062.0062.0062v.035l0,.0017.0407.0008-.0006-.0026v-.035l.0062-.0062.0062.0062v.035L1.7132,1.83l.0332.0011L1.7448,1.827V1.792l.0062-.0062.0062.0062v.035l-.0019.0044.0326.0014,0-.0025v-.035l.0062-.0062L1.8,1.7953V1.83l-.0008.003.0349.0019L1.8313,1.83v-.035l.0062-.0062.0062.0062V1.83l-.0032.0053.0355.0023-.0021-.0046v-.035L1.88,1.792l.0062.0062v.035l-.0027.0051.0355.0027-.0019-.0045v-.035l.0062-.0062.0061.0062v.035l-.0026.0051.0366.0031L1.961,1.84v-.035l.0062-.0062.0062.0062V1.84L1.97,1.8453l.0351.0034,0-.0014v-.035l.0062-.0062.0062.0062v.035L2.0167,1.85l.0367.0039L2.0523,1.85v-.035l.0062-.0062.0061.0061V1.85l-.002.0047L2.1,1.8593,2.1,1.8571v-.035l.0062-.0062.0062.0061v.035l-.0011.0036.0238.0031V1.83l.0062-.0062L2.147,1.83v.0359l.0214.0029V1.8359L2.1744,1.83l.0062.0061V1.87l.0227.0033V1.8468l.0061-.0062.0062.0062v.0285l.0424.0067c.01-.0181.0314-.0648.049-.1053.0183-.0421.0295-.0715.0394-.0975a.797.797,0,0,1,.0406-.0934.7509.7509,0,0,1,.0764-.1177A.2155.2155,0,0,0,2.3159,1.4225ZM.9494,1.51l.0078.0042.0138.045-.0042.0077-.0018,0L.9591,1.5628.9454,1.5177ZM.911,1.4986l.0082.003.02.0425-.003.0082L.9337,1.553.9281,1.5494l-.02-.0426Zm-.04-.01.0082.003.02.0425L.896,1.542l-.0026.0006L.8878,1.5392l-.02-.0426Zm-.0464.04L.82,1.5308.8155,1.5294.78,1.4988.779,1.49l.0087-.0007L.8236,1.52Zm.0243-.0016L.821,1.4889.8224,1.48l.0086.0014L.8587,1.52l-.0015.0086L.8536,1.53ZM.9467,1.71a.6544.6544,0,0,0-.0894-.0767.14.14,0,0,0,.0433.0128c.01.0013.0154.002.0183-.0006C.9247,1.6406.923,1.6224.89,1.566c.0534.0642.074.0765.0817.0721l.0064-.0095.0156-.03a.3114.3114,0,0,0-.008.0964.3062.3062,0,0,0,.018.0837A.6474.6474,0,0,0,.9467,1.71Zm.2906-.2918.0077.004.0137.0451-.004.0077-.0018,0L1.247,1.4713l-.0139-.045Zm-.04-.0087.0077.0041.0138.045-.0041.0077-.0018,0-.0059-.0044-.0138-.0449Zm-.0352,0,.0077.0041.0137.045-.0041.0077-.0018,0-.0059-.0044-.0137-.045Zm-.0606.17-.0038.0013L1.0924,1.579l-.0291-.0369.001-.0087.0087.001.0292.037Zm.0119-.0449-.0039.0014-.0048-.0023-.0292-.0371.0011-.0086.0086.001.0292.0369Zm.011-.0311-.0027.0006-.0056-.0036-.02-.0425.003-.0082.0082.0029.02.0425Zm.0192-.0255-.0059-.0043-.0137-.0451.004-.0077.0077.0041.0139.0451-.0042.0077Zm.1094.1632a.52.52,0,0,0,.0064.0947.5788.5788,0,0,0-.1129-.17.1008.1008,0,0,0,.0261.0151l.0133.0036c.0071-.0024.0109-.0236-.0043-.107.0323.0781.0473.0931.0549.0914l.0128-.0118.0168-.02A.5249.5249,0,0,0,1.2526,1.6418Zm.046-.1413-.0018,0-.0059-.0044-.0138-.045.0041-.0077.0077.0041.0138.045ZM1.67,1.4169l.0062-.0063.0062.0062v.0471L1.6766,1.47,1.67,1.464ZM1.643,1.399v.047l-.0062.0062L1.6307,1.446V1.399l.0062-.0062ZM1.5905.9716a.0319.0319,0,1,1,0,.0637.0319.0319,0,1,1,0-.0637Zm0,.0655a.0319.0319,0,1,1-.0319.032A.0319.0319,0,0,1,1.5907,1.0371Zm-.006.22a.0422.0422,0,0,1,.0063-.084.0342.0342,0,1,1,.0341-.0342.0341.0341,0,0,1-.0341.0342.0422.0422,0,0,1,.0067.0839.05.05,0,1,1-.013,0Zm.0279.1375v.0471l-.0062.0062L1.6,1.4415V1.3944l.0062-.0062Zm-.0337,0v.0471l-.0062.0062-.0062-.0062V1.3945l.0062-.0062Zm-.0427.0048.0061-.0062.0062.0061v.047l-.0062.0063-.0061-.0062Zm-.04.018.0062-.0063.0062.0062v.0471L1.5029,1.47l-.0063-.006Zm-.0409.1339-.0018,0-.0059-.0043L1.4341,1.502l.0042-.0077.0077.0041.0137.045Zm.0209-.0452-.0018,0-.0059-.0044-.0137-.045.0041-.0078.0077.0042.0138.045Zm.1384.1415a.4644.4644,0,0,0-.024.0991.5263.5263,0,0,0-.0266-.1009.5173.5173,0,0,0-.0756-.1347c.0085.0033.0207.0082.0351.0152.0173.0084.0225.0123.03.01.01-.0024.0155-.0138.0222-.0291a.1714.1714,0,0,0,.0136-.05.2358.2358,0,0,0,.0142.05c.0106.0253.0175.0285.021.0295.0071.0019.0124-.0017.0282-.009.0092-.0043.0227-.01.04-.0164A.4639.4639,0,0,0,1.6149,1.6475Zm.0958-.1461-.0059.0044-.0018,0-.0041-.0077.0135-.045L1.72,1.4485l.0041.0077Zm.0347,0-.0136.0451-.0059.0043-.0018,0L1.72,1.5428l.0136-.0451.0077-.0041Zm.2508-.0441.0135-.045.0077-.0041.0042.0076-.0136.0451-.0059.0044L2,1.4649Zm-.0353,0,.0136-.045.0077-.0042.0041.0077-.0136.0451-.0059.0044-.0018,0Zm-.04.0089.0136-.0452.0077-.0041.0041.0077L1.9325,1.47l-.0059.0043-.0018,0ZM1.9022,1.45l-.0135.0452L1.8828,1.5l-.0018,0-.0042-.0077L1.89,1.4464l.0077-.0042Zm.0653.1992a.5646.5646,0,0,0-.0458.0859A.524.524,0,0,0,1.9276,1.64a.5141.5141,0,0,0-.0136-.104l.0171.02.0127.0116c.0076.0017.0224-.0133.0545-.0916-.0148.0835-.011.1046-.0039.107L2.0078,1.58a.0978.0978,0,0,0,.026-.0153A.5781.5781,0,0,0,1.9675,1.6491Zm.0747-.1769-.0059.0043-.0018,0L2.03,1.4686l.0136-.0451.0076-.0041.0042.0077Zm.0216.0267-.0056.0037L2.0556,1.502l-.003-.0083.02-.0427.0082-.0029.003.0082Zm.0068.0354L2.0668,1.533l-.0011-.0087.029-.037.0087-.001.001.0086-.029.0371Zm.0459.0053-.029.0371-.0049.0024-.0038-.0013-.001-.0087.0289-.037.0087-.0012Zm.1642-.009.02-.0426.0083-.003.0029.0083-.02.0426-.0056.0035-.0026-.0006Zm-.04.01.02-.0426.0082-.003.003.0082-.02.0426L2.246,1.55l-.0026-.0006Zm-.0314.0152.0134-.045L2.23,1.5071l.0042.0077L2.2208,1.56l-.0059.0044-.0018,0Zm.0248.1512a.6409.6409,0,0,0-.0567.068.3116.3116,0,0,0,.0176-.0838.305.305,0,0,0-.0086-.0963l.0158.03.0064.01c.0077.0044.0283-.0079.0815-.0725-.0327.0566-.0344.0748-.0283.08.0028.0026.008.0019.0182.0006a.1457.1457,0,0,0,.0432-.013A.64.64,0,0,0,2.2338,1.7075Zm.1667-.2211L2.4,1.4951l-.0356.0308-.004.0014-.0047-.0021.0006-.0087.0357-.0308Zm-.0434-.01.0014.0086-.0274.0382-.005.0026-.0036-.0011-.0014-.0086.0274-.0383Z" fill="#ffd83d"/><path d="M2.275,1.2712l0-.11L2.2641,1.14l0,.1839c.0043-.0193.0079-.0366.0106-.0524Z" fill="#ffd83d"/><path d="M1.8591,1.0835a.3753.3753,0,0,0-.0355.0211l.0007.2841A.3042.3042,0,0,0,1.86,1.3814Z" fill="#ffd83d"/><path d="M1.8161,1.39,1.8154,1.11a.3717.3717,0,0,0-.0351.0285l.0006.2456A.0693.0693,0,0,0,1.8161,1.39Z" fill="#ffd83d"/><path d="M2.2564,1.34l-.0005-.2115h.0016a.194.194,0,0,0-.0364-.0416l.0007.33A.12.12,0,0,0,2.2564,1.34Z" fill="#ffd83d"/><path d="M2.0346,1.0344,2,1.0382l.0007.3145h0l.008,0,.0264.0027Z" fill="#ffd83d"/><path d="M1.905,1.369l-.0007-.3058a.3967.3967,0,0,0-.037.0161l.0006.3.0136-.0035Z" fill="#ffd83d"/><path d="M2.2137,1.4528v-.02a.059.059,0,0,1-.025.01l-.0063,0a.13.13,0,0,1-.0747-.0392l-.0009-.0006a.1914.1914,0,0,1,.051.1261A.1818.1818,0,0,1,2.2137,1.4528Z"/><path d="M2.1877,1.4348a.0555.0555,0,0,0,.0259-.0115L2.2129,1.08a.2153.2153,0,0,0-.0355-.0221l.0009.3766Z" fill="#ffd83d"/><path d="M1.947,1.05,1.9125,1.06l.0007.3063c.011-.0032.0219-.0063.0345-.0087Z" fill="#ffd83d"/><path d="M1.41,1.0094A.0412.0412,0,1,0,1.3691.9683.0412.0412,0,0,0,1.41,1.0094Z" fill="#ffd83d"/><path d="M2.2468,1.3988a.0982.0982,0,0,1-.0249.0286v.0193l.0148-.0091Z"/><path d="M1.7278,1.199l-.0168.0267,0,.0743a.3076.3076,0,0,0,.0169.0281Z" fill="#ffd83d"/><path d="M1.7726,1.38l0-.2333-.0114.0116a.3828.3828,0,0,0-.0246.0294l0,.1522.0077.01A.138.138,0,0,0,1.7726,1.38Z" fill="#ffd83d"/><path d="M2.1692,1.0543l-.0018-.0008a.2009.2009,0,0,0-.0349-.0116l.0008.3721a.1079.1079,0,0,0,.0368.02Z" fill="#ffd83d"/><path d="M1.3142.9842A.0412.0412,0,1,0,1.2729.9431.0413.0413,0,0,0,1.3142.9842Z" fill="#ffd83d"/><path d="M2.1251,1.4076,2.1243,1.04a.329.329,0,0,0-.0333-.0048l.0008.3437.0008.0007.0081.0072.0122.0109Z" fill="#ffd83d"/><path d="M1.9552,1.0475l.0007.3088.026-.0029.01,0L1.9917,1.04l-.03.0062Z" fill="#ffd83d"/><path d="M2.0826,1.0346h0a.3014.3014,0,0,0-.0395-.0006l.0008.3234a.1286.1286,0,0,1,.04.0159Z" fill="#ffd83d"/><path d="M1.2313,1.36a.3328.3328,0,0,1,.0344.0085L1.265,1.0617l-.0344-.01Z" fill="#ffd83d"/><path d="M.9138,1.1427l-.01.0226,0,.0966C.9059,1.28.91,1.3.9142,1.3238Z" fill="#ffd83d"/><path d="M1.6876,1.0906a1.74,1.74,0,0,1,.2131-.0576A.4344.4344,0,0,1,2.17,1.0318a.2384.2384,0,0,1,.0673.0448.2118.2118,0,0,1,.0428.0715.4185.4185,0,0,1-.0195.23l-.0138.0545a.2.2,0,0,1,.066-.0179.4371.4371,0,0,0,.0289-.2306.2579.2579,0,0,0-.0425-.1131.228.228,0,0,0-.0722-.0659A.2548.2548,0,0,0,2.1077.9761a.8085.8085,0,0,0-.1985.016c-.0748.0135-.1506.03-.2252.0486Z" fill="#ffd83d"/><path d="M.9655,1.4262a.0561.0561,0,0,0,.0261.0113H1.001L1,1.0609a.225.225,0,0,0-.0353.0219Z" fill="#ffd83d"/><path d="M1.3192,1.3827c.0134.0032.0251.0057.0356.0071l-.0007-.2841a.3521.3521,0,0,0-.0355-.0209Z" fill="#ffd83d"/><path d="M1.0951,1.0368h0l.0007.3387a.1288.1288,0,0,1,.04-.0161l-.0008-.3234A.3137.3137,0,0,0,1.0951,1.0368Z" fill="#ffd83d"/><path d="M1.1776,1.04l-.0348-.0036.0007.3213L1.17,1.3549l.0084,0Z" fill="#ffd83d"/><path d="M1.2739,1.3705l.0235.0066.0136.0035-.0006-.3a.38.38,0,0,0-.0372-.0159Z" fill="#ffd83d"/><path d="M1.0083,1.057l.0009.3792a.1078.1078,0,0,0,.0366-.02L1.045,1.0444a.2023.2023,0,0,0-.0349.0118Z" fill="#ffd83d"/><path d="M1.0541,1.41l.0121-.01.0122-.011.0079-.0072.0009-.0007-.0007-.3437a.3031.3031,0,0,0-.0332.005Z" fill="#ffd83d"/><path d="M1.3631,1.3906a.0709.0709,0,0,0,.0351-.0053L1.3976,1.14a.3548.3548,0,0,0-.0352-.0283Z" fill="#ffd83d"/><path d="M1.7028,1.2794V1.2408L1.7,1.2463Z" fill="#ffd83d"/><path d="M1.935,1.369l-.0267.0076-.0246.0071a.3231.3231,0,0,1-.0751.0143.0711.0711,0,0,1-.0366-.0088.1233.1233,0,0,1-.0342-.0342.3354.3354,0,0,1-.0321-.0478.155.155,0,0,0,.033.0981l.0089.0092a.1386.1386,0,0,1,.0324.0446.1443.1443,0,0,1,.0113.0635A.3385.3385,0,0,1,1.935,1.369Z"/><path d="M1.4316,1.4152l.0089-.0092a.1556.1556,0,0,0,.0325-.0983.32.32,0,0,1-.0319.048.1259.1259,0,0,1-.034.0344.0722.0722,0,0,1-.0366.0089.3155.3155,0,0,1-.075-.014l-.0249-.0069-.0267-.0075a.3391.3391,0,0,1,.1446.1529A.1414.1414,0,0,1,1.3994,1.46.138.138,0,0,1,1.4316,1.4152Z"/><path d="M2.1666,1.0393a.4276.4276,0,0,0-.2642.0018,1.7185,1.7185,0,0,0-.2142.058l.01.1254.0005.0064a.3758.3758,0,0,1,.056-.0783l.0175-.0174V1.1344h.0008A.41.41,0,0,1,1.96,1.0377a.39.39,0,0,1,.1227-.0114.2723.2723,0,0,1,.0877.02.2169.2169,0,0,1,.0716.05l-.0112-.0136A.2272.2272,0,0,0,2.1666,1.0393Z"/><path d="M1.4506,1.3288l.0169-.0283,0-.0743L1.45,1.2Z" fill="#ffd83d"/><path d="M1.1858,1.0414l.0007.3134.01,0,.026.0028-.0007-.3088-.007-.0018Z" fill="#ffd83d"/><path d="M1.4059,1.1475l.0005.2333a.14.14,0,0,0,.0283-.03l.0078-.01,0-.1522a.3655.3655,0,0,0-.0248-.0293Z" fill="#ffd83d"/><path d="M.92,1.1318H.9221l0,.2115A.1187.1187,0,0,0,.9573,1.42L.9566,1.09A.1792.1792,0,0,0,.92,1.1318Z" fill="#ffd83d"/><path d="M1.5628.7974a.0855.0855,0,0,0-.05.0471h.05Z" fill="#ffd83d"/><path d="M1.5486.9877a.0412.0412,0,1,0-.0411.0413A.0412.0412,0,0,0,1.5486.9877Z" fill="#ffd83d"/><path d="M1.12.9617A.0412.0412,0,1,0,1.0784.9206.0413.0413,0,0,0,1.12.9617Z" fill="#ffd83d"/><path d="M1.2167.9707A.0412.0412,0,1,0,1.1755.93.0413.0413,0,0,0,1.2167.9707Z" fill="#ffd83d"/><path d="M.93.9966A.0412.0412,0,1,0,.8886.9555.0413.0413,0,0,0,.93.9966Z" fill="#ffd83d"/><path d="M.8558,1.0538a.0412.0412,0,1,0-.0413-.041A.0411.0411,0,0,0,.8558,1.0538Z" fill="#ffd83d"/><path d="M1.5905.9615A.0842.0842,0,0,0,1.67.9037a1.3362,1.3362,0,0,0-.16,0A.0846.0846,0,0,0,1.5905.9615Z" fill="#ffd83d"/><path d="M1.6726.8955A.0876.0876,0,0,0,1.6747.8769.0826.0826,0,0,0,1.6709.8524H1.6067V.7944A.081.081,0,0,0,1.59.7927L1.571.7951V.8526H1.51a.0837.0837,0,0,0-.0036.0246L1.508.8959A1.3492,1.3492,0,0,1,1.6726.8955Z" fill="#ffd83d"/><path d="M1.615.8443h.0529a.0841.0841,0,0,0-.053-.0477Z" fill="#ffd83d"/><path d="M.8045,1.05a.0412.0412,0,1,0,.0413.0411A.041.041,0,0,0,.8045,1.05Z" fill="#ffd83d"/><circle cx="1.0231" cy="0.9279" r="0.0412" fill="#ffd83d"/><path d="M.8177,1.2831a.0412.0412,0,1,0-.0411.0413A.0413.0413,0,0,0,.8177,1.2831Z" fill="#ffd83d"/><path d="M.8354,1.379A.0412.0412,0,1,0,.7943,1.42.0412.0412,0,0,0,.8354,1.379Z" fill="#ffd83d"/><circle cx="0.7796" cy="1.1873" r="0.0412" fill="#ffd83d"/><path d="M1.6134.6629a.0236.0236,0,1,0-.0472,0,.0236.0236,0,0,0,.0472,0Z" fill="#ffd83d"/><polygon points="1.447 0.663 1.499 0.699 1.551 0.663 1.499 0.627 1.447 0.663" fill="#ffd83d"/><path d="M1.8154.9581l0-.0015" fill="none" stroke="#fff" stroke-linecap="round" stroke-linejoin="round" stroke-width="0"/><path d="M1.9122.9391,1.9116.9361" fill="none" stroke="#fff" stroke-linecap="round" stroke-linejoin="round" stroke-width="0"/><path d="M1.5914,1.3551a.0494.0494,0,0,0,.0063-.0983.042.042,0,1,0-.013,0,.0493.0493,0,0,0,.0067.0982Zm-.0343-.14a.034.034,0,1,1,.034.0339A.034.034,0,0,1,1.5571,1.2152Zm.0341.0493a.0412.0412,0,1,1-.0411.0413A.0413.0413,0,0,1,1.5912,1.2645Z"/><path d="M1.6251,1.1387a.0342.0342,0,1,0-.0341.0342A.0343.0343,0,0,0,1.6251,1.1387Zm-.0342.026a.026.026,0,1,1,.026-.026A.0259.0259,0,0,1,1.5909,1.1647Z"/><path d="M1.5908,1.1009a.0319.0319,0,1,0-.032-.0318A.0318.0318,0,0,0,1.5908,1.1009Zm0-.0555a.0236.0236,0,1,1-.0236.0237A.0236.0236,0,0,1,1.5907,1.0454Z"/><path d="M1.5906,1.0353a.0319.0319,0,1,0-.0319-.0317A.0319.0319,0,0,0,1.5906,1.0353Zm0-.0555a.0237.0237,0,1,1,0,.0473.0237.0237,0,0,1,0-.0473Z"/><path d="M1.6247,1.537c-.0035-.001-.01-.0042-.021-.0295a.2358.2358,0,0,1-.0142-.05.1714.1714,0,0,1-.0136.05c-.0067.0153-.012.0267-.0222.0291-.0074.0018-.0126-.0021-.03-.01-.0144-.007-.0266-.0119-.0351-.0152a.5173.5173,0,0,1,.0756.1347.5263.5263,0,0,1,.0266.1009.46.46,0,0,1,.1017-.235c-.017.0061-.0305.0121-.04.0164C1.6371,1.5353,1.6318,1.5389,1.6247,1.537Z"/><path d="M1.9944,1.5834c-.0071-.0024-.0109-.0235.0039-.107-.0321.0783-.0469.0933-.0545.0916l-.0127-.0116-.0171-.02a.5141.5141,0,0,1,.0136.104.524.524,0,0,1-.0059.0947.5646.5646,0,0,1,.0458-.0859.5781.5781,0,0,1,.0663-.0846.0978.0978,0,0,1-.026.0153Z"/><path d="M2.2615,1.6428c-.0061-.0053-.0044-.0235.0283-.08-.0532.0646-.0738.0769-.0815.0725l-.0064-.01-.0158-.03a.305.305,0,0,1,.0086.0963.3116.3116,0,0,1-.0176.0838A.6359.6359,0,0,1,2.3229,1.63a.1457.1457,0,0,1-.0432.013C2.27,1.6447,2.2643,1.6454,2.2615,1.6428Z"/><polygon points="1.6 1.394 1.6 1.442 1.606 1.448 1.613 1.441 1.613 1.394 1.606 1.388 1.6 1.394"/><polygon points="1.631 1.399 1.631 1.446 1.637 1.452 1.643 1.446 1.643 1.399 1.637 1.393 1.631 1.399"/><polygon points="1.677 1.47 1.683 1.464 1.683 1.417 1.676 1.411 1.67 1.417 1.67 1.464 1.677 1.47"/><polygon points="1.72 1.449 1.712 1.453 1.699 1.498 1.703 1.505 1.705 1.506 1.711 1.501 1.724 1.456 1.72 1.449"/><polygon points="1.741 1.494 1.734 1.498 1.72 1.543 1.724 1.551 1.726 1.551 1.732 1.546 1.745 1.501 1.741 1.494"/><polygon points="1.898 1.442 1.89 1.446 1.877 1.491 1.881 1.499 1.883 1.499 1.889 1.495 1.902 1.45 1.898 1.442"/><polygon points="1.925 1.474 1.927 1.474 1.932 1.47 1.946 1.425 1.942 1.417 1.934 1.421 1.921 1.466 1.925 1.474"/><polygon points="1.965 1.465 1.967 1.465 1.973 1.461 1.986 1.416 1.982 1.408 1.975 1.412 1.961 1.457 1.965 1.465"/><polygon points="2 1.465 2.002 1.465 2.008 1.461 2.022 1.416 2.017 1.408 2.01 1.412 1.996 1.457 2 1.465"/><polygon points="2.213 1.564 2.215 1.564 2.221 1.56 2.234 1.515 2.23 1.507 2.222 1.511 2.209 1.556 2.213 1.564"/><polygon points="2.052 1.419 2.044 1.423 2.03 1.469 2.034 1.476 2.036 1.477 2.042 1.472 2.056 1.427 2.052 1.419"/><polygon points="2.081 1.448 2.073 1.451 2.053 1.494 2.056 1.502 2.058 1.503 2.064 1.499 2.084 1.456 2.081 1.448"/><polygon points="2.284 1.539 2.286 1.539 2.292 1.536 2.312 1.493 2.309 1.485 2.301 1.488 2.281 1.531 2.284 1.539"/><polygon points="2.243 1.549 2.246 1.55 2.252 1.546 2.272 1.504 2.269 1.495 2.26 1.498 2.24 1.541 2.243 1.549"/><polygon points="2.103 1.486 2.095 1.487 2.066 1.524 2.067 1.533 2.071 1.534 2.075 1.532 2.104 1.495 2.103 1.486"/><polygon points="2.115 1.531 2.107 1.532 2.078 1.569 2.079 1.578 2.083 1.579 2.087 1.577 2.117 1.54 2.115 1.531"/><polygon points="2.322 1.525 2.326 1.526 2.331 1.524 2.358 1.485 2.357 1.477 2.348 1.478 2.321 1.516 2.322 1.525"/><polygon points="2.355 1.525 2.36 1.527 2.364 1.526 2.4 1.495 2.4 1.486 2.392 1.486 2.356 1.516 2.355 1.525"/><path d="M2.2094,1.8406l-.0061.0062v.0266l.0123.0019V1.8468Z"/><path d="M2.21,1.888l.0059-.0045-.012-.0018h0Z"/><path d="M2.1744,1.83l-.0061.0061v.0324l.0123.0018V1.8359Z"/><path d="M2.147,1.83l-.0062-.0062L2.1346,1.83v.0342l.0123.0017V1.83Z"/><polygon points="2.112 1.822 2.106 1.816 2.1 1.822 2.1 1.857 2.1 1.859 2.111 1.861 2.112 1.857 2.112 1.822"/><polygon points="2.065 1.815 2.058 1.809 2.052 1.815 2.052 1.85 2.053 1.854 2.063 1.855 2.065 1.85 2.065 1.815"/><polygon points="2.017 1.812 2.011 1.806 2.005 1.812 2.005 1.847 2.005 1.849 2.017 1.85 2.017 1.847 2.017 1.812"/><polygon points="1.973 1.84 1.973 1.805 1.967 1.799 1.961 1.805 1.961 1.84 1.963 1.845 1.97 1.845 1.973 1.84"/><polygon points="1.929 1.836 1.929 1.801 1.923 1.795 1.917 1.801 1.917 1.836 1.919 1.841 1.927 1.842 1.929 1.836"/><polygon points="1.886 1.833 1.886 1.798 1.88 1.792 1.874 1.798 1.874 1.833 1.876 1.838 1.884 1.838 1.886 1.833"/><polygon points="1.844 1.83 1.844 1.795 1.837 1.789 1.831 1.795 1.831 1.83 1.834 1.835 1.84 1.835 1.844 1.83"/><polygon points="1.8 1.795 1.793 1.789 1.787 1.795 1.787 1.83 1.788 1.833 1.799 1.833 1.8 1.83 1.8 1.795"/><polygon points="1.757 1.792 1.751 1.786 1.745 1.792 1.745 1.827 1.746 1.831 1.755 1.831 1.757 1.827 1.757 1.792"/><polygon points="1.714 1.792 1.708 1.786 1.701 1.792 1.702 1.827 1.702 1.83 1.713 1.83 1.714 1.827 1.714 1.792"/><polygon points="1.662 1.792 1.655 1.786 1.649 1.792 1.649 1.827 1.65 1.829 1.661 1.829 1.662 1.827 1.662 1.792"/><path d="M2.472,1.4642a.241.241,0,0,0-.0761-.0407.0493.0493,0,0,0,.0053-.0946h.0009a.0495.0495,0,0,0,.01-.0979.0494.0494,0,0,0-.0134-.0968.0494.0494,0,0,0-.0241-.0926.0478.0478,0,0,0-.0178.0035.0494.0494,0,0,0-.036-.0833A.0486.0486,0,0,0,2.2935.97.05.05,0,0,0,2.2968.9522a.0494.0494,0,0,0-.0944-.02l0-.0047A.0494.0494,0,0,0,2.1062.9125a.0494.0494,0,0,0-.0981.0029.0494.0494,0,0,0-.0972.0125l.0007.0082.0006.003a.05.05,0,0,0,.04.0374L1.9077.9839,1.8935.9865A.0489.0489,0,0,0,1.9129.9473L1.9122.9391,1.9116.9361a.0494.0494,0,0,0-.0975.0114l.001.0091,0,.0015A.0493.0493,0,0,0,1.85.9949l-.0522.0108A.05.05,0,0,0,1.8163.9672L1.8154.9581l0-.0015a.0494.0494,0,0,0-.0975.0078A.05.05,0,0,0,1.6738.938L1.6573.941a.0925.0925,0,0,0-.03-.1489L1.6407.7694,1.5945.6944A.0319.0319,0,0,0,1.6213.6676l.06.0414L1.7469.6626,1.6806.6163,1.6213.6581a.0321.0321,0,0,0-.027-.0267L1.64.5562,1.5894.4737,1.5387.5565l.0464.075a.0316.0316,0,0,0-.0268.0267l-.06-.0414L1.4327.6633,1.499.7094,1.5583.6677a.032.032,0,0,0,.027.0268L1.5392.77l.0141.0225a.0925.0925,0,0,0-.03.1489.0494.0494,0,0,0-.0421.0886L1.4224,1.016A.0494.0494,0,1,0,1.3609.9683a.049.049,0,0,0,.0185.0383c-.0367-.0077-.0735-.0147-.11-.0212L1.2252.9781A.0493.0493,0,0,0,1.2648.94V.9431A.05.05,0,1,0,1.2659.9323l0-.0029A.0494.0494,0,0,0,1.1689.9172.0494.0494,0,0,0,1.0706.9146.0494.0494,0,0,0,.9737.9281l0,.0057A.0493.0493,0,0,0,.88.9555L.883.9716A.0485.0485,0,0,0,.8556.9632a.05.05,0,0,0-.0493.05.0488.0488,0,0,0,.011.0309A.045.045,0,0,0,.8045,1.042a.0495.0495,0,1,0,.04.0782.2924.2924,0,0,0-.0157.0663.0494.0494,0,1,0-.0627.0483.0494.0494,0,0,0,.01.0978H.7775a.0494.0494,0,0,0,.0058.0946.2406.2406,0,0,0-.0759.0411l-.0005.0058a.7464.7464,0,0,1,.0787.1192.7852.7852,0,0,1,.0407.0927c.01.0259.0215.0554.04.0973.02.0453.043.0934.0512.1083.0589.1064.2478.1225.6281.1216l.0755,0c.3917-.0027.5828-.0159.6429-.1244.009-.0161.0322-.0658.0508-.1085s.03-.0718.0395-.0978a.8184.8184,0,0,1,.04-.0926.7447.7447,0,0,1,.0783-.12Zm-.65-.5167a.0413.0413,0,1,1,.0413.0411A.0414.0414,0,0,1,1.8223.9475ZM1.3691.9683a.0412.0412,0,1,1,.0413.0411A.0412.0412,0,0,1,1.3691.9683ZM1.314.9019a.0412.0412,0,1,1-.0411.0412A.0411.0411,0,0,1,1.314.9019Zm1.0409.5128a.19.19,0,0,0-.0331-.0009c.0047-.0121.0094-.0256.0136-.04v.0017A.05.05,0,0,0,2.3549,1.4147Zm.071-.0394a.0412.0412,0,1,1-.0412-.0411A.0411.0411,0,0,1,2.4259,1.3753Zm-.0413-.0494a.05.05,0,0,0-.0431.0257.4559.4559,0,0,0,.0114-.067.05.05,0,0,0,.0327.0414Zm-.0324-.1242a.05.05,0,0,0,.0361.03.05.05,0,0,0-.0341.0355A.4075.4075,0,0,0,2.3522,1.2017ZM2.349,1.1788a.314.314,0,0,0-.0153-.06.0493.0493,0,0,0,.0405.0216A.0493.0493,0,0,0,2.349,1.1788Zm.0942.1006a.0412.0412,0,1,1-.0413-.0411A.0413.0413,0,0,1,2.4432,1.2794Zm-.0039-.0959a.0412.0412,0,1,1-.0412-.0411A.0412.0412,0,0,1,2.4393,1.1835ZM2.3744,1.05a.0412.0412,0,1,1-.041.0413A.0413.0413,0,0,1,2.3744,1.05Zm-.0493.0413.001.01a.2324.2324,0,0,0-.02-.0348L2.297,1.0545a.0493.0493,0,0,0,.0238.0061.0509.0509,0,0,0,.0179-.0035A.0489.0489,0,0,0,2.3251,1.0911Zm-.05-.06A.2266.2266,0,0,0,2.235,1a.057.057,0,0,0,.0125.0015A.0494.0494,0,0,0,2.2746.9936a.05.05,0,0,0-.0033.0177A.0489.0489,0,0,0,2.2755,1.0312ZM2.3206.97a.0412.0412,0,1,1-.0411.0413A.0412.0412,0,0,1,2.3206.97ZM2.2473.9112a.0412.0412,0,1,1-.0411.0412A.0412.0412,0,0,1,2.2473.9112ZM2.2151.99A.2118.2118,0,0,0,2.1672.9747.0487.0487,0,0,0,2.1981.9478V.9524A.05.05,0,0,0,2.2151.99ZM2.1532.8861a.0412.0412,0,1,1-.0411.0413A.0412.0412,0,0,1,2.1532.8861ZM2.1273.9693,2.1082.9679C2.0951.9673,2.0826.9669,2.07.9669a.05.05,0,0,0,.034-.0326A.05.05,0,0,0,2.1273.9693Zm-.07-.0911A.0412.0412,0,1,1,2.0161.92.0413.0413,0,0,1,2.0572.8782Zm-.1381.05A.0412.0412,0,1,1,1.96.969.0412.0412,0,0,1,1.9191.9279Zm.09.0038a.05.05,0,0,0,.0363.0357c-.0227.0007-.0441.0026-.0645.005A.0492.0492,0,0,0,2.01.9317Zm-.1.06a.8085.8085,0,0,1,.1985-.016.2548.2548,0,0,1,.1191.0288.228.228,0,0,1,.0722.0659.2579.2579,0,0,1,.0425.1131.4371.4371,0,0,1-.0289.2306.2.2,0,0,0-.066.0179L2.26,1.3779a.4185.4185,0,0,0,.0195-.23.2118.2118,0,0,0-.0428-.0715A.2384.2384,0,0,0,2.17,1.0318a.4344.4344,0,0,0-.2691.0012,1.74,1.74,0,0,0-.2131.0576l-.0036-.05C1.7586,1.022,1.8344,1.0056,1.9092.9921Zm-.1292.467a.1386.1386,0,0,0-.0324-.0446l-.0089-.0092a.155.155,0,0,1-.033-.0981.3354.3354,0,0,0,.0321.0478.1233.1233,0,0,0,.0342.0342.0711.0711,0,0,0,.0366.0088.3231.3231,0,0,0,.0751-.0143l.0246-.0071L1.935,1.369a.3385.3385,0,0,0-.1437.1536A.1443.1443,0,0,0,1.78,1.4591Zm.2628-.4251a.3014.3014,0,0,1,.0395.0006h0l.0008.3387a.1286.1286,0,0,0-.04-.0159Zm.0579.3529L2.0926,1.38,2.0918,1.379,2.091,1.0353a.329.329,0,0,1,.0333.0048l.0008.3675-.0122-.01Zm.0318-.345a.2009.2009,0,0,1,.0349.0116l.0018.0008.0009.3792a.1079.1079,0,0,1-.0368-.02Zm.0449.0164a.2153.2153,0,0,1,.0355.0221l.0007.3429a.0555.0555,0,0,1-.0259.0115H2.1783Zm.0437.0288a.194.194,0,0,1,.0364.0416H2.2559l.0005.2115a.12.12,0,0,1-.0346.0766Zm.043.0526.0106.0219,0,.11h0c-.0027.0158-.0063.0331-.0106.0524ZM2.1707,1.046a.2723.2723,0,0,0-.0877-.02.39.39,0,0,0-.1227.0114.41.41,0,0,0-.1874.0967H1.7721v.0008l-.0175.0174a.3758.3758,0,0,0-.056.0783l-.0005-.0064-.01-.1254a1.7185,1.7185,0,0,1,.2142-.058.4276.4276,0,0,1,.2642-.0018.2272.2272,0,0,1,.0645.043l.0112.0136A.2169.2169,0,0,0,2.1707,1.046Zm-.4679.2334L1.7,1.2463l.0028-.0055Zm.0082-.0537.0168-.0267,0,.1291A.3076.3076,0,0,1,1.7112,1.3Zm.0251-.0381a.3828.3828,0,0,1,.0246-.0294l.0114-.0116,0,.2333a.138.138,0,0,1-.0284-.03l-.0077-.01ZM1.78,1.1388A.3717.3717,0,0,1,1.8154,1.11l.0007.2792a.0693.0693,0,0,1-.0352-.0051Zm.0433-.0342a.3753.3753,0,0,1,.0355-.0211l.0007.2979a.3042.3042,0,0,1-.0355.0073Zm.0437-.0253a.3967.3967,0,0,1,.037-.0161l.0007.3058-.0235.0068-.0136.0035ZM1.9125,1.06,1.947,1.05l.0007.3082c-.0126.0024-.0235.0055-.0345.0087Zm.08.2927-.01,0-.026.0029-.0007-.3088.007-.0018.03-.0062Zm.0086,0h0L2,1.0382l.0347-.0038.0008.3213L2.009,1.353Zm.1067.0514a.13.13,0,0,0,.0747.0392l.0063,0a.059.059,0,0,0,.025-.01v.02a.1818.1818,0,0,0-.0559.0768.1914.1914,0,0,0-.051-.1261Zm.1142.0233a.0982.0982,0,0,0,.0249-.0286l-.01.0388-.0148.0091Zm-.5193-.4A.049.049,0,0,0,1.7231.99a.05.05,0,0,0,.0318.025ZM1.7668.9261a.0412.0412,0,1,1-.0411.0413A.0412.0412,0,0,1,1.7668.9261Zm-.093.02a.0412.0412,0,1,1-.0411.0412A.0412.0412,0,0,1,1.6738.9463ZM1.6679.8442H1.615V.7965A.0841.0841,0,0,1,1.6679.8442ZM1.6806.6264l.0519.0362L1.6808.699,1.6288.6629Zm-.1322-.07.041-.067.0412.0668L1.59.6232ZM1.499.6994,1.447.6633,1.4988.6269,1.5507.663ZM1.5662.663A.0236.0236,0,1,1,1.59.6865.0237.0237,0,0,1,1.5662.663ZM1.5489.77,1.59.7026l.0412.0668-.012.02A.09.09,0,0,0,1.59.7845a.0928.0928,0,0,0-.029.0048Zm.0139.0278v.047h-.05A.0855.0855,0,0,1,1.5628.7974ZM1.51.8527h.0616V.7951L1.59.7927a.081.081,0,0,1,.0165.0017V.8525h.0642a.0826.0826,0,0,1,.0038.0245.0876.0876,0,0,1-.0021.0186,1.3492,1.3492,0,0,0-.1646,0L1.5059.8773A.0837.0837,0,0,1,1.51.8527ZM1.51.904a1.3362,1.3362,0,0,1,.16,0,.0844.0844,0,0,1-.16,0Zm-.044.0839a.0412.0412,0,1,1,.0413.0411A.0412.0412,0,0,1,1.4662.9879Zm-.0777.5356a.3391.3391,0,0,0-.1446-.1529l.0267.0075.0249.0069a.3155.3155,0,0,0,.075.014A.0722.0722,0,0,0,1.4071,1.39a.1259.1259,0,0,0,.034-.0344.32.32,0,0,0,.0319-.048.1556.1556,0,0,1-.0325.0983l-.0089.0092a.138.138,0,0,0-.0322.0448A.1414.1414,0,0,0,1.3885,1.5235Zm-.4459-.083-.01-.0386A.0969.0969,0,0,0,.9574,1.43V1.45Zm.1927-.081a.1288.1288,0,0,0-.04.0161l-.0007-.3387h0a.3137.3137,0,0,1,.0394-.0007Zm-.0481.0218-.0009.0007-.0079.0072L1.0662,1.4l-.0121.01-.0008-.3675a.3031.3031,0,0,1,.0332-.005Zm-.0414.0352a.1078.1078,0,0,1-.0366.02L1.0083,1.057,1.01,1.0562a.2023.2023,0,0,1,.0349-.0118Zm-.0448.0211H.9916a.0561.0561,0,0,1-.0261-.0113L.9648,1.0828A.225.225,0,0,1,1,1.0609ZM.9573,1.42a.1187.1187,0,0,1-.0347-.0764l0-.2115H.92A.1792.1792,0,0,1,.9566,1.09Zm-.054-.2544.01-.0226,0,.1811C.91,1.3.9059,1.28.9035,1.2619Zm.0623.2709a.0581.0581,0,0,0,.0251.01l.0062,0a.13.13,0,0,0,.0745-.0395l.0009-.0007a.1915.1915,0,0,0-.05.1265.1806.1806,0,0,0-.0563-.0766Zm.1779-.0784-.0007-.3213.0348.0036.0007.3145-.0084,0ZM1.4757,1.28V1.2413l.0028.0055Zm-.0082.0206-.0169.0283,0-.1291.017.0265Zm-.025.04-.0078.01a.14.14,0,0,1-.0283.03l-.0005-.2333.0114.0115a.3655.3655,0,0,1,.0248.0293Zm-.0443.0448a.0709.0709,0,0,1-.0351.0053l-.0007-.2792a.3548.3548,0,0,1,.0352.0283ZM1.3548,1.39c-.01-.0014-.0222-.0039-.0356-.0071l-.0006-.2979a.3521.3521,0,0,1,.0355.0209ZM1.311,1.3806l-.0136-.0035-.0235-.0066-.0007-.3058a.38.38,0,0,1,.0372.0159ZM1.2657,1.368A.3328.3328,0,0,0,1.2313,1.36l-.0007-.3082.0344.01Zm-.0427-.01-.026-.0028-.01,0-.0007-.3134.03.006.007.0018ZM1.48,1.225l0,.0064a.3763.3763,0,0,0-.0564-.0781l-.0174-.0172V1.1353H1.405a.4094.4094,0,0,0-.1878-.0959.3881.3881,0,0,0-.1229-.0108.2674.2674,0,0,0-.0875.02.213.213,0,0,0-.0735.052l.0132-.0153a.2244.2244,0,0,1,.0644-.0434.4266.4266,0,0,1,.2643.0006A1.69,1.69,0,0,1,1.49,1.1ZM1.2165.8883A.0412.0412,0,1,1,1.1755.93.0412.0412,0,0,1,1.2165.8883ZM1.1956.9742C1.174.9716,1.1518.97,1.1282.9692A.0494.0494,0,0,0,1.1674.9329.05.05,0,0,0,1.1956.9742ZM1.12.8794a.0412.0412,0,1,1-.0411.0412A.0412.0412,0,0,1,1.12.8794Zm-.01.09L1.0689.97,1.0445.9724A.0493.0493,0,0,0,1.0721.9339.0493.0493,0,0,0,1.11.9689ZM1.023.8867A.0412.0412,0,1,1,.9819.928.0414.0414,0,0,1,1.023.8867ZM.9788.95a.05.05,0,0,0,.0363.027A.215.215,0,0,0,.96.9946.05.05,0,0,0,.9791.9552ZM.9024.9965A.0487.0487,0,0,0,.93,1.0048l.0159-.0027a.2488.2488,0,0,0-.0484.0372.05.05,0,0,0,.0078-.0267ZM.93.9143a.0412.0412,0,1,1-.041.0412A.0412.0412,0,0,1,.93.9143Zm-.1151.0985a.0412.0412,0,1,1,.0413.041A.0413.0413,0,0,1,.8145,1.0128Zm-.01.12a.0412.0412,0,1,1,.0411-.0412A.0412.0412,0,0,1,.8047,1.1326ZM.843,1.06A.049.049,0,0,0,.8856,1.052l-.0138.0173a.2334.2334,0,0,0-.0187.0314l.001-.0094A.0492.0492,0,0,0,.843,1.06Zm-.0076.1409a.2575.2575,0,0,1,.0431-.1272.2328.2328,0,0,1,.0747-.067A.2593.2593,0,0,1,1.07.9785a.7858.7858,0,0,1,.1986.0151c.0748.0131.1506.0291.2255.0476l-.0035.05a1.7092,1.7092,0,0,0-.2134-.0566.4331.4331,0,0,0-.2692,0,.2361.2361,0,0,0-.067.0451.198.198,0,0,0-.0421.0658.2249.2249,0,0,0-.0031.1165h0c.0036.0271.01.06.019.1011h0l.0041.0179.0142.0545a.1991.1991,0,0,0-.0662-.0177A.4372.4372,0,0,1,.8354,1.2013Zm-.01.073A.05.05,0,0,0,.79,1.2357.0494.0494,0,0,0,.8272,1.2h0A.4143.4143,0,0,0,.8251,1.2743ZM.7384,1.1874A.0412.0412,0,1,1,.78,1.2285.0413.0413,0,0,1,.7384,1.1874Zm.0382.137a.0412.0412,0,1,1,.0411-.0413A.0413.0413,0,0,1,.7766,1.3244ZM.8258,1.285a.4645.4645,0,0,0,.0117.07A.0493.0493,0,0,0,.7941,1.33H.7932A.0494.0494,0,0,0,.8258,1.285ZM.753,1.3792a.0412.0412,0,1,1,.0413.041A.0413.0413,0,0,1,.753,1.3792Zm.0906,0V1.3775q.0061.02.0138.04a.2117.2117,0,0,0-.0331.0011A.0489.0489,0,0,0,.8436,1.379Zm.7774.6257c-.421.0028-.6292-.0074-.6934-.112l.0383-.0063L.978,1.8846A4.0663,4.0663,0,0,1,1.59,1.8365h0a4.0845,4.0845,0,0,1,.6128.0452l.012.0018.0383.0061C2.1924,1.99,2.003,2.0021,1.621,2.0047Zm.7661-.4189a.797.797,0,0,0-.0406.0934c-.01.026-.0211.0554-.0394.0975-.0176.04-.0393.0872-.049.1053l-.0424-.0067-.0123-.0019L2.1807,1.87l-.0123-.0018L2.147,1.8654l-.0123-.0017-.0238-.0031L2.1,1.8593l-.0376-.0044-.0092-.0011L2.0167,1.85l-.0116-.0012L1.97,1.8453l-.0066-.0006-.0366-.0031L1.919,1.841l-.0355-.0027-.0075,0-.0355-.0023-.0067,0-.0349-.0019-.011,0-.0326-.0014-.0089,0L1.7132,1.83l-.011,0-.0407-.0008-.0118,0-.0522,0H1.5854l-.0539.0006-.0119,0-.0407.001-.011,0-.0332.0013-.0089,0-.0326.0016-.011,0-.0349.0021-.0067,0-.0354.0025-.0076,0-.0355.0029-.0078.0006-.0366.0033-.0066.0006-.0351.0036-.0116.0012-.0365.0041-.0094.0011-.0373.0046L1.07,1.863l-.0238.0032-.0123.0017L1.013,1.871l-.0124.0018L.978,1.8763l-.0124.0019-.0424.0069C.9142,1.868.8926,1.8229.8738,1.78s-.03-.0711-.04-.097A.79.79,0,0,0,.7929,1.59a.7566.7566,0,0,0-.077-.1173.2152.2152,0,0,1,.1474-.0464.1715.1715,0,0,1,.16.14L1.028,1.57l.0034-.0046A.1928.1928,0,0,1,1.0793,1.41a.1624.1624,0,0,1,.0787-.0457l.013-.0015.0111,0a.2818.2818,0,0,1,.2092.1855l.005.0023.0029-.0046a.1448.1448,0,0,1,.0077-.0828.13.13,0,0,1,.03-.0423l.0092-.01c.0286-.0321.0326-.0676.0418-.1858.005-.0642.01-.1273.0136-.1875V1.0369l.0057,0A.0493.0493,0,0,0,1.5479.96.0923.0923,0,0,0,1.6336.959a.05.05,0,0,0-.0091.0286.0494.0494,0,0,0,.05.0492h.0015v.001c.0042.06.009.1229.0144.1874.01.1182.0139.1537.0426.1856l.0092.0095a.1272.1272,0,0,1,.0307.0421.1438.1438,0,0,1,.0082.0828l.0028.0046.005-.0023a.2823.2823,0,0,1,.2084-.1865l.0112,0,.0129.0014A.1627.1627,0,0,1,2.1,1.408a.1931.1931,0,0,1,.0487.1544l.0034.0045.0047-.0033a.1763.1763,0,0,1,.0627-.1047.1787.1787,0,0,1,.0966-.0364.2155.2155,0,0,1,.1476.0456A.7509.7509,0,0,0,2.3871,1.5858Z"/><path d="M1.2361,1.57c-.0076.0017-.0226-.0133-.0549-.0914.0152.0834.0114.1046.0043.107l-.0133-.0036a.1008.1008,0,0,1-.0261-.0151.5788.5788,0,0,1,.1129.17.5189.5189,0,0,1,.0067-.1987l-.0168.02Z"/><path d="M.9938,1.5981l-.0156.03-.0064.0095C.9641,1.6425.9435,1.63.89,1.566c.0329.0564.0346.0746.0288.08-.0029.0026-.0081.0019-.0183.0006a.14.14,0,0,1-.0433-.0128A.6544.6544,0,0,1,.9467,1.71a.6474.6474,0,0,1,.0571.0678.3062.3062,0,0,1-.018-.0837A.3114.3114,0,0,1,.9938,1.5981Z"/><polygon points="1.566 1.394 1.567 1.442 1.573 1.448 1.579 1.442 1.579 1.394 1.573 1.388 1.566 1.394"/><polygon points="1.542 1.452 1.549 1.446 1.548 1.399 1.542 1.393 1.536 1.399 1.536 1.446 1.542 1.452"/><polygon points="1.503 1.47 1.509 1.464 1.509 1.417 1.503 1.411 1.497 1.417 1.497 1.464 1.503 1.47"/><polygon points="1.467 1.453 1.459 1.449 1.455 1.457 1.469 1.502 1.475 1.506 1.477 1.506 1.481 1.498 1.467 1.453"/><polygon points="1.446 1.498 1.438 1.494 1.434 1.502 1.448 1.547 1.454 1.551 1.456 1.551 1.46 1.543 1.446 1.498"/><polygon points="1.289 1.448 1.281 1.444 1.277 1.451 1.291 1.496 1.297 1.501 1.299 1.501 1.303 1.493 1.289 1.448"/><polygon points="1.247 1.471 1.253 1.476 1.255 1.475 1.259 1.468 1.245 1.423 1.237 1.419 1.233 1.426 1.247 1.471"/><polygon points="1.207 1.463 1.213 1.467 1.214 1.467 1.218 1.459 1.205 1.414 1.197 1.41 1.193 1.418 1.207 1.463"/><polygon points="1.171 1.463 1.177 1.467 1.179 1.467 1.183 1.459 1.169 1.414 1.162 1.41 1.158 1.418 1.171 1.463"/><polygon points="0.959 1.563 0.965 1.567 0.967 1.567 0.971 1.559 0.957 1.514 0.949 1.51 0.945 1.518 0.959 1.563"/><polygon points="1.149 1.471 1.135 1.426 1.128 1.422 1.124 1.429 1.137 1.474 1.143 1.479 1.145 1.478 1.149 1.471"/><polygon points="1.107 1.453 1.099 1.45 1.096 1.459 1.116 1.501 1.121 1.505 1.124 1.504 1.127 1.496 1.107 1.453"/><polygon points="0.888 1.539 0.893 1.543 0.896 1.542 0.899 1.534 0.879 1.491 0.871 1.488 0.868 1.497 0.888 1.539"/><polygon points="0.928 1.549 0.934 1.553 0.936 1.552 0.939 1.544 0.919 1.502 0.911 1.499 0.908 1.507 0.928 1.549"/><polygon points="1.085 1.49 1.076 1.489 1.075 1.497 1.104 1.534 1.109 1.537 1.113 1.535 1.114 1.527 1.085 1.49"/><polygon points="1.073 1.534 1.064 1.533 1.063 1.542 1.092 1.579 1.097 1.581 1.101 1.58 1.102 1.571 1.073 1.534"/><polygon points="0.859 1.52 0.831 1.482 0.822 1.48 0.821 1.489 0.849 1.527 0.854 1.53 0.857 1.528 0.859 1.52"/><polygon points="0.788 1.489 0.779 1.49 0.78 1.499 0.815 1.529 0.82 1.531 0.824 1.529 0.824 1.52 0.788 1.489"/><path d="M.9718,1.8909.978,1.8847h0l-.0121.0018Z"/><path d="M.9717,1.8435.9655,1.85v.0285L.978,1.8763V1.85Z"/><path d="M1.0067,1.8325l-.0062.0061v.0342L1.013,1.871V1.8386Z"/><path d="M1.04,1.8258l-.0062.0062v.0359l.0123-.0017V1.832Z"/><polygon points="1.081 1.824 1.075 1.818 1.069 1.824 1.069 1.859 1.07 1.863 1.081 1.862 1.082 1.859 1.081 1.824"/><polygon points="1.129 1.817 1.123 1.811 1.116 1.817 1.117 1.852 1.119 1.857 1.128 1.856 1.129 1.852 1.129 1.817"/><polygon points="1.176 1.814 1.17 1.808 1.164 1.814 1.164 1.849 1.164 1.852 1.176 1.851 1.176 1.849 1.176 1.814"/><polygon points="1.22 1.842 1.22 1.807 1.214 1.8 1.208 1.807 1.208 1.842 1.211 1.847 1.218 1.846 1.22 1.842"/><polygon points="1.264 1.803 1.258 1.797 1.252 1.803 1.252 1.838 1.254 1.843 1.262 1.842 1.264 1.838 1.264 1.803"/><polygon points="1.307 1.799 1.301 1.793 1.295 1.8 1.295 1.835 1.298 1.84 1.305 1.839 1.307 1.834 1.307 1.799"/><polygon points="1.35 1.831 1.35 1.796 1.343 1.79 1.337 1.796 1.337 1.831 1.341 1.837 1.347 1.836 1.35 1.831"/><polygon points="1.394 1.796 1.387 1.79 1.381 1.796 1.381 1.831 1.382 1.834 1.393 1.834 1.394 1.831 1.394 1.796"/><polygon points="1.436 1.793 1.43 1.787 1.424 1.793 1.424 1.828 1.426 1.832 1.435 1.832 1.436 1.828 1.436 1.793"/><polygon points="1.479 1.793 1.473 1.786 1.467 1.793 1.467 1.828 1.468 1.831 1.479 1.83 1.479 1.828 1.479 1.793"/><path d="M1.5316,1.7925l-.0062-.0062-.0062.0062v.035l0,.0017.0119,0,0-.0015Z"/><polygon points="1.597 1.792 1.591 1.786 1.585 1.792 1.585 1.827 1.585 1.828 1.59 1.828 1.591 1.828 1.597 1.828 1.598 1.827 1.597 1.792"/></svg>