<svg xmlns="http://www.w3.org/2000/svg" viewBox="0 0 7.9818 5.1882"><rect width="7.9818" height="5.1882" fill="#009cc8"/><polygon points="2.195 1.038 2.328 1.038 2.351 1.038 3.991 1.038 3.991 0.865 3.103 0.865 3.991 0.29 3.991 0.256 3.991 0.19 3.991 0 3.986 0 2.66 0.865 2.657 0.865 2.36 0.865 3.694 0 3.542 0 2.328 0.791 2.328 0 2.195 0 2.195 0.865 2.195 1.038" fill="#fff"/><polygon points="1.796 1.038 1.796 0.865 1.796 0 1.663 0 1.663 0.791 0.449 0 0 0 1.334 0.865 1.034 0.865 0 0.19 0 0.29 0.888 0.865 0 0.865 0 1.038 1.663 1.038 1.796 1.038" fill="#fff"/><polygon points="1.663 0 0.449 0 1.663 0.791 1.663 0" fill="#036"/><polygon points="1.334 0.865 0 0 0 0.19 1.034 0.865 1.334 0.865" fill="#cf142b"/><polygon points="0 0.29 0 0.326 0 0.771 0 0.772 0 0.865 0.888 0.865 0 0.29" fill="#036"/><polygon points="3.542 0 2.328 0 2.328 0.791 3.542 0" fill="#036"/><polygon points="2.657 0.865 2.66 0.865 3.986 0 3.694 0 2.36 0.865 2.657 0.865" fill="#cf142b"/><polygon points="3.991 0.865 3.991 0.702 3.991 0.29 3.103 0.865 3.991 0.865" fill="#036"/><polygon points="1.796 1.556 1.796 1.729 1.796 2.594 2.195 2.594 2.195 1.729 2.195 1.556 2.328 1.556 2.351 1.556 3.991 1.556 3.991 1.556 3.991 1.119 3.991 1.038 3.991 1.038 2.351 1.038 2.328 1.038 2.195 1.038 2.195 0.865 2.195 0 1.796 0 1.796 0.865 1.796 1.038 1.663 1.038 0 1.038 0 1.038 0 1.189 0 1.556 0 1.556 1.663 1.556 1.796 1.556" fill="#cf142b"/><polygon points="2.328 1.556 2.195 1.556 2.195 1.729 2.195 2.594 2.328 2.594 2.328 2.019 2.328 1.92 2.328 1.803 3.542 2.594 3.662 2.594 3.694 2.594 3.986 2.594 3.991 2.594 2.658 1.729 2.66 1.729 2.777 1.729 2.954 1.729 2.957 1.729 3.991 2.404 3.991 2.304 3.103 1.729 3.991 1.729 3.991 1.565 3.991 1.556 2.351 1.556 2.328 1.556" fill="#fff"/><polygon points="1.334 1.729 1.334 1.729 1.625 1.729 1.627 1.729 0.294 2.594 0.299 2.594 0.329 2.594 0.449 2.594 1.663 1.803 1.663 2.594 1.796 2.594 1.796 1.729 1.796 1.556 1.663 1.556 0 1.556 0 1.634 0 1.635 0 1.729 0.888 1.729 0 2.304 0 2.404 0 2.485 0 2.486 0 2.521 0 2.594 1.328 1.729 1.334 1.729" fill="#fff"/><polygon points="0.449 2.594 0.628 2.594 0.775 2.594 1.663 2.594 1.663 1.803 0.449 2.594" fill="#036"/><polygon points="1.627 1.729 1.625 1.729 1.334 1.729 1.334 1.729 1.328 1.729 0 2.594 0.294 2.594 1.627 1.729" fill="#cf142b"/><polygon points="0 1.729 0 2.04 0 2.304 0.888 1.729 0 1.729" fill="#036"/><polygon points="2.328 1.92 2.328 2.019 2.328 2.594 3.216 2.594 3.362 2.594 3.542 2.594 2.328 1.803 2.328 1.92" fill="#036"/><polygon points="2.954 1.729 2.777 1.729 2.66 1.729 2.658 1.729 3.991 2.594 3.991 2.521 3.991 2.416 3.991 2.404 2.957 1.729 2.954 1.729" fill="#cf142b"/><polygon points="3.991 2.304 3.991 1.97 3.991 1.729 3.103 1.729 3.991 2.304" fill="#036"/><polygon points="7.288 0.776 7.21 1.017 6.956 1.017 7.161 1.167 7.083 1.408 7.288 1.259 7.493 1.408 7.415 1.167 7.62 1.017 7.367 1.017 7.288 0.776" fill="#ffce00"/><polygon points="7.367 2.659 7.288 2.418 7.21 2.659 6.956 2.659 7.161 2.809 7.083 3.05 7.288 2.901 7.493 3.05 7.415 2.809 7.62 2.659 7.367 2.659" fill="#ffce00"/><polygon points="6.625 3.134 6.546 2.893 6.468 3.134 6.214 3.134 6.42 3.283 6.341 3.525 6.546 3.376 6.752 3.525 6.673 3.283 6.879 3.134 6.625 3.134" fill="#ffce00"/><polygon points="4.173 4.186 4.095 3.944 4.017 4.186 3.763 4.186 3.968 4.335 3.89 4.576 4.095 4.427 4.3 4.576 4.222 4.335 4.427 4.186 4.173 4.186" fill="#ffce00"/><polygon points="5.297 3.758 5.092 3.907 4.886 3.758 4.965 3.999 4.759 4.149 5.013 4.149 5.092 4.39 5.17 4.149 5.424 4.149 5.219 3.999 5.297 3.758" fill="#ffce00"/><polygon points="5.297 2.907 5.092 3.056 4.886 2.907 4.965 3.149 4.759 3.298 5.013 3.298 5.092 3.539 5.17 3.298 5.424 3.298 5.219 3.149 5.297 2.907" fill="#ffce00"/><polygon points="5.895 2.079 5.973 2.32 6.052 2.079 6.306 2.079 6.1 1.93 6.179 1.688 5.973 1.837 5.768 1.688 5.846 1.93 5.641 2.079 5.895 2.079" fill="#ffce00"/><polygon points="6.63 1.824 6.709 2.065 6.787 1.824 7.041 1.824 6.835 1.674 6.914 1.433 6.709 1.582 6.503 1.433 6.582 1.674 6.376 1.824 6.63 1.824" fill="#ffce00"/><polygon points="6.179 3.539 5.973 3.689 5.768 3.539 5.846 3.781 5.641 3.93 5.895 3.93 5.973 4.172 6.052 3.93 6.306 3.93 6.1 3.781 6.179 3.539" fill="#ffce00"/></svg>