<svg xmlns="http://www.w3.org/2000/svg" viewBox="0 0 7.9819 5.1882"><rect width="7.9819" height="5.1882" fill="#010000"/><path d="M0,0,7.9819,5.1882V0ZM6.3535,2.8327a.3817.3817,0,0,1-.0888.2.4134.4134,0,0,1-.2856.1187.2424.2424,0,0,1-.1145-.0126.2213.2213,0,0,1-.0554-.0317.5908.5908,0,0,0,.12-.0041.5529.5529,0,0,0,.2156-.0738.4963.4963,0,0,0,.0715-.5349.4256.4256,0,0,1-.3862.3394.376.376,0,0,1-.2514-.1123.4532.4532,0,0,0,.41-.0425.4321.4321,0,0,0,.1462-.255.1482.1482,0,0,0-.0028-.0587.13.13,0,0,0-.0253-.0462c-.0278-.0334-.1622-.1665-.3494-.3435l-.0138.0438c-.0194-.0072-.0395-.0152-.06-.0242a1.1058,1.1058,0,0,1-.1325-.0692q.0139.0378.0276.0772c.0093.027.0182.0535.0265.08A.103.103,0,0,1,5.5683,2.08c-.0179-.0046-.0256-.012-.0276-.01a1.02,1.02,0,0,0,.1441.2133.0664.0664,0,0,1-.0242.0081.07.07,0,0,1-.0346-.0046c.0211.0282.0428.0591.0644.0926.0226.0353.0425.0694.06.1017a.1465.1465,0,0,1-.0587-.01.1449.1449,0,0,1-.038-.0219q.0209.039.0415.0819l.0207.0449a.8845.8845,0,0,1-.1533-.0588.9215.9215,0,0,1-.31-.2513L5.25,2.3474c-.0123-.0068-.0251-.0144-.038-.0231a.4839.4839,0,0,1-.1084-.1v.113A.8658.8658,0,0,1,4.99,2.2609a.64.64,0,0,1-.1522-.1568.5063.5063,0,0,1-.0761-.2658.4466.4466,0,0,1-.1314.1493l-.0035-.1348c-.0182.02-.0377.0411-.0588.0622-.0283.0283-.0561.054-.083.0773L4.4834,1.877a.3573.3573,0,0,1-.1095.1095c-.0106.0066-.021.0123-.0311.0173a.3019.3019,0,0,1,.0023-.045.3133.3133,0,0,1,.0184-.0738l-.106.0819a.2044.2044,0,0,1,0-.0323.217.217,0,0,1,.0161-.0669c-.02.0138-.0411.0278-.0646.0415a.9422.9422,0,0,1-.0864.045.2275.2275,0,0,1,.008-.0357.2316.2316,0,0,1,.0289-.06.3339.3339,0,0,0-.03.0242.711.711,0,0,1-.0646.0634.1641.1641,0,0,1-.0311.0173c.0046-.0127.0115-.0312.0207-.053.0287-.0678.19-.45.4278-.4727.15-.0144.2961.1188.3368.07a.0545.0545,0,0,0,.0114-.032c0-.0373-.0433-.0653-.0692-.0818-.05-.0317-.0636-.0211-.1072-.0519-.0351-.0248-.0258-.0315-.0623-.0576A.76.76,0,0,0,4.48,1.229c-.0288-.0142-.0517-.0271-.0663-.0357.0249.0025.0577.0052.0963.0069.0354.0015.0717.0031.1126.001.1088-.0057.1152-.0323.1583-.0171.0394.0138.0386.034.1116.0886.0581.0434.0965.0721.1282.06s.042-.0621.0484-.0969a.9688.9688,0,0,0-.008-.189A.4838.4838,0,0,1,5.08.92.4766.4766,0,0,1,5.2414.7014c.0937-.0844.2171-.1622.2359-.1422.01.01-.007.0448-.0312.0945A.5136.5136,0,0,1,5.41.716a.2369.2369,0,0,1,.0323-.01A.2558.2558,0,0,1,5.475.7a.2228.2228,0,0,1-.0116.0508.2141.2141,0,0,1-.0172.0369A.07.07,0,0,1,5.4784.7828a.071.071,0,0,1,.0427.0208.5342.5342,0,0,1-.0374.0533A.5475.5475,0,0,1,5.445.9.1814.1814,0,0,1,5.5.9074a.1751.1751,0,0,1,.0346.0138A.2073.2073,0,0,1,5.45,1.003a.2766.2766,0,0,1,.03.0231l.0219.0219c-.0121.0145-.0247.0291-.0381.0438-.03.0335-.0605.0638-.09.0911a.5991.5991,0,0,1,.3124-.0568.59.59,0,0,1,.2122.0614c-.0144.0092-.0306.0185-.0484.0277s-.0349.0167-.0508.023a.7742.7742,0,0,1,.2594.188.0986.0986,0,0,1-.0622.0127.9263.9263,0,0,1,.2133.2836.0508.0508,0,0,1-.0185.0023.05.05,0,0,1-.0253-.0092.78.78,0,0,1,.0922.2686.41.41,0,0,1-.0657-.0369.4047.4047,0,0,1-.0634-.0542.3016.3016,0,0,1,.0184.0623.2936.2936,0,0,1,.0046.05.29.29,0,0,1-.0334-.0173.31.31,0,0,1-.05-.0368.5826.5826,0,0,1,.1423.3954.67.67,0,0,1,.1021.1753A.5479.5479,0,0,1,6.3535,2.8327Z" fill="#c71529"/><path d="M6.211,2.3462a.5826.5826,0,0,0-.1423-.3954.31.31,0,0,0,.05.0368.29.29,0,0,0,.0334.0173.2936.2936,0,0,0-.0046-.05.3016.3016,0,0,0-.0184-.0623.4047.4047,0,0,0,.0634.0542.41.41,0,0,0,.0657.0369.78.78,0,0,0-.0922-.2686.05.05,0,0,0,.0253.0092.0508.0508,0,0,0,.0185-.0023.9263.9263,0,0,0-.2133-.2836.0986.0986,0,0,0,.0622-.0127.7742.7742,0,0,0-.2594-.188c.0159-.0063.0329-.0139.0508-.023s.034-.0185.0484-.0277a.59.59,0,0,0-.2122-.0614.5991.5991,0,0,0-.3124.0568c.0294-.0273.06-.0576.09-.0911.0134-.0147.026-.0293.0381-.0438L5.48,1.0261a.2766.2766,0,0,0-.03-.0231A.2073.2073,0,0,0,5.5349.9212.1751.1751,0,0,0,5.5.9074.1814.1814,0,0,0,5.445.9.5475.5475,0,0,0,5.4837.8569.5342.5342,0,0,0,5.5211.8036.071.071,0,0,0,5.4784.7828a.07.07,0,0,0-.0322.0047A.2141.2141,0,0,0,5.4634.7506.2228.2228,0,0,0,5.475.7a.2558.2558,0,0,0-.0323.0058A.2369.2369,0,0,0,5.41.716.5136.5136,0,0,0,5.4461.6537C5.47.604,5.487.57,5.4773.5592c-.0188-.02-.1422.0578-.2359.1422A.4766.4766,0,0,0,5.08.92a.4838.4838,0,0,0-.0184.1269.9688.9688,0,0,1,.008.189c-.0064.0348-.0157.0844-.0484.0969s-.07-.0167-.1282-.06c-.073-.0546-.0722-.0748-.1116-.0886-.0431-.0152-.05.0114-.1583.0171-.0409.0021-.0772,0-.1126-.001-.0386-.0017-.0714-.0044-.0963-.0069.0146.0086.0375.0215.0663.0357a.76.76,0,0,1,.1118.0554c.0365.0261.0272.0328.0623.0576.0436.0308.0576.02.1072.0519.0259.0165.07.0445.0692.0818a.0545.0545,0,0,1-.0114.032c-.0407.0488-.1865-.0844-.3368-.07-.2374.0227-.3991.4049-.4278.4727-.0092.0218-.0161.04-.0207.053a.1641.1641,0,0,0,.0311-.0173A.711.711,0,0,0,4.13,1.8827a.3339.3339,0,0,1,.03-.0242.2316.2316,0,0,0-.0289.06.2275.2275,0,0,0-.008.0357.9422.9422,0,0,0,.0864-.045c.0235-.0137.045-.0277.0646-.0415a.217.217,0,0,0-.0161.0669.2044.2044,0,0,0,0,.0323l.106-.0819a.3133.3133,0,0,0-.0184.0738.3019.3019,0,0,0-.0023.045c.01-.005.02-.0107.0311-.0173a.3573.3573,0,0,0,.1095-.1095l.0012.1153c.0269-.0233.0547-.049.083-.0773.0211-.0211.0406-.0419.0588-.0622l.0035.1348a.4466.4466,0,0,0,.1314-.1493.5063.5063,0,0,0,.0761.2658.64.64,0,0,0,.1522.1568.8658.8658,0,0,0,.1141.0761V2.224a.4839.4839,0,0,0,.1084.1c.0129.0087.0257.0163.038.0231l.0023-.0819a.9215.9215,0,0,0,.31.2513.8845.8845,0,0,0,.1533.0588l-.0207-.0449q-.0206-.0429-.0415-.0819a.1449.1449,0,0,0,.038.0219.1465.1465,0,0,0,.0587.01c-.0175-.0323-.0374-.0664-.06-.1017-.0216-.0335-.0433-.0644-.0644-.0926a.07.07,0,0,0,.0346.0046.0664.0664,0,0,0,.0242-.0081A1.02,1.02,0,0,1,5.5407,2.07c.002-.0016.01.0058.0276.01a.103.103,0,0,0,.0369.0023c-.0083-.0261-.0172-.0526-.0265-.08s-.0183-.052-.0276-.0772a1.1058,1.1058,0,0,0,.1325.0692c.0205.009.0406.017.06.0242l.0138-.0438c.1872.177.3216.31.3494.3435a.13.13,0,0,1,.0253.0462.1482.1482,0,0,1,.0028.0587.4321.4321,0,0,1-.1462.255.4532.4532,0,0,1-.41.0425.376.376,0,0,0,.2514.1123.4256.4256,0,0,0,.3862-.3394.4963.4963,0,0,1-.0715.5349.5529.5529,0,0,1-.2156.0738.5908.5908,0,0,1-.12.0041.2213.2213,0,0,0,.0554.0317.2424.2424,0,0,0,.1145.0126.4134.4134,0,0,0,.2856-.1187.3817.3817,0,0,0,.0888-.1995.5479.5479,0,0,0-.04-.3112A.67.67,0,0,0,6.211,2.3462ZM5.9292,2.043a1.694,1.694,0,0,1-.1775-.1453c.0031-.0054.0351.0029.166.0657a.0892.0892,0,0,0,.0138-.0207.092.092,0,0,0,.0092-.0392.8031.8031,0,0,1,.1822.332A1.7214,1.7214,0,0,0,5.9292,2.043Z" fill="#f9cd1a"/><path d="M5.9407,1.9035a.092.092,0,0,1-.0092.0392.0892.0892,0,0,1-.0138.0207c-.1309-.0628-.1629-.0711-.166-.0657a1.694,1.694,0,0,0,.1775.1453,1.7214,1.7214,0,0,1,.1937.1925.8031.8031,0,0,0-.1822-.332Z" fill="#c71529"/><polygon points="1.637 2.267 1.847 2.114 2.058 2.267 1.978 2.019 2.188 1.866 1.928 1.866 1.847 1.619 1.767 1.866 1.507 1.866 1.717 2.019 1.637 2.267" fill="#fff"/><polygon points="0.845 3.285 1.055 3.132 1.266 3.285 1.186 3.038 1.396 2.885 1.136 2.885 1.055 2.637 0.975 2.885 0.715 2.885 0.925 3.038 0.845 3.285" fill="#fff"/><polygon points="2.427 3.209 2.637 3.056 2.848 3.209 2.767 2.962 2.978 2.809 2.718 2.809 2.637 2.561 2.557 2.809 2.297 2.809 2.507 2.962 2.427 3.209" fill="#fff"/><polygon points="1.63 4.652 1.841 4.499 2.052 4.652 1.971 4.405 2.182 4.251 1.922 4.251 1.841 4.004 1.761 4.251 1.5 4.251 1.711 4.405 1.63 4.652" fill="#fff"/><polygon points="2.024 3.566 2.129 3.642 2.089 3.766 2.194 3.69 2.299 3.766 2.259 3.642 2.364 3.566 2.234 3.566 2.194 3.443 2.154 3.566 2.024 3.566" fill="#fff"/></svg>