<svg xmlns="http://www.w3.org/2000/svg" viewBox="0 0 7.9818 5.1882"><rect width="1.9795" height="5.1882" fill="#0072c6"/><rect x="6.0023" width="1.9795" height="5.1882" fill="#00a360"/><path d="M1.9822,5.1882H6V0H1.9822Zm2.56-3.4553.4471.8651-.4445.8625-.4471-.8651ZM4.4367,3.672l-.4444.8625-.4472-.8652L3.99,2.8068ZM3.4349,1.7329l.4471.8651-.4445.8625L2.99,2.5954Z" fill="#ffd116"/><polygon points="3.882 2.598 3.435 1.733 2.99 2.595 3.437 3.46 3.882 2.598" fill="#00a360"/><polygon points="4.989 2.598 4.542 1.733 4.097 2.595 4.544 3.46 4.989 2.598" fill="#00a360"/><polygon points="3.992 4.534 4.437 3.672 3.99 2.807 3.545 3.669 3.992 4.534" fill="#00a360"/></svg>