<svg xmlns="http://www.w3.org/2000/svg" viewBox="0 0 7.9818 5.1882"><rect y="1.4567" width="7.9818" height="2.2749" fill="#fff"/><rect y="3.7316" width="7.9818" height="1.4566" fill="#00630c"/><rect width="7.9818" height="1.4567" fill="#c61300"/><polygon points="3.925 1.801 3.884 1.926 3.991 1.849 4.097 1.926 4.057 1.801 4.163 1.724 4.032 1.724 3.991 1.599 3.95 1.724 3.819 1.724 3.925 1.801" fill="#f9c400"/><polygon points="3.513 1.861 3.472 1.736 3.431 1.861 3.3 1.861 3.406 1.938 3.366 2.064 3.472 1.986 3.578 2.064 3.538 1.938 3.644 1.861 3.513 1.861" fill="#f9c400"/><polygon points="4.55 1.861 4.51 1.736 4.469 1.861 4.338 1.861 4.444 1.938 4.403 2.064 4.51 1.986 4.616 2.064 4.575 1.938 4.682 1.861 4.55 1.861" fill="#f9c400"/><polygon points="3.134 2.244 3.093 2.119 3.052 2.244 2.921 2.244 3.027 2.322 2.987 2.447 3.093 2.369 3.199 2.447 3.159 2.322 3.265 2.244 3.134 2.244" fill="#f9c400"/><polygon points="4.889 2.119 4.848 2.244 4.717 2.244 4.823 2.322 4.782 2.447 4.889 2.369 4.995 2.447 4.955 2.322 5.061 2.244 4.929 2.244 4.889 2.119" fill="#f9c400"/><polygon points="2.953 2.888 3.06 2.965 3.019 2.84 3.125 2.763 2.994 2.763 2.953 2.638 2.913 2.763 2.781 2.763 2.887 2.84 2.847 2.965 2.953 2.888" fill="#f9c400"/><polygon points="5.069 2.763 5.029 2.638 4.988 2.763 4.856 2.763 4.963 2.84 4.922 2.965 5.029 2.888 5.135 2.965 5.094 2.84 5.201 2.763 5.069 2.763" fill="#f9c400"/><path d="M4.0634,2.503a.0926.0926,0,0,1,.0592-.021A.1009.1009,0,0,1,4.2,2.525a.2155.2155,0,0,0-.2049-.295.2261.2261,0,0,0-.2122.1686.2236.2236,0,0,0,.0073.13.1.1,0,0,1,.0778-.0472l.01,0a.0883.0883,0,0,1,.08.0887V2.809a.0849.0849,0,0,1-.0035.0245.3058.3058,0,0,1-.1641.197.2628.2628,0,0,1-.303-.0652.2918.2918,0,0,1-.0256.0506.3059.3059,0,0,1-.21.139A.2961.2961,0,0,1,3.04,3.0983a.2216.2216,0,0,0,.3911.1078.27.27,0,0,0,.0745-.15.2727.2727,0,0,0,.2029.135.2472.2472,0,0,0,.1526-.0489.3316.3316,0,0,0,.1327-.2039.3439.3439,0,0,0,.1667.2229.24.24,0,0,0,.16.0269.2515.2515,0,0,0,.1633-.1307.2778.2778,0,0,0,.1477.2.2327.2327,0,0,0,.254-.0292.205.205,0,0,0,.0559-.1251.2949.2949,0,0,1-.44-.129.3013.3013,0,0,1-.2714.0638.2845.2845,0,0,1-.1955-.2049L4.0315,2.81V2.5714A.0877.0877,0,0,1,4.0634,2.503Zm-.0685-.0086A.1473.1473,0,0,0,3.9108,2.43a.1436.1436,0,0,0-.08.0013.1654.1654,0,0,1,.33.0021.1366.1366,0,0,0-.1663.0612Z" fill="#f9c400"/><path d="M4.1612,2.4332a.1654.1654,0,0,0-.33-.0021.1436.1436,0,0,1,.08-.0013.1473.1473,0,0,1,.0841.0646.1366.1366,0,0,1,.1663-.0612Z" fill="#fff"/><path d="M3.93,3.2313a.1506.1506,0,0,0-.0415.0063.1589.1589,0,0,0-.0258.01.011.011,0,0,0-.0041.0159l.0153.02a.1751.1751,0,0,0,.1181.0611.1554.1554,0,0,0,.1324-.083A.0109.0109,0,0,0,4.12,3.2466a.1429.1429,0,0,0-.0329-.0119.1407.1407,0,0,0-.0373-.0036A.011.011,0,0,1,4.0381,3.22a.0949.0949,0,0,0-.0086-.0441c-.0038-.0082-.0188-.04-.0411-.04s-.0348.03-.0394.04A.0984.0984,0,0,0,3.94,3.22.0108.0108,0,0,1,3.93,3.2313Z" fill="#f9c400"/><path d="M4.4862,3.2194c-.0023-.0087-.0113-.043-.0334-.0466s-.04.0231-.0458.0321a.0989.0989,0,0,0-.0166.0423.0109.0109,0,0,1-.0126.0092.1474.1474,0,0,0-.0419-.0014.1536.1536,0,0,0-.0273.0057.011.011,0,0,0-.0069.0149l.0116.0221a.1745.1745,0,0,0,.1051.0813.1557.1557,0,0,0,.1452-.0577.0109.0109,0,0,0-.0017-.0157.144.144,0,0,0-.03-.0177.1474.1474,0,0,0-.0361-.01.0111.0111,0,0,1-.0091-.0133A.0948.0948,0,0,0,4.4862,3.2194Z" fill="#f9c400"/><path d="M3.4893,3.2777a.1427.1427,0,0,0-.0663.0279.0109.0109,0,0,0-.0016.0157.1557.1557,0,0,0,.1452.0577.1745.1745,0,0,0,.1051-.0813l.0116-.0221a.011.011,0,0,0-.0069-.0149.1536.1536,0,0,0-.0273-.0057.1481.1481,0,0,0-.042.0014.0108.0108,0,0,1-.0125-.0092.1.1,0,0,0-.0166-.0423c-.0063-.009-.0249-.0356-.0459-.0321s-.031.0379-.0333.0466a.0963.0963,0,0,0-.0005.045A.011.011,0,0,1,3.4893,3.2777Z" fill="#f9c400"/><path d="M3.2593,3.4849l.0365.1182a2.3523,2.3523,0,0,1,1.39,0l.0366-.1182a2.4765,2.4765,0,0,0-1.4633,0Z" fill="#f9c400"/></svg>