<svg xmlns="http://www.w3.org/2000/svg" viewBox="0 0 7.9818 5.1798"><path d="M3.2179,2.59a1.9566,1.9566,0,0,1,.17-.7752H0v1.55H3.3831A2.0277,2.0277,0,0,1,3.2179,2.59Z" fill="#c00"/><path d="M4.922,4.1264l0,0-.0529.0351,0-.0005-.3111-.5378H4.4914a2.3336,2.3336,0,0,1-.1756.2685c-.1665.22-.2521.2487-.3148.2475a.1806.1806,0,0,1-.0345-.004h0a.4211.4211,0,0,1-.2053-.1543,2.084,2.084,0,0,1-.255-.3577H3.4447l-.3114.5383-.0005,0L3.08,4.1264l0,0,.2906-.5025H0V5.18H7.9818V3.6235H4.6311Z" fill="#060"/><path d="M0,0V1.5563H3.3614l.08.1377v0l0,.0006,0-.0009c.0106-.0222.022-.0447.0338-.067v0l0-.0006-.04-.07h.079a2.1525,2.1525,0,0,1,.1229-.1895c.13-.1793.2191-.3015.3294-.3231h0A.1868.1868,0,0,1,4.001,1.04c.126,0,.2208.1251.3522.2993a1.7532,1.7532,0,0,1,.14.2167h.074l-.039.0673,0,0v.0005c.0111.0224.0221.0456.0326.0691l.0005.0009,0-.0006.08-.1375H7.9818V0ZM3.3511,1.5364h0l-.0037-.0021L3.336,1.5286c-.0469-.0151-.1425-.0813-.257-.3544A2.3634,2.3634,0,0,1,2.955.7874a1.4946,1.4946,0,0,1,.28.2974,1.1139,1.1139,0,0,1,.1821.3446A.2412.2412,0,0,1,3.41,1.515v0l.0644.1114c-.0116.022-.0228.0441-.0332.0659l-.09-.156Zm1.24-.0214a.2412.2412,0,0,1-.0068-.0856,1.1128,1.1128,0,0,1,.1822-.3446,1.4906,1.4906,0,0,1,.28-.2974,2.3728,2.3728,0,0,1-.1239.3868c-.1145.2731-.21.3393-.257.3544l-.0113.0056-.0037.0021h0l-.09.1557c-.01-.023-.0212-.0459-.0321-.0679l.0628-.1086,0,0Z"/><path d="M4.6132,1.8147a1.9169,1.9169,0,0,1,.1709.7752,1.9419,1.9419,0,0,1-.1.5856,1.9405,1.9405,0,0,1-.0674.19H7.9818v-1.55Z" fill="#c00"/><path d="M4.5669,1.5563h-.074c.0124.0227.024.0452.035.0673Z" fill="#fff"/><path d="M3.4352,1.5563l.04.07c.0114-.0216.0243-.045.0386-.07Z" fill="#fff"/><path d="M3.388,1.8147,3.41,1.7626c.0061-.0143.0164-.0378.031-.0683v0l-.08-.1377H0v.2584Z" fill="#fff"/><path d="M4.5611,1.6938l.0164.0371c.0115.0267.0235.0546.0357.0838H7.9818V1.5563H4.6407Z" fill="#fff"/><path d="M3.4418,3.501c-.0319-.0662-.05-.114-.0575-.1327l-.0012-.0032H0v.2584H3.3709Z" fill="#fff"/><path d="M4.4914,3.6235h.0659l-.034-.0588Q4.5082,3.5937,4.4914,3.6235Z" fill="#fff"/><path d="M4.5577,3.4966l.0734.1269H7.9818V3.3651H4.6164C4.6,3.4048,4.5807,3.449,4.5577,3.4966Z" fill="#fff"/><path d="M3.4447,3.6235H3.506c-.0107-.0188-.0206-.037-.03-.0544Z" fill="#fff"/><path d="M4.6132,3.3651h.0032a1.9405,1.9405,0,0,0,.0674-.19,1.9419,1.9419,0,0,0,.1-.5856,1.9169,1.9169,0,0,0-.1709-.7752,1.9459,1.9459,0,0,0,0,1.55Z"/><path d="M3.5439,2.577a2.0176,2.0176,0,0,0-.1559-.7623,1.9566,1.9566,0,0,0-.17.7752,2.0277,2.0277,0,0,0,.1652.7752h.0062A2.0177,2.0177,0,0,0,3.5439,2.577Z"/><path d="M3.8393,1.6856c-.0009.0444,0,.0874.002.1291A1.8733,1.8733,0,0,0,3.9665,2.4v0a1.8758,1.8758,0,0,1-.1251-.5851c-.0021-.0417-.0029-.0847-.002-.1291s.0033-.0877.007-.1293a1.87,1.87,0,0,1,.12-.5124v0h0a1.8708,1.8708,0,0,0-.12.5126Q3.8408,1.6187,3.8393,1.6856Z" fill="#060"/><polygon points="3.967 1.815 3.967 2.4 3.967 2.4 3.967 1.815 3.967 1.556 3.967 1.044 3.967 1.044 3.967 1.556 3.967 1.815" fill="#060"/><path d="M3.388,1.8147h0a2.0124,2.0124,0,0,1,.0013,1.55H3.3831l.0012.0032c.0071.0187.0256.0665.0575.1327l0-.0006.0005.0009c.0107.0222.0221.0448.0338.067v.0005l0,0c.0092.0174.0191.0356.03.0544a2.084,2.084,0,0,0,.255.3577.4211.4211,0,0,0,.2053.1543,1.8774,1.8774,0,0,1-.12-.512,1.8494,1.8494,0,0,1-.007-.2017c0-.0192.001-.0381.002-.0567A1.8728,1.8728,0,0,1,3.9665,2.78V4.1355a.1806.1806,0,0,0,.0345.004c.0627.0012.1483-.0279.3148-.2475a2.3336,2.3336,0,0,0,.1756-.2685q.0168-.03.0319-.0588l0-.0005v0c.0116-.0221.023-.0446.0338-.067l0-.0009,0,.0006c.023-.0476.0424-.0918.0587-.1315H4.6132a1.9459,1.9459,0,0,1,0-1.55h0c-.0122-.0292-.0242-.0571-.0357-.0838l-.0164-.0371,0,.0006L4.56,1.6935c-.01-.0235-.0215-.0467-.0326-.0691V1.6239l0,0c-.011-.0221-.0226-.0446-.035-.0673a1.7532,1.7532,0,0,0-.14-.2167c-.1314-.1742-.2262-.3-.3522-.2993a.1868.1868,0,0,0-.0345.0034V2.4a1.8733,1.8733,0,0,1-.1252-.5853c-.0021-.0417-.0029-.0847-.002-.1291s.0033-.0877.007-.1293a1.8708,1.8708,0,0,1,.12-.5126c-.11.0216-.1991.1438-.3294.3231a2.1525,2.1525,0,0,0-.1229.19c-.0143.0248-.0272.0482-.0386.07l0,.0006v0c-.0118.0223-.0232.0448-.0338.067l0,.0009,0-.0006c-.0146.0305-.0249.054-.031.0683Zm.7676,1.8088a1.8777,1.8777,0,0,1-.12.5126V2.78a1.87,1.87,0,0,1,.1252.5852l.002.0567A1.8741,1.8741,0,0,1,4.1556,3.6235Zm-.12-1.8088v-.771a1.87,1.87,0,0,1,.12.5126q.0057.0624.0071.1293c.0008.0444,0,.0874-.0021.1291A1.8737,1.8737,0,0,1,4.0355,2.4Zm-.14.6645a.1661.1661,0,0,1,.0411-.0544.095.095,0,0,1,.128,0,.1648.1648,0,0,1,.0411.0544A.253.253,0,0,1,4.13,2.59a.2488.2488,0,0,1-.0288.1194.1542.1542,0,0,1-.0432.0508.0931.0931,0,0,1-.1148,0A.1542.1542,0,0,1,3.9,2.7093.2488.2488,0,0,1,3.8716,2.59.2544.2544,0,0,1,3.8959,2.4792Z" fill="#c00"/><path d="M3.8394,1.6856c-.0009.0444,0,.0874.002.1291A1.8758,1.8758,0,0,0,3.9665,2.4V1.0439a1.87,1.87,0,0,0-.12.5124C3.8427,1.5979,3.84,1.641,3.8394,1.6856Z" fill="#fff"/><path d="M4.1627,1.6856q-.0013-.0669-.0071-.1293a1.87,1.87,0,0,0-.12-.5126V2.4a1.8737,1.8737,0,0,0,.1251-.5853C4.1627,1.773,4.1635,1.73,4.1627,1.6856Z" fill="#fff"/><path d="M3.9665,3.3651V2.78a1.8728,1.8728,0,0,0-.1251.5852c-.001.0186-.0017.0375-.002.0567a1.8494,1.8494,0,0,0,.007.2017,1.8774,1.8774,0,0,0,.12.512h0v-.77Z" fill="#fff"/><path d="M4.1607,3.3651A1.87,1.87,0,0,0,4.0355,2.78V4.1361a1.8726,1.8726,0,0,0,.1272-.7143Z" fill="#fff"/><path d="M3.4747,1.6267,3.41,1.5153v0a.2412.2412,0,0,0,.0068-.0856,1.1139,1.1139,0,0,0-.1821-.3446,1.4946,1.4946,0,0,0-.28-.2974,2.3634,2.3634,0,0,0,.124.3868c.1145.2731.21.3393.257.3544l.0113.0056.0037.0021h0v0l.09.156C3.4519,1.6708,3.4631,1.6487,3.4747,1.6267Z" fill="#fff"/><path d="M4.5242,3.5642l.3449.5961.0515-.0342-.3632-.6278C4.5468,3.52,4.5356,3.5424,4.5242,3.5642Z" fill="#fff"/><path d="M4.5569,3.4969c-.0108.0224-.0222.0449-.0338.067v0l0,.0005.034.0588.3111.5378,0,.0005.0529-.0351,0,0-.2909-.5029-.0734-.1269,0-.0006Zm.3122.6634-.3449-.5961c.0114-.0218.0226-.0439.0332-.0659l.3632.6278Z"/><path d="M3.9436,2.76a.0931.0931,0,0,0,.1148,0,.1542.1542,0,0,0,.0432-.0508A.2488.2488,0,0,0,4.13,2.59a.253.253,0,0,0-.0243-.1107.1648.1648,0,0,0-.0411-.0544.095.095,0,0,0-.128,0,.1661.1661,0,0,0-.0411.0544.2544.2544,0,0,0-.0243.1107A.2488.2488,0,0,0,3.9,2.7093.1542.1542,0,0,0,3.9436,2.76Z" fill="#fff"/><path d="M4.5288,1.6242c.0109.022.0217.0449.0321.0679l.09-.1557h0l.0037-.0021.0113-.0056c.0468-.0151.1425-.0813.257-.3544A2.3728,2.3728,0,0,0,5.047.7874a1.4906,1.4906,0,0,0-.28.2974,1.1128,1.1128,0,0,0-.1822.3446.2412.2412,0,0,0,.0068.0856l0,0,0,0Z" fill="#fff"/><path d="M3.4421,3.5027l-.3606.6234L3.133,4.16l.3423-.5918C3.4638,3.5467,3.4526,3.5245,3.4421,3.5027Z" fill="#fff"/><path d="M3.4764,3.5688V3.5683c-.0117-.0222-.0231-.0448-.0338-.067L3.4421,3.5l0,.0006-.0709.1225L3.08,4.126l0,0,.0528.0351.0005,0,.3114-.5383.0315-.0544Zm-.3949.5573.3606-.6234c.01.0218.0217.044.0332.0658L3.133,4.16Z"/></svg>