<svg xmlns="http://www.w3.org/2000/svg" viewBox="0 0 7.9819 5.1882"><path d="M3.2736,2.007,1.5592,0H0L3.1625,2.1772A.9233.9233,0,0,1,3.2736,2.007Z" fill="#ffed09"/><path d="M3.99,1.6682a.946.946,0,0,1,.1341.01L4.5105,0H3.4714l.3872,1.6774A.95.95,0,0,1,3.99,1.6682Z" fill="#ffed09"/><path d="M4.817,2.1772,7.9819,0H6.4227L4.7058,2.007A.929.929,0,0,1,4.817,2.1772Z" fill="#ffed09"/><circle cx="3.9897" cy="2.5941" r="0.7463" fill="#ffed09"/><path d="M3.0638,2.5941c0-.031.0015-.0618.0045-.0922L0,2.0753v1.04l3.0681-.4306C3.0653,2.6545,3.0638,2.6244,3.0638,2.5941Z" fill="#ffed09"/><path d="M3.99,3.52a.946.946,0,0,1-.1341-.01L3.4689,5.1882H4.508L4.1208,3.5108A.9333.9333,0,0,1,3.99,3.52Z" fill="#ffed09"/><path d="M4.7058,3.1812l1.7169,2.007H7.9819L4.817,3.011A.929.929,0,0,1,4.7058,3.1812Z" fill="#ffed09"/><path d="M4.9156,2.5941c0,.031-.0015.0618-.0045.0922l3.0708.4266v-1.04l-3.0706.4306C4.9141,2.5337,4.9156,2.5638,4.9156,2.5941Z" fill="#ffed09"/><path d="M4.817,2.1772a.929.929,0,0,0-.1112-.17L6.4227,0H4.5105L4.1238,1.6778a.94.94,0,0,0-.2652,0L3.4714,0H1.5592L3.2736,2.007a.9233.9233,0,0,0-.1111.17L0,0V2.0753l3.0683.4266c-.003.03-.0045.0612-.0045.0922s.0015.06.0043.09L0,3.1149V5.1882L3.1625,3.011a.9233.9233,0,0,0,.1111.17L1.5592,5.1882h1.91L3.8556,3.51a.946.946,0,0,0,.1341.01.9333.9333,0,0,0,.1311-.0092L4.508,5.1882H6.4227L4.7058,3.1812a.929.929,0,0,0,.1112-.17L7.9819,5.1882V3.1129L4.9111,2.6863c.003-.03.0045-.0612.0045-.0922s-.0015-.06-.0043-.09l3.0706-.4306V0ZM3.99,3.34a.7463.7463,0,1,1,.7463-.7463A.7472.7472,0,0,1,3.99,3.34Z" fill="#d10011"/><path d="M3.1625,3.011,0,5.1882H1.5592l1.7144-2.007A.9233.9233,0,0,1,3.1625,3.011Z" fill="#ffed09"/></svg>