<svg xmlns="http://www.w3.org/2000/svg" viewBox="0 0 7.9818 5.1882"><rect width="3.9909" height="2.5941" fill="#002b7f"/><polygon points="3.991 0 3.991 2.594 0 2.594 0 5.188 7.982 5.188 7.982 0 3.991 0" fill="#ce1126"/><polygon points="1.152 1.305 1.329 1.176 1.506 1.305 1.438 1.097 1.615 0.968 1.397 0.968 1.329 0.761 1.262 0.968 1.043 0.968 1.22 1.097 1.152 1.305" fill="#fff"/><polygon points="2.995 0.847 2.933 0.657 2.871 0.847 2.671 0.847 2.833 0.965 2.771 1.156 2.933 1.038 3.095 1.156 3.033 0.965 3.195 0.847 2.995 0.847" fill="#fff"/><polygon points="2.559 1.447 2.518 1.32 2.477 1.447 2.343 1.447 2.451 1.525 2.41 1.652 2.518 1.574 2.626 1.652 2.584 1.525 2.692 1.447 2.559 1.447" fill="#fff"/><polygon points="1.945 0.657 2.122 0.528 2.298 0.657 2.231 0.449 2.408 0.321 2.189 0.321 2.122 0.113 2.054 0.321 1.835 0.321 2.012 0.449 1.945 0.657" fill="#fff"/><polygon points="2.205 2.065 2.122 1.808 2.038 2.065 1.767 2.065 1.986 2.225 1.902 2.483 2.122 2.323 2.341 2.483 2.257 2.225 2.476 2.065 2.205 2.065" fill="#fff"/></svg>