<svg xmlns="http://www.w3.org/2000/svg" viewBox="0 0 7.9818 5.1882"><polygon points="3.32 0 3.32 2.594 0 2.594 0 5.188 7.982 5.188 7.982 0 3.32 0" fill="#c50000"/><path d="M3.32,0H0V2.5941H3.32ZM2.6283,1.6194H1.9821v.6461H1.3375V1.6194H.6914V.9748h.6461V.3286h.6446V.9748h.6462Z" fill="#fff"/><polygon points="1.982 0.975 1.982 0.329 1.908 0.329 1.412 0.329 1.337 0.329 1.337 0.975 0.915 0.975 0.691 0.975 0.691 1.619 0.915 1.619 1.337 1.619 1.337 2.266 1.412 2.266 1.908 2.266 1.982 2.266 1.982 1.619 2.405 1.619 2.628 1.619 2.628 0.975 2.405 0.975 1.982 0.975" fill="#c50000"/></svg>