<svg xmlns="http://www.w3.org/2000/svg" viewBox="0 0 7.9818 5.1882"><rect y="1.7294" width="7.9818" height="1.7294" fill="#0043b6"/><rect width="7.9818" height="1.7294" fill="#fff"/><rect y="3.4588" width="7.9818" height="1.7294" fill="#e30012"/><path d="M1.3291,2.1035a.9016.9016,0,0,0,.4937.4467.9139.9139,0,0,0,.5029-.4681.6873.6873,0,0,0,.0566-.2354c.0205-.2818.042-.5711.0625-.8529a1.5413,1.5413,0,0,0-1.246.0014l.0565.8515A.8665.8665,0,0,0,1.3291,2.1035Zm.6393.323a.7242.7242,0,0,1-.1444.0652A.65.65,0,0,1,1.4668,2.24a.1862.1862,0,0,0,.0439,0,.2561.2561,0,0,0,.0975-.04c.0676-.0313.1056.0436.2138.0414.0981-.0019.12-.0646.1933-.0419a.6065.6065,0,0,0,.1014.0328.4255.4255,0,0,0,.0605.0075A.7327.7327,0,0,1,1.9684,2.4265Zm.25-.24a.3233.3233,0,0,1-.07.005c-.0792-.0032-.1036-.0343-.1617-.04-.0781-.0077-.08.0444-.1666.0468-.0981.0028-.1174-.0635-.2-.045a.5888.5888,0,0,1-.1167.0351.2951.2951,0,0,1-.0738-.002L1.383,2.1112a.1854.1854,0,0,0,.0691.0292c.0865.0166.124-.045.2162-.0418.0726.0026.0707.0415.1457.0426.0828.0012.09-.046.1687-.0449s.0968.0473.1776.0449a.2335.2335,0,0,0,.1047-.03ZM1.9583.9743l.0371.0041L2.01.9442l.0151.0342L2.0626.9743l-.0221.03.0221.03-.0371-.004L2.01,1.0646l-.015-.0341-.0371.004.022-.03ZM1.77,1.2288l.0371.004.0151-.0341.015.0341.0371-.004-.022.03.022.03-.0371-.004-.015.0341-.0151-.0341-.0371.004.0221-.03ZM1.581.9743l.037.0041L1.6331.9442l.015.0342L1.6852.9743l-.022.03.022.03-.0371-.004-.015.0341L1.618,1.0305l-.037.004.022-.03Zm-.0131.6181.1025.1317.1514-.2993.15.3078.1-.1442.2554.3366a.177.177,0,0,1-.1529.1769c-.0793.01-.0964-.0474-.181-.049-.0817-.0015-.0906.0517-.1742.049-.0805-.0025-.0847-.0521-.1584-.0491s-.0914.0528-.1716.0491a.1759.1759,0,0,1-.09-.0279.1989.1989,0,0,1-.0785-.149Z" fill="#0043b6"/><path d="M2.4448.9938c-.02.2818-.042.5711-.0625.8529a.6873.6873,0,0,1-.0566.2354.9139.9139,0,0,1-.5029.4681.9016.9016,0,0,1-.4937-.4467.8665.8665,0,0,1-.0738-.2568L1.1988.9952,1.15,1.0177l.0612.8647a.8509.8509,0,0,0,.08.2628.9624.9624,0,0,0,.5338.4569.9709.9709,0,0,0,.5438-.4789A.6728.6728,0,0,0,2.43,1.8824q.0332-.4323.0665-.8647Z" fill="#e30012"/><polygon points="1.618 1.03 1.633 1.065 1.648 1.03 1.685 1.034 1.663 1.004 1.685 0.974 1.648 0.978 1.633 0.944 1.618 0.978 1.581 0.974 1.603 1.004 1.581 1.034 1.618 1.03" fill="#fd0"/><polygon points="1.995 1.03 2.01 1.065 2.025 1.03 2.063 1.034 2.04 1.004 2.063 0.974 2.025 0.978 2.01 0.944 1.995 0.978 1.958 0.974 1.98 1.004 1.958 1.034 1.995 1.03" fill="#fd0"/><polygon points="1.807 1.285 1.822 1.319 1.837 1.285 1.874 1.289 1.852 1.259 1.874 1.229 1.837 1.233 1.822 1.199 1.807 1.233 1.77 1.229 1.792 1.259 1.77 1.289 1.807 1.285" fill="#fd0"/><path d="M1.399,2.074a.1759.1759,0,0,0,.09.0279c.08.0037.0984-.0461.1716-.0491s.0779.0466.1584.0491c.0836.0027.0925-.05.1742-.049.0846.0016.1017.0593.181.049a.177.177,0,0,0,.1529-.1769l-.2554-.3366-.1.1442-.15-.3078L1.67,1.7241l-.1025-.1317-.2474.3326A.1989.1989,0,0,0,1.399,2.074Z" fill="#fff"/><path d="M2.0153,2.2c-.0735-.0227-.0952.04-.1933.0419-.1082.0022-.1462-.0727-.2138-.0414a.2561.2561,0,0,1-.0975.04.1862.1862,0,0,1-.0439,0,.65.65,0,0,0,.3572.2514.7242.7242,0,0,0,.1444-.0652A.7327.7327,0,0,0,2.1772,2.24a.4255.4255,0,0,1-.0605-.0075A.6065.6065,0,0,1,2.0153,2.2Z" fill="#fff"/><path d="M1.9827,2.0963c-.0783-.0011-.0859.0461-.1687.0449-.075-.0011-.0731-.04-.1457-.0426-.0922-.0032-.13.0584-.2162.0418a.1854.1854,0,0,1-.0691-.0292l.0469.0749a.2951.2951,0,0,0,.0738.002A.5888.5888,0,0,0,1.62,2.153c.0822-.0185.1015.0478.2.045.0867-.0024.0885-.0545.1666-.0468.0581.0056.0825.0367.1617.04a.3233.3233,0,0,0,.07-.005l.0469-.0749a.2335.2335,0,0,1-.1047.03C2.08,2.1436,2.06,2.0973,1.9827,2.0963Z" fill="#fff"/></svg>