<svg xmlns="http://www.w3.org/2000/svg" viewBox="0 0 7.9818 5.1882"><polygon points="2.267 2.03 1.562 2.03 2.429 3.158 2.812 3.158 2.861 3.158 3.421 3.158 3.613 3.158 3.884 3.158 4.098 3.158 4.369 3.158 4.561 3.158 5.12 3.158 5.17 3.158 5.553 3.158 6.42 2.03 5.714 2.03 2.267 2.03" fill="#06c"/><polygon points="5.17 3.158 5.12 3.158 4.561 3.158 4.369 3.158 4.098 3.158 3.884 3.158 3.613 3.158 3.421 3.158 2.861 3.158 2.812 3.158 2.429 3.158 3.991 5.188 5.553 3.158 5.17 3.158" fill="#fff"/><polygon points="2.267 2.03 2.259 2.029 3.15 1.867 2.392 1.383 3.278 1.569 2.769 0.837 3.515 1.339 3.33 0.474 3.823 1.216 3.991 0.347 4.159 1.216 4.651 0.474 4.467 1.339 5.213 0.837 4.704 1.569 5.59 1.383 4.832 1.867 5.722 2.029 5.714 2.03 6.42 2.03 7.982 0 0 0 1.562 2.03 2.267 2.03"/><polygon points="6.42 2.03 5.553 3.158 3.991 5.188 7.982 5.188 7.982 0 6.42 2.03" fill="#d21923"/><polygon points="1.562 2.03 0 0 0 5.188 3.991 5.188 2.429 3.158 1.562 2.03" fill="#d21923"/><polygon points="5.722 2.029 4.832 1.867 5.59 1.383 4.704 1.569 5.213 0.837 4.467 1.339 4.651 0.474 4.159 1.216 3.991 0.347 3.823 1.216 3.33 0.474 3.515 1.339 2.769 0.837 3.278 1.569 2.392 1.383 3.15 1.867 2.259 2.029 2.267 2.03 5.714 2.03 5.722 2.029" fill="#ffc819"/></svg>