<svg xmlns="http://www.w3.org/2000/svg" viewBox="0 0 7.9819 5.1882"><rect width="7.9819" height="5.1882" fill="#0051ba"/><polygon points="7.982 5.188 7.982 0.264 0.406 5.188 7.982 5.188" fill="#215b33"/><polygon points="7.576 0 0 4.925 0 5.188 0.406 5.188 7.982 0.264 7.982 0 7.576 0" fill="#fcd116"/><polygon points="0.733 0.242 0.628 0.565 0.289 0.565 0.563 0.764 0.459 1.087 0.733 0.887 1.008 1.087 0.903 0.764 1.177 0.565 0.838 0.565 0.733 0.242" fill="#fff"/><polygon points="2.296 1.086 2.57 0.886 2.845 1.086 2.74 0.763 3.014 0.564 2.675 0.564 2.57 0.241 2.465 0.564 2.126 0.564 2.4 0.763 2.296 1.086" fill="#fff"/><polygon points="1.756 1.36 1.652 1.037 1.547 1.36 1.207 1.36 1.482 1.559 1.377 1.882 1.652 1.683 1.926 1.882 1.821 1.559 2.096 1.36 1.756 1.36" fill="#fff"/><polygon points="0.838 2.156 0.733 1.834 0.628 2.156 0.289 2.156 0.563 2.356 0.459 2.678 0.733 2.479 1.008 2.678 0.903 2.356 1.177 2.156 0.838 2.156" fill="#fff"/><polygon points="2.675 2.155 2.57 1.833 2.465 2.155 2.126 2.155 2.4 2.355 2.296 2.677 2.57 2.478 2.845 2.677 2.74 2.355 3.014 2.155 2.675 2.155" fill="#fff"/></svg>