<svg xmlns="http://www.w3.org/2000/svg" viewBox="0 0 7.9818 5.1882"><rect width="7.9818" height="5.1882" fill="#fffffe"/><rect y="3.8764" width="7.9818" height="0.819" fill="#143cb4"/><rect y="0.4929" width="7.9818" height="0.819" fill="#143cb4"/><path d="M3.6864,3.1225l.3037.5261h.0016l.3037-.5261.0008-.0005h.6075l.0007-.0013-.3037-.5261V2.5937l.3037-.5261-.0007-.0013H4.2962l-.0008-.0005L3.9917,1.54H3.99l-.3037.5261-.0008.0005H3.0781l-.0008.0013.3038.5261v.0009l-.3038.5261.0008.0013h.6075Zm.3037.2123L3.868,3.1234l.0008-.0014H4.113l.0007.0014-.122.2114Zm-.2137-.37-.2137-.37V2.5937l.2137-.37.0008,0h.4274l.0007,0,.2137.37v.0009l-.2137.37-.0007,0H3.7772Zm.8555,0H4.3878L4.387,2.9638l.1221-.2114h.0015l.1221.2114Zm.0008-.7406-.1221.2114H4.5091L4.387,2.2245l.0008-.0014h.2441Zm-.641-.371.122.2114-.0007.0014H3.8688L3.868,2.0649,3.99,1.8535Zm-.6419.37H3.594l.0008.0014-.1221.2114H3.4711l-.122-.2114Zm.1229.5293.1221.2114-.0008.0013H3.35l-.0007-.0013.122-.2114Z" fill="#143cb4"/></svg>