<svg xmlns="http://www.w3.org/2000/svg" viewBox="0 0 7.9818 5.1882"><polygon points="0 5.188 7.982 5.188 7.982 3.459 2.654 3.459 0 5.188" fill="#007b3b"/><polygon points="3.982 2.594 2.654 3.459 7.982 3.459 7.982 1.729 2.654 1.729 3.982 2.594" fill="#fff"/><polygon points="0 0 2.654 1.729 7.982 1.729 7.982 0 0 0"/><polygon points="3.982 2.594 2.654 1.729 0 0 0 5.188 2.654 3.459 3.982 2.594" fill="#d20a1e"/><polygon points="1.256 2.797 1.084 2.956 1.101 2.722 0.869 2.686 1.062 2.554 0.945 2.35 1.17 2.419 1.256 2.2 1.342 2.419 1.567 2.35 1.45 2.554 1.644 2.686 1.412 2.722 1.429 2.956 1.256 2.797" fill="#fff"/></svg>