<svg xmlns="http://www.w3.org/2000/svg" viewBox="0 0 7.9819 5.1882"><rect width="7.9819" height="5.1882" fill="#fff"/><polygon points="7.982 2.075 4.523 2.075 4.523 0 3.459 0 3.459 2.075 0 2.075 0 3.113 3.459 3.113 3.459 5.188 4.523 5.188 4.523 3.113 7.982 3.113 7.982 2.075" fill="#fa0000"/><path d="M1.577.8853A1.4183,1.4183,0,0,0,1.5692.7187,1.4154,1.4154,0,0,0,1.53.5066a1.1436,1.1436,0,0,0,.1943.0152,1.1408,1.1408,0,0,0,.176-.0152,1.6507,1.6507,0,0,0-.0336.207,1.62,1.62,0,0,0-.0078.1717,1.6437,1.6437,0,0,0,.1864-.01A1.6487,1.6487,0,0,0,2.2476.84a1.3587,1.3587,0,0,0,0,.3736,1.6742,1.6742,0,0,0-.1916-.0379,1.6557,1.6557,0,0,0-.189-.0149,1.4886,1.4886,0,0,0,.0374.3725,1.8363,1.8363,0,0,0-.19-.0092c-.0668,0-.1283.0043-.1839.01a1.4093,1.4093,0,0,0,.0363-.1893,1.4243,1.4243,0,0,0,.01-.1843,1.67,1.67,0,0,0-.3936.0454,1.6037,1.6037,0,0,0,.01-.1742A1.62,1.62,0,0,0,1.1834.84a1.5618,1.5618,0,0,0,.2016.036A1.5682,1.5682,0,0,0,1.577.8853Z" fill="#fa0000"/><path d="M6.138.8853A1.4264,1.4264,0,0,0,6.0914.5066a1.1424,1.1424,0,0,0,.1942.0152A1.1411,1.1411,0,0,0,6.4617.5066,1.6377,1.6377,0,0,0,6.42.8853a1.6449,1.6449,0,0,0,.1864-.01A1.6555,1.6555,0,0,0,6.8087.84a1.3483,1.3483,0,0,0,0,.3736,1.6762,1.6762,0,0,0-.1917-.0379,1.6557,1.6557,0,0,0-.189-.0149,1.4831,1.4831,0,0,0,.0375.3725,1.8377,1.8377,0,0,0-.19-.0092c-.0668,0-.1284.0043-.1839.01a1.4129,1.4129,0,0,0,.0466-.3736,1.6712,1.6712,0,0,0-.3936.0454,1.6115,1.6115,0,0,0,0-.366,1.5681,1.5681,0,0,0,.2016.036A1.5691,1.5691,0,0,0,6.138.8853Z" fill="#fa0000"/><path d="M1.577,4.0328a1.4183,1.4183,0,0,0-.0078-.1666A1.4154,1.4154,0,0,0,1.53,3.6541a1.1325,1.1325,0,0,0,.37,0,1.6507,1.6507,0,0,0-.0336.207,1.62,1.62,0,0,0-.0078.1717,1.6208,1.6208,0,0,0,.1864-.01,1.6487,1.6487,0,0,0,.202-.0353,1.3587,1.3587,0,0,0,0,.3736,1.6742,1.6742,0,0,0-.1916-.0379,1.6557,1.6557,0,0,0-.189-.0149,1.4875,1.4875,0,0,0,.0374.3725,1.8347,1.8347,0,0,0-.3741.0009,1.4062,1.4062,0,0,0,.0363-.1893,1.4243,1.4243,0,0,0,.01-.1843,1.67,1.67,0,0,0-.3936.0454,1.6037,1.6037,0,0,0,.01-.1742,1.62,1.62,0,0,0-.01-.1918,1.5448,1.5448,0,0,0,.2016.036A1.5682,1.5682,0,0,0,1.577,4.0328Z" fill="#fa0000"/><path d="M6.138,4.0328a1.4264,1.4264,0,0,0-.0466-.3787,1.1326,1.1326,0,0,0,.37,0,1.6377,1.6377,0,0,0-.0414.3787,1.622,1.622,0,0,0,.1864-.01,1.6555,1.6555,0,0,0,.202-.0353,1.3483,1.3483,0,0,0,0,.3736,1.6762,1.6762,0,0,0-.1917-.0379,1.6557,1.6557,0,0,0-.189-.0149,1.482,1.482,0,0,0,.0375.3725,1.8347,1.8347,0,0,0-.3741.0009A1.4129,1.4129,0,0,0,6.138,4.308a1.6712,1.6712,0,0,0-.3936.0454,1.6115,1.6115,0,0,0,0-.366,1.551,1.551,0,0,0,.2016.036A1.5691,1.5691,0,0,0,6.138,4.0328Z" fill="#fa0000"/></svg>