<svg xmlns="http://www.w3.org/2000/svg" viewBox="0 0 7.9819 5.1882"><rect width="7.9819" height="5.1882" fill="#05b4c8"/><path d="M5.0985,2.1845A.6925.6925,0,1,1,4.406,1.492.6924.6924,0,0,1,5.0985,2.1845Z" fill="#ffc80a"/><path d="M4.406,1.1349c-.0111.0277-.0229.06-.0341.0955-.03.0971-.025.1208-.0166.1364a.0644.0644,0,0,0,.0527.0372c.0294-.001.0474-.0349.0489-.0379.0079-.0153.0138-.0394-.0164-.1357C4.4326,1.2052,4.4214,1.1725,4.406,1.1349Z" fill="#ffc80a"/><path d="M4.2013,1.1551c-.0056.0294-.0108.063-.0148.1-.0109.1012-.001.1234.01.1371a.0648.0648,0,0,0,.059.0261c.0287-.0067.04-.0434.0406-.0467.0047-.0166.0058-.0413-.0426-.13C4.241,1.2188,4.2237,1.189,4.2013,1.1551Z" fill="#ffc80a"/><path d="M4.0044,1.2148c0,.03.0017.0639.005.1013.0091.1013.0231.1212.0368.1324a.0645.0645,0,0,0,.063.0141c.0268-.0121.03-.05.0307-.0537.0014-.0171-.0024-.0416-.0672-.1191C4.0558,1.27,4.033,1.2437,4.0044,1.2148Z" fill="#ffc80a"/><path d="M3.8229,1.3118c.0062.0293.0142.0623.0247.0983.0287.0977.0463.1144.062.1227a.0645.0645,0,0,0,.0645.0016.068.068,0,0,0,.02-.0587c-.002-.0171-.01-.04-.0891-.1037C3.884,1.3555,3.8566,1.3345,3.8229,1.3118Z" fill="#ffc80a"/><path d="M3.6639,1.4423c.0117.0275.026.0584.0434.0916.0472.09.0677.1032.0847.1083a.0643.0643,0,0,0,.0635-.011A.0679.0679,0,0,0,3.8634,1.57c-.0053-.0164-.0182-.0376-.1077-.0843C3.7323,1.4732,3.7014,1.458,3.6639,1.4423Z" fill="#ffc80a"/><path d="M3.5334,1.6014c.0168.0247.0369.0522.06.0813.0639.0793.0866.088.1042.09a.0646.0646,0,0,0,.06-.0232.0682.0682,0,0,0-.0043-.0617c-.0084-.0151-.0251-.0333-.122-.0617C3.6065,1.6183,3.5732,1.61,3.5334,1.6014Z" fill="#ffc80a"/><path d="M3.4364,1.7828c.0213.0209.0464.044.0751.068.0781.0653.1021.0694.12.0677a.0646.0646,0,0,0,.0545-.0345.0678.0678,0,0,0-.0162-.06c-.0112-.0132-.0312-.0278-.1317-.0368C3.5114,1.7852,3.477,1.783,3.4364,1.7828Z" fill="#ffc80a"/><path d="M3.3767,1.98c.025.0164.054.0341.0869.0521.0894.0487.1136.0481.1306.0429A.0644.0644,0,0,0,3.6409,2.03a.0677.0677,0,0,0-.0276-.0554c-.0135-.0107-.0359-.0212-.1363-.01C3.4507,1.9674,3.4165,1.972,3.3767,1.98Z" fill="#ffc80a"/><path d="M3.3565,2.1845c.0277.0111.06.0228.0955.034.0971.03.1208.0251.1364.0167a.0644.0644,0,0,0,.0372-.0527c-.001-.03-.0349-.0474-.0379-.0489-.0153-.0079-.0394-.0138-.1357.0164C3.4268,2.1579,3.3941,2.1691,3.3565,2.1845Z" fill="#ffc80a"/><path d="M3.3767,2.3892c.0293.0055.063.0108.1.0148.1012.0109.1234.001.1371-.01a.0646.0646,0,0,0,.0262-.059c-.0067-.0287-.0434-.04-.0467-.0406-.0166-.0047-.0413-.0058-.13.0426C3.44,2.35,3.4105,2.3668,3.3767,2.3892Z" fill="#ffc80a"/><path d="M3.4364,2.5861c.03,0,.0639-.0017.1012-.005.1014-.0091.1212-.0231.1325-.0368a.0648.0648,0,0,0,.0141-.063c-.0122-.0268-.05-.03-.0537-.0307-.0172-.0014-.0416.0024-.1191.0672C3.4911,2.5347,3.4652,2.5575,3.4364,2.5861Z" fill="#ffc80a"/><path d="M3.5334,2.7675c.0292-.0061.0623-.0141.0983-.0246.0976-.0287.1144-.0463.1227-.062a.0645.0645,0,0,0,.0016-.0645.068.068,0,0,0-.0587-.02c-.0171.002-.04.01-.1037.0891C3.5771,2.7065,3.5561,2.7339,3.5334,2.7675Z" fill="#ffc80a"/><path d="M3.6639,2.9266c.0275-.0117.0584-.026.0916-.0434.09-.0472.1032-.0677.1083-.0847a.065.065,0,0,0-.011-.0636.0681.0681,0,0,0-.0614-.0078c-.0164.0053-.0376.0182-.0843.1076C3.6948,2.8582,3.68,2.8891,3.6639,2.9266Z" fill="#ffc80a"/><path d="M3.8229,3.0571c.0247-.0168.0522-.0369.0814-.06.0793-.0639.088-.0866.09-.1042a.0646.0646,0,0,0-.0232-.06.0678.0678,0,0,0-.0617.0043c-.0151.0084-.0333.0251-.0617.122C3.84,2.984,3.8311,3.0173,3.8229,3.0571Z" fill="#ffc80a"/><path d="M4.0044,3.1541c.0209-.0213.044-.0464.068-.0751.0653-.0782.0694-.1021.0677-.12a.0647.0647,0,0,0-.0346-.0545.0679.0679,0,0,0-.06.0162c-.0131.0112-.0277.0312-.0367.1317C4.0068,3.079,4.0046,3.1135,4.0044,3.1541Z" fill="#ffc80a"/><path d="M4.2013,3.2138c.0163-.025.0341-.054.052-.087.0488-.0893.0482-.1136.043-.13A.0645.0645,0,0,0,4.2518,2.95a.0682.0682,0,0,0-.0553.0276c-.0107.0135-.0212.036-.01.1364C4.189,3.14,4.1935,3.1739,4.2013,3.2138Z" fill="#ffc80a"/><path d="M4.406,3.234c.0112-.0277.0229-.06.0341-.0955.03-.0971.0251-.1208.0167-.1364a.0646.0646,0,0,0-.0527-.0372c-.0295.001-.0474.0349-.049.0379-.0078.0153-.0137.0394.0165.1357C4.38,3.1637,4.3907,3.1964,4.406,3.234Z" fill="#ffc80a"/><path d="M4.6108,3.2138c.0055-.0294.0108-.063.0148-.1.0109-.1012.001-.1233-.01-.137a.0646.0646,0,0,0-.059-.0262c-.0287.0067-.04.0434-.0406.0467-.0048.0166-.0058.0413.0426.13C4.5711,3.15,4.5884,3.18,4.6108,3.2138Z" fill="#ffc80a"/><path d="M4.8077,3.1541c0-.03-.0017-.0639-.0051-.1012-.009-.1014-.0231-.1213-.0368-.1325a.0645.0645,0,0,0-.0629-.0141c-.0268.0121-.03.05-.0307.0537-.0014.0171.0024.0416.0671.1191C4.7563,3.0993,4.7791,3.1252,4.8077,3.1541Z" fill="#ffc80a"/><path d="M4.9891,3.0571c-.0061-.0292-.0141-.0623-.0247-.0983-.0286-.0977-.0463-.1144-.0619-.1227a.0645.0645,0,0,0-.0645-.0016.068.068,0,0,0-.02.0587c.0019.0171.01.04.0891.1037C4.928,3.0134,4.9555,3.0344,4.9891,3.0571Z" fill="#ffc80a"/><path d="M5.1482,2.9266c-.0117-.0275-.026-.0584-.0434-.0916-.0472-.09-.0677-.1032-.0847-.1083a.0647.0647,0,0,0-.0636.011.0678.0678,0,0,0-.0078.0614c.0053.0164.0182.0376.1076.0843C5.08,2.8957,5.1107,2.9109,5.1482,2.9266Z" fill="#ffc80a"/><path d="M5.2787,2.7675c-.0169-.0246-.0369-.0521-.06-.0813-.0639-.0793-.0866-.088-.1042-.09a.0646.0646,0,0,0-.06.0232.0675.0675,0,0,0,.0043.0617c.0084.0151.0251.0333.122.0617C5.2055,2.7506,5.2389,2.7594,5.2787,2.7675Z" fill="#ffc80a"/><path d="M5.3757,2.5861c-.0214-.0209-.0464-.044-.0752-.068-.0781-.0653-.102-.0694-.12-.0677a.0649.0649,0,0,0-.0546.0345.0679.0679,0,0,0,.0163.06c.0112.0132.0312.0278.1317.0368C5.3006,2.5837,5.3351,2.5859,5.3757,2.5861Z" fill="#ffc80a"/><path d="M5.4354,2.3892c-.025-.0164-.0541-.0341-.087-.0521-.0893-.0487-.1136-.0481-.1306-.0429a.0646.0646,0,0,0-.0467.0444.0683.0683,0,0,0,.0276.0554c.0135.0107.036.0212.1364.01C5.3613,2.4015,5.3955,2.397,5.4354,2.3892Z" fill="#ffc80a"/><path d="M5.4556,2.1845c-.0278-.0112-.06-.0229-.0955-.0341-.0971-.03-.1208-.0251-.1364-.0167a.0646.0646,0,0,0-.0372.0527c.001.03.0348.0474.0379.049.0153.0078.0394.0137.1357-.0165C5.3853,2.211,5.418,2.2,5.4556,2.1845Z" fill="#ffc80a"/><path d="M5.4354,1.98c-.0294-.0055-.063-.0108-.1-.0148-.1012-.0109-.1234-.001-.1371.01a.0648.0648,0,0,0-.0261.059c.0067.0287.0434.04.0467.0406.0165.0047.0413.0058.13-.0426C5.3717,2.0194,5.4015,2.0021,5.4354,1.98Z" fill="#ffc80a"/><path d="M5.3757,1.7828c-.03,0-.0639.0017-.1013.005-.1013.0091-.1212.0231-.1324.0368a.0648.0648,0,0,0-.0142.063c.0122.0268.05.03.0538.0307.0171.0014.0416-.0024.1191-.0672C5.3209,1.8342,5.3468,1.8114,5.3757,1.7828Z" fill="#ffc80a"/><path d="M5.2787,1.6014c-.0293.0061-.0623.0141-.0983.0246-.0977.0287-.1144.0463-.1228.062a.0648.0648,0,0,0-.0015.0645.0678.0678,0,0,0,.0586.02c.0171-.002.04-.01.1037-.0891C5.235,1.6624,5.256,1.635,5.2787,1.6014Z" fill="#ffc80a"/><path d="M5.1482,1.4423c-.0275.0117-.0584.026-.0916.0434-.09.0472-.1032.0677-.1083.0847a.0645.0645,0,0,0,.011.0636.0681.0681,0,0,0,.0614.0078c.0164-.0053.0375-.0182.0843-.1076C5.1172,1.5108,5.1325,1.48,5.1482,1.4423Z" fill="#ffc80a"/><path d="M4.9891,1.3118c-.0247.0168-.0522.0369-.0814.06-.0792.0639-.0879.0866-.09.1042a.0646.0646,0,0,0,.0232.06.0679.0679,0,0,0,.0617-.0043c.015-.0084.0333-.0251.0617-.122C4.9721,1.3849,4.981,1.3516,4.9891,1.3118Z" fill="#ffc80a"/><path d="M4.8077,1.2148c-.021.0214-.044.0464-.0681.0752-.0652.0781-.0693.102-.0676.12a.0646.0646,0,0,0,.0345.0545.0678.0678,0,0,0,.06-.0162c.0131-.0112.0278-.0312.0367-.1317C4.8053,1.29,4.8075,1.2554,4.8077,1.2148Z" fill="#ffc80a"/><path d="M4.6108,1.1551c-.0164.025-.0341.054-.0521.087-.0487.0893-.0481.1136-.043.1305a.0649.0649,0,0,0,.0445.0468.0683.0683,0,0,0,.0554-.0276c.0107-.0135.0211-.036.01-.1364C4.6231,1.2292,4.6185,1.195,4.6108,1.1551Z" fill="#ffc80a"/><path d="M.7,4.3735h0a.1376.1376,0,0,1-.0978.0623h0l-.0087.0029A.1573.1573,0,0,1,.7,4.5a.1571.1571,0,0,1,.1069-.0612L.7985,4.4359h0A.1373.1373,0,0,1,.7,4.3735Z" fill="none"/><path d="M.7,1.5716a.1783.1783,0,0,1-.1434.1009A.1783.1783,0,0,1,.7,1.7734a.1782.1782,0,0,1,.1434-.1009A.1782.1782,0,0,1,.7,1.5716Z" fill="none"/><path d="M.63,4.8331c.0176.0207.0686-.0195.07-.0208h0c.0016.0012.0527.0415.07.0208.0215-.0253-.0387-.1264-.07-.2C.6688,4.7067.6086,4.8078.63,4.8331Z" fill="none"/><path d="M.6149,1.5465a.0331.0331,0,0,0-.0327-.0376c-.0436,0-.0435.0334-.0356.0569L.544,1.568a.0541.0541,0,0,1-.037-.0538l-.0016-.002a.0742.0742,0,0,1-.043-.0233V1.4864A.0579.0579,0,0,1,.505,1.4637l.0018-.0022c-.0074-.0328.0147-.0477.0378-.0562l.0025.0022c-.0072.0255-.01.0533.0351.0533a.0943.0943,0,0,1,.0741.023L.66,1.4827l.0035-.1353c.002-.0408-.0556-.0409-.0945-.0294L.5662,1.3158A.0886.0886,0,0,1,.67,1.25L.671,1.247A.0514.0514,0,0,1,.6446,1.2a.1336.1336,0,0,1,.0527-.0942L.7,1.1071l.0029-.0012A.1337.1337,0,0,1,.756,1.2.0514.0514,0,0,1,.73,1.247L.7306,1.25a.0886.0886,0,0,1,.1037.0654L.8319,1.318C.793,1.3065.7355,1.3066.7374,1.3474c0,0,.0025.1008.0036.1353l.0033.0011a.0941.0941,0,0,1,.074-.023c.0451,0,.0423-.0278.0351-.0533L.856,1.4053c.023.0085.0451.0234.0378.0562l.0018.0022a.0578.0578,0,0,1,.0426.0227v.0025a.0745.0745,0,0,1-.0431.0233l-.0015.002a.0544.0544,0,0,1-.0371.0538L.8539,1.5658c.0079-.0235.008-.0569-.0356-.0569a.0331.0331,0,0,0-.0327.0376.0788.0788,0,0,0,.0824.0666.0894.0894,0,0,0,.0943-.0843.1552.1552,0,0,0-.0171-.0695C.8951,1.3573.7344,1.0329.7.9649h0c-.0341.068-.1949.3924-.245.4944a.1565.1565,0,0,0-.0171.0695.09.09,0,0,0,.0943.0843A.0788.0788,0,0,0,.6149,1.5465Z" fill="none"/><path d="M.7.8148h0A.1377.1377,0,0,1,.7981.7524h0L.8072.75A.1568.1568,0,0,1,.7.6882.1571.1571,0,0,1,.5934.75L.6021.7524h0A.1379.1379,0,0,1,.7.8148Z" fill="none"/><path d="M.7705.3552C.753.3345.702.3747.7.376h0C.6986.3747.6476.3345.63.3552c-.0214.0253.0388.1264.07.2C.7318.4816.792.3805.7705.3552Z" fill="none"/><path d="M.7,2.8082h0c-.0341.068-.1949.3924-.245.4944a.1565.1565,0,0,0-.0171.07.09.09,0,0,0,.0943.0843A.0789.0789,0,0,0,.6149,3.39a.0331.0331,0,0,0-.0327-.0376c-.0432,0-.0435.0328-.0358.0563l-.0031.0024a.054.054,0,0,1-.0364-.0531L.5051,3.3555a.0749.0749,0,0,1-.0426-.0231V3.33A.0577.0577,0,0,1,.5046,3.307l.0021-.0026C.5,3.2722.5212,3.2573.5441,3.2488l.0028.0026c-.007.0253-.0094.0527.0353.0527a.0949.0949,0,0,1,.0736.0225L.66,3.3253c.0011-.0351.0035-.1346.0035-.1346C.6651,3.15.608,3.15.5691,3.1612L.5664,3.1586a.0884.0884,0,0,1,.1025-.065L.67,3.09a.0513.0513,0,0,1-.0256-.0464A.1331.1331,0,0,1,.6969,2.95L.7,2.9509.7037,2.95a.1338.1338,0,0,1,.0523.0939A.0513.0513,0,0,1,.73,3.09l.0014.0038a.0885.0885,0,0,1,.1025.065l-.0028.0026C.7925,3.15.7355,3.15.7374,3.1907l.0035.1346.0038.0013a.0952.0952,0,0,1,.0736-.0225c.0448,0,.0424-.0274.0353-.0527l.0029-.0026c.0228.0085.0444.0234.0374.0556l.002.0026A.0577.0577,0,0,1,.9381,3.33v.0028a.0746.0746,0,0,1-.0426.0231l-.0018.0023a.0539.0539,0,0,1-.0363.0531L.8541,3.4085c.0077-.0235.0074-.0563-.0358-.0563A.0331.0331,0,0,0,.7856,3.39a.0789.0789,0,0,0,.0824.0666.0894.0894,0,0,0,.0943-.0843.1552.1552,0,0,0-.0171-.07C.8951,3.2006.7344,2.8762.7,2.8082Z" fill="none"/><path d="M.7856,3.6418a.0332.0332,0,0,0,.0327.0376c.0436,0,.0435-.0334.0356-.0569L.8565,3.62a.0544.0544,0,0,1,.0371.0538l.0015.002a.0745.0745,0,0,1,.0431.0233v.0025a.0578.0578,0,0,1-.0426.0227l-.0018.0022C.9011,3.76.879,3.7745.856,3.783L.8534,3.7808c.0072-.0255.01-.0533-.0351-.0533a.0941.0941,0,0,1-.074-.023L.741,3.7056C.74,3.74.7374,3.8409.7374,3.8409c-.0019.0408.0556.0408.0945.0294l.0024.0022a.0887.0887,0,0,1-.1037.0654L.73,3.9413a.0514.0514,0,0,1,.0265.0469.1337.1337,0,0,1-.0528.0942L.7,4.0812l-.003.0012a.1336.1336,0,0,1-.0527-.0942A.0514.0514,0,0,1,.671,3.9413L.67,3.9379a.0887.0887,0,0,1-.1038-.0654L.5686,3.87c.0389.0114.0965.0114.0945-.0294L.66,3.7056.6563,3.7045a.0943.0943,0,0,1-.0741.023c-.0451,0-.0423.0278-.0351.0533L.5446,3.783C.5215,3.7745.4994,3.76.5068,3.7268L.505,3.7246a.0579.0579,0,0,1-.0427-.0227V3.6994a.0742.0742,0,0,1,.043-.0233l.0016-.002A.0541.0541,0,0,1,.544,3.62l.0026.0022c-.0079.0235-.008.0569.0356.0569a.0332.0332,0,0,0,.0327-.0376.0788.0788,0,0,0-.0824-.0666A.09.09,0,0,0,.4382,3.66a.1557.1557,0,0,0,.0171.0694c.05.102.2109.4265.245.4945h0c.0341-.068.1948-.3925.2449-.4945A.1544.1544,0,0,0,.9623,3.66.0894.0894,0,0,0,.868,3.5752.0788.0788,0,0,0,.7856,3.6418Z" fill="none"/><path d="M.9623,1.8162A.0894.0894,0,0,0,.868,1.7319a.0788.0788,0,0,0-.0824.0666.0331.0331,0,0,0,.0327.0376c.0432,0,.0435-.0328.0358-.0563l.0032-.0025a.0541.0541,0,0,1,.0363.0532l.0018.0023a.0746.0746,0,0,1,.0426.0231v.0028a.0577.0577,0,0,1-.0422.0226l-.002.0025c.007.0323-.0146.0472-.0374.0557L.8536,1.9369c.0071-.0253.0095-.0527-.0353-.0527a.0952.0952,0,0,1-.0736-.0225L.7409,1.863l-.0035.1346c-.0019.0406.0551.0408.094.0295L.8342,2.03a.0885.0885,0,0,1-.1025.065L.73,2.0985a.0513.0513,0,0,1,.0257.0464.1338.1338,0,0,1-.0523.0939L.7,2.2374l-.0034.0014a.1331.1331,0,0,1-.0523-.0939A.0513.0513,0,0,1,.67,2.0985L.6689,2.0947A.0884.0884,0,0,1,.5664,2.03l.0027-.0026c.0389.0113.096.0111.094-.0295,0,0-.0024-.1-.0035-.1346L.6558,1.8617a.0949.0949,0,0,1-.0736.0225c-.0447,0-.0423.0274-.0353.0527L.5441,1.94C.5212,1.931.5,1.9161.5067,1.8838L.5046,1.8813a.0577.0577,0,0,1-.0421-.0226V1.8559a.0749.0749,0,0,1,.0426-.0231l.0018-.0023a.0542.0542,0,0,1,.0364-.0532L.5464,1.78c-.0077.0235-.0074.0563.0358.0563a.0331.0331,0,0,0,.0327-.0376.0788.0788,0,0,0-.0824-.0666.09.09,0,0,0-.0943.0843.1557.1557,0,0,0,.0171.0694c.05.102.2109.4265.245.4945h0c.0341-.068.1948-.3925.2449-.4945A.1544.1544,0,0,0,.9623,1.8162Z" fill="none"/><path d="M.7,2.53h0a.1373.1373,0,0,1-.0978.0623l0,0-.0045.0014.0045.0015h0A.1377.1377,0,0,1,.7,2.6581h0A.1377.1377,0,0,1,.798,2.5957h0L.803,2.5941.7985,2.5927l0,0A.1373.1373,0,0,1,.7,2.53Z" fill="none"/><path d="M.7,3.6167a.1782.1782,0,0,1,.1434-.1009A.1782.1782,0,0,1,.7,3.4149a.1783.1783,0,0,1-.1434.1009A.1783.1783,0,0,1,.7,3.6167Z" fill="none"/><path d="M.9976,1.9239a.2244.2244,0,0,0,.03-.1148.1347.1347,0,0,0-.1333-.1366.1347.1347,0,0,0,.1333-.1366.2244.2244,0,0,0-.03-.1148S.8242,1.0779.7567.9451A.1343.1343,0,0,1,.7456.8821.0884.0884,0,0,1,.9215.8835c0,.0524-.0286.0758-.0579.0758-.0361,0-.05-.0142-.05-.0383,0-.0168.0085-.0241.0208-.0241.026,0,.024.0281.0227.037L.8591.9358A.0266.0266,0,0,0,.8776.9016L.8789.8993A.0561.0561,0,0,0,.9057.8841V.8815A.0564.0564,0,0,0,.879.8676L.8775.8653A.0254.0254,0,0,0,.8574.83L.855.8318A.0392.0392,0,0,1,.8569.851L.8545.8525a.0625.0625,0,0,0-.0815.06.087.087,0,0,0,.1039.089l.0013.0032a.05.05,0,0,0-.02.0352l.0025.002a.1058.1058,0,0,1,.0217-.0044L.884,1.04A.0823.0823,0,0,0,.8658,1.09l.0028.0017c.0121-.0058.0237-.0144.039-.0094l.0011.0025c-.0252.05.0067.1175.0875.1359l.0019-.0029a.1634.1634,0,0,1-.0432-.1064c0-.1221.0356-.1426.0356-.2274A.1233.1233,0,0,0,.9347.7846.0758.0758,0,0,0,.9838.7509h0a.0632.0632,0,0,0-.0516-.03L.9313.7175A.1152.1152,0,0,0,.9916.615C.9916.5312.9554.4966.9554.4021A.2606.2606,0,0,1,.9984.2862L.9966.2834A.1022.1022,0,0,0,.9028.415L.9013.4174a.0392.0392,0,0,1-.03-.0083L.8686.41A.0565.0565,0,0,0,.8839.4548L.8832.4575A.0466.0466,0,0,1,.8548.4559L.8525.458A.0649.0649,0,0,0,.8812.5L.88.5027A.0849.0849,0,0,0,.7726.5843.0612.0612,0,0,0,.8274.6489.06.06,0,0,0,.8543.6416L.8571.6424a.04.04,0,0,1-.002.029L.8575.6738C.8744.6685.8846.6578.8777.6375L.8793.6351A.0519.0519,0,0,0,.9115.621V.6185A.0433.0433,0,0,0,.88.6042L.8781.6016C.8864.5829.8766.5715.8614.5624L.8585.5643c.002.0108.0051.04-.0187.04C.8267.6042.8147.6.8147.5816A.0416.0416,0,0,1,.8636.5447C.8977.5461.9254.5671.9254.619c0,.0478-.0406.0716-.094.0732C.7832.6936.7468.6687.7468.6214c0-.063.0956-.2066.0956-.2627A.0719.0719,0,0,0,.7636.2931.1157.1157,0,0,0,.7.3154.1163.1163,0,0,0,.6369.2931.0718.0718,0,0,0,.5582.3587c0,.0561.0955.2.0955.2627,0,.0473-.0364.0722-.0846.0708C.5157.6906.4751.6668.4751.619.4751.5671.5028.5461.537.5447A.0416.0416,0,0,1,.5859.5816C.5859.6.5739.6042.5607.6042.5369.6042.54.5751.542.5643L.5391.5624C.5239.5715.5142.5829.5224.6016L.5207.6042A.0433.0433,0,0,0,.489.6185V.621A.0516.0516,0,0,0,.5212.6351L.5228.6375c-.0068.02.0034.031.02.0363L.5455.6714A.04.04,0,0,1,.5434.6424L.5462.6416a.06.06,0,0,0,.027.0073A.0612.0612,0,0,0,.628.5843.0849.0849,0,0,0,.5209.5027L.5194.5A.0649.0649,0,0,0,.5481.458L.5458.4559A.0466.0466,0,0,1,.5174.4575L.5167.4548A.0561.0561,0,0,0,.5319.41L.5288.4091a.039.039,0,0,1-.03.0083L.4977.415A.1021.1021,0,0,0,.404.2834L.4021.2862A.2593.2593,0,0,1,.4452.4021C.4452.4966.4089.5312.4089.615a.1152.1152,0,0,0,.06.1025L.4684.7208a.063.063,0,0,0-.0516.03h0a.0754.0754,0,0,0,.049.0337A.1235.1235,0,0,0,.41.8835c0,.0848.0357.1053.0357.2274a.1634.1634,0,0,1-.0432.1064L.4043,1.22c.0808-.0184.1127-.0858.0876-.1359l.001-.0025c.0153-.005.027.0036.0391.0094L.5347,1.09A.0829.0829,0,0,0,.5166,1.04l.0018-.0027A.1051.1051,0,0,1,.54,1.0419L.5425,1.04a.05.05,0,0,0-.02-.0352l.0013-.0032A.087.087,0,0,0,.6275.9125.0625.0625,0,0,0,.546.8525L.5437.851A.037.037,0,0,1,.5456.8318L.5432.83a.0254.0254,0,0,0-.02.0358L.5216.8676A.0567.0567,0,0,0,.4949.8815V.8841A.0561.0561,0,0,0,.5216.8993L.5229.9016A.0266.0266,0,0,0,.5414.9358L.5439.9339C.5426.925.5406.8969.5667.8969c.0122,0,.0207.0073.0207.0241,0,.0241-.0143.0383-.05.0383C.5076.9593.4791.9359.4791.8835A.0884.0884,0,0,1,.655.8821a.1343.1343,0,0,1-.0111.063c-.0676.1328-.2409.476-.2409.476a.2245.2245,0,0,0-.03.1148.1348.1348,0,0,0,.1333.1366.1348.1348,0,0,0-.1333.1366.2245.2245,0,0,0,.03.1148s.1733.3432.2409.476a.1341.1341,0,0,1,.0111.063.0884.0884,0,0,1-.1759-.0014c0-.0524.0285-.0758.0579-.0758.0361,0,.05.0141.05.0383,0,.0168-.0085.0241-.0207.0241-.0256,0-.0241-.0271-.0228-.0365l-.003-.0023a.0266.0266,0,0,0-.018.0338l-.0016.0027a.0562.0562,0,0,0-.0263.0149l0,.003a.0571.0571,0,0,0,.0261.0137L.523,2.48a.0252.0252,0,0,0,.02.0353l.0028-.0027a.0378.0378,0,0,1-.0018-.0183l.0028-.0017a.0624.0624,0,0,0,.0811-.06.0868.0868,0,0,0-.1028-.0891L.5231,2.34a.0506.0506,0,0,0,.0194-.0342L.54,2.3033.519,2.3074.5169,2.3043a.082.082,0,0,0,.0178-.0484L.5316,2.254a.05.05,0,0,1-.0384.0093L.492,2.26c.0248-.05-.0068-.1168-.0868-.1354L.403,2.1283a.1633.1633,0,0,1,.0427.1058c0,.1221-.0357.1426-.0357.2274A.1235.1235,0,0,0,.4658,2.56a.0754.0754,0,0,0-.049.0337h0a.0754.0754,0,0,0,.049.0337A.1235.1235,0,0,0,.41,2.7268c0,.0848.0357.1053.0357.2274A.1633.1633,0,0,1,.403,3.06l.0022.0033c.08-.0186.1116-.0855.0868-.1354L.4932,2.925a.05.05,0,0,1,.0384.0093l.0031-.0019A.082.082,0,0,0,.5169,2.884L.519,2.8808.54,2.885l.0029-.0022a.0506.0506,0,0,0-.0194-.0342l.0016-.0037a.0868.0868,0,0,0,.1028-.0891.0624.0624,0,0,0-.0811-.06L.5436,2.694a.0378.0378,0,0,1,.0018-.0183L.5426,2.673a.0252.0252,0,0,0-.02.0353l-.0017.0026a.0562.0562,0,0,0-.0261.0137l0,.003a.0562.0562,0,0,0,.0263.0149l.0016.0027a.0266.0266,0,0,0,.018.0338l.003-.0023C.5426,2.7673.5411,2.74.5667,2.74c.0122,0,.0207.0073.0207.0241,0,.0241-.0143.0383-.05.0383-.0294,0-.0579-.0234-.0579-.0758A.0884.0884,0,0,1,.655,2.7254a.1343.1343,0,0,1-.0111.063c-.0676.1328-.2409.476-.2409.476a.2245.2245,0,0,0-.03.1148.1348.1348,0,0,0,.1333.1366.1348.1348,0,0,0-.1333.1366.2245.2245,0,0,0,.03.1148s.1733.3432.2409.476a.1341.1341,0,0,1,.0111.063.0884.0884,0,0,1-.1759-.0014c0-.0524.0285-.0758.0579-.0758.0361,0,.05.0141.05.0383,0,.0168-.0085.0241-.0207.0241-.0261,0-.0241-.0281-.0228-.037L.5414,4.2525a.0266.0266,0,0,0-.0185.0342L.5216,4.289a.0561.0561,0,0,0-.0268.0152v.0026a.0567.0567,0,0,0,.0267.0139L.523,4.323a.0254.0254,0,0,0,.02.0358l.0024-.0024a.0368.0368,0,0,1-.0019-.0192L.546,4.3358a.0625.0625,0,0,0,.0815-.06.087.087,0,0,0-.1039-.089L.5223,4.1836a.05.05,0,0,0,.02-.0352L.54,4.1464a.1051.1051,0,0,1-.0216.0044L.5166,4.1481a.0829.0829,0,0,0,.0181-.0493L.532,4.0971c-.0121.0058-.0238.0144-.0391.0094L.4919,4.104c.0251-.05-.0068-.1175-.0876-.1359L.4025,3.971a.1632.1632,0,0,1,.0432.1064C.4457,4.2.41,4.22.41,4.3048a.1235.1235,0,0,0,.0558.0989.0754.0754,0,0,0-.049.0337h0a.063.063,0,0,0,.0516.03l.0008.0033a.1152.1152,0,0,0-.06.1025c0,.0838.0363.1184.0363.2129a.2593.2593,0,0,1-.0431.1159l.0019.0028a.1021.1021,0,0,0,.0937-.1316l.0016-.0024a.039.039,0,0,1,.03.0083l.0031-.001a.0561.0561,0,0,0-.0152-.0447l.0007-.0027a.0472.0472,0,0,1,.0284.0015L.5481,4.73a.0649.0649,0,0,0-.0287-.0415l.0015-.0032A.0849.0849,0,0,0,.628,4.604a.0612.0612,0,0,0-.0548-.0646.06.06,0,0,0-.027.0073L.5434,4.5459a.04.04,0,0,1,.0021-.029L.5431,4.5145c-.0169.0053-.0271.016-.02.0363l-.0016.0024a.0506.0506,0,0,0-.0321.0141V4.57a.0433.0433,0,0,0,.0317.0143l.0017.0026c-.0082.0187.0015.03.0167.0392L.542,4.624c-.002-.0108-.0051-.04.0187-.04.0132,0,.0252.0041.0252.0226a.0417.0417,0,0,1-.0489.0369C.5028,4.6422.4751,4.6212.4751,4.5693c0-.0478.0406-.0716.094-.0732.0482-.0014.0846.0235.0846.0708,0,.063-.0955.2066-.0955.2627a.0718.0718,0,0,0,.0787.0656A.1163.1163,0,0,0,.7,4.8729a.1157.1157,0,0,0,.0633.0223A.0719.0719,0,0,0,.8424,4.83c0-.0561-.0956-.2-.0956-.2627,0-.0473.0364-.0722.0846-.0708.0534.0016.094.0254.094.0732,0,.0519-.0277.0729-.0618.0743S.8147,4.6228.8147,4.6067c0-.0185.012-.0226.0251-.0226.0238,0,.0207.0291.0187.04l.0029.0019c.0152-.0091.025-.02.0167-.0392L.88,4.5841A.0433.0433,0,0,0,.9115,4.57V4.5673a.0509.0509,0,0,0-.0322-.0141L.8777,4.5508c.0069-.02-.0033-.031-.02-.0363l-.0024.0024a.04.04,0,0,1,.002.029l-.0028.0008a.06.06,0,0,0-.0269-.0073.0612.0612,0,0,0-.0548.0646A.0849.0849,0,0,0,.88,4.6856l.0015.0032A.0649.0649,0,0,0,.8525,4.73l.0023.002a.0472.0472,0,0,1,.0284-.0015l.0007.0027a.0565.0565,0,0,0-.0153.0447l.0031.001a.0392.0392,0,0,1,.03-.0083l.0015.0024a.1022.1022,0,0,0,.0938.1316l.0018-.0028a.2606.2606,0,0,1-.043-.1159c0-.0945.0362-.1291.0362-.2129a.1152.1152,0,0,0-.06-.1025l.0009-.0033a.0632.0632,0,0,0,.0516-.03h0a.0758.0758,0,0,0-.0491-.0337.1233.1233,0,0,0,.0558-.0989C.9905,4.22.9549,4.2.9549,4.0774A.1632.1632,0,0,1,.9981,3.971L.9962,3.9681c-.0808.0184-.1127.0858-.0875.1359l-.0011.0025c-.0153.005-.0269-.0036-.039-.0094l-.0028.0017a.0823.0823,0,0,0,.0182.0493l-.0018.0027a.1058.1058,0,0,1-.0217-.0044l-.0025.002a.05.05,0,0,0,.02.0352l-.0013.0032a.087.087,0,0,0-.1039.089.0625.0625,0,0,0,.0815.06l.0024.0014a.039.039,0,0,1-.0019.0192l.0024.0024a.0254.0254,0,0,0,.02-.0358L.879,4.3207a.0564.0564,0,0,0,.0266-.0139V4.3042A.0561.0561,0,0,0,.8789,4.289L.8776,4.2867a.0266.0266,0,0,0-.0185-.0342l-.0025.0019c.0013.0089.0033.037-.0227.037-.0123,0-.0208-.0073-.0208-.0241,0-.0242.0144-.0383.05-.0383.0293,0,.0579.0234.0579.0758a.0884.0884,0,0,1-.1759.0014.1341.1341,0,0,1,.0111-.063c.0675-.1328.2409-.476.2409-.476a.2244.2244,0,0,0,.03-.1148.1347.1347,0,0,0-.1333-.1366.1347.1347,0,0,0,.1333-.1366.2244.2244,0,0,0-.03-.1148s-.1734-.3432-.2409-.476a.1343.1343,0,0,1-.0111-.063.0884.0884,0,0,1,.1759.0014c0,.0524-.0286.0758-.0579.0758-.0361,0-.05-.0142-.05-.0383,0-.0168.0085-.0241.0208-.0241.0256,0,.0241.0271.0228.0365L.86,2.779a.0266.0266,0,0,0,.0181-.0338l.0015-.0027a.0557.0557,0,0,0,.0263-.0149v-.003a.0571.0571,0,0,0-.0261-.0137L.8776,2.7083a.0252.0252,0,0,0-.02-.0353l-.0027.0027a.0377.0377,0,0,1,.0017.0183l-.0027.0017a.0625.0625,0,0,0-.0812.06.0869.0869,0,0,0,.1029.0891l.0015.0037a.05.05,0,0,0-.0193.0342l.0028.0022.0207-.0042.0021.0032a.0814.0814,0,0,0-.0179.0484l.0032.0019A.0494.0494,0,0,1,.9073,2.925l.0012.0029c-.0248.05.0069.1168.0869.1354L.9975,3.06a.1632.1632,0,0,1-.0426-.1058c0-.1221.0356-.1426.0356-.2274a.1233.1233,0,0,0-.0558-.0989.0758.0758,0,0,0,.0491-.0337h0A.0758.0758,0,0,0,.9347,2.56a.1233.1233,0,0,0,.0558-.0989c0-.0848-.0356-.1053-.0356-.2274a.1632.1632,0,0,1,.0426-.1058L.9954,2.125c-.08.0186-.1117.0855-.0869.1354l-.0012.0029A.0494.0494,0,0,1,.869,2.254l-.0032.0019a.0814.0814,0,0,0,.0179.0484l-.0021.0031L.8609,2.3033l-.0028.0022A.05.05,0,0,0,.8774,2.34l-.0015.0037a.0869.0869,0,0,0-.1029.0891.0625.0625,0,0,0,.0812.06l.0027.0017a.0377.0377,0,0,1-.0017.0183l.0027.0027a.0252.0252,0,0,0,.02-.0353l.0017-.0026a.0581.0581,0,0,0,.0261-.0137v-.003a.0557.0557,0,0,0-.0263-.0149L.8777,2.4431A.0266.0266,0,0,0,.86,2.4093l-.0029.0023c.0013.0094.0028.0365-.0228.0365-.0123,0-.0208-.0073-.0208-.0241,0-.0242.0144-.0383.05-.0383.0293,0,.0579.0234.0579.0758a.0884.0884,0,0,1-.1759.0014A.1341.1341,0,0,1,.7567,2.4C.8242,2.2671.9976,1.9239.9976,1.9239ZM.63.3552C.6476.3345.6986.3747.7.376h0C.702.3747.753.3345.7705.3552.792.3805.7318.4816.7.5557.6688.4816.6086.3805.63.3552ZM.6025.7524h0L.5934.75A.1571.1571,0,0,0,.7.6882.1568.1568,0,0,0,.8072.75L.7985.7524h0A.1377.1377,0,0,0,.7.8148h0A.1379.1379,0,0,0,.6025.7524Zm-.1643.7764a.1565.1565,0,0,1,.0171-.0695c.05-.102.2109-.4264.245-.4944h0c.0341.068.1948.3924.2449.4944a.1552.1552,0,0,1,.0171.0695.0894.0894,0,0,1-.0943.0843.0788.0788,0,0,1-.0824-.0666.0331.0331,0,0,1,.0327-.0376c.0436,0,.0435.0334.0356.0569l.0026.0022a.0544.0544,0,0,0,.0371-.0538l.0015-.002a.0745.0745,0,0,0,.0431-.0233V1.4864a.0578.0578,0,0,0-.0426-.0227L.8938,1.4615C.9011,1.4287.879,1.4138.856,1.4053l-.0026.0022c.0072.0255.01.0533-.0351.0533a.0941.0941,0,0,0-.074.023L.741,1.4827C.74,1.4482.7374,1.3474.7374,1.3474.7355,1.3066.793,1.3065.8319,1.318l.0024-.0022A.0886.0886,0,0,0,.7306,1.25L.73,1.247A.0514.0514,0,0,0,.756,1.2a.1337.1337,0,0,0-.0528-.0942L.7,1.1071l-.003-.0012A.1336.1336,0,0,0,.6446,1.2.0514.0514,0,0,0,.671,1.247L.67,1.25a.0886.0886,0,0,0-.1038.0654l.0024.0022c.0389-.0115.0965-.0114.0945.0294L.66,1.4827l-.0033.0011a.0943.0943,0,0,0-.0741-.023c-.0451,0-.0423-.0278-.0351-.0533L.5446,1.4053c-.0231.0085-.0452.0234-.0378.0562L.505,1.4637a.0579.0579,0,0,0-.0427.0227v.0025a.0742.0742,0,0,0,.043.0233l.0016.002a.0541.0541,0,0,0,.037.0538l.0026-.0022c-.0079-.0235-.008-.0569.0356-.0569a.0331.0331,0,0,1,.0327.0376.0788.0788,0,0,1-.0824.0666A.09.09,0,0,1,.4382,1.5288Zm.4055.1437A.1782.1782,0,0,0,.7,1.7734a.1783.1783,0,0,0-.1434-.1009A.1783.1783,0,0,0,.7,1.5716.1782.1782,0,0,0,.8437,1.6725ZM.7705,4.8331c-.0175.0207-.0686-.02-.07-.0208h0c-.0016.0013-.0526.0415-.07.0208-.0214-.0253.0388-.1264.07-.2C.7318,4.7067.792,4.8078.7705,4.8331Zm.0276-.3973h0l.0087.0029A.1571.1571,0,0,0,.7,4.5a.1573.1573,0,0,0-.1069-.0612l.0087-.0029h0A.1376.1376,0,0,0,.7,4.3735h0A.1373.1373,0,0,0,.7981,4.4358ZM.9623,3.66a.1544.1544,0,0,1-.0171.0694c-.05.102-.2108.4265-.2449.4945h0c-.0341-.068-.1949-.3925-.245-.4945A.1557.1557,0,0,1,.4382,3.66a.09.09,0,0,1,.0943-.0843.0788.0788,0,0,1,.0824.0666.0332.0332,0,0,1-.0327.0376c-.0436,0-.0435-.0334-.0356-.0569L.544,3.62a.0541.0541,0,0,0-.037.0538l-.0016.002a.0742.0742,0,0,0-.043.0233v.0025a.0579.0579,0,0,0,.0427.0227l.0018.0022c-.0074.0327.0147.0477.0378.0562l.0025-.0022c-.0072-.0255-.01-.0533.0351-.0533a.0943.0943,0,0,0,.0741-.023L.66,3.7056l.0035.1353c.002.0408-.0556.0408-.0945.0294l-.0024.0022A.0887.0887,0,0,0,.67,3.9379l.001.0034a.0514.0514,0,0,0-.0264.0469.1336.1336,0,0,0,.0527.0942L.7,4.0812l.0029.0012A.1337.1337,0,0,0,.756,3.9882.0514.0514,0,0,0,.73,3.9413l.0011-.0034a.0887.0887,0,0,0,.1037-.0654L.8319,3.87c-.0389.0114-.0964.0114-.0945-.0294,0,0,.0025-.1008.0036-.1353l.0033-.0011a.0941.0941,0,0,0,.074.023c.0451,0,.0423.0278.0351.0533L.856,3.783c.023-.0085.0451-.0235.0378-.0562l.0018-.0022a.0578.0578,0,0,0,.0426-.0227V3.6994a.0745.0745,0,0,0-.0431-.0233l-.0015-.002A.0544.0544,0,0,0,.8565,3.62l-.0026.0022c.0079.0235.008.0569-.0356.0569a.0332.0332,0,0,1-.0327-.0376A.0788.0788,0,0,1,.868,3.5752.0894.0894,0,0,1,.9623,3.66ZM.5569,3.5158A.1783.1783,0,0,0,.7,3.4149a.1782.1782,0,0,0,.1434.1009A.1782.1782,0,0,0,.7,3.6167.1783.1783,0,0,0,.5569,3.5158Zm.3883-.2132a.1552.1552,0,0,1,.0171.07.0894.0894,0,0,1-.0943.0843A.0789.0789,0,0,1,.7856,3.39a.0331.0331,0,0,1,.0327-.0376c.0432,0,.0435.0328.0358.0563l.0032.0024a.0539.0539,0,0,0,.0363-.0531l.0018-.0023A.0746.0746,0,0,0,.938,3.3324V3.33A.0577.0577,0,0,0,.8959,3.307l-.002-.0026c.007-.0322-.0146-.0471-.0374-.0556l-.0029.0026c.0071.0253.0095.0527-.0353.0527a.0952.0952,0,0,0-.0736.0225L.7409,3.3253.7374,3.1907c-.0019-.0406.0551-.0409.094-.03l.0028-.0026a.0885.0885,0,0,0-.1025-.065L.73,3.09A.0513.0513,0,0,0,.756,3.0434.1338.1338,0,0,0,.7037,2.95L.7,2.9509.6969,2.95a.1331.1331,0,0,0-.0523.0939A.0513.0513,0,0,0,.67,3.09l-.0013.0038a.0884.0884,0,0,0-.1025.065l.0027.0026c.0389-.0114.096-.0111.094.03,0,0-.0024.0995-.0035.1346l-.0038.0013a.0949.0949,0,0,0-.0736-.0225c-.0447,0-.0423-.0274-.0353-.0527L.5441,3.2488C.5212,3.2573.5,3.2722.5067,3.3044L.5046,3.307A.0577.0577,0,0,0,.4625,3.33v.0028a.0749.0749,0,0,0,.0426.0231l.0018.0023a.054.054,0,0,0,.0364.0531l.0031-.0024C.5387,3.385.539,3.3522.5822,3.3522A.0331.0331,0,0,1,.6149,3.39a.0789.0789,0,0,1-.0824.0666.09.09,0,0,1-.0943-.0843.1565.1565,0,0,1,.0171-.07c.05-.102.2109-.4264.245-.4944h0C.7344,2.8762.8951,3.2006.9452,3.3026Zm-.1472-.71,0,0,.0045.0014-.0045.0015h0A.1377.1377,0,0,0,.7,2.6581h0a.1377.1377,0,0,0-.0978-.0624h0L.5976,2.5941l.0045-.0014,0,0A.1373.1373,0,0,0,.7,2.53h0A.1373.1373,0,0,0,.798,2.5925ZM.7,2.38h0c-.0341-.068-.1949-.3925-.245-.4945a.1557.1557,0,0,1-.0171-.0694.09.09,0,0,1,.0943-.0843.0788.0788,0,0,1,.0824.0666.0331.0331,0,0,1-.0327.0376c-.0432,0-.0435-.0328-.0358-.0563L.5433,1.7773a.0542.0542,0,0,0-.0364.0532l-.0018.0023a.0749.0749,0,0,0-.0426.0231v.0028a.0577.0577,0,0,0,.0421.0226l.0021.0025C.5,1.9161.5212,1.931.5441,1.94l.0028-.0026C.54,1.9116.5375,1.8842.5822,1.8842a.0949.0949,0,0,0,.0736-.0225L.66,1.863c.0011.0351.0035.1346.0035.1346.002.0406-.0551.0408-.094.0295L.5664,2.03a.0884.0884,0,0,0,.1025.065L.67,2.0985a.0513.0513,0,0,0-.0256.0464.1331.1331,0,0,0,.0523.0939L.7,2.2374l.0034.0014A.1338.1338,0,0,0,.756,2.1449.0513.0513,0,0,0,.73,2.0985l.0014-.0038A.0885.0885,0,0,0,.8342,2.03L.8314,2.0271c-.0389.0113-.0959.0111-.094-.0295L.7409,1.863l.0038-.0013a.0952.0952,0,0,0,.0736.0225c.0448,0,.0424.0274.0353.0527L.8565,1.94c.0228-.0085.0444-.0234.0374-.0557l.002-.0025a.0577.0577,0,0,0,.0422-.0226V1.8559a.0746.0746,0,0,0-.0426-.0231L.8936,1.8305a.0541.0541,0,0,0-.0363-.0532L.8541,1.78c.0077.0235.0074.0563-.0358.0563a.0331.0331,0,0,1-.0327-.0376A.0788.0788,0,0,1,.868,1.7319a.0894.0894,0,0,1,.0943.0843.1544.1544,0,0,1-.0171.0694C.8951,1.9876.7344,2.3121.7,2.38Z" fill="#ffc80a"/><path d="M3.807,3.5811l-.079-.0288c-.1071-.04-.2089-.0828-.3056-.1269a.1394.1394,0,0,1,.0214-.022.1367.1367,0,0,1,.037-.0216.172.172,0,0,1-.0839-.0151.1692.1692,0,0,1-.0453-.03A.0411.0411,0,0,1,3.39,3.3028a.0989.0989,0,0,1-.0571-.0172.0973.0973,0,0,1-.03-.033.0528.0528,0,0,0,.0281-.0506.0364.0364,0,0,1-.033.0034A.0327.0327,0,0,1,3.2828,3.19a.0382.0382,0,0,1,.0142-.0448A.2115.2115,0,0,1,3.16,3.0814a.0331.0331,0,0,1,.0089-.0132.0433.0433,0,0,1,.04-.0049.6236.6236,0,0,1-.0669-.0654q-.0174-.02-.0314-.0389l.0039-.0078c.01-.012.0363-.01.0654.0034a.3879.3879,0,0,0-.0654-.1459.0365.0365,0,0,1,.02-.01.0411.0411,0,0,1,.04.0207.0341.0341,0,0,1,.01-.03.0293.0293,0,0,1,.0182-.0064l.359.3749.1218.0474c.0236.0153.0605.04.1036.0747.0962.0763.0948.0958.1423.1161.0369.0157.03.0005.2.0223a.5033.5033,0,0,1,.11.0236.4489.4489,0,0,1,.0852.04.1462.1462,0,0,0,.0295-.0256.1492.1492,0,0,0,.0322-.061c-.0321-.0034-.08-.009-.1384-.0177-.0692-.01-.122-.02-.1315-.0222a1.7645,1.7645,0,0,1-.4239-.1909A.9735.9735,0,0,1,3.31,2.7523a1.0082,1.0082,0,0,1-.105-.3A.0929.0929,0,0,0,3.1821,2.39.0285.0285,0,0,0,3.16,2.38c-.0052.0006-.01.0047-.0186.0144a.097.097,0,0,0-.0168.0708.8778.8778,0,0,0,.0288.1639.6145.6145,0,0,1-.0577-.1232c-.04-.1186-.0315-.213-.0708-.223a.0487.0487,0,0,0-.0394.0144c-.0135.0131-.0337.0472.0263.223a1.7479,1.7479,0,0,0,.0839.2028,1.1366,1.1366,0,0,1-.1338-.17c-.0229-.036-.0475-.08-.0813-.0787a.0464.0464,0,0,0-.0393.0249c-.0117.0249.0093.0574.0212.075.0651.0971.2141.2876.228.3053a1.7279,1.7279,0,0,1-.1941-.1705c-.0133-.014-.0472-.0508-.0682-.0419-.0113.0047-.0144.0208-.015.0236-.0076.04.0379.08.0582.0983.0575.0519.13.1236.2243.219a.2815.2815,0,0,1-.0852-.0341A.1362.1362,0,0,0,2.949,2.949c-.01-.0009-.0285-.0026-.0328.0053-.01.0191.072.0826.084.0918a.763.763,0,0,0,.21.1134c-.07-.0083-.1516-.0149-.156.002-.002.0077.013.0178.0249.0256a.31.31,0,0,0,.183.0445.0721.0721,0,0,1-.0407.023c-.0232.0036-.0387-.0086-.0551.002-.0006,0-.0126.0083-.0118.0177s.0185.0171.0282.02a.2606.2606,0,0,0,.1194.007.0571.0571,0,0,1-.0286.0206c-.018.0054-.0315-.0023-.0416.0069a.021.021,0,0,0-.0072.0184c.0037.0153.0367.0165.0951.0289.0251.0053.045.0105.0565.0137a.18.18,0,0,1-.0364.0163c-.016.0051-.0283.0064-.03.0132s.0046.0112.0066.0131a1.7125,1.7125,0,0,0,.2714.0967.6188.6188,0,0,0,.1555.0476A.4582.4582,0,0,0,3.807,3.5811Z" fill="#ffc80a"/><path d="M4.43,3.3949c.032-.0034.08-.009.1383-.0177.0711-.0106.1241-.0208.1316-.0222a1.7653,1.7653,0,0,0,.4238-.1909.9748.9748,0,0,0,.383-.4118,1.008,1.008,0,0,0,.1049-.3A.0935.0935,0,0,1,5.6338,2.39a.0289.0289,0,0,1,.022-.01c.0052.0006.01.0047.0186.0144a.097.097,0,0,1,.0168.0708.8863.8863,0,0,1-.0288.1639A.6259.6259,0,0,0,5.72,2.5058c.04-.1186.0314-.213.0708-.223a.0486.0486,0,0,1,.0393.0144c.0135.0131.0337.0472-.0262.223A1.7479,1.7479,0,0,1,5.72,2.723a1.1347,1.1347,0,0,0,.1337-.17c.0229-.036.0475-.08.0813-.0787a.0464.0464,0,0,1,.0393.0249c.0118.0249-.0093.0574-.0211.075-.0651.0971-.2141.2876-.228.3053a1.7374,1.7374,0,0,0,.1941-.1705c.0132-.014.0471-.0508.0682-.0419.0113.0047.0144.0208.0149.0236.0076.04-.0378.08-.0582.0983-.0574.0519-.13.1236-.2242.219a.2827.2827,0,0,0,.0852-.0341.1362.1362,0,0,1,.0616-.0249c.01-.0009.0285-.0026.0328.0053.01.0191-.072.0826-.0839.0918a.7623.7623,0,0,1-.2105.1134c.07-.0083.1517-.0149.1561.002.002.0077-.0131.0178-.025.0256a.3092.3092,0,0,1-.1829.0445.0721.0721,0,0,0,.0407.023c.0231.0036.0387-.0086.055.002.0007,0,.0127.0083.0118.0177s-.0185.0171-.0281.02a.2608.2608,0,0,1-.1194.007.057.057,0,0,0,.0285.0206c.0181.0054.0315-.0023.0417.0069a.0212.0212,0,0,1,.0072.0184c-.0038.0153-.0368.0165-.0951.0289-.0251.0053-.045.0105-.0565.0137a.1819.1819,0,0,0,.0363.0163c.0161.0051.0283.0064.03.0132s-.0045.0112-.0065.0131a1.7162,1.7162,0,0,1-.2714.0967.6188.6188,0,0,1-.1555.0476.46.46,0,0,1-.0633.0039l.079-.0288c.1071-.04.209-.0828.3056-.1269a.1345.1345,0,0,0-.0584-.0436.1723.1723,0,0,0,.084-.0151.1684.1684,0,0,0,.0452-.03.0411.0411,0,0,0-.0383-.0334.0986.0986,0,0,0,.057-.0172.0962.0962,0,0,0,.03-.033.0535.0535,0,0,1-.0236-.0251.0526.0526,0,0,1-.0044-.0255.0361.0361,0,0,0,.0329.0034A.0335.0335,0,0,0,5.5332,3.19a.0381.0381,0,0,0-.0143-.0448.2115.2115,0,0,0,.1372-.0635.0317.0317,0,0,0-.0088-.0132.0435.0435,0,0,0-.04-.0049.6144.6144,0,0,0,.0669-.0654c.0117-.0133.0221-.0263.0315-.0389l-.0039-.0078c-.01-.012-.0364-.01-.0654.0034a.3879.3879,0,0,1,.0654-.1459.0365.0365,0,0,0-.02-.01.041.041,0,0,0-.04.0207.034.034,0,0,0-.01-.03.0293.0293,0,0,0-.0182-.0064l-.3589.3749-.1219.0474c-.0235.0153-.0605.04-.1036.0747-.0962.0763-.0947.0958-.1423.1161-.0369.0157-.03.0005-.2.0223a.5025.5025,0,0,0-.11.0236.4614.4614,0,0,0-.0853.04c-.2368.1384-.27.1711-.3323.1951a.4322.4322,0,0,0-.1279.075.1231.1231,0,0,0,.0256,0l.0182-.0034a.048.048,0,0,0,.0427.0011c.0148-.01.0064-.03.0223-.0413s.0287.0023.0584-.0085c.0108-.004.0094-.0059.0314-.0158.0043-.0019.0351-.0158.0374-.0118s-.0267.0192-.0236.0335c.0019.0089.0145.0088.0164.017.0036.0156-.0376.0323-.0347.0413s.0513-.0093.11.0072a.3682.3682,0,0,0,.0407.0125.2777.2777,0,0,0,.0682.0033.4263.4263,0,0,1,.0964.0052c0,.0034-.0218.0086-.0374.0112a.2781.2781,0,0,1-.084.0013c-.0194-.0029-.1008-.0022-.2636-.0007-.0247,0-.0657-.0178-.1049.002a.1048.1048,0,0,0-.0272.02c.0052-.015.006-.0236.0025-.0261-.0058-.0041-.0236.0089-.0531.0388a.0509.0509,0,0,1-.0113-.0359.06.06,0,0,1,.025-.0388c.01-.0078.0132-.0061.0207-.0133a.0713.0713,0,0,0,.0162-.0349c.01-.0286.0426-.0422.0841-.0595a.3446.3446,0,0,1,.0585-.0187C4.2076,3.6285,4.2827,3.5768,4.43,3.3949Z" fill="#ffc80a"/><path d="M4.0867,3.7125a.0151.0151,0,1,0,.015.0151A.0151.0151,0,0,0,4.0867,3.7125Zm-.0013.0228a.01.01,0,1,1,.01-.01A.01.01,0,0,1,4.0854,3.7353Z" fill="#ffc80a"/><circle cx="4.0854" cy="3.7252" r="0.0026" fill="#ffc80a"/><path d="M4.1857,3.9549c-.0066-.0093.0013-.0251.0039-.03A.1273.1273,0,0,1,4.2605,3.87a.4466.4466,0,0,1,.1009-.0289c.1105-.0144.1571.0056.2954-.0039A.308.308,0,0,0,4.7142,3.83c.09-.0256.0923-.1048.1662-.1441a.638.638,0,0,1,.2168.0025c.1591.0125.1819.0226.186.0378.0059.0223-.029.0527-.0588.0645a.11.11,0,0,1-.1122-.022c-.0035.02-.0075.0362-.0108.0482-.0052.0193-.008.0252-.0134.03a.0482.0482,0,0,1-.0347.01.0944.0944,0,0,1-.067-.0383.2609.2609,0,0,1-.0226.0472c-.0161.0266-.0273.045-.0418.0449S4.89,3.89,4.8821,3.86a.2.2,0,0,1-.03.0472c-.0159.0183-.0267.0307-.0413.0315-.0195.001-.04-.0189-.0515-.0476a.12.12,0,0,1-.0223.0387c-.0107.0124-.0265.0307-.0439.0289S4.6572,3.9325,4.6539,3.9l-.02.0246c-.0346.0435-.0426.0544-.0536.0535s-.017-.0112-.0221-.0191a.077.077,0,0,1-.0079-.06l-.0256.0236c-.0543.05-.0625.0591-.0711.057-.02-.0051-.0212-.0632-.0213-.0815-.0328.0561-.0691.0864-.0879.0785-.02-.0085-.017-.0609-.0164-.07a.3145.3145,0,0,1-.122.0554A.0254.0254,0,0,1,4.1857,3.9549Z" fill="#ffc80a"/></svg>