<svg xmlns="http://www.w3.org/2000/svg" viewBox="0 0 7.9818 5.1882"><rect y="4.0352" width="7.9818" height="0.5765" fill="#fff"/><rect y="4.6117" width="7.9818" height="0.5765" fill="#0f55b4"/><polygon points="1.719 2.882 1.719 2.872 1.719 2.306 1.719 1.729 2.872 1.729 2.872 1.153 1.719 1.153 1.719 0.576 1.719 0 1.153 0 1.153 0.576 1.153 1.153 0 1.153 0 1.729 1.153 1.729 1.153 2.306 1.153 2.872 1.153 2.882 0 2.882 0 3.459 7.982 3.459 7.982 2.882 2.872 2.882 1.719 2.882" fill="#fff"/><rect y="3.4588" width="7.9818" height="0.5764" fill="#0f55b4"/><rect x="2.872" y="1.7294" width="5.1098" height="0.5764" fill="#fff"/><rect x="2.872" y="1.1529" width="5.1098" height="0.5765" fill="#0f55b4"/><rect x="2.872" y="0.5764" width="5.1098" height="0.5765" fill="#fff"/><polygon points="2.872 0 1.719 0 1.719 0.576 1.719 1.153 2.872 1.153 2.872 0.576 7.982 0.576 7.982 0 2.872 0" fill="#0f55b4"/><polygon points="1.153 0.576 1.153 0 0 0 0 0.576 0 1.153 1.153 1.153 1.153 0.576" fill="#0f55b4"/><polygon points="2.872 1.729 1.719 1.729 1.719 2.306 1.719 2.872 1.719 2.882 2.872 2.882 7.982 2.882 7.982 2.306 2.872 2.306 2.872 1.729" fill="#0f55b4"/><polygon points="1.153 2.872 1.153 2.306 1.153 1.729 0 1.729 0 2.306 0 2.872 0 2.882 1.153 2.882 1.153 2.872" fill="#0f55b4"/></svg>