<svg xmlns="http://www.w3.org/2000/svg" viewBox="0 0 7.9819 5.1882"><polygon points="3.465 2.594 2.425 3.372 7.982 3.372 7.982 1.816 2.425 1.816 3.465 2.594" fill="#dc141e"/><polygon points="0 5.188 7.982 5.188 7.982 3.632 2.079 3.632 0 5.188" fill="#0a8c2d"/><polygon points="0 0 2.079 1.557 7.982 1.557 7.982 0 0 0"/><polygon points="2.425 1.816 7.982 1.816 7.982 1.557 2.079 1.557 2.425 1.816" fill="#fff"/><polygon points="2.079 3.632 7.982 3.632 7.982 3.372 2.425 3.372 2.079 3.632" fill="#fff"/><path d="M2.4252,1.816l-.3463-.2594L0,0V5.1882L2.0789,3.6316l.3463-.2593,1.0393-.7782Z" fill="#0f46af"/><polygon points="0.94 3.373 0.941 3.372 1.289 2.893 1.853 3.076 1.504 2.596 1.853 2.116 1.289 2.299 0.94 1.819 0.94 2.413 0.376 2.596 0.94 2.78 0.94 3.372 0.94 3.373" fill="#fadc0a"/></svg>