<svg xmlns="http://www.w3.org/2000/svg" viewBox="0 0 7.9818 5.1882"><rect y="3.4588" width="7.9818" height="1.7294" fill="#06c"/><path d="M0,3.4588H7.9818V1.7294H0ZM5.3657,2.0535l.0648-.2.0649.2h.21l-.17.1234.0649.2-.17-.1233-.17.1233.0649-.2-.17-.1234Zm0,.9578.0648-.2.0649.2h.21l-.17.1234.0649.2-.17-.1234-.17.1234.0649-.2-.17-.1234Zm-1.44-.4789.0649-.2.0649.2h.21l-.17.1234.0648.2-.17-.1234-.17.1234.0649-.2-.17-.1234Zm-1.44-.4789.0648-.2.0649.2h.21l-.17.1234.0649.2-.17-.1233-.17.1233.0649-.2-.17-.1234Zm0,.9578.0648-.2.0649.2h.21l-.17.1234.0649.2-.17-.1234-.17.1234.0649-.2-.17-.1234Z" fill="#fff"/><rect width="7.9818" height="1.7294" fill="#06c"/><polygon points="3.821 2.855 3.991 2.732 4.161 2.855 4.096 2.656 4.266 2.532 4.056 2.532 3.991 2.333 3.926 2.532 3.716 2.532 3.886 2.656 3.821 2.855" fill="#06c"/><polygon points="2.381 2.377 2.551 2.253 2.721 2.377 2.656 2.177 2.826 2.053 2.616 2.053 2.551 1.854 2.486 2.053 2.276 2.053 2.446 2.177 2.381 2.377" fill="#06c"/><polygon points="2.381 3.334 2.551 3.211 2.721 3.334 2.656 3.135 2.826 3.011 2.616 3.011 2.551 2.812 2.486 3.011 2.276 3.011 2.446 3.135 2.381 3.334" fill="#06c"/><polygon points="5.261 2.377 5.43 2.253 5.6 2.377 5.535 2.177 5.705 2.053 5.495 2.053 5.43 1.854 5.366 2.053 5.156 2.053 5.326 2.177 5.261 2.377" fill="#06c"/><polygon points="5.261 3.334 5.43 3.211 5.6 3.334 5.535 3.135 5.705 3.011 5.495 3.011 5.43 2.812 5.366 3.011 5.156 3.011 5.326 3.135 5.261 3.334" fill="#06c"/></svg>