<svg xmlns="http://www.w3.org/2000/svg" viewBox="0 0 7.9821 5.1884"><rect y="1.7295" width="7.9821" height="1.7294" fill="#fff"/><rect width="7.9821" height="1.7295" fill="#d03023"/><path d="M3.991,3.2357A.6416.6416,0,1,0,3.35,2.5942.6423.6423,0,0,0,3.991,3.2357Zm0-1.1979a.5563.5563,0,1,1-.5562.5564A.5571.5571,0,0,1,3.991,2.0378Z" fill="#fff"/><rect y="3.4589" width="7.9821" height="1.7295" fill="#063da4"/><path d="M3.991,3.15a.5563.5563,0,1,0-.5562-.5562A.5569.5569,0,0,0,3.991,3.15Zm0-1.1a.5434.5434,0,1,1-.5433.5435A.5442.5442,0,0,1,3.991,2.0507Z"/><path d="M3.991,2.1768a.4174.4174,0,1,0,.4174.4174A.4179.4179,0,0,0,3.991,2.1768Zm0,.8219a.4045.4045,0,1,1,.4045-.4045A.4049.4049,0,0,1,3.991,2.9987Z"/><path d="M3.991,3.2659a.6717.6717,0,1,0-.6717-.6717A.6724.6724,0,0,0,3.991,3.2659Zm0-1.3134a.6416.6416,0,1,1-.6415.6417A.6423.6423,0,0,1,3.991,1.9525Z"/><path d="M3.8964,2.9163l-.0154.0019,0,.0008.01.0021a.0545.0545,0,0,0,.0238,0L3.918,2.92l-.0075-.0022A.0533.0533,0,0,0,3.8964,2.9163Z" fill="#060"/><path d="M4.0792,2.9177l-.0029.0032,0,0,.0047.0024a.0352.0352,0,0,0,.0257.0006L4.1133,2.92l-.0059-.0052a.0379.0379,0,0,0-.0145-.0012A.0248.0248,0,0,0,4.0792,2.9177Z" fill="#060"/><path d="M4.0649,2.5108,4.07,2.5037l0-.0024-.006,0H4.06l-.0054-.0008-.0016.0067-.0051.007L4.04,2.52l.0023.0023.0039,0,.0116-.0042,0,0Z" fill="#eac102"/><path d="M4.06,2.5369l.0011-.0063.0029-.01-.004.0006-.0134.0049,0,.02.0014.0176.0015.0066.0047-.0052.005-.0071a.1172.1172,0,0,1,0-.0145L4.06,2.537Z" fill="#eac102"/><path d="M4.0694,2.5785l.0071-.0054a.06.06,0,0,1,.0007-.014l.0022-.01a.0676.0676,0,0,1,0-.0119l.0025-.0107-.0129.0077-.0056.0038-.0006.0063a.1137.1137,0,0,0,0,.0143l.0035.0117Z" fill="#eac102"/><path d="M3.7879,2.8971,3.7868,2.91v0l.0007.0084.0041.0039a.0223.0223,0,0,0,.0128.0028l.0111,0,.0143,0a.1088.1088,0,0,1,.0249,0l.021.0064.02.0083.0036.0022h0l0-.0063.0043-.0043h0l.0057.0015.0037.0024,0-.0015L3.9088,2.93l-.0056-.0046-.0088-.0032L3.893,2.92l.0021-.0014.01.0036.0064.0053.0028.0037,0-.0048.0044-.0044h0l.0056.0014.0021.0013-.003-.0038-.0049-.0031-.0072-.0041-.0008-.0025L3.9134,2.91l.0072.004.0055.0036.0033.0038L3.93,2.9187l.0042-.0042h0l.0057.0013,0,0-.0024-.0035L3.93,2.9065l-.0118-.0059-.0112-.0018-.0044,0-.0111-.0013a.0961.0961,0,0,1-.0376.0074l-.01,0a.0733.0733,0,0,1-.0366-.0093.0585.0585,0,0,1-.0147-.0124l-.0033.0083Z" fill="#eac102"/><path d="M4.1819,2.472l-.0055-.0068-.0026-.0033-.0049-.0027-.007-.0024a.0425.0425,0,0,0-.0129-.0011l.0021.0019.0028.0024.0033.0031.0056.0069.0029.006.0065-.0027Z" fill="#eac102"/><path d="M4.1057,2.4705l.0058.0005.01.0031.0028.0021.0048.0036.002.0012.0079-.0016L4.142,2.476l-.0094-.009-.0082-.0052L4.1226,2.461l-.0008,0-.02.0032H4.1006L4.09,2.4662l-.0032.0024L4.093,2.47l.0075.0006Z" fill="#eac102"/><path d="M4.1575,2.4749l.0043.0036.0007,0L4.16,2.4719l-.005-.0061-.0031-.003L4.1485,2.46l-.0049-.0045L4.14,2.4537l-.0106-.0024a.0367.0367,0,0,0-.0139.0014l.0047.0035.003.0012.0029.001.0091.0057.01.01h0A.0147.0147,0,0,1,4.1575,2.4749Z" fill="#eac102"/><path d="M4.0159,2.3357l-.0086.002v.05a.1334.1334,0,0,0,.0315-.0183.0424.0424,0,0,0,.0164-.0207l.0015-.0112A.0955.0955,0,0,0,4.0159,2.3357Z" fill="#d52b1e"/><path d="M4.1427,2.5871l-.0022.0074-.0028.0086a.1467.1467,0,0,1,.0008.0174l-.0009.017a.1078.1078,0,0,0,0,.02l.001.0086.0031-.0037.007-.0062V2.6513a.1138.1138,0,0,1,.0029-.0251.0419.0419,0,0,1-.0017-.0328l.0052-.0085-.0058-.01Z" fill="#eac102"/><path d="M3.9838,2.3419,3.9875,2.34V2.3337h.0163l.0111-.0029a.1006.1006,0,0,1,.0412.0011.05.05,0,0,0-.0067-.0178l-.0042-.0065a.2107.2107,0,0,0-.0422.0048.113.113,0,0,0-.0371.0137l-.0141.01L3.95,2.3371l-.0013,0,0-.0039.0148-.0111a.1165.1165,0,0,1,.0388-.0141.2016.2016,0,0,1,.04-.0049.1671.1671,0,0,0-.0177-.02.0315.0315,0,0,1-.0172-.0012.0342.0342,0,0,1-.0139-.0083V2.27h.0035a.0287.0287,0,0,0,.012.0071.0238.0238,0,0,0,.0173,0c.0127-.0061.0109-.029.0109-.029a.0409.0409,0,0,0-.0122-.0255.0486.0486,0,0,0-.0393-.0107.0675.0675,0,0,0-.0313.0128.0868.0868,0,0,0-.0263.0273.0843.0843,0,0,0-.0108.0314.0926.0926,0,0,0,.01.0558l0,.0007V2.34l-.0012.027c0,.0044,0,.0079,0,.0107l.0078-.0072A.1849.1849,0,0,1,3.9838,2.3419Z" fill="#d52b1e"/><path d="M3.9859,2.3464a.1777.1777,0,0,0-.0483.0281l-.0105.01.002.0052c.005.0073.016.0082.0247.0089a.099.099,0,0,0,.0337-.0044V2.3456Z" fill="#d52b1e"/><path d="M4.04,2.5958a.09.09,0,0,0,0,.0187.0956.0956,0,0,0,.0055.0229l.0008-.0007.0034-.01.0013-.0137h0L4.054,2.6l.0029-.0147.0039-.0206,0,0-.0035.0043L4.05,2.5753l-.0039.0126Z" fill="#eac102"/><polygon points="4.016 2.606 4.015 2.606 4.007 2.604 4.007 2.612 4.016 2.606" fill="#eac102"/><path d="M4.0307,2.5981a.0315.0315,0,0,0,.0126-.0119l.0035-.0116-.0024-.0093L4.0429,2.547a.1011.1011,0,0,0-.011.0214L4.0313,2.57l-.0051.0121a.0366.0366,0,0,1-.0141.0149l-.0048.0019V2.6l.0081.0021A.0291.0291,0,0,0,4.0307,2.5981Z" fill="#eac102"/><path d="M4.1122,2.6705l-.0013.0146v.0032L4.1188,2.7l.0108.0091.0011-.0129q0-.0068,0-.0135l-.001.0008-.0011.0005H4.1276l-.0013-.0014-.0044-.0157-.0073-.0093Z" fill="#eac102"/><path d="M4.125,2.5036a.0235.0235,0,0,1,.0027.0131l-.0026.009.0007.0032L4.13,2.5265l.0024-.0033,0-.0061v0a.0237.0237,0,0,1,.0045-.0162l-.001-.002a.02.02,0,0,1,0-.0138l-.0029,0-.001,0-.0032.01Z" fill="#eac102"/><path d="M3.96,2.7645l-.0053-.0129-.001-.0022a.225.225,0,0,0-.0357-.0533c-.005-.0059-.0169-.0171-.0406-.04,0,0-.0107-.01-.0272-.0283l-.01-.0129a.1164.1164,0,0,1-.0118-.0261A.1089.1089,0,0,1,3.8193,2.56c0-.0081,0-.0221.0082-.0254h.01l.0032.0018.0026.0014.0078,0,.0019-.0062c0-.0075-.0087-.0141-.0166-.0162a.0261.0261,0,0,0-.0227.0061.0325.0325,0,0,0-.0109.0157.0512.0512,0,0,0-.0012.0174l.0013.02a.13.13,0,0,0,.0278.0567l.0085.0089.02.0191.0346.0372a.38.38,0,0,1,.0347.04.0829.0829,0,0,1,.0144.0316l.0016.0139h0a.08.08,0,0,1-.0212.0566.101.101,0,0,1-.0417.0313.0756.0756,0,0,1-.03.0066H3.85a.0516.0516,0,0,1-.0317-.0094.0476.0476,0,0,1-.0147-.0186l.0009-.0025.0025.0009a.0431.0431,0,0,0,.0135.0173.049.049,0,0,0,.03.0086.0724.0724,0,0,0,.03-.0062.1011.1011,0,0,0,.04-.03.07.07,0,0,0,.0188-.0624.0525.0525,0,0,0-.0074-.0175.051.051,0,0,0-.026-.021.0489.0489,0,0,0-.0332,0,.0518.0518,0,0,0-.0174.0112.04.04,0,0,0-.0124.0147l-.0006.0015-.0041.0059c-.0033.0016-.0077,0-.0134-.0041l0-.0026.0026,0,.01.0036.0022-.0037L3.8393,2.76a.0427.0427,0,0,1,.0133-.0161.0573.0573,0,0,1,.0185-.0119.0536.0536,0,0,1,.0357,0,.0549.0549,0,0,1,.0271.0215l-.0086-.0148a.3678.3678,0,0,0-.0345-.04l-.0217-.0235-.0154.0109-.0081.01L3.8424,2.7a.0784.0784,0,0,1-.0145.0145l-.0113.01a.1411.1411,0,0,0-.0189.0253.1289.1289,0,0,0-.0228.0519.1029.1029,0,0,0,.005.05.0719.0719,0,0,0,.0286.04.0748.0748,0,0,0,.0352.0087.0961.0961,0,0,0,.0477-.0075.104.104,0,0,0,.0327-.0253l.0015-.0014a.1115.1115,0,0,0,.03-.0415.101.101,0,0,0,.0064-.0338A.0815.0815,0,0,0,3.96,2.7645Z" fill="#eac102"/><path d="M4.135,2.541,4.1337,2.54l-.0009-.0046-.0009-.0055-.0055.0033a.0433.0433,0,0,1-.0009.0145.1008.1008,0,0,1,.0005.0165l0,.0052.0075-.0057.0056-.0059,0-.0007a.0392.0392,0,0,1-.0021-.0159l-.0009,0Z" fill="#eac102"/><path d="M4.1358,2.516l0,.0086-.0005.0009.0014.0088v0l.0018-.0017,0-.0014L4.14,2.5291l.0026-.004a.0231.0231,0,0,0,.0022-.0158l-.0037-.0044L4.14,2.504A.0153.0153,0,0,0,4.1358,2.516Z" fill="#eac102"/><path d="M4.1206,2.6183v0l-.0029.0033-.0008.0005H4.116l-.0011-.0006L4.1143,2.62a.0237.0237,0,0,0-.0051.0187.04.04,0,0,0,.0067.0146l.0039.0057a.0769.0769,0,0,1-.0029-.0267l.002-.01h0v0Z" fill="#eac102"/><path d="M4.133,2.6155l-.0013.004-.01.0048-.0017.008a.0825.0825,0,0,0,.0043.0309l.0042.0156.005-.0074,0-.006h0l-.0008-.0075a.1049.1049,0,0,1,.0005-.0206L4.1349,2.62l0-.01-.0011.0035Z" fill="#eac102"/><path d="M4.1356,2.566l-.0105.0075a.0737.0737,0,0,0-.0011.0139l.0007.01,0,.0086a.026.026,0,0,1-.001.0133l0,.0005.0045-.0026.001-.0026,0-.0022.003-.0076.0012-.0024.0028-.009.0024-.0078.0073-.0141-.0006-.0009L4.14,2.561Z" fill="#eac102"/><path d="M4.1048,2.4952l0,.0015a.0378.0378,0,0,0-.0009.0139l.0017.0062.0034-.0023,0-.0081A.0663.0663,0,0,1,4.12,2.4778l-.0008-.0006-.0082-.0025-.0045,0A.0833.0833,0,0,1,4.1048,2.4952Z" fill="#eac102"/><path d="M4.0807,2.585l.0079-.006.0031-.0055V2.5682l0-.002,0-.0063,0-.0037L4.09,2.543l-.0071.0075L4.0807,2.56a.0612.0612,0,0,0-.0005.0142h0Z" fill="#eac102"/><path d="M4.0577,2.6l-.0027.0128.0028.0137.001.0041.0019-.0046L4.07,2.6087h0l.0009-.0015.0033-.0044.0046-.0081.001-.0052,0,0h0l-.0011,0-.0008-.0015-.0005-.01L4.07,2.5829l-.0011,0h0l-.001-.0006L4.063,2.5718l-.0024.0137Z" fill="#eac102"/><path d="M4.083,2.5454,4.096,2.53l.0065-.01L4.1,2.5111V2.51a.051.051,0,0,1-.0127.0143l-.0039.0141Z" fill="#eac102"/><path d="M4.1123,2.5123l.0071-.006.0059-.0132.003-.0092-.0009-.0005L4.1229,2.48a.0632.0632,0,0,0-.01.0266Z" fill="#eac102"/><path d="M3.9684,2.9007,3.9662,2.9H3.9656l-.0019.0022v.0026l.0012.0005.0025.0008.01.0072-.0017-.0053Z" fill="#fff"/><path d="M4.14,2.67l0,.012.0013.0087.001.0058.0008.0111.0019-.0033a.0721.0721,0,0,0,.0069-.0261L4.15,2.67,4.1485,2.66l-.0046.0043Z" fill="#eac102"/><path d="M4.1013,2.4944a.0883.0883,0,0,0,.0014-.02H4.1l-.0045,0-.006.02-.0024.01-.0006.005.0053-.003L4.1,2.5l.0009-.0044Z" fill="#eac102"/><path d="M4.0735,2.5039l0,.0073V2.514l.0023-.002.0074-.01.0024-.01.0052-.0168-.003.003-.0119.0141L4.0729,2.5l.0005.004Z" fill="#eac102"/><path d="M3.873,2.5838l.0007.0055,0,.0024.0017-.0006c.0018-.0014.0037-.0045.0048-.0179a.0542.0542,0,0,0,0-.0137.03.03,0,0,0-.0064-.012.0307.0307,0,0,0-.0186-.01l0,.0006.0062.0114.0018.0169.0035.004A.0315.0315,0,0,1,3.873,2.5838Z" fill="#eac102"/><path d="M3.8694,2.5846l-.0055-.0117-.0005-.0006a.0772.0772,0,0,1,0,.0169l-.0037.0126.0052.0054.0056.0051.0036.0041.0021.01v.0024L3.88,2.6267l.0019-.0055-.0036-.0063L3.876,2.6091l-.0021-.0044,0-.0008-.0022-.006,0-.0034L3.87,2.59Z" fill="#eac102"/><polygon points="4.156 2.685 4.156 2.685 4.156 2.684 4.156 2.685" fill="#eac102"/><path d="M3.8841,2.5587a.0474.0474,0,0,1,0,.0148l0,.0018a.0252.0252,0,0,1,.01.01l.0018.0044h0l.0009-.0045-.0023-.0107L3.892,2.5681l-.0026-.01-.0021-.0072a.0357.0357,0,0,0-.0088-.0121.029.029,0,0,0-.0143-.0077H3.8568v.0032a.034.034,0,0,1,.02.0109A.0347.0347,0,0,1,3.8841,2.5587Z" fill="#eac102"/><path d="M3.8779,2.594l-.0029.0015v.0014l.0019.0052,0,.0009.0023.0048.0022.0054.0038.0063a.0306.0306,0,0,0,.0119.0093c.006.0031.01.005.0142.0038l.0058-.0034-.0027,0a.0241.0241,0,0,1-.0128-.0046l-.0064-.0086a.0331.0331,0,0,1-.0019-.0216l-.0012-.0029-.0016-.0037-.0073-.008C3.8823,2.5888,3.8806,2.592,3.8779,2.594Z" fill="#eac102"/><path d="M3.8473,2.5764a.0532.0532,0,0,0,.0078.0252l0-.0006,0,0h0l.0035-.012a.0821.0821,0,0,0,0-.0174l-.0017-.02-.0058-.01-.0055.0008A.1208.1208,0,0,0,3.8473,2.5764Z" fill="#eac102"/><path d="M4.1611,2.6331l-.0028.0027-.001,0-.0015-.0008-.0022-.0035a.0928.0928,0,0,0-.0017.02l.0018.0175.0043.0117L4.16,2.6776l.0054-.0126-.0018-.0207Z" fill="#eac102"/><path d="M4.1767,2.5627l-.0039.0059.0048.0007.0132.0065.0078.008L4.204,2.59c.01.0111.0123.0123.014.0126A.0155.0155,0,0,0,4.23,2.599a.02.02,0,0,0,.0053-.0178l-.0038.0041-.0072.0041a.0158.0158,0,0,1-.0124-.0042l-.0073-.0078-.0009-.0011-.0082-.01-.0127-.0092Z" fill="#d52b1e"/><path d="M4.1441,2.714a.0427.0427,0,0,0,0,.0233.0588.0588,0,0,0,.0094.0152l.0143.0167-.0006-.0021-.0035-.01A.0535.0535,0,0,1,4.1625,2.73a.0449.0449,0,0,1-.0083-.0181.046.046,0,0,1-.0008-.0175l-.0043.0114Z" fill="#eac102"/><polygon points="4.237 2.53 4.241 2.535 4.248 2.538 4.246 2.531 4.241 2.528 4.238 2.527 4.237 2.527 4.237 2.53"/><path d="M4.1857,2.4761a.0292.0292,0,0,0-.0126.0006l-.01.006-.0016,0L4.16,2.4823l-.004-.0041a.0109.0109,0,0,0-.0091-.0006l-.0053.0043h0l-.0008.0011a.0159.0159,0,0,0-.0014.014l.0041.0048.0051.0062a.0251.0251,0,0,1-.0024.0185l-.0023.004-.0015.0026a.03.03,0,0,0,0,.022l.0072.0137.0093.0151,0,.0008h0l0,.0143.0073-.0038.0009,0,.0007,0,.0009.0013.0025.0088a.0321.0321,0,0,0,.01.0183.011.011,0,0,0,.0105.0023L4.1967,2.62l-.0039-.01-.0046-.0052-.0043-.0042-.01-.0128a.0251.0251,0,0,1-.0057-.0151l0-.0022h0V2.57l.0056-.01.0068-.0067,0,0,.005-.0027.0056-.0012.0044-.0006.0128-.0046L4.2108,2.54l.0084-.0072.0024.001-.001.0024-.0063.0053-.0018.0044v0l0,.0055.0075.0074.0081.0034.0109-.0061L4.246,2.55l.0019-.0089L4.24,2.538l-.0062-.0067,0-.0043-.0076-.0059-.0036-.0036-.0042-.0039L4.212,2.5069l-.0015-.0051L4.21,2.4968l-.0057-.0135a.0244.0244,0,0,0-.0154-.0067l-.0028,0ZM4.1572,2.49l-.0032.0032-.0012.0083-.0014.0022h0l-.0019-.0015a.0146.0146,0,0,1,.0018-.0109l.0027-.0033L4.15,2.4863l-.0028.001-.0027,0,0-.0026L4.15,2.4826l.0076.0054Zm.0382-.0033.0058.002.0041.0048,0,.0055-.0018.0038-.0033,0-.0032,0H4.1957l.0008.0055-.0008.0049,0,.0028.003,0,.0033.0024-.0027.0024-.0122-.0031L4.173,2.5112l-.002-.0037.0034-.0036.0062-.0026.0074-.0008.0041,0,.0056-.0025V2.4952l-.0045-.0016-.0089-.0013L4.182,2.49l.0018-.0023A.0157.0157,0,0,1,4.1954,2.4871Z" fill="#eac102"/><path d="M4.1683,2.6668l-.005.0119.0052.0307.002.0139.0044-.0052.0031-.0127.001-.0079.0021-.0119L4.18,2.6833l-.0032-.012L4.175,2.6632l0,0Z" fill="#eac102"/><path d="M4.1578,2.6316,4.1592,2.63,4.16,2.6249V2.6235l.0016-.0112.0054-.0087L4.1659,2.6l-.0077.0042H4.1563l-.0009-.0015,0-.012-.0024.0045A.0428.0428,0,0,0,4.1578,2.6316Z" fill="#eac102"/><path d="M4.1781,2.66l.0018.0108.0029.0108.0006.001a.0427.0427,0,0,1,.0041-.0217l.0008-.0014L4.1912,2.65l-.0026-.0125-.0014-.0053L4.1829,2.65Z" fill="#eac102"/><path d="M4.1638,2.6235v.0036l.0033.0168.0017.0189L4.1724,2.66l.007-.0117.0047-.0194L4.18,2.6269a.0334.0334,0,0,1-.0113-.0191l-.0029.0057Z" fill="#eac102"/><path d="M4.1111,2.9045l-.01-.0055L4.09,2.8939,4.0773,2.89,4.07,2.8859l0-.0024,0-.0066-.0014-.0136c-.0008-.015,0-.0344,0-.04.0006-.0092.0014-.0217.0038-.0385l.0056-.028,0-.0023-.001.0008-.0016.0009-.0011,0-.0007-.0021.0029-.0169L4.0725,2.72,4.0719,2.72l-.0113.0088-.0011,0-.0009,0-.001-.0011a.1218.1218,0,0,0,.0012-.0287l-.0017-.0115-.0177.0152-.001,0-.0013-.0005,0-.0022a.1161.1161,0,0,0,.0146-.04l.0013-.0124-.01.0034-.0084.002h0l-.0014,0V2.65l.0038-.0043.0047-.01-.0046-.0205a.0951.0951,0,0,1,0-.016l-.0041.0024-.0107.0039-.0008.0013-.0136.01v.1572l.001-.0123.0028-.019.0021-.0014.0016.0011-.0028.02a.0749.0749,0,0,0,0,.0237l.0026.0071.0037.01.0014.0082.0016.01h0l.0022.012v.0011l-.0047.0116.0055,0,.0017.001v.0017l-.0053.01h.0042l.0016.0007,0,.0018-.0052.0121.0059.0007.0011.0005,0,.0022-.0049.01.0061,0,.0013.0005.0006.0012L4.0308,2.91a.0211.0211,0,0,0,.0018.0122l.0048.0047.0035,0h.0033l.0135.0024.0089.0032.0037.0023.0028.0016.0023.0006-.0015-.0016V2.93l.0042-.0043h0l.0057.0013.0045.0034V2.93L4.0835,2.924,4.076,2.9191,4.07,2.9166l-.0011-.0023.0024-.0013.0067.0029.0083.0052.0038.0035L4.09,2.9215l.0042-.0043h0L4.1,2.9186l.0027.0016-.002-.0034L4.09,2.91l-.0044-.0023L4.0847,2.905l.0025-.0009.0045.0024.0119.008.0008.0009,0-.0018.0043-.0043.0057.0013.0029.0019Z" fill="#eac102"/><path d="M4.0712,2.8631l.0013.0133.0005.0071v.001l.0045.0017.0138.0041.0118.0054.01.006.0078.0094.0009.003h.0045l-.0013,0-.0038-.0023,0-.006.0043-.0042h0l.0057.0013.0032.0021L4.1307,2.9l-.005-.0039-.0081-.0034L4.1162,2.89l.0024-.0014.009.004.0057.0043.0031.0039.0006-.0029.0044-.0042h0l.0056.0012h0l-.0013-.0019-.0078-.0061L4.13,2.8823,4.1268,2.88,4.12,2.8783l-.0056-.001L4.103,2.871,4.1024,2.87l-.0018-.0231A.3138.3138,0,0,1,4.1,2.8076L4.1005,2.8l0,0a.1121.1121,0,0,1-.0226.01l-.0051.0014-.0009.0118C4.0713,2.829,4.07,2.8483,4.0712,2.8631Z" fill="#eac102"/><polygon points="3.967 2.91 3.966 2.909 3.964 2.909 3.962 2.908 3.962 2.908 3.967 2.91" fill="#eac102"/><path d="M3.9285,2.9352l.0031.0034L3.93,2.9334l-.0073-.007L3.92,2.9252l-.0023.0021,0,.0024.0014.0009.0026.0007.0061.0036Z" fill="#fff"/><polygon points="3.916 2.934 3.918 2.934 3.918 2.934 3.915 2.932 3.915 2.933 3.916 2.934" fill="#eac102"/><path d="M3.9154,2.9486l-.0017-.0053-.0071-.007-.0023-.0011-.0024.0022V2.94l.0012,0,.0025.0009.0035.0017h0Z" fill="#fff"/><path d="M4.1147,2.76l-.0021-.0149-.0013.001-.0038.002-.0145.0157-.01.0149-.001.0008h-.001L4.08,2.7775l-.0007-.01h0l-.0032.0175-.0027.0224.0038-.001a.1048.1048,0,0,0,.0219-.01L4.1117,2.79l.0074-.0036V2.7793Z" fill="#eac102"/><path d="M4.0145,2.8032l-.0034-.0093-.0029-.0081-.0009-.0067v.0414l.01-.0012-.0013-.0082Z" fill="#eac102"/><path d="M3.907,2.895l.012.002.0123.0062L3.94,2.91l.004.0057.0039.0009.001,0-.0005,0-.0034-.0021,0-.006L3.95,2.9042h0l.0055.0014.0029.0018L3.95,2.9005l-.005-.0029L3.94,2.895l-.0014-.0013.0029-.002.0053.0027.0055.003.0072.006L3.96,2.9l.0042-.0044H3.967l-.0084-.0074a.0561.0561,0,0,0-.0171-.0078.0741.0741,0,0,0-.022-.0032.0934.0934,0,0,1-.0221.0164l.0052.0006Z" fill="#eac102"/><path d="M3.9585,2.9176l.0036.0035-.0016-.0053-.0072-.0069-.0024-.0012L3.9486,2.91l0,.0022.0014.0009.0026.0008.0059.0034Z" fill="#fff"/><polygon points="3.932 2.927 3.931 2.926 3.931 2.927 3.932 2.927" fill="#eac102"/><path d="M4.1394,2.6966l-.001-.0056L4.137,2.682l0-.0073-.0026.0044a.1353.1353,0,0,1,0,.0169l-.0016.0163,0,.001-.0013,0H4.13l-.0021-.0011L4.1271,2.72l-.0016.0029.0067.0114.0038.0091,0,.0009.0021.0059L4.14,2.7476l.0033-.0043-.0022-.0048a.0434.0434,0,0,1-.0006-.0248h0Z" fill="#eac102"/><path d="M4.14,2.7568l-.0018.0011h0L4.136,2.7565l-.0008-.0034,0,.0026v.0065a.0332.0332,0,0,0,.0054.0147l.01.0138,0-.0064a.0329.0329,0,0,1,.01-.0177l-.01-.0119-.0058-.008L4.1432,2.75Z" fill="#eac102"/><path d="M4.123,2.7262l-.0021.0031-.0017.0042L4.1163,2.74l0,.0005.0024.0186.0037.0171.0039-.0039.0053-.01V2.7556l.0013-.0106-.0037-.0087Z" fill="#eac102"/><path d="M4.1229,2.78v.0073h0l0,.0092-.0013.011.0106-.0122.0075-.0138-.002-.0029-.0046-.01-.0038.0057Z" fill="#eac102"/><path d="M3.9421,2.9269l.0046.0043-.0015-.0051L3.938,2.919l-.0024-.0011L3.9333,2.92l0,.0024.0014.0008.0027.0009.0045.0024Z" fill="#fff"/><path d="M4.1007,2.7207l-.0009,0h0l-.0029.0076a.0711.0711,0,0,1-.0166.0229l.0008.0049v0l.0015.011,0,.004.0071-.01.0145-.0158-.0011-.0144L4.1022,2.722,4.1015,2.72Z" fill="#eac102"/><path d="M4.1174,2.9219l.0044.0043L4.12,2.9208,4.113,2.9139l-.0022-.0011H4.11l-.0019.0022v.0027l.0012.0005.0025.0007.005.0026Z" fill="#fff"/><path d="M4.1382,2.9179l-.0016-.0053-.0072-.007L4.127,2.9044l-.0022.0023,0,.0028.0012,0,.0025.0008.0051.0027.0006,0Z" fill="#fff"/><path d="M4.1072,2.9341l-.0017-.0054-.0071-.0069-.0025-.0012-.0021.0023,0,.0028.0011,0,.0026.0007.004.002h0Z" fill="#fff"/><polygon points="4.108 2.922 4.107 2.921 4.107 2.922 4.108 2.922" fill="#eac102"/><path d="M4.1578,2.7106a.04.04,0,0,0,.01.02l.0123.0085L4.179,2.7332l-.003-.01L4.17,2.7283l-.0007,0-.0011,0-.0009-.0008L4.1649,2.71,4.16,2.6835,4.16,2.6849A.0452.0452,0,0,0,4.1578,2.7106Z" fill="#eac102"/><path d="M4.1482,2.9055l.0058.0051-.0017-.0052-.0072-.007-.0023-.0011L4.1405,2.9l0,.0023.0014.0008.0025.0008.0039.002Z" fill="#fff"/><polygon points="4.141 2.907 4.142 2.907 4.141 2.906 4.14 2.906 4.14 2.907 4.141 2.907" fill="#eac102"/><path d="M4.0685,2.48l.0048-.0074.0055-.0081a.0328.0328,0,0,0-.0161.013l-.0043.0113-.0008.0036.0065-.0063Z" fill="#eac102"/><polygon points="4.092 2.929 4.092 2.929 4.092 2.929 4.092 2.929" fill="#eac102"/><path d="M4.1111,2.4534l-.0069-.0008a.0249.0249,0,0,0-.0123.0039.0514.0514,0,0,0-.0156.018l-.0047.0074-.0046.0065-.01.0092.0035,0,.0094,0,.0036-.0067.0124-.0148.0032-.0033-.006-.0011-.0014-.0011,0-.0018.0062-.0058A.025.025,0,0,1,4.1005,2.46h.0009l.0153-.0019Z" fill="#eac102"/><polygon points="4.07 2.51 4.068 2.513 4.064 2.517 4.067 2.516 4.07 2.515 4.07 2.511 4.07 2.51" fill="#eac102"/><path d="M4.0907,2.9426,4.089,2.9372,4.0818,2.93l-.0026-.0011-.002.0021,0,.0024.0013.0009.0026.0006.0029.0014,0,0Z" fill="#fff"/><path d="M3.9531,2.641l-.0195.0064a.17.17,0,0,0-.03.0109l-.0129.0066c.0161.0155.025.0238.0293.0287a.2369.2369,0,0,1,.0361.0542l.0011.0021.0053.0135a.0829.0829,0,0,1,.0028.0278l-.0024.02.01.0045.0141.0039V2.6277A.2771.2771,0,0,1,3.9531,2.641Z" fill="#eac102"/><path d="M3.5087,2.4781l-.0074-.0039-.01.0014-.0062.0072-.0036.0145-.002.01.0285.0058.0022-.0111.0017-.0163Z" fill="#fff"/><polygon points="3.555 2.407 3.567 2.382 3.527 2.379 3.555 2.407" fill="#fff"/><polygon points="4.197 2.61 4.2 2.6 4.193 2.605 4.196 2.608 4.197 2.61" fill="#fff"/><path d="M4.11,2.6969l-.0005,0H4.1089l-.0052.012-.0009.004.003.0081.0013.0094.001.0129.0007,0,.0043-.0049.0026-.0058.002-.0047.0037-.0054.0023-.0034L4.1244,2.71l-.0083-.0075-.0052-.0067Z" fill="#eac102"/><polygon points="4.224 2.565 4.219 2.563 4.216 2.572 4.224 2.565" fill="#fff"/><polygon points="4.493 2.494 4.453 2.487 4.458 2.515 4.493 2.494" fill="#fff"/><path d="M4.1075,2.5966,4.1056,2.6l-.003.0048-.0053.0107-.0018.0009h0l-.0016-.0013-.0017-.0086-.0007.0075.0016.0108,0,.002.0008.0049,0,.0007.0019.0135L4.1,2.6422l.0055-.0062a.0348.0348,0,0,1,.0072-.0213l-.0031-.0106Z" fill="#eac102"/><path d="M4.096,2.6506l-.0012,0H4.0941L4.093,2.6493l-.0013-.0105-.001.0034L4.09,2.646h0a.0408.0408,0,0,0,.0013.0228.0452.0452,0,0,0,.01.0157l.0061.0065V2.6849l.0014-.015.003-.0169L4.106,2.6407l-.0037.0041Z" fill="#eac102"/><path d="M4.0857,2.5128l-.0009,0-.001,0L4.083,2.5111V2.51l-.0043.0046-.0058.0044-.0011,0-.0008,0-.0006,0L4.0688,2.52h0l-.0039.0117,0,.0019.0025-.0018.0141-.0083.0017-.0008a.0388.0388,0,0,0,.0141-.0158l-.0031.0018Z" fill="#eac102"/><path d="M4.1046,2.5292l.0008.0071.0006.0015.0085-.0045.0064-.0078.0031-.0091-.0012-.0086,0,.0005-.0109.0086-.0056.0039-.001.0017Z" fill="#eac102"/><path d="M4.0869,2.6938l.0015.0012-.0008-.0113.0016-.01L4.0874,2.67a.0468.0468,0,0,1-.0015-.0241L4.08,2.6367l-.0051.01L4.07,2.6577l0,.0086.0057.0154A.046.046,0,0,0,4.0869,2.6938Z" fill="#eac102"/><path d="M4.064,2.6279l-.0015.0037.0026.01.0034.01.0032-.0071.0065-.0124-.0071-.0185Z" fill="#eac102"/><path d="M4.0931,2.6984,4.0925,2.7l-.0012,0-.0009,0-.0027-.0018-.0014.0036.0051.0071.0071.0064,0-.0017,0-.0018L4.1,2.708l.0057-.0132-.0077-.0077L4.0919,2.679l-.0006.0049A.0477.0477,0,0,0,4.0931,2.6984Z" fill="#eac102"/><path d="M4.11,2.5712l0,.01,0,.0069.003.0155.0043.0134L4.12,2.6122A.0248.0248,0,0,0,4.121,2.598l-.0008-.01.0013-.0153h0l.0008-.0086V2.5556l-.0066.01Z" fill="#eac102"/><path d="M4.1837,2.4637l-.0046-.0012,0,0,.0076.01.0015,0,.0089.0021L4.1931,2.47Z" fill="#eac102"/><path d="M4.103,2.5672l.0031-.0089,0-.0007L4.11,2.54l-.0049.0017h0l-.0018-.0009L4.102,2.5375l-.001-.0082V2.5287l-.0018.0029-.0056.0073.001.0171,0,.0038,0,.0061,0,.0018v.0054Z" fill="#eac102"/><path d="M4.0567,2.6376l-.0026-.01,0-.0015,0,0a.019.019,0,0,1-.0039.0123l-.0038.0031-.0006,0H4.0446l-.0011-.0006,0-.0006L4.04,2.648l-.0005,0,.0029-.0005.01-.0039.0062-.0051Z" fill="#eac102"/><path d="M4.0774,2.6048l-.0026.0036L4.0741,2.61a.0844.0844,0,0,0,.0078.0225l.0052.009.0035-.0091L4.09,2.6272l0-.002-.0016-.0115L4.09,2.5982l-.0015-.0067-.001-.0068-.0039.0027-.0015.0083Z" fill="#eac102"/><path d="M4.0941,2.5978l.0013.0061.0009.0043.0031-.0056.0031-.0049.0028-.0056.0009-.0113,0-.01,0-.001-.0081.0064-.0044.003-.0018.0023,0,0,.0014.0092Z" fill="#eac102"/><path d="M4.0612,2.6412l-.0048.0043-.0015.0155a.12.12,0,0,1-.0107.0334l.0142-.0136.0073-.0117.001-.0113-.0052-.0149Z" fill="#eac102"/><path d="M4.113,2.563A.0425.0425,0,0,0,4.1209,2.55a.0374.0374,0,0,0,.0014-.02l-.0055.0059-.002.0015L4.11,2.5581l0,.0008-.0017.0068.0006.0015Z" fill="#eac102"/><path d="M4.0843,2.7061l-.0088.0107a.0537.0537,0,0,1,.0037.02l-.0014.012a.0692.0692,0,0,0,.0157-.0218l.0029-.0081-.0078-.0069Z" fill="#eac102"/><path d="M4.0828,2.7l.0006,0,.0012-.0029a.0517.0517,0,0,1-.012-.013l-.0046-.01-.0068.01-.001.001.0022.0144a.1123.1123,0,0,1-.0005.0246l.0073-.0058a.0554.0554,0,0,0,.012-.0133l.0009-.0018h0Z" fill="#eac102"/><polygon points="3.992 2.824 3.992 2.909 4.002 2.909 4.002 2.824 4.002 2.824 3.992 2.824" fill="#784421"/><polygon points="4.002 2.602 4 2.6 3.999 2.598 4.001 2.597 4.002 2.596 4.002 2.34 3.992 2.344 3.992 2.621 4.002 2.615 4.002 2.602" fill="#784421"/><polygon points="3.992 2.82 4.002 2.821 4.002 2.62 3.992 2.625 3.992 2.82" fill="#eac102"/><polygon points="3.99 2.622 3.99 2.399 3.987 2.399 3.987 2.623 3.989 2.623 3.99 2.622" fill="#42210b"/><polygon points="4.007 2.612 4.007 2.604 4.005 2.603 4.005 2.614 4.007 2.612" fill="#42210b"/><polygon points="4.005 2.339 4.005 2.388 4.006 2.388 4.007 2.338 4.005 2.339" fill="#42210b"/><polygon points="4.007 2.774 4.007 2.616 4.005 2.618 4.005 2.821 4.006 2.821 4.007 2.779 4.007 2.774" fill="#eac102"/><polygon points="3.99 2.336 3.997 2.336 4.004 2.334 3.987 2.334 3.987 2.34 3.99 2.339 3.99 2.336" fill="#d52b1e"/><polygon points="3.987 2.346 3.987 2.394 3.989 2.394 3.99 2.394 3.99 2.345 3.987 2.346" fill="#42210b"/><polygon points="4.006 2.6 4.007 2.6 4.007 2.599 4.006 2.6" fill="#42210b"/><polygon points="4.005 2.394 4.005 2.596 4.006 2.596 4.007 2.393 4.006 2.393 4.005 2.394" fill="#42210b"/><polygon points="3.987 2.628 3.987 2.82 3.99 2.82 3.99 2.626 3.987 2.628" fill="#eac102"/><polygon points="4.005 2.912 3.99 2.912 3.99 2.824 3.987 2.823 3.987 2.914 4.007 2.914 4.007 2.824 4.005 2.824 4.005 2.912" fill="#42210b"/><polygon points="4.002 2.615 4.005 2.614 4.005 2.603 4.002 2.602 4.002 2.615" fill="#42210b"/><polygon points="3.99 2.339 3.997 2.336 3.99 2.336 3.99 2.339" fill="#d52b1e"/><polygon points="4.002 2.62 4.002 2.821 4.005 2.821 4.005 2.618 4.002 2.62" fill="#eac102"/><polygon points="3.992 2.344 3.99 2.345 3.99 2.394 3.992 2.395 3.991 2.398 3.99 2.399 3.99 2.622 3.992 2.621 3.992 2.344" fill="#42210b"/><polygon points="3.992 2.625 3.991 2.626 3.99 2.626 3.99 2.82 3.992 2.82 3.992 2.625" fill="#eac102"/><polygon points="4.002 2.909 3.992 2.909 3.992 2.824 3.99 2.824 3.99 2.912 4.005 2.912 4.005 2.824 4.002 2.824 4.002 2.909" fill="#42210b"/><polygon points="4.002 2.34 4.002 2.596 4.005 2.596 4.005 2.394 4.002 2.392 4.004 2.389 4.005 2.388 4.005 2.339 4.002 2.34" fill="#42210b"/><path d="M3.9538,2.3985c-.0087-.0007-.02-.0016-.0247-.0089l-.002-.0052-.0006.0005-.0014.0009H3.9232l-.0006-.004.0039-.0038c0-.0028,0-.0063,0-.0107l.0012-.027V2.34l0-.0007a.0926.0926,0,0,1-.01-.0558.0843.0843,0,0,1,.0108-.0314.0868.0868,0,0,1,.0263-.0273.0675.0675,0,0,1,.0313-.0128.0486.0486,0,0,1,.0393.0107.04.04,0,0,1,.0121.0253s.0019.0231-.0108.0292a.0238.0238,0,0,1-.0173,0,.0287.0287,0,0,1-.012-.0071H3.993V2.273a.0342.0342,0,0,0,.0139.0083.0315.0315,0,0,0,.0172.0012l-.001-.001V2.2781h.0035l.0025.0024c.0143-.0083.0126-.0324.0125-.0334a.0465.0465,0,0,0-.0137-.0283.0518.0518,0,0,0-.0432-.0121.0722.0722,0,0,0-.0335.0136.0938.0938,0,0,0-.0279.0288.0913.0913,0,0,0-.0113.0333.0965.0965,0,0,0,.0106.0582l-.0011.0266c0,.0174.0008.0219.0035.0255a.0363.0363,0,0,0,.0284.0108l.0052,0a.1162.1162,0,0,0,.0289-.0043V2.3941A.099.099,0,0,1,3.9538,2.3985Z"/><polygon points="3.99 2.394 3.989 2.394 3.987 2.394 3.987 2.399 3.99 2.399 3.99 2.394"/><polygon points="3.992 2.395 3.99 2.394 3.99 2.399 3.991 2.398 3.992 2.395"/><path d="M4.0242,2.2825a.1671.1671,0,0,1,.0177.02l.0046,0,.0025.0024-.0024.0025H4.0452l.0042.0065a.05.05,0,0,1,.0067.0178l.0036.0008.0017.0031-.0029.0016-.0018,0-.0015.0112a.0424.0424,0,0,1-.0164.0207.1334.1334,0,0,1-.0315.0183v.0055a.1488.1488,0,0,0,.0347-.02A.047.047,0,0,0,4.06,2.35a.0427.0427,0,0,0,.0013-.0167.05.05,0,0,0-.0077-.0212A.1539.1539,0,0,0,4.0291,2.28l-.0012.0008Z"/><polygon points="4.005 2.388 4.005 2.394 4.005 2.393 4.007 2.393 4.007 2.387 4.005 2.388"/><polygon points="4.002 2.392 4.005 2.394 4.005 2.388 4.004 2.389 4.002 2.392"/><polygon points="4.023 2.278 4.023 2.282 4.024 2.282 4.028 2.281 4.029 2.281 4.027 2.278 4.023 2.278"/><path d="M4.182,2.49l.0017.0021.01.0016.004.0008.0005.0034L4.1921,2.5l-.0041,0-.0074.0008-.0062.0026-.0034.0036.002.0037.0137.0065.0122.0031.0027-.0024L4.1983,2.516l-.0026,0V2.5128l.0008-.0049-.001-.0054h.0018l.0032,0,.0031.0006.002-.004,0-.0055-.0041-.0048-.0058-.002a.0159.0159,0,0,0-.0111,0Zm.0058.0248-.0052-.0031-.0043-.0029.0027-.003.0067-.001Z"/><path d="M3.9068,2.7315a.0536.0536,0,0,0-.0357,0,.0573.0573,0,0,0-.0185.0119.0427.0427,0,0,0-.0133.0161l-.0005.0012-.0024.0042-.01-.0036-.0026,0,0,.0026c.0057.0044.01.0057.0134.0041l.0041-.0059.0006-.0015a.04.04,0,0,1,.0124-.0147.0518.0518,0,0,1,.0174-.0112.0489.0489,0,0,1,.0332,0,.051.051,0,0,1,.026.021.0525.0525,0,0,1,.0074.0175.07.07,0,0,1-.0188.0624.1011.1011,0,0,1-.04.03.0724.0724,0,0,1-.03.0062.049.049,0,0,1-.03-.0086.0431.0431,0,0,1-.0135-.0173l-.0025-.0009-.0009.0025a.0476.0476,0,0,0,.0147.0186A.0516.0516,0,0,0,3.85,2.876h.0017a.0756.0756,0,0,0,.03-.0066.101.101,0,0,0,.0417-.0313.08.08,0,0,0,.0212-.0566l-.0018.0018-.0019-.0018L3.939,2.7683,3.9339,2.753A.0549.0549,0,0,0,3.9068,2.7315Z"/><path d="M3.96,2.8112l.0026-.0007.0006,0a.0865.0865,0,0,0,.0028-.02.0829.0829,0,0,0-.0028-.0278L3.9577,2.75l-.0011-.0021a.2369.2369,0,0,0-.0361-.0542c-.0043-.0049-.0132-.0132-.0293-.0287l-.0021.0013-.0009,0-.0017-.001.0007-.0024.0012-.0007-.009-.0085s-.01-.01-.0268-.0281l-.01-.0125a.1076.1076,0,0,1-.0113-.0253A.1013.1013,0,0,1,3.823,2.56c0-.0092.0009-.02.0058-.0218h.0077l.0023.0013.0034.002.0007,0,0-.0017.002-.0016.0017.0021,0,.0018.0055-.0008L3.8515,2.54l-.001-.0023.0027-.0009-.0006-.0016.0021-.0016.002,0V2.531l-.0016,0L3.853,2.53l.0015-.0022h.0013a.0257.0257,0,0,0-.0182-.0162.029.029,0,0,0-.0259.0067A.0358.0358,0,0,0,3.8,2.5354a.0563.0563,0,0,0-.0013.0187l.0012.0206a.1344.1344,0,0,0,.0286.0585l.0088.0094.0195.019.01.0108-.0153.0109-.0086.01-.003.0042a.0733.0733,0,0,1-.0141.014l-.0115.01a.131.131,0,0,0-.0194.0258.133.133,0,0,0-.0233.0533.1063.1063,0,0,0,.0051.0521.1009.1009,0,0,0,.0133.0262l0-.0007.0018-.0015.0015.0029-.0008.0017a.0424.0424,0,0,0,.0143.0132.0733.0733,0,0,0,.0366.0093l.01,0a.0961.0961,0,0,0,.0376-.0074h0l-.0016-.0021.002-.0015.0063.0006A.0934.0934,0,0,0,3.92,2.8776h0l-.0019-.0019.0019-.0019.0038,0L3.9268,2.87l.0015-.0014a.1175.1175,0,0,0,.0309-.0428l.0035-.0113-.0022-.001Zm-.0041.0136a.1115.1115,0,0,1-.03.0415l-.0015.0014a.104.104,0,0,1-.0327.0253.0961.0961,0,0,1-.0477.0075.0748.0748,0,0,1-.0352-.0087.0719.0719,0,0,1-.0286-.04.1029.1029,0,0,1-.005-.05A.1289.1289,0,0,1,3.7977,2.75a.1411.1411,0,0,1,.0189-.0253l.0113-.01A.0784.0784,0,0,0,3.8424,2.7l.0032-.0043.0081-.01.0154-.0109.0217.0235a.3678.3678,0,0,1,.0345.04l.0086.0148.0008.001a.0587.0587,0,0,1,.0079.0186l.0016.0089h0l-.0016-.0139a.0829.0829,0,0,0-.0144-.0316.38.38,0,0,0-.0347-.04L3.8589,2.659l-.02-.0191L3.8309,2.631a.13.13,0,0,1-.0278-.0567l-.0013-.02a.0512.0512,0,0,1,.0012-.0174.0325.0325,0,0,1,.0109-.0157.0261.0261,0,0,1,.0227-.0061c.0079.0021.0162.0087.0166.0162l-.0019.0062-.0073.0005-.0031-.0016-.0032-.0018h-.01c-.008.0033-.0086.0173-.0082.0254a.1089.1089,0,0,0,.0084.0294.1164.1164,0,0,0,.0118.0261l.01.0129c.0165.0184.027.0281.027.0281.0239.0227.0358.0339.0408.04a.225.225,0,0,1,.0357.0533l.001.0022.0053.0129a.0815.0815,0,0,1,.0025.0265A.101.101,0,0,1,3.9557,2.8248Z"/><polygon points="3.854 2.538 3.854 2.538 3.855 2.538 3.855 2.538 3.854 2.538"/><path d="M3.9405,2.7815l.0019.0018.0018-.0018-.0016-.0089a.0587.0587,0,0,0-.0079-.0186l-.0006-.0007.0049.015Z"/><path d="M3.86,2.5712a.0821.0821,0,0,1,0,.0174l-.0035.012.0025,0,.0007.0007.004-.0123a.0772.0772,0,0,0,0-.0169L3.86,2.5688V2.5662h.0026l.0006.0006L3.8614,2.55l-.0065-.0111L3.8536,2.54l-.0009.0007.0052.01Z"/><path d="M3.8556,2.601l0,.0005a.05.05,0,0,1-.0079-.0251.1208.1208,0,0,1-.0007-.0345l-.0037-.0006a.122.122,0,0,0,.0007.0357c.0017.0106.0054.0283.0114.0283h0l.0018-.0006-.0012-.0013Z"/><polygon points="3.847 2.54 3.845 2.538 3.843 2.54 3.843 2.541 3.847 2.542 3.847 2.54"/><polygon points="3.855 2.539 3.854 2.538 3.853 2.537 3.851 2.537 3.851 2.54 3.852 2.541 3.854 2.54 3.855 2.539"/><path d="M3.8741,2.5475a.03.03,0,0,1,.0064.012.0542.0542,0,0,1,0,.0137c-.0011.0134-.003.0165-.0048.0179l-.0015.0008-.0005-.0026L3.873,2.5838a.0315.0315,0,0,0-.0063-.0131l-.0035-.004v.0052l0,.0008.0057.0119L3.87,2.59l.0014.0048,0-.0013.0021-.0014.0014.0023,0,.0014.0029-.0015c.0027-.002.0044-.0052.0056-.0146L3.8811,2.578,3.88,2.5754l.0024-.0007.0008.0005.0005-.0017a.0474.0474,0,0,0,0-.0148.0347.0347,0,0,0-.0071-.0136.034.034,0,0,0-.02-.0109l-.0012.0036A.0307.0307,0,0,1,3.8741,2.5475Z"/><polygon points="3.854 2.538 3.854 2.538 3.855 2.538 3.857 2.534 3.855 2.534 3.853 2.535 3.853 2.537 3.854 2.537 3.854 2.538"/><polygon points="3.863 2.567 3.863 2.566 3.86 2.566 3.86 2.569 3.863 2.572 3.863 2.571 3.863 2.567"/><polygon points="3.854 2.537 3.853 2.537 3.854 2.538 3.854 2.537"/><path d="M3.8568,2.531h.0074a.029.029,0,0,1,.0143.0077.0357.0357,0,0,1,.0088.0121l.0021.0072.0026.01.0025.0067.0023.0107L3.8959,2.59h0l-.0018-.0044a.0252.0252,0,0,0-.01-.01l0,.0041.0073.008.0016.0037.0012.0029,0-.0008.0025-.0017.0011.0023,0,.0008L3.9,2.5858a.0228.0228,0,0,0-.0026-.0123L3.8956,2.567l-.0024-.01-.0026-.0081a.0415.0415,0,0,0-.01-.0135.0331.0331,0,0,0-.0161-.0084l-.0085,0,0,.0035Z"/><rect x="3.8531" y="2.5257" width="0.0071" height="0.007" transform="matrix(0.9959, -0.0905, 0.0905, 0.9959, -0.2131, 0.3596)"/><polygon points="3.88 2.575 3.881 2.578 3.883 2.579 3.884 2.575 3.883 2.575 3.88 2.575"/><path d="M3.8957,2.5953,3.8936,2.594a.0331.0331,0,0,0,.0019.0216l.0064.0086a.0241.0241,0,0,0,.0128.0046l.0027,0-.0058.0034c-.0044.0012-.0082-.0007-.0142-.0038A.0306.0306,0,0,1,3.8855,2.62l-.0038-.0063L3.88,2.6078,3.8772,2.603l0-.0009-.0019-.0046v-.002H3.8731l-.0016-.001,0,.0034.0022.006,0,.0008.0021.0044.0025.0058.0036.0063v0l.0018-.002.0019.0016-.0006.0044.0107.0073.0132.0046.0035,0c.004-.0011.0093-.0046.0087-.0082l-.0061-.003-.0109-.0037L3.8988,2.614a.03.03,0,0,1-.0016-.0194l-.0015.0007Z"/><polygon points="3.874 2.592 3.872 2.593 3.872 2.594 3.872 2.595 3.874 2.596 3.875 2.596 3.875 2.595 3.874 2.592"/><polygon points="3.896 2.592 3.894 2.593 3.894 2.594 3.896 2.595 3.896 2.595 3.897 2.595 3.897 2.594 3.896 2.592"/><polygon points="3.856 2.601 3.856 2.601 3.856 2.601 3.856 2.601"/><polygon points="3.882 2.621 3.88 2.627 3.876 2.629 3.876 2.626 3.874 2.616 3.87 2.612 3.864 2.607 3.859 2.602 3.857 2.605 3.862 2.61 3.868 2.615 3.87 2.618 3.872 2.626 3.874 2.632 3.876 2.633 3.883 2.629 3.885 2.625 3.882 2.622 3.882 2.621"/><polygon points="3.859 2.602 3.858 2.601 3.856 2.601 3.856 2.601 3.856 2.603 3.857 2.605 3.859 2.602"/><rect x="3.8814" y="2.6188" width="0.0049" height="0.0043"/><path d="M4.016,2.6056l-.0087.0062v.0045l.0136-.01.0008-.0013-.0047.0005Z"/><path d="M3.9041,2.6583a.17.17,0,0,1,.03-.0109l.0195-.0064a.2771.2771,0,0,0,.0344-.0133V2.6235a.2684.2684,0,0,1-.0357.0141l-.0192.0062a.1833.1833,0,0,0-.03.0112l-.0141.0073.0018.0019Z"/><polygon points="3.992 2.621 3.992 2.625 4.002 2.62 4.002 2.615 3.992 2.621"/><polygon points="3.99 2.626 3.99 2.622 3.989 2.623 3.987 2.623 3.987 2.628 3.99 2.626"/><polygon points="4.005 2.614 4.005 2.618 4.006 2.617 4.007 2.612 4.005 2.614"/><polygon points="4.002 2.615 4.002 2.62 4.005 2.618 4.005 2.614 4.002 2.615"/><polygon points="3.992 2.625 3.992 2.621 3.99 2.622 3.99 2.626 3.991 2.626 3.992 2.625"/><polygon points="3.886 2.665 3.887 2.666 3.889 2.666 3.89 2.665 3.888 2.662 3.888 2.663 3.886 2.665"/><polygon points="4.18 2.554 4.181 2.554 4.174 2.56 4.168 2.57 4.17 2.569 4.173 2.569 4.177 2.563 4.182 2.557 4.181 2.557 4.18 2.554"/><path d="M4.1358,2.4847a.02.02,0,0,0,0,.0138L4.1363,2.5l.0008,0,.002-.0013.0013.003L4.14,2.5028l.0015.0021.0037.0044a.0231.0231,0,0,1-.0022.0158l-.002.0032-.0019.0033,0,.0009v0l.0026,0,0,.0025L4.1369,2.54l0,0a.0387.0387,0,0,0,.002.0156l0,.001,0-.0005.0028-.0006,0,.0026L4.14,2.561l.0055.01,0,.0006.0009-.0006L4.15,2.57l0,.0026-.0015.0024.0058.01.0006-.0008.0029,0,.0006.0007h0l-.0094-.0153-.0072-.0137a.03.03,0,0,1,0-.022l.0015-.0026.0023-.004a.0251.0251,0,0,0,.0024-.0185l-.0051-.0062-.0041-.0048a.0159.0159,0,0,1,.0014-.014l0-.0008h0Z"/><path d="M4.1386,2.4794h0l.0026.0005v.0021l.0053-.0043a.0109.0109,0,0,1,.0091.0006l.004.0041.0013.0008.0016,0,.01-.006a.0292.0292,0,0,1,.0126-.0006l-.0009,0L4.1819,2.472l-.01.0013-.0065.0027.0009.0022-.0013.0023H4.1647L4.163,2.4792l-.0005-.0011,0,0-.0045-.0034a.0147.0147,0,0,0-.0121-.0007h0l.001.0012,0,.0019-.0021.001-.0014-.0007L4.142,2.476Z"/><path d="M4.2493,2.5293l-.007-.0052-.0049,0H4.2349L4.228,2.5185l-.0036-.0036L4.22,2.5108l-.0048-.0054-.0011-.0041-.001-.0054a.0326.0326,0,0,0-.0065-.0151l-.0015-.0014,0,0-.0007.0026,0,0-.002-.0008L4.1974,2.475l-.0082-.002-.0022,0,0,.0006,0,.0026-.001,0,.0023,0a.0244.0244,0,0,1,.0154.0067l.0057.0135.0009.005.0015.0051.0055.0067.0042.0039.0036.0036.0076.0059V2.5253l.0021-.0015.0016.0021v.0015h.0013l.0034,0,.005.0038.0016.0064.0021.0006.0016.0021L4.25,2.5419h0l-.001,0L4.246,2.55l-.0068.0057-.0109.0061L4.22,2.5588l-.0075-.0074,0-.0055v0l.0015-.004.0066-.0057.001-.0024-.0024-.001-.008.0066-.0022.005-.0128.0046-.0044.0006-.0056.0012-.005.0027h.0017l.003.0017.0011-.0006.0052-.0012.0046-.0008.0118-.0037.0006.0042.0071.0079,0-.0014.0023-.001.0011.0024-.0008.0021.0048.0024.0029-.0025.0026,0,0,.0026,0,0,.0123-.0067.0077-.0067a.0219.0219,0,0,0,.0024-.013Z"/><path d="M4.1983,2.6177h0l-.0014-.0022.001-.0052-.0016-.0024-.0026-.0031-.0014.0014-.0027,0,0-.0026.0012-.0011h0l-.0043-.004-.01-.0122c-.0035-.0058-.0054-.0089-.0051-.013l0-.0007H4.17l-.0019-.0016,0,.0022a.0251.0251,0,0,0,.0057.0151l.01.0128.0043.0042.0046.0052.0039.01-.0047.0065a.011.011,0,0,1-.0105-.0023.0321.0321,0,0,1-.01-.0183l-.0025-.0088L4.168,2.5954l-.0007,0-.0009,0-.0073.0038,0-.0143h0l0,.001L4.1551,2.59l0,.012,0,.0012.0018.0006L4.1659,2.6l.0012.0039.0007-.0007H4.17v.0026l-.0021.0023a.0334.0334,0,0,0,.0113.0191l.0046.0024V2.6279l.002-.0017.0008,0,0,0,.0023.0012L4.19,2.63,4.1933,2.63a.0126.0126,0,0,0,.0072-.01l0-.0042v0Z"/><polygon points="4.168 2.57 4.168 2.571 4.168 2.57 4.168 2.57"/><path d="M4.21,2.58l-.0007-.0018L4.207,2.5751l-.0009-.001-.0084-.01-.0118-.009-.0036.0023.0127.0092.0082.01.0009.0011.0073.0078a.0158.0158,0,0,0,.0124.0042l.0072-.0041.0038-.0041A.02.02,0,0,1,4.23,2.599a.0155.0155,0,0,1-.0115.0039c-.0017,0-.0043-.0015-.014-.0126l-.0054-.0065-.0078-.008-.0132-.0065-.0048-.0007-.001.0037.005.0006.0117.006.0073.0074.0053.0063,0,.0006.0013,0,.0015.0024,0,.0008c.0082.009.0108.01.0132.0106l.0025,0a.0193.0193,0,0,0,.0121-.005A.0234.0234,0,0,0,4.2383,2.58L4.2357,2.576l-.0032.002-.0039.0045-.0055.0033-.01-.0035L4.2113,2.58h0Z"/><path d="M4.1807,2.5536l0,0Z"/><polygon points="4.18 2.554 4.181 2.557 4.182 2.557 4.186 2.555 4.183 2.553 4.181 2.553 4.181 2.553 4.18 2.554"/><polygon points="4.168 2.57 4.168 2.571 4.17 2.572 4.17 2.572 4.172 2.572 4.173 2.569 4.17 2.569 4.168 2.57"/><path d="M4.15,2.4826l-.0053.0016,0,.0026.0027,0,.0028-.001.0037.0021-.0027.0033a.0146.0146,0,0,0-.0018.0109l.0019.0015h0l.0014-.0022.0012-.0083L4.1572,2.49l.0006-.0024Z"/><polygon points="4.224 2.565 4.216 2.572 4.219 2.563 4.218 2.562 4.216 2.561 4.209 2.578 4.209 2.578 4.211 2.58 4.212 2.58 4.229 2.566 4.228 2.566 4.224 2.565"/><polygon points="4.23 2.563 4.227 2.563 4.224 2.565 4.228 2.566 4.229 2.566 4.229 2.566 4.23 2.563"/><polygon points="4.219 2.563 4.22 2.561 4.22 2.559 4.217 2.559 4.216 2.561 4.217 2.561 4.219 2.563"/><polygon points="4.21 2.58 4.211 2.58 4.211 2.58 4.209 2.578 4.21 2.58"/><polygon points="4.201 2.593 4.191 2.602 4.193 2.605 4.2 2.6 4.197 2.61 4.2 2.616 4.204 2.596 4.202 2.593 4.201 2.593"/><polygon points="4.189 2.606 4.192 2.606 4.193 2.605 4.191 2.602 4.189 2.603 4.189 2.606"/><polygon points="4.196 2.615 4.198 2.618 4.198 2.618 4.2 2.616 4.2 2.616 4.197 2.61 4.196 2.615"/><polygon points="4.203 2.593 4.202 2.593 4.204 2.596 4.204 2.595 4.203 2.593"/><path d="M4.1765,2.4615l-.0025.0006h0l.0025.0032.0055.0068.0051.0006-.0076-.01,0,0,.0046.0012.0094.0066.0043.0047.0078.0044-.0095-.0117L4.1849,2.46l-.0093-.0015,0,0Z"/><polygon points="4.184 2.476 4.186 2.476 4.186 2.476 4.187 2.476 4.188 2.474 4.187 2.473 4.182 2.472 4.184 2.476"/><polygon points="4.202 2.482 4.204 2.482 4.205 2.482 4.205 2.48 4.205 2.479 4.197 2.475 4.202 2.482"/><path d="M4.1462,2.4552l-.0025.0006h0l.0049.0045.003.0026.0031.003.005.0061.0029.0062.0032-.0021L4.1628,2.47l-.0056-.0069L4.1539,2.46l-.0028-.0024L4.149,2.4557a.0425.0425,0,0,1,.0129.0011l.0069.0023.005.0028,0,0L4.173,2.46l.002-.0017h.0006l-.0051-.0029-.0077-.0027a.0508.0508,0,0,0-.0178-.0008l.0006,0Z"/><polygon points="4.165 2.481 4.165 2.481 4.167 2.478 4.166 2.477 4.162 2.478 4.163 2.479 4.165 2.481"/><polygon points="4.173 2.46 4.174 2.462 4.174 2.462 4.174 2.462 4.176 2.462 4.176 2.459 4.176 2.459 4.175 2.459 4.173 2.46"/><path d="M4.1138,2.4522l-.0023.0013h0l.0055.0048.0046-.0012.0024.0013-.0013.0022H4.1218l.0026.001.0082.0052.0094.009.0032-.0018-.01-.01-.0091-.0057-.0029-.001L4.12,2.4562l-.0047-.0035a.0367.0367,0,0,1,.0139-.0014l.0106.0024.0038.002,0,0,0-.0019.0014-.0013H4.145L4.1413,2.45l-.0119-.0027a.043.043,0,0,0-.0175.0023h0Z"/><polygon points="4.145 2.478 4.145 2.478 4.146 2.475 4.145 2.475 4.142 2.476 4.143 2.478 4.145 2.478"/><polygon points="4.143 2.454 4.143 2.456 4.144 2.456 4.144 2.456 4.146 2.455 4.146 2.453 4.145 2.452 4.144 2.452 4.143 2.454"/><polygon points="4.053 2.497 4.053 2.497 4.053 2.495 4.051 2.497 4.05 2.499 4.051 2.5 4.051 2.499 4.053 2.497"/><path d="M4.0862,2.46l-.0011.0024-.0063.0024-.0055.0081L4.0685,2.48l-.0044.0061-.0065.0063-.0012.0048-.0016.0014h0l0,.0015.0054.0015h.0034l.006,0V2.5l.0014-.0026.0021.0014V2.5l.0035-.0067.0119-.0141.003-.003,0-.0016L4.091,2.4713,4.093,2.47h0l-.0063-.0011L4.09,2.4662l.0107-.0022h.0009l.02-.0032L4.1185,2.46l-.0018-.0012L4.1014,2.46H4.1005a.025.025,0,0,0-.0126.0028l-.0062.0058,0,.0018.0014.0011.006.0011-.0032.0033-.0124.0148L4.07,2.4976l-.0094,0-.0035,0,.01-.0092.0046-.0065.0047-.0074a.0514.0514,0,0,1,.0156-.018.0249.0249,0,0,1,.0123-.0039l.0069.0008,0,0L4.11,2.4517,4.1114,2.45h0L4.1041,2.449a.0277.0277,0,0,0-.014.0043l-.0067.0053h0Z"/><polygon points="4.124 2.458 4.121 2.457 4.117 2.458 4.118 2.459 4.122 2.461 4.122 2.461 4.124 2.458"/><polygon points="4.11 2.451 4.11 2.452 4.111 2.453 4.111 2.454 4.114 2.452 4.112 2.45 4.112 2.45 4.111 2.45 4.11 2.451"/><path d="M4.094,2.47h.0008l.0012.0024,0,.0011.0045,0h.0025V2.4731l.0017-.0026.002.0018v.002l.0045,0,.0082.0025,0,0,.0013-.0013.0026,0,.001.0017L4.1233,2.48l.0035.0034.0015.001,0-.0011.0025-.0016.0012.0023,0,.0009.0006.0007.0032,0,.0016-.0035.0012-.0018-.0074.0018L4.1287,2.48l-.0048-.0036-.0028-.0021-.01-.0031-.0058-.0005-.0052,0L4.093,2.47h0Z"/><path d="M4.1414,2.4819h0Z"/><polygon points="4.141 2.48 4.139 2.479 4.139 2.479 4.138 2.481 4.136 2.485 4.141 2.482 4.141 2.482 4.141 2.482 4.141 2.48"/><polygon points="4.094 2.47 4.093 2.47 4.093 2.47 4.093 2.47 4.091 2.471 4.092 2.473 4.092 2.472 4.094 2.47"/><path d="M4.1087,2.5145,4.11,2.5139l.0025.0005,0,.0025h0l.0108-.0084,0-.0007-.0015-.0033.0008-.0025.0025.0007,0,.0006.0038-.0089.0032-.01-.0019,0-.0017-.0007-.003.0092-.0059.0132-.0071.006,0-.0056a.0632.0632,0,0,1,.01-.0266L4.1215,2.479,4.12,2.4778a.0663.0663,0,0,0-.0108.0286Z"/><rect x="4.1205" y="2.4751" width="0.0039" height="0.0047" transform="translate(-0.0452 4.8779) rotate(-60.9454)"/><polygon points="4.132 2.485 4.132 2.484 4.131 2.481 4.129 2.482 4.128 2.484 4.129 2.485 4.132 2.485"/><path d="M4.1025,2.5193l0-.0007.0025-.0007.0008.0025,0,0,.0056-.0039h0l-.0006,0H4.11l-.0012-.0016v-.001l-.0034.0023-.0017-.0062a.0378.0378,0,0,1,.0009-.0139l0-.0015a.0833.0833,0,0,0,.0016-.0209H4.1027a.0883.0883,0,0,1-.0014.02l0,.0015L4.1,2.5l0,0,.0028.0005-.0006.0024-.003.006,0,.0022Z"/><polygon points="4.106 2.474 4.106 2.473 4.104 2.471 4.103 2.472 4.103 2.474 4.105 2.474 4.106 2.474"/><polygon points="4.112 2.514 4.109 2.514 4.109 2.515 4.109 2.515 4.109 2.517 4.11 2.517 4.111 2.517 4.111 2.517 4.111 2.517 4.112 2.514"/><path d="M4.0837,2.5022v0l.0025-.0008.0008.0025-.004.0064v.001l.0008.0017.001,0h.0006l.0085-.0047.0031-.0018L4.1,2.5009l0,0,0,0-.0081.0048-.0053.003.0006-.005.0024-.01.006-.02-.0016,0-.0028.0021-.0052.0168Z"/><polygon points="4.093 2.473 4.092 2.473 4.091 2.476 4.093 2.474 4.093 2.473"/><polygon points="4.095 2.47 4.094 2.47 4.094 2.471 4.094 2.472 4.093 2.474 4.096 2.474 4.096 2.473 4.095 2.47"/><polygon points="4.093 2.474 4.094 2.473 4.094 2.471 4.094 2.47 4.092 2.472 4.092 2.473 4.093 2.473 4.093 2.474"/><polygon points="4.102 2.5 4.103 2.502 4.103 2.503 4.103 2.501 4.101 2.5 4.1 2.5 4.1 2.5 4.102 2.5"/><polygon points="4.07 2.503 4.072 2.503 4.073 2.504 4.073 2.499 4.073 2.5 4.071 2.501 4.069 2.501 4.07 2.503 4.07 2.503"/><polygon points="4.072 2.519 4.073 2.519 4.079 2.515 4.083 2.51 4.084 2.503 4.084 2.502 4.076 2.512 4.074 2.514 4.074 2.511 4.073 2.504 4.073 2.505 4.07 2.51 4.07 2.511 4.07 2.515 4.071 2.514 4.073 2.514 4.073 2.517 4.07 2.519 4.071 2.519 4.072 2.519"/><polygon points="4.073 2.5 4.073 2.499 4.073 2.499 4.071 2.498 4.069 2.499 4.069 2.501 4.071 2.501 4.073 2.5"/><polygon points="4.083 2.51 4.087 2.504 4.086 2.501 4.084 2.502 4.084 2.502 4.084 2.503 4.083 2.51"/><polygon points="4.066 2.517 4.068 2.516 4.069 2.519 4.069 2.519 4.069 2.52 4.07 2.519 4.07 2.518 4.07 2.515 4.067 2.516 4.064 2.517 4.068 2.513 4.07 2.51 4.07 2.504 4.065 2.511 4.058 2.519 4.058 2.519 4.058 2.519 4.061 2.519 4.06 2.522 4.06 2.522 4.064 2.521 4.066 2.517"/><path d="M4.0734,2.5035v0Z"/><polygon points="4.073 2.504 4.073 2.504 4.073 2.503 4.07 2.503 4.07 2.504 4.07 2.51 4.073 2.505 4.073 2.504"/><rect x="4.0696" y="2.5135" width="0.0044" height="0.0045" transform="translate(0.8324 6.0392) rotate(-79.1145)"/><path d="M4.0452,2.5231l.0018.002,0,.0015L4.06,2.5217H4.059l-.0017-.0012V2.5193L4.046,2.523l-.0039,0L4.04,2.5212l.0076-.0067.0051-.007.0016-.0067-.0031,0-.0006,0L4.05,2.506l-.0044.0058-.0085.006L4.0358,2.52l.0045.0059.0029.0009V2.525Z"/><polygon points="4.055 2.501 4.055 2.499 4.055 2.498 4.055 2.499 4.054 2.499 4.053 2.497 4.051 2.499 4.051 2.5 4.051 2.5 4.055 2.501"/><polygon points="4.061 2.519 4.059 2.518 4.058 2.519 4.057 2.521 4.059 2.522 4.059 2.522 4.06 2.522 4.06 2.522 4.061 2.519"/><path d="M4.0459,2.54l0,.0026-.0033.0046.0015.0183.0024.0093v0l.002-.0017.0017.002v.0007l.0067-.0072.0034-.0046L4.0593,2.56l.0014-.0021.0022.0012v0a.1137.1137,0,0,1,0-.0143l.0006-.0063-.0006.0005-.0007,0-.0014,0L4.06,2.537l-.0007.0073a.1172.1172,0,0,0,0,.0145l-.005.0071L4.05,2.5711,4.048,2.5645l-.0014-.0176,0-.02H4.0432l0,.0139,0-.0005Z"/><path d="M4.0688,2.52l-.0046.0015-.0029.01L4.06,2.5369l.0007-.0012.0037-.0025,0-.0012Z"/><polygon points="4.069 2.519 4.068 2.516 4.066 2.517 4.064 2.521 4.069 2.52 4.069 2.519"/><rect x="4.0434" y="2.5228" width="0.0036" height="0.0049" transform="translate(-0.7022 2.0757) rotate(-26.5651)"/><path d="M4.0821,2.5268,4.084,2.522l.0024-.001.0009.0024v0A.0445.0445,0,0,0,4.1,2.5089V2.5048l-.0027.0017a.0388.0388,0,0,1-.0141.0158l-.0017.0008-.0141.0083-.0025.0018-.001.0051.0056-.0038Z"/><path d="M4.06,2.537h0Z"/><polygon points="4.103 2.503 4.1 2.505 4.1 2.509 4.103 2.503 4.103 2.503"/><polygon points="4.1 2.501 4.097 2.507 4.1 2.505 4.1 2.5 4.1 2.501"/><polygon points="4.103 2.503 4.103 2.502 4.103 2.5 4.1 2.5 4.1 2.505 4.103 2.503 4.103 2.503"/><polygon points="4.061 2.536 4.06 2.536 4.06 2.537 4.06 2.538 4.062 2.539 4.063 2.539 4.063 2.539 4.065 2.533 4.061 2.536"/><polygon points="4.105 2.521 4.105 2.522 4.105 2.523 4.106 2.521 4.106 2.521 4.105 2.521"/><path d="M4.09,2.5386l.0017-.0021.002.0018v.0006l.0056-.0073.0018-.0029,0-.0069L4.1028,2.52l0,0-.0066.01-.013.0159,0-.0074.0039-.0141-.0025.0016-.0017.0009-.0009,0L4.08,2.5375a.0676.0676,0,0,0,0,.0119v0l.0024-.0012.0012.0023v0L4.09,2.543Z"/><polygon points="4.105 2.521 4.106 2.521 4.106 2.521 4.106 2.521 4.105 2.518 4.103 2.519 4.103 2.519 4.103 2.52 4.103 2.52 4.105 2.521"/><polygon points="4.085 2.525 4.087 2.524 4.087 2.524 4.086 2.521 4.084 2.522 4.082 2.527 4.083 2.526 4.085 2.525"/><path d="M4.0608,2.5641l.0022-.0014.0014.0022-.0014.0069.0041.01.0011.001h0l.0008,0,.0073-.0055V2.5741l.0017-.002.0019.0018h0A.0612.0612,0,0,1,4.0807,2.56l.0023-.0092,0,0-.0008.0005h-.001l-.0014-.0009V2.5494l-.0022.01a.06.06,0,0,0-.0007.014l-.0071.0054-.0029-.0079L4.063,2.5589v0l0,.001-.0022.0034,0,.0008Z"/><polygon points="4.063 2.559 4.063 2.559 4.063 2.559 4.061 2.558 4.059 2.56 4.06 2.564 4.063 2.56 4.063 2.559"/><polygon points="4.082 2.548 4.079 2.549 4.079 2.549 4.079 2.55 4.081 2.551 4.081 2.551 4.083 2.551 4.083 2.551 4.083 2.55 4.082 2.548"/><path d="M4.0121,2.5972a.0366.0366,0,0,0,.0141-.0149L4.0313,2.57l.0006-.0018a.1011.1011,0,0,1,.011-.0214h0V2.5407a.0975.0975,0,0,0-.0145.0265l-.0006.0018L4.0229,2.58a.0324.0324,0,0,1-.0125.0135l-.0031.0013v.0039Z"/><path d="M4.016,2.6056l.0027-.002.0025,0,0,.0009.0107-.0034.0041-.0024V2.5948l.0021-.0017.0016.0021v.0006l.0062-.0079L4.05,2.5753l0,.0005-.0013,0H4.0481L4.0468,2.575v0l-.0035.0114a.0315.0315,0,0,1-.0126.0119.0291.0291,0,0,1-.0153.0038L4.0073,2.6v.004l.0079.0018Z"/><polygon points="3.999 2.598 3.999 2.6 4.002 2.602 4.002 2.596 4.001 2.597 3.999 2.598"/><polygon points="4.005 2.603 4.006 2.604 4.007 2.6 4.006 2.6 4.007 2.599 4.007 2.595 4.005 2.596 4.005 2.603"/><polygon points="4.002 2.602 4.005 2.603 4.005 2.596 4.002 2.596 4.002 2.602"/><polygon points="4.019 2.604 4.016 2.606 4.017 2.606 4.022 2.605 4.021 2.604 4.019 2.604"/><polygon points="4.048 2.576 4.049 2.576 4.049 2.576 4.05 2.575 4.05 2.575 4.049 2.573 4.047 2.574 4.047 2.575 4.047 2.575 4.048 2.576"/><polygon points="4.043 2.547 4.046 2.542 4.046 2.54 4.043 2.54 4.043 2.541 4.043 2.547 4.043 2.547"/><path d="M4.0529,2.6114l.002.0015v0L4.0577,2.6l.0029-.0149.0024-.0137h0l-.0022-.0074-.0039.0206L4.054,2.6l-.0027.0132Z"/><path d="M4.0436,2.6336l.0013.0023-.0016.005h0l.0011.0011H4.045l.0009,0L4.05,2.6388a.019.019,0,0,0,.0039-.0123V2.6256l-.0024-.012V2.6128L4.05,2.6265l-.0032.01-.001.0011A.0956.0956,0,0,1,4.04,2.6145a.09.09,0,0,1,0-.0187l-.0038.0031a.0951.0951,0,0,0,0,.016l.0046.0205,0,0Z"/><polygon points="4.063 2.572 4.064 2.565 4.063 2.563 4.061 2.564 4.061 2.564 4.063 2.572 4.063 2.572"/><polygon points="4.04 2.595 4.039 2.593 4.037 2.595 4.036 2.599 4.04 2.596 4.04 2.595"/><path d="M4.078,2.5894l.0007,0h.0007l.0005,0,0-.0031.0019-.0018h0l.0018.0019v.001l.0039-.0027-.0006-.0034.0017-.0021.0021.0016v.0008l0,0L4.0926,2.58l0-.0006-.001,0-.0012,0,0-.0032.0044-.0028h0V2.5677l0-.0018,0-.0061,0-.0038-.001-.0171L4.09,2.543l.0009.0132,0,.0037,0,.0063,0,.002v.0053l-.0031.0055-.0079.006L4.08,2.5739h0L4.08,2.5753l-.0028.0023.0005.01Z"/><polygon points="4.091 2.537 4.09 2.539 4.09 2.543 4.094 2.539 4.093 2.538 4.091 2.537"/><polygon points="4.08 2.574 4.078 2.572 4.077 2.574 4.077 2.578 4.079 2.575 4.08 2.574"/><path d="M4.1057,2.57l-.0013-.0035.0012-.0023.0023.0011,0,.0007L4.11,2.5589l0-.0008.0048-.0205L4.11,2.54l-.004.0175,0,.0007-.0031.0089-.0075.0059V2.574l-.0022.0051.0044-.003Z"/><polygon points="4.095 2.573 4.095 2.573 4.091 2.576 4.09 2.579 4.092 2.579 4.093 2.579 4.093 2.579 4.095 2.574 4.095 2.573"/><path d="M4.102,2.5375l.0013.0034.0009.0009h.0012L4.11,2.54l.0011-.0043.0024-.0011.0012.0023v0l.0013-.0008L4.1223,2.53l-.001-.0042.0013-.0022.0023.0013,0,.0006.0026-.009a.0235.0235,0,0,0-.0027-.0131l-.0017.0035.0007.0093-.0031.0091-.0064.0078-.0085.0045,0-.0009-.001-.0077,0-.0067-.0039.0062v0Z"/><polygon points="4.125 2.503 4.122 2.502 4.121 2.505 4.123 2.508 4.125 2.504 4.125 2.503"/><polygon points="4.105 2.522 4.105 2.521 4.105 2.521 4.104 2.521 4.103 2.52 4.103 2.52 4.101 2.522 4.101 2.529 4.105 2.523 4.105 2.522"/><polygon points="4.104 2.521 4.104 2.521 4.105 2.521 4.103 2.52 4.103 2.52 4.103 2.52 4.104 2.521"/><polygon points="4.114 2.535 4.111 2.536 4.11 2.54 4.115 2.538 4.115 2.537 4.114 2.535"/><path d="M4.1223,2.53a.0374.0374,0,0,1-.0014.02.0425.0425,0,0,1-.0079.0133l-.0043.0042-.0006-.0015L4.1059,2.57h0l0,.001v0l.0017-.002L4.11,2.57v.001l.006-.0058.0066-.01-.0006-.0084.0017-.002.002.0017v0a.0426.0426,0,0,0,.0009-.0144l-.0015.0006h0L4.1226,2.532,4.1239,2.53l.0019-.0008-.0007-.0032-.0009.0016Z"/><rect x="4.1042" y="2.5637" width="0.0044" height="0.0053" transform="translate(-0.5538 1.2508) rotate(-16.2392)"/><rect x="4.1206" y="2.5238" width="0.0053" height="0.0044" transform="translate(-0.4729 1.0237) rotate(-13.3925)"/><path d="M4.1322,2.5167v0l0,.0061L4.13,2.5265l-.0038.0024.0006.0038.0055-.0033-.0006-.0039.0015-.0021.0022.0017v0l0-.0005,0-.009.0035-.0126-.0026-.0029A.0237.0237,0,0,0,4.1322,2.5167Z"/><polygon points="4.139 2.503 4.14 2.502 4.14 2.499 4.137 2.499 4.137 2.501 4.139 2.503"/><polygon points="4.123 2.532 4.124 2.533 4.125 2.533 4.126 2.533 4.126 2.529 4.125 2.53 4.123 2.532"/><polygon points="4.136 2.534 4.135 2.525 4.132 2.529 4.132 2.529 4.133 2.535 4.134 2.54 4.134 2.541 4.135 2.541 4.136 2.541 4.138 2.533 4.136 2.535 4.136 2.534"/><rect x="4.1337" y="2.535" width="0.0097" height="0.0033" transform="translate(-0.4421 4.1427) rotate(-50.8263)"/><polygon points="4.135 2.525 4.135 2.525 4.133 2.523 4.131 2.525 4.132 2.529 4.132 2.529 4.135 2.525"/><path d="M4.1331,2.5632l-.0075.0057,0-.0052a.1008.1008,0,0,0-.0005-.0165l-.0011.0037-.002.0047v.0079l-.0008.0086h0l.0022-.0015.0015.0021v.0008l.0105-.0075L4.14,2.561l-.0017-.0037Z"/><polygon points="4.142 2.559 4.143 2.557 4.14 2.556 4.139 2.557 4.14 2.561 4.142 2.559"/><polygon points="4.123 2.545 4.122 2.547 4.122 2.556 4.124 2.551 4.125 2.547 4.125 2.547 4.123 2.545"/><path d="M4.0584,2.4887l.0043-.0113a.0328.0328,0,0,1,.0161-.013l.0046-.0058a.043.043,0,0,0-.024.0171l-.0046.012-.0018.0077.0046-.0031Z"/><polygon points="4.053 2.497 4.053 2.497 4.055 2.498 4.056 2.498 4.058 2.492 4.053 2.495 4.053 2.496 4.053 2.497"/><polygon points="4.085 2.462 4.086 2.46 4.084 2.459 4.084 2.459 4.079 2.464 4.085 2.462"/><polygon points="4.053 2.497 4.053 2.497 4.054 2.499 4.055 2.499 4.055 2.498 4.053 2.497"/><path d="M4.0588,2.6317,4.06,2.63l.0022.0015v.0006l.0015-.0037.0071-.0136L4.07,2.61l0-.0014-.0094.0177-.0019.0046-.001-.0041L4.055,2.6132l-.0013.0124,0,.0022.0026.01.0015.0013L4.06,2.6368Z"/><polygon points="4.071 2.608 4.073 2.609 4.074 2.61 4.075 2.608 4.077 2.605 4.082 2.596 4.084 2.587 4.08 2.589 4.079 2.595 4.074 2.603 4.072 2.606 4.07 2.609 4.071 2.608"/><path d="M4.0537,2.6256l.0013-.0124v0l-.002-.0015-.0014.0007,0,.0007v.0008Z"/><polygon points="4.084 2.586 4.082 2.585 4.082 2.585 4.08 2.586 4.08 2.589 4.084 2.587 4.084 2.586"/><path d="M4.09,2.5982v0l.0024-.0013.0011.0024-.0019.0072.0017.0086.0016.0013h0l.0015,0,.0056-.0113L4.1056,2.6l.0019-.003-.0014-.0085.0015-.0021.0022.0015v0l0-.0069,0-.01-.0008.0006-.0012,0h0L4.1061,2.571v0l0,.01-.0009.0113-.0028.0056-.0031.0049-.0031.0056-.0009-.0043-.0013-.0061-.0015-.007-.0014-.0092-.0033.0031.001.0068Z"/><polygon points="4.091 2.582 4.091 2.581 4.089 2.579 4.087 2.581 4.088 2.585 4.091 2.582"/><polygon points="4.108 2.568 4.106 2.57 4.106 2.571 4.106 2.571 4.107 2.572 4.108 2.572 4.109 2.572 4.11 2.571 4.11 2.57 4.108 2.568"/><path d="M4.121,2.598a.0248.0248,0,0,1-.0011.0142l-.0028.0044-.0043-.0134L4.11,2.5877l-.0009.0055-.0014.0034.0018.0075.0031.0106.0006-.0008.0026,0,0,.0025-.0019.0029.0007.0018.0013.0012h0l.0015-.0005.0029-.0033.0008-.0114.0016-.0022.0021.0016h0l0-.0086-.0007-.01a.0737.0737,0,0,1,.0011-.0139l-.0009.0006-.0008,0H4.1226l-.0011-.002L4.12,2.5875Z"/><polygon points="4.123 2.574 4.124 2.574 4.125 2.574 4.125 2.573 4.124 2.571 4.121 2.572 4.121 2.572 4.122 2.574 4.123 2.574"/><rect x="4.1039" y="2.5855" width="0.009" height="0.008"/><path d="M4.1368,2.5936l-.0028.009-.0012.0024-.003.0076,0,.0016-.0011.0032L4.1238,2.62l0-.0008a.026.026,0,0,0,.001-.0133l-.0018.0076-.0027.0043v0l-.0016.0035v0l.0022-.0011.0012.0024,0,.001.01-.0048.0013-.004,0-.0019L4.1346,2.61,4.134,2.603l.0017-.0021.0019.0017v0l.0028-.0084.0022-.0074.006-.0118-.0022-.0036-.0073.0141Z"/><polygon points="4.15 2.573 4.15 2.57 4.147 2.571 4.147 2.571 4.149 2.575 4.15 2.573"/><polygon points="4.123 2.605 4.121 2.607 4.121 2.618 4.123 2.614 4.125 2.606 4.125 2.606 4.123 2.605"/><path d="M4.1545,2.5849l-.0052.0085a.0419.0419,0,0,0,.0017.0328l0-.0006.0021-.0015.0014.0023-.0011.0053.0022.0035.0015.0008h.0006l.0032-.0029L4.16,2.6278l.0013-.0023.0023.0014V2.6235l.0015-.01.0029-.0057,0-.0011-.0007-.0031-.0054.0087L4.16,2.6232v.0017L4.1592,2.63l-.0014.0018a.0428.0428,0,0,1-.0051-.0367L4.1551,2.59V2.5856Z"/><path d="M4.1587,2.5848h0Z"/><polygon points="4.158 2.584 4.155 2.584 4.154 2.585 4.155 2.586 4.155 2.59 4.158 2.586 4.159 2.585 4.159 2.585 4.158 2.584"/><rect x="4.1668" y="2.6022" width="0.004" height="0.0044" transform="translate(-0.5296 4.049) rotate(-49.0856)"/><path d="M4.1724,2.66l-.0037.0024L4.167,2.6439l-.0033-.0168-.0013.0046-.0013.0014.0022.0112.0018.0207,0,0,.0025-.0008.0009.0023,0,.0007.0065-.0034,0,0,0-.0022.0014-.0028.0021.0016h0l.0048-.01.0043-.0174L4.1864,2.63l-.0023-.0007-.0047.0194Z"/><polygon points="4.186 2.629 4.186 2.627 4.186 2.626 4.184 2.628 4.184 2.629 4.186 2.63 4.186 2.629"/><polygon points="4.164 2.627 4.164 2.627 4.161 2.626 4.16 2.628 4.161 2.633 4.162 2.632 4.164 2.627"/><path d="M4.1876,2.63l0,.0023.0014.0053.0026.0125-.0029.0089-.0008.0014a.0427.0427,0,0,0-.0041.0217l0-.0007L4.18,2.6706,4.1781,2.66l-.0031.0034.0013.0081.0032.012.0016.0023V2.685l.0023-.0016.0013.0022,0,.0034h0l.0013.0005.0008,0,.001-.0018a.0438.0438,0,0,1,.0034-.0252l.0007-.0014.0033-.01-.0025-.0137L4.19,2.63H4.1876Z"/><polygon points="4.187 2.627 4.187 2.627 4.188 2.628 4.188 2.63 4.189 2.63 4.19 2.63 4.19 2.629 4.187 2.627"/><polygon points="4.187 2.633 4.188 2.63 4.187 2.63 4.187 2.633"/><polygon points="4.176 2.658 4.174 2.66 4.175 2.663 4.178 2.66 4.178 2.66 4.176 2.658"/><polygon points="4.186 2.629 4.186 2.63 4.188 2.63 4.188 2.628 4.187 2.627 4.186 2.629"/><path d="M4.179,2.6975l-.001.0079-.0031.0127-.0044.0052-.002-.0139-.0052-.0307.005-.0119-.0006,0H4.1663l-.0011-.0017v0L4.16,2.6776v0l.0026-.0006.0006.0026L4.16,2.6835l.0046.0264.0025.0171.0009.0015.0008,0,.001,0L4.176,2.723,4.1748,2.72l.0011-.0025.0023.0011,0,.0008.0032-.0134.001-.0077.0016-.0091-.0032-.0034Z"/><polygon points="4.168 2.664 4.165 2.665 4.165 2.665 4.165 2.665 4.165 2.667 4.167 2.667 4.168 2.667 4.168 2.667 4.169 2.666 4.168 2.664"/><polygon points="4.183 2.683 4.181 2.685 4.181 2.686 4.184 2.689 4.185 2.686 4.183 2.683"/><path d="M4.1537,2.6688l-.0018-.0175a.0928.0928,0,0,1,.0017-.02L4.151,2.6262a.1138.1138,0,0,0-.0029.0251v.0049l.0009-.0007.0026.0005,0,.0025L4.1485,2.66,4.15,2.67l.0025.0081v0l.002-.0016.0017.0019-.0007.0064v0l0-.0007.0025-.0012.0011.0024h0L4.16,2.6835,4.16,2.6788V2.6776l-.0017.0029Z"/><polygon points="4.155 2.626 4.153 2.624 4.151 2.626 4.151 2.626 4.154 2.632 4.155 2.626"/><polygon points="4.16 2.679 4.16 2.684 4.163 2.679 4.163 2.677 4.16 2.677 4.16 2.678 4.16 2.678 4.16 2.679"/><path d="M4.1381,2.6661l-.001-.0086a.1078.1078,0,0,1,0-.02l.0009-.017a.1467.1467,0,0,0-.0008-.0174l0,.0005-.0014.003L4.1346,2.61l0,.01-.0009.0168a.1049.1049,0,0,0-.0005.0206l.0008.0075.0015-.0019.0021.0014v.0023h0l.002.0018V2.67l.0036-.0049L4.1485,2.66l0-.0042-.007.0062Z"/><polygon points="4.136 2.601 4.134 2.603 4.135 2.61 4.136 2.607 4.137 2.604 4.138 2.603 4.138 2.603 4.136 2.601"/><polygon points="4.151 2.659 4.152 2.656 4.149 2.656 4.148 2.656 4.148 2.66 4.151 2.659"/><path d="M4.1353,2.6716l-.001-.0063h0l0,.006-.005.0074-.0042-.0156a.0825.0825,0,0,1-.0043-.0309l.0017-.008-.0014,0h0l-.0015-.0008V2.6222l-.002.01a.0769.0769,0,0,0,.0029.0267l.0051.0058V2.667l-.0012.0006-.001,0-.0007-.0008.0044.0157.0005.0011.0011,0,.0011,0,.0014-.001,0-.0038.0017-.0021.0021.0018v.0008l.0026-.0044V2.6734Z"/><polygon points="4.121 2.621 4.119 2.622 4.119 2.624 4.121 2.624 4.121 2.624 4.122 2.624 4.122 2.624 4.121 2.621"/><polygon points="4.137 2.673 4.136 2.669 4.138 2.667 4.138 2.666 4.136 2.663 4.134 2.665 4.135 2.672 4.137 2.673"/><path d="M4.1092,2.6383a.0276.0276,0,0,1,.0048-.0194l-.0016-.0042a.0348.0348,0,0,0-.0072.0213l0,0,.0027,0,0,.0026-.0025.0028.0056.0123,0-.0007.0023-.0014.0016.0012-.0011.0052.0073.0093-.0007-.0025L4.12,2.6586l-.0039-.0057A.04.04,0,0,1,4.1092,2.6383Z"/><polygon points="4.116 2.614 4.113 2.614 4.113 2.614 4.114 2.619 4.116 2.616 4.116 2.614"/><polygon points="4.122 2.667 4.122 2.667 4.123 2.668 4.125 2.667 4.125 2.664 4.12 2.659 4.121 2.664 4.122 2.667"/><path d="M4.0963,2.6455,4.0944,2.632l0,.0007-.0025.0061.0013.0105.0011.0016h.0015l.0067-.0061.0037-.0041,0-.0017,0-.003L4.1,2.6422Z"/><path d="M4.0934,2.63l.0006.0006-.0006-.0045,0-.002-.0016-.0108.0007-.0075,0-.0009L4.09,2.5987v0l-.0027.0154.0016.0115,0,.002.0009.0047,0-.0007Z"/><polygon points="4.092 2.605 4.092 2.606 4.094 2.599 4.093 2.596 4.091 2.598 4.09 2.598 4.09 2.599 4.092 2.605"/><polygon points="4.106 2.641 4.108 2.638 4.109 2.636 4.106 2.636 4.105 2.636 4.105 2.639 4.106 2.641"/><polygon points="4.09 2.646 4.091 2.642 4.092 2.639 4.091 2.632 4.087 2.641 4.089 2.645 4.09 2.646"/><path d="M4.1122,2.6705l.0024-.0132-.0018-.0024L4.1116,2.653l-.003.0169-.0014.015v.0036l0-.0012.0031.0005,0,0V2.6851Z"/><path d="M4.0942,2.6313l0,.0007Z"/><path d="M4.1072,2.6888V2.69l-.0061-.0057a.0452.0452,0,0,1-.01-.0157A.0408.0408,0,0,1,4.09,2.6461l0,.0008-.0012.0007-.0018-.0008,0,0a.0437.0437,0,0,0,.0013.0239l.0018.0039V2.6735l.0023-.0012.0013.0022-.001.0045.0063.0081.0077.0077.0007-.0013.0025-.0007.0007.0026-.0009.0016h0l.0009,0,.0009-.0014-.0035-.0062Z"/><polygon points="4.115 2.657 4.115 2.653 4.114 2.651 4.112 2.652 4.112 2.653 4.113 2.655 4.115 2.657"/><polygon points="4.094 2.633 4.094 2.632 4.094 2.632 4.093 2.63 4.091 2.631 4.091 2.632 4.092 2.639 4.094 2.633"/><path d="M4.1072,2.6888v0Z"/><path d="M4.13,2.6824q0,.0068,0,.0135L4.13,2.7088,4.1188,2.7l-.0079-.0114v.0072l.0052.0067.0083.0075V2.7091l.0015-.0022.0021.0015,0,.0041.0012.0007.0015,0h.0009l.0009-.0013.0016-.0163a.1353.1353,0,0,0,0-.0169Z"/><polygon points="4.132 2.677 4.13 2.679 4.13 2.682 4.134 2.679 4.134 2.678 4.132 2.677"/><polygon points="4.108 2.687 4.107 2.689 4.107 2.689 4.107 2.689 4.111 2.695 4.111 2.695 4.111 2.688 4.111 2.688 4.108 2.687"/><path d="M4.09,2.646h0Z"/><path d="M4.0871,2.641l-.0052-.009a.102.102,0,0,1-.0081-.022l-.0027.0043.0071.0185.0005-.0009L4.08,2.6308l.0016.003L4.08,2.6367l.0057.0094.0012-.0049Z"/><path d="M4.07,2.6087h0Z"/><polygon points="4.07 2.61 4.071 2.614 4.074 2.61 4.073 2.609 4.071 2.608 4.07 2.609 4.07 2.609 4.07 2.61"/><polygon points="4.089 2.645 4.087 2.641 4.087 2.641 4.086 2.646 4.086 2.647 4.087 2.648 4.089 2.647 4.09 2.646 4.09 2.646 4.089 2.645"/><path d="M4.08,2.6367l-.0016-.003,0-.0009-.0065.0124-.0032.0071-.0034-.01-.0026-.01-.0016.0044H4.063l0,.0026-.0022.0026,0,.0017.0052.0149v0l.0016-.002.002.0015v.0006l.0048-.0108Z"/><polygon points="4.06 2.63 4.059 2.632 4.06 2.637 4.06 2.636 4.061 2.636 4.062 2.632 4.062 2.631 4.06 2.63"/><rect x="4.0778" y="2.6311" width="0.0047" height="0.0039" transform="translate(-0.4372 0.8513) rotate(-11.3099)"/><path d="M4.0547,2.6426h0l.0018.0019v.001l.0048-.0043L4.06,2.6377l-.0017.0013h0L4.052,2.644l-.01.0039-.0029.0005.0005,0,.0038-.0071-.0021-.0055-.0047.01L4.0327,2.65l0,.0022.0017.001h0l.0084-.002.01-.0034,0-.0035Z"/><polygon points="4.045 2.636 4.044 2.634 4.041 2.635 4.041 2.635 4.043 2.641 4.045 2.636"/><polygon points="4.058 2.639 4.058 2.639 4.059 2.639 4.06 2.638 4.06 2.637 4.058 2.639"/><polygon points="4.063 2.639 4.063 2.636 4.061 2.636 4.06 2.638 4.06 2.638 4.061 2.641 4.063 2.639"/><polygon points="4.061 2.636 4.061 2.636 4.06 2.637 4.06 2.638 4.06 2.638 4.061 2.636"/><path d="M4.0578,2.6819l.0022.0014,0,.001.0006-.0007.0072-.01-.0016-.0065.0015-.0022.0021.0016v0l0-.0086,0,0-.0016.0011-.0017-.0011v0l-.001.0113-.0073.0117-.0142.0136a.12.12,0,0,0,.0107-.0334l.0015-.0155-.0026.0017-.0008,0L4.0513,2.66a.1161.1161,0,0,1-.0146.04l0,.0022.0008.0005.0015,0,.0177-.0152-.0007-.0035Z"/><polygon points="4.068 2.656 4.067 2.658 4.067 2.658 4.067 2.658 4.068 2.659 4.07 2.658 4.07 2.658 4.07 2.657 4.068 2.656"/><polygon points="4.056 2.646 4.056 2.645 4.055 2.643 4.055 2.643 4.053 2.644 4.053 2.648 4.054 2.647 4.056 2.646"/><path d="M4.0846,2.6967l0-.0007.0024-.0017.0012.0023-.0006.0014L4.09,2.7l.0016.0007h.001l.001-.0023a.0477.0477,0,0,1-.0018-.0145l.0006-.0049-.0027-.0049-.0016.01.0008.0113-.0015-.0012a.046.046,0,0,1-.0111-.0121L4.07,2.6663,4.0692,2.67l-.0012.003.0046.01A.0517.0517,0,0,0,4.0846,2.6967Z"/><polygon points="4.093 2.675 4.092 2.672 4.089 2.674 4.089 2.674 4.092 2.679 4.093 2.675"/><rect x="4.0653" y="2.6649" width="0.0061" height="0.0055" transform="translate(-0.7717 2.1757) rotate(-27.4491)"/><polygon points="4.085 2.697 4.085 2.697 4.083 2.7 4.085 2.701 4.086 2.702 4.088 2.699 4.085 2.697"/><path d="M4.073,2.7154l.0024.0011v0l.0088-.0107-.0022-.0037-.0009.0018a.0554.0554,0,0,1-.012.0133l-.0073.0058a.1123.1123,0,0,0,.0005-.0246L4.06,2.6843l-.0031.0033.0017.0115a.1186.1186,0,0,1-.0011.0279l.0009.0019.0009,0,.0011,0,.011-.0085L4.0725,2.72l-.0006-.0018Z"/><polygon points="4.06 2.683 4.058 2.682 4.056 2.684 4.057 2.688 4.06 2.684 4.06 2.683"/><polygon points="4.088 2.699 4.088 2.697 4.087 2.694 4.085 2.695 4.085 2.697 4.085 2.697 4.088 2.699"/><polygon points="4.099 2.713 4.098 2.716 4.091 2.709 4.086 2.702 4.084 2.706 4.084 2.706 4.089 2.712 4.096 2.719 4.097 2.718 4.099 2.716 4.1 2.719 4.1 2.72 4.1 2.721 4.101 2.721 4.101 2.72 4.099 2.714 4.099 2.713"/><path d="M4.1089,2.697l-.001,0-.002-.0019L4.1,2.708l-.0009.0043L4.1,2.7115l.0024.0009,0,0,.001-.0038Z"/><polygon points="4.083 2.7 4.082 2.702 4.082 2.702 4.083 2.7 4.083 2.7"/><polygon points="4.109 2.697 4.109 2.696 4.109 2.693 4.107 2.694 4.106 2.694 4.107 2.696 4.109 2.697"/><polygon points="4.086 2.702 4.085 2.701 4.083 2.7 4.082 2.702 4.084 2.706 4.084 2.706 4.086 2.702"/><path d="M4.078,2.749l.0021.0015v.0009a.0711.0711,0,0,0,.0166-.0229L4.1,2.7209H4.0992l-.0028-.002-.0029.0081a.0692.0692,0,0,1-.0157.0218l.0014-.012a.0537.0537,0,0,0-.0037-.02l-.003.0027.003.0172-.0029.0169.0007.0021.0007,0,.0012,0,.0018-.0015,0-.0033Z"/><polygon points="4.075 2.717 4.073 2.715 4.072 2.718 4.072 2.72 4.075 2.717 4.075 2.717"/><rect x="4.0965" y="2.716" width="0.0041" height="0.0045" transform="translate(0.2237 5.7469) rotate(-71.5651)"/><path d="M4.099,2.7133l0-.001Z"/><path d="M4.1066,2.7481l-.0019-.0013.0012-.0022.0016-.0008a.1219.1219,0,0,0,0-.0133l-.0013-.0094-.003-.0081-.0011.0062,0,.0006.0007.0022.0012.0091.0011.0144L4.09,2.7613l-.0071.01,0-.004L4.081,2.7566v.0006l-.0023.0106h0l.0007.01.0015.0017h0l.0017-.0008.01-.0149.0145-.0157,0,0Z"/><polygon points="4.08 2.755 4.081 2.756 4.08 2.751 4.077 2.754 4.077 2.757 4.077 2.756 4.08 2.755"/><polygon points="4.1 2.712 4.099 2.712 4.099 2.713 4.099 2.714 4.101 2.72 4.102 2.719 4.103 2.713 4.102 2.712 4.1 2.712"/><polygon points="4.08 2.751 4.078 2.749 4.076 2.751 4.077 2.754 4.08 2.751 4.08 2.751"/><polygon points="4.124 2.719 4.121 2.722 4.118 2.728 4.116 2.732 4.113 2.738 4.109 2.743 4.108 2.743 4.108 2.746 4.108 2.747 4.108 2.748 4.111 2.746 4.113 2.745 4.112 2.74 4.114 2.738 4.116 2.74 4.116 2.741 4.116 2.74 4.119 2.734 4.121 2.729 4.123 2.726 4.122 2.724 4.122 2.722 4.125 2.722 4.125 2.723 4.127 2.72 4.128 2.713 4.124 2.71 4.124 2.719"/><polygon points="4.126 2.707 4.124 2.709 4.124 2.71 4.128 2.713 4.128 2.708 4.126 2.707"/><polygon points="4.108 2.746 4.108 2.743 4.106 2.745 4.105 2.747 4.107 2.748 4.107 2.748 4.107 2.748 4.108 2.748 4.108 2.746"/><path d="M4.1527,2.6778a.0721.0721,0,0,1-.0069.0261l-.0019.0033-.0008-.0111L4.1421,2.69l-.0013-.0087,0-.012-.0016.0026-.0015.0007-.0006.0018,0,.0073.0014.009.001.0056.0011.017h0l0-.0008.0023-.0012.0012.0021v0l.005-.0086.0043-.0114.0023-.0093V2.6841Z"/><polygon points="4.156 2.678 4.155 2.676 4.153 2.677 4.153 2.678 4.156 2.684 4.156 2.678"/><polygon points="4.138 2.667 4.138 2.667 4.137 2.672 4.137 2.673 4.139 2.672 4.14 2.67 4.14 2.669 4.138 2.667"/><polygon points="4.137 2.673 4.137 2.673 4.137 2.675 4.137 2.673 4.137 2.673 4.137 2.673"/><polygon points="4.138 2.667 4.136 2.669 4.137 2.673 4.137 2.673 4.137 2.673 4.137 2.673 4.137 2.672 4.138 2.667"/><path d="M4.176,2.723l.003.01.0013.0054L4.168,2.73a.04.04,0,0,1-.01-.02A.0452.0452,0,0,1,4.16,2.6849v0l-.001.0009H4.1578l-.0017-.001V2.6845l0,0-.0023.0093a.046.046,0,0,0,.0008.0175.0449.0449,0,0,0,.0083.0181V2.7288l.0021-.0016.0016.002,0,.0039a.0435.0435,0,0,0,.0163.01h.0007L4.184,2.743l.0006-.0011-.002-.01-.0041-.0131,0,.0009Z"/><polygon points="4.176 2.717 4.175 2.72 4.176 2.723 4.178 2.72 4.178 2.72 4.178 2.719 4.176 2.717"/><polygon points="4.158 2.682 4.156 2.684 4.156 2.684 4.156 2.685 4.158 2.686 4.158 2.686 4.159 2.685 4.16 2.685 4.16 2.685 4.158 2.682"/><path d="M4.1557,2.6847l-.0023.0093Z"/><path d="M4.1625,2.73a.0535.0535,0,0,0,.0016.0278l.0035.01,0,.0014-.0141-.016a.0588.0588,0,0,1-.0094-.0152.0427.0427,0,0,1,0-.0233l0,.0006-.0015.0009h0l-.0014-.001a.04.04,0,0,0,0,.024l.0022.0048.0007-.0011.0027,0,0,.0027-.0011.0013.0053.0087.01.0119.001-.0009h.0031l0,.002-.002.0018.007.0073.0013.0005.0008,0,.001-.0021L4.1711,2.766l-.0037-.01a.0466.0466,0,0,1-.0016-.0226h0Z"/><polygon points="4.143 2.712 4.141 2.713 4.141 2.713 4.142 2.715 4.142 2.716 4.143 2.715 4.144 2.714 4.144 2.714 4.143 2.712"/><polygon points="4.165 2.727 4.163 2.729 4.162 2.73 4.165 2.733 4.166 2.733 4.166 2.729 4.165 2.727"/><polygon points="4.138 2.751 4.136 2.745 4.136 2.745 4.135 2.753 4.136 2.757 4.138 2.758 4.138 2.758 4.139 2.757 4.143 2.749 4.145 2.747 4.143 2.743 4.14 2.748 4.138 2.751"/><path d="M4.135,2.7429l.0008,0-.0036-.0087-.0067-.0114-.0013.0016-.0012.0014.0059.01.0037.0087V2.7443Z"/><polygon points="4.122 2.722 4.122 2.724 4.123 2.726 4.124 2.725 4.125 2.724 4.125 2.722 4.122 2.722"/><polygon points="4.147 2.745 4.147 2.742 4.144 2.742 4.143 2.743 4.145 2.747 4.147 2.745"/><path d="M4.1221,2.7761,4.1184,2.759l-.0025-.0184-.0033.0042.0021.0149.0044.02h0l.0018-.0018.002.0017V2.78l.0059-.0055.0038-.0057-.0013-.0063v0l-.0053.01Z"/><polygon points="4.114 2.738 4.112 2.74 4.113 2.745 4.116 2.741 4.116 2.74 4.114 2.738"/><path d="M4.136,2.7437l0,.0009Z"/><path d="M4.151,2.7843l0,.0064-.01-.0138a.0332.0332,0,0,1-.0054-.0147V2.7557l0-.0026L4.1326,2.745l-.0013.0106v.0063l.0023-.0013.0013.0022-.0024.006.0046.01.002.0029,0-.0007.0024-.001.0011.0024-.0015.003.01.012.0008.0005h.0011l.0014-.0013a.0272.0272,0,0,1,0-.0113.0278.0278,0,0,1,.0088-.0157l-.0026-.0028A.0329.0329,0,0,0,4.151,2.7843Z"/><polygon points="4.165 2.766 4.162 2.765 4.161 2.767 4.163 2.769 4.164 2.769 4.165 2.766"/><polygon points="4.136 2.745 4.136 2.744 4.135 2.743 4.133 2.744 4.133 2.745 4.135 2.753 4.136 2.745 4.136 2.745"/><polygon points="4.133 2.769 4.135 2.763 4.134 2.761 4.131 2.762 4.131 2.762 4.131 2.763 4.133 2.769"/><polygon points="4.122 2.781 4.121 2.781 4.12 2.781 4.119 2.78 4.119 2.779 4.119 2.786 4.12 2.786 4.123 2.787 4.123 2.787 4.123 2.78 4.122 2.781"/><path d="M4.1317,2.7954l-.0106.0122.0013-.011,0-.0092,0,.0013L4.119,2.79l0,.0059-.0021.0158,0,.0016.0017.0005h.0008a.078.078,0,0,0,.0154-.0166l.0068-.0122-.0023-.0037Z"/><polygon points="4.12 2.781 4.121 2.781 4.122 2.781 4.123 2.78 4.123 2.779 4.121 2.777 4.119 2.779 4.119 2.779 4.119 2.78 4.12 2.781"/><polygon points="4.142 2.78 4.139 2.781 4.139 2.782 4.141 2.785 4.143 2.782 4.142 2.78"/><path d="M4.1191,2.7862,4.1117,2.79l-.0132.0071a.1048.1048,0,0,1-.0219.01l-.0038.001,0,.004L4.0776,2.81A.1121.1121,0,0,0,4.1,2.8h0l.0005-.0036.002-.0016.0016.002v.0009l.009-.0046L4.119,2.79Z"/><path d="M4.1229,2.7873h0Z"/><polygon points="4.123 2.787 4.123 2.787 4.123 2.787 4.12 2.786 4.119 2.786 4.119 2.79 4.122 2.789 4.123 2.787"/><path d="M3.9734,2.8157l-.01-.0045-.0007.0036.0093.0044.0155.004V2.82Z"/><polygon points="4.017 2.819 4.007 2.82 4.007 2.824 4.018 2.823 4.017 2.821 4.017 2.819"/><polygon points="3.992 2.82 3.992 2.824 4.001 2.824 4.002 2.824 4.002 2.821 3.992 2.82"/><polygon points="4.005 2.821 4.005 2.824 4.006 2.824 4.007 2.82 4.005 2.821"/><polygon points="3.99 2.82 3.987 2.82 3.987 2.823 3.99 2.824 3.99 2.82"/><polygon points="3.992 2.82 3.99 2.82 3.99 2.824 3.992 2.824 3.992 2.82"/><polygon points="4.002 2.824 4.005 2.824 4.005 2.821 4.002 2.821 4.002 2.824"/><polygon points="3.962 2.811 3.96 2.81 3.96 2.814 3.963 2.815 3.963 2.811 3.962 2.811"/><path d="M4.0181,2.8023l-.0037-.01-.0026-.0071a.0749.0749,0,0,1,0-.0237l.0026-.0185-.0014-.0021-.0021.0014-.0028.019-.001.0123v.0056l.0009.0067.0029.0081.0034.0093.0014.0079.0013.0082.0017,0,.0022.0014-.0016-.01Z"/><path d="M4.0772,2.9381l-.0012,0-.0029-.0008L4.07,2.9353,4.0666,2.933,4.0577,2.93l-.0135-.0024H4.0409l-.0035,0-.0048-.0047A.0211.0211,0,0,1,4.0308,2.91l.0009-.0232,0-.0009L4.03,2.8853l-.0061,0,.0049-.01,0-.0012-.0016-.0015-.0059-.0007L4.0265,2.86l0-.0018-.0016-.0007H4.0205l.0053-.01V2.846L4.024,2.845l-.0055,0,.0047-.0116,0-.0007-.0023-.0124h0L4.02,2.8226l-.0012,0,.0011.01-.0057.0136,0,.0013.0019.0014.0054,0-.0051.01v.0019l.001.0008h.005l-.0049.0119,0,.0012.0011.0013.0062.0007-.005.01,0,.0012.0019.0015.0073,0L4.0272,2.91a.0244.0244,0,0,0,.0021.014l.0067.0064.005.0006h.0031l.0126.0022.0081.0028.0034.0022.0035.002.0053.0009.0057-.001-.0033-.0015Z"/><path d="M4.0836,2.9366l0,0Z"/><path d="M4.0073,2.7791v0Z"/><polygon points="4.021 2.82 4.021 2.82 4.019 2.819 4.017 2.819 4.017 2.82 4.018 2.822 4.02 2.823 4.021 2.82"/><path d="M4.0787,2.7678l-.0013-.0111-.0056.028c-.0024.0168-.0032.0293-.0038.0385,0,.0057-.0013.0251,0,.04l.0014.0136,0,.0063,0,.0027.0076.004.0131.004.0112.0051.01.0055.0067.008.0019.0019.001,0h.0014l-.0009-.003-.0078-.0094-.01-.006L4.0914,2.89l-.0138-.0041-.0045-.0017v-.001l-.0005-.0071-.0013-.0133c-.0008-.0148,0-.0341,0-.04l.0009-.0118-.0014,0h0l-.0017-.0015L4.07,2.8083l.0024-.0006.0027-.0224Z"/><rect x="4.1227" y="2.9179" width="0.0002" height="0.0001"/><path d="M4.081,2.7563v0Z"/><polygon points="4.081 2.757 4.081 2.756 4.08 2.755 4.077 2.756 4.077 2.757 4.079 2.768 4.081 2.757 4.081 2.757"/><polygon points="4.069 2.811 4.07 2.812 4.071 2.812 4.072 2.812 4.073 2.808 4.07 2.808 4.069 2.811"/><path d="M4.0894,2.9355l-.0008,0-.001-.0024.0006-.0017L4.0837,2.927,4.078,2.9257h0L4.0738,2.93v.0059l.001.0012.0075-.0005h.0012l-.0022-.0011-.0033-.0009-.0009,0v-.003l.0018-.0021.0028.0011.0072.0069.0017.0054L4.084,2.9369l.0006,0L4.0835,2.94l-.0008,0,.005.0044L4.09,2.95l.0017.0013h0L4.0938,2.95a.0217.0217,0,0,0-.0015-.0149l-.001-.0015,0,.0006Z"/><polygon points="4.085 2.938 4.084 2.937 4.084 2.937 4.082 2.937 4.075 2.938 4.077 2.938 4.079 2.939 4.083 2.94 4.083 2.94 4.085 2.938"/><path d="M4.106,2.9276h0L4.104,2.926,4.1029,2.92,4.1,2.9186l-.0057-.0014h0L4.09,2.9215,4.09,2.9246l.0021.0043,0,0,.0025,0L4.1,2.9286h.0009l-.0027-.0015-.0035-.001-.001,0V2.9229l.001-.002.0036.0009.0071.0069.0017.0054-.0057-.0052.0007.0011-.0013.0022-.0009,0,.0042.0038.0025.0056.0017.0014h0L4.11,2.9419a.0215.0215,0,0,0-.0015-.0148l-.0011-.0017v0Z"/><path d="M4.121,2.92h0l-.0018-.0016-.0013-.0056h0l-.0029-.0019-.0057-.0013-.0043.0043,0,.0013.0026.0063.0007,0,.0034,0,.0045,0h.0008l-.0046-.0024-.0018,0-.0018-.0005V2.915L4.11,2.9128h0l.0026.0011.0071.0069.0017.0054-.0044-.0043,0,.001-.0016.0021H4.1155l.0034.0032.0024.0056.0018.0013h0l.0017-.0012a.02.02,0,0,0-.0014-.0149l0-.0006ZM4.11,2.911h0Z"/><polygon points="4.12 2.918 4.119 2.916 4.12 2.914 4.118 2.913 4.118 2.913 4.119 2.918 4.121 2.92 4.121 2.92 4.123 2.918 4.123 2.918 4.12 2.918"/><path d="M4.1386,2.9107h0L4.135,2.91l-.0011-.0025.0008-.0009V2.905l-.0035-.0026-.0057-.0013h0l-.0043.0042,0,.006.0033.0021.0019.0006.0055-.0008h.0009l-.0048-.0025L4.1265,2.91l-.0018,0V2.9067l.0019-.0022.0027.0011.0072.007.0016.0053L4.134,2.9138l0,0-.0014.0026H4.1324l.0029.0032.0024.0056.0018.0014h0l.0017-.0014A.02.02,0,0,0,4.14,2.9109H4.1386Z"/><path d="M4.1521,2.9029h0L4.15,2.9017l-.0028-.0065h0l-.0056-.0012h0l-.0044.0042-.0006.0029.0029.0048.0012,0,.002.0006.0036-.0015h.0018l-.003-.0017-.0034-.0011-.0011,0V2.9l.0019-.0021.0027.001.0072.007.0017.0052-.0058-.0051,0,0,0,.0028-.0012.0005.0043.0038.0023.0056.0018.0013h0l.0018-.0012a.0207.0207,0,0,0-.0014-.015L4.1533,2.9l0,0Z"/><path d="M3.9756,2.9046l-.001,0L3.973,2.904l-.006-.008-.0017,0L3.96,2.9l-.0007.003.0022.0037,0,.0008.0017.0006.0022.0007.0013.0006h.0005l.0038-.0006L3.974,2.91l-.0013.0023h0l.0019.0023.0025.0055.0017.0015h0L3.98,2.9215a.0211.0211,0,0,0-.0012-.0155l-.0027-.0038Zm-.0083.0011-.0018-.0006-.0018-.0006V2.9018L3.9656,2.9h0l.0026.0011.0072.0069.0017.0053Z"/><path d="M3.9613,2.9153h0l-.0019-.0018-.0009-.0049-.0006-.0012-.0022-.0013L3.95,2.9042h0l-.0043.0044,0,.006.0032.0021.0007,0h.0085l-.0056-.0032L3.95,2.9131l-.0011,0V2.91L3.95,2.9078l.0029.0011.0072.0069.0016.0053-.0036-.0035.0005.0006-.0015.0024H3.9566l.0025.0026.0025.0055.0017.0015h0l.0019-.0014a.0212.0212,0,0,0-.0015-.0147L3.963,2.9131v0Z"/><path d="M3.9456,2.9242h0l-.002-.0013L3.94,2.9161l-.0005,0-.0057-.0013h0L3.93,2.9187l-.0005.0029.002.0046.0006,0,.0027,0h.0061l.0007,0L3.937,2.9241l-.002-.0007-.0017,0V2.92l.0011-.0018.0036.0008.0072.0071.0015.0051-.0046-.0043.0005.0007L3.9407,2.93H3.94l.0038.0036.0024.0054.0017.0015h0L3.95,2.94a.0215.0215,0,0,0-.0013-.0156l-.0017-.0026v0Z"/><path d="M3.9311,2.9329h0l-.0016-.0017-.0024-.0069-.0015-.001L3.919,2.9217h0l-.0044.0044,0,.0048.0007.0015.0031.0018h.0024l.0067,0,.0006,0-.0061-.0036-.0026-.0007-.0011,0v-.003l.0019-.002.0027.0011.0073.007.0016.0052-.0031-.0034,0,.0014-.0019.0017H3.9262l.0026.0026.0022.0054.0019.0014h0l.0018-.0013a.02.02,0,0,0-.0014-.0148l-.0007-.001v0Z"/><path d="M3.9141,2.9424h0L3.9124,2.94l0-.0045-.0037-.0024-.0057-.0015h0l-.0043.0043v.0062l0,0,.0007,0,.0083,0,.0012,0-.0035-.0017-.0018-.0007-.0018,0V2.9374l.0012-.002.0035.0009.0071.007.0017.0053-.0061-.0053.0006.0005-.0013.0028H3.9077l.0049.0043.0023.0053.0018.0015h0l.0015-.0005a.0209.0209,0,0,0-.0012-.0156L3.9161,2.94v0Z"/><polygon points="4.091 2.934 4.092 2.933 4.09 2.933 4.091 2.934"/><path d="M4.0859,2.9211l-.0083-.0052L4.0709,2.913l-.0024.0013.0011.0023.0064.0025.0075.0049.0047.0058V2.93h0L4.09,2.929h.0014v0l-.0009-.0008L4.09,2.9246Z"/><polygon points="4.09 2.933 4.088 2.931 4.088 2.931 4.088 2.93 4.088 2.933 4.089 2.935 4.089 2.936 4.091 2.935 4.091 2.934 4.09 2.933 4.09 2.933"/><polygon points="4.09 2.927 4.092 2.929 4.09 2.925 4.09 2.927"/><polygon points="4.094 2.93 4.092 2.929 4.092 2.929 4.092 2.929 4.092 2.933 4.094 2.933 4.095 2.933 4.1 2.932 4.096 2.93 4.094 2.93"/><path d="M4.1013,2.9288h0Z"/><polygon points="4.102 2.93 4.101 2.929 4.101 2.929 4.1 2.929 4.095 2.929 4.093 2.929 4.093 2.93 4.096 2.93 4.1 2.932 4.101 2.932 4.102 2.93"/><rect x="4.0879" y="2.9291" width="0.0046" height="0.0034" transform="translate(0.8754 6.8018) rotate(-85.9144)"/><polygon points="4.09 2.933 4.09 2.933 4.088 2.931 4.088 2.931 4.09 2.933"/><polygon points="4.108 2.925 4.108 2.925 4.108 2.925 4.108 2.925"/><path d="M4.0917,2.9065l-.0045-.0024-.0025.0009.0009.0025L4.09,2.91l.0109.007.002.0034.002.0018.0016-.0006h.0006v0L4.105,2.92l-.0006-.0041,0-.0006Z"/><polygon points="4.106 2.925 4.104 2.923 4.105 2.922 4.103 2.92 4.104 2.926 4.106 2.928 4.106 2.928 4.108 2.926 4.108 2.925 4.108 2.925 4.106 2.925"/><polygon points="4.105 2.919 4.106 2.921 4.104 2.915 4.105 2.919"/><polygon points="4.108 2.922 4.108 2.922 4.107 2.922 4.108 2.925 4.11 2.925 4.111 2.925 4.115 2.925 4.111 2.922 4.108 2.922"/><path d="M4.1169,2.9215l0,0Z"/><polygon points="4.118 2.923 4.117 2.922 4.117 2.922 4.116 2.921 4.111 2.922 4.108 2.922 4.108 2.922 4.111 2.922 4.115 2.925 4.116 2.925 4.118 2.923"/><polygon points="4.106 2.921 4.105 2.922 4.108 2.925 4.108 2.925 4.107 2.922 4.106 2.921"/><polygon points="4.106 2.925 4.108 2.925 4.105 2.922 4.104 2.923 4.106 2.925"/><path d="M4.1334,2.9134l0,0Z"/><polygon points="4.127 2.914 4.126 2.914 4.122 2.914 4.123 2.918 4.124 2.918 4.126 2.918 4.132 2.917 4.127 2.914 4.127 2.914"/><polygon points="4.121 2.914 4.12 2.914 4.123 2.918 4.123 2.918 4.122 2.914 4.121 2.914"/><polygon points="4.119 2.916 4.12 2.918 4.122 2.918 4.12 2.914 4.119 2.916"/><polygon points="4.134 2.915 4.134 2.914 4.133 2.913 4.132 2.913 4.127 2.914 4.127 2.914 4.132 2.917 4.133 2.917 4.134 2.915"/><polygon points="4.142 2.907 4.141 2.907 4.14 2.907 4.14 2.908 4.14 2.91 4.14 2.911 4.14 2.911 4.141 2.911 4.147 2.909 4.143 2.907 4.142 2.907"/><path d="M4.1479,2.9054h0Z"/><rect x="4.1392" y="2.9102" width="0.0004" height="0.0007" transform="translate(-0.708 1.4584) rotate(-18.4349)"/><polygon points="4.137 2.909 4.135 2.906 4.134 2.907 4.135 2.91 4.138 2.911 4.137 2.909"/><polygon points="4.149 2.906 4.148 2.906 4.148 2.905 4.147 2.905 4.142 2.907 4.143 2.907 4.147 2.909 4.148 2.909 4.149 2.906"/><polygon points="4.128 2.893 4.119 2.889 4.116 2.89 4.118 2.892 4.126 2.896 4.131 2.9 4.134 2.905 4.136 2.906 4.14 2.907 4.139 2.906 4.137 2.904 4.136 2.901 4.133 2.897 4.128 2.893"/><polygon points="4.136 2.906 4.136 2.906 4.135 2.905 4.135 2.906 4.136 2.906"/><polygon points="4.139 2.911 4.139 2.911 4.138 2.911 4.139 2.911"/><polygon points="4.137 2.904 4.139 2.906 4.136 2.901 4.137 2.904"/><polygon points="4.14 2.91 4.141 2.909 4.14 2.907 4.136 2.906 4.14 2.91"/><polygon points="4.136 2.906 4.135 2.906 4.137 2.909 4.138 2.911 4.139 2.911 4.139 2.91 4.14 2.91 4.136 2.906 4.136 2.906"/><path d="M4.1,2.8076a.3138.3138,0,0,0,.0008.0391l.0018.0231,0,.0009.0116.0066.0056.001.0069.0017.0035.0023.0078.0049.0078.0061.0009.0013L4.1533,2.9l-.0045-.0094L4.14,2.8842l-.0077-.0051-.0042-.0025L4.12,2.8746l-.005-.0009-.0094-.005-.0018-.0223a.2961.2961,0,0,1-.0007-.0385l.0009-.01L4.1005,2.8Z"/><polygon points="4.103 2.795 4.101 2.797 4.1 2.8 4.104 2.798 4.104 2.797 4.103 2.795"/><polygon points="4.147 2.895 4.15 2.902 4.152 2.903 4.152 2.903 4.153 2.901 4.153 2.9 4.147 2.895"/><path d="M3.909,2.9432h0Z"/><path d="M3.902,2.9441l-.0032-.0017L3.896,2.9408a.0759.0759,0,0,0-.02-.0089l-.021-.0064a.1088.1088,0,0,0-.0249,0l-.0143,0-.0111,0a.0223.0223,0,0,1-.0128-.0028l-.0041-.0039-.0007-.0084v0l.0011-.0132.0009-.0064.0033-.0083L3.79,2.8792l-.0045.01L3.784,2.897,3.7831,2.91V2.91a.0172.0172,0,0,0,.001.0106l.0056.0052a.0275.0275,0,0,0,.0149.0032l.011,0,.0143,0a.1012.1012,0,0,1,.0241,0l.0206.0063.0186.0078.0056.0031.0054.0008.0036,0-.0034-.0019Z"/><polygon points="3.793 2.88 3.793 2.878 3.791 2.877 3.79 2.879 3.792 2.882 3.793 2.88"/><polygon points="3.91 2.944 3.909 2.943 3.909 2.943 3.908 2.943 3.9 2.943 3.899 2.942 3.902 2.944 3.904 2.945 3.908 2.947 3.909 2.947 3.91 2.944"/><polygon points="3.905 2.922 3.895 2.918 3.893 2.92 3.894 2.922 3.903 2.925 3.909 2.93 3.912 2.934 3.912 2.936 3.912 2.936 3.914 2.934 3.915 2.934 3.915 2.933 3.915 2.932 3.915 2.932 3.914 2.931 3.911 2.927 3.905 2.922"/><polygon points="3.916 2.94 3.916 2.938 3.914 2.938 3.916 2.94"/><polygon points="3.915 2.932 3.914 2.931 3.915 2.932 3.915 2.932"/><polygon points="3.914 2.938 3.912 2.936 3.912 2.936 3.912 2.936 3.912 2.94 3.914 2.942 3.914 2.942 3.916 2.941 3.916 2.94 3.914 2.938 3.914 2.938"/><path d="M3.9278,2.9349l.0007,0Z"/><polygon points="3.918 2.934 3.917 2.934 3.916 2.938 3.92 2.938 3.926 2.938 3.92 2.935 3.918 2.934"/><polygon points="3.927 2.938 3.929 2.937 3.929 2.936 3.928 2.935 3.927 2.935 3.92 2.934 3.919 2.934 3.92 2.935 3.926 2.938 3.927 2.938 3.927 2.938"/><polygon points="3.914 2.934 3.912 2.936 3.914 2.937 3.916 2.938 3.916 2.934 3.914 2.934"/><polygon points="3.914 2.938 3.914 2.938 3.912 2.936 3.912 2.936 3.914 2.938"/><polygon points="3.921 2.914 3.913 2.91 3.911 2.911 3.912 2.913 3.919 2.918 3.924 2.921 3.927 2.924 3.929 2.927 3.93 2.927 3.931 2.927 3.931 2.926 3.93 2.925 3.929 2.922 3.926 2.918 3.921 2.914"/><polygon points="3.933 2.931 3.932 2.93 3.932 2.93 3.933 2.931"/><polygon points="3.93 2.925 3.931 2.926 3.929 2.922 3.93 2.925"/><polygon points="3.93 2.93 3.93 2.93 3.928 2.928 3.929 2.927 3.927 2.924 3.929 2.931 3.931 2.933 3.931 2.933 3.933 2.931 3.933 2.931 3.932 2.93 3.93 2.93"/><polygon points="3.933 2.927 3.932 2.927 3.931 2.927 3.932 2.93 3.935 2.93 3.94 2.93 3.936 2.927 3.933 2.927"/><path d="M3.9415,2.9265l0,0Z"/><polygon points="3.943 2.928 3.942 2.927 3.941 2.927 3.941 2.926 3.935 2.926 3.932 2.927 3.933 2.927 3.936 2.927 3.94 2.93 3.941 2.93 3.943 2.928"/><polygon points="3.93 2.927 3.929 2.927 3.932 2.93 3.932 2.93 3.931 2.927 3.93 2.927"/><polygon points="3.928 2.928 3.93 2.93 3.93 2.93 3.932 2.93 3.929 2.927 3.928 2.928"/><polygon points="3.947 2.922 3.946 2.921 3.945 2.92 3.947 2.922"/><path d="M3.9066,2.8988l.0112.0018.0118.0059.0081.006.0026.0036.0011.0007.0023-.0012.0007,0L3.94,2.91l-.0091-.0069L3.919,2.897l-.012-.002-.0044,0L3.8974,2.894l-.0044.0023-.0019.0008.0111.0013Z"/><polygon points="3.897 2.894 3.891 2.893 3.889 2.895 3.891 2.897 3.891 2.897 3.892 2.897 3.897 2.894"/><polygon points="3.942 2.919 3.941 2.917 3.941 2.917 3.941 2.916 3.943 2.923 3.945 2.924 3.946 2.924 3.947 2.922 3.947 2.922 3.946 2.92 3.942 2.919"/><polygon points="3.949 2.917 3.948 2.917 3.944 2.916 3.946 2.92 3.948 2.92 3.953 2.921 3.957 2.921 3.951 2.917 3.949 2.917"/><path d="M3.9581,2.9173l0,0Z"/><polygon points="3.959 2.919 3.958 2.918 3.958 2.917 3.957 2.917 3.949 2.917 3.951 2.917 3.957 2.921 3.957 2.921 3.959 2.919"/><polygon points="3.944 2.916 3.942 2.916 3.945 2.92 3.946 2.92 3.944 2.916 3.944 2.916"/><polygon points="3.942 2.919 3.945 2.92 3.941 2.917 3.941 2.917 3.942 2.919"/><polygon points="3.963 2.913 3.963 2.913 3.963 2.913 3.963 2.913"/><polygon points="3.952 2.897 3.947 2.894 3.942 2.892 3.939 2.893 3.94 2.895 3.945 2.898 3.95 2.9 3.958 2.907 3.959 2.909 3.962 2.908 3.962 2.908 3.962 2.908 3.96 2.906 3.96 2.903 3.952 2.897"/><polygon points="3.96 2.906 3.962 2.908 3.962 2.907 3.96 2.903 3.96 2.906"/><polygon points="3.96 2.911 3.959 2.909 3.959 2.909 3.958 2.907 3.958 2.909 3.959 2.914 3.961 2.915 3.961 2.915 3.963 2.914 3.963 2.913 3.963 2.913 3.96 2.911"/><polygon points="3.967 2.91 3.962 2.909 3.963 2.913 3.968 2.914 3.968 2.914 3.972 2.913 3.967 2.91"/><polygon points="3.974 2.91 3.972 2.909 3.968 2.91 3.967 2.91 3.972 2.913 3.973 2.913 3.974 2.91"/><polygon points="3.962 2.908 3.959 2.909 3.963 2.913 3.963 2.913 3.962 2.909 3.962 2.908"/><polygon points="3.96 2.911 3.963 2.913 3.959 2.909 3.959 2.909 3.96 2.911"/><path d="M3.9415,2.8808a.0561.0561,0,0,1,.0171.0078l.0084.0074.0033.0014.0059.0048h0a.0526.0526,0,0,0-.0154-.0164.0542.0542,0,0,0-.0182-.0084l-.02-.0033L3.92,2.8776A.0741.0741,0,0,1,3.9415,2.8808Z"/><polygon points="3.917 2.876 3.919 2.878 3.919 2.878 3.923 2.874 3.919 2.874 3.917 2.876"/><polygon points="3.97 2.897 3.967 2.896 3.973 2.904 3.975 2.905 3.975 2.905 3.976 2.902 3.97 2.897"/><polygon points="4.233 2.531 4.239 2.538 4.248 2.542 4.248 2.54 4.248 2.538 4.241 2.535 4.237 2.53 4.236 2.527 4.234 2.527 4.233 2.527 4.233 2.531"/><polygon points="4.248 2.542 4.249 2.542 4.25 2.542 4.251 2.54 4.25 2.538 4.248 2.538 4.248 2.539 4.248 2.542"/><rect x="4.2329" y="2.5236" width="0.0037" height="0.0043" transform="translate(1.4329 6.5831) rotate(-86.1859)"/><polygon points="4.188 2.505 4.181 2.506 4.178 2.509 4.183 2.512 4.188 2.515 4.188 2.505" fill="#fff"/><path d="M3.991,2.1757a.4184.4184,0,1,0,.4185.4185A.4188.4188,0,0,0,3.991,2.1757Zm0,.832a.4135.4135,0,1,1,.4136-.4135A.414.414,0,0,1,3.991,3.0077Z"/><path d="M3.5342,2.5038l.0028-.021-.0026-.0113-.0081-.01a.0328.0328,0,0,0-.0146-.0064.0306.0306,0,0,0-.02.0019.0258.0258,0,0,0-.0126.0122.11.11,0,0,0-.0063.0235l-.0065.0321.099.02.0041-.02-.0374-.0075ZM3.517,2.5025l-.0023.011-.028-.0057.0019-.01.0037-.0143.0059-.0072.01-.0013.0072.0037.0036.0072Z"/><path d="M3.5912,2.44l-.0173-.0173.0171-.0365.0245.0017.01-.02-.1086-.0063-.0092.02.0748.0783Zm-.03-.03-.0281-.0283.04.0033Z"/><polygon points="3.603 2.261 3.62 2.344 3.634 2.355 3.686 2.292 3.673 2.281 3.636 2.325 3.619 2.239 3.606 2.229 3.56 2.287 3.573 2.297 3.603 2.261"/><polygon points="3.772 2.227 3.79 2.216 3.769 2.18 3.772 2.11 3.752 2.122 3.751 2.168 3.711 2.145 3.69 2.157 3.751 2.189 3.772 2.227"/><path d="M3.8973,2.1688a.0309.0309,0,0,0,.0242.0048.0351.0351,0,0,0,.0194-.0083A.0275.0275,0,0,0,3.9494,2.15.0692.0692,0,0,0,3.9487,2.13l-.01-.0633-.02.003.01.0645a.0306.0306,0,0,1,0,.0164L3.92,2.1563a.0108.0108,0,0,1-.0108-.0039l-.0043-.0117-.0188.0051A.0346.0346,0,0,0,3.8973,2.1688Z"/><path d="M3.9977,2.1548l.011.01A.0559.0559,0,0,0,4.03,2.17a.05.05,0,0,0,.02-.0013l.0125-.0071L4.07,2.1492a.138.138,0,0,0,.004-.0254l.0047-.0528-.02-.0018-.005.0556-.0023.017L4.0446,2.15a.0258.0258,0,0,1-.0264-.0025l-.0054-.01A.1045.1045,0,0,1,4.0135,2.12l.005-.0544-.02-.0019-.0047.0537a.1177.1177,0,0,0,0,.0256Z"/><path d="M4.1361,2.1935a.0551.0551,0,0,0,.022.0039.031.031,0,0,0,.0284-.0359A.0275.0275,0,0,0,4.18,2.148a.0951.0951,0,0,0-.0182-.0144.0548.0548,0,0,1-.0153-.0127l-.0008-.0067.0053-.0049a.0226.0226,0,0,1,.0142.0013l.0111.0077a.0176.0176,0,0,1,.0013.0124l.0195.0061a.0288.0288,0,0,0-.0018-.0243.0424.0424,0,0,0-.0241-.0177.0515.0515,0,0,0-.02-.0035.0272.0272,0,0,0-.0154.0054.0254.0254,0,0,0-.009.012.0262.0262,0,0,0,.0017.0223.0557.0557,0,0,0,.0183.0172l.0137.01.0055.0065V2.171l-.008.0076a.0227.0227,0,0,1-.0153-.0013A.0216.0216,0,0,1,4.13,2.1679a.025.025,0,0,1-.0019-.0163l-.0192-.005a.0385.0385,0,0,0,.0027.0284A.0435.0435,0,0,0,4.1361,2.1935Z"/><polygon points="4.237 2.244 4.284 2.175 4.309 2.191 4.318 2.177 4.252 2.132 4.242 2.147 4.267 2.163 4.22 2.233 4.237 2.244"/><rect x="4.2747" y="2.2418" width="0.101" height="0.0205" transform="translate(-0.3057 3.7798) rotate(-45.7628)"/><path d="M4.337,2.3209a.0431.0431,0,0,0,.0073.0351.0422.0422,0,0,0,.0217.0176.0428.0428,0,0,0,.0287-.0012l-.0058-.02a.03.03,0,0,1-.0182.002.02.02,0,0,1-.0122-.0086.0223.0223,0,0,1-.0033-.0193.0422.0422,0,0,1,.0187-.0211.04.04,0,0,1,.0254-.009.0228.0228,0,0,1,.0169.0107.0209.0209,0,0,1,.0041.0138.0215.0215,0,0,1-.0061.0133l.0155.014a.04.04,0,0,0,.0094-.0191.0417.0417,0,0,0-.0079-.031.0443.0443,0,0,0-.0307-.02.0549.0549,0,0,0-.04.0111A.0533.0533,0,0,0,4.337,2.3209Z"/><polygon points="4.389 2.438 4.483 2.399 4.475 2.381 4.382 2.419 4.389 2.438"/><path d="M4.4047,2.4818l.0241.0036.0078.04-.0208.0131L4.42,2.56l.0913-.0592L4.5072,2.48l-.1067-.019Zm.0815.0126-.0342.0209-.0053-.027Z"/><path d="M3.991,2.0433a.5509.5509,0,1,0,.551.5509A.5515.5515,0,0,0,3.991,2.0433Zm0,1.0968a.5459.5459,0,1,1,.546-.5459A.5467.5467,0,0,1,3.991,3.14Z"/><path d="M3.9632,2.3218l-.0148.0111v.0036l.0018.0006.0017-.0005.0141-.01a.113.113,0,0,1,.0371-.0137.2107.2107,0,0,1,.0422-.0048l-.0033-.0048a.2016.2016,0,0,0-.04.0049A.1165.1165,0,0,0,3.9632,2.3218Z"/><polygon points="4.047 2.308 4.049 2.305 4.046 2.303 4.042 2.303 4.045 2.308 4.047 2.308"/><path d="M4.0149,2.3308l-.0111.0029h.0035v.004l.0086-.002a.0955.0955,0,0,1,.0408.0013l0-.0028,0-.0023A.1006.1006,0,0,0,4.0149,2.3308Z"/><path d="M3.9859,2.3464l.0016-.0008V2.34l-.0037.0016a.1849.1849,0,0,0-.05.0288l-.0078.0072.0006.0065.0105-.01A.1777.1777,0,0,1,3.9859,2.3464Z"/><polygon points="4.002 2.339 3.992 2.339 3.992 2.344 4.002 2.34 4.002 2.339"/><polygon points="4.005 2.336 4.005 2.339 4.007 2.338 4.007 2.334 4.004 2.334 3.997 2.336 4.005 2.336"/><polygon points="3.987 2.34 3.987 2.346 3.99 2.345 3.99 2.339 3.987 2.34"/><polygon points="4.002 2.339 4.002 2.34 4.005 2.339 4.005 2.336 3.997 2.336 3.99 2.339 3.99 2.345 3.992 2.344 3.992 2.339 4.002 2.339"/><polygon points="3.923 2.382 3.923 2.385 3.924 2.386 3.926 2.385 3.927 2.384 3.926 2.378 3.923 2.382"/><polygon points="4.057 2.337 4.058 2.337 4.061 2.336 4.06 2.333 4.056 2.332 4.056 2.333 4.057 2.337"/></svg>