<svg xmlns="http://www.w3.org/2000/svg" viewBox="0 0 7.9818 5.1882"><rect width="7.9818" height="5.1882" fill="#fa2b2d"/><polygon points="3.794 0 3.686 0 3.432 0 3.421 0 3.421 2.3 7.982 2.3 7.982 2.289 7.982 1.979 3.794 1.979 3.794 0" fill="#fff"/><polygon points="3.421 5.188 3.432 5.188 3.686 5.188 3.794 5.188 3.794 3.21 7.982 3.21 7.982 2.899 7.982 2.889 3.421 2.889 3.421 5.188" fill="#fff"/><polygon points="0 2.889 0 2.899 0 3.21 2.422 3.21 2.422 5.188 2.53 5.188 2.788 5.188 2.799 5.188 2.799 2.889 0 2.889" fill="#fff"/><polygon points="2.799 0 2.788 0 2.53 0 2.422 0 2.422 1.979 0 1.979 0 2.289 0 2.3 2.799 2.3 2.799 0" fill="#fff"/><polygon points="3.421 0 2.806 0 2.799 0 2.799 2.282 0 2.282 0 2.907 2.799 2.907 2.799 5.188 2.806 5.188 3.421 5.188 3.421 2.907 7.982 2.907 7.982 2.282 3.421 2.282 3.421 0" fill="#00148d"/></svg>