<svg xmlns="http://www.w3.org/2000/svg" viewBox="0 0 7.9819 5.1882"><path d="M0,0V5.1882H7.9819V0ZM5.6488.2586,5.7234.0291,5.798.2586h.2413L5.844.4005,5.9186.63,5.7234.4882,5.5281.63,5.6027.4005,5.4075.2586ZM3.9164.2572,3.991.0277l.0745.2295h.2414L4.1116.3991l.0746.23L3.991.4867,3.7957.6286,3.87.3991,3.675.2572ZM2.184.2558l.0746-.23.0745.23h.2414L2.3792.3976l.0746.2295L2.2586.4853,2.0633.6271,2.1379.3976,1.9427.2558Zm.27,4.8422-.1952-.1418-.1953.1418.0746-.2295-.1952-.1419H2.184l.0746-.23.0745.23h.2414l-.1953.1419ZM4.1862,5.1,3.991,4.9576,3.7957,5.1,3.87,4.87,3.675,4.7281h.2414l.0746-.23.0745.23h.2414L4.1116,4.87Zm1.7324.0014L5.7234,4.959l-.1953.1419.0746-.2295L5.4075,4.73h.2413L5.7234,4.5,5.798,4.73h.2413l-.1953.1419Zm1.337-.6368H.7264V.7241H7.2556Z" fill="#d31126"/><path d="M4.6135,2.5941a.6194.6194,0,0,1-.07.2866L7.2556,4.4641V.7241L4.5433,2.3076A.6193.6193,0,0,1,4.6135,2.5941Z" fill="#007f5e"/><path d="M.7264.7241,3.4386,2.3076a.622.622,0,0,1,1.1047,0L7.2556.7241Z" fill="#ffd116"/><path d="M3.3684,2.5941a.6193.6193,0,0,1,.07-.2865L.7264.7241v3.74L3.4386,2.8807A.6194.6194,0,0,1,3.3684,2.5941Zm-1.71.3181a.7644.7644,0,0,0-.1509-.1965.9828.9828,0,0,1,.0314.2439A.5274.5274,0,0,1,1.43,2.9009a.5345.5345,0,0,1-.1066-.0992.6774.6774,0,0,0,.05.1421.6861.6861,0,0,0,.05.0857.4923.4923,0,0,1-.203-.0631A.4046.4046,0,0,1,1.076,2.84a.6339.6339,0,0,1-.0316-.4556A.8136.8136,0,0,0,1.06,2.2017a.3443.3443,0,0,0-.0067-.0565A.3049.3049,0,0,0,1.04,2.1a.3611.3611,0,0,0,.05.0451.3571.3571,0,0,0,.05.0316c.0632.0336.2128.0956.2481.1128a.5307.5307,0,0,1,.2662.2346.4536.4536,0,0,1,.0406.1895A.512.512,0,0,1,1.658,2.9122Z" fill="#007f5e"/><path d="M3.991,3.2167a.6221.6221,0,0,1-.5524-.336L.7264,4.4641H7.2556L4.5433,2.8807A.6221.6221,0,0,1,3.991,3.2167Z" fill="#ffd116"/><path d="M3.4386,2.8807a.62.62,0,1,0-.07-.2866A.6221.6221,0,0,0,3.4386,2.8807Zm.5524-.846.1265.3895h.41l-.3313.2407.1265.3894L3.991,2.8136,3.66,3.0543l.1265-.3894-.3313-.2407h.41Z" fill="#d31126"/><polygon points="2.063 0.627 2.259 0.485 2.454 0.627 2.379 0.398 2.574 0.256 2.333 0.256 2.259 0.026 2.184 0.256 1.943 0.256 2.138 0.398 2.063 0.627" fill="#ffd116"/><polygon points="3.796 0.629 3.991 0.487 4.186 0.629 4.112 0.399 4.307 0.257 4.065 0.257 3.991 0.028 3.916 0.257 3.675 0.257 3.87 0.399 3.796 0.629" fill="#ffd116"/><polygon points="3.455 2.424 3.786 2.665 3.66 3.054 3.991 2.814 4.322 3.054 4.196 2.665 4.527 2.424 4.117 2.424 3.991 2.035 3.864 2.424 3.455 2.424" fill="#ffd116"/><polygon points="5.528 0.63 5.723 0.488 5.919 0.63 5.844 0.4 6.039 0.259 5.798 0.259 5.723 0.029 5.649 0.259 5.407 0.259 5.603 0.4 5.528 0.63" fill="#ffd116"/><polygon points="2.333 4.727 2.259 4.497 2.184 4.727 1.943 4.727 2.138 4.868 2.063 5.098 2.259 4.956 2.454 5.098 2.379 4.868 2.574 4.727 2.333 4.727" fill="#ffd116"/><polygon points="4.065 4.728 3.991 4.499 3.916 4.728 3.675 4.728 3.87 4.87 3.796 5.099 3.991 4.958 4.186 5.099 4.112 4.87 4.307 4.728 4.065 4.728" fill="#ffd116"/><polygon points="5.798 4.73 5.723 4.5 5.649 4.73 5.407 4.73 5.603 4.871 5.528 5.101 5.723 4.959 5.919 5.101 5.844 4.871 6.039 4.73 5.798 4.73" fill="#ffd116"/><path d="M1.3767,2.6168a.8.8,0,0,0-.0706-.0384.7638.7638,0,0,0,.0175.2233.5345.5345,0,0,0,.1066.0992.5274.5274,0,0,0,.1083.0587.9828.9828,0,0,0-.0314-.2439A.7811.7811,0,0,0,1.4132,2.64Z" fill="#d31126"/><path d="M1.3873,2.29c-.0353-.0172-.1849-.0792-.2481-.1128a.3571.3571,0,0,1-.05-.0316A.3611.3611,0,0,1,1.04,2.1a.3049.3049,0,0,1,.0136.0451.3443.3443,0,0,1,.0067.0565.8136.8136,0,0,1-.0158.1827A.6339.6339,0,0,0,1.076,2.84a.4046.4046,0,0,0,.1444.1264.4923.4923,0,0,0,.203.0631.6861.6861,0,0,1-.05-.0857.6774.6774,0,0,1-.05-.1421.7638.7638,0,0,1-.0175-.2233.8.8,0,0,1,.0706.0384l.0365.0235a.7811.7811,0,0,1,.0939.0754.7644.7644,0,0,1,.1509.1965.512.512,0,0,0,.0361-.1985.4536.4536,0,0,0-.0406-.1895A.5307.5307,0,0,0,1.3873,2.29Z" fill="#ffd116"/></svg>