<svg xmlns="http://www.w3.org/2000/svg" viewBox="0 0 7.9819 5.1882"><rect width="7.9819" height="1.6602" fill="#0596b4"/><rect y="1.764" width="7.9819" height="1.6602" fill="#fff"/><rect y="3.528" width="7.9819" height="1.6602" fill="#1eb43c"/><rect y="1.6602" width="7.9819" height="0.1038" fill="#d21428"/><rect y="3.4242" width="7.9819" height="0.1038" fill="#d21428"/><polygon points="1.506 1.288 1.477 1.198 1.448 1.288 1.354 1.288 1.43 1.343 1.401 1.432 1.477 1.377 1.553 1.432 1.524 1.343 1.6 1.288 1.506 1.288" fill="#fff"/><polygon points="2.005 1.288 1.976 1.198 1.947 1.288 1.853 1.288 1.929 1.343 1.9 1.432 1.976 1.377 2.052 1.432 2.023 1.343 2.099 1.288 2.005 1.288" fill="#fff"/><polygon points="2.504 1.288 2.475 1.198 2.446 1.288 2.352 1.288 2.428 1.343 2.399 1.432 2.475 1.377 2.551 1.432 2.522 1.343 2.598 1.288 2.504 1.288" fill="#fff"/><polygon points="3.003 1.288 2.974 1.198 2.945 1.288 2.851 1.288 2.927 1.343 2.898 1.432 2.974 1.377 3.05 1.432 3.021 1.343 3.097 1.288 3.003 1.288" fill="#fff"/><polygon points="3.502 1.288 3.473 1.198 3.444 1.288 3.349 1.288 3.426 1.343 3.396 1.432 3.473 1.377 3.549 1.432 3.52 1.343 3.596 1.288 3.502 1.288" fill="#fff"/><polygon points="1.976 0.699 1.947 0.789 1.853 0.789 1.929 0.844 1.9 0.933 1.976 0.878 2.052 0.933 2.023 0.844 2.099 0.789 2.005 0.789 1.976 0.699" fill="#fff"/><polygon points="2.475 0.699 2.446 0.789 2.352 0.789 2.428 0.844 2.399 0.933 2.475 0.878 2.551 0.933 2.522 0.844 2.598 0.789 2.504 0.789 2.475 0.699" fill="#fff"/><polygon points="2.974 0.699 2.945 0.789 2.851 0.789 2.927 0.844 2.898 0.933 2.974 0.878 3.05 0.933 3.021 0.844 3.097 0.789 3.003 0.789 2.974 0.699" fill="#fff"/><polygon points="3.473 0.699 3.444 0.789 3.349 0.789 3.426 0.844 3.396 0.933 3.473 0.878 3.549 0.933 3.52 0.844 3.596 0.789 3.502 0.789 3.473 0.699" fill="#fff"/><polygon points="2.475 0.2 2.446 0.29 2.352 0.29 2.428 0.345 2.399 0.435 2.475 0.379 2.551 0.435 2.522 0.345 2.598 0.29 2.504 0.29 2.475 0.2" fill="#fff"/><polygon points="2.974 0.2 2.945 0.29 2.851 0.29 2.927 0.345 2.898 0.435 2.974 0.379 3.05 0.435 3.021 0.345 3.097 0.29 3.003 0.29 2.974 0.2" fill="#fff"/><polygon points="3.473 0.2 3.444 0.29 3.349 0.29 3.426 0.345 3.396 0.435 3.473 0.379 3.549 0.435 3.52 0.345 3.596 0.29 3.502 0.29 3.473 0.2" fill="#fff"/><path d="M.6975.8161A.6276.6276,0,0,1,1.2243.2155.6348.6348,0,0,0,.8552.2514.6443.6443,0,0,0,.472.864a.6376.6376,0,0,0,.4271.5727.6053.6053,0,0,0,.3332.008A.628.628,0,0,1,.6975.8161Z" fill="#fff"/></svg>