<svg xmlns="http://www.w3.org/2000/svg" viewBox="0 0 7.9819 5.1882"><rect y="3.4588" width="7.9819" height="1.7294"/><path d="M0,3.4588H7.9819V1.7294H0ZM2.8256,3.107a.0424.0424,0,1,1,.0424-.0424A.0424.0424,0,0,1,2.8256,3.107Zm2.4389-.95.15.07-.035.0419v.52h.0629l.04-.05.0657.2245H5.2645Zm-.4628-.08c.0083-.0044.0222.0075.0236.0087.0067.0059.0138.0156.02.05a.3765.3765,0,0,1,.0059.0525.1627.1627,0,0,1-.0384-.04A.0949.0949,0,0,1,4.797,2.11C4.7961,2.1041,4.7923,2.0813,4.8017,2.0763Zm.0216.1861a.1654.1654,0,0,0,.027-.0176.17.17,0,0,0,.03-.03.2287.2287,0,0,0,.0364.0175c.0153.0057.0215.0062.0274.0043A.0338.0338,0,0,0,4.96,2.2246a.0488.0488,0,0,0,.0085-.0177A.0886.0886,0,0,0,4.97,2.1693a.0554.0554,0,0,1,.029.0479.06.06,0,0,1-.03.0485.0475.0475,0,0,1-.0275.0074A.0992.0992,0,0,1,4.92,2.2664c-.017-.0055-.0256-.0082-.0324-.0061-.0106.0034-.008.0123-.0222.0236a.084.084,0,0,1-.0354.0146.0976.0976,0,0,1-.0239.0033A.09.09,0,0,1,4.76,2.2883a.0928.0928,0,0,1-.0259-.0239A.13.13,0,0,0,4.8233,2.2624Zm-.2854.4884a.1467.1467,0,0,1,.0651-.0785h.1178V2.6251l-.024-.024.1271-.127v.294H4.89V2.4325l.1114-.1114v.4476h.061V2.2873l.1093-.1092v.7852H4.5379Zm-.5292-.5942.15.07-.035.0419v.52H4.187l.04-.05.0657.2245H4.0087Zm-1.5268.5849A.21.21,0,0,0,2.55,2.7188a.2064.2064,0,0,0,.0675-.0583.0952.0952,0,0,0,.0063.0876.0905.0905,0,0,0,.05.0346h.1971V2.7308l-.0559-.0459.1327-.1042v.202h.89V2.6613l-.0459-.0432L3.763,2.655v.0763H3.0815V2.639l.4824-.4824.0645.0645-.4339.4339h.4632V2.6181L3.79,2.5043l.1422.1138v.3452H2.6684a.1866.1866,0,0,1-.1057.15h-.13a.2015.2015,0,0,0,.0978-.0788A.2556.2556,0,0,0,2.4819,2.7415Z" fill="#fff"/><rect width="7.9819" height="1.7294" fill="#cd1428"/><path d="M2.433,3.1129h.13a.1866.1866,0,0,0,.1057-.15H3.9326V2.6181L3.79,2.5043l-.1327.1138V2.655H3.1945l.4339-.4339-.0645-.0645-.4824.4824v.0923H3.763V2.655l.0289-.0369.0459.0432v.1214H2.9483v-.202l-.1327.1042.0559.0459v.0519H2.6744a.0905.0905,0,0,1-.05-.0346.0952.0952,0,0,1-.0063-.0876.2064.2064,0,0,1-.0675.0583.21.21,0,0,1-.0685.0227.2556.2556,0,0,1,.0489.2926A.2015.2015,0,0,1,2.433,3.1129Z" fill="#007a3d"/><polygon points="4.227 2.739 4.187 2.789 4.124 2.789 4.124 2.269 4.159 2.227 4.009 2.157 4.009 2.963 4.293 2.963 4.227 2.739" fill="#007a3d"/><polygon points="5.483 2.739 5.443 2.789 5.38 2.789 5.38 2.269 5.415 2.227 5.264 2.157 5.264 2.963 5.549 2.963 5.483 2.739" fill="#007a3d"/><path d="M5.1718,2.1781l-.1093.1092v.4814h-.061V2.3211L4.89,2.4325v.3356H4.8239v-.294l-.1271.127.024.024v.0472H4.603a.1467.1467,0,0,0-.0651.0785v.2125h.6339ZM4.69,2.791a.03.03,0,1,1,.03-.03A.03.03,0,0,1,4.69,2.791Z" fill="#007a3d"/><circle cx="4.6903" cy="2.7609" r="0.0301" fill="#fff"/><circle cx="2.8256" cy="3.0646" r="0.0424" fill="#007a3d"/><path d="M4.8132,2.1471a.1627.1627,0,0,0,.0384.04.3765.3765,0,0,0-.0059-.0525c-.0066-.0344-.0137-.0441-.02-.05-.0014-.0012-.0153-.0131-.0236-.0087s-.0056.0278-.0047.0333A.0949.0949,0,0,0,4.8132,2.1471Z" fill="#007a3d"/><path d="M4.76,2.2883a.09.09,0,0,0,.0456.0135A.0976.0976,0,0,0,4.83,2.2985a.084.084,0,0,0,.0354-.0146c.0142-.0113.0116-.02.0222-.0236.0068-.0021.0154.0006.0324.0061a.0992.0992,0,0,0,.0216.0067.0475.0475,0,0,0,.0275-.0074.06.06,0,0,0,.03-.0485.0554.0554,0,0,0-.029-.0479.0886.0886,0,0,1-.0023.0376.0488.0488,0,0,1-.0085.0177.0338.0338,0,0,1-.0158.0117c-.0059.0019-.0121.0014-.0274-.0043A.2287.2287,0,0,1,4.88,2.2145a.17.17,0,0,1-.03.03.1654.1654,0,0,1-.027.0176.13.13,0,0,1-.089.002A.0928.0928,0,0,0,4.76,2.2883Z" fill="#007a3d"/></svg>