<svg xmlns="http://www.w3.org/2000/svg" viewBox="0 0 7.9818 5.1882"><path d="M3.9909,4.2024a1.607,1.607,0,0,1-1.3563-.7436H0V5.1882H7.9818V3.4588H5.3472A1.607,1.607,0,0,1,3.9909,4.2024Z" fill="#da121a"/><path d="M0,0V1.7294H2.6346a1.6087,1.6087,0,0,1,2.7126,0H7.9818V0Z" fill="#078930"/><path d="M5.5992,2.5941a1.6,1.6,0,0,1-.252.8647H7.9818V1.7294H5.3472A1.6,1.6,0,0,1,5.5992,2.5941Z" fill="#fcdd09"/><path d="M2.3826,2.5941a1.6,1.6,0,0,1,.252-.8647H0V3.4588H2.6346A1.6,1.6,0,0,1,2.3826,2.5941Z" fill="#fcdd09"/><path d="M2.6346,3.4588a1.61,1.61,0,1,0-.252-.8647A1.607,1.607,0,0,0,2.6346,3.4588Zm.7467-.6956.0173.0531-.6955.226-.0172-.0531Zm.5763.1925-.0917.0665L3.59,2.8215l-.1112.3423h0l-.1372.4221-.1483.1078.305-.9388-.5953-.4325H3.086l.447.3248h0l.0917.0666h0Zm.2569-.1374.11-.08.035.1078-.2763.2007.25.1815h0l.4.291.0567.1743-.7986-.58-.5953.4325.0567-.1743.2127-.1546h0l.5489-.3988Zm.7373-.5358L5.1,2.1748h.1834l-.7985.58.2274.7L4.5642,3.347l-.0993-.3055h0l-.21-.6452h0l-.024-.0739h.1133l.1056.3248.5019-.3647Zm.3441.7067-.0172.0531-.6955-.226L4.5918,2.79l.0087-.0266Zm-1.3323.963V3.2209H4.02v.7313H3.9636ZM4.81,1.5134l-.43.5916-.0226-.0165-.0226-.0164.43-.5916ZM3.9915,1.236l.3051.9388h.7357l-.1484.1077H3.8068l.035-.1077h.3415l-.1918-.59-.1917.59h0l-.035.1077h0l-.1271.3914L3.546,2.6073l.1055-.3248H2.8478L2.7,2.1748h.987Zm-.7951.2609.0226-.0164.43.5916-.0452.0329-.43-.5916Z" fill="#0f47af"/><polygon points="4.345 2.322 4.231 2.322 4.255 2.396 4.255 2.396 4.465 3.042 4.465 3.042 4.564 3.347 4.713 3.455 4.485 2.755 5.284 2.175 5.1 2.175 4.952 2.283 4.952 2.283 4.45 2.647 4.345 2.322" fill="#fcdd09"/><polygon points="3.666 3.217 3.453 3.372 3.396 3.546 3.992 3.114 4.79 3.694 4.733 3.519 4.333 3.228 4.333 3.228 4.083 3.047 4.36 2.846 4.325 2.738 4.215 2.818 4.215 2.818 3.666 3.217 3.666 3.217" fill="#fcdd09"/><polygon points="3.533 2.647 3.533 2.647 3.086 2.322 2.903 2.322 3.498 2.755 3.193 3.694 3.341 3.586 3.479 3.164 3.479 3.164 3.59 2.822 3.866 3.022 3.958 2.956 3.625 2.714 3.625 2.714 3.533 2.647" fill="#fcdd09"/><polygon points="2.7 2.175 2.848 2.283 3.031 2.283 3.301 2.283 3.651 2.283 3.546 2.607 3.638 2.674 3.765 2.283 3.765 2.283 3.8 2.175 3.8 2.175 3.992 1.585 4.183 2.175 3.842 2.175 3.807 2.283 3.926 2.283 4.218 2.283 4.332 2.283 4.604 2.283 4.884 2.283 5.032 2.175 4.297 2.175 3.992 1.236 3.687 2.175 2.7 2.175" fill="#fcdd09"/><polygon points="4.358 2.088 4.38 2.105 4.81 1.513 4.765 1.48 4.335 2.072 4.358 2.088" fill="#fcdd09"/><polygon points="3.649 2.072 3.219 1.48 3.196 1.497 3.174 1.513 3.604 2.105 3.649 2.072" fill="#fcdd09"/><rect x="2.6766" y="2.8748" width="0.7313" height="0.0558" transform="translate(-0.7481 1.0823) rotate(-18.0014)" fill="#fcdd09"/><polygon points="4.02 3.952 4.02 3.221 3.992 3.221 3.964 3.221 3.964 3.952 3.992 3.952 4.02 3.952" fill="#fcdd09"/><polygon points="4.583 2.816 5.279 3.042 5.296 2.989 4.601 2.763 4.592 2.79 4.583 2.816" fill="#fcdd09"/></svg>