<svg xmlns="http://www.w3.org/2000/svg" viewBox="0 0 7.9818 5.1882"><rect y="1.7294" width="7.9818" height="1.7294" fill="#d21423"/><rect width="7.9818" height="1.7294"/><rect y="3.4588" width="7.9818" height="1.7294" fill="#379b32"/><path d="M3.9909.8543A1.1148,1.1148,0,0,0,2.933,1.6H5.0487A1.1148,1.1148,0,0,0,3.9909.8543Z" fill="#d21423"/><path d="M3.991.7181c.0088,0,.0142-.0414.0263-.1214.0226-.15.0513-.32.0082-.3721a.0391.0391,0,0,0-.0691,0c-.0431.0515-.0145.2175.0086.3723C3.9769.6763,3.9822.718,3.991.7181Z" fill="#d21423"/><path d="M4.0984.7228c.0087.0007.0177-.04.0367-.1187.0355-.1471.079-.3141.0406-.37A.0491.0491,0,0,0,4.1433.2105a.05.05,0,0,0-.0365.0177C4.0594.2757,4.0735.4436,4.083.6,4.0879.68,4.09.722,4.0984.7228Z" fill="#d21423"/><path d="M4.2049.7368c.0087.0015.0211-.0383.0469-.115C4.3.4783,4.3579.3157,4.3245.2568A.0492.0492,0,0,0,4.2943.23a.05.05,0,0,0-.0379.0144C4.2051.2881,4.2044.4565,4.2.613,4.1983.6932,4.1962.7352,4.2049.7368Z" fill="#d21423"/><path d="M4.31.76c.0085.0022.0244-.0364.0568-.1105.0605-.1387.1323-.2956.1042-.3572A.0494.0494,0,0,0,4.443.2634a.0494.0494,0,0,0-.039.0111c-.0549.0386-.07.2063-.088.3618C4.307.716,4.3012.7578,4.31.76Z" fill="#d21423"/><path d="M4.4123.7924c.0082.003.0274-.0341.0661-.1051.0724-.1329.1577-.283.135-.3468A.0493.0493,0,0,0,4.5883.3092a.05.05,0,0,0-.04.0077C4.49.3505,4.4605.5163,4.4293.67,4.4133.7483,4.4039.7894,4.4123.7924Z" fill="#d21423"/><path d="M4.5115.8335c.008.0037.03-.0315.0751-.0989C4.67.6085,4.7683.4664,4.7513.4009A.05.05,0,0,0,4.729.3675a.05.05,0,0,0-.04.0042c-.0608.0284-.105.191-.1494.341C4.5164.79,4.5035.83,4.5115.8335Z" fill="#d21423"/><path d="M4.6068.8831C4.6144.8876,4.64.8544,4.69.7912,4.7846.6728,4.8946.54,4.8833.473A.0491.0491,0,0,0,4.8641.4378a.05.05,0,0,0-.0406.0007C4.76.4616,4.7022.62,4.6449.7652,4.6155.84,4.5992.8787,4.6068.8831Z" fill="#d21423"/><path d="M4.6974.9409c.0072.005.0354-.0258.0911-.0844.1044-.11.2256-.2325.22-.3A.0489.0489,0,0,0,4.9925.52a.05.05,0,0,0-.04-.0029c-.0648.0175-.1366.17-.2064.31C4.71.8986,4.69.9358,4.6974.9409Z" fill="#d21423"/><path d="M4.7827,1.0063C4.7894,1.012,4.82.9837,4.8808.93c.1135-.1.2449-.212.2454-.28A.0492.0492,0,0,0,5.1133.6124a.05.05,0,0,0-.04-.0064c-.0661.0118-.1509.1573-.2327.2908C4.7987.9652,4.7759,1.0006,4.7827,1.0063Z" fill="#d21423"/><path d="M4.9292.9749c-.0478.0645-.0736.0977-.0673.104s.0393-.0192.1044-.0673c.1218-.09.2624-.19.2688-.2573a.0489.0489,0,0,0-.01-.0389.05.05,0,0,0-.0393-.01C5.1194.7115,5.0222.849,4.9292.9749Z" fill="#d21423"/><path d="M5.0106,1.06c-.0532.06-.0818.0909-.0761.0977s.0408-.0157.11-.0579c.1292-.0789.278-.1663.29-.2329a.05.05,0,0,0-.0061-.04A.05.05,0,0,0,5.29.8144C5.223.8145,5.1142.9431,5.0106,1.06Z" fill="#d21423"/><path d="M5,1.2434c.005.0072.042-.0121.1144-.0481.1356-.0674.2915-.1414.3095-.2067a.05.05,0,0,0-.0026-.04A.05.05,0,0,0,5.3842.932c-.0669-.0058-.1865.1129-.3.2206C5.026,1.2078,4.9948,1.2361,5,1.2434Z" fill="#d21423"/><path d="M5.0576,1.334c.0044.0076.0429-.0084.1182-.0379.1409-.0553.3027-.1155.3263-.179a.0491.0491,0,0,0,.0009-.04.05.05,0,0,0-.0354-.02c-.0662-.0116-.1956.0962-.3181.1936C5.0867,1.3009,5.0532,1.3263,5.0576,1.334Z" fill="#d21423"/><path d="M5.1072,1.4293c.0037.008.0435-.0046.1211-.0275.1452-.0428.3115-.0886.3406-.15A.039.039,0,0,0,5.54,1.1894c-.0649-.0173-.2032.0788-.3337.1652C5.1391,1.3989,5.1034,1.4213,5.1072,1.4293Z" fill="#d21423"/><path d="M5.2532,1.4627c-.07.0383-.1079.0576-.1049.0659s.0437-.0008.123-.0169c.1484-.03.3181-.0611.3524-.1195A.039.039,0,0,0,5.6,1.3273C5.537,1.3044,5.3908,1.388,5.2532,1.4627Z" fill="#d21423"/><path d="M5.6661,1.5366a.0489.0489,0,0,0,.0112-.0385A.05.05,0,0,0,5.6482,1.47c-.0609-.0283-.2138.0423-.3573.1047L5.233,1.6h.2687A.2788.2788,0,0,0,5.6661,1.5366Z" fill="#d21423"/><path d="M3.8837.7227C3.8924.722,3.8942.68,3.8992.6c.01-.151.0233-.3231-.0242-.3713a.0391.0391,0,0,0-.0689.006c-.0384.0551.0046.2179.0411.37C3.866.6823,3.8749.7235,3.8837.7227Z" fill="#d21423"/><path d="M3.7771.7367c.0087-.0015.0068-.0432.0048-.124C3.7782.4613,3.7769.2888,3.7254.2448a.0392.0392,0,0,0-.0681.012c-.0335.0582.0235.2167.0732.3652C3.756.698,3.7684.7383,3.7771.7367Z" fill="#d21423"/><path d="M3.6722.76c.0085-.0023.003-.0437-.006-.124C3.6493.4855,3.633.3137,3.5778.2745a.039.039,0,0,0-.0667.0178c-.0283.0609.0423.2139.1047.3574C3.6478.7233,3.6637.7623,3.6722.76Z" fill="#d21423"/><path d="M3.57.7923c.0082-.003-.0009-.0438-.0169-.123-.03-.1484-.0611-.3182-.12-.3525A.05.05,0,0,0,3.394.309a.05.05,0,0,0-.0256.0315c-.0228.0631.0608.2093.1355.3468C3.5422.7578,3.5614.7953,3.57.7923Z" fill="#d21423"/><path d="M3.4705.8334C3.4785.83,3.4658.79,3.443.7123,3.4.5671,3.3543.4007,3.2932.3716a.05.05,0,0,0-.04-.0044.05.05,0,0,0-.0228.0336c-.0172.0649.0788.2033.1652.3338C3.44.8015,3.4625.8371,3.4705.8334Z" fill="#d21423"/><path d="M3.3752.883C3.3828.8786,3.3668.84,3.3372.7648,3.2819.6238,3.2217.4621,3.1583.4385a.0491.0491,0,0,0-.04-.0009.05.05,0,0,0-.02.0354c-.0115.0661.0962.1956.1937.3181C3.3421.8538,3.3675.8874,3.3752.883Z" fill="#d21423"/><path d="M3.2846.9407c.0072-.005-.0122-.042-.0482-.1145C3.1691.6907,3.095.5348,3.03.5168a.0489.0489,0,0,0-.04.0026.05.05,0,0,0-.0166.037c-.0057.0669.1129.1865.2207.3C3.249.9146,3.2773.9458,3.2846.9407Z" fill="#d21423"/><path d="M3.1015.93c.06.0532.091.0818.0978.0761s-.0157-.0408-.0579-.11C3.0625.7671,2.9751.6182,2.9085.606a.0491.0491,0,0,0-.04.0061A.05.05,0,0,0,2.8556.65C2.8557.7175,2.9843.8263,3.1015.93Z" fill="#d21423"/><path d="M3.016,1.0114c.0645.0477.0978.0735.1041.0673s-.0193-.0393-.0673-.1044c-.09-.1218-.19-.2625-.2573-.2689a.05.05,0,0,0-.039.01.0491.0491,0,0,0-.01.0393C2.7526.8212,2.89.9183,3.016,1.0114Z" fill="#d21423"/><path d="M2.938,1.1c.0684.0419.1038.0648.1095.058S3.0249,1.12,2.9714,1.06c-.1-.1135-.2121-.2449-.28-.2455a.05.05,0,0,0-.038.0129.05.05,0,0,0-.0064.04C2.659.9334,2.8045,1.0182,2.938,1.1Z" fill="#d21423"/><path d="M2.8679,1.1949c.0718.0358.1091.0555.1142.0482s-.0258-.0353-.0844-.0911c-.11-.1043-.2326-.2255-.3-.22A.05.05,0,0,0,2.5609.948.05.05,0,0,0,2.558.9885C2.5755,1.0533,2.7278,1.1251,2.8679,1.1949Z" fill="#d21423"/><path d="M2.8064,1.2957c.0747.0294.1135.0457.1179.038s-.0288-.0329-.092-.0834c-.1183-.0944-.2513-.2044-.3181-.1931a.0391.0391,0,0,0-.0345.06C2.5027,1.18,2.6608,1.2383,2.8064,1.2957Z" fill="#d21423"/><path d="M2.7539,1.4014c.0769.0228.117.0357.1208.0276s-.0315-.03-.0989-.075C2.65,1.27,2.5076,1.1723,2.442,1.1893a.0391.0391,0,0,0-.0292.0626C2.4413,1.3127,2.6038,1.357,2.7539,1.4014Z" fill="#d21423"/><path d="M2.7108,1.5113c.0787.016.12.0253.1228.017S2.8,1.5008,2.7285,1.4621c-.1329-.0724-.283-.1576-.3468-.1349a.049.049,0,0,0-.0313.0251.05.05,0,0,0,.0076.04C2.3917,1.45,2.5575,1.48,2.7108,1.5113Z" fill="#d21423"/><path d="M2.3335,1.47a.039.039,0,0,0-.0178.0667A.2775.2775,0,0,0,2.4824,1.6H2.75l-.059-.0258C2.5521,1.5134,2.3951,1.4416,2.3335,1.47Z" fill="#d21423"/></svg>