<svg xmlns="http://www.w3.org/2000/svg" viewBox="0 0 7.9819 5.1882"><rect y="3.4588" width="7.9819" height="0.8647" fill="#fc0"/><rect y="4.3235" width="7.9819" height="0.8647" fill="#c00"/><rect y="2.5941" width="7.9819" height="0.8647"/><rect y="1.7294" width="7.9819" height="0.8647" fill="#c00"/><rect width="7.9819" height="0.8647"/><rect y="0.8647" width="7.9819" height="0.8647" fill="#fc0"/><path d="M3.1744,2.5941a.8166.8166,0,1,1,.8166.8166A.8166.8166,0,0,1,3.1744,2.5941Z" fill="#fff"/><path d="M4.13,2.9415c.0115-.0145-.0056-.0523-.0283-.0772a.1228.1228,0,0,0-.0327-.0257l.0006.1046.0189.003.0085.003.0049.0016A.0314.0314,0,0,0,4.13,2.9415Z" fill="none"/><path d="M3.8652,2.19a.0357.0357,0,0,0,.0424-.0282.0414.0414,0,0,0-.033-.043l-.0041.0086a.0987.0987,0,0,1-.0175.0205l-.0075.0095c-.0011.0044.0018.0078.007.0135a.0433.0433,0,0,1,.0123.0208Z" fill="#c00"/><path d="M3.973,2.078c-.01.0055-.0176.01-.02.02a.0243.0243,0,0,0,.0046.0225c.0089.0084.0276.0019.0338,0a.0787.0787,0,0,0,.0476-.05.0839.0839,0,0,0-.0167-.0688.0428.0428,0,0,0-.0138-.0129L4.0091,2a.0772.0772,0,0,1-.01.0575A.075.075,0,0,1,3.973,2.078Z" fill="#999"/><path d="M3.9313,1.9375V1.8361a.2177.2177,0,0,0-.0985.0367l.0551.0836A.1446.1446,0,0,1,3.9313,1.9375Z" fill="#c00"/><circle cx="3.9249" cy="2.0521" r="0.0153" fill="#fff"/><path d="M4.0887,2.0186,4.1653,2a.2237.2237,0,0,0-.0546-.0981L4.06,1.9773A.179.179,0,0,1,4.0887,2.0186Z" fill="#c00"/><path d="M3.9772,1.9344a.1309.1309,0,0,1,.0764.0367l.0508-.0758a.2259.2259,0,0,0-.1644-.06v.1l.0229-.002Z" fill="#fc0"/><path d="M3.9236,2.4239l-.0062-.01a.1349.1349,0,0,1-.0134-.0579.2188.2188,0,0,1,.0117-.09L3.9252,2.24a.226.226,0,0,0,.0135-.04.1579.1579,0,0,0,.0062-.0355.3884.3884,0,0,0-.0854.12.321.321,0,0,0-.0485.1522.2586.2586,0,0,0,.0216.106c.003-.0155.0073-.0228.0138-.0238a.0147.0147,0,0,1,.0112.0047l0,0,0-.0039c-.0008-.007-.0018-.0158.0039-.0209a.0194.0194,0,0,1,.0172-.0024l.0053.0006-.0047-.0092c-.0039-.0067-.0076-.0131-.0039-.018s.01-.003.0156-.0015l.01.0011-.0021-.011c-.0024-.0073-.0052-.0155,0-.0212s.0138-.0042.0215-.0028l.01.0008Z" fill="#999"/><path d="M4.37,2.5705,4.3173,2.57a.1674.1674,0,0,1,.0425.056l.0065.0132-.0126-.0076a.4141.4141,0,0,0-.1087-.0457.1874.1874,0,0,0,.0175.0241.18.18,0,0,0,.0292.0274l-.0046.0073a.2377.2377,0,0,0-.0477-.0184A.2415.2415,0,0,0,4.2,2.6192l.0366.0355-.0093.0009-.0134.0007a.1194.1194,0,0,1-.0352-.0052l.0019.0041.0019.0011a.3576.3576,0,0,1,.1309.1126.1326.1326,0,0,1,.0242.058.1214.1214,0,0,1,0,.0313.0821.0821,0,0,1,.0016.0311.1146.1146,0,0,0,.026-.0413A.1159.1159,0,0,0,4.3709,2.79l.0084-.002a.1706.1706,0,0,1,.0074.082.1837.1837,0,0,1-.0765.1171A.0187.0187,0,0,1,4.3211,3a.0185.0185,0,0,1-.0042.0147l-.0075.0063a.0191.0191,0,0,0,.0114.0009l.01-.0069.0143-.0112a.0713.0713,0,0,1,.0192-.0076l.0123-.0029-.0079.01a.0531.0531,0,0,0-.0143.0254c.0024.0008.0133-.001.0327-.0138l.0187-.0122-.0128.0183-.0194.0286-.0115.0177a.08.08,0,0,0,.03-.0067.1187.1187,0,0,0,.0343-.0272l.0012-.0012.0354-.0338.0055-.0055a.3191.3191,0,0,0,.0708-.1309.2382.2382,0,0,0-.0031-.1248A.3188.3188,0,0,0,4.37,2.5705Z" fill="#c00"/><path d="M4.3061,2.7737A.3517.3517,0,0,0,4.18,2.6644l-.0049-.0029A.0182.0182,0,0,1,4.17,2.648l-.0015-.0006a.0894.0894,0,0,1-.0368-.029.16.16,0,0,0-.0353-.0327.2248.2248,0,0,0-.0337-.0185.0615.0615,0,0,1-.0355-.0293.0435.0435,0,0,1-.0029-.04.0424.0424,0,0,1,.0318-.021.0786.0786,0,0,1,.0547.0143L4.1271,2.5a.5989.5989,0,0,0,.113.04l.0288.0064a.0786.0786,0,0,1,.0224.0068l.0138.0077.0487.0009-.0124-.007c-.006-.0035-.0428-.0205-.1161-.0543L4.2239,2.5c-.1331-.0616-.2065-.0955-.2189-.098H4.0041l-.0123-.0039a.1044.1044,0,0,0-.0193.0239.1384.1384,0,0,0-.0018.1187.1658.1658,0,0,0,.0527.07.1568.1568,0,0,0,.0469.0246l.0364.0152a.7149.7149,0,0,1,.1058.0515.2141.2141,0,0,1,.0837.0794.1745.1745,0,0,1,.0143.0368.0765.0765,0,0,1,.0194.0217L4.329,2.8281A.1253.1253,0,0,0,4.3061,2.7737Z" fill="#999"/><path d="M4.2983,2.594a.4136.4136,0,0,1,.0466.0222.1339.1339,0,0,0-.0573-.0554.069.069,0,0,0-.02-.0061l-.0294-.0066a.5981.5981,0,0,1-.1146-.0406L4.1065,2.499a.0909.0909,0,0,0-.04-.0144l-.0086.0009a.0341.0341,0,0,0-.0259.0164.0356.0356,0,0,0,.003.0322.0535.0535,0,0,0,.0313.0253.222.222,0,0,1,.0349.0192.1677.1677,0,0,1,.0371.0342.0819.0819,0,0,0,.0335.0266.1089.1089,0,0,0,.0452.0082L4.1775,2.61l.0112,0a.243.243,0,0,1,.0529.0077l.0233.0074-.009-.01a.1907.1907,0,0,1-.0234-.0343l-.0046-.0085.0094.0022A.4238.4238,0,0,1,4.2983,2.594Z" fill="#fff"/><path d="M3.9992,2.7271l.0175-.01a.0564.0564,0,0,1,.025-.0083.0367.0367,0,0,1,.0216.0093l.0077.0039c.0026-.001.0052-.0072.0045-.0134-.0011-.0091-.01-.0144-.0225-.0219L4.04,2.6787a.1568.1568,0,0,1-.0419-.0415l-.0092-.01c-.0043.0012-.01.0178-.0079.0493s.01.0517.0145.0525Z" fill="#999"/><path d="M4.5443,2.7343c-.0291-.0913-.1115-.1379-.1987-.1873-.0063-.0036-.0432-.0206-.1166-.0546l-.0015-.0007c-.1424-.0658-.2074-.0959-.2208-.0986l-.0012,0a.0271.0271,0,0,1-.0147-.0063.032.032,0,0,1-.0083-.02.4168.4168,0,0,1,.0007-.1015A.1839.1839,0,0,1,4.027,2.161a.2683.2683,0,0,1,.0255-.03l.0146-.017a.1472.1472,0,0,0,.0235-.0873l.0852-.0212-.001-.0041a.232.232,0,0,0-.0617-.11.2344.2344,0,0,0-.1778-.0646.2265.2265,0,0,0-.1109.0411l-.0035.0024.06.0914a.0926.0926,0,0,0-.0241.0527.0915.0915,0,0,0,.006.043.2117.2117,0,0,0-.1071.0478l-.0145.0122L3.76,2.1129c.0222-.0056.0449-.0107.0673-.0151l.04-.0072.0017.003L3.86,2.0969l-.076.0161-.0284.0061.0011.0085c.0373-.0015.068-.0033.0808-.0043L3.864,2.12h0l-.0012.002a.0863.0863,0,0,1-.0161.0188.0292.0292,0,0,0-.01.0139c-.0023.009.0035.0153.009.0213a.0343.0343,0,0,1,.01.0172c.0023.0133-.01.0255-.0254.041l-.0116.0119A.3737.3737,0,0,0,3.756,2.34a.2748.2748,0,0,0-.0351.109.2921.2921,0,0,0,.0415.1563c.0037.0082.0231.0487.0451.048h.0012l.0076.0006a.0312.0312,0,0,1,.0166.0161l0,.0006a.2023.2023,0,0,0,.0582.0518.14.14,0,0,0,.0354.02.1586.1586,0,0,1,.0283.0143.2277.2277,0,0,1,.0621.059V2.931c-.0187.0005-.0377,0-.0567-.0008l-.0262-.0019-.0032,0a.4946.4946,0,0,0-.13.0044.147.147,0,0,0-.0763.0263c-.044.04-.0283.1171-.0225.14l.0024.0092L3.7105,3.1a.1128.1128,0,0,0,.0127-.0246l.0038-.0129.0035-.013.0023-.0077.003.0107.0015.01a.0418.0418,0,0,0,.0043.0169.04.04,0,0,0,.0125.0142l.0044.0032.0021-.005a.0941.0941,0,0,0,.0079-.0379l0-.0063a.0539.0539,0,0,1,.0006-.0148l.0053-.0148.0092.0176.0106.0272.0026.0081.005-.0068.0127-.0208L3.821,3.025l.004-.0115A.0729.0729,0,0,1,3.86,2.9809a.0863.0863,0,0,1,.0254-.0064.1111.1111,0,0,1,.047.0059l.0237.0059a.1947.1947,0,0,0,.0578.0022l.0183.2148-.0394.0007a.2881.2881,0,0,0-.1112.0155.1487.1487,0,0,0-.049.0379l-.0077.0089.0117-.0018A.38.38,0,0,1,3.8923,3.26a.3634.3634,0,0,1,.0418.0021.1009.1009,0,0,0-.0315.0916l.0014.0085.006-.0062a.301.301,0,0,1,.1715-.0895.3365.3365,0,0,1,.0742-.0027.4143.4143,0,0,1,.0567.007l.0081.0015-.0033-.0075a.09.09,0,0,0-.0323-.04.1413.1413,0,0,0-.0642-.0175l-.0325-.0028-.014-.2114a.11.11,0,0,1,.0388-.0085.1118.1118,0,0,1,.0273.0032.1548.1548,0,0,0,.0368.004c.0179,0,.0287,0,.0374-.0083.0159-.0144.0117-.0423.0078-.0576a.0927.0927,0,0,0-.02-.0372.1532.1532,0,0,1-.0243-.0412c-.0059-.0145-.0125-.031-.0057-.04.0029-.0037.0085-.0056.0306-.0056h.0013a.1763.1763,0,0,1,.08.01.0792.0792,0,0,1,.0413.0368.0742.0742,0,0,1,.003.052l-.004.0135.0109-.0089a.1246.1246,0,0,0,.0384-.0541l.0058-.0222a.155.155,0,0,1-.0012.04.1769.1769,0,0,1-.0807.1165l-.012.0075L4.3,2.9935a.0133.0133,0,0,1,.013.0082L4.31,3.0092a.0166.0166,0,0,1-.0127.006l-.0137,0,.0114.0076a.0348.0348,0,0,0,.0278.007.0308.0308,0,0,0,.0138-.009l.0127-.01.0041-.0022c-.006.0092-.0105.02-.0058.025s.0169.0024.0274-.0027l-.0088.0132-.0157.0244-.004.0063.0074,0a.0892.0892,0,0,0,.0414-.0074.1229.1229,0,0,0,.0368-.0288l.0012-.0012.0353-.0337.006-.0059a.3238.3238,0,0,0,.0729-.135A.2469.2469,0,0,0,4.5443,2.7343Zm-.3118-.1534a.1907.1907,0,0,0,.0234.0343l.009.01-.0233-.0074A.243.243,0,0,0,4.1887,2.61l-.0112,0,.0392.0381a.1089.1089,0,0,1-.0452-.0082.0819.0819,0,0,1-.0335-.0266.1677.1677,0,0,0-.0371-.0342.222.222,0,0,0-.0349-.0192.0535.0535,0,0,1-.0313-.0253.0356.0356,0,0,1-.003-.0322.0341.0341,0,0,1,.0259-.0164l.0086-.0009a.0909.0909,0,0,1,.04.0144l.0168.0085a.5981.5981,0,0,0,.1146.0406l.0294.0066a.069.069,0,0,1,.02.0061.1339.1339,0,0,1,.0573.0554.4136.4136,0,0,0-.0466-.0222.4238.4238,0,0,0-.061-.0194l-.0094-.0022Zm-.2516.0958c-.0019-.0315.0036-.0481.0079-.0493l.0092.01a.1568.1568,0,0,0,.0419.0415l.0131.0082c.0124.0075.0214.0128.0225.0219.0007.0062-.0019.0124-.0045.0134l-.0077-.0039a.0367.0367,0,0,0-.0216-.0093.0564.0564,0,0,0-.025.0083l-.0175.01-.0038.0021C3.9908,2.7284,3.9829,2.7093,3.9809,2.6767Zm.1214.2741-.0049-.0016-.0085-.003L4.07,2.9432l-.0006-.1046a.1228.1228,0,0,1,.0327.0257c.0227.0249.04.0627.0283.0772A.0314.0314,0,0,1,4.1023,2.9508ZM3.92,2.4353c-.0077-.0014-.0165-.0031-.0215.0028s-.0021.0139,0,.0212l.0021.011-.01-.0011c-.006-.0015-.0122-.003-.0156.0015s0,.0113.0039.018l.0047.0092-.0053-.0006A.0194.0194,0,0,0,3.8614,2.5c-.0057.0051-.0047.0139-.0039.0209l0,.0039,0,0A.0147.0147,0,0,0,3.8464,2.52c-.0065.001-.0108.0083-.0138.0238a.2586.2586,0,0,1-.0216-.106A.321.321,0,0,1,3.86,2.2851a.3884.3884,0,0,1,.0854-.12A.1579.1579,0,0,1,3.9387,2.2a.226.226,0,0,1-.0135.04l-.0095.0249a.2188.2188,0,0,0-.0117.09.1349.1349,0,0,0,.0134.0579l.0062.01.0065.0122ZM4.0091,2l-.0008-.01a.0428.0428,0,0,1,.0138.0129.0839.0839,0,0,1,.0167.0688.0787.0787,0,0,1-.0476.05c-.0062.0021-.0249.0086-.0338,0a.0243.0243,0,0,1-.0046-.0225c.0026-.01.01-.0147.02-.02a.075.075,0,0,0,.0259-.0208A.0772.0772,0,0,0,4.0091,2Zm-.0842.0677A.0153.0153,0,1,1,3.94,2.0521.0152.0152,0,0,1,3.9249,2.0674ZM4.1653,2l-.0766.019A.179.179,0,0,0,4.06,1.9773l.0509-.0758A.2237.2237,0,0,1,4.1653,2ZM3.94,1.8353a.2259.2259,0,0,1,.1644.06l-.0508.0758a.1309.1309,0,0,0-.0764-.0367l-.0143-.0008-.0229.002Zm-.1072.0375a.2177.2177,0,0,1,.0985-.0367v.1014a.1446.1446,0,0,0-.0434.0189Zm.02.2976c-.0052-.0057-.0081-.0091-.007-.0135l.0075-.0095a.0987.0987,0,0,0,.0175-.0205l.0041-.0086a.0414.0414,0,0,1,.033.043.0357.0357,0,0,1-.0424.0282l0,.0017A.0433.0433,0,0,0,3.8525,2.17Zm.458.6468A.1745.1745,0,0,0,4.2962,2.78a.2141.2141,0,0,0-.0837-.0794A.7149.7149,0,0,0,4.1067,2.65L4.07,2.6343A.1568.1568,0,0,1,4.0234,2.61a.1658.1658,0,0,1-.0527-.07.1384.1384,0,0,1,.0018-.1187.1044.1044,0,0,1,.0193-.0239l.0123.0039H4.005c.0124.0025.0858.0364.2189.098L4.2253,2.5c.0733.0338.11.0508.1161.0543l.0124.007-.0487-.0009L4.2913,2.553a.0786.0786,0,0,0-.0224-.0068L4.24,2.54a.5989.5989,0,0,1-.113-.04l-.0166-.0084a.0786.0786,0,0,0-.0547-.0143.0424.0424,0,0,0-.0318.021.0435.0435,0,0,0,.0029.04.0615.0615,0,0,0,.0355.0293.2248.2248,0,0,1,.0337.0185.16.16,0,0,1,.0353.0327.0894.0894,0,0,0,.0368.029L4.17,2.648a.0182.0182,0,0,0,.0049.0135l.0049.0029a.3517.3517,0,0,1,.1266.1093.1253.1253,0,0,1,.0229.0544l.0009.0108A.0765.0765,0,0,0,4.3105,2.8172Zm.2287.0445a.3191.3191,0,0,1-.0708.1309l-.0055.0055-.0354.0338-.0012.0012A.1187.1187,0,0,1,4.392,3.06a.08.08,0,0,1-.03.0067l.0115-.0177.0194-.0286.0128-.0183-.0187.0122c-.0194.0128-.03.0146-.0327.0138a.0531.0531,0,0,1,.0143-.0254l.0079-.01-.0123.0029a.0713.0713,0,0,0-.0192.0076l-.0143.0112-.01.0069a.0191.0191,0,0,1-.0114-.0009l.0075-.0063A.0185.0185,0,0,0,4.3211,3,.0187.0187,0,0,0,4.31,2.9874.1837.1837,0,0,0,4.3867,2.87a.1706.1706,0,0,0-.0074-.082l-.0084.002a.1159.1159,0,0,1-.0055.0577.1146.1146,0,0,1-.026.0413.0821.0821,0,0,0-.0016-.0311.1214.1214,0,0,0,0-.0313.1326.1326,0,0,0-.0242-.058.3576.3576,0,0,0-.1309-.1126l-.0019-.0011-.0019-.0041a.1194.1194,0,0,0,.0352.0052l.0134-.0007.0093-.0009L4.2,2.6192a.2415.2415,0,0,1,.0395.0067.2377.2377,0,0,1,.0477.0184l.0046-.0073A.18.18,0,0,1,4.2625,2.61a.1874.1874,0,0,1-.0175-.0241.4141.4141,0,0,1,.1087.0457l.0126.0076L4.36,2.6256a.1674.1674,0,0,0-.0425-.056l.0522.0009a.3188.3188,0,0,1,.1666.1664A.2382.2382,0,0,1,4.5392,2.8617Z"/></svg>