<svg xmlns="http://www.w3.org/2000/svg" viewBox="0 0 7.9818 5.1882"><rect width="7.9818" height="5.1882" fill="#06766f"/><rect y="1.7842" width="7.9818" height="3.404" fill="#f6db07"/><polygon points="3.494 2.594 2.403 3.404 7.982 3.404 7.982 1.784 2.403 1.784 3.494 2.594"/><polygon points="2.291 1.701 2.349 1.744 2.403 1.784 7.982 1.784 7.982 1.744 7.982 1.701 7.982 1.618 2.179 1.618 2.291 1.701" fill="#fff"/><polygon points="2.349 3.444 2.291 3.487 2.179 3.571 7.982 3.571 7.982 3.487 7.982 3.444 7.982 3.404 2.403 3.404 2.349 3.444" fill="#fff"/><polygon points="0.664 2.828 0.67 2.828 0.716 2.788 0.716 2.787 0.722 2.761 0.702 2.778 0.676 2.799 0.674 2.803 0.674 2.811 0.668 2.817 0.658 2.817 0.657 2.817 0.655 2.825 0.664 2.828" fill="#fff"/><path d="M1.6487,2.8651,1.63,2.7791l-.0583-.2673a.1414.1414,0,0,0-.04-.02.72.72,0,0,0-.1469-.0286.71.71,0,0,0-.1-.0016l.31.3427Z" fill="#fff"/><path d="M.9665,2.2274.9532,2.2125a.0234.0234,0,0,0-.0171-.0077L.8774,2.2041l-.0021-.001-.0419-.049-.0048.0017v.069a.022.022,0,0,1-.0051.0141l-.1056.1278H.92Z" fill="#cb1839"/><path d="M1.6538,2.8707l.0926.1026-.0713-.2262-.0492-.156a.1368.1368,0,0,0-.05-.0758l.057.2614Z" fill="#fff"/><path d="M2.2911,3.4873l.0576-.0428.0547-.0406,1.0909-.81-1.0909-.81-.0547-.0406-.0576-.0427-.1123-.0834L0,0V5.1882L2.1788,3.5707Zm-1.73-.0428.0135-.0406.118-.354H.5986L.5971,3.0492l0-.0016,0-.0015-.17.1953-.0087,0L.2914,3.1054l0-.008.1858-.164.003-.0014.0571-.0084.0034-.0018L.629,2.8289l.0031-.0017L.65,2.8236H.6513l.0022-.0091L.6526,2.8113V2.7555l.0021-.0046.0042-.0036L.1216,2.3667H.42L.6338,2.07a.0235.0235,0,0,1,.018-.01c.0347-.0012.0612.0058.0959.0045A.0227.0227,0,0,0,.77,2.0459a.0674.0674,0,0,1,.0077-.0234.093.093,0,0,1,.0712-.0417.1062.1062,0,0,1,.0351.0019l.0112.0062.1.1a.0221.0221,0,0,1,.0065.0157v.0176l.1127-.3382.0135-.0406.0143-.0427.0249-.0747.0248.0747.0143.0427.0135.0406.1327.3982.0068-.0067.0041-.0016h.0813l.0042-.0017.08-.0856L1.53,2.0829V2.034a.0057.0057,0,0,1,.009-.0046l.052.04.0072-.0005.0268-.02L1.63,2.0478l.0143.0033.0045.0052.0019.0329a.0058.0058,0,0,0,.009.0043l.3773-.2606.0012.0015-.3464.33-.004.0016h-.04l-.0039.0014-.1919.1637-.0079,0L1.41,2.2974l-.0041-.0016H1.3934L1.39,2.2967l.0233.07h.7986l-.5338.3781.0741.2352.149.1649.0052.01a.0471.0471,0,0,1-.0139.0429.0491.0491,0,0,1-.0344.0131.0223.0223,0,0,1-.0171-.0077l-.14-.1564c-.0218-.0053-.0436-.01-.0655-.0142l.1237.371.0135.0406.0143.0428.0258.0775-.1094-.0775-.06-.0428-.0573-.0406-.4189-.2967-.419.2967-.0573.0406-.06.0428-.1094.0775.0259-.0775Z" fill="#cb1839"/><path d="M1.0591,2.584a.0578.0578,0,0,0-.0376.0175.0519.0519,0,0,0-.0143.0389c.005.024.0416.036.0931.0482.0192.0045.0414.0093.0666.0139V2.5143L1.09,2.58,1.082,2.5791l-.0343-.04L1.04,2.5381l.0009.0062.0232.03A.0061.0061,0,0,1,1.0591,2.584Z" fill="#fff"/><path d="M.6981,2.7271l.0025-.0012.0349-.0288L.777,2.5047a.1381.1381,0,0,0-.0652.0863l-.0342.1407.0007,0Z" fill="#fff"/><path d="M.9009,2.9246A.65.65,0,0,1,1.11,2.954a.521.521,0,0,1,.0574.0237v-.13a.7839.7839,0,0,1-.1388-.0587C.9976,2.7733.957,2.752.91,2.7246l-.0191.02.0312.0451-.0007.0072L.8471,2.87l-.0015.0054.0132.0491H.8612Z" fill="#fff"/><path d="M1.1051,3.0089a.1239.1239,0,0,1,.0564-.03.4962.4962,0,0,0-.0533-.0218.6461.6461,0,0,0-.2074-.0292l-.041,0,.0173.0639-.0019.0057-.0479.04L.8181,3.0349.7782,2.93l-.0468.0029-.0409.0036v0L.6891,2.94l-.0865.1L.601,3.0462h.4661l.0039-.0046C1.0728,3.0323,1.0843,3.024,1.1051,3.0089Z" fill="#fff"/><path d="M.7768,2.9263.774,2.9188.7723,2.9164.7451,2.8945.7444,2.8938l0-.0076.0035-.0035.055-.0543.0042-.0017.0385.0008L.85,2.8255l.0315-.0362-.0007-.008-.02-.0162-.0078,0-.0257.0251,0,.0032.0157.009-.0011.0038H.813l-.0015.0006-.0552.051-.064.0592L.6917,2.918l-.0012.0055v.0092L.7327,2.929Z" fill="#fff"/><polygon points="0.871 2.653 0.856 2.653 0.852 2.654 0.726 2.757 0.721 2.783 0.837 2.682 0.844 2.681 0.852 2.687 0.86 2.686 0.879 2.668 0.881 2.662 0.881 2.662 0.882 2.656 1.007 2.54 1.004 2.537 0.875 2.652 0.871 2.653" fill="#fff"/><path d="M1.1708,2.5109v.1924c.0344.0062.0742.012.1189.0163l.0052.0058-.0043.1207-.0049.0054a.31.31,0,0,1-.08.0029.212.212,0,0,1-.035-.006v.1293a.5131.5131,0,0,1,.0574-.0237.6391.6391,0,0,1,.2086-.0294c.052-.0011.1047,0,.1575.0034q-.1976-.2206-.3953-.4412Z" fill="#fff"/><polygon points="1.266 3.048 1.267 3.048 1.267 3.047 1.266 3.048" fill="#f6db07"/><path d="M1.26,3.0529l.0033-.008V3.0432a.201.201,0,0,0-.037-.0344.1.1,0,0,0-.0569-.0262H1.1686a.1.1,0,0,0-.057.0262.201.201,0,0,0-.037.0344v.0017l.0033.008a.1587.1587,0,0,0,.0846.03h0l.0085,0,.005,0A.16.16,0,0,0,1.26,3.0529Z" fill="#fff"/><path d="M.9694,2.5043l.0017-.0026L.97,2.477l.0017-.0025.0151-.0132-.0336.0021a.72.72,0,0,0-.1469.0286.1392.1392,0,0,0-.0248.01L.74,2.6932Z" fill="#fff"/><path d="M1.5979,2.9319c-.054-.0035-.1079-.0047-.161-.0036a.6362.6362,0,0,0-.2075.0292.5031.5031,0,0,0-.0532.0218.1239.1239,0,0,1,.0564.03c.0207.015.0322.0234.0341.0327l.0036.0042a.5122.5122,0,0,1,.11-.0311.473.473,0,0,1,.0764-.0062.8985.8985,0,0,1,.1314.0127l.0462.0077c.0209.0039.0417.0084.0624.0133l-.0923-.103Z" fill="#fff"/><polygon points="1.071 3.048 1.071 3.048 1.071 3.047 1.071 3.048" fill="#f6db07"/><polygon points="1.264 2.336 1.263 2.334 1.255 2.333 1.205 2.373 1.214 2.384 1.264 2.344 1.264 2.336" fill="#f6db07"/><path d="M1.3236,2.3562,1.3217,2.36v.0191L1.32,2.3836l-.06.0511.0213.0235a.7215.7215,0,0,1,.2513.03A.1428.1428,0,0,1,1.63,2.59l.0488.1547.5338-.3781H1.4136l-.0233-.07L1.39,2.2972Z" fill="#f6db07"/><path d="M1.0073,2.1548l.1613.1787.0643-.0552.007-.0005.0107.0071A.0058.0058,0,0,0,1.26,2.28l0-.0046.0017-.0042.0911-.0888L1.22,1.7842,1.206,1.7436l-.0143-.0427-.0248-.0747-.0249.0747-.0143.0427-.0135.0406-.1127.3382V2.14A.0222.0222,0,0,0,1.0073,2.1548Z" fill="#f6db07"/><path d="M.7081,2.59a.1428.1428,0,0,1,.097-.1016A.7168.7168,0,0,1,.9529,2.46l.0384-.0023.0646-.0559.0083.0007.0476.0585.0083.0008.0324-.0267-.01-.0115-.0225.018-.0083-.0009-.0238-.03.0008-.0077.02-.0171-.1416-.158L.92,2.3667H.7179l-.1794.217a.0235.0235,0,0,1-.0358,0l-.1179-.14a.0221.0221,0,0,1-.0011-.0271l.0363-.05H.1216l.5373.3806.0139-.0122Z" fill="#f6db07"/><path d="M.63,3.4873l.06-.0428.0573-.0406.419-.2967.4189.2967.0573.0406.06.0428.1094.0775-.0258-.0775-.0143-.0428-.0135-.0406-.1237-.371-.0481-.008a.6253.6253,0,0,0-.2065-.0065.5032.5032,0,0,0-.11.0313l-.008.0059a.1251.1251,0,0,1-.0787.03l-.0021,0-.0047,0H1.1606l-.0047,0-.0021,0a.1249.1249,0,0,1-.0787-.03L1.0674,3.05H.6924l-.118.354-.0135.0406-.0142.0428-.0259.0775Z" fill="#f6db07"/><path d="M1.0751,3.0556a.1249.1249,0,0,0,.0787.03l.0021,0,.0047,0h.0165l.0047,0,.0021,0a.1251.1251,0,0,0,.0787-.03l.008-.0059a.5032.5032,0,0,1,.11-.0313.6253.6253,0,0,1,.2065.0065l.0481.008c.0219.0041.0437.0089.0655.0142l.14.1564a.0223.0223,0,0,0,.0171.0077.0491.0491,0,0,0,.0344-.0131.0471.0471,0,0,0,.0139-.0429l-.0052-.01L1.7525,2.98l-.0741-.2352L1.63,2.59a.1428.1428,0,0,0-.097-.1016.7215.7215,0,0,0-.2513-.03L1.26,2.4347l.06-.0511.0019-.0042V2.36l.0019-.0041.0659-.059L1.39,2.2967l.0031-.0009h.0124l.0041.0016.0344.0335.0079,0,.1919-.1637.0039-.0014h.04l.004-.0016.3464-.33-.0012-.0015L1.66,2.0935a.0058.0058,0,0,1-.009-.0043l-.0019-.0329-.0045-.0052L1.63,2.0478l-.0052.0013-.0268.02L1.5911,2.07l-.052-.04a.0057.0057,0,0,0-.009.0046v.0489l-.0017.0039-.08.0856-.0042.0017H1.3631l-.0041.0016-.0068.0067-.0911.0888-.0017.0042,0,.0046a.0058.0058,0,0,1-.009.0049L1.24,2.2778l-.007.0005-.0643.0552-.1613-.1787A.0222.0222,0,0,1,1.0015,2.14V2.1048A.0221.0221,0,0,0,.995,2.0891l-.1-.1L.8836,1.9827a.1062.1062,0,0,0-.0351-.0019.093.093,0,0,0-.0712.0417A.0674.0674,0,0,0,.77,2.0459a.0227.0227,0,0,1-.0219.019C.713,2.0662.6865,2.0592.6518,2.06a.0235.0235,0,0,0-.018.01L.42,2.3667l-.0363.05a.0221.0221,0,0,0,.0011.0271l.1179.14a.0235.0235,0,0,0,.0358,0l.1794-.217.1056-.1278a.022.022,0,0,0,.0051-.0141v-.069l.0048-.0017.0419.049.0021.001.0587.0007a.0234.0234,0,0,1,.0171.0077l.0133.0149.1416.158-.02.0171L1.0875,2.41l.0238.03.0083.0009.0225-.018.01.0115L1.12,2.4616l-.0083-.0008-.0476-.0585-.0083-.0007-.0646.0559L.9529,2.46a.7168.7168,0,0,0-.1478.0287.1428.1428,0,0,0-.097.1016l-.0353.145-.0139.0122-.0042.0036-.0021.0046v.0558l.0009.0031-.0022.0091H.65l-.0179.0036L.629,2.8289l-.0879.0929-.0034.0018L.4806,2.932l-.003.0014-.1858.164,0,.008.1273.1362.0087,0,.17-.1953,0,.0015,0,.0016L.5986,3.05h.4688Zm-.0044-.0079,0,0,0,.0009ZM.6584,2.817h.01l.0058-.0057V2.8029l.002-.0043.0255-.0209.02-.0163L.716,2.7873l0,0-.0458.04-.0063.0009L.655,2.8246l.0019-.0078Zm.9359.111c-.0528-.0033-.1055-.0045-.1575-.0034a.6391.6391,0,0,0-.2086.0294.5131.5131,0,0,0-.0574.0237V2.8484a.212.212,0,0,0,.035.006.31.31,0,0,0,.08-.0029l.0049-.0054.0043-.1207L1.29,2.72c-.0447-.0043-.0845-.01-.1189-.0163V2.5109l.0282-.0241Q1.3967,2.7075,1.5943,2.928Zm-.5307-.3534-.0232-.03L1.04,2.5381l.0082.0007.0343.04L1.09,2.58l.0766-.0654v.1882C1.1417,2.6979,1.12,2.6931,1.1,2.6886c-.0515-.0122-.0881-.0242-.0931-.0482a.0519.0519,0,0,1,.0143-.0389.0578.0578,0,0,1,.0376-.0175A.0061.0061,0,0,0,1.0636,2.5746ZM1.0067,2.54l-.1249.116-.0013.0059h0l-.0014.006L.86,2.686l-.0073.0006L.8444,2.6812l-.0072,0-.1164.1016.0055-.0257.1261-.1034.0039-.0013.0146,0L.8748,2.652l.1291-.1152Zm-.3162.3837L.6917,2.918l.0006-.0007.064-.0592.0552-.051L.813,2.8065h.03l.0011-.0038-.0157-.009,0-.0032.0257-.0251.0078,0,.02.0162.0007.008L.85,2.8255l-.0045.002L.8073,2.8267l-.0042.0017-.055.0543-.0035.0035,0,.0076.0007.0007.0272.0219.0017.0024.0028.0075L.7327,2.929l-.0422.0037Zm.1551-.0484L.8471,2.87l.0741-.0731.0007-.0072L.8907,2.7443l.0191-.02c.0472.0274.0878.0487.1183.064a.7839.7839,0,0,0,.1388.0587v.13A.521.521,0,0,0,1.11,2.954a.65.65,0,0,0-.2086-.0294l-.04,0H.8588Zm.3254.2077-.0085,0h0a.1587.1587,0,0,1-.0846-.03l-.0033-.008V3.0432a.201.201,0,0,1,.037-.0344.1.1,0,0,1,.057-.0262h.0006a.1.1,0,0,1,.0569.0262.201.201,0,0,1,.037.0344v.0017l-.0033.008a.16.16,0,0,1-.0839.03Zm.0954-.0346,0-.0009,0,0Zm.3679-.0193-.0462-.0077a.8985.8985,0,0,0-.1314-.0127.473.473,0,0,0-.0764.0062.5122.5122,0,0,0-.11.0311l-.0036-.0042c-.0019-.0093-.0134-.0177-.0341-.0327a.1239.1239,0,0,0-.0564-.03.5031.5031,0,0,1,.0532-.0218.6362.6362,0,0,1,.2075-.0292c.0531-.0011.107,0,.161.0036l.0065.0073.0923.103C1.676,3.0373,1.6552,3.0328,1.6343,3.0289Zm-.0084-.4378.0492.156.0713.2262-.0926-.1026-.02-.094-.057-.2614A.1368.1368,0,0,1,1.6259,2.5911Zm-.2414-.1277a.72.72,0,0,1,.1469.0286.1414.1414,0,0,1,.04.02l.0583.2673.0187.086-.0546-.0606-.31-.3427A.71.71,0,0,1,1.3845,2.4634Zm-.18-.09.05-.04.0083.0011.0014.0018-.0009.0076-.0492.0405ZM.8063,2.492a.72.72,0,0,1,.1469-.0286l.0336-.0021-.0151.0132L.97,2.477l.0011.0247-.0017.0026L.74,2.6932l.0413-.1909A.1392.1392,0,0,1,.8063,2.492Zm-.0945.099A.1381.1381,0,0,1,.777,2.5047l-.0415.1924-.0349.0288-.0025.0012-.02.0043-.0007,0Zm-.0181.4552H.601L.6026,3.04l.0865-.1.0014-.0036v0l.0409-.0036L.7782,2.93l.04.1049.0092.0024.0479-.04.0019-.0057L.86,2.9279l.041,0a.6461.6461,0,0,1,.2074.0292.4962.4962,0,0,1,.0533.0218.1239.1239,0,0,0-.0564.03c-.0208.0151-.0323.0234-.0341.0327l-.0039.0046Z"/></svg>