<svg xmlns="http://www.w3.org/2000/svg" viewBox="0 0 7.9821 5.1885"><rect y="4.4472" width="1.1403" height="0.7413" fill="#ffe109"/><rect x="1.1403" y="4.4472" width="1.1403" height="0.7413" fill="#ed7b1a"/><rect x="2.2806" y="4.4472" width="1.1404" height="0.7413" fill="#d4171a"/><rect x="3.421" y="4.4472" width="1.1403" height="0.7413" fill="#742c64"/><rect x="4.5613" y="4.4472" width="1.1403" height="0.7413" fill="#1847af"/><rect x="5.7016" y="4.4472" width="1.1404" height="0.7413" fill="#0c8335"/><rect x="6.842" y="4.4472" width="1.1401" height="0.7413" fill="#fff"/><rect y="3.7061" width="1.1403" height="0.7411" fill="#ed7b1a"/><rect x="1.1403" y="3.7061" width="1.1403" height="0.7411" fill="#d4171a"/><rect x="2.2806" y="3.7061" width="1.1404" height="0.7411" fill="#742c64"/><rect x="3.421" y="3.7061" width="1.1403" height="0.7411" fill="#1847af"/><rect x="4.5613" y="3.7061" width="1.1403" height="0.7411" fill="#0c8335"/><rect x="5.7016" y="3.7061" width="1.1404" height="0.7411" fill="#fff"/><rect x="6.842" y="3.7061" width="1.1401" height="0.7411" fill="#ffe109"/><rect y="2.9648" width="1.1403" height="0.7413" fill="#d4171a"/><rect x="1.1403" y="2.9648" width="1.1403" height="0.7413" fill="#742c64"/><rect x="2.2806" y="2.9648" width="1.1404" height="0.7413" fill="#1847af"/><rect x="3.421" y="2.9648" width="1.1403" height="0.7413" fill="#0c8335"/><rect x="4.5613" y="2.9648" width="1.1403" height="0.7413" fill="#fff"/><rect x="5.7016" y="2.9648" width="1.1404" height="0.7413" fill="#ffe109"/><rect x="6.842" y="2.9648" width="1.1401" height="0.7413" fill="#ed7b1a"/><rect y="2.2237" width="1.1403" height="0.7411" fill="#742c64"/><rect x="1.1403" y="2.2237" width="1.1403" height="0.7411" fill="#1847af"/><rect x="2.2806" y="2.2237" width="1.1404" height="0.7411" fill="#0c8335"/><rect x="3.421" y="2.2237" width="1.1403" height="0.7411" fill="#fff"/><rect x="4.5613" y="2.2237" width="1.1403" height="0.7411" fill="#ffe109"/><rect x="5.7016" y="2.2237" width="1.1404" height="0.7411" fill="#ed7b1a"/><rect x="6.842" y="2.2237" width="1.1401" height="0.7411" fill="#d4171a"/><rect y="1.4825" width="1.1403" height="0.7412" fill="#1847af"/><rect x="1.1403" y="1.4825" width="1.1403" height="0.7412" fill="#0c8335"/><rect x="2.2806" y="1.4825" width="1.1404" height="0.7412" fill="#fff"/><rect x="3.421" y="1.4825" width="1.1403" height="0.7412" fill="#ffe109"/><rect x="4.5613" y="1.4825" width="1.1403" height="0.7412" fill="#ed7b1a"/><rect x="5.7016" y="1.4825" width="1.1404" height="0.7412" fill="#d4171a"/><rect x="6.842" y="1.4825" width="1.1401" height="0.7412" fill="#742c64"/><rect y="0.7412" width="1.1403" height="0.7413" fill="#0c8335"/><rect x="1.1403" y="0.7412" width="1.1403" height="0.7413" fill="#fff"/><rect x="2.2806" y="0.7412" width="1.1404" height="0.7413" fill="#ffe109"/><rect x="3.421" y="0.7412" width="1.1403" height="0.7413" fill="#ed7b1a"/><rect x="4.5613" y="0.7412" width="1.1403" height="0.7413" fill="#d4171a"/><rect x="5.7016" y="0.7412" width="1.1404" height="0.7413" fill="#742c64"/><rect x="6.842" y="0.7412" width="1.1401" height="0.7413" fill="#1847af"/><rect width="1.1403" height="0.7412" fill="#fff"/><rect x="1.1403" width="1.1403" height="0.7412" fill="#ffe109"/><rect x="2.2806" width="1.1404" height="0.7412" fill="#ed7b1a"/><rect x="3.421" width="1.1403" height="0.7412" fill="#d4171a"/><rect x="4.5613" width="1.1403" height="0.7412" fill="#742c64"/><rect x="5.7016" width="1.1404" height="0.7412" fill="#1847af"/><rect x="6.842" width="1.1401" height="0.7412" fill="#0c8335"/></svg>