<svg xmlns="http://www.w3.org/2000/svg" viewBox="0 0 7.9818 5.1862"><polygon points="0.006 5.182 7.982 5.182 7.982 2.595 4.588 2.595 0.006 5.182" fill="#0fae30"/><polygon points="0 0 0 0.004 4.588 2.595 7.982 2.595 7.982 0 0 0" fill="#67b5e5"/><path d="M0,.0037V5.1862l.0064-.0037L4.588,2.5949Zm1.7984,3.05-.4258.3091.1626-.5L1.11,2.5532h.5262l.1627-.5.1626.5h.5262l-.4257.3091.1626.5Z" fill="#fff"/><polygon points="2.487 2.553 1.961 2.553 1.798 2.053 1.636 2.553 1.11 2.553 1.535 2.862 1.373 3.362 1.798 3.053 2.224 3.362 2.061 2.862 2.487 2.553" fill="#de111f"/></svg>