<svg xmlns="http://www.w3.org/2000/svg" viewBox="0 0 7.9818 5.1882"><path d="M0,0V5.1882H7.9818V0ZM2.8582,2.9017l-.3617-.1175-.2235.3077v-.38l-.3617-.1175.3617-.1175v-.38l.2235.3076.3617-.1175-.2236.3077Zm1.25,1.41-.1175.3617L3.8734,4.312h-.38l.3077-.2235-.1175-.3617.3076.2235.3077-.2235-.1176.3617.3077.2235ZM4.181,1.1l.1176.3616-.3077-.2235-.3076.2235L3.8008,1.1,3.4931.8761h.38L3.9909.5145l.1175.3616h.38ZM5.7088,2.7116v.38l-.2235-.3077-.3616.1175.2235-.3076-.2235-.3077.3616.1175.2235-.3076v.38l.3617.1175Z" fill="#7ab2dd"/><polygon points="3.991 0.514 3.873 0.876 3.493 0.876 3.801 1.1 3.683 1.461 3.991 1.238 4.299 1.461 4.181 1.1 4.489 0.876 4.108 0.876 3.991 0.514" fill="#fff"/><polygon points="2.496 2.404 2.273 2.096 2.273 2.477 1.911 2.594 2.273 2.712 2.273 3.092 2.496 2.784 2.858 2.902 2.635 2.594 2.858 2.286 2.496 2.404" fill="#fff"/><polygon points="4.299 3.727 3.991 3.95 3.683 3.727 3.801 4.088 3.493 4.312 3.873 4.312 3.991 4.674 4.108 4.312 4.489 4.312 4.181 4.088 4.299 3.727" fill="#fff"/><polygon points="5.709 2.096 5.485 2.404 5.124 2.286 5.347 2.594 5.124 2.902 5.485 2.784 5.709 3.092 5.709 2.712 6.07 2.594 5.709 2.477 5.709 2.096" fill="#fff"/></svg>