<svg xmlns="http://www.w3.org/2000/svg" viewBox="0 0 7.9818 5.1882"><polygon points="3.643 2.799 3.08 2.39 3.776 2.39 3.99 1.729 0 1.729 0 3.459 3.428 3.459 3.643 2.799" fill="#fad219"/><polygon points="3.43 3.459 4.552 3.459 3.991 3.051 3.43 3.459" fill="#fad219"/><polygon points="4.554 3.46 4.552 3.459 3.43 3.459 3.428 3.46 3.428 3.459 0 3.459 0 5.188 7.982 5.188 7.982 3.459 4.553 3.459 4.554 3.46" fill="#006e41"/><polygon points="0 0 0 1.729 3.99 1.729 3.991 1.728 3.991 1.729 7.982 1.729 7.982 0 0 0" fill="#cd1428"/><polygon points="4.206 2.39 4.902 2.39 4.339 2.799 4.553 3.459 7.982 3.459 7.982 1.729 3.991 1.729 4.206 2.39" fill="#fad219"/><polygon points="4.554 3.46 4.553 3.459 4.552 3.459 4.554 3.46"/><polygon points="3.991 1.728 3.99 1.729 3.991 1.729 3.991 1.728"/><polygon points="3.08 2.39 3.643 2.799 3.428 3.459 3.43 3.459 3.991 3.051 4.552 3.459 4.553 3.459 4.339 2.799 4.902 2.39 4.206 2.39 3.991 1.729 3.99 1.729 3.776 2.39 3.08 2.39"/><polygon points="3.428 3.46 3.43 3.459 3.428 3.459 3.428 3.46"/></svg>