<svg xmlns="http://www.w3.org/2000/svg" viewBox="0 0 7.9818 5.1882"><rect y="1.2971" width="7.9818" height="2.5941" fill="#fff"/><path d="M2.8265,3.34a.06.06,0,0,0,.013.0409c.02.0248.068.02.1114.0132a1.0851,1.0851,0,0,0,.1766-.0433,1.4128,1.4128,0,0,0,.2072-.08.4269.4269,0,0,1,.1124-.0492.1768.1768,0,0,1,.1165,0,.16.16,0,0,1,.0817.1016c.0153.0629-.0187.1154-.0867.22-.0637.0984-.0955.1477-.1561.1759-.0287.0134-.094.0368-.1313.05-.0456.0156-.0837.0269-.0953.0583-.0013.0032-.01.0261.0018.039a.03.03,0,0,0,.0279.0074c.0164-.0034.0223-.0185.0334-.0316.0178-.0209.04-.0269.0855-.039a.6352.6352,0,0,1,.0892-.013.3748.3748,0,0,0,.1282-.039c.0455-.0252.0411-.0407.1171-.0929.0489-.0337.0627-.0355.0724-.0353.0381.0005.0513.0316.0948.0278.0088-.0007.0071-.0019.0483-.0093a.113.113,0,0,1,.0465-.0037.0691.0691,0,0,1,.039.0242c.013.0172.0058.028.0186.0464.0037.0054.0081.01.0334.0261.0469.03.0466.0232.06.0353.0206.0194.0186.0335.0446.052.0176.0125.0242.01.026.0093.0072-.0033.0077-.0138.0111-.039a.1609.1609,0,0,1,.0112-.0539c.0127-.0159.04-.0129.0725-.0093a.3261.3261,0,0,1,.1077.0316.2029.2029,0,0,1,.0744.0483c.0239.0274.0227.0467.052.0669.0083.0057.0311.0214.05.013a.0378.0378,0,0,0,.0167-.0167A.0484.0484,0,0,0,4.54,3.8293a.0683.0683,0,0,0-.0464-.03.41.41,0,0,1-.1784-.16.44.44,0,0,1-.0743-.1468.5688.5688,0,0,1,.0018-.2379.1008.1008,0,0,1,.026-.065.1078.1078,0,0,1,.0874-.02.2035.2035,0,0,1,.0687.0334.4072.4072,0,0,0,.13.0428.6337.6337,0,0,0,.1245.0018,1.0507,1.0507,0,0,1,.1877.0019.42.42,0,0,1,.1375.0539,1.7354,1.7354,0,0,0,.174.1077.078.078,0,0,0,.0675.0093.051.051,0,0,0,.026-.0427c.0006-.0264-.0234-.0456-.0538-.0688a1.3161,1.3161,0,0,0-.1208-.0873,1.0017,1.0017,0,0,1-.2936-.1784.0624.0624,0,0,1-.0149-.0464c.005-.0282.0375-.0433.0483-.0483A.1366.1366,0,0,1,4.93,2.943c.0311.0086.027.0183.0837.0483a.17.17,0,0,0,.0984.0279c.0114-.0011.0283-.003.0354-.0149.0094-.0159-.0038-.0406-.0149-.0539a.0987.0987,0,0,0-.0483-.03c-.0271-.0087-.0284-.0172-.1561-.1338-.075-.0684-.0835-.0737-.0985-.078a.4275.4275,0,0,0-.11-.02c-.0131,0-.0352.0013-.0428-.0111a.0333.0333,0,0,1,.0019-.0279.0533.0533,0,0,1,.0279-.0242.1409.1409,0,0,1,.0613-.0111c.0338-.001.0408.0008.065,0,.05-.0007.0474-.0085.0836-.0076.0477.0012.06.0148.0837.0034.0179-.0089.0343-.0289.0306-.0442s-.03-.0222-.0641-.03a1.5972,1.5972,0,0,0-.2659-.0709.037.037,0,0,1-.0277-.0108.0376.0376,0,0,1-.0018-.0353.0656.0656,0,0,1,.0446-.0335c.0361-.0078.0491.0193.1152.0279.0118.0016.0061,0,.0408.0028.0385.0031.0534.0056.061-.0036a.0246.0246,0,0,0,.0041-.0178c-.0022-.0268-.0342-.0452-.0465-.052-.106-.0592-.159-.0887-.1635-.0911-.0115-.0059-.0715-.0547-.1914-.1523a.5967.5967,0,0,0-.1294-.0911.05.05,0,0,1-.0192-.0111.0474.0474,0,0,1-.0161-.0459.0469.0469,0,0,1,.0322-.0254c.0366-.01.0557.0212.1276.0391.018.0045.01.0007.056.0093.0433.008.0658.0141.0775.0015a.0172.0172,0,0,0,.0052-.01c.0016-.0186-.0383-.0336-.0855-.0567-.0677-.0332-.1239-.0614-.1235-.0938a.033.033,0,0,1,.013-.026c.02-.0135.0468.0136.0762,0,.0032-.0015.0181-.009.02-.0214.0037-.0206-.03-.0423-.0576-.06-.113-.0725-.17-.1089-.1849-.1146-.0771-.0292-.0761-.0088-.1486-.0371a.4006.4006,0,0,1-.1648-.1091.3708.3708,0,0,1-.0786-.1494.43.43,0,0,1-.0527.0826,1.0532,1.0532,0,0,1-.18.1585c-.024.0181-.0736.0549-.069.0832,0,.0016.0025.0155.01.0172.0053.0012.0084-.0056.0186-.0106a.0357.0357,0,0,1,.031-.0018c.01.0064.0111.0245.01.0334-.0062.0442-.0874.0544-.1951.13-.012.0084-.0438.0314-.0391.0437.0012.003.0047.0056.0409.013.03.0061.0352.0057.0409.0111a.0459.0459,0,0,1,.0037.0539c-.0065.01-.0155.0129-.0539.0242-.0558.0163-.0532.0146-.0576.0167-.0377.0177-.0378.0553-.065.0929-.0231.0319-.04.0286-.1208.0725-.0214.0116-.1884.1025-.1756.1429.0017.0056.0065.0088.0158.015a.0981.0981,0,0,0,.0688.0111.58.58,0,0,0,.0687-.02c.0307-.0079.046-.0119.0576-.0074.0274.0106.0393.054.039.0855a.21.21,0,0,1-.1245.1635c-.0413.0206-.0486.009-.0966.0334a.5324.5324,0,0,0-.1078.0855c-.0905.08-.1241.1118-.1158.1293l.0118.01a.135.135,0,0,0,.052.0223c.0345.0053.0494-.0275.1264-.0651a.1139.1139,0,0,1,.0687-.0186.08.08,0,0,1,.0576.0391c.017.0369-.0135.0794-.02.0891-.0312.0436-.06.0325-.1412.0818-.0216.0131-.055.0391-.1217.0911-.0353.0274-.0529.0411-.0623.05-.0481.0463-.0511.07-.0855.0809-.02.0064-.0361.0041-.05.0195a.0378.0378,0,0,0-.0112.0353c.0063.0161.0328.0191.0465.02a.2775.2775,0,0,0,.1449-.0334s.1687-.0849.2843-.132A.1143.1143,0,0,1,3.2539,3.04c.0049.0011.0417.0092.05.0334.01.0283-.0242.063-.0353.0744-.1133.1158-.4059.1295-.4339.1709A.0552.0552,0,0,0,2.8265,3.34Z" fill="#00aa50"/><path d="M3.6311,1.7853a.0373.0373,0,0,1,.04.014.0405.0405,0,0,1-.0037.0511.0364.0364,0,0,1-.0371.0111.0384.0384,0,0,1-.0223-.0306A.0411.0411,0,0,1,3.6311,1.7853Z" fill="#fff"/><path d="M3.8309,1.9c.0024-.0082.0084-.0176.0631-.0436.0351-.0167.0432-.0179.0521-.0158a.0456.0456,0,0,1,.0306.025.0557.0557,0,0,1-.0148.05.0975.0975,0,0,1-.079.0316c-.0128-.0005-.0389-.0016-.0493-.02A.0378.0378,0,0,1,3.8309,1.9Z" fill="#fff"/><path d="M4.0715,1.8272a.0347.0347,0,0,0-.027.02.0412.0412,0,0,0,.0019.0353.0341.0341,0,0,0,.0186.02A.0318.0318,0,0,0,4.0919,1.9.0382.0382,0,0,0,4.11,1.8671.04.04,0,0,0,4.0715,1.8272Z" fill="#fff"/><path d="M4.2211,1.8364c-.0206-.001-.0333.0224-.0363.0279a.0437.0437,0,0,0-.0046.0381c.0029.0057.0081.0091.0186.0158.0138.009.0208.0134.0288.0121.0122-.0021.0189-.0155.0223-.0223a.0527.0527,0,0,0,.0046-.0372C4.2511,1.8579,4.24,1.8374,4.2211,1.8364Z" fill="#fff"/><path d="M3.72,1.9349c-.013.0018-.0167.0075-.0558.0409-.0255.0219-.0327.027-.0371.04-.0009.0026-.0084.0258.0028.0371s.0332.0041.052-.0018a.1158.1158,0,0,0,.079-.0576.0493.0493,0,0,0,.0009-.0446A.0476.0476,0,0,0,3.72,1.9349Z" fill="#fff"/><path d="M3.554,2.1607a.0505.0505,0,0,0-.0214.0288.0649.0649,0,0,0,.039.0678A.06.06,0,0,0,3.63,2.23a.0541.0541,0,0,0,.012-.0437A.05.05,0,0,0,3.619,2.156.0611.0611,0,0,0,3.554,2.1607Z" fill="#fff"/><path d="M3.9488,2.1087c-.0044,0-.0423.0045-.0473.0269-.0043.019.0167.0438.0418.0455A.0462.0462,0,0,0,3.9888,2.15a.0357.0357,0,0,0-.0037-.0325A.0406.0406,0,0,0,3.9488,2.1087Z" fill="#fff"/><path d="M4.1114,2.0957c-.0194-.0048-.0391.0243-.0408.0269a.0505.0505,0,0,0-.0084.05.0368.0368,0,0,0,.0307.0186c.0209,0,.0345-.021.039-.0354C4.1393,2.1322,4.13,2.1,4.1114,2.0957Z" fill="#fff"/><path d="M4.28,2.1412a.072.072,0,0,0-.0623.0279.0556.0556,0,0,0-.0037.0408.0717.0717,0,0,0,.0409.0446.0844.0844,0,0,0,.06.0028c.0117-.0035.0408-.0122.0483-.0371a.0545.0545,0,0,0-.0074-.0419A.0911.0911,0,0,0,4.28,2.1412Z" fill="#fff"/><path d="M3.6822,2.4682c-.0108.0038-.0151.0192-.0158.0279a.038.038,0,0,0,.02.0372.0313.0313,0,0,0,.0242.0009.03.03,0,0,0,.0176-.0214C3.7318,2.49,3.7,2.4619,3.6822,2.4682Z" fill="#fff"/><path d="M3.8634,2.4385c-.0154.0027-.0207.0239-.0214.0269s-.007.03.01.04a.031.031,0,0,0,.0363-.0065.0363.0363,0,0,0,.0065-.0353C3.8906,2.4506,3.8773,2.436,3.8634,2.4385Z" fill="#fff"/><path d="M3.9888,2.484c-.0123.0016-.0187.0237-.0232.039a.092.092,0,0,0-.0037.0465.0533.0533,0,0,0,.0176.0353.0478.0478,0,0,0,.0381.0074.0491.0491,0,0,0,.0381-.0334c.0031-.0137-.01-.031-.0353-.0651C4,2.4859,3.9937,2.4834,3.9888,2.484Z" fill="#fff"/><path d="M4.1114,2.5481c-.0067,0-.0115.0094-.0148.0158a.0387.0387,0,0,0-.0037.0353c.0032.0063.0109.0148.0195.014.0115-.0012.0184-.0188.0185-.0316C4.1311,2.5656,4.121,2.5478,4.1114,2.5481Z" fill="#fff"/><path d="M4.4682,2.353a.0476.0476,0,0,0-.039.0307.0517.0517,0,0,0,.0139.0436.0549.0549,0,0,0,.027.0214.0511.0511,0,0,0,.0427-.0046.0468.0468,0,0,0,.0214-.0316.0507.0507,0,0,0-.0177-.0418A.0577.0577,0,0,0,4.4682,2.353Z" fill="#fff"/><path d="M4.4444,2.7819a.0962.0962,0,0,0-.0669.0521A.0468.0468,0,0,0,4.375,2.87c.0139.03.0809.0351.1263.01.024-.0133.0568-.0432.05-.0681C4.5439,2.7826,4.4857,2.7715,4.4444,2.7819Z" fill="#fff"/><path d="M4.7243,2.8216c-.0254-.003-.045.0154-.0669.0359s-.0449.0421-.04.0657c.006.0267.0465.04.0755.04.034-.0006.0848-.0209.0892-.0644A.0733.0733,0,0,0,4.7243,2.8216Z" fill="#fff"/><path d="M3.9142,2.9145a.0543.0543,0,0,0-.0261.0594c.0039.0234.0237.0517.05.05a.0511.0511,0,0,0,.0409-.05C3.98,2.9387,3.94,2.9061,3.9142,2.9145Z" fill="#fff"/><path d="M3.57,2.8947c-.018.0088-.01.0585-.0037.083s.0251.0708.0458.0693.04-.047.031-.0854C3.6331,2.9188,3.5881,2.8857,3.57,2.8947Z" fill="#fff"/><path d="M3.74,2.9516c-.0117.0083-.0063.0426.0111.0632.0109.0128.0323.0273.0446.02s.01-.0275.0062-.0408C3.7918,2.9631,3.7527,2.9423,3.74,2.9516Z" fill="#fff"/><path d="M3.3753,2.191c-.02.0184-.006.06-.0037.0669.0031.0094.0213.0591.0644.0632a.06.06,0,0,0,.0582-.0272c.0183-.035-.0223-.0769-.0248-.0793C3.4438,2.1888,3.3963,2.1717,3.3753,2.191Z" fill="#fff"/><path d="M3.3406,2.62c-.0355.0034-.0924.009-.1028.0421-.0084.0267.0168.0611.0433.0768A.14.14,0,0,0,3.41,2.7262c.0034-.0017.084-.042.0768-.0743S3.3933,2.6145,3.3406,2.62Z" fill="#fff"/><rect y="3.8912" width="7.9818" height="1.297" fill="#f0141e"/><rect width="7.9818" height="1.2971" fill="#f0141e"/></svg>