<svg xmlns="http://www.w3.org/2000/svg" viewBox="0 0 7.9818 5.1882"><rect y="1.7294" width="7.9818" height="1.7294" fill="#fff"/><rect y="3.4588" width="7.9818" height="1.7294" fill="#059905"/><rect width="7.9818" height="1.7294" fill="#ff9632"/><path d="M3.9675,2.4705l.0094-.0014-.01-.1216.0218-.353c-.0155,0-.0308.0007-.0459.0019a.0326.0326,0,0,1-.0645.0087c-.0151.0029-.03.0063-.0447.01l.1124.3355Z" fill="none"/><path d="M3.9089,2.4988l.0074-.0059-.07-.1L3.689,2.0759q-.02.0117-.0387.0247a.0325.0325,0,0,1-.0514.04q-.0174.015-.0336.0314l.265.2342Z" fill="none"/><path d="M3.9363,2.4808,3.945,2.477l-.0412-.1148-.07-.3468c-.0148.0041-.03.0086-.0438.0138a.0325.0325,0,0,1-.06.0251q-.0207.01-.0405.0216l.1954.2949Z" fill="none"/><path d="M3.887,2.5233l.0056-.0077L3.8,2.4368l-.2342-.265q-.0162.0164-.0311.0338a.0325.0325,0,0,1-.0394.0517c-.0086.0127-.0168.0257-.0244.039l.3167.1577Z" fill="none"/><path d="M3.4019,2.7068c.0029.0151.0063.03.01.0448l.3355-.1125.12-.0216-.0014-.0094-.1216.01-.353-.0217c0,.0154.0007.0307.0019.0459a.0325.0325,0,0,1,.0087.0644Z" fill="none"/><path d="M3.4661,2.3793a.0326.0326,0,0,1-.0417.0179c-.005.0144-.01.029-.0134.0439l.3468.07.1144.0411.0034-.0089-.11-.052L3.47,2.2963c-.0076.0133-.0147.0268-.0213.0407A.0326.0326,0,0,1,3.4661,2.3793Z" fill="none"/><path d="M3.4284,2.5224a.0325.0325,0,0,1-.0355.0281c-.0011.0144-.0016.029-.0016.0436v.0023l.353-.0217.1212.01.001-.01-.12-.0217L3.411,2.4412c-.0039.0147-.0072.03-.01.0448A.0326.0326,0,0,1,3.4284,2.5224Z" fill="none"/><path d="M4,2.4687l.01.001.0216-.12.1125-.3355c-.0148-.0039-.03-.0072-.0449-.01a.0325.0325,0,0,1-.0645-.0081c-.0144-.0011-.0289-.0016-.0436-.0016H3.9886l.0218.353Z" fill="none"/><path d="M4.5307,2.3328q-.01-.0207-.0216-.0405l-.2949.1954-.11.0518.0037.0088.1149-.0413.3467-.07c-.004-.0148-.0086-.0294-.0137-.0438a.0325.0325,0,0,1-.0252-.06Z" fill="none"/><path d="M4.58,2.4815c-.0028-.0152-.0063-.03-.01-.0448l-.3355.1124-.12.0216.0014.0094.1216-.01.353.0218c0-.0155-.0007-.0308-.0019-.0459A.0325.0325,0,0,1,4.58,2.4815Z" fill="none"/><path d="M4.1439,2.0142l-.07.3468-.0411.1144.0089.0035.052-.11.1954-.2949q-.02-.0114-.0407-.0213a.0325.0325,0,0,1-.06-.0247C4.1735,2.0226,4.1588,2.0181,4.1439,2.0142Z" fill="none"/><path d="M4.4446,2.2021c-.01-.0116-.0205-.0228-.0313-.0336l-.2343.265-.0928.0786.006.0074.1-.07.3167-.1577q-.0117-.02-.0247-.0387a.0325.0325,0,0,1-.04-.0514Z" fill="none"/><path d="M4.2888,2.0736,4.1311,2.39l-.0694.1.0077.0057.0788-.0932.265-.2342q-.0162-.0162-.0338-.0311a.0325.0325,0,0,1-.0517-.0394C4.3151,2.0894,4.3021,2.0812,4.2888,2.0736Z" fill="none"/><path d="M4.0949,2.665l-.0057.0076.0931.0788.2343.265c.0107-.0108.0211-.0221.031-.0338a.0325.0325,0,0,1,.0395-.0517Q4.5,2.912,4.5114,2.892l-.3167-.1577Z" fill="none"/><path d="M4.073,2.6894l-.0075.006.07.1.1577.3167c.0132-.0077.0262-.016.0387-.0247a.0325.0325,0,0,1,.0515-.04c.0115-.01.0227-.02.0335-.0314l-.265-.2342Z" fill="none"/><path d="M4.0455,2.7075l-.0087.0038.0412.1148.07.3467c.0148-.004.03-.0086.0438-.0137a.0325.0325,0,0,1,.06-.0251c.0138-.0067.0274-.014.0406-.0217l-.1955-.2949Z" fill="none"/><path d="M4.5157,2.809a.0326.0326,0,0,1,.0417-.0179c.005-.0144.01-.0291.0134-.044l-.3467-.07L4.11,2.6356l-.0035.0089.11.052.2949.1954c.0076-.0132.0148-.0268.0213-.0407A.0325.0325,0,0,1,4.5157,2.809Z" fill="none"/><path d="M4.5534,2.6658a.0327.0327,0,0,1,.0356-.0281c.001-.0144.0015-.0289.0015-.0436V2.5918l-.353.0218-.1212-.01-.001.01.12.0217.3355.1124c.0039-.0147.0072-.03.01-.0449A.0325.0325,0,0,1,4.5534,2.6658Z" fill="none"/><path d="M3.6931,3.1146l.1577-.3167.0693-.1-.0077-.0057-.0788.0931-.265.2343c.0109.0108.0221.0211.0338.031a.0325.0325,0,0,1,.0517.0395Q3.673,3.1032,3.6931,3.1146Z" fill="none"/><path d="M3.4511,2.8554q.01.0208.0216.0406l.2949-.1954.11-.0519L3.8738,2.64l-.1148.0412-.3468.07c.004.0149.0086.03.0138.0439a.0325.0325,0,0,1,.0251.06Z" fill="none"/><path d="M4.0143,2.7177l-.0094.0014.01.1216-.0217.353c.0154,0,.0307-.0007.0459-.0019a.0325.0325,0,0,1,.0644-.0087c.0151-.0028.03-.0063.0448-.01l-.1125-.3354Z" fill="none"/><path d="M3.5372,2.9862q.015.0174.0314.0335l.2342-.265.0928-.0785L3.89,2.6687l-.1.07-.3167.1577q.0117.02.0247.0388a.0325.0325,0,0,1,.04.0514Z" fill="none"/><path d="M3.8379,3.174l.07-.3467.0411-.1144-.0089-.0035-.052.11-.1954.295q.02.0114.0407.0213a.0325.0325,0,0,1,.06.0246C3.8084,3.1656,3.823,3.17,3.8379,3.174Z" fill="none"/><path d="M3.9815,2.72l-.0094-.001-.0217.12-.1125.3354c.0148.0039.03.0073.0449.01a.0325.0325,0,0,1,.0645.0082c.0144.001.0289.0016.0436.0016h.0023l-.0218-.353Z" fill="none"/><path d="M3.9909,1.9143a.68.68,0,1,0,.68.68A.68.68,0,0,0,3.9909,1.9143Zm.5619.6035a.0326.0326,0,0,0,.0358.0281c.0012.0151.0019.03.0019.0459L4.2375,2.57l-.1216.01-.0014-.0094.12-.0216L4.57,2.4367c.004.0147.0075.03.01.0448A.0325.0325,0,0,0,4.5528,2.5178ZM4.5139,2.375a.0326.0326,0,0,0,.042.0178c.0051.0144.01.029.0137.0438l-.3467.07-.1149.0413L4.1043,2.54l.11-.0518.2949-.1954q.0115.02.0216.0405A.0327.0327,0,0,0,4.5139,2.375Zm-.0745-.1279a.0326.0326,0,0,0,.045.0064q.0131.0189.0247.0387L4.1924,2.45l-.1.07-.006-.0074.0928-.0786.2343-.265c.0108.0108.0213.022.0313.0336A.0326.0326,0,0,0,4.4394,2.2471Zm-.1051-.1043a.0325.0325,0,0,0,.0451-.0054q.0175.0149.0338.0311l-.265.2342-.0788.0932L4.0617,2.49l.0694-.1.1577-.3167c.0133.0076.0263.0158.0389.0244A.0325.0325,0,0,0,4.3343,2.1428Zm-.1285-.0735a.0325.0325,0,0,0,.0422-.017q.0208.01.0407.0213l-.1954.2949-.052.11-.0089-.0035.0411-.1144.07-.3468c.0149.0039.03.0084.044.0134A.0324.0324,0,0,0,4.2058,2.0693Zm-.2149-.0748c.0147,0,.0292.0005.0436.0016a.0325.0325,0,0,0,.0645.0081c.0152.0028.03.0061.0449.01L4.0314,2.35,4.01,2.47,4,2.4687l.01-.1212-.0218-.353Zm-.1127.0106a.0326.0326,0,0,0,.0645-.0087c.0151-.0012.03-.0018.0459-.0019l-.0218.353.01.1216-.0094.0014-.0216-.12-.1124-.3355C3.8482,2.0114,3.8631,2.008,3.8782,2.0051ZM3.73,2.0543a.0325.0325,0,0,0,.06-.0251c.0143-.0052.029-.01.0438-.0138l.07.3468.0412.1148-.0087.0038-.0518-.11-.1954-.2949Q3.7089,2.0644,3.73,2.0543ZM3.5989,2.14a.0325.0325,0,0,0,.0514-.04q.0189-.0131.0387-.0247l.1577.3167.07.1-.0074.0059L3.83,2.406l-.265-.2342Q3.5815,2.1554,3.5989,2.14Zm-.1041.1169a.0325.0325,0,0,0,.0394-.0517q.0149-.0174.0311-.0338l.2342.265.0931.0788-.0056.0077-.1-.0693L3.47,2.2963C3.478,2.283,3.4862,2.27,3.4948,2.2573Zm-.0244.039.2949.1954.11.052-.0034.0089-.1144-.0411-.3468-.07c.0039-.0149.0084-.03.0134-.0439a.0325.0325,0,0,0,.0247-.06C3.4557,2.3231,3.4628,2.31,3.47,2.2963Zm-.0594.1449.3355.1124.12.0217-.001.01-.1212-.01-.353.0217V2.5941c0-.0146,0-.0292.0016-.0436A.0325.0325,0,0,0,3.401,2.486C3.4038,2.4709,3.4071,2.4559,3.411,2.4412Zm.018.2292a.0326.0326,0,0,0-.0358-.028c-.0012-.0152-.0018-.03-.0019-.0459l.353.0217.1216-.01.0014.0094-.12.0216-.3355.1125c-.004-.0147-.0074-.03-.01-.0448A.0326.0326,0,0,0,3.429,2.67Zm.0389.1429a.0325.0325,0,0,0-.0419-.0178c-.0052-.0144-.01-.029-.0138-.0439l.3468-.07L3.8738,2.64l.0038.0087-.11.0519-.2949.1954q-.0116-.02-.0216-.0406A.0326.0326,0,0,0,3.4679,2.8133Zm.0745.1279a.0324.0324,0,0,0-.045-.0064q-.013-.0189-.0247-.0388l.3167-.1577.1-.07.0059.0075-.0928.0785-.2342.265q-.0164-.016-.0314-.0335A.0325.0325,0,0,0,3.5424,2.9412Zm.1051.1042a.0326.0326,0,0,0-.0451.0054c-.0117-.01-.0229-.02-.0338-.031l.265-.2343.0788-.0931.0077.0057-.0693.1-.1577.3167q-.02-.0114-.039-.0243A.0326.0326,0,0,0,3.6475,3.0454Zm.1285.0735a.0325.0325,0,0,0-.0422.0171q-.0208-.01-.0407-.0213l.1954-.295.052-.11.0089.0035-.0411.1144-.07.3467c-.0149-.0039-.03-.0084-.0439-.0134A.0326.0326,0,0,0,3.776,3.1189Zm.2149.0749c-.0147,0-.0292-.0006-.0436-.0016a.0325.0325,0,0,0-.0645-.0082c-.0152-.0027-.03-.0061-.0449-.01L3.95,2.8386l.0217-.12.0094.001-.01.1212.0218.353Zm.1127-.0107a.0325.0325,0,0,0-.0644.0087c-.0152.0012-.03.0019-.0459.0019l.0217-.353-.01-.1216.0094-.0014.0216.12.1125.3354C4.1337,3.1768,4.1187,3.18,4.1036,3.1831Zm.1486-.0491a.0325.0325,0,0,0-.06.0251c-.0143.0051-.029.01-.0438.0137l-.07-.3467-.0412-.1148.0087-.0038.0518.11.1955.2949C4.28,3.12,4.266,3.1273,4.2522,3.134Zm.1308-.0861a.0325.0325,0,0,0-.0515.04c-.0125.0087-.0255.017-.0387.0247l-.1577-.3167-.07-.1.0075-.006.0785.0929.265.2342C4.4057,3.0274,4.3945,3.0378,4.383,3.0479Zm.1041-.117a.0325.0325,0,0,0-.0395.0517c-.01.0117-.02.023-.031.0338l-.2343-.265-.0931-.0788.0057-.0076.1.0693.3167.1577Q4.5,2.912,4.4871,2.9309Zm.0243-.039-.2949-.1954-.11-.052L4.11,2.6356l.1144.0412.3467.07c-.0039.0149-.0084.03-.0134.044a.0325.0325,0,0,0-.0247.06C4.5262,2.8651,4.519,2.8787,4.5114,2.8919Zm.0594-.1448-.3355-.1124-.12-.0217.001-.01.1212.01.353-.0218v.0023c0,.0147,0,.0292-.0015.0436a.0325.0325,0,0,0-.0082.0645C4.578,2.7174,4.5747,2.7324,4.5708,2.7471Z" fill="#050564"/></svg>