<svg xmlns="http://www.w3.org/2000/svg" viewBox="0 0 7.9818 5.1882"><polygon points="7.23 0 3.991 2.117 0.752 0 0 0 0 0.475 3.257 2.594 0 4.713 0 5.188 0.752 5.188 3.991 3.071 7.23 5.188 7.982 5.188 7.982 4.713 4.725 2.594 7.982 0.475 7.982 0 7.23 0" fill="#fc0"/><polygon points="0 0.475 0 4.713 3.257 2.594 0 0.475"/><polygon points="7.982 4.713 7.982 0.475 4.725 2.594 7.982 4.713"/><polygon points="7.23 0 0.752 0 3.991 2.117 7.23 0" fill="#093"/><polygon points="0.752 5.188 7.23 5.188 3.991 3.071 0.752 5.188" fill="#093"/></svg>