<svg xmlns="http://www.w3.org/2000/svg" viewBox="0 0 7.9819 5.1882"><polygon points="0 0 1.477 1.477 7.982 1.477 7.982 0 0 0" fill="#17a733"/><polygon points="0 5.188 7.982 5.188 7.982 3.712 1.477 3.712 0 5.188" fill="#17a733"/><polygon points="1.729 1.729 2.594 2.594 1.729 3.459 1.477 3.712 7.982 3.712 7.982 2.774 7.982 2.327 7.982 1.477 1.477 1.477 1.729 1.729" fill="#facf0a"/><polygon points="1.729 3.459 2.594 2.594 1.729 1.729 1.477 1.477 0 0 0 1.477 0 2.327 0 2.594 0 2.774 0 3.712 0 5.188 1.477 3.712 1.729 3.459" fill="#da1635"/><polygon points="3.999 1.936 4.163 2.439 4.692 2.439 4.264 2.75 4.427 3.253 3.999 2.942 3.571 3.253 3.735 2.75 3.307 2.439 3.836 2.439 3.999 1.936"/><polygon points="6.593 1.936 6.757 2.439 7.286 2.439 6.858 2.75 7.022 3.253 6.593 2.942 6.166 3.253 6.329 2.75 5.901 2.439 6.43 2.439 6.593 1.936"/></svg>