<svg xmlns="http://www.w3.org/2000/svg" viewBox="0 0 7.9818 5.1882"><rect x="2.6606" width="2.6606" height="5.1882" fill="#f5d402"/><rect width="2.6606" height="5.1882" fill="#0b45bb"/><rect x="5.3212" width="2.6606" height="5.1882" fill="#d10429"/><path d="M2.9822,2.5593l.0112.0219,0,.0005V2.56Z" fill="none"/><path d="M3.3316,3.3521,3.3181,3.32l0-.0017-.0014-.0012a.09.09,0,0,0-.02.0114.0236.0236,0,0,1,.008.0177.024.024,0,0,1-.0062.016A.1254.1254,0,0,1,3.3316,3.3521Z" fill="none"/><path d="M4.4458,3.183,4.414,3.1784l.1129.1723a.2151.2151,0,0,1,.0856.0079.0332.0332,0,0,1-.0068-.02.034.034,0,0,1,.0339-.034h.0009l-.0016-.002v0a.0643.0643,0,0,1-.0128-.0317l-.005-.0084c-.0087-.0142-.0169-.0286-.0244-.0426a.9584.9584,0,0,1-.0915-.2506.9135.9135,0,0,1-.13.0988Z" fill="none"/><path d="M3.3567,3.0957,3.35,3.1016a.088.088,0,0,1,.0062.0421.0963.0963,0,0,1-.0076.0279.1269.1269,0,0,1,.0426-.03L3.3953,3.14l.0013.0042a.1048.1048,0,0,1-.0133.0891.1007.1007,0,0,1-.0563.0383H3.3265l-.0018.0005,0,.0042a.24.24,0,0,0,.0053.0288.0992.0992,0,0,1,.0272-.0017.0238.0238,0,1,1-.0011.0079.0926.0926,0,0,0-.0241.0015l0,.0014L3.348,3.35v0a.2669.2669,0,0,1,.0437,0l.1129-.1723-.0318.0046.0687-.1119a1.1191,1.1191,0,0,1-.1395-.0933.7261.7261,0,0,1-.0277.0788Z" fill="none"/><polygon points="4.764 1.718 4.714 1.773 4.714 1.847 4.764 1.897 4.764 1.718" fill="#b07f55"/><polygon points="4.702 1.773 4.648 1.73 4.648 1.902 4.702 1.849 4.702 1.773" fill="#b07f55"/><polygon points="4.764 1.931 4.714 1.881 4.714 2.046 4.764 1.995 4.764 1.931" fill="#b07f55"/><polygon points="4.702 1.883 4.648 1.936 4.648 1.993 4.702 2.046 4.702 1.883" fill="#b07f55"/><polygon points="4.636 1.897 4.636 1.732 4.553 1.813 4.592 1.853 4.593 1.853 4.593 1.854 4.636 1.897" fill="#b07f55"/><polygon points="4.636 1.931 4.587 1.881 4.587 2.044 4.636 1.995 4.636 1.931" fill="#b07f55"/><polygon points="4.834 1.873 4.776 1.931 4.776 1.994 4.834 2.042 4.834 1.873" fill="#b07f55"/><path d="M4.8458,1.8393l.0507.0562V1.7213c-.008-.0131-.0167-.0266-.026-.04l-.0247.03Z" fill="#b07f55"/><path d="M4.8815,2.8908l-.02-.0114a.0174.0174,0,0,0-.0134-.0017.0171.0171,0,0,0-.0107.0082.0174.0174,0,0,0-.0018.0134.018.018,0,0,0,.0082.0107l.02.0114a.0179.0179,0,0,0,.0134.0017.0171.0171,0,0,0,.0107-.0082A.0176.0176,0,0,0,4.8815,2.8908Z" fill="#f5d402"/><polygon points="4.896 1.931 4.846 1.875 4.846 2.042 4.896 2.002 4.896 1.931" fill="#b07f55"/><path d="M4.81,2.9213a.0176.0176,0,0,0,.0064.0241l.0311.018a.0177.0177,0,0,0,.0242-.0064.0179.0179,0,0,0,.0017-.0134.0175.0175,0,0,0-.0082-.0108l-.0311-.0179A.0176.0176,0,0,0,4.81,2.9213Z" fill="#f5d402"/><path d="M4.8965,2.0322,4.84,2.0773l-.0115-.0094h0v0L4.7821,2.03V3.006l.01-.0193a.0175.0175,0,0,1-.0056-.0234L4.79,2.9577A.0178.0178,0,0,1,4.8,2.95l.0075,0A.0256.0256,0,0,1,4.83,2.905l-.0013-.0037a.0253.0253,0,0,1,.0025-.0194.0259.0259,0,0,1,.02-.0128l.0455-.0919Z" fill="#b07f55"/><polygon points="4.776 1.897 4.834 1.84 4.834 1.773 4.776 1.717 4.776 1.897" fill="#b07f55"/><path d="M4.84,2.994l.0032-.0056a.01.01,0,0,0-.0035-.013l-.03-.0172L4.8049,2.957l-.0025,0-.0059.0044-.0032.0056a.01.01,0,0,0,.0035.0131l.03.0171A.01.01,0,0,0,4.84,2.994Z" fill="#f5d402"/><path d="M4.7581,3.0525V2.0353L4.72,2.0739v.001H4.7185l-.0109.0109-.011-.0109h-.001v-.001l-.0412-.0413V3.2118a.15.15,0,0,1,.0335-.0231Z" fill="#b07f55"/><path d="M3.5562,3.1506l.0024.0368L3.5992,3.17l.0048.0623.0845-.0933-.0038-.0015-.0276-.0108a.9527.9527,0,0,1-.098-.0459l-.0469.0764Z" fill="#b07f55"/><polygon points="3.916 2.191 3.886 2.246 3.94 2.216 3.958 2.275 3.975 2.216 4.03 2.246 4 2.191 4.06 2.174 4 2.156 4.03 2.102 3.975 2.131 3.958 2.072 3.94 2.131 3.886 2.102 3.916 2.156 3.856 2.174 3.916 2.191" fill="#f5d402"/><path d="M4.3315,2.4643a.4845.4845,0,0,1-.0509.0384.465.465,0,0,1-.0712.0384.3637.3637,0,0,1,.0687.0349.37.37,0,0,1,.0473.0365.4326.4326,0,0,1,.1226-.0772.4644.4644,0,0,1-.0656-.0343A.483.483,0,0,1,4.3315,2.4643Z" fill="#f5d402"/><path d="M3.5193,3.7218l.132.0642a1.3578,1.3578,0,0,0,.2164-.3539l.0287-.0685-.0018.0742a.5382.5382,0,0,1-.0061.0683.7313.7313,0,0,1-.0658.193c-.02.0449-.04.09-.06.1346A.4637.4637,0,0,1,3.958,3.99a.4683.4683,0,0,1,.2038-.1584c-.0248-.0476-.0481-.0961-.0694-.1446a.7029.7029,0,0,1-.0649-.2c-.0023-.0168-.0039-.034-.0047-.0509L4.02,3.3669l.03.0624c.0224.0471.0466.0941.072.14a2.504,2.504,0,0,0,.1343.2149l.1454-.0646A1.282,1.282,0,0,1,4.07,3.2064l-.0314.0212a.559.559,0,0,0-.0729.0638L3.9575,3.3l-.0086-.0077a.7729.7729,0,0,0-.0825-.0642L3.847,3.2153a1.2749,1.2749,0,0,1-.21.3792A1.2554,1.2554,0,0,1,3.5193,3.7218Z" fill="#b07f55"/><path d="M4.5228,2.9344a.9369.9369,0,0,0,.0951.2739l.0125.0224V2.0353l-.0371.0371v.001h-.001l-.0109.0109L4.57,2.0734h-.001v-.001L4.5169,2.02v.915Z" fill="#b07f55"/><path d="M3.5929,2.4643a.4772.4772,0,0,1-.1221.0768.3629.3629,0,0,1,.116.0714.4326.4326,0,0,1,.1226-.0772.4755.4755,0,0,1-.0656-.0343A.483.483,0,0,1,3.5929,2.4643Z" fill="#f5d402"/><path d="M3.3361,3.555l.0034,0,.02-.0188c.0221-.0212.0275-.0272.0266-.0319a.0172.0172,0,0,0-.0143-.01c-.0043-.0005-.01.001-.0343.0234l-.02.02.0014.0062.0024.0075C3.3241,3.5553,3.3326,3.5551,3.3361,3.555Z" fill="#d10429"/><path d="M3.2923,3.43l-.006.0039-.0025.0017v.0076l.0022.0037.0018-.0018.003-.0029A.0641.0641,0,0,1,3.3089,3.43l.0052-.0027-.0035-.0028-.005-.0013-.0063.0014-.0023.0013Z" fill="#d10429"/><path d="M3.2959,3.3462A.0158.0158,0,1,0,3.28,3.362.0157.0157,0,0,0,3.2959,3.3462Z" fill="#f5d402"/><path d="M3.5405,3.2169l-.0028-.0434-.0172.0025-.1227.1873-.0037,0a.1811.1811,0,0,0-.0991.0144.0892.0892,0,0,0-.018.0161.0692.0692,0,0,0-.0148.0246l.0112.0055c.0055.001.0094,0,.0213-.0053l.0016-.0007.0021-.0008.0063-.0025.0236-.009a.1187.1187,0,0,1,.0289-.0076.1231.1231,0,0,0,.0273-.0007l.006,0c.0012.0015-.0018.0056-.0127.0206a.0682.0682,0,0,0-.0109.0193l-.001.01c.0034.0031.0138-.0082.0209-.0046l.006.0123L3.4,3.4754a.02.02,0,0,0,.0118.0062l.0065-.01c.02-.03.03-.0458.0407-.0654a.7151.7151,0,0,1,.1254-.1637l-.0034-.0434Z" fill="#d10429"/><path d="M3.31,3.4788c.0221-.0212.0276-.0272.0266-.0319a.0172.0172,0,0,0-.0143-.01c-.0043,0-.01.001-.0343.0234l-.0193.0192-.0009.0087.0033.0113.0076,0,.01,0Z" fill="#d10429"/><path d="M3.334,3.508c.0222-.0212.0276-.0272.0266-.0319a.0167.0167,0,0,0-.0143-.0105c-.0042,0-.01.0009-.0342.0234l-.0185.0183-.0016.0069-.0012.0068.0056.0062.005.0007.01.0019Z" fill="#d10429"/><path d="M4.1845,1.901v0A.2742.2742,0,0,1,4.16,1.876a.2992.2992,0,0,1-.0545-.0893.32.32,0,0,1-.0211-.1127.1319.1319,0,0,1,.012-.0844l.0043-.006a.073.073,0,0,0,.0128-.0231.112.112,0,0,0,.0032-.0392c0-.0172-.0016-.0348-.0036-.0523l-.0012-.01.0335.0148a.0478.0478,0,0,0-.0027-.0271A.0467.0467,0,0,0,4.13,1.4292l-.0079-.0065L4.15,1.4116a.0442.0442,0,0,0-.0136-.0227.0451.0451,0,0,0-.02-.01l-.01-.0023.0187-.0215-.0473-.0178c-.03-.0118-.0452-.0177-.058-.0239L4.0141,1.31a.3958.3958,0,0,0-.0412-.0177l-.0164-.0054c-.0012,0-.12-.0361-.15.0039a.0539.0539,0,0,0-.0094.02l0,.0068,0,.0028c.0081-.01.0366-.0079.0546-.0033a.1993.1993,0,0,1,.03.0109.12.12,0,0,0,.0246.0113.0821.0821,0,0,0,.0289.0006c.0137-.0013.0169-.004.0252-.0043a.0982.0982,0,0,1,.0417.0086A.1591.1591,0,0,1,4.0677,1.4c-.0224-.0136-.0414-.0243-.0553-.0319a.1465.1465,0,0,0-.0359-.0167.1.1,0,0,0-.06.0048.03.03,0,0,1,.0137.0176.0349.0349,0,0,1-.0128.0314.0429.0429,0,0,1-.0191.01A.0469.0469,0,0,1,3.8668,1.41l0,.01a.0669.0669,0,0,1,.0209.0234.0642.0642,0,0,1,.0076.0243.0876.0876,0,0,0-.0571-.0289.0279.0279,0,0,0-.02.0049c-.0094.0082-.007.024-.0081.0311a.2913.2913,0,0,1,.0159.0478.39.39,0,0,1,.0009.1447.5078.5078,0,0,1-.0194.1052.2729.2729,0,0,1-.0513.1031.234.234,0,0,1-.035.0339.2183.2183,0,0,0,.0938-.05.2139.2139,0,0,0,.0524-.0744l0-.1612h.012l0,.1636,0,.0006a.412.412,0,0,1-.0483.1265.1429.1429,0,0,0,.0928-.0769l0-.2137h.012l0,.2163-.0006.0012-.0035.0072.0265.0508.0265-.0508-.0035-.0072L3.98,1.84l0-.2163h.0119l0,.2137a.1429.1429,0,0,0,.0928.0769.4143.4143,0,0,1-.0485-.1271V1.6238h.012v.161a.2134.2134,0,0,0,.0524.0745.22.22,0,0,0,.095.0508L4.1851,1.901Z" fill="#b07f55"/><path d="M3.138,3.0346,3.15,3.03l.0183-.01A.13.13,0,0,0,3.15,3.0061l-.012-.0067a.1059.1059,0,0,0-.0462-.0112.1107.1107,0,0,0-.065.0207.1181.1181,0,0,0,.07.03A.1145.1145,0,0,0,3.138,3.0346Z" fill="#097754"/><path d="M4.7821,3.3721l.0165.0208H4.8v.0018l.0965.1215V2.9154l-.0017.0035a.0254.0254,0,0,1-.0155.0119l-.0038.0007.0052.01a.0255.0255,0,0,1-.0181.0314l-.0067.0009-.008-.0014a.0175.0175,0,0,1,.0018.02l-.0032.0056a.0173.0173,0,0,1-.0131.0086l-.0513.0974Z" fill="#b07f55"/><polygon points="4.896 2.897 4.896 2.886 4.894 2.892 4.896 2.897" fill="#b07f55"/><path d="M3.0889,2.9776l.0071,0,.0089,0a.1132.1132,0,0,1,.0331.0079l.012.0054.0087.0048L3.15,2.981l-.012-.0158a.1109.1109,0,0,0-.0528-.0343A.1125.1125,0,0,0,3.031,2.929a.0718.0718,0,0,0,.0407.0471A.0479.0479,0,0,0,3.0889,2.9776Z" fill="#097754"/><path d="M4.5469,1.7857,4.6345,1.7,4.63,1.6811c-.0027-.0093-.0042-.0125-.0072-.0149l-.01-.0034-.0058-.0062.0062-.0057a.0292.0292,0,0,1,.0174.0059.0354.0354,0,0,1,.0114.021l.0046.0192.008.0064h0v0l.052.0419.057-.0619a.0822.0822,0,0,0-.0154-.0393.0812.0812,0,0,0-.0186-.0179l-.0015-.0083.0084-.0015a.092.092,0,0,1,.039.0658l.0585.0569V1.7073l.0295-.0361L4.8623,1.67a.7146.7146,0,0,0-.0805-.0933.7337.7337,0,0,0-.0756-.0639c-.0281.024-.0571.0475-.0864.07-.0235.0178-.0476.0353-.0719.0521Z" fill="#b07f55"/><path d="M3.0356,2.6278a.09.09,0,0,0,.02.0552.0964.0964,0,0,0-.0064-.1017A.0881.0881,0,0,0,3.0356,2.6278Z" fill="#097754"/><polygon points="3.321 1.853 3.322 1.853 3.361 1.813 3.278 1.732 3.278 1.897 3.321 1.854 3.321 1.853" fill="#b07f55"/><path d="M3.1219,2.6857a.1025.1025,0,0,0-.0166-.0693.111.111,0,0,0-.03.0636.11.11,0,0,0,.0146.067A.1027.1027,0,0,0,3.1219,2.6857Z" fill="#097754"/><polygon points="3.201 1.881 3.15 1.931 3.15 1.995 3.201 2.046 3.201 1.881" fill="#b07f55"/><polygon points="3.15 1.897 3.201 1.847 3.201 1.773 3.15 1.718 3.15 1.897" fill="#b07f55"/><path d="M3.1321,2.8265a.0233.0233,0,0,1-.0043-.0134.0511.0511,0,0,0-.0291-.0015l.0058.0137.0276.0578Z" fill="#b07f55"/><path d="M3.1673,2.8129a.0158.0158,0,0,0-.0158-.0158l-.0015,0a.0159.0159,0,0,0-.012.0076l-.0022.008.0022.0081a.0161.0161,0,0,0,.012.0075l.0015,0A.0158.0158,0,0,0,3.1673,2.8129Z" fill="#f5d402"/><path d="M4.6451,3.2974a.04.04,0,0,0,.0189.0142l.0044.0008a.0361.0361,0,0,0,.0148-.0013l.01-.0043a.0535.0535,0,0,0,.0256-.03A.0516.0516,0,0,0,4.72,3.26V3.2571c0-.0173,0-.0344,0-.051l0-.0018.0439-.0833.012-.0228.0488-.0926-.0024-.0012-.0236-.0136-.0228.0442-.012.0233-.07.1352-.0018.0018a.1316.1316,0,0,0-.0442.0346.0707.0707,0,0,0-.012.0211l0,.0011a.0413.0413,0,0,0-.002.0161l.0006.0044a.0593.0593,0,0,0,.0105.0248Z" fill="#f5d402"/><polygon points="3.212 1.773 3.212 1.849 3.266 1.902 3.266 1.73 3.212 1.773" fill="#b07f55"/><path d="M4.6972,3.3138l-.0025.0013.0814.0924V3.4031L4.7581,3.38V3.15l-.03.0576c0,.0163,0,.033,0,.05V3.26a.06.06,0,0,1-.0012.0188A.0614.0614,0,0,1,4.6972,3.3138Z" fill="#b07f55"/><path d="M3.1768,3.0941a.0235.0235,0,0,1,.0071.0168.0239.0239,0,0,1-.0238.0238l-.0041,0v.0492a.1706.1706,0,0,1,.0558.0112.1733.1733,0,0,1,.054.0326V3.2088l-.0667-.1432A.0671.0671,0,0,0,3.1768,3.0941Z" fill="#b07f55"/><path d="M3.328,3.1947a.1407.1407,0,0,0,.02-.0518.0948.0948,0,0,0-.0194-.0636.1134.1134,0,0,0-.04.0858.1069.1069,0,0,0,.02.0591A.2823.2823,0,0,0,3.328,3.1947Z" fill="#097754"/><polygon points="3.212 2.046 3.266 1.993 3.266 1.936 3.212 1.883 3.212 2.046" fill="#b07f55"/><path d="M2.9354,2.5377l-.002-.0145-.0012-.0038a.0714.0714,0,0,0-.0239-.0326.0748.0748,0,0,0-.0523-.0144.0871.0871,0,0,0,.0794.0653Z" fill="#097754"/><path d="M2.9351,2.4805a.0822.0822,0,0,0-.009-.0681A.0793.0793,0,0,0,2.88,2.38a.0794.0794,0,0,0,.0006.0529A.0838.0838,0,0,0,2.9351,2.4805Z" fill="#097754"/><path d="M4.4206,1.8263a.18.18,0,0,0-.05.027.34.34,0,0,1-.0392.0245l-.0154.0073.0263.0188.03.0176a.0949.0949,0,0,0,.0158-.0243A.0936.0936,0,0,0,4.3957,1.87l.0007-.0063.0062.001a.0847.0847,0,0,1,.0387.0173.0835.0835,0,0,1,.0239.0312.2685.2685,0,0,0,.0592-.0889A.1873.1873,0,0,0,4.4206,1.8263Z" fill="#b07f55"/><path d="M3.3287,3.2623a.0919.0919,0,0,0,.0481-.0341A.096.096,0,0,0,3.39,3.1505a.1119.1119,0,0,0-.0564.06A.1055.1055,0,0,0,3.3287,3.2623Z" fill="#097754"/><polygon points="3.138 1.931 3.08 1.873 3.08 2.041 3.138 1.994 3.138 1.931" fill="#b07f55"/><path d="M3.2185,2.0739v.001h-.001l-.0109.0109-.011-.0109h-.001v-.001L3.156,2.0353V2.79a.0237.0237,0,0,1,0,.0466v.0294a.0967.0967,0,0,1,.0407-.05L3.2,2.8135l.0021.0028a.0818.0818,0,0,1,.02.0628l-.0009.0039a.1657.1657,0,0,1,.0246-.027L3.25,2.8521l.0019.0057A.1759.1759,0,0,1,3.26,2.89V2.0326Z" fill="#b07f55"/><polygon points="3.138 1.717 3.08 1.773 3.08 1.84 3.138 1.897 3.138 1.717" fill="#b07f55"/><path d="M3.05,2.8482a.0158.0158,0,1,0,0,.0315.0158.0158,0,0,0,0-.0315Z" fill="#f5d402"/><path d="M3.38,3.326A.0158.0158,0,1,0,3.3644,3.31.0158.0158,0,0,0,3.38,3.326Z" fill="#f5d402"/><path d="M3.2658,3.0778,3.26,3.0784a.0237.0237,0,0,1-.0236-.0218.0525.0525,0,0,0-.0234.0019l.0524.1125Z" fill="#b07f55"/><path d="M3.0177,2.7087V2.711l.0005.0014.0009.002-.0014,0v.0319l.01.0135h0L3.03,2.764l-.0042.0019-.0082.003v.2369l.0005,0a.1219.1219,0,0,1,.0483-.0227.0851.0851,0,0,1-.0446-.0552L3.02,2.9232l.0043-.001a.1225.1225,0,0,1,.0628.001.118.118,0,0,1,.0446.0248V2.92L3.09,2.832v0h0l-.0058-.0136a.051.051,0,0,0-.02.0272A.0237.0237,0,1,1,3.05,2.84l.0074.0012a.0581.0581,0,0,1,.024-.0308l-.0161-.0379-.0241-.0569-.0019-.0045-.0212-.0446Z" fill="#b07f55"/><path d="M3.823,1.42l.0091-.0084c.0056-.0109-.0032-.0261-.0094-.0369-.0073-.0128-.0108-.0136-.0183-.0271l-.006-.0112-.006-.0011a.1771.1771,0,0,0-.0492-.0024.0885.0885,0,0,0-.0481.0128v.0183a.12.12,0,0,1,.0411.0008.1417.1417,0,0,1,.0713.0247l.0145.0132.0068.0074-.01.0025a.1308.1308,0,0,1-.0329.0042.1332.1332,0,0,1-.0349-.0045.1744.1744,0,0,0,.0225.0245l.0142.01.0081.0054A.074.074,0,0,1,3.823,1.42Zm-.0325-.0557-.01-.0018-.01-.0064c0-.0038.0065-.009.0112-.0076l.0064.0085Z" fill="#cc092f"/><path d="M2.9706,2.505a.1059.1059,0,0,0,.0139-.0528.1048.1048,0,0,0-.0209-.0609.114.114,0,0,0,.007.1137Z" fill="#097754"/><path d="M4.2232,3.1135a.7629.7629,0,0,0,.27-.1655V2.5356H4.4807l-.0146.0054a.4193.4193,0,0,0-.1367.084l-.0041.0037-.004-.0038a.3571.3571,0,0,0-.05-.0388.3533.3533,0,0,0-.0807-.0389L4.1753,2.542H4.1608l.0347.07-.01,0a.1418.1418,0,0,0-.0974.0307.1839.1839,0,0,0-.049.1224.5923.5923,0,0,0,.0012.08l.0022.0759v.0012a.0824.0824,0,0,0,.0087.0475.0887.0887,0,0,0,.0284.0238.1234.1234,0,0,1,.0388.0336.043.043,0,0,1,.0091.0264.0422.0422,0,0,1-.0106.0254.0923.0923,0,0,1-.04.0269.2515.2515,0,0,0-.0258.0126.0745.0745,0,0,0-.0232.0194.0514.0514,0,0,1-.0211.0166.1.1,0,0,1-.043.0091A.14.14,0,0,1,3.9074,3.15a.06.06,0,0,1-.02-.0151.0788.0788,0,0,0-.0229-.0175.2436.2436,0,0,0-.0254-.0121.0817.0817,0,0,1-.038-.026.048.048,0,0,1-.011-.0279.0463.0463,0,0,1,.0113-.03l.0008-.001L3.8031,3.02a.1184.1184,0,0,0,.0616-.0557.1085.1085,0,0,0,.0093-.0437l0-.0043a1.2143,1.2143,0,0,0,.004-.1485.19.19,0,0,0-.0456-.1189.1526.1526,0,0,0-.1041-.0372h-.01l.0375-.0764H3.7421l-.0146.0054a.4223.4223,0,0,0-.1367.084l-.0041.0037-.004-.0038a.3571.3571,0,0,0-.05-.0388.3514.3514,0,0,0-.0807-.0389L3.4367,2.542H3.42l0,.42a1.0338,1.0338,0,0,0,.2453.1424l.0273.0106a.8624.8624,0,0,1,.1864.093.7756.7756,0,0,1,.0765.0587.563.563,0,0,1,.0681-.0584.6186.6186,0,0,1,.1873-.0911Zm-.4736-.25a.0515.0515,0,0,1-.0137.0307.05.05,0,0,1-.0242.014.0513.0513,0,0,1,.0215.018.053.053,0,0,1,.0091.0321.0523.0523,0,0,1-.0409.0494.0515.0515,0,0,1-.0333-.0035.05.05,0,0,1-.0209-.0188.05.05,0,0,1-.01.0261.0529.0529,0,0,1-.0873-.005.0507.0507,0,0,1-.007-.0328.05.05,0,0,1,.0114-.0256.0519.0519,0,0,1-.0281-.0019A.0538.0538,0,0,1,3.5,2.9251a.0523.0523,0,0,1,.0041-.064.0508.0508,0,0,1,.029-.0167.0491.0491,0,0,1,.0279.0029A.05.05,0,0,1,3.5537,2.82a.0536.0536,0,0,1,.04-.05.054.054,0,0,1,.0337.0026.0509.0509,0,0,1,.0249.0224.05.05,0,0,1,.0059.0275.0506.0506,0,0,1,.0238-.015.0536.0536,0,0,1,.06.0225A.0547.0547,0,0,1,3.75,2.8631Zm.0534-.2058.0434.0433L3.803,2.744,3.76,2.7006Zm-.0267.0972.0069-.0005a.0892.0892,0,0,1,.0749.0248c.0058.0074.011.0194.0094.0841-.0017.0674-.0081.08-.0112.0854a.1159.1159,0,0,1-.053.0488l-.0092.0044.0006-.01a.848.848,0,0,0-.017-.23Zm.363.0067a.848.848,0,0,0-.017.23l.0006.01-.0092-.0044a.1159.1159,0,0,1-.053-.0488c-.0031-.0058-.01-.018-.0112-.0854-.0016-.0647.0035-.0767.0094-.0841a.0891.0891,0,0,1,.0749-.0248l.0069.0005ZM4.1139,2.744l-.0433-.0434.0433-.0433.0434.0433Zm.0678.1336a.114.114,0,0,1,.1105-.0654.1239.1239,0,0,1,.0852.0417l.01.0111-.0148-.0011a.1181.1181,0,0,0-.0947.0392.1219.1219,0,0,0-.02.11l.0046.0132L4.25,3.0206A.117.117,0,0,1,4.1817,2.8776Z" fill="#0b45bb"/><path d="M3.452,2.5359a.465.465,0,0,0,.1369-.084l.0039-.0034.0039.0033a.4616.4616,0,0,0,.0534.039.469.469,0,0,0,.0775.0391l.0145.0057h.0142l.0129-.0263a.2755.2755,0,0,1-.1732-.1529.2486.2486,0,0,1,.0107-.1887.3316.3316,0,0,1,.1489-.1558l.0151-.0079-.0068.0155a.442.442,0,0,0-.05.3268.1134.1134,0,0,0,.05.0454.088.088,0,0,0,.0216.0031.0838.0838,0,0,1,.0386.01l.0164.011c.0042.0035.0061.0051.01.0053.0076,0,.0124-.0043.0194-.012a.0458.0458,0,0,1,.0273-.0174.0421.0421,0,0,1,.0343.0146.0417.0417,0,0,0,.0281.014.0389.0389,0,0,0,.0258-.0134.04.04,0,0,1,.0326-.0141.0445.0445,0,0,1,.0272.0165c.0068.0072.0114.0115.0187.011l.0107-.0053a.0811.0811,0,0,1,.0207-.0121.0966.0966,0,0,1,.0322-.0066l.0051,0a.1241.1241,0,0,0,.0681-.0513c.0333-.0417.0224-.1765-.0534-.33l-.0078-.0158.0158.0077a.326.326,0,0,1,.1505.1488.2555.2555,0,0,1,.017.1886.2856.2856,0,0,1-.1771.1677l.0153.0308h.0145l.0153-.0061a.465.465,0,0,0,.1369-.084l.0038-.0034.004.0033a.4681.4681,0,0,0,.1309.0781l.0145.0057H4.493V1.993l.0217-.0212H3.4009l.0192.021,0,.5492h.0163Zm.4036-.4645.0775.0425.0247-.0849.0248.0849L4.06,2.0714l-.0425.0775.0848.0247-.0848.0248.0425.0775-.0775-.0425-.0248.0848-.0247-.0848-.0775.0425.0425-.0775-.0849-.0248.0849-.0247Z" fill="#d10429"/><path d="M4.6194,3.4249,4.613,3.4235l-.005.0013-.0033.003L4.61,3.43a.0628.0628,0,0,1,.0181.0114l.0031.0029.0018.0018.0022-.0037V3.4351l-.0025-.0017L4.6263,3.43l-.0047-.0033Z" fill="#d10429"/><path d="M3.0177,1.8955l.0507-.0562V1.7115l-.0247-.03c-.0093.0134-.0181.0268-.026.04Z" fill="#b07f55"/><path d="M3.1913,3.049h0l-.0043-.01L3.18,3.0226l-.0028.0019-.0125.0077-.0083.0041v.0513l.0041,0,.01.0023a.073.073,0,0,1,.0255-.0312L3.1914,3.049Z" fill="#b07f55"/><path d="M3.5827,1.8778a.3376.3376,0,0,1-.0391-.0245.181.181,0,0,0-.05-.027A.1877.1877,0,0,0,3.39,1.824a.2723.2723,0,0,0,.0267.05.2668.2668,0,0,0,.0326.0393.0824.0824,0,0,1,.0239-.0312.0843.0843,0,0,1,.0387-.0173l.0062-.001.0007.0063a.0936.0936,0,0,0,.0075.0275.092.092,0,0,0,.0157.0243l.03-.0176.0264-.0188Z" fill="#b07f55"/><path d="M3.6819,2.9062a.0557.0557,0,0,1-.04.05l.0054.0175.0028.0047a.0468.0468,0,0,0,.0219.0173.0445.0445,0,0,0,.0493-.0133.0458.0458,0,0,0,.0042-.0512A.0484.0484,0,0,0,3.7,2.9093.05.05,0,0,1,3.6819,2.9062Z" fill="#f5d402"/><path d="M3.156,3.2954V3.38l-.0179.0227v.0044l.08-.0912-.0075,0A.1136.1136,0,0,1,3.156,3.2954Z" fill="#b07f55"/><path d="M3.6841,2.8167a.0489.0489,0,0,0-.0282.0174.0488.0488,0,0,1-.0085.0163.0559.0559,0,0,1,.0347.0517V2.904a.0523.0523,0,0,1,.0185,0l.0052-.0013a.0465.0465,0,0,0,.0232-.0154.0446.0446,0,0,0,.0026-.051A.046.046,0,0,0,3.6841,2.8167Z" fill="#f5d402"/><path d="M3.2943,1.5824c-.0292-.0222-.0583-.0457-.0864-.07a.7133.7133,0,0,0-.1561.1572l-.0009.0013.0294.0361v.0321l.0585-.0569a.0945.0945,0,0,1,.0177-.0452.0911.0911,0,0,1,.0214-.0206l.0083.0015-.0015.0083a.08.08,0,0,0-.034.0572l.0571.0619.052-.0419v0h0L3.268,1.697l.0046-.0192a.0365.0365,0,0,1,.0114-.021.0292.0292,0,0,1,.0175-.0059l.0062.0057-.0058.0062-.01.0034c-.003.0024-.0046.0056-.0073.0149L3.28,1.7l.0876.0854-.0009-.1512C3.342,1.6178,3.3178,1.6,3.2943,1.5824Z" fill="#b07f55"/><path d="M4.6307,3.46c-.0238-.0224-.03-.0238-.0342-.0234a.0174.0174,0,0,0-.0144.01c-.0009.0047.0045.0107.0267.0319L4.6306,3.5l.01,0,.0075,0,.0033-.0113L4.65,3.479Z" fill="#d10429"/><path d="M3.2647,3.2909l-.0111-.0056a.2557.2557,0,0,0-.0546-.0189A.2528.2528,0,0,0,3.15,3.26q-.006,0-.012,0l-.007,0,.007.0085.012.0118a.1088.1088,0,0,0,.0616.0272.1042.1042,0,0,0,.0224,0l.02-.0042.0194-.0079Z" fill="#097754"/><rect x="4.0952" y="2.6819" width="0.0373" height="0.0373" transform="translate(-0.7047 3.7) rotate(-45)" fill="#f5d402"/><path d="M4.0683,2.7862c-.0027.0035-.0084.0107-.0068.0764s.0075.0758.01.08a.1.1,0,0,0,.0384.0387A.8736.8736,0,0,1,4.11,2.8843a.8617.8617,0,0,1,.0158-.1186H4.1243A.0712.0712,0,0,0,4.0683,2.7862Z" fill="#f5d402"/><path d="M3.0535,2.7048v0l.0008.002.0271.0639.0141.0333a.061.061,0,0,1,.0335.0009L3.1321,2.8V2.03l-.0458.0375v0h0l-.0114.0094-.0568-.0451v.5091L3.03,2.5379a.0238.0238,0,0,1,.0238.0237l-.0022.01,0,0a.1038.1038,0,0,1,.0218.0819.1205.1205,0,0,1,.03-.0463l.0033-.0032.0027.0036a.1089.1089,0,0,1-.017.1484l-.0035.0029L3.086,2.7553l-.0009-.0014a.1172.1172,0,0,1-.0173-.0748h0l.0009-.0069-.002.0053-.0005.0012-.0069.0133-.0027.0045L3.053,2.6926a.0986.0986,0,0,1-.0254-.0647.0966.0966,0,0,1,.0107-.0441L3.03,2.5854,3.0177,2.582V2.63l.0357.075Z" fill="#b07f55"/><path d="M4.2284,3.137l.0862.0952L4.32,3.17l.0406.0175.0024-.0368.0439.0065-.0485-.079a.6639.6639,0,0,1-.1272.0581Z" fill="#b07f55"/><path d="M4.2431,3.0038a.1228.1228,0,0,1,.1154-.1518.1092.1092,0,0,0-.0669-.0278H4.2873a.1008.1008,0,0,0-.0944.0578A.1032.1032,0,0,0,4.2431,3.0038Z" fill="#f5d402"/><path d="M4.6237,3.3773a.1814.1814,0,0,0-.0992-.0144l-.0036,0L4.3981,3.176,4.381,3.1735l-.0029.0434-.0409-.0176-.0034.0434a.7157.7157,0,0,1,.1255.1637c.0105.02.0206.0349.0406.0654l.0065.01a.02.02,0,0,0,.0118-.0062l.0077-.0213.0059-.0123c.0071-.0036.0176.0077.021.0046l-.001-.01a.0685.0685,0,0,0-.011-.0193c-.0109-.015-.0138-.0191-.0126-.0206l.006,0a.1223.1223,0,0,0,.0272.0007.1181.1181,0,0,1,.029.0076l.0236.009.0062.0025.0022.0008.0016.0007c.0118.0049.0157.0063.0213.0053l.0112-.0055a.0693.0693,0,0,0-.0149-.0246A.09.09,0,0,0,4.6237,3.3773Z" fill="#d10429"/><path d="M3.8073,2.9814a.1.1,0,0,0,.0384-.0387.1923.1923,0,0,0,.01-.08c.0016-.0657-.0041-.0729-.0068-.0764a.0728.0728,0,0,0-.0578-.0205.8717.8717,0,0,1,.0164.2157Z" fill="#f5d402"/><path d="M4.1353,2.502A.2766.2766,0,0,0,4.3112,2.34a.2766.2766,0,0,0-.1455-.3147c.0734.1563.0781.284.0441.3265a.13.13,0,0,1-.0762.0557l-.0055,0A.0832.0832,0,0,0,4.1,2.4135a.0674.0674,0,0,0-.0178.01.03.03,0,0,1-.0172.0078.0354.0354,0,0,1-.0282-.0147.0337.0337,0,0,0-.02-.0129c-.0089-.0011-.0146.0035-.0232.0112a.05.05,0,0,1-.0336.0164.0512.0512,0,0,1-.0361-.017c-.0094-.0081-.0156-.0131-.0249-.0118a.0353.0353,0,0,0-.02.0138.0363.0363,0,0,1-.0287.0158.0271.0271,0,0,1-.0175-.008l-.0142-.01a.0725.0725,0,0,0-.0338-.0081A.1.1,0,0,1,3.76,2.4031a.1208.1208,0,0,1-.056-.05.434.434,0,0,1,.0422-.3222.2794.2794,0,0,0-.1389.3213A.2666.2666,0,0,0,3.7794,2.5l.0068.002L3.77,2.5356,3.7379,2.6a.1607.1607,0,0,1,.1029.04.2005.2005,0,0,1,.0492.1256,1.1782,1.1782,0,0,1-.0039.1511l0,.0043a.12.12,0,0,1-.01.0482.13.13,0,0,1-.0662.061.0339.0339,0,0,0-.0076.0208.0364.0364,0,0,0,.0085.0209.0711.0711,0,0,0,.0332.0222.2366.2366,0,0,1,.0266.0127.09.09,0,0,1,.0257.02.0485.0485,0,0,0,.017.0125.1143.1143,0,0,0,.0888.0032.0392.0392,0,0,0,.0169-.0133.0865.0865,0,0,1,.0264-.0221.2465.2465,0,0,1,.0271-.0133.0822.0822,0,0,0,.0357-.0234.0307.0307,0,0,0,.0079-.0183.0311.0311,0,0,0-.0069-.0191.1122.1122,0,0,0-.0354-.03.0976.0976,0,0,1-.0319-.0272.0909.0909,0,0,1-.0107-.0539V2.9205l-.0022-.0759a.54.54,0,0,1-.001-.082A.1943.1943,0,0,1,4.08,2.6331a.15.15,0,0,1,.0958-.0338L4.1286,2.504Z" fill="#f5d402"/><polygon points="3.068 1.875 3.018 1.931 3.018 2.002 3.068 2.042 3.068 1.875" fill="#b07f55"/><path d="M3.03,2.5774a.0158.0158,0,1,0-.0157-.0158A.0158.0158,0,0,0,3.03,2.5774Z" fill="#f5d402"/><rect x="3.7843" y="2.6819" width="0.0373" height="0.0373" transform="translate(-0.7957 3.4801) rotate(-45)" fill="#f5d402"/><path d="M3.1141,3.3947V3.3929h.0014l.0166-.0208V3.2742L3.12,3.2589l-.0037-.0056.0067,0,.0088,0V3.22a.1665.1665,0,0,1-.0216-.0272l-.003-.0048.0056-.0012.019-.0029v-.14a.1208.1208,0,0,1-.0272.0032l-.0091,0a.1255.1255,0,0,1-.078-.0358v.5049Z" fill="#b07f55"/><path d="M3.156,2.9756l.0069.0113.0087.0184.0043.0117.0015.0016.0007.0007-.0145-.0327-.0023-.0052L3.156,2.97Z" fill="#b07f55"/><path d="M4.9853,2.6508,4.9736,2.65l-.0089.0076-.05.1016-.012.0242L4.86,2.87l.0063.0026.02.0114.0025.0016.0145-.03.012-.0248.0772-.16A.0149.0149,0,0,0,4.9853,2.6508Z" fill="#f5d402"/><path d="M5.0889,2.48a.0246.0246,0,1,0-.0246-.0246A.0247.0247,0,0,0,5.0889,2.48Z" fill="#f5d402"/><polygon points="5.034 2.584 5.084 2.53 5.072 2.486 5.029 2.503 5.014 2.585 5.013 2.586 4.98 2.641 4.989 2.644 4.997 2.651 5.034 2.585 5.034 2.584" fill="#f5d402"/><path d="M5.1024,2.4207a.0567.0567,0,0,1,.02.0134V2.3824l-.0409.0344h0A.0557.0557,0,0,1,5.1024,2.4207Z" fill="#f5d402"/><path d="M3.5837,2.866A.0552.0552,0,0,1,3.6454,2.85a.05.05,0,0,1,.0059-.0175l0-.0053A.0464.0464,0,0,0,3.6442,2.8a.0445.0445,0,0,0-.0477-.0182.0458.0458,0,0,0-.0335.0389.0491.0491,0,0,0,.0078.0322A.0518.0518,0,0,1,3.5837,2.866Z" fill="#f5d402"/><polygon points="5.081 2.487 5.093 2.53 5.092 2.534 5.04 2.589 5.005 2.654 5.033 2.65 5.035 2.618 5.037 2.615 5.126 2.543 5.087 2.488 5.081 2.487" fill="#f5d402"/><path d="M3.2379,3.27l.0212.0092.0067-.0075V3.2632a.1457.1457,0,0,1-.03.0032H3.2352l-.0078,0Z" fill="#b07f55"/><path d="M3.156,3.2409v.0116l.0251.0024A.1433.1433,0,0,1,3.156,3.2409Z" fill="#b07f55"/><path d="M2.9308,2.5929a.0158.0158,0,1,0,.0158.0157A.0157.0157,0,0,0,2.9308,2.5929Z" fill="#f5d402"/><polygon points="5.006 2.583 5.022 2.499 5.024 2.496 5.061 2.481 4.993 2.48 4.993 2.573 4.993 2.575 4.967 2.616 4.973 2.636 5.006 2.583" fill="#f5d402"/><path d="M4.5191,3.5792A.076.076,0,0,0,4.48,3.5671v.0787l.061-.0441A.0745.0745,0,0,0,4.5191,3.5792Z" fill="#f5d402"/><polygon points="3.405 3.609 3.47 3.645 3.488 3.57 3.42 3.537 3.405 3.609" fill="#f5d402"/><circle cx="3.6263" cy="2.9021" r="0.0439" fill="#f5d402"/><path d="M4.5525,3.5642l-.027-.0212L4.52,3.5409l-.0075.0036-.002.0071.0036.0064.0269.0212h0l.0071.0019.0063-.0035A.01.01,0,0,0,4.5525,3.5642Z" fill="#f5d402"/><path d="M3.6263,2.9579A.0558.0558,0,0,1,3.58,2.9333a.049.049,0,0,1-.0151.0106l-.0034.0041a.0466.0466,0,0,0-.01.0261.0445.0445,0,0,0,.0278.0428.046.046,0,0,0,.05-.0118.0485.0485,0,0,0,.0126-.0306A.05.05,0,0,1,3.64,2.9563Z" fill="#f5d402"/><path d="M4.6251,3.5073,4.6066,3.489c-.0239-.0225-.03-.0239-.0343-.0234a.0169.0169,0,0,0-.0143.0105c-.0009.0047.0045.0107.0266.0319l.023.0218.01-.0019.0051-.0007.0055-.0062-.0011-.0068Z" fill="#d10429"/><path d="M3.2075,2.8955a.0681.0681,0,0,0,.0069-.0178.0722.0722,0,0,0-.0167-.0536.0863.0863,0,0,0-.0381.0642.0847.0847,0,0,0,.0256.0642.3078.3078,0,0,1,.013-.0371Z" fill="#097754"/><polygon points="3.278 3.239 3.282 3.244 3.278 3.235 3.278 3.239" fill="#b07f55"/><polygon points="3.278 1.995 3.327 2.044 3.327 1.881 3.278 1.931 3.278 1.995" fill="#b07f55"/><path d="M3.2994,3.2431l.0077-.0086-.0009-.0012a.1154.1154,0,0,1-.0252-.068A.1225.1225,0,0,1,3.3271,3.07L3.33,3.0679l.0024.0033.0054.0076.0142-.0314a.7006.7006,0,0,0,.0386-.123l.0058-.0269L3.3961,2.021l-.0514.0514v.001h-.001l-.0109.0109-.011-.0109h-.001v-.001l-.0371-.0371V3.05l0,.0046a.0236.0236,0,0,1-.0065.0162v.1258Z" fill="#b07f55"/><path d="M4.5813,3.5169c-.0238-.0224-.03-.0239-.0342-.0234a.0172.0172,0,0,0-.0143.01c-.001.0047.0045.0107.0266.0319l.02.0188.0034,0c.0036,0,.012,0,.0156-.004l.0024-.0075.0013-.0062Z" fill="#d10429"/><path d="M4.64,3.3124a.026.026,0,1,0,.026.026A.0259.0259,0,0,0,4.64,3.3124Z" fill="#f5d402"/><path d="M3.2027,2.9587a.1209.1209,0,0,0,.0073.0447.0851.0851,0,0,0,.0275-.0251.1021.1021,0,0,0,.0156-.0551.1608.1608,0,0,0-.0065-.057A.1349.1349,0,0,0,3.2027,2.9587Z" fill="#097754"/><path d="M3.5789,2.9314A.0552.0552,0,0,1,3.57,2.9021a.0558.0558,0,0,1,.0119-.0344.0505.0505,0,0,1-.0148-.011l-.0049-.002a.0465.0465,0,0,0-.0278-.0012.0445.0445,0,0,0-.0321.04.0458.0458,0,0,0,.0266.0439.0485.0485,0,0,0,.033.0026A.0518.0518,0,0,1,3.5789,2.9314Z" fill="#f5d402"/><path d="M4.5736,1.9478l-.048.0469.05.05V1.87l-.04-.04a.28.28,0,0,1-.0683.0986l-.007.0066-.0028-.0091a.0723.0723,0,0,0-.0233-.0344.0716.0716,0,0,0-.0272-.0135.106.106,0,0,1-.0075.0246.1071.1071,0,0,1-.0211.031l-.0031.0031-.0039-.002a.3818.3818,0,0,1-.0352-.02c-.0112-.0073-.0221-.0153-.0326-.0237L4.3,1.8915a.29.29,0,0,1-.0879.0157l.0128.0089.0221.0143L4.2207,1.927a.236.236,0,0,1-.128-.0589.2244.2244,0,0,1-.0318-.0364l.0112.03a.4078.4078,0,0,0,.03.0583l.0071.0113L4.0964,1.929a.156.156,0,0,1-.0751-.0345.158.158,0,0,1-.03-.0339l-.0338.0645-.0336-.0645a.158.158,0,0,1-.03.0339.156.156,0,0,1-.0751.0345l-.0131.0022L3.8134,1.92a.4078.4078,0,0,0,.03-.0583l.0112-.03a.22.22,0,0,1-.0319.0364.2354.2354,0,0,1-.1279.0589l-.0279.0036.024-.0146.0132-.0088a.29.29,0,0,1-.09-.0157L3.6109,1.89c-.01.0084-.0214.0164-.0326.0237a.3938.3938,0,0,1-.0351.02l-.0039.002-.0031-.0031a.1075.1075,0,0,1-.0212-.031.106.106,0,0,1-.0075-.0246A.0705.0705,0,0,0,3.48,1.891a.0716.0716,0,0,0-.0233.0344l-.0029.0091-.007-.0066A.2927.2927,0,0,1,3.4065,1.88a.2826.2826,0,0,1-.0275-.0511l-.04.04v.175l.05-.05-.0424-.0464Z" fill="#b07f55"/><path d="M3.8981,2.1984l-.0425.0775.0775-.0425.0247.0848.0248-.0848.0775.0425-.0425-.0775.0848-.0248-.0848-.0247L4.06,2.0714l-.0775.0425L3.9578,2.029l-.0247.0849-.0775-.0425.0425.0775-.0849.0247Zm-.0123-.0968.0546.03.0174-.06.0175.06.0546-.03L4,2.1562l.06.0174L4,2.1911l.03.0546-.0546-.03-.0175.06-.0174-.06-.0546.03.03-.0546-.06-.0175.06-.0174Z"/><path d="M4.25,3.0206l.0127.0058-.0046-.0132a.1219.1219,0,0,1,.02-.11.1181.1181,0,0,1,.0947-.0392l.0148.0011-.01-.0111a.1239.1239,0,0,0-.0852-.0417.114.114,0,0,0-.1105.0654A.117.117,0,0,0,4.25,3.0206Zm-.0568-.1387a.1008.1008,0,0,1,.0944-.0578h.0043a.1092.1092,0,0,1,.0669.0278.1228.1228,0,0,0-.1154.1518A.1032.1032,0,0,1,4.1929,2.8819Z"/><path d="M3.7152,2.809a.0535.0535,0,0,0-.0333-.0013.0506.0506,0,0,0-.0238.015.05.05,0,0,0-.0059-.0275.0509.0509,0,0,0-.0249-.0224A.054.054,0,0,0,3.5936,2.77a.0536.0536,0,0,0-.04.05.05.05,0,0,0,.0069.0272.0491.0491,0,0,0-.0279-.0029.0508.0508,0,0,0-.029.0167.0523.0523,0,0,0-.0041.064.0538.0538,0,0,0,.0262.0207.0519.0519,0,0,0,.0281.0019.05.05,0,0,0-.0114.0256.0507.0507,0,0,0,.007.0328.0531.0531,0,0,0,.0873.005.05.05,0,0,0,.01-.0261.05.05,0,0,0,.0209.0188.0515.0515,0,0,0,.0333.0035.0523.0523,0,0,0,.0409-.0494.053.053,0,0,0-.0091-.0321.0513.0513,0,0,0-.0215-.018.05.05,0,0,0,.0242-.014A.0515.0515,0,0,0,3.75,2.8631a.0547.0547,0,0,0-.008-.0329A.054.054,0,0,0,3.7152,2.809Zm-.0889.137A.0439.0439,0,1,1,3.67,2.9021.044.044,0,0,1,3.6263,2.946ZM3.563,2.8207a.0458.0458,0,0,1,.0335-.0389A.0445.0445,0,0,1,3.6442,2.8a.0464.0464,0,0,1,.0075.0269l0,.0053a.05.05,0,0,0-.0059.0175.0552.0552,0,0,0-.0617.0163.0518.0518,0,0,0-.0129-.0131A.0491.0491,0,0,1,3.563,2.8207Zm-.0337.1164a.0458.0458,0,0,1-.0266-.0439.0445.0445,0,0,1,.0321-.04.0465.0465,0,0,1,.0278.0012l.0049.002a.0505.0505,0,0,0,.0148.011.0558.0558,0,0,0-.0119.0344.0552.0552,0,0,0,.0085.0293.0518.0518,0,0,0-.0166.0083A.0485.0485,0,0,1,3.5293,2.9371Zm.1.068a.046.046,0,0,1-.05.0118.0445.0445,0,0,1-.0278-.0428.0466.0466,0,0,1,.01-.0261l.0034-.0041A.049.049,0,0,0,3.58,2.9333a.0558.0558,0,0,0,.0463.0246L3.64,2.9563a.05.05,0,0,0,.0028.0182A.0485.0485,0,0,1,3.63,3.0051Zm.0956-.0744a.0458.0458,0,0,1-.0042.0512.0445.0445,0,0,1-.0493.0133A.0468.0468,0,0,1,3.65,2.9779l-.0028-.0047-.0054-.0175a.0557.0557,0,0,0,.04-.05A.05.05,0,0,0,3.7,2.9093.0484.0484,0,0,1,3.7253,2.9307Zm.0036-.0431a.0465.0465,0,0,1-.0232.0154l-.0052.0013a.0523.0523,0,0,0-.0185,0V2.9021A.0559.0559,0,0,0,3.6474,2.85a.0488.0488,0,0,0,.0085-.0163.0489.0489,0,0,1,.0282-.0174.046.046,0,0,1,.0474.02A.0446.0446,0,0,1,3.7289,2.8876Z"/><path d="M3.8464,2.7006,3.803,2.6573,3.76,2.7006l.0433.0434ZM3.803,2.6742l.0264.0264L3.803,2.727l-.0264-.0264Z"/><path d="M3.65,2.4908a.4616.4616,0,0,1-.0534-.039l-.0039-.0033-.0039.0034a.465.465,0,0,1-.1369.084l-.0153.0061.0156.0052a.3514.3514,0,0,1,.0807.0389.3571.3571,0,0,1,.05.0388l.004.0038.0041-.0037a.4223.4223,0,0,1,.1367-.084l.0146-.0054L3.7276,2.53A.469.469,0,0,1,3.65,2.4908Zm-.0119.0822a.4357.4357,0,0,0-.0514.0395.3629.3629,0,0,0-.116-.0714.4772.4772,0,0,0,.1221-.0768.483.483,0,0,0,.0509.0367.4755.4755,0,0,0,.0656.0343A.4363.4363,0,0,0,3.6382,2.573Z"/><path d="M4.3887,2.4908a.4616.4616,0,0,1-.0534-.039l-.004-.0033-.0038.0034a.465.465,0,0,1-.1369.084l-.0153.0061.0156.0052a.3533.3533,0,0,1,.0807.0389.3571.3571,0,0,1,.05.0388l.004.0038.0041-.0037a.4193.4193,0,0,1,.1367-.084l.0146-.0054L4.4662,2.53A.4651.4651,0,0,1,4.3887,2.4908Zm-.0119.0822a.4357.4357,0,0,0-.0514.0395.37.37,0,0,0-.0473-.0365.3637.3637,0,0,0-.0687-.0349.465.465,0,0,0,.0712-.0384.4845.4845,0,0,0,.0509-.0384.483.483,0,0,0,.0509.0367.4644.4644,0,0,0,.0656.0343A.4363.4363,0,0,0,4.3768,2.573Z"/><path d="M4.0706,2.7006l.0433.0434.0434-.0434-.0434-.0433Zm.0433.0264-.0264-.0264.0264-.0264.0264.0264Z"/><path d="M4.3226,2.3435a.2555.2555,0,0,0-.017-.1886.326.326,0,0,0-.1505-.1488l-.0158-.0077.0078.0158c.0758.1535.0867.2883.0534.33a.1241.1241,0,0,1-.0681.0513l-.0051,0a.0966.0966,0,0,0-.0322.0066.0811.0811,0,0,0-.0207.0121L4.0637,2.42c-.0073.0005-.0119-.0038-.0187-.011a.0445.0445,0,0,0-.0272-.0165.04.04,0,0,0-.0326.0141.0389.0389,0,0,1-.0258.0134.0417.0417,0,0,1-.0281-.014.0421.0421,0,0,0-.0343-.0146.0458.0458,0,0,0-.0273.0174c-.007.0077-.0118.0124-.0194.012-.0042,0-.0061-.0018-.01-.0053l-.0164-.011a.0838.0838,0,0,0-.0386-.01.088.088,0,0,1-.0216-.0031.1134.1134,0,0,1-.05-.0454.442.442,0,0,1,.05-.3268l.0068-.0155-.0151.0079a.3316.3316,0,0,0-.1489.1558.2486.2486,0,0,0-.0107.1887.2755.2755,0,0,0,.1732.1529l-.0129.0263-.0375.0764h.01a.1526.1526,0,0,1,.1041.0372.19.19,0,0,1,.0456.1189,1.2143,1.2143,0,0,1-.004.1485l0,.0043a.1085.1085,0,0,1-.0093.0437.1184.1184,0,0,1-.0616.0557l-.0013.0006-.0008.001a.0463.0463,0,0,0-.0113.03.048.048,0,0,0,.011.0279.0817.0817,0,0,0,.038.026.2436.2436,0,0,1,.0254.0121.0788.0788,0,0,1,.0229.0175.06.06,0,0,0,.02.0151.14.14,0,0,0,.0562.0124.1.1,0,0,0,.043-.0091.0514.0514,0,0,0,.0211-.0166.0745.0745,0,0,1,.0232-.0194.2515.2515,0,0,1,.0258-.0126.0923.0923,0,0,0,.04-.0269.0422.0422,0,0,0,.0106-.0254.043.043,0,0,0-.0091-.0264A.1234.1234,0,0,0,4.08,2.9927a.0887.0887,0,0,1-.0284-.0238.0824.0824,0,0,1-.0087-.0475V2.92L4.04,2.8443a.5923.5923,0,0,1-.0012-.08.1839.1839,0,0,1,.049-.1224.1418.1418,0,0,1,.0974-.0307l.01,0-.0347-.07-.0153-.0308A.2856.2856,0,0,0,4.3226,2.3435Zm-.1466.2558a.15.15,0,0,0-.0958.0338.1943.1943,0,0,0-.0529.1295.54.54,0,0,0,.001.082l.0022.0759v.0012a.0909.0909,0,0,0,.0107.0539.0976.0976,0,0,0,.0319.0272.1122.1122,0,0,1,.0354.03.0311.0311,0,0,1,.0069.0191.0307.0307,0,0,1-.0079.0183.0822.0822,0,0,1-.0357.0234.2465.2465,0,0,0-.0271.0133.0865.0865,0,0,0-.0264.0221.0392.0392,0,0,1-.0169.0133A.1143.1143,0,0,1,3.9127,3.14a.0485.0485,0,0,1-.017-.0125.09.09,0,0,0-.0257-.02.2366.2366,0,0,0-.0266-.0127A.0711.0711,0,0,1,3.81,3.0724a.0364.0364,0,0,1-.0085-.0209.0339.0339,0,0,1,.0076-.0208.13.13,0,0,0,.0662-.061.12.12,0,0,0,.01-.0482l0-.0043A1.1782,1.1782,0,0,0,3.89,2.7661a.2005.2005,0,0,0-.0492-.1256.1607.1607,0,0,0-.1029-.04L3.77,2.5356l.0165-.0337L3.7794,2.5a.2666.2666,0,0,1-.1722-.1477.2794.2794,0,0,1,.1389-.3213.434.434,0,0,0-.0422.3222.1208.1208,0,0,0,.056.05.1.1,0,0,0,.0244.0037.0725.0725,0,0,1,.0338.0081l.0142.01a.0271.0271,0,0,0,.0175.008.0363.0363,0,0,0,.0287-.0158.0353.0353,0,0,1,.02-.0138c.0093-.0013.0155.0037.0249.0118a.0512.0512,0,0,0,.0361.017.05.05,0,0,0,.0336-.0164c.0086-.0077.0143-.0123.0232-.0112a.0337.0337,0,0,1,.02.0129.0354.0354,0,0,0,.0282.0147.03.03,0,0,0,.0172-.0078.0674.0674,0,0,1,.0178-.01.0832.0832,0,0,1,.0286-.0057l.0055,0A.13.13,0,0,0,4.21,2.3517c.034-.0425.0293-.17-.0441-.3265a.2766.2766,0,0,1,.1455.3147.2766.2766,0,0,1-.1759.1621l-.0067.002Z"/><path d="M4.0589,2.7788c-.0059.0074-.011.0194-.0094.0841.0017.0674.0081.08.0112.0854a.1159.1159,0,0,0,.053.0488l.0092.0044-.0006-.01a.848.848,0,0,1,.017-.23l.0014-.0067L4.1338,2.754A.0891.0891,0,0,0,4.0589,2.7788Zm.0514.1055a.8736.8736,0,0,0-.0006.0971.1.1,0,0,1-.0384-.0387c-.0023-.0043-.0082-.0155-.01-.08s.0041-.0729.0068-.0764a.0712.0712,0,0,1,.056-.0205h.0018A.8617.8617,0,0,0,4.11,2.8843Z"/><path d="M3.7947,2.9913l-.0006.01.0092-.0044a.1159.1159,0,0,0,.053-.0488c.0031-.0058.01-.018.0112-.0854.0016-.0647-.0036-.0767-.0094-.0841a.0892.0892,0,0,0-.0749-.0248l-.0069.0005.0014.0067a.848.848,0,0,1,.017.23Zm.054-.2051c.0027.0035.0084.0107.0068.0764a.1923.1923,0,0,1-.01.08.1.1,0,0,1-.0384.0387.8717.8717,0,0,0-.0164-.2157A.0728.0728,0,0,1,3.8487,2.7862Z"/><path d="M3.7819,1.3488c-.0047-.0014-.0116.0038-.0112.0076l.01.0064.01.0018-.0022-.0073Z"/><path d="M3.8882,1.4132a.0317.0317,0,1,0-.0317-.0316A.0317.0317,0,0,0,3.8882,1.4132Zm0-.0464a.0148.0148,0,1,1-.0148.0148A.0148.0148,0,0,1,3.8882,1.3668Z" fill="#f5d402"/><circle cx="3.8882" cy="1.3816" r="0.0148"/><path d="M3.8315,1.3306c-.0077,0-.0136,0-.017.0039a.0179.0179,0,0,0-.0012.0155.0363.0363,0,0,0,.0121.018c.0063.0058.0114.0106.0164.0094s.0057-.01.0119-.017a.0384.0384,0,0,1,.0292-.0119.1178.1178,0,0,0-.0277-.0137A.0752.0752,0,0,0,3.8315,1.3306Z" fill="#b07f55"/><path d="M3.6871,1.38V1.2685H3.75l.0155.0054.0108.0071a.0976.0976,0,0,0,.0027-.0229.091.091,0,0,0-.0027-.0221l-.0107.007-.0125.0047v.0008H3.6871V1.1859L3.6923,1.17l.0071-.0113a.0878.0878,0,0,0-.044,0l.007.0111.0045.0128h.0007v.07H3.6055a.0456.0456,0,0,1-.0173-.0069l-.01-.0081-.0024.0213a.1.1,0,0,0,.0028.0226l.01-.0066.0157-.0061.001,0h.0614V1.5l-.0114.0214.0212.03.0211-.03L3.6871,1.5Z" fill="#f5d402"/><path d="M3.0074,2.7078,3,2.695a.0894.0894,0,0,0-.0284-.026.0943.0943,0,0,0-.0676-.009.116.116,0,0,0,.0457.0378.1135.1135,0,0,0,.05.01Z" fill="#097754"/><path d="M3.1444,3.1109a.0156.0156,0,0,0,.0056.012l.01.0038a.0158.0158,0,1,0,0-.0315l-.01.0038A.0156.0156,0,0,0,3.1444,3.1109Z" fill="#f5d402"/><path d="M3.138,3.1918l-.0175.0021a.1663.1663,0,0,0,.0175.0213l.012.0111a.131.131,0,0,0,.1158.0287l.0119-.0032.0006,0L3.2777,3.251l-.0119-.0128A.1668.1668,0,0,0,3.15,3.1914Z" fill="#097754"/><path d="M3.0117,2.7624,3.0183,2.76l-.0066-.0086L3,2.74a.1042.1042,0,0,0-.025-.0159.1056.1056,0,0,0-.06-.0073A.0769.0769,0,0,0,3,2.7649Z" fill="#097754"/><path d="M3.604,3.2322,3.5992,3.17l-.0406.0175-.0024-.0368-.044.0065.0469-.0764-.0175-.01-.0687.1119.0318-.0046-.1129.1723a.2669.2669,0,0,0-.0437,0v0l-.0152-.0361,0-.0014a.0926.0926,0,0,1,.0241-.0015.0237.0237,0,1,0,.0011-.0079.0992.0992,0,0,0-.0272.0017.24.24,0,0,1-.0053-.0288l0-.0042.0018-.0005H3.327a.1007.1007,0,0,0,.0563-.0383.1048.1048,0,0,0,.0133-.0891L3.3953,3.14l-.0041.0017a.1269.1269,0,0,0-.0426.03.0963.0963,0,0,0,.0076-.0279A.088.088,0,0,0,3.35,3.1016l.0067-.0059.0177-.0391a.7261.7261,0,0,0,.0277-.0788l-.0007,0L3.397,2.9739l0,0V2.8975l-.0058.0269a.7006.7006,0,0,1-.0386.123l-.0142.0314-.0054-.0076L3.33,3.0679,3.3271,3.07a.1225.1225,0,0,0-.0461.0949.1154.1154,0,0,0,.0252.068l.0009.0012-.0077.0086.0249.0535L3.326,3.3l.0006.0051-.0017.0034-.0027.0021-.0028.0007H3.3188L3.3135,3.31l-.0019-.0025,0-.0005-.0232-.05-.0013-.0028-.0048-.01L3.2777,3.239V3.2345l-.0119-.0257v.0185a.1733.1733,0,0,0-.054-.0326.1706.1706,0,0,0-.0558-.0112V3.1343l.0041,0a.0239.0239,0,0,0,.0238-.0238.0235.0235,0,0,0-.0071-.0168.0671.0671,0,0,1,.0223-.0285l-.0034-.0073A.073.073,0,0,0,3.17,3.09l-.01-.0023-.0041,0V3.0363l.0083-.0041.0125-.0077L3.18,3.0226l.0074.0167.0043.01h0l.0024-.01.0015-.0009.0053,0,.0053.0043h0l-.0025-.0056-.0275-.0619h0a.0081.0081,0,0,1-.0039.0106l-.0034.0007H3.1677l-.0064-.0044h0l.0023.0052.0145.0327-.0007-.0007L3.1759,3.017l-.0043-.0117-.0087-.0184L3.156,2.9756V2.97L3.15,2.9578l-.012-.0251L3.1321,2.92V2.948a.118.118,0,0,0-.0446-.0248.1225.1225,0,0,0-.0628-.001l-.0043.001.0015.0043a.0851.0851,0,0,0,.0446.0552.1219.1219,0,0,0-.0483.0227l-.0005,0V2.7689l.0082-.003L3.03,2.764,3.0277,2.76h0l-.01-.0135V2.7146l.0014,0-.0009-.002L3.0177,2.711V2.6667l-.006-.0126L3,2.629l-.006-.0125v.06a.09.09,0,0,0-.0185-.0139.1029.1029,0,0,0-.0791-.0083l-.0051.0016.0029.0044a.123.123,0,0,0,.0521.0453l.0143.0055A.1143.1143,0,0,0,2.9079,2.71l-.0043.001.0014.0042a.089.089,0,0,0,.0363.0465.0841.0841,0,0,0,.0449.0125l.0075,0v.8113l.12-.1517v.0377l.14-.1594.0116-.004.01-.0025a.0531.0531,0,0,1,.0207.0019l.0116.0049a.1042.1042,0,0,0-.02.0122L3.28,3.3225a.0237.0237,0,1,0,0,.0474l.0053-.0006a.104.104,0,0,0-.0177.0165c-.0073.0087-.0224.0269-.0171.0447a.024.024,0,0,0,.0107.0135l.0052.0061-.0036.0121a.0451.0451,0,0,0-.0072.0261.0247.0247,0,0,0,.0087.0207.0214.0214,0,0,0,.0159.002h0a.02.02,0,0,0-.0011.0132.0235.0235,0,0,0,.0117.0137.0192.0192,0,0,0,.0114.0019h.0024l.0015.0052a.0262.0262,0,0,0,.0051.0136.0283.0283,0,0,0,.0224.0083h.0026c.0227-.0006.0457-.0237.0672-.0524l.006.0143-.0184.086.0874.0478.0231-.0987-.0812-.04-.0086-.02-.0005,0,.0173-.0255c.02-.0307.03-.0462.0412-.0663a.6932.6932,0,0,1,.1162-.1535l.0017.0215.1206-.1334-.02-.0077ZM3.38,3.2945a.0158.0158,0,1,1-.0158.0157A.0157.0157,0,0,1,3.38,3.2945Zm.01-.144a.096.096,0,0,1-.0134.0777.0919.0919,0,0,1-.0481.0341.1055.1055,0,0,1,.0051-.0515A.1119.1119,0,0,1,3.39,3.1505Zm-.1012.0146a.1134.1134,0,0,1,.04-.0858.0948.0948,0,0,1,.0194.0636.1407.1407,0,0,1-.02.0518.2823.2823,0,0,1-.0187.03A.1069.1069,0,0,1,3.289,3.1651Zm-.1509.2424V3.4031L3.156,3.38v-.085a.1136.1136,0,0,0,.0548.0205l.0075,0Zm.1155-.104-.02.0042a.1042.1042,0,0,1-.0224,0A.1088.1088,0,0,1,3.15,3.2807l-.012-.0118L3.131,3.26l.007,0q.006,0,.012,0a.2528.2528,0,0,1,.049.0062.2557.2557,0,0,1,.0546.0189l.0111.0056.0083.0047Zm-.0184-.0371h.0006a.1457.1457,0,0,0,.03-.0032v.0084l-.0067.0075L3.2379,3.27l-.01-.0038ZM3.156,3.2409a.1433.1433,0,0,0,.0251.014L3.156,3.2525Zm.11-.0027.0119.0128.0006.0006-.0006,0-.0119.0032A.131.131,0,0,1,3.15,3.2263l-.012-.0111a.1663.1663,0,0,1-.0175-.0213l.0175-.0021.012,0a.1668.1668,0,0,1,.1158.0468Zm-.09-.1273a.0158.0158,0,0,1-.0158.0158l-.01-.0038a.0156.0156,0,0,1,0-.0239l.01-.0038A.0158.0158,0,0,1,3.1759,3.1109ZM3.031,2.929a.1125.1125,0,0,1,.0542.0019.1109.1109,0,0,1,.0528.0343l.012.0158.0087.0149L3.15,2.9911l-.012-.0054a.1132.1132,0,0,0-.0331-.0079l-.0089,0-.0071,0a.0479.0479,0,0,1-.0172-.0015A.0718.0718,0,0,1,3.031,2.929Zm.0608.0592a.1059.1059,0,0,1,.0462.0112l.012.0067a.13.13,0,0,1,.0183.0145L3.15,3.03l-.012.0043a.1145.1145,0,0,1-.0416.0046.1181.1181,0,0,1-.07-.03A.1107.1107,0,0,1,3.0918,2.9882Zm-.074.0231a.1255.1255,0,0,0,.078.0358l.0091,0a.1208.1208,0,0,0,.0272-.0032v.14l-.019.0029-.0056.0012.003.0048a.1665.1665,0,0,0,.0216.0272v.032l-.0088,0-.0067,0,.0037.0056.0118.0153v.0979l-.0166.0208H3.1141v.0018l-.0964.1215V3.0113Zm-.0241-.2952v.0092l-.0158-.0087L2.967,2.7125A.1223.1223,0,0,0,2.9937,2.7161Zm-.0443-.0183A.116.116,0,0,1,2.9037,2.66a.0943.0943,0,0,1,.0676.009A.0894.0894,0,0,1,3,2.695l.0077.0128L3,2.7082A.1135.1135,0,0,1,2.9494,2.6978Zm-.0038.0568a.0791.0791,0,0,1-.0314-.038.1056.1056,0,0,1,.06.0073A.1042.1042,0,0,1,3,2.74l.012.0119.0066.0086-.0066.0021L3,2.7649A.0792.0792,0,0,1,2.9456,2.7546Zm.5249.89-.0657-.036L3.42,3.537l.0678.0335ZM3.28,3.362a.0158.0158,0,1,1,.0157-.0158A.0158.0158,0,0,1,3.28,3.362Zm.0157-.0335a.09.09,0,0,1,.02-.0114l.0014.0012,0,.0017.0135.0321a.1254.1254,0,0,0-.0339.01.024.024,0,0,0,.0062-.016A.0236.0236,0,0,0,3.2959,3.3285Zm.01.095.005.0013.0035.0028L3.3089,3.43a.0641.0641,0,0,0-.0181.0114l-.003.0029-.0018.0018-.0022-.0037V3.4351l.0025-.0017.006-.0039.0047-.0033.0023-.0013Zm-.027.0757-.0076,0-.0033-.0113.0009-.0087L3.2879,3.46c.0239-.0224.03-.0239.0343-.0234a.0172.0172,0,0,1,.0143.01c.001.0047-.0045.0107-.0266.0319L3.2881,3.5Zm.0228.0287-.005-.0007L3.2908,3.521l.0012-.0068.0016-.0069.0185-.0183c.0238-.0225.03-.0239.0342-.0234a.0167.0167,0,0,1,.0143.0105c.001.0047-.0044.0107-.0266.0319L3.311,3.53Zm.0168.0156-.0014-.0062.02-.02c.0239-.0224.03-.0239.0343-.0234a.0172.0172,0,0,1,.0143.01c.0009.0047-.0045.0107-.0266.0319l-.02.0188-.0034,0c-.0035,0-.012,0-.0155-.004Zm.1412-.1371c-.0106.02-.0206.0349-.0407.0654l-.0065.01A.02.02,0,0,1,3.4,3.4754l-.0076-.0213-.006-.0123c-.0071-.0036-.0175.0077-.0209.0046l.001-.01a.0682.0682,0,0,1,.0109-.0193c.0109-.015.0139-.0191.0127-.0206l-.006,0a.1231.1231,0,0,1-.0273.0007.1187.1187,0,0,0-.0289.0076l-.0236.009-.0063.0025-.0021.0008-.0016.0007c-.0119.0049-.0158.0063-.0213.0053L3.2622,3.418a.0692.0692,0,0,1,.0148-.0246.0892.0892,0,0,1,.018-.0161.1811.1811,0,0,1,.0991-.0144l.0037,0,.1227-.1873.0172-.0025.0028.0434.0409-.0176.0034.0434A.7151.7151,0,0,0,3.4594,3.4064Z"/><path d="M4.2284,3.137l.0023-.0008a.6639.6639,0,0,0,.1272-.0581l.0171-.01a.9135.9135,0,0,0,.13-.0988L4.51,2.9644l.0026-.0023.0039-.0036V2.0031l.0044-.0042.0043-.0042.048-.0469H3.3466l.0424.0464.004.0045.0031.0034V2.021l.0006.8765v.0762l0,0,.0044.0034.0007,0a1.1191,1.1191,0,0,0,.1395.0933l.0175.01a.9527.9527,0,0,0,.098.0459l.0276.0108.0038.0015.02.0077a.8254.8254,0,0,1,.1141.054l.0245.0147.0194.0126a.7729.7729,0,0,1,.0825.0642L3.9575,3.3l.008-.0084a.559.559,0,0,1,.0729-.0638L4.07,3.2064l.0245-.0145a.61.61,0,0,1,.1132-.0482L4.2189,3.14Zm-.2041.0713a.563.563,0,0,0-.0681.0584A.7756.7756,0,0,0,3.88,3.208a.8624.8624,0,0,0-.1864-.093L3.666,3.1044a1.0338,1.0338,0,0,1-.2453-.1424l0-.42,0-.5492-.0192-.021H4.5147L4.493,1.993v.955a.7629.7629,0,0,1-.27.1655l-.0116.0037A.6186.6186,0,0,0,4.0243,3.2083Z" fill="#f5d402"/><path d="M3.1321,2.92l.0059.0125.012.0251.006.0126.0053.011h0l.0064.0044h.0008l.0034-.0007a.0079.0079,0,0,0,.0038-.0106h0l-.0005-.001-.0192-.04L3.15,2.9207l-.012-.0251-.0059-.0125-.0276-.0578v0a.0079.0079,0,0,0-.0106-.0037l-.0038.01v0Z" fill="#f5d402"/><path d="M3.2762,3.0547a.0159.0159,0,0,0-.01-.0148L3.26,3.0389a.0158.0158,0,0,0,0,.0316l.0054-.001A.0159.0159,0,0,0,3.2762,3.0547Z" fill="#f5d402"/><polygon points="3.206 3.042 3.2 3.038 3.195 3.038 3.194 3.039 3.191 3.049 3.191 3.049 3.196 3.058 3.199 3.066 3.266 3.209 3.278 3.235 3.282 3.244 3.287 3.254 3.288 3.257 3.311 3.307 3.312 3.307 3.313 3.31 3.319 3.312 3.319 3.312 3.322 3.311 3.325 3.309 3.327 3.306 3.326 3.3 3.324 3.297 3.299 3.243 3.278 3.197 3.266 3.171 3.213 3.059 3.21 3.051 3.206 3.042 3.206 3.042" fill="#f5d402"/><path d="M2.9937,2.7253V2.7161a.1223.1223,0,0,1-.0267-.0036l.0109.0041Z" fill="#b07f55"/><path d="M3.1757,2.9746h0l.0275.0619.0025.0056.0042.0089.0007,0a.062.062,0,0,1,.0268-.0025A.0238.0238,0,0,1,3.26,3.031V2.9383a.0954.0954,0,0,1-.0157.0445.0936.0936,0,0,1-.0343.03l0,0-.0036.0019-.0017-.0041a.1372.1372,0,0,1-.0087-.034.1213.1213,0,0,1-.0008-.0181l.0012-.0136-.0048.016L3.19,2.9663l0,.0006L3.1848,2.963,3.1726,2.95a.097.097,0,0,1-.0166-.03v.0128l.0192.04Z" fill="#b07f55"/><path d="M2.9836,2.4966l-.0021.0047" fill="none" stroke="#000" stroke-linecap="round" stroke-linejoin="round" stroke-width="0"/><path d="M2.9855,2.4918l-.0011.0028" fill="none" stroke="#000" stroke-linecap="round" stroke-linejoin="round" stroke-width="0"/><path d="M2.9864,2.4891l.0007-.0021" fill="none" stroke="#000" stroke-linecap="round" stroke-linejoin="round" stroke-width="0"/><path d="M5.1348,2.5419l-.0387-.0551a.0325.0325,0,0,0,.0254-.0318l-.0024-.0124.0037.0052.0034.0019h.0011L5.13,2.4457V2.3739L5.1279,2.37l-.0043.0005-.0578.0486-.001.0049.0045.002.0068-.0012a.0326.0326,0,0,0-.02.03.032.032,0,0,0,.0057.0183l-.0728-.001-.0028.0012-.0012.0028v.0953l-.026.0416,0,.0034.0087.0271a.0225.0225,0,0,0-.01.01l-.0372.075v-.805l.001-.0008L4.92,1.922V1.7147l-.0017-.0028a.7364.7364,0,0,0-.2062-.2242l-.0076-.0054-.0071.0061c-.03.0258-.061.0511-.0925.075-.0248.0188-.05.0373-.0761.0549l-.0052.0035-.0011.1773a.208.208,0,0,0-.11.0044.2019.2019,0,0,0-.0561.03.3279.3279,0,0,1-.0366.0229.2591.2591,0,0,1-.13.0266l-.0067,0-.0146-.0149a.289.289,0,0,1-.0522-.0858.3067.3067,0,0,1-.02-.1087c-.0014-.0395-.0021-.0594.01-.0773L4.11,1.5907a.0867.0867,0,0,0,.0145-.0265.12.12,0,0,0,.0037-.0431c0-.0143-.0012-.0287-.0026-.0432l.027.0119.0021-.0062a.06.06,0,0,0-.0014-.042l-.0093-.0148.02-.0076-.0007-.0048A.0581.0581,0,0,0,4.1447,1.38l-.0158-.01L4.1467,1.35l-.0082-.003C4.12,1.34,4.1014,1.333,4.0833,1.3259c-.03-.0117-.0448-.0175-.0573-.0235l-.0067-.0032a.3729.3729,0,0,0-.0424-.0183L3.96,1.2753c-.013-.004-.1283-.0376-.1633.0082a.0623.0623,0,0,0-.0117.0249.0409.0409,0,0,0,0,.01l.0005.0043a.1885.1885,0,0,0-.0431-.001.1173.1173,0,0,0-.047.0105V1.2765h.0533l.013.0046.0137.01L3.78,1.296l.002-.0064a.104.104,0,0,0,.0048-.0314.1.1,0,0,0-.0048-.0307L3.78,1.221l-.0047.0049-.0135.01-.0134.0046H3.6951V1.187L3.7,1.1735l.01-.014.0045-.0046-.0061-.002A.095.095,0,0,0,3.677,1.148a.0968.0968,0,0,0-.03.0049l-.0061.0021.0046.0045.01.0139.0045.0137v.0575H3.6066l-.0141-.0057A.04.04,0,0,1,3.58,1.2266l-.0045-.0074-.0026.0083a.0981.0981,0,0,0-.0048.0314.1.1,0,0,0,.0048.0307l.0018.0059L3.58,1.2914l.0136-.01.0136-.0054H3.66v.2212l-.0128.024.03.0429.03-.0429-.0127-.024v-.121a.1044.1044,0,0,1,.0394,0A.1326.1326,0,0,1,3.8,1.3993l.0052.0042-.0192.0017H3.7857a.1228.1228,0,0,1-.0472-.01l-.0171-.007.01.0157a.1882.1882,0,0,0,.0347.0416l.016.0116a.0272.0272,0,0,1,.0126.0117.277.277,0,0,1,.02.0563.3793.3793,0,0,1,.0007.1407.4952.4952,0,0,1-.0189.1029.264.264,0,0,1-.049.099l-.0137.0147-.0066,0a.2619.2619,0,0,1-.1329-.0266.3374.3374,0,0,1-.0366-.0229.2012.2012,0,0,0-.056-.03.2081.2081,0,0,0-.11-.0044L3.39,1.6218,3.385,1.6183c-.0258-.0176-.0514-.0361-.0762-.0549-.0314-.0239-.0625-.0492-.0924-.075l-.0071-.0061-.0077.0054a.74.74,0,0,0-.2062.2242l-.0017.0028V1.922l-.0009.001.0009.0008v.6286a.0912.0912,0,0,0-.0149,0l-.0032-.0079a.1248.1248,0,0,1-.004-.0258l.0025-.0038.0074-.0132.0021-.0047.0008-.002.0011-.0028.0009-.0027.0007-.0021.0015-.0048a.1078.1078,0,0,0,.0038-.03.1123.1123,0,0,0-.0264-.0706L2.9622,2.377l-.0028.0051a.1247.1247,0,0,0-.0154.0514.0812.0812,0,0,0-.0112-.0255.0877.0877,0,0,0-.0548-.0364l-.0033-.0007-.0013.0032a.088.088,0,0,0-.0006.0618.082.082,0,0,0,.03.0382.0857.0857,0,0,0-.0527-.0091l-.0042.0007.0009.0041a.0969.0969,0,0,0,.0279.05.0981.0981,0,0,0,.0632.026h0l.013.0066.0071.0065-.0037.0027-.0016.0013-.0048.0045a.0776.0776,0,0,0-.0135.0177l-.0044,0a.0238.0238,0,1,0,.012.0033l.0115-.015L2.96,2.5683l.004-.0029.0131.02.01.0161.0042-.0093.0056,0L3,2.5932l.0018.0024.01.0214.006.0126V2.582l.0121.0034.0085-.0016a.0966.0966,0,0,0-.0107.0441.0986.0986,0,0,0,.0254.0647l.0036.0039.0027-.0045.0069-.0133.0005-.0012.002-.0053-.0009.0069h0a.1172.1172,0,0,0,.0173.0748l.0009.0014.0025.0038.0035-.0029a.1089.1089,0,0,0,.017-.1484l-.0027-.0036-.0033.0032a.1205.1205,0,0,0-.03.0463.1038.1038,0,0,0-.0218-.0819l0,0,.0022-.01A.0238.0238,0,0,0,3.03,2.5379l-.0121.0034V2.0322l.0568.0451.0114-.0094h0v0L3.1321,2.03V2.8l-.003.0056a.061.061,0,0,0-.0335-.0009l-.0141-.0333L3.0544,2.707l-.0008-.002v0l.0007.0028-.0027.0064L3.05,2.7153l-.0035.0008L3.039,2.7115v0l.0019.0045.0241.0569.0161.0379a.0581.0581,0,0,0-.024.0308L3.05,2.84a.0238.0238,0,1,0,.0146.0051.051.051,0,0,1,.02-.0272l.0058.0136h0l.0038-.01a.0079.0079,0,0,1,.0106.0037v0l-.0058-.0137a.0511.0511,0,0,1,.0291.0015.0233.0233,0,0,0,.0043.0134v.0566l.0059.0125.012.0251.006.0126V2.9205a.097.097,0,0,0,.0166.03l.0122.0126.0047.0039,0-.0006.0014-.0054.0048-.016-.0012.0136a.1213.1213,0,0,0,.0008.0181.1372.1372,0,0,0,.0087.034l.0017.0041L3.21,3.0128l0,0a.0936.0936,0,0,0,.0343-.03A.0954.0954,0,0,0,3.26,2.9383V3.031a.0238.0238,0,0,0-.0223.0175.062.062,0,0,0-.0268.0025l-.0007,0,.0034.0073a.0525.0525,0,0,1,.0234-.0019.0237.0237,0,0,0,.0236.0218l.0054-.0006V3.171l.0119.0257V3.0709a.0236.0236,0,0,0,.0065-.0162l0-.0046V2.0353l.0371.0371v.001h.001l.011.0109.0109-.0109h.001v-.001l.0514-.0514V2.0021L3.393,1.9987l-.004-.0045-.05.05V1.87l.04-.04a.2826.2826,0,0,0,.0275.0511.2927.2927,0,0,0,.0407.0475l.007.0066.0029-.0091A.0716.0716,0,0,1,3.48,1.891a.0705.0705,0,0,1,.0271-.0135.106.106,0,0,0,.0075.0246.1075.1075,0,0,0,.0212.031l.0031.0031.0039-.002a.3938.3938,0,0,0,.0351-.02c.0112-.0073.0221-.0153.0326-.0237l.0035.0012a.29.29,0,0,0,.09.0157l-.0132.0088-.024.0146.0279-.0036a.2354.2354,0,0,0,.1279-.0589.22.22,0,0,0,.0319-.0364l-.0112.03a.4078.4078,0,0,1-.03.0583l-.0071.0113.0131-.0022a.156.156,0,0,0,.0751-.0345.158.158,0,0,0,.03-.0339l.0336.0645.0338-.0645a.158.158,0,0,0,.03.0339.156.156,0,0,0,.0751.0345l.0131.0022L4.1024,1.92a.4078.4078,0,0,1-.03-.0583l-.0112-.03a.2244.2244,0,0,0,.0318.0364.236.236,0,0,0,.128.0589l.0261.0034-.0221-.0143-.0128-.0089A.29.29,0,0,0,4.3,1.8915L4.3032,1.89c.01.0084.0214.0164.0326.0237a.3818.3818,0,0,0,.0352.02l.0039.002.0031-.0031a.1071.1071,0,0,0,.0211-.031.106.106,0,0,0,.0075-.0246.0716.0716,0,0,1,.0272.0135.0723.0723,0,0,1,.0233.0344l.0028.0091.007-.0066a.28.28,0,0,0,.0683-.0986l.04.04v.175l-.05-.05-.0043.0042-.0044.0042V2.02l.0525.0525v.001H4.57l.011.0109.0109-.0109h.001v-.001L4.63,2.0353V3.2307l-.0125-.0224a.9369.9369,0,0,1-.0951-.2739l-.0059,0v.0236l-.0039.0036L4.51,2.9644l-.0051.0046a.9584.9584,0,0,0,.0915.2506c.0075.014.0157.0284.0244.0426l.005.0084a.0643.0643,0,0,0,.0128.0317v0l.0016.002H4.64a.034.034,0,0,0-.0339.034.0332.0332,0,0,0,.0068.02.2151.2151,0,0,0-.0856-.0079L4.414,3.1784l.0318.0046L4.375,3.0678l-.0171.01.0485.079-.0439-.0065L4.36,3.1874,4.32,3.17l-.0049.0623L4.2284,3.137l-.01.003-.0114.0037.1234.1363.0017-.0215a.6925.6925,0,0,1,.1161.1535c.0108.02.021.0356.0412.0663a.4.4,0,0,0,.052.0674l-.0114-.009a.0176.0176,0,0,0-.0247.0029.0181.0181,0,0,0-.0036.0129.0175.0175,0,0,0,.0066.0117l.0019.0015a.0866.0866,0,0,0-.0344-.0066l-.004.004v.0905l.0022.0036.0018,0,.0024-.0007.07-.0509L4.55,3.6008l-.0087-.0124.0051.0008h.0021a.0175.0175,0,0,0,.01-.03.0481.0481,0,0,0,.0238.0081h.0027a.0283.0283,0,0,0,.0224-.0083.0251.0251,0,0,0,.005-.0136L4.6139,3.54h.0024a.0193.0193,0,0,0,.0114-.0019.0238.0238,0,0,0,.0117-.0137.0206.0206,0,0,0-.0011-.0132h0a.0214.0214,0,0,0,.0159-.002.025.025,0,0,0,.0087-.0207.0466.0466,0,0,0-.0072-.0261L4.6521,3.45l.0052-.0061a.024.024,0,0,0,.0107-.0135c.0052-.0178-.01-.036-.0171-.0448l-.014-.0136.0027,0a.034.034,0,0,0,.034-.0339A.0332.0332,0,0,0,4.67,3.323l.13.1479V3.4332l.12.1517V2.8366l.0785-.1626.0021-.0113.036-.0055L5.04,2.6536l.0025-.0329.0911-.0734Zm-2.1882.0667a.0158.0158,0,1,1-.0158-.0157A.0158.0158,0,0,1,2.9466,2.6086Zm.1291.0714a.111.111,0,0,1,.03-.0636.1007.1007,0,0,1-.015.1306A.11.11,0,0,1,3.0757,2.68Zm-.01.184a.0158.0158,0,0,1-.0315,0,.0158.0158,0,1,1,.0315,0Zm1.415.7818V3.5671a.076.076,0,0,1,.0388.0121.0745.0745,0,0,1,.0222.0225Zm.0737-.0682-.0063.0035-.0071-.0019h0L4.5137,3.558,4.51,3.5516l.002-.0071L4.52,3.5409l.0059.0021.027.0212A.01.01,0,0,1,4.554,3.5776Zm.5682-1.1952v.0517a.0567.0567,0,0,0-.02-.0134.0557.0557,0,0,0-.0208-.0039h0Zm-.0333.048a.0246.0246,0,1,1-.0246.0246A.0247.0247,0,0,1,5.0889,2.43Zm-.122.1855.0257-.041.0006-.0021V2.48l.0682.0009-.0371.0146-.0025.003-.0158.0837-.0325.0537ZM4.7278,3.26V3.257c0-.0169,0-.0336,0-.05l.03-.0576V3.38l.018.0227v.0044l-.0814-.0924.0025-.0013a.0614.0614,0,0,0,.0294-.0352A.06.06,0,0,0,4.7278,3.26Zm.069-.2794a.01.01,0,0,1-.0035-.0131l.0032-.0056.0059-.0044.0025,0,.0047.0012.03.0172a.01.01,0,0,1,.0035.013L4.84,2.994a.01.01,0,0,1-.0131.0035Zm.068-.0476a.0175.0175,0,0,1,.0082.0108.0179.0179,0,0,1-.0017.0134.0177.0177,0,0,1-.0242.0064l-.0311-.018a.0176.0176,0,0,1,.0177-.03Zm-.0314.0738a.0173.0173,0,0,0,.0131-.0086L4.85,2.9924a.0175.0175,0,0,0-.0018-.02l.008.0014.0067-.0009a.0255.0255,0,0,0,.0181-.0314l-.0052-.01.0038-.0007a.0254.0254,0,0,0,.0155-.0119l.0017-.0035v.6008L4.8,3.3947V3.3929H4.7986l-.0165-.0208V3.104Zm.0631-.11-.0026-.0053.0026-.0054Zm-.0086.0179a.0171.0171,0,0,1-.0107.0082.0179.0179,0,0,1-.0134-.0017l-.02-.0114a.018.018,0,0,1-.0082-.0107.0174.0174,0,0,1,.0018-.0134.0171.0171,0,0,1,.0107-.0082.0174.0174,0,0,1,.0134.0017l.02.0114A.0176.0176,0,0,1,4.8879,2.9149Zm-.0572-.033a.0253.0253,0,0,0-.0025.0194L4.83,2.905a.0256.0256,0,0,0-.0217.0443L4.8,2.95a.0178.0178,0,0,0-.0107.0081l-.0032.0056a.0175.0175,0,0,0,.0056.0234l-.01.0193V2.03l.0457.0375v0h0l.0115.0094.0568-.0451v.745l-.0455.0919A.0259.0259,0,0,0,4.8307,2.8819ZM4.5923,1.8526,4.553,1.8132l.0834-.0813v.1648l-.0431-.0431v-.001Zm.2782-.1713c.0093.0134.018.0269.026.04v.1742l-.0507-.0562V1.7115Zm-.1569.0918.0505-.0548v.179l-.0505-.05Zm.12.0665-.0577.0577V1.7166l.0577.0562Zm-.12.041.0505.0506v.0642l-.0505.0506Zm.0625.0506.0577-.0577v.1682l-.0577-.0474Zm.07-.0561.0507.0561v.07l-.0507.04ZM4.6484,1.73l.0532.0429v.0763l-.0532.0532Zm0,.2062.0532-.0532V2.046l-.0532-.0532Zm.0578-.4231a.7337.7337,0,0,1,.0756.0639.7146.7146,0,0,1,.0805.0933l.001.0013-.0295.0361v.0321l-.0585-.0569a.092.092,0,0,0-.039-.0658l-.0084.0015.0015.0083a.0812.0812,0,0,1,.0186.0179.0822.0822,0,0,1,.0154.0393l-.057.0619-.052-.0419v0h0l-.008-.0064-.0046-.0192a.0354.0354,0,0,0-.0114-.021.0292.0292,0,0,0-.0174-.0059l-.0062.0057.0058.0062.01.0034c.003.0024.0045.0056.0072.0149L4.6345,1.7l-.0876.0854.001-.1512c.0243-.0168.0484-.0343.0719-.0521C4.6491,1.56,4.6781,1.5367,4.7062,1.5127Zm-.1188.3688.049.049v.0649l-.049.0491Zm.067.1511.0412.0413v.001h.001l.011.0109.0109-.0109H4.72v-.001l.0385-.0386V3.0525l-.07.1362a.15.15,0,0,0-.0335.0231Zm-.977-.4818-.0212-.03L3.6676,1.5V1.2685H3.6062l-.001,0L3.59,1.2748l-.01.0066a.1.1,0,0,1-.0028-.0226l.0024-.0213.01.0081a.0456.0456,0,0,0,.0173.0069h.0621v-.07H3.6669L3.6624,1.17l-.007-.0111a.0878.0878,0,0,1,.044,0L3.6923,1.17l-.0051.0158v.0627h.0656V1.2478l.0125-.0047.0107-.007a.091.091,0,0,1,.0027.0221.0976.0976,0,0,1-.0027.0229L3.7651,1.274,3.75,1.2686H3.6871V1.5l.0114.0214Zm.1106-.1034-.0142-.01a.1744.1744,0,0,1-.0225-.0245.1332.1332,0,0,0,.0349.0045.1308.1308,0,0,0,.0329-.0042l.01-.0025L3.822,1.403,3.8075,1.39a.1417.1417,0,0,0-.0713-.0247.12.12,0,0,0-.0411-.0008V1.346a.0885.0885,0,0,1,.0481-.0128.1771.1771,0,0,1,.0492.0024l.006.0011.006.0112c.0075.0135.011.0143.0183.0271.0062.0108.015.026.0094.0369L3.823,1.42a.074.074,0,0,0-.0269.0325Zm.0657-.087c-.0062.0074-.006.0156-.0119.017s-.01-.0036-.0164-.0094a.0363.0363,0,0,1-.0121-.018.0179.0179,0,0,1,.0012-.0155c.0034-.004.0093-.004.017-.0039a.0752.0752,0,0,1,.0237.0042.1178.1178,0,0,1,.0277.0137A.0384.0384,0,0,0,3.8537,1.36Zm.0345-.01a.0317.0317,0,1,1-.0317.0317A.0317.0317,0,0,1,3.8882,1.35Zm-.82.3616v.1278l-.0507.0562V1.7213c.0079-.0132.0167-.0266.026-.04Zm.1322.1353-.0506.05v-.179l.0506.0548Zm-.12-.074.0577-.0562v.1807L3.08,1.84Zm-.0626.1584.0507-.0561v.1667l-.0507-.04ZM3.08,1.8735l.0577.0577v.0631L3.08,2.0415Zm.07.0577.0506-.0506V2.046L3.15,1.9954Zm.0625-.0824V1.7725L3.2658,1.73V1.902Zm.0652-.1169.0835.0813-.0394.0394h-.001v.001l-.0431.0431ZM3.28,1.7l.0045-.0192c.0027-.0093.0043-.0125.0073-.0149l.01-.0034.0058-.0062-.0062-.0057a.0292.0292,0,0,0-.0175.0059.0365.0365,0,0,0-.0114.021L3.268,1.697,3.26,1.7034h0v0l-.052.0419-.0571-.0619a.08.08,0,0,1,.034-.0572l.0015-.0083-.0083-.0015a.0911.0911,0,0,0-.0214.0206.0945.0945,0,0,0-.0177.0452L3.08,1.7394V1.7073l-.0294-.0361L3.0518,1.67a.7133.7133,0,0,1,.1561-.1572c.0281.024.0572.0475.0864.07.0235.0178.0477.0354.072.0521l.0009.1512Zm-.0138.2925-.0533.0532V1.8826l.0533.0532Zm-.1143.8359-.0015,0a.0161.0161,0,0,1-.012-.0075l-.0022-.0081.0022-.008a.0159.0159,0,0,1,.012-.0076l.0015,0a.0158.0158,0,0,1,0,.0316Zm-.1879-.4374a.1048.1048,0,0,1,.0209.0609.1059.1059,0,0,1-.0139.0528.114.114,0,0,1-.007-.1137ZM2.88,2.4331A.0794.0794,0,0,1,2.88,2.38a.0793.0793,0,0,1,.0464.0322.0822.0822,0,0,1,.009.0681A.0838.0838,0,0,1,2.88,2.4331Zm-.0243.0393a.0748.0748,0,0,1,.0523.0144.0714.0714,0,0,1,.0239.0326l.0012.0038.002.0145a.0871.0871,0,0,1-.0794-.0653Zm.1374.1088-.0112-.0219.0115.0009v.0215Zm.0731.0482a.0969.0969,0,0,1-.0112.0536.09.09,0,0,1-.02-.0552.0881.0881,0,0,1,.0133-.0465A.0966.0966,0,0,1,3.0665,2.6294ZM3.03,2.5459a.0158.0158,0,1,1-.0157.0157A.0158.0158,0,0,1,3.03,2.5459Zm.1554.4066A.0847.0847,0,0,1,3.16,2.8883a.0863.0863,0,0,1,.0381-.0642.0722.0722,0,0,1,.0167.0536.0681.0681,0,0,1-.0069.0178l-.0093.02A.3078.3078,0,0,0,3.1852,2.9525Zm.0679-.0293a.1021.1021,0,0,1-.0156.0551.0851.0851,0,0,1-.0275.0251.1209.1209,0,0,1-.0073-.0447.1349.1349,0,0,1,.0439-.0925A.1608.1608,0,0,1,3.2531,2.9232Zm-.0008-.0654L3.25,2.8521l-.0045.0039a.1657.1657,0,0,0-.0246.027l.0009-.0039a.0818.0818,0,0,0-.02-.0628L3.2,2.8135l-.0031.0018a.0967.0967,0,0,0-.0407.05V2.8362a.0237.0237,0,0,0,0-.0466V2.0353l.0386.0386v.001h.001l.011.0109.0109-.0109h.001v-.001L3.26,2.0326V2.89A.1759.1759,0,0,0,3.2523,2.8578Zm.0081.2127a.0158.0158,0,0,1,0-.0316l.0054.001a.0157.0157,0,0,1,0,.03Zm.0664-1.026-.0491-.0491V1.9305l.0491-.049Zm.245-.1406-.03.0176a.092.092,0,0,1-.0157-.0243A.0936.0936,0,0,1,3.5185,1.87l-.0007-.0063-.0062.001a.0843.0843,0,0,0-.0387.0173.0824.0824,0,0,0-.0239.0312.2668.2668,0,0,1-.0326-.0393.2723.2723,0,0,1-.0267-.05.1877.1877,0,0,1,.1039.0023.181.181,0,0,1,.05.027.3376.3376,0,0,0,.0391.0245l.0155.0073Zm.5291-.0446a.2134.2134,0,0,1-.0524-.0745v-.161h-.012v.1635a.4143.4143,0,0,0,.0485.1271.1429.1429,0,0,1-.0928-.0769l0-.2137H3.98l0,.2163.0006.0012.0035.0072-.0265.0508-.0265-.0508.0035-.0072L3.9355,1.84l0-.2163H3.924l0,.2137a.1429.1429,0,0,1-.0928.0769.412.412,0,0,0,.0483-.1265l0-.0006,0-.1636H3.867l0,.1612a.2139.2139,0,0,1-.0524.0744.2183.2183,0,0,1-.0938.05.234.234,0,0,0,.035-.0339.2729.2729,0,0,0,.0513-.1031.5078.5078,0,0,0,.0194-.1052.39.39,0,0,0-.0009-.1447A.2913.2913,0,0,0,3.81,1.4751c.0011-.0071-.0013-.0229.0081-.0311a.0279.0279,0,0,1,.02-.0049.0876.0876,0,0,1,.0571.0289.0642.0642,0,0,0-.0076-.0243A.0669.0669,0,0,0,3.8665,1.42l0-.01a.0469.0469,0,0,0,.0316.0046.0429.0429,0,0,0,.0191-.01A.0349.0349,0,0,0,3.93,1.3734a.03.03,0,0,0-.0137-.0176.1.1,0,0,1,.06-.0048.1465.1465,0,0,1,.0359.0167c.0139.0076.0329.0183.0553.0319a.1591.1591,0,0,0-.0659-.0559A.0982.0982,0,0,0,3.96,1.3351c-.0083,0-.0115.003-.0252.0043a.0821.0821,0,0,1-.0289-.0006.12.12,0,0,1-.0246-.0113.1993.1993,0,0,0-.03-.0109c-.018-.0046-.0465-.0062-.0546.0033l0-.0028,0-.0068a.0539.0539,0,0,1,.0094-.02c.0306-.04.1491-.0043.15-.0039l.0164.0054a.3958.3958,0,0,1,.0412.0177l.0068.0033c.0128.0062.0279.0121.058.0239l.0473.0178-.0187.0215.01.0023a.0451.0451,0,0,1,.02.01.0442.0442,0,0,1,.0136.0227l-.0286.0111.0079.0065a.0467.0467,0,0,1,.0129.0171.0478.0478,0,0,1,.0027.0271l-.0335-.0148.0012.01c.002.0175.0032.0351.0036.0523a.112.112,0,0,1-.0032.0392.073.073,0,0,1-.0128.0231l-.0043.006a.1319.1319,0,0,0-.012.0844.32.32,0,0,0,.0211.1127A.2992.2992,0,0,0,4.16,1.876a.2742.2742,0,0,0,.0248.0246v0h.0006l.0108.0091A.22.22,0,0,1,4.1009,1.8593Zm.3969.0143a.2732.2732,0,0,1-.0326.0393.0835.0835,0,0,0-.0239-.0312.0847.0847,0,0,0-.0387-.0173l-.0062-.001L4.3957,1.87a.0936.0936,0,0,1-.0075.0275.0949.0949,0,0,1-.0158.0243l-.03-.0176L4.316,1.8851l.0154-.0073a.34.34,0,0,0,.0392-.0245.18.18,0,0,1,.05-.027.1873.1873,0,0,1,.1038-.0023A.2719.2719,0,0,1,4.4978,1.8736Zm.1368,1.399L4.634,3.2682a.0413.0413,0,0,1,.002-.0161l0-.0011a.0707.0707,0,0,1,.012-.0211.1316.1316,0,0,1,.0442-.0346l.0018-.0018.07-.1352.012-.0233.0228-.0442.0236.0136.0024.0012-.0488.0926-.012.0228L4.72,3.2043l0,.0018c0,.0166,0,.0337,0,.051V3.26a.0516.0516,0,0,1-.0009.0165.0535.0535,0,0,1-.0256.03l-.01.0043a.0361.0361,0,0,1-.0148.0013L4.664,3.3116a.04.04,0,0,1-.0189-.0142h0A.0593.0593,0,0,1,4.6346,3.2726ZM4.6263,3.43l.0061.0039.0025.0017v.0076l-.0022.0037-.0018-.0018-.0031-.0029A.0628.0628,0,0,0,4.61,3.43l-.005-.0025.0033-.003.005-.0013.0064.0014.0022.0013Zm-.0258.114-.0024.0075c-.0036.0043-.012.0041-.0156.004l-.0034,0-.02-.0188c-.0221-.0212-.0276-.0272-.0266-.0319a.0172.0172,0,0,1,.0143-.01c.0042-.0005.01.001.0342.0234l.0205.02Zm.0273-.0225-.0055.0062-.0051.0007-.01.0019-.023-.0218c-.0221-.0212-.0275-.0272-.0266-.0319a.0169.0169,0,0,1,.0143-.0105c.0043,0,.01.0009.0343.0234l.0185.0183.0016.0069Zm.02-.022-.0075,0-.01,0-.0218-.0207c-.0222-.0212-.0276-.0272-.0267-.0319a.0174.0174,0,0,1,.0144-.01c.0042,0,.01.001.0342.0234L4.65,3.479l.0009.0087Zm-.006-.1056a.0693.0693,0,0,1,.0149.0246l-.0112.0055c-.0056.001-.01,0-.0213-.0053l-.0016-.0007L4.62,3.4167,4.614,3.4142,4.59,3.4052a.1181.1181,0,0,0-.029-.0076.1223.1223,0,0,1-.0272-.0007l-.006,0c-.0012.0015.0017.0056.0126.0206a.0685.0685,0,0,1,.011.0193l.001.01c-.0034.0031-.0139-.0082-.021-.0046l-.0059.0123-.0077.0213a.02.02,0,0,1-.0118.0062L4.5,3.4718c-.02-.03-.03-.0458-.0406-.0654a.7157.7157,0,0,0-.1255-.1637l.0034-.0434.0409.0176.0029-.0434.0171.0025.1228.1873.0036,0a.1814.1814,0,0,1,.0992.0144A.09.09,0,0,1,4.6416,3.3934ZM4.64,3.3643a.026.026,0,1,1,.026-.0259A.0259.0259,0,0,1,4.64,3.3643Zm.3521-.6938-.0772.16-.012.0248-.0145.03-.0025-.0016-.02-.0114L4.86,2.87l.043-.0868.012-.0242.05-.1016L4.9736,2.65l.0117.0011A.0149.0149,0,0,1,4.9917,2.6705Zm.0054-.0194-.008-.0073L4.98,2.6411l.0332-.055,0-.0013.0156-.0823.0432-.017.012.0443-.05.0542,0,.0008Zm.04-.0356-.0015.0029L5.0327,2.65l-.0281.0043.0357-.065.0516-.0555L5.0928,2.53l-.0117-.0432.0057.0009.0393.0559Z"/><path d="M4.25,3.5482a1.287,1.287,0,0,0,.1515.1711l-.1454.0646a2.504,2.504,0,0,1-.1343-.2149c-.0254-.0456-.05-.0926-.072-.14l-.03-.0624.0032.0691c.0008.0169.0024.0341.0047.0509a.7029.7029,0,0,0,.0649.2c.0213.0485.0446.097.0694.1446A.4683.4683,0,0,0,3.958,3.99a.4637.4637,0,0,0-.1952-.1565c.02-.0445.04-.09.06-.1346a.7313.7313,0,0,0,.0658-.193.5382.5382,0,0,0,.0061-.0683l.0018-.0742-.0287.0685a1.3578,1.3578,0,0,1-.2164.3539l-.132-.0642a1.2554,1.2554,0,0,0,.1179-.1273,1.2749,1.2749,0,0,0,.21-.3792l-.0245-.0147a1.2477,1.2477,0,0,1-.2071.3764,1.22,1.22,0,0,1-.13.1381L3.47,3.729l.1884.0916.007-.0082a1.3879,1.3879,0,0,0,.1283-.1754c.0229-.037.0441-.0753.0634-.1145a.8084.8084,0,0,1-.06.1655c-.0215.0492-.0436.0988-.0658.1474l-.0061.0135.0138.0053a.4337.4337,0,0,1,.2071.1682l.0116.0178L3.97,4.0226a.44.44,0,0,1,.2167-.17l.0151-.0054-.0075-.0142c-.0272-.0514-.0527-.1041-.0758-.1568a.8276.8276,0,0,1-.0574-.161c.0118.0228.024.0454.0364.0677a2.5273,2.5273,0,0,0,.1424.2268l.0066.0093.2053-.0911-.0158-.0144a1.2567,1.2567,0,0,1-.3412-.5213L4.07,3.2064A1.2885,1.2885,0,0,0,4.25,3.5482Z"/><polygon points="3.012 2.654 3.018 2.667 3.039 2.711 3.039 2.711 3.046 2.716 3.05 2.715 3.051 2.714 3.054 2.708 3.053 2.705 3.053 2.705 3.018 2.63 3.012 2.617 3.001 2.596 3 2.593 2.996 2.591 2.991 2.592 2.987 2.601 2.987 2.603 2.994 2.617 3 2.629 3.012 2.654" fill="#f5d402"/></svg>