<svg xmlns="http://www.w3.org/2000/svg" viewBox="0 0 7.9818 5.1882"><rect x="2.8758" y="0.3477" width="4.8199" height="4.4929" fill="#870e3f"/><path d="M6.3183,4.043l0-.0011A.1737.1737,0,0,0,6.3275,4.01l.0051-.0176a.3739.3739,0,0,0-.0128-.08l-.0067-.0216A.113.113,0,0,1,6.3075,3.87a.1552.1552,0,0,1,.0312-.1038A.3064.3064,0,0,1,6.39,3.7052a.113.113,0,0,0,.04-.0612c.0044-.0212-.0009-.03-.0034-.0323-.0041-.0043-.0091-.0047-.023-.0055L6.3853,3.605a.12.12,0,0,1-.0611-.0141.086.086,0,0,1-.0273-.0691.1212.1212,0,0,1,.0272-.0624.2278.2278,0,0,1,.0269-.0328,1.3146,1.3146,0,0,1-.1287-.0986.6465.6465,0,0,1-.0636-.0631.2188.2188,0,0,0-.0422-.0393.4292.4292,0,0,0-.2-.073.5029.5029,0,0,0-.07-.0047.3084.3084,0,0,0,.0039.0769.3447.3447,0,0,0,.0512.1253.9612.9612,0,0,0,.0958.1323.2352.2352,0,0,1,.0634.1125.9906.9906,0,0,1,.0057.1061c.0026.0813.0012.1677.0012.1686l-.0009.0029a.1244.1244,0,0,1-.0437.04.1223.1223,0,0,1-.0707.011.2649.2649,0,0,0-.0728.0039.1539.1539,0,0,0-.0787.0333.1321.1321,0,0,0-.043.0827.025.025,0,0,0,.005.0182c.0111.011.0438,0,.0578-.0049a.14.14,0,0,0,.0471-.0276l.0042-.0013.0038.0023a.0915.0915,0,0,0,.0607.0383.0959.0959,0,0,0,.0823-.0339l.0042-.002.0042.0022A.0862.0862,0,0,0,6.1688,4.03l.004-.0024.0044.0015a.1283.1283,0,0,0,.1379.0292A.0361.0361,0,0,1,6.3183,4.043Z" fill="#ffbf25"/><path d="M3.7214,2.9211l.01.0014a.2424.2424,0,0,1,.0434.0117l.0075.0028a.0526.0526,0,0,0,.04.0052.0342.0342,0,0,0,.022-.03.0283.0283,0,0,0-.0065-.0151.0476.0476,0,0,0-.0217-.0158l-.01-.0041a.6623.6623,0,0,0-.1467-.0431l-.0057-.0007-.0076.0014a.0307.0307,0,0,0-.0166.0208h0c-.0053.0214.0191.0444.0219.047A.0677.0677,0,0,0,3.7,2.9194Z" fill="#ffbf25"/><path d="M3.9214,2.9658c.0027-.0109.0016-.0175-.0007-.0192L3.918,2.9459a.06.06,0,0,0-.02.0082.0933.0933,0,0,0-.0268.0225l0,0c-.0135.0148-.0232.0255-.0229.04,0,.0031,0,.0126.0047.0153.0076.0044.0262-.01.0351-.0172a.0935.0935,0,0,0,.0191-.0181A.0919.0919,0,0,0,3.9214,2.9658Z" fill="#ffbf25"/><path d="M3.7715,3.0114a.1345.1345,0,0,0,.0376.0052c.0184-.0005.0235-.0049.0252-.0063a.0287.0287,0,0,0,.0082-.03c-.0032-.009-.0122-.0137-.0268-.02A.3589.3589,0,0,0,3.7306,2.93h0l-.0111-.0015L3.6956,2.927l-.0264.0012-.01.0035a.0267.0267,0,0,0-.0087.019.0414.0414,0,0,0,.0134.0342c.0061.0054.0118.0066.03.01l.0022,0,.07.0144Z" fill="#ffbf25"/><path d="M4.32,3.186a.7018.7018,0,0,0,.15.1595,1.0256,1.0256,0,0,0,.092.0573.2389.2389,0,0,0,.0584.0258.1689.1689,0,0,0,.0252.0043.0522.0522,0,0,1,.0221.0057L4.67,3.44a.624.624,0,0,1-.008-.3452l.0069.0018a.6186.6186,0,0,0,.0116.3527.1351.1351,0,0,1,.0208.0657l.0017.0108a.462.462,0,0,0,.0258.0985.2916.2916,0,0,1,.0208.0966.1681.1681,0,0,1-.0114.1009.147.147,0,0,1-.089.0657.4585.4585,0,0,1-.1054.0074l-.05.0006a.0791.0791,0,0,0-.0316.0027.1666.1666,0,0,0-.0841.0929.0809.0809,0,0,0-.0129.0642.0294.0294,0,0,0,.0167.0153.0711.0711,0,0,0,.0353-.0126.2966.2966,0,0,0,.034-.0223l.0074.0008a.1.1,0,0,0,.07.0351.1012.1012,0,0,0,.077-.0317l.0076,0a.1173.1173,0,0,0,.161-.0023l.0071,0a.12.12,0,0,0,.1219.0292.099.099,0,0,0,.0339-.0306.1369.1369,0,0,0,.0264-.08.1024.1024,0,0,0-.0026-.0229.2811.2811,0,0,1-.0057-.0448A.0748.0748,0,0,1,4.9607,3.84c.0089-.0145.0236-.02.0458-.0273l.0626-.0218.0118-.0041a.804.804,0,0,0,.069-.0741c.01-.0117.0221-.0249.0193-.0313-.0016-.004-.0091-.0057-.0187-.0076-.0239-.0046-.0393-.0067-.0517-.0084a.2015.2015,0,0,1-.0324-.006.0877.0877,0,0,1-.0545-.036.1059.1059,0,0,1,.0117-.0894.2688.2688,0,0,1,.031-.0542c.01-.0139.0205-.03.0349-.0551.008-.0139.0156-.0283.0226-.0426L5.1155,3.38h0a1.0385,1.0385,0,0,0,.0607-.1158.7473.7473,0,0,0,.07-.2451A.652.652,0,0,0,5.25,2.9447h.0072a.667.667,0,0,1-.0027.0747.7528.7528,0,0,1-.0711.2473,1.0447,1.0447,0,0,1-.0571.11,2.062,2.062,0,0,0,.2264-.078c.0621-.0256.1052-.047.1433-.0658a.7892.7892,0,0,1,.1809-.07.6.6,0,0,1,.2408-.02.44.44,0,0,1,.2054.075.2349.2349,0,0,1,.044.0408.6239.6239,0,0,0,.0626.0622,1.3869,1.3869,0,0,0,.1427.1082c.033.0227.0556.0369.0738.0484a.3975.3975,0,0,1,.0737.0548.2728.2728,0,0,1,.08.101c.0052.013.0053.0173.0063.07,0,.0237.0011.0562.0025.1038a.0924.0924,0,0,1-.0131.0643c-.0123.0158-.0278.0194-.0587.0268l-.0159.0038a.3777.3777,0,0,0-.132.0469.1217.1217,0,0,0-.0458.048l-.0049.0163a.1864.1864,0,0,1-.0093.0334l0,.0011c-.0023.0064-.0035.01-.0021.0128.003.0068.018.0093.0307.0087a.0834.0834,0,0,0,.058-.0349l.0044-.0021.0042.0023a.0854.0854,0,0,0,.0471.0325A.0874.0874,0,0,0,6.5282,4.06a.0991.0991,0,0,0,.04-.0306l.0038-.002.0041.0014a.1456.1456,0,0,0,.0357.0241.0943.0943,0,0,0,.0779.0107.0714.0714,0,0,0,.0343-.0345l.0035-.0028.0043.0008a.2348.2348,0,0,0,.1061.0421.0411.0411,0,0,0,.0339-.0068.04.04,0,0,0,.0069-.0315.0762.0762,0,0,0-.0226-.044.26.26,0,0,1-.025-.0344.18.18,0,0,1-.0294-.1.1488.1488,0,0,1,.02-.0687.134.134,0,0,1,.0455-.0459.3091.3091,0,0,0,.0572-.05c.0326-.0361.0333-.0512.031-.0594a.0467.0467,0,0,0-.021-.0238.0617.0617,0,0,0-.03-.0092.0833.0833,0,0,1-.0227-.0046.1.1,0,0,1-.0482-.0551.3567.3567,0,0,1-.034-.16.6838.6838,0,0,1,.0264-.1877.6167.6167,0,0,1,.0356-.0995c.0082-.0188.0176-.04.029-.0727a.6739.6739,0,0,0,.0487-.3619.579.579,0,0,0-.0461-.1366.5949.5949,0,0,0-.0816-.126L6.81,2.3877l.0027-.0038a.2867.2867,0,0,0,.1459-.2088A.2539.2539,0,0,0,6.915,2.01a.3746.3746,0,0,0-.292-.1278,1.6616,1.6616,0,0,0-.2741.0262.8554.8554,0,0,1-.1046.0054c-.0275,0-.0559.0005-.0836.003l-.0044,0A.15.15,0,0,1,6.06,1.902a.1641.1641,0,0,1-.068-.0841c-.0048-.012-.0071-.0173-.0132-.0192-.01-.0031-.0225.0062-.0452.0242a.298.298,0,0,0-.0493.0492L5.88,1.8742l-.0042-.0024c-.0433-.0624-.0368-.0961-.029-.1106.0055-.01.0127-.0151.0473-.0377l.0237-.0156.037-.0246a.1462.1462,0,0,0-.0534-.0278.1608.1608,0,0,0-.13.0243.1578.1578,0,0,0-.0439.0473l-.007.0021a.1213.1213,0,0,1-.071-.12.12.12,0,0,1,.0553-.0836.093.093,0,0,1,.077-.014.0953.0953,0,0,1,.0543.0543.0559.0559,0,0,0,.0291-.0116.0861.0861,0,0,0,.02-.0722c0-.0219,0-.0408.0126-.0487a.0594.0594,0,0,1,.0529.0074.2072.2072,0,0,1,.1116.1542.1933.1933,0,0,1-.05.1418.2124.2124,0,0,0,.1095-.0487.18.18,0,0,0,.0662-.11.1648.1648,0,0,0-.01-.0817c-.0048-.0141-.0082-.0244,0-.0294.0051-.0033.0132-.0023.0241.003a.1773.1773,0,0,1,.0892.1275A.1681.1681,0,0,1,6.2589,1.7c-.01.0164-.0173.0293-.0122.0353a.02.02,0,0,0,.0145.0048.1659.1659,0,0,0,.104-.0516A.1586.1586,0,0,0,6.4033,1.62l.0045-.0038.0054.0026a.2673.2673,0,0,0,.0748.0831.2039.2039,0,0,0,.1257.0461L6.6051,1.737a.2625.2625,0,0,1-.03-.0422c-.0092-.016-.04-.0781-.0235-.09.01-.0068.0233.0057.0629.0426l.0464.0426c.0489.044.0734.0661.0926.08.0687.0481.1951.0919.2609.0384a.1218.1218,0,0,0,.0343-.1345.0946.0946,0,0,0-.09-.0613.0754.0754,0,0,0-.06.0487.0664.0664,0,0,0,.0033.0418c.003.0092.0056.0171,0,.0225-.007.0071-.0215.0035-.0485-.012a1.3573,1.3573,0,0,1-.1377-.0979c-.0464-.0389-.0951-.0762-.1448-.1109a1.3638,1.3638,0,0,0-.2337-.1409.7646.7646,0,0,0-.4244-.0593.4691.4691,0,0,0-.3.1343.2847.2847,0,0,0-.0828.1922.2844.2844,0,0,0,.1014.206l.0008.0074a.1615.1615,0,0,0-.0348.1224.149.149,0,0,0,.0538.0918.0215.0215,0,0,0,.0152.0042c.0071-.0021.0088-.0151.0107-.03a.0939.0939,0,0,1,.023-.06c.038-.0353.1138-.0041.1807.0235l.0414.0166a.8851.8851,0,0,0,.4616.0028.6378.6378,0,0,1,.33-.0052.1623.1623,0,0,1,.0851.0693.1524.1524,0,0,1,.0087.119c-.0416.1154-.25.1369-.328.145a.5943.5943,0,0,1-.113.0014,1.1251,1.1251,0,0,0-.1594,0,.8867.8867,0,0,0-.0987.01.9559.9559,0,0,1-.1054.0111,3.014,3.014,0,0,1-.3139,0s-.029-.0011-.0737-.0048L5.5912,2.36a.2358.2358,0,0,1-.1-.0181.181.181,0,0,1-.0594-.1493.6388.6388,0,0,1-.102-.0848.6238.6238,0,0,1-.0509-.0591.0924.0924,0,0,0-.023.03.0934.0934,0,0,0-.01.04l-.0022.0033L5.24,2.1209l-.0732-.0682a.1489.1489,0,0,1-.006.0469.1513.1513,0,0,1-.0211.044l-.003.0015-.0029-.0016a.28.28,0,0,0-.031-.0407.2759.2759,0,0,0-.0415-.0371L5.0656,2.06a.29.29,0,0,1,.0426.038.3042.3042,0,0,1,.0288.0371.1452.1452,0,0,0,.0223-.0907l.002-.0036.004.0006.0741.0691a.099.099,0,0,1,.01-.0349.1009.1009,0,0,1,.0278-.0344L5.28,2.04l.0024.0014a.6255.6255,0,0,0,.1534.1453l.0039.0005c.0393.0214.0473.0164.0485.0152.0034-.0033-.0014-.0165-.0069-.0317-.004-.0113-.0091-.0253-.0136-.0419a.367.367,0,0,1-.0121-.081A.3723.3723,0,0,1,5.4,1.9953a.263.263,0,0,1-.0532-.0823.2253.2253,0,0,1-.0111-.0437.1.1,0,0,0-.0182-.0485.1106.1106,0,0,0-.0236-.0232.24.24,0,0,1,.0073.1184.22.22,0,0,1-.0107.0364l-.0028.0023-.0034-.0014c-.0086-.0114-.0179-.0226-.0275-.0332a.4866.4866,0,0,0-.0736-.066.1077.1077,0,0,1-.0151.0728.0966.0966,0,0,1-.0235.0247l-.003.0006L5.1387,1.95a.2445.2445,0,0,0-.0479-.07.1027.1027,0,0,1-.0015.0412.1053.1053,0,0,1-.0231.0445l-.0029.0012-.0027-.0014-.0428-.0561a.2154.2154,0,0,1,.0036.0481.2117.2117,0,0,1-.0073.0473l-.002.0023H5.009a.228.228,0,0,1-.0772-.064l-.0508.07-.0046.0011a.1884.1884,0,0,1-.0864-.1l.0067-.0025a.1815.1815,0,0,0,.08.0945l.0518-.0715.0029-.0015h0l.0029.0015a.22.22,0,0,0,.0365.0388.2167.2167,0,0,0,.0371.0249.2006.2006,0,0,0,.0059-.0414.2044.2044,0,0,0-.007-.0622l.0019-.0042.0044.0011.05.0657a.098.098,0,0,0,.0188-.0381.0968.0968,0,0,0-.0012-.05l.0016-.0041.0043.0005a.25.25,0,0,1,.0562.077.0908.0908,0,0,0,.0184-.02.1033.1033,0,0,0,.0126-.0761l.0015-.0037H5.18a.4977.4977,0,0,1,.0818.0721l.024.0285a.1971.1971,0,0,0,.008-.0292.2337.2337,0,0,0-.01-.1246l.0011-.004.0042,0a.1218.1218,0,0,1,.0341.0308.1057.1057,0,0,1,.0195.0515.2222.2222,0,0,0,.0108.0425.2549.2549,0,0,0,.0519.08.3644.3644,0,0,0,.0548.052h.0012l.03.001A2.2239,2.2239,0,0,0,5.494,1.722a.2265.2265,0,0,0-.01-.0388.1982.1982,0,0,0-.0419-.0674L5.441,1.6119l.0018-.0038a.299.299,0,0,0,.0868-.129.2907.2907,0,0,0,.015-.0807.1962.1962,0,0,1-.0783.06.1105.1105,0,0,1-.07.01.0977.0977,0,0,1-.0438-.0265l-.005-.0045c-.048-.0424-.117-.0791-.139-.0641l-.0059.0118-.01.0276a.5145.5145,0,0,1-.0253.0542L5.1627,1.47l-.0048-.0022a.28.28,0,0,0-.08-.0726c-.027-.0163-.0678-.0409-.0893-.0275-.0136.0084-.0146.03-.0155.05s-.0019.0419-.0174.0495-.0339-.005-.0546-.02a.3139.3139,0,0,0-.0354-.0231.2459.2459,0,0,0-.1844-.0065.0838.0838,0,0,1,.0156.05.1069.1069,0,0,1-.07.0859.093.093,0,0,1-.0486.0063.2377.2377,0,0,0-.0617.0029.2126.2126,0,0,0-.0392.01.4122.4122,0,0,1-.04.0118A.5652.5652,0,0,1,4.3221,1.6l-.0045-.0022-.0008-.0049A.0917.0917,0,0,0,4.31,1.5148a.0969.0969,0,0,0-.1175-.0243.1014.1014,0,0,0-.0542.0609.1358.1358,0,0,0,.0071.0643.3881.3881,0,0,0,.0271.0836.2444.2444,0,0,0,.0467.0622l.04.0453.035.0409a.3889.3889,0,0,0,.0459.049.4672.4672,0,0,0,.064.0469L4.3977,1.868l.0028-.0052.0059.0006.0757.0612.0258-.0592.0048-.0032.005.003a.5965.5965,0,0,0,.1171.1609l.0013.0053c.0333.0408.0609.0879.0455.107a.04.04,0,0,1-.0225.0109L4.6516,2.15a.0615.0615,0,0,1-.0227-.0055l-.0175-.0056a.0662.0662,0,0,0-.0243-.001l-.0186.0011a.3716.3716,0,0,1-.0729-.0052l-.0027-.002,0-.0033.0316-.0523c-.037-.0026-.074-.0065-.11-.0116a.8985.8985,0,0,1-.1438-.0287c-.02-.0059-.0394-.0127-.0586-.02l-.02.0109-.0563.1667.1492-.0158.005.0023,0,.0055L4.2575,2.25a.307.307,0,0,0,.0582-.0165l.025-.011a.05.05,0,0,1,.0315-.0078.0688.0688,0,0,1,.0431.035c.007.01.0129.019.0194.0186.0045,0,.0163-.0065.0291-.0562l.0046-.004.0054.003a.4093.4093,0,0,0,.0309.0518.4021.4021,0,0,0,.041.0492.2161.2161,0,0,1,.0271-.036c.0185-.02.0319-.0342.0484-.0315a.0486.0486,0,0,1,.0325.0484c-.0007.0306-.0313.0507-.061.07l-.0053.0035c-.0321.0211-.0629.0456-.0926.0693-.0162.013-.033.0263-.05.039a.5644.5644,0,0,0-.1588.1881.5436.5436,0,0,0-.0571.2151.5492.5492,0,0,0,.0153.1615A.7013.7013,0,0,0,4.32,3.186ZM5.4721,1.8371l-.0038.0061a.2038.2038,0,0,1-.0389-.0316.1994.1994,0,0,1-.03-.0414l.0062-.0034a.1934.1934,0,0,0,.0668.07Zm-.8-.1046a.0608.0608,0,0,1-.0066-.0546.0689.0689,0,0,1,.0429-.0429c.0248-.0082.0478.0027.0826.0193l.0365.0174a.3367.3367,0,0,0,.1624.0538l.02-.0022a.2071.2071,0,0,1-.0231-.028.2124.2124,0,0,1-.0231-.0437l.0013-.0042H4.97a.1853.1853,0,0,0,.0539.03.3079.3079,0,0,0,.1014.01.8234.8234,0,0,0,.0883-.0066.2783.2783,0,0,0-.022-.0286.2709.2709,0,0,0-.0486-.0433l-.0014-.0039.0032-.0026c.0342-.002.0684-.0057.1018-.0107a.48.48,0,0,0,.1162-.0293.2643.2643,0,0,0,.06-.04l.0047.0054a.2763.2763,0,0,1-.0617.0408.4856.4856,0,0,1-.1183.03c-.03.0046-.0613.008-.0924.01a.2735.2735,0,0,1,.0418.0386.2766.2766,0,0,1,.0257.0341l0,.0035-.0028.002a.8389.8389,0,0,1-.0947.0075.2775.2775,0,0,1-.1039-.01.1907.1907,0,0,1-.0452-.0235.2.2,0,0,0,.0441.0617l.001.0036-.0027.0025a.1788.1788,0,0,1-.0281.0037.3467.3467,0,0,1-.1658-.0545l-.0364-.0175c-.0373-.0177-.0562-.0259-.0773-.0189a.0614.0614,0,0,0-.0384.0383.0539.0539,0,0,0,.0054.048.0508.0508,0,0,0,.0358.018.0434.0434,0,0,0,.033-.01.0377.0377,0,0,0,.0109-.0369.0387.0387,0,0,0-.02-.0229L4.7413,1.67a.0461.0461,0,0,1,.0233.0273.0454.0454,0,0,1-.0129.0442.0492.0492,0,0,1-.0336.0121l-.0048,0A.0578.0578,0,0,1,4.6724,1.7325ZM4.57,2.5047a.1417.1417,0,0,0,.028-.0315.1622.1622,0,0,0,.0155-.0322l.0081-.02c.0067-.0158.0144-.0315.0228-.0469l.0063.0034c-.0083.0152-.0159.0308-.0225.0463l-.008.02a.1717.1717,0,0,1-.0162.0334.1438.1438,0,0,1-.02.0247l.0389-.0086a.582.582,0,0,0,.0629-.02l.0044.0017a.2048.2048,0,0,1,.02.13.246.246,0,0,0,.05-.0313.1564.1564,0,0,0,.0468-.0526.13.13,0,0,0,.0139-.0581L4.8236,2.46l.004.0019a.2609.2609,0,0,1,.0194.0532.2645.2645,0,0,1,.0073.0567.2572.2572,0,0,0,.033-.033.2539.2539,0,0,0,.0471-.0871l.0029-.0025.0035.0015.0287.0431c.01.0152.0192.0309.0283.0466a.2592.2592,0,0,0,.0262-.0484l.0094-.0266A.3334.3334,0,0,1,5.048,2.426a.3215.3215,0,0,1,.0181-.035L5.07,2.3893l.003.0024a.687.687,0,0,0,.0357.0867l.005.01a.2576.2576,0,0,1,.0263.0684.2283.2283,0,0,1,.0046.0339A.5127.5127,0,0,0,5.25,2.5026l.0045-.0006a.3784.3784,0,0,0,.0923.04.3823.3823,0,0,0,.0673.0127l.0045-.068.0024-.0441L5.4227,2.44l.003-.0006a.24.24,0,0,0,.1313-.0056A.1668.1668,0,0,1,5.5153,2.4L5.5,2.38a.0712.0712,0,0,0-.02-.0224.08.08,0,0,0-.0381-.0127l-.007-.0011h0a.3481.3481,0,0,1-.1183-.047.2492.2492,0,0,1-.0626-.0578l-.0216.0584L5.23,2.3H5.2275A.3721.3721,0,0,1,5.16,2.257l-.0011.0243c0,.0114,0,.02,0,.0277a.143.143,0,0,1-.0027.0375.1228.1228,0,0,1-.0138.0341l-.003.0018h0l-.003-.0015a.2887.2887,0,0,0-.0884-.0823.2818.2818,0,0,0-.0439-.0212.24.24,0,0,1-.0072.0521.2377.2377,0,0,1-.0145.0418l-.0034.0021L4.976,2.3712a.3452.3452,0,0,0-.0416-.0744.3411.3411,0,0,0-.0338-.0391.2045.2045,0,0,1-.0506.063.2.2,0,0,1-.0374.0246l-.0038,0-.0013-.0036a.1448.1448,0,0,0,.0009-.0533.1482.1482,0,0,0-.0114-.0368.2254.2254,0,0,1-.0325.0528.2207.2207,0,0,1-.0346.0337l-.0037,0-.002-.0031a.2933.2933,0,0,0-.0213-.0964L4.71,2.236a.2955.2955,0,0,1,.0213.0918A.2209.2209,0,0,0,4.759,2.3a.2151.2151,0,0,0,.0343-.0581l.0032-.0023L4.8,2.241a.1511.1511,0,0,1,.0156.0459.15.15,0,0,1,0,.0486.2013.2013,0,0,0,.03-.02.1964.1964,0,0,0,.051-.0651l.0026-.002.0031.001a.3557.3557,0,0,1,.038.0434.3473.3473,0,0,1,.0393.0682A.2388.2388,0,0,0,4.99,2.3278a.2359.2359,0,0,0,.007-.0556l.0016-.0029.0032,0a.292.292,0,0,1,.05.0236.2957.2957,0,0,1,.0873.08.1122.1122,0,0,0,.01-.0273.1375.1375,0,0,0,.0025-.0358c0-.0077,0-.0165,0-.028l.0015-.03L5.15,2.2487A.3629.3629,0,0,1,5.0955,2.19l-.0317.0472L5.06,2.2388,5.0573,2.236a.1724.1724,0,0,0-.08-.1114.2022.2022,0,0,1-.0227.0376.1985.1985,0,0,1-.0243.0267l-.0047,0A.3989.3989,0,0,1,4.88,2.1457a.3932.3932,0,0,1-.0338-.0433l.006-.004a.3881.3881,0,0,0,.0756.0832.1983.1983,0,0,0,.0212-.0237.202.202,0,0,0,.0235-.04l.0021-.0019.0029,0a.1809.1809,0,0,1,.0585.0536.1784.1784,0,0,1,.0261.0565l.03-.0446L5.0953,2.18l.003.0015a.3561.3561,0,0,0,.1288.1094L5.25,2.23l.0029-.0023.0034.0014a.2415.2415,0,0,0,.0647.0612.3459.3459,0,0,0,.1156.0461l.0069.001a.0872.0872,0,0,1,.0411.0139.0808.0808,0,0,1,.0221.0243l.0144.0193a.1605.1605,0,0,0,.0467.0361l.0019.0034L5.567,2.438a.2475.2475,0,0,1-.1388.0094l-.0021.04-.0048.0716L5.42,2.5615l-.0026.0008A.3824.3824,0,0,1,5.2536,2.51a.5168.5168,0,0,1-.111.09H5.1391l-.0019-.003a.22.22,0,0,0-.0047-.0388.2516.2516,0,0,0-.0257-.0667l-.0051-.01a.6861.6861,0,0,1-.0334-.08l-.0138.0274a.3585.3585,0,0,0-.0143.0384l-.0095.0272A.2681.2681,0,0,1,5,2.5489L4.9973,2.55l-.0029-.0018c-.01-.0172-.02-.0345-.0309-.0512L4.939,2.4605a.2608.2608,0,0,1-.0861.1214l-.0038,0-.002-.0033a.2513.2513,0,0,0-.02-.1013.1353.1353,0,0,1-.0138.0469.1617.1617,0,0,1-.0487.0548.2516.2516,0,0,1-.0581.0352l-.0014,0-.0023-.0008-.0012-.0036a.1991.1991,0,0,0-.0162-.13A.5922.5922,0,0,1,4.6248,2.5c-.017.0043-.0344.008-.0517.0108l-.0038-.0021Z" fill="#ffbf25"/><path d="M6.3828,3.939a.3916.3916,0,0,1,.1355-.0485l.0159-.0038c.03-.0071.0428-.01.0527-.0229a.083.083,0,0,0,.0108-.0571c-.0013-.0479-.002-.08-.0024-.1042-.0011-.052-.0011-.0551-.0056-.0662a.2661.2661,0,0,0-.0774-.0972A.388.388,0,0,0,6.44,3.4856c-.0183-.0115-.041-.0258-.0741-.0486L6.36,3.4328a.2216.2216,0,0,0-.027.0326.1126.1126,0,0,0-.0254.057.0765.0765,0,0,0,.0229.06.115.115,0,0,0,.0558.0121l.0174.0012c.0143.0008.023.0012.03.0089a.0448.0448,0,0,1,.0061.0417.1231.1231,0,0,1-.043.0668.3.3,0,0,0-.0492.0586.144.144,0,0,0-.03.0966l.0052.02L6.33,3.91a.3841.3841,0,0,1,.0121.0661A.1493.1493,0,0,1,6.3828,3.939Z" fill="#870e3f"/><path d="M3.8987,3.0694c.0186-.02.0347-.0382.03-.0474l-.0064-.0051-.006-.0011c-.0082,0-.0219.0051-.0429.0271-.0089.0094-.0275.0289-.0217.0417a.0185.0185,0,0,0,.0141.01C3.8689,3.0945,3.8753,3.0952,3.8987,3.0694Z" fill="#ffbf25"/><path d="M3.7356,3.0925a.2117.2117,0,0,1-.0351-.0119c.0026.0343-.0009.0507-.0113.0544-.0056.002-.01-.0009-.0148-.004L3.66,3.1233A.0554.0554,0,0,0,3.6188,3.12a.04.04,0,0,0-.0236.0368.0457.0457,0,0,0,.0284.035.0843.0843,0,0,0,.05.0062c.0112-.0012.0208-.0022.0249.0054.0052.01-.0054.0206-.0189.0343-.0152.0155-.0341.0347-.0307.0528.0014.007.0054.01.0114.0146a.0649.0649,0,0,1,.0225.0261.1154.1154,0,0,1-.0044.0911c-.0071.018-.0151.0384-.0312.04-.0116.0013-.019-.0081-.0262-.0171s-.013-.0163-.0222-.0169c-.0154-.001-.0346.0184-.0382.0385-.0058.0326.0314.0589.0318.0592a.1053.1053,0,0,0,.0487.0157c.0132.0017.0236.003.026.0125s-.0042.0148-.03.0366L3.6026,3.62l.0189.0011c.0512.0035.0575.0075.0625.0107a.0325.0325,0,0,1,.0136.019.2515.2515,0,0,0,.0133.0277c.0141.0252.0243.0435.0348.0438h0c.0136,0,.029-.0261.0357-.0448a.0881.0881,0,0,0,.0047-.02.03.03,0,0,1,.0082-.02c.0085-.0087.0184-.01.0362-.0111l.0207-.0021.0346-.0055c-.0116-.0089-.023-.0184-.034-.0281-.0265-.0236-.03-.03-.027-.037s.01-.0068.0193-.0069a.1023.1023,0,0,0,.0278-.0029.0883.0883,0,0,0,.0488-.0353.0583.0583,0,0,0,.01-.0564A.0408.0408,0,0,0,3.8916,3.43a.0345.0345,0,0,0-.021.0173c-.0058.0082-.0118.0166-.0229.0168h0c-.022,0-.0383-.0337-.0435-.0551a.11.11,0,0,1,.0028-.0566A.1162.1162,0,0,1,3.8309,3.31c.0076-.0094.0126-.0155.0116-.0252,0-.0047-.0018-.0063-.0076-.0133a.3266.3266,0,0,1-.0212-.0283c-.0184-.0273-.03-.0437-.0222-.0529.0053-.0066.0141-.0031.0243.0008a.0723.0723,0,0,0,.0457.0063c.018-.0049.0374-.0222.0354-.0371-.0013-.01-.0139-.0189-.0253-.0235a.053.053,0,0,0-.0267-.0028.0644.0644,0,0,1-.0285-.0024.0724.0724,0,0,1-.0356-.0288h0A.3267.3267,0,0,1,3.7356,3.0925Z" fill="#ffbf25"/><path d="M3.9234,2.7917,3.92,2.7908A.0567.0567,0,0,0,3.9,2.7992a.0861.0861,0,0,0-.0354.03c-.01.0155-.018.0376-.0132.0419.0016.0014.0064.002.0149-.0008a.0949.0949,0,0,0,.059-.0595C3.9278,2.7967,3.9248,2.7928,3.9234,2.7917Z" fill="#ffbf25"/><path d="M3.9055,2.9183a.0935.0935,0,0,0,.0137-.0619l-.0014-.0027a.0915.0915,0,0,0-.0173.0127.1961.1961,0,0,0-.0294.0276c-.0244.0308-.0244.0453-.02.052a.02.02,0,0,0,.0164.0081h0c.0163,0,.03-.0233.0373-.0344Z" fill="#ffbf25"/><path d="M3.7679,2.7631H3.7554l-.041,0a.2816.2816,0,0,1,.0285.0044.2714.2714,0,0,1,.0561.022c.0422.0195.05.03.0513.0383a.0323.0323,0,0,1,0,.0131l.0082-.0152a.0941.0941,0,0,1,.038-.0325c.011-.006.0235-.0128.0316-.0069.0056.0041.007.013.0041.0264A.0786.0786,0,0,1,3.91,2.85c.0063-.0043.0085-.0041.01-.0033l.0058.0073a.1.1,0,0,1-.0144.0677l-.0009.0015a.1375.1375,0,0,1-.0195.0262l.0031-.0019c.0114-.0061.0232-.0124.0307-.0068.0054.004.0066.0135.0034.0266a.1.1,0,0,1-.0161.0339l-.009.01A.0284.0284,0,0,1,3.9251,3.01a.0184.0184,0,0,1,.01.0085c.0068.0136-.0091.0311-.0312.0554L3.8991,3.08a.1007.1007,0,0,1,.0437.04.1371.1371,0,0,1,.01.0688v0c.0011.0916.0014.1134.0148.1323a.0813.0813,0,0,0,.0271.0236.0539.0539,0,0,1,.02-.0356.0454.0454,0,0,1,.0139-.0064c.0228-.0059.0518.0223.0884.0579.0149.0145.03.0294.0463.0431.05.0421.0743.0633.11.0644a.2166.2166,0,0,0,.1324-.0692.4064.4064,0,0,0,.05-.05.7089.7089,0,0,1-.219-.2972l-.0007-.0006c-.0169-.0192-.0346-.0384-.0524-.0572-.04-.0416-.0691-.069-.1031-.1008-.0224-.0208-.0478-.0444-.0788-.0748-.0254-.0249-.051-.0507-.0761-.0769A.3263.3263,0,0,1,3.7679,2.7631Z" fill="#ffbf25"/><path d="M3.7375,2.8418l.0428.0113c.03.0082.0417.0116.0517.0037a.0309.0309,0,0,0,.0113-.0279c-.0008-.0037-.0026-.0125-.0473-.0332a.2644.2644,0,0,0-.0546-.0215.2335.2335,0,0,0-.047-.0053c-.0192,0-.0368.0035-.0422.0144s.004.027.0051.0287c.0086.0137.0215.0166.0527.0235Z" fill="#ffbf25"/><path d="M3.7944,3.0276A.26.26,0,0,0,3.7087,3.01c-.0177,0-.0315.0036-.036.0125-.0026.0053-.0032.0152.0087.0332s.0279.0223.0561.03c.0318.0088.0713.02.0939,0a.0271.0271,0,0,0,.0118-.0208C3.8424,3.0466,3.81,3.0338,3.7944,3.0276Z" fill="#ffbf25"/><path d="M3.6046,2.7392a.4247.4247,0,0,0,.1509.0132A.3291.3291,0,0,0,3.9248,2.73a.1392.1392,0,0,0,.0509-.0439.1016.1016,0,0,0,.0206-.0673.09.09,0,0,0-.0177-.0455.0857.0857,0,0,0-.0354-.027A.0906.0906,0,0,0,3.9053,2.54a.0616.0616,0,0,0-.03.0073.06.06,0,0,0-.0253.04.0423.0423,0,0,0,0,.0242.03.03,0,0,0,.0127.0149c.0044.0032.009.0065.0091.0125.0006.0232-.0743.0364-.1106.0392a.2039.2039,0,0,1-.0875-.0144c-.0113-.0048-.0189-.01-.0218-.0182a.0292.0292,0,0,1,.0074-.0264.0567.0567,0,0,0,.0115-.0274.0485.0485,0,0,0-.0129-.0377.0571.0571,0,0,0-.0428-.0134h-.002a.0982.0982,0,0,0-.0976.1C3.5171,2.6676,3.5338,2.7064,3.6046,2.7392Z" fill="#ffbf25"/><path d="M4.2146,2.0089c.019.0074.0385.0141.0581.02a.8927.8927,0,0,0,.1428.0285c.0379.0053.0768.0093.1155.0119l.0029.002v.0035l-.0318.0527a.3581.3581,0,0,0,.0663.0042l.0182-.0011a.0767.0767,0,0,1,.0265.0012l.0185.0059a.0453.0453,0,0,0,.0264.0045.0321.0321,0,0,0,.0181-.0083c.01-.0129-.0084-.0528-.0461-.0987a1.1017,1.1017,0,0,1-.3731-.1035c-.0067-.0044-.0657-.0427-.0937-.0276a.0273.0273,0,0,0-.0124.0123.0443.0443,0,0,0,.0065.0371.1231.1231,0,0,0,.0549.0526Z" fill="#ffbf25"/><path d="M3.6815,2.593a.0668.0668,0,0,1-.0132.0323c-.0052.0079-.0079.0123-.0063.0171s.0058.0074.0158.0117a.1942.1942,0,0,0,.0826.0136A.1729.1729,0,0,0,3.8611,2.64l-.0047-.004a.041.041,0,0,1-.0165-.02.053.053,0,0,1,0-.03.0693.0693,0,0,1,.03-.0474h0c.006-.2146.0129-.4386.0213-.6848a3.51,3.51,0,0,1,.0286-.37,1.4608,1.4608,0,0,1,.053-.2907l.0033-.0077c.0081-.0187.0269-.0625.0184-.0692-.0031-.0024-.0158-.0035-.0671.0378a.6558.6558,0,0,0-.1905.2664.9282.9282,0,0,0-.0546.1935,5.9587,5.9587,0,0,0-.0294.9246l.0123.0092A.0592.0592,0,0,1,3.6815,2.593Z" fill="#ffbf25"/><path d="M3.6,2.749a.222.222,0,0,0,.0835.0131.0435.0435,0,0,0-.0378.0181.0408.0408,0,0,0,.0054.0356.0387.0387,0,0,0,.0117.0121L3.66,2.8274a.0308.0308,0,0,0-.0171.0011.0374.0374,0,0,0-.0211.0257h0c-.0061.025.019.0494.0241.0541a.0633.0633,0,0,0,.0207.013l-.0121.0046a.034.034,0,0,0-.0116.024.0488.0488,0,0,0,.0159.04c.0075.0067.0141.008.0338.012l.0021.0005.003.0006a.0372.0372,0,0,0-.0317.0157c-.0051.01-.002.0236.0092.04a.054.054,0,0,0,.0137.0144c.0044.0477-.0033.051-.0036.0511L3.68,3.122l-.0159-.0086a.065.065,0,0,0-.05-.0036.05.05,0,0,0-.03.0474.0561.0561,0,0,0,.0343.0438.0941.0941,0,0,0,.0556.0074.0378.0378,0,0,1,.0143,0c.0015.0028-.0106.0151-.0171.0217-.0169.0173-.038.0387-.0335.0623a.0326.0326,0,0,0,.0155.0211.0557.0557,0,0,1,.0192.0222.105.105,0,0,1-.0046.0826c-.0057.0144-.0128.0323-.0225.0333-.0053.0006-.01-.0045-.0166-.0131a.0436.0436,0,0,0-.03-.0209.0562.0562,0,0,0-.05.0474c-.007.0392.0345.0685.0362.07a.1133.1133,0,0,0,.0535.0175l.0169.0044c.0007.0029-.018.0191-.026.026-.015.0129-.03.0255-.0455.0374l-.0018.0059.0049.0037.033.0018c.0484.0033.0541.0069.0575.009.005.0032.0061.006.0094.014a.2341.2341,0,0,0,.0138.0289c.0164.0294.0272.0488.0439.0493H3.746c.0215,0,.0394-.0338.0458-.0519A.0933.0933,0,0,0,3.797,3.658a.02.02,0,0,1,.0053-.014c.0057-.0058.0132-.0065.03-.0079l.021-.0021A.4635.4635,0,0,0,3.9,3.6258l.004-.0041-.002-.0054c-.0146-.0108-.0289-.0225-.0426-.0346a.115.115,0,0,1-.0239-.0247l.0091,0a.1119.1119,0,0,0,.03-.0033.0984.0984,0,0,0,.0551-.04.0649.0649,0,0,0,.01-.0673.0514.0514,0,0,0-.05-.0269.0444.0444,0,0,0-.0278.0217c-.0054.0075-.009.0122-.0143.0123h0c-.0128,0-.0276-.0247-.033-.047a.0963.0963,0,0,1,.0026-.0508.1054.1054,0,0,1,.0222-.0387.0424.0424,0,0,0,.0139-.0332.032.032,0,0,0-.01-.019.3176.3176,0,0,1-.0205-.0274.1489.1489,0,0,1-.0227-.04h0l.012.0038a.0828.0828,0,0,0,.0524.0067c.0227-.0062.0461-.0278.0433-.0489-.0025-.0188-.0251-.0293-.032-.032a.0618.0618,0,0,0-.0315-.0036A.0558.0558,0,0,1,3.82,3.1213a.0585.0585,0,0,1-.0246-.0175h.0013a.0581.0581,0,0,0,.04-.0128l.0078-.0083.0014.0049a.025.025,0,0,0,.02.0137h.0021c.0048,0,.0113-.0022.0238-.0139a.0918.0918,0,0,1,.0423.037.1288.1288,0,0,1,.0092.0637v0c.0011.0944.0014.1168.0168.1385a.0942.0942,0,0,0,.0379.03l.005,0,.0026-.0042a.0478.0478,0,0,1,.0168-.0354l.01-.0048c.0171-.0044.0468.0246.0783.0552.015.0146.03.03.0468.0436.05.0424.0772.0657.1167.0669a.2232.2232,0,0,0,.14-.0717.4238.4238,0,0,0,.0512-.0517,1.0213,1.0213,0,0,0,.0919.0571.2444.2444,0,0,0,.061.0268.1694.1694,0,0,0,.0266.0045.0435.0435,0,0,1,.0181.0045c.02.0108.0237.0377.0284.0688l.0017.0109a.4713.4713,0,0,0,.0263.1005.285.285,0,0,1,.02.0936.1559.1559,0,0,1-.01.0949.137.137,0,0,1-.0829.0608.4774.4774,0,0,1-.1023.0069l-.05.0005a.09.09,0,0,0-.0352.0034.1751.1751,0,0,0-.09.0981.0883.0883,0,0,0-.0129.0739.04.04,0,0,0,.0234.0209c.0064.0017.0165.0014.0435-.0136a.2963.2963,0,0,0,.0312-.02.1079.1079,0,0,0,.1562.0037.1275.1275,0,0,0,.1683-.0027.1528.1528,0,0,0,.0916.0361A.0863.0863,0,0,0,4.908,4.076a.1088.1088,0,0,0,.0377-.0338.1477.1477,0,0,0,.0285-.0868.11.11,0,0,0-.0028-.025.2831.2831,0,0,1-.0055-.0434c-.0018-.0267,0-.0342.004-.041.0066-.0107.0171-.0147.04-.0228l.0626-.0217.0135-.0049A.6448.6448,0,0,0,5.1579,3.72c.0143-.016.0266-.03.0212-.0426-.004-.01-.0154-.0118-.0266-.0139-.0241-.0048-.04-.0068-.0523-.0085A.1856.1856,0,0,1,5.07,3.65a.0786.0786,0,0,1-.0482-.0309c-.0121-.0223,0-.05.0122-.08a.2614.2614,0,0,1,.03-.0522c.0092-.0134.0207-.03.0354-.0558l.0218-.0411a2.0723,2.0723,0,0,0,.2358-.0808c.0624-.0257.1057-.0472.1439-.0661a.7883.7883,0,0,1,.1788-.07.6862.6862,0,0,1,.1565-.0247.3225.3225,0,0,0,.0041.0786.3625.3625,0,0,0,.0526.129.9694.9694,0,0,0,.0968.1336.2274.2274,0,0,1,.0611.1079,1.0269,1.0269,0,0,1,.0055.1041c.0023.0749.0014.1542.0012.1665a.1026.1026,0,0,1-.104.0448.2831.2831,0,0,0-.0756.0041.1655.1655,0,0,0-.0837.0359.142.142,0,0,0-.0466.09.0351.0351,0,0,0,.0082.0261c.0158.0157.05.004.0688-.0023a.1483.1483,0,0,0,.0463-.026.1016.1016,0,0,0,.0647.0381.1046.1046,0,0,0,.0877-.0329.1006.1006,0,0,0,.0737.0343h.0043a.1006.1006,0,0,0,.0733-.0391.1393.1393,0,0,0,.1452.0272.053.053,0,0,0,.0381.0107.09.09,0,0,0,.0617-.0338.0958.0958,0,0,0,.0489.0312A.0992.0992,0,0,0,6.5324,4.07a.11.11,0,0,0,.04-.0295.1525.1525,0,0,0,.0341.0222.1049.1049,0,0,0,.0868.0109A.0809.0809,0,0,0,6.73,4.04a.2374.2374,0,0,0,.1063.0407.05.05,0,0,0,.0425-.01.05.05,0,0,0,.01-.04.0858.0858,0,0,0-.025-.05.2563.2563,0,0,1-.0241-.033.1708.1708,0,0,1-.0279-.0937A.1378.1378,0,0,1,6.831,3.79a.1231.1231,0,0,1,.0424-.0425.3259.3259,0,0,0,.059-.0515c.0355-.0393.0368-.0572.0334-.07a.0561.0561,0,0,0-.0256-.03.07.07,0,0,0-.0347-.0108.0809.0809,0,0,1-.02-.0041.09.09,0,0,1-.0424-.05A.3455.3455,0,0,1,6.81,3.3764a.6733.6733,0,0,1,.0261-.1847.5981.5981,0,0,1,.035-.0981c.0083-.019.0178-.0406.0293-.0735A.6833.6833,0,0,0,6.95,2.6526a.59.59,0,0,0-.047-.1391.605.605,0,0,0-.079-.1234.2948.2948,0,0,0,.1457-.214.2641.2641,0,0,0-.0457-.1719.3835.3835,0,0,0-.3-.1324,1.6573,1.6573,0,0,0-.2763.0263.8509.8509,0,0,1-.1033.0052c-.0277,0-.0563.0006-.0845.0031l-.0044,0a.1392.1392,0,0,1-.09-.014.1713.1713,0,0,1-.0472-.0461.1668.1668,0,0,1-.0163-.0328c-.0049-.0123-.0088-.022-.02-.0255-.0159-.0048-.0315.0074-.055.026A.3113.3113,0,0,0,5.88,1.86c-.037-.0559-.0295-.0839-.0243-.0935.0041-.0078.01-.0117.0437-.0338l.0237-.0156.043-.0287.0024-.0041L5.9668,1.68a.1588.1588,0,0,0-.063-.0345.1721.1721,0,0,0-.1394.0258.1682.1682,0,0,0-.0442.0463A.11.11,0,0,1,5.6594,1.61a.1084.1084,0,0,1,.05-.0758.0821.0821,0,0,1,.068-.0128.0875.0875,0,0,1,.0492.0518l.0053.0033a.0688.0688,0,0,0,.0388-.0143.0955.0955,0,0,0,.0243-.0807c0-.0179,0-.0347.0074-.04.0058-.0035.02-.0033.0425.0079a.1962.1962,0,0,1,.1057.1456.1879.1879,0,0,1-.057.1438l-.001.006.0052.0031a.2236.2236,0,0,0,.13-.0526.1917.1917,0,0,0,.07-.1167.1752.1752,0,0,0-.0109-.0867l-.0045-.0171a.028.028,0,0,1,.0159.0051.1667.1667,0,0,1,.0807.1175.159.159,0,0,1-.0293.0961c-.0119.02-.0212.036-.0112.0477a.0292.0292,0,0,0,.0224.0087.1747.1747,0,0,0,.1121-.055A.1688.1688,0,0,0,6.41,1.6346a.2748.2748,0,0,0,.0717.0762.2288.2288,0,0,0,.132.0485l.01-.0061c.0039-.0069-.0016-.0134-.01-.0232a.2455.2455,0,0,1-.0293-.0406.1635.1635,0,0,1-.0268-.075.25.25,0,0,1,.05.0414l.0465.0427c.0492.0443.0739.0665.0936.08.0666.0466.2.0982.2739.0379A.133.133,0,0,0,7.0581,1.67a.1054.1054,0,0,0-.1012-.0677.0856.0856,0,0,0-.0689.0563.0777.0777,0,0,0,.0034.0483l.0027.0116s-.0052.0038-.0368-.0145a1.4,1.4,0,0,1-.135-.0963c-.0465-.0389-.0954-.0764-.1454-.1113a1.3878,1.3878,0,0,0-.2355-.142.7745.7745,0,0,0-.43-.06.4781.4781,0,0,0-.3064.1378.2938.2938,0,0,0-.0855.1994.2941.2941,0,0,0,.1013.2108.1708.1708,0,0,0-.0338.1267.1581.1581,0,0,0,.0587.0991.03.03,0,0,0,.0239.0054c.0139-.004.016-.02.0184-.0391a.0843.0843,0,0,1,.02-.0534c.033-.0307.1086.0005.1693.0255l.0418.0167a.8924.8924,0,0,0,.4671.0034A.6314.6314,0,0,1,6.71,2.0206a.1524.1524,0,0,1,.08.0644.1408.1408,0,0,1,.008.11c-.0394.1091-.2425.13-.319.138a.5837.5837,0,0,1-.1112.0014,1.14,1.14,0,0,0-.1608,0,.9107.9107,0,0,0-.1.0106.9594.9594,0,0,1-.1045.0109,2.9931,2.9931,0,0,1-.3128,0s-.0288-.001-.0732-.0047L5.5921,2.35a.2387.2387,0,0,1-.0948-.0161.17.17,0,0,1-.0548-.1323c.0283.0145.0448.0173.053.0091s.0035-.0212-.0044-.043c-.004-.011-.0089-.0248-.0133-.041a.35.35,0,0,1-.0115-.073l.03.001.0056-.0051A2.2918,2.2918,0,0,0,5.5047,1.72a.236.236,0,0,0-.01-.0409.21.21,0,0,0-.04-.067.3094.3094,0,0,0,.0858-.13.3034.3034,0,0,0,.0158-.1008l-.0038-.0051-.006.0021a.1907.1907,0,0,1-.0836.07.1006.1006,0,0,1-.0635.0093A.0864.0864,0,0,1,5.36,1.4336L5.3544,1.429c-.0448-.04-.1216-.0857-.1522-.0648-.0056.0038-.0069.0077-.01.0172l-.01.027a.4982.4982,0,0,1-.0209.0458.29.29,0,0,0-.0775-.0687c-.031-.0187-.0735-.0444-.1006-.0275-.0184.0115-.0195.0365-.0205.0586-.0008.0182-.0016.0355-.0115.04s-.0249-.0056-.0435-.019a.3283.3283,0,0,0-.0367-.0239.2608.2608,0,0,0-.2-.0052l-.0036.0036.0009.0049a.0766.0766,0,0,1,.018.049.0979.0979,0,0,1-.0636.0764.0833.0833,0,0,1-.0438.0055.2445.2445,0,0,0-.0642.003.22.22,0,0,0-.0409.0107c-.01.0033-.02.007-.0389.0116a.5527.5527,0,0,1-.106.0151.0994.0994,0,0,0-.01-.08.1077.1077,0,0,0-.1308-.0282.1108.1108,0,0,0-.06.068.1455.1455,0,0,0,.0072.07.3982.3982,0,0,0,.0278.0858.2552.2552,0,0,0,.0484.0646l.04.0452.035.0409a.3845.3845,0,0,0,.047.05.468.468,0,0,0,.0745.0534h.0056l.0025-.005L4.4094,1.88l.0714.0577.0047.0011.0036-.0031L4.5132,1.88a.6331.6331,0,0,0,.0466.0753.6216.6216,0,0,0,.0558.0665,1.0544,1.0544,0,0,1-.3529-.0992c-.0117-.0079-.0719-.0459-.1047-.0282a.0391.0391,0,0,0-.0171.0173.0542.0542,0,0,0,.0066.0464.1309.1309,0,0,0,.0511.0526l-.013.0072-.0025.003-.06.1766.0009.0051.0047.002.1477-.0157-.0336.0652,0,.0056.0051.0022a.3221.3221,0,0,0,.071-.0189l.0258-.0113a.04.04,0,0,1,.0252-.0069c.0165.0025.0267.0174.0358.03s.0167.0241.029.0232c.0138-.001.0251-.0173.0351-.0509a.4307.4307,0,0,0,.0254.041.4045.4045,0,0,0,.0472.0556l.0046.0015.0039-.0027a.2013.2013,0,0,1,.0291-.04c.0162-.0174.0279-.03.0387-.0282a.0382.0382,0,0,1,.0236.0375c-.0006.0251-.0289.0436-.0562.0615l-.0053.0034c-.0325.0214-.0635.0461-.0934.07-.0162.0129-.0329.0262-.05.0389a.5751.5751,0,0,0-.1619.1917.5562.5562,0,0,0-.0582.2194.5625.5625,0,0,0,.0122.15L4.1921,2.986c-.04-.0418-.0694-.0694-.1036-.1012C4.0651,2.863,4.0409,2.84,4.01,2.81c-.0246-.0241-.0494-.0492-.0739-.0746a.1473.1473,0,0,0,.0486-.0439.1118.1118,0,0,0,.0224-.0742.1011.1011,0,0,0-.02-.0512.0958.0958,0,0,0-.04-.03.1.1,0,0,0-.0427-.0067.09.09,0,0,0-.0235.0038c.0059-.213.0128-.4354.0212-.68a3.44,3.44,0,0,1,.0284-.3692,1.4763,1.4763,0,0,1,.0523-.2878l.0033-.0077c.0165-.0384.029-.071.0151-.0819-.0119-.0092-.0359.0021-.08.038a.6651.6651,0,0,0-.1938.2708.9522.9522,0,0,0-.0553.1957,5.9439,5.9439,0,0,0-.03.9219A.104.104,0,0,0,3.6131,2.53a.1137.1137,0,0,0-.0726.0283.112.112,0,0,0-.0357.083C3.5065,2.6712,3.5245,2.7139,3.6,2.749Zm.0572.063c-.0011-.0017-.0106-.0175-.0051-.0287s.023-.0144.0422-.0144a.2335.2335,0,0,1,.047.0053.2644.2644,0,0,1,.0546.0215c.0447.0207.0465.03.0473.0332a.0309.0309,0,0,1-.0113.0279c-.01.0079-.0222.0045-.0517-.0037l-.0428-.0113L3.71,2.8355C3.6788,2.8286,3.6659,2.8257,3.6573,2.812Zm.23.2032c-.0089.007-.0275.0216-.0351.0172-.0046-.0027-.0047-.0122-.0047-.0153,0-.0146.0094-.0253.0229-.04l0,0a.0933.0933,0,0,1,.0268-.0225.06.06,0,0,1,.02-.0082l.0027.0007c.0023.0017.0034.0083.0007.0192a.0919.0919,0,0,1-.0148.0313A.0935.0935,0,0,1,3.8875,3.0152Zm-.02-.0611h0a.02.02,0,0,1-.0164-.0081c-.0042-.0067-.0042-.0212.02-.052a.1961.1961,0,0,1,.0294-.0276.0915.0915,0,0,1,.0173-.0127l.0014.0027a.0935.0935,0,0,1-.0137.0619L3.9046,2.92C3.8978,2.9308,3.8836,2.954,3.8673,2.9541ZM3.8658,2.87c-.0085.0028-.0133.0022-.0149.0008-.0048-.0043.0033-.0264.0132-.0419a.0861.0861,0,0,1,.0354-.03A.0567.0567,0,0,1,3.92,2.7908l.0032.0009c.0014.0011.0044.005.0014.0192A.0949.0949,0,0,1,3.8658,2.87ZM3.651,2.903c-.0028-.0026-.0272-.0256-.0219-.047h0a.0307.0307,0,0,1,.0166-.0208l.0076-.0014.0057.0007a.6623.6623,0,0,1,.1467.0431l.01.0041a.0476.0476,0,0,1,.0217.0158.0283.0283,0,0,1,.0065.0151.0342.0342,0,0,1-.022.03.0526.0526,0,0,1-.04-.0052l-.0075-.0028a.2424.2424,0,0,0-.0434-.0117l-.01-.0014L3.7,2.9194A.0677.0677,0,0,1,3.651,2.903Zm.0455.0927-.0022,0c-.0187-.0038-.0244-.005-.03-.01A.0414.0414,0,0,1,3.65,2.9507a.0267.0267,0,0,1,.0087-.019l.01-.0035.0264-.0012.0237.0011L3.73,2.93h0a.3589.3589,0,0,1,.0851.0307c.0146.0066.0236.0113.0268.02a.0287.0287,0,0,1-.0082.03c-.0017.0014-.0068.0058-.0252.0063a.1345.1345,0,0,1-.0376-.0052L3.7661,3.01Zm.12.1358a.0644.0644,0,0,0,.0285.0024.053.053,0,0,1,.0267.0028c.0114.0046.024.0131.0253.0235.002.0149-.0174.0322-.0354.0371a.0723.0723,0,0,1-.0457-.0063c-.01-.0039-.019-.0074-.0243-.0008-.0073.0092.0038.0256.0222.0529a.3266.3266,0,0,0,.0212.0283c.0058.007.0071.0086.0076.0133.001.01-.004.0158-.0116.0252a.1162.1162,0,0,0-.0242.0423.11.11,0,0,0-.0028.0566c.0052.0214.0215.0551.0435.0551h0c.0111,0,.0171-.0086.0229-.0168a.0345.0345,0,0,1,.021-.0173.0408.0408,0,0,1,.0391.0214.0583.0583,0,0,1-.01.0564.0883.0883,0,0,1-.0488.0353.1023.1023,0,0,1-.0278.0029c-.0088,0-.0165,0-.0193.0069s.0005.0134.027.037c.011.01.0224.0192.034.0281l-.0346.0055-.0207.0021c-.0178.0015-.0277.0024-.0362.0111a.03.03,0,0,0-.0082.02.0881.0881,0,0,1-.0047.02c-.0067.0187-.0221.0448-.0357.0448h0c-.01,0-.0207-.0186-.0348-.0438A.2515.2515,0,0,1,3.6976,3.65a.0325.0325,0,0,0-.0136-.019c-.005-.0032-.0113-.0072-.0625-.0107L3.6026,3.62l.0346-.0289c.0253-.0218.0315-.0282.03-.0366s-.0128-.0108-.026-.0125a.1053.1053,0,0,1-.0487-.0157s-.0376-.0266-.0318-.0592c.0036-.02.0228-.04.0382-.0385.0092.0006.0155.0085.0222.0169s.0146.0184.0262.0171c.0161-.0017.0241-.0221.0312-.04a.1154.1154,0,0,0,.0044-.0911A.0649.0649,0,0,0,3.66,3.3048c-.006-.0046-.01-.0076-.0114-.0146-.0034-.0181.0155-.0373.0307-.0528.0135-.0137.0241-.0245.0189-.0343-.0041-.0076-.0137-.0066-.0249-.0054a.0843.0843,0,0,1-.05-.0062.0457.0457,0,0,1-.0284-.035A.04.04,0,0,1,3.6188,3.12a.0554.0554,0,0,1,.0415.0036l.0141.0077c.0048.0031.0092.006.0148.004.01-.0037.0139-.02.0113-.0544a.2117.2117,0,0,0,.0351.0119.3267.3267,0,0,0,.0452.01h0A.0724.0724,0,0,0,3.8164,3.1315Zm.015-.0459c-.0226.02-.0621.0088-.0939,0-.0282-.0078-.0447-.0131-.0561-.03s-.0113-.0279-.0087-.0332c.0045-.0089.0183-.0125.036-.0125a.26.26,0,0,1,.0857.0178c.0156.0062.048.019.0488.0372A.0271.0271,0,0,1,3.8314,3.0856Zm.0345.0086a.0185.0185,0,0,1-.0141-.01c-.0058-.0128.0128-.0323.0217-.0417.021-.022.0347-.0271.0429-.0271l.006.0011.0064.0051c.0046.0092-.0115.0269-.03.0474C3.8753,3.0952,3.8689,3.0945,3.8659,3.0942Zm2.3777.9706a.13.13,0,0,1-.0664-.0356l-.0044-.0015-.004.0024a.0862.0862,0,0,1-.1416.0045L6.023,4.0324l-.0042.002a.0959.0959,0,0,1-.0823.0339A.0915.0915,0,0,1,5.8758,4.03L5.872,4.0277l-.0042.0013a.14.14,0,0,1-.0471.0276c-.014.0048-.0467.0159-.0578.0049a.025.025,0,0,1-.005-.0182.1321.1321,0,0,1,.043-.0827A.1539.1539,0,0,1,5.88,3.9273a.2649.2649,0,0,1,.0728-.0039.1223.1223,0,0,0,.0707-.011.1244.1244,0,0,0,.0437-.04L6.0677,3.87c0-.0009.0014-.0873-.0012-.1686a.9906.9906,0,0,0-.0057-.1061.2352.2352,0,0,0-.0634-.1125A.9612.9612,0,0,1,5.9016,3.35.3447.3447,0,0,1,5.85,3.2248a.3084.3084,0,0,1-.0039-.0769.5029.5029,0,0,1,.07.0047.4292.4292,0,0,1,.2.073.2188.2188,0,0,1,.0422.0393.6465.6465,0,0,0,.0636.0631,1.3146,1.3146,0,0,0,.1287.0986.2278.2278,0,0,0-.0269.0328.1212.1212,0,0,0-.0272.0624.086.086,0,0,0,.0273.0691.12.12,0,0,0,.0611.0141l.0178.0012c.0139.0008.0189.0012.023.0055.0025.0027.0078.0111.0034.0323a.113.113,0,0,1-.04.0612.3064.3064,0,0,0-.0508.0606.1552.1552,0,0,0-.0312.1038.113.113,0,0,0,.0056.0215l.0067.0216a.3739.3739,0,0,1,.0128.08L6.3275,4.01a.1737.1737,0,0,1-.0088.0316l0,.0011a.0361.0361,0,0,0-.0032.0154A.1307.1307,0,0,1,6.2436,4.0648Zm.0986-.0889A.3841.3841,0,0,0,6.33,3.91l-.0068-.0221-.0052-.02a.144.144,0,0,1,.03-.0966.3.3,0,0,1,.0492-.0586.1231.1231,0,0,0,.043-.0668.0448.0448,0,0,0-.0061-.0417c-.0072-.0077-.0159-.0081-.03-.0089l-.0174-.0012a.115.115,0,0,1-.0558-.0121.0765.0765,0,0,1-.0229-.06.1126.1126,0,0,1,.0254-.057.2216.2216,0,0,1,.027-.0326l.0061.0042c.0331.0228.0558.0371.0741.0486a.388.388,0,0,1,.0721.0535.2661.2661,0,0,1,.0774.0972c.0045.0111.0045.0142.0056.0662,0,.0238.0011.0563.0024.1042a.083.083,0,0,1-.0108.0571c-.01.0128-.0225.0158-.0527.0229l-.0159.0038a.3916.3916,0,0,0-.1355.0485A.1493.1493,0,0,0,6.3422,3.9759ZM4.1572,1.9535a.0443.0443,0,0,1-.0065-.0371.0273.0273,0,0,1,.0124-.0123c.028-.0151.087.0232.0937.0276a1.1017,1.1017,0,0,0,.3731.1035c.0377.0459.0565.0858.0461.0987a.0321.0321,0,0,1-.0181.0083.0453.0453,0,0,1-.0264-.0045L4.613,2.1318a.0767.0767,0,0,0-.0265-.0012l-.0182.0011a.3581.3581,0,0,1-.0663-.0042l.0318-.0527V2.0713l-.0029-.002c-.0387-.0026-.0776-.0066-.1155-.0119a.8927.8927,0,0,1-.1428-.0285c-.02-.0059-.0391-.0126-.0581-.02l-.0025-.0028A.1231.1231,0,0,1,4.1572,1.9535Zm.0718.9243a.5436.5436,0,0,1,.0571-.2151.5644.5644,0,0,1,.1588-.1881c.0169-.0127.0337-.026.05-.039.03-.0237.0605-.0482.0926-.0693l.0053-.0035c.03-.0194.06-.0395.061-.07a.0486.0486,0,0,0-.0325-.0484c-.0165-.0027-.03.0116-.0484.0315a.2161.2161,0,0,0-.0271.036.4021.4021,0,0,1-.041-.0492.4093.4093,0,0,1-.0309-.0518l-.0054-.003-.0046.004c-.0128.05-.0246.0559-.0291.0562-.0065,0-.0124-.0084-.0194-.0186a.0688.0688,0,0,0-.0431-.035.05.05,0,0,0-.0315.0078l-.025.011a.307.307,0,0,1-.0582.0165l.0333-.0645,0-.0055-.005-.0023-.1492.0158.0563-.1667.02-.0109c.0192.0075.0388.0143.0586.02a.8985.8985,0,0,0,.1438.0287c.0362.0051.0732.009.11.0116l-.0316.0523,0,.0033.0027.002a.3716.3716,0,0,0,.0729.0052l.0186-.0011a.0662.0662,0,0,1,.0243.001l.0175.0056a.0615.0615,0,0,0,.0227.0055l.0075-.0006a.04.04,0,0,0,.0225-.0109c.0154-.0191-.0122-.0662-.0455-.107l-.0013-.0053a.5965.5965,0,0,1-.1171-.1609l-.005-.003-.0048.0032-.0258.0592-.0757-.0612-.0059-.0006-.0028.0052.0063.0756a.4672.4672,0,0,1-.064-.0469.3889.3889,0,0,1-.0459-.049l-.035-.0409-.04-.0453a.2444.2444,0,0,1-.0467-.0622.3881.3881,0,0,1-.0271-.0836.1358.1358,0,0,1-.0071-.0643.1014.1014,0,0,1,.0542-.0609.0969.0969,0,0,1,.1175.0243.0917.0917,0,0,1,.0066.0777l.0008.0049L4.3221,1.6a.5652.5652,0,0,0,.1156-.0157.4122.4122,0,0,0,.04-.0118.2126.2126,0,0,1,.0392-.01.2377.2377,0,0,1,.0617-.0029.093.093,0,0,0,.0486-.0063.1069.1069,0,0,0,.07-.0859.0838.0838,0,0,0-.0156-.05.2459.2459,0,0,1,.1844.0065.3139.3139,0,0,1,.0354.0231c.0207.0149.0386.0278.0546.02s.0164-.0279.0174-.0495.0019-.0414.0155-.05c.0215-.0134.0623.0112.0893.0275a.28.28,0,0,1,.08.0726l.0048.0022.0043-.0029a.5145.5145,0,0,0,.0253-.0542l.01-.0276.0059-.0118c.022-.015.091.0217.139.0641l.005.0045a.0977.0977,0,0,0,.0438.0265.1105.1105,0,0,0,.07-.01.1962.1962,0,0,0,.0783-.06.2907.2907,0,0,1-.015.0807.299.299,0,0,1-.0868.129l-.0018.0038.0014.0039a.1982.1982,0,0,1,.0419.0674.2265.2265,0,0,1,.01.0388,2.2239,2.2239,0,0,1-.0026.3215l-.03-.001H5.46a.3644.3644,0,0,1-.0548-.052.2549.2549,0,0,1-.0519-.08.2222.2222,0,0,1-.0108-.0425.1057.1057,0,0,0-.0195-.0515.1218.1218,0,0,0-.0341-.0308l-.0042,0-.0011.004a.2337.2337,0,0,1,.01.1246.1971.1971,0,0,1-.008.0292l-.024-.0285A.4977.4977,0,0,0,5.18,1.8432h-.004l-.0015.0037a.1033.1033,0,0,1-.0126.0761.0908.0908,0,0,1-.0184.02.25.25,0,0,0-.0562-.077l-.0043-.0005L5.0812,1.87a.0968.0968,0,0,1,.0012.05.098.098,0,0,1-.0188.0381l-.05-.0657-.0044-.0011-.0019.0042a.2044.2044,0,0,1,.007.0622.2006.2006,0,0,1-.0059.0414.2167.2167,0,0,1-.0371-.0249.22.22,0,0,1-.0365-.0388l-.0029-.0015h0l-.0029.0015-.0518.0715a.1815.1815,0,0,1-.08-.0945L4.79,1.9142a.1884.1884,0,0,0,.0864.1l.0046-.0011.0508-.07a.228.228,0,0,0,.0772.064h.0031l.002-.0023a.2117.2117,0,0,0,.0073-.0473.2154.2154,0,0,0-.0036-.0481l.0428.0561.0027.0014.0029-.0012a.1053.1053,0,0,0,.0231-.0445A.1027.1027,0,0,0,5.0908,1.88a.2445.2445,0,0,1,.0479.07l.0024.002.003-.0006a.0966.0966,0,0,0,.0235-.0247.1077.1077,0,0,0,.0151-.0728.4866.4866,0,0,1,.0736.066c.01.0106.0189.0218.0275.0332l.0034.0014L5.29,1.9524a.22.22,0,0,0,.0107-.0364.24.24,0,0,0-.0073-.1184.1106.1106,0,0,1,.0236.0232.1.1,0,0,1,.0182.0485.2253.2253,0,0,0,.0111.0437A.263.263,0,0,0,5.4,1.9953a.3723.3723,0,0,0,.0558.0529.367.367,0,0,0,.0121.081c.0045.0166.01.0306.0136.0419.0055.0152.01.0284.0069.0317-.0012.0012-.0092.0062-.0485-.0152l-.0039-.0005a.6255.6255,0,0,1-.1534-.1453L5.28,2.04l-.0027.0007a.1009.1009,0,0,0-.0278.0344.099.099,0,0,0-.01.0349l-.0741-.0691-.004-.0006-.002.0036a.1452.1452,0,0,1-.0223.0907.3042.3042,0,0,0-.0288-.0371.29.29,0,0,0-.0426-.038l-.0042.0058a.2759.2759,0,0,1,.0415.0371.28.28,0,0,1,.031.0407l.0029.0016.003-.0015A.1513.1513,0,0,0,5.1609,2.1a.1489.1489,0,0,0,.006-.0469l.0732.0682.0038.0007.0022-.0033a.0934.0934,0,0,1,.01-.04.0924.0924,0,0,1,.023-.03.6238.6238,0,0,0,.0509.0591.6388.6388,0,0,0,.102.0848.181.181,0,0,0,.0594.1493.2358.2358,0,0,0,.1.0181l.0242.002c.0447.0037.0734.0048.0737.0048a3.014,3.014,0,0,0,.3139,0,.9559.9559,0,0,0,.1054-.0111.8867.8867,0,0,1,.0987-.01,1.1251,1.1251,0,0,1,.1594,0,.5943.5943,0,0,0,.113-.0014c.0783-.0081.2864-.03.328-.145a.1524.1524,0,0,0-.0087-.119.1623.1623,0,0,0-.0851-.0693.6378.6378,0,0,0-.33.0052.8851.8851,0,0,1-.4616-.0028l-.0414-.0166c-.0669-.0276-.1427-.0588-.1807-.0235a.0939.0939,0,0,0-.023.06c-.0019.015-.0036.028-.0107.03a.0215.0215,0,0,1-.0152-.0042.149.149,0,0,1-.0538-.0918.1615.1615,0,0,1,.0348-.1224l-.0008-.0074a.2844.2844,0,0,1-.1014-.206.2847.2847,0,0,1,.0828-.1922.4691.4691,0,0,1,.3-.1343.7646.7646,0,0,1,.4244.0593,1.3638,1.3638,0,0,1,.2337.1409c.05.0347.0984.072.1448.1109a1.3573,1.3573,0,0,0,.1377.0979c.027.0155.0415.0191.0485.012.0054-.0054.0028-.0133,0-.0225a.0664.0664,0,0,1-.0033-.0418.0754.0754,0,0,1,.06-.0487.0946.0946,0,0,1,.09.0613.1218.1218,0,0,1-.0343.1345c-.0658.0535-.1922.01-.2609-.0384-.0192-.0135-.0437-.0356-.0926-.08L6.614,1.6479c-.04-.0369-.053-.0494-.0629-.0426-.0167.0114.0143.0735.0235.09a.2625.2625,0,0,0,.03.0422l.0086.0112a.2039.2039,0,0,1-.1257-.0461.2673.2673,0,0,1-.0748-.0831l-.0054-.0026L6.4033,1.62a.1586.1586,0,0,1-.0381.0682.1659.1659,0,0,1-.104.0516.02.02,0,0,1-.0145-.0048c-.0051-.006.0026-.0189.0122-.0353A.1681.1681,0,0,0,6.29,1.5973.1773.1773,0,0,0,6.2005,1.47c-.0109-.0053-.019-.0063-.0241-.003-.0079.005-.0045.0153,0,.0294a.1648.1648,0,0,1,.01.0817.18.18,0,0,1-.0662.11.2124.2124,0,0,1-.1095.0487.1933.1933,0,0,0,.05-.1418A.2072.2072,0,0,0,5.95,1.4407a.0594.0594,0,0,0-.0529-.0074c-.013.0079-.0128.0268-.0126.0487a.0861.0861,0,0,1-.02.0722.0559.0559,0,0,1-.0291.0116.0953.0953,0,0,0-.0543-.0543.093.093,0,0,0-.077.014.12.12,0,0,0-.0553.0836.1213.1213,0,0,0,.071.12l.007-.0021A.1578.1578,0,0,1,5.7706,1.68a.1608.1608,0,0,1,.13-.0243.1462.1462,0,0,1,.0534.0278l-.037.0246-.0237.0156c-.0346.0226-.0418.0273-.0473.0377-.0078.0145-.0143.0482.029.1106l.0042.0024.0044-.0021a.298.298,0,0,1,.0493-.0492c.0227-.018.035-.0273.0452-.0242.0061.0019.0084.0072.0132.0192a.1641.1641,0,0,0,.068.0841.15.15,0,0,0,.0967.0155l.0044,0c.0277-.0025.0561-.0028.0836-.003a.8554.8554,0,0,0,.1046-.0054,1.6616,1.6616,0,0,1,.2741-.0262.3746.3746,0,0,1,.292.1278.2539.2539,0,0,1,.0439.1648.2867.2867,0,0,1-.1459.2088L6.81,2.3877l.0012.0044a.5949.5949,0,0,1,.0816.126.579.579,0,0,1,.0461.1366.6739.6739,0,0,1-.0487.3619c-.0114.0325-.0208.0539-.029.0727a.6167.6167,0,0,0-.0356.0995A.6838.6838,0,0,0,6.8,3.3765a.3567.3567,0,0,0,.034.16.1.1,0,0,0,.0482.0551.0833.0833,0,0,0,.0227.0046.0617.0617,0,0,1,.03.0092.0467.0467,0,0,1,.021.0238c.0023.0082.0016.0233-.031.0594a.3091.3091,0,0,1-.0572.05.134.134,0,0,0-.0455.0459.1488.1488,0,0,0-.02.0687.18.18,0,0,0,.0294.1.26.26,0,0,0,.025.0344.0762.0762,0,0,1,.0226.044.04.04,0,0,1-.0069.0315.0411.0411,0,0,1-.0339.0068.2348.2348,0,0,1-.1061-.0421l-.0043-.0008-.0035.0028a.0714.0714,0,0,1-.0343.0345.0943.0943,0,0,1-.0779-.0107.1456.1456,0,0,1-.0357-.0241l-.0041-.0014-.0038.002a.0991.0991,0,0,1-.04.0306.0874.0874,0,0,1-.0575.0057.0854.0854,0,0,1-.0471-.0325l-.0042-.0023-.0044.0021a.0834.0834,0,0,1-.058.0349c-.0127.0006-.0277-.0019-.0307-.0087-.0014-.003,0-.0064.0021-.0128l0-.0011a.1864.1864,0,0,0,.0093-.0334l.0049-.0163a.1217.1217,0,0,1,.0458-.048.3777.3777,0,0,1,.132-.0469l.0159-.0038c.0309-.0074.0464-.011.0587-.0268a.0924.0924,0,0,0,.0131-.0643c-.0014-.0476-.002-.08-.0025-.1038-.001-.0527-.0011-.057-.0063-.07a.2728.2728,0,0,0-.08-.101.3975.3975,0,0,0-.0737-.0548c-.0182-.0115-.0408-.0257-.0738-.0484A1.3869,1.3869,0,0,1,6.2294,3.32a.6239.6239,0,0,1-.0626-.0622.2349.2349,0,0,0-.044-.0408.44.44,0,0,0-.2054-.075.6.6,0,0,0-.2408.02.7892.7892,0,0,0-.1809.0705c-.0381.0188-.0812.04-.1433.0658a2.062,2.062,0,0,1-.2264.078,1.0447,1.0447,0,0,0,.0571-.11.7528.7528,0,0,0,.0711-.2473.667.667,0,0,0,.0027-.0747H5.25a.652.652,0,0,1-.0027.0739.7473.7473,0,0,1-.07.2451,1.0385,1.0385,0,0,1-.0607.1158h0l-.0034.0029c-.007.0143-.0146.0287-.0226.0426-.0144.0254-.0253.0412-.0349.0551a.2688.2688,0,0,0-.031.0542.1059.1059,0,0,0-.0117.0894.0877.0877,0,0,0,.0545.036.2015.2015,0,0,0,.0324.006c.0124.0017.0278.0038.0517.0084.01.0019.0171.0036.0187.0076.0028.0064-.009.02-.0193.0313a.804.804,0,0,1-.069.0741l-.0118.0041-.0626.0218c-.0222.0077-.0369.0128-.0458.0273a.0748.0748,0,0,0-.0055.0473.2811.2811,0,0,0,.0057.0448.1024.1024,0,0,1,.0026.0229.1369.1369,0,0,1-.0264.08.099.099,0,0,1-.0339.0306.12.12,0,0,1-.1219-.0292l-.0071,0a.1173.1173,0,0,1-.161.0023l-.0076,0a.1012.1012,0,0,1-.077.0317.1.1,0,0,1-.07-.0351l-.0074-.0008a.2966.2966,0,0,1-.034.0223.0711.0711,0,0,1-.0353.0126.0294.0294,0,0,1-.0167-.0153.0809.0809,0,0,1,.0129-.0642.1666.1666,0,0,1,.0841-.0929.0791.0791,0,0,1,.0316-.0027l.05-.0006a.4585.4585,0,0,0,.1054-.0074.147.147,0,0,0,.089-.0657A.1681.1681,0,0,0,4.75,3.7211a.2916.2916,0,0,0-.0208-.0966.462.462,0,0,1-.0258-.0985l-.0017-.0108A.1351.1351,0,0,0,4.6807,3.45a.6186.6186,0,0,1-.0116-.3527L4.6622,3.095A.624.624,0,0,0,4.67,3.44l-.0025-.0016a.0522.0522,0,0,0-.0221-.0057A.1689.1689,0,0,1,4.62,3.4286a.2389.2389,0,0,1-.0584-.0258,1.0256,1.0256,0,0,1-.092-.0573.6986.6986,0,0,1-.2257-.3062A.5492.5492,0,0,1,4.229,2.8778Zm-.2266-.06c.031.03.0564.054.0788.0748.034.0318.0635.0592.1031.1008.0178.0188.0355.038.0524.0572l.0007.0006a.7089.7089,0,0,0,.219.2972.4064.4064,0,0,1-.05.05.2166.2166,0,0,1-.1324.0692c-.0358-.0011-.0606-.0223-.11-.0644-.0161-.0137-.0314-.0286-.0463-.0431-.0366-.0356-.0656-.0638-.0884-.0579a.0454.0454,0,0,0-.0139.0064.0539.0539,0,0,0-.02.0356.0813.0813,0,0,1-.0271-.0236c-.0134-.0189-.0137-.0407-.0148-.1323v0a.1371.1371,0,0,0-.01-.0688.1007.1007,0,0,0-.0437-.04l.0049-.0053c.0221-.0243.038-.0418.0312-.0554a.0184.0184,0,0,0-.01-.0085.0284.0284,0,0,0-.0218.0011l.009-.01a.1.1,0,0,0,.0161-.0339c.0032-.0131.002-.0226-.0034-.0266-.0075-.0056-.0193.0007-.0307.0068L3.8912,2.95a.1375.1375,0,0,0,.0195-.0262l.0009-.0015a.1.1,0,0,0,.0144-.0677L3.92,2.8469c-.002-.0008-.0042-.001-.01.0033a.0786.0786,0,0,0,.0221-.0378c.0029-.0134.0015-.0223-.0041-.0264-.0081-.0059-.0206.0009-.0316.0069a.0941.0941,0,0,0-.038.0325L3.85,2.8406a.0323.0323,0,0,0,0-.0131c-.0017-.0083-.0091-.0188-.0513-.0383a.2714.2714,0,0,0-.0561-.022.2816.2816,0,0,0-.0285-.0044l.041,0h.0125a.3263.3263,0,0,0,.1584-.0222C3.9514,2.7671,3.977,2.7929,4.0024,2.8178Zm-.32-1.2048A.9282.9282,0,0,1,3.7372,1.42a.6558.6558,0,0,1,.1905-.2664c.0513-.0413.064-.04.0671-.0378.0085.0067-.01.05-.0184.0692l-.0033.0077a1.4608,1.4608,0,0,0-.053.2907,3.51,3.51,0,0,0-.0286.37c-.0084.2462-.0153.47-.0213.6848h0a.0693.0693,0,0,0-.03.0474.053.053,0,0,0,0,.03.041.041,0,0,0,.0165.02l.0047.004a.1729.1729,0,0,1-.1007.0282.1942.1942,0,0,1-.0826-.0136c-.01-.0043-.0143-.0074-.0158-.0117s.0011-.0092.0063-.0171a.0668.0668,0,0,0,.0132-.0323.0592.0592,0,0,0-.016-.0462l-.0123-.0092A5.9587,5.9587,0,0,1,3.6826,1.613Zm-.1348.9533a.1024.1024,0,0,1,.0653-.0254h.002a.0571.0571,0,0,1,.0428.0134.0485.0485,0,0,1,.0129.0377.0567.0567,0,0,1-.0115.0274.0292.0292,0,0,0-.0074.0264c.0029.0087.01.0134.0218.0182a.2039.2039,0,0,0,.0875.0144c.0363-.0028.1112-.016.1106-.0392,0-.006-.0047-.0093-.0091-.0125A.03.03,0,0,1,3.85,2.6118a.0423.0423,0,0,1,0-.0242.06.06,0,0,1,.0253-.04.0616.0616,0,0,1,.03-.0073.0906.0906,0,0,1,.0379.0059.0857.0857,0,0,1,.0354.027.09.09,0,0,1,.0177.0455.1016.1016,0,0,1-.0206.0673.1392.1392,0,0,1-.0509.0439.3291.3291,0,0,1-.1693.0229.4247.4247,0,0,1-.1509-.0132c-.0708-.0328-.0875-.0716-.0891-.0984A.1025.1025,0,0,1,3.5478,2.5663Z"/><path d="M4.7181,1.7534a.0492.0492,0,0,0,.0336-.0121.0454.0454,0,0,0,.0129-.0442A.0461.0461,0,0,0,4.7413,1.67l-.0032.0064a.0387.0387,0,0,1,.02.0229.0377.0377,0,0,1-.0109.0369.0434.0434,0,0,1-.033.01.0508.0508,0,0,1-.0358-.018.0539.0539,0,0,1-.0054-.048.0614.0614,0,0,1,.0384-.0383c.0211-.007.04.0012.0773.0189l.0364.0175a.3467.3467,0,0,0,.1658.0545.1788.1788,0,0,0,.0281-.0037l.0027-.0025L5.02,1.7229a.2.2,0,0,1-.0441-.0617.1907.1907,0,0,0,.0452.0235.2775.2775,0,0,0,.1039.01A.8389.8389,0,0,0,5.22,1.6873l.0028-.002,0-.0035a.2766.2766,0,0,0-.0257-.0341.2735.2735,0,0,0-.0418-.0386c.0311-.0021.0621-.0055.0924-.01a.4856.4856,0,0,0,.1183-.03.2763.2763,0,0,0,.0617-.0408l-.0047-.0054a.2643.2643,0,0,1-.06.04.48.48,0,0,1-.1162.0293c-.0334.005-.0676.0087-.1018.0107l-.0032.0026.0014.0039a.2709.2709,0,0,1,.0486.0433.2783.2783,0,0,1,.022.0286.8234.8234,0,0,1-.0883.0066.3079.3079,0,0,1-.1014-.01.1853.1853,0,0,1-.0539-.03H4.9656l-.0013.0042a.2124.2124,0,0,0,.0231.0437.2071.2071,0,0,0,.0231.028l-.02.0022a.3367.3367,0,0,1-.1624-.0538l-.0365-.0174c-.0348-.0166-.0578-.0275-.0826-.0193a.0689.0689,0,0,0-.0429.0429.0608.0608,0,0,0,.0066.0546.0578.0578,0,0,0,.0409.0207Z"/><path d="M4.5731,2.511c.0173-.0028.0347-.0065.0517-.0108a.5922.5922,0,0,0,.0606-.0193.1991.1991,0,0,1,.0162.13l.0012.0036.0023.0008.0014,0a.2516.2516,0,0,0,.0581-.0352.1617.1617,0,0,0,.0487-.0548.1353.1353,0,0,0,.0138-.0469.2513.2513,0,0,1,.02.1013l.002.0033.0038,0a.2608.2608,0,0,0,.0861-.1214l.0245.0369c.0106.0167.021.034.0309.0512l.0029.0018L5,2.5489a.2681.2681,0,0,0,.03-.0544L5.04,2.4673a.3585.3585,0,0,1,.0143-.0384l.0138-.0274a.6861.6861,0,0,0,.0334.08l.0051.01a.2516.2516,0,0,1,.0257.0667.22.22,0,0,1,.0047.0388l.0019.003h.0035a.5168.5168,0,0,0,.111-.09.3824.3824,0,0,0,.1638.0527L5.42,2.5615l.0013-.0025.0048-.0716.0021-.04A.2475.2475,0,0,0,5.567,2.438l.0023-.0032-.0019-.0034a.1605.1605,0,0,1-.0467-.0361L5.5063,2.376a.0808.0808,0,0,0-.0221-.0243.0872.0872,0,0,0-.0411-.0139l-.0069-.001a.3459.3459,0,0,1-.1156-.0461A.2415.2415,0,0,1,5.2559,2.23l-.0034-.0014L5.25,2.23l-.0225.0608a.3561.3561,0,0,1-.1288-.1094L5.0953,2.18l-.0029.0016-.03.0446A.1784.1784,0,0,0,5.0363,2.17a.1809.1809,0,0,0-.0585-.0536l-.0029,0-.0021.0019a.202.202,0,0,1-.0235.04.1983.1983,0,0,1-.0212.0237.3881.3881,0,0,1-.0756-.0832l-.006.004a.3932.3932,0,0,0,.0338.0433.3989.3989,0,0,0,.0457.0434l.0047,0a.1985.1985,0,0,0,.0243-.0267.2022.2022,0,0,0,.0227-.0376.1724.1724,0,0,1,.08.1114l.0028.0028.0037-.0015L5.0955,2.19a.3629.3629,0,0,0,.0549.0586l.0032.0027-.0015.03c0,.0115,0,.02,0,.028a.1375.1375,0,0,1-.0025.0358.1122.1122,0,0,1-.01.0273.2957.2957,0,0,0-.0873-.08.292.292,0,0,0-.05-.0236l-.0032,0-.0016.0029a.2359.2359,0,0,1-.007.0556.2388.2388,0,0,1-.0108.0329A.3473.3473,0,0,0,4.94,2.2925a.3557.3557,0,0,0-.038-.0434l-.0031-.001-.0026.002a.1964.1964,0,0,1-.051.0651.2013.2013,0,0,1-.03.02.15.15,0,0,0,0-.0486A.1511.1511,0,0,0,4.8,2.241l-.0033-.0019-.0032.0023A.2151.2151,0,0,1,4.759,2.3a.2209.2209,0,0,1-.0281.0283A.2955.2955,0,0,0,4.71,2.236l-.0067.0027a.2933.2933,0,0,1,.0213.0964l.002.0031.0037,0a.2207.2207,0,0,0,.0346-.0337.2254.2254,0,0,0,.0325-.0528.1482.1482,0,0,1,.0114.0368.1448.1448,0,0,1-.0009.0533l.0013.0036.0038,0A.2.2,0,0,0,4.85,2.3207a.2045.2045,0,0,0,.0506-.063.3411.3411,0,0,1,.0338.0391.3452.3452,0,0,1,.0416.0744l.0032.0022.0034-.0021A.2377.2377,0,0,0,4.9971,2.33a.24.24,0,0,0,.0072-.0521.2818.2818,0,0,1,.0439.0212.2887.2887,0,0,1,.0884.0823l.003.0015h0l.003-.0018a.1228.1228,0,0,0,.0138-.0341.143.143,0,0,0,.0027-.0375c0-.0076,0-.0163,0-.0277L5.16,2.257a.3721.3721,0,0,0,.0671.0424H5.23l.0021-.0021.0216-.0584a.2492.2492,0,0,0,.0626.0578.3481.3481,0,0,0,.1183.047h0l.007.0011a.08.08,0,0,1,.0381.0127A.0712.0712,0,0,1,5.5,2.38l.015.02a.1668.1668,0,0,0,.0417.0339.24.24,0,0,1-.1313.0056l-.003.0006-.0014.0027-.0024.0441-.0045.068a.3823.3823,0,0,1-.0673-.0127.3784.3784,0,0,1-.0923-.04L5.25,2.5026a.5127.5127,0,0,1-.1062.0881A.2283.2283,0,0,0,5.14,2.5568a.2576.2576,0,0,0-.0263-.0684l-.005-.01a.687.687,0,0,1-.0357-.0867L5.07,2.3893l-.0034.0017a.3215.3215,0,0,0-.0181.035.3334.3334,0,0,0-.0146.0392l-.0094.0266a.2592.2592,0,0,1-.0262.0484c-.0091-.0157-.0186-.0314-.0283-.0466l-.0287-.0431L4.9373,2.449l-.0029.0025a.2539.2539,0,0,1-.0471.0871.2572.2572,0,0,1-.033.033.2645.2645,0,0,0-.0073-.0567.2609.2609,0,0,0-.0194-.0532L4.8236,2.46l-.0028.0034a.13.13,0,0,1-.0139.0581.1564.1564,0,0,1-.0468.0526.246.246,0,0,1-.05.0313.2048.2048,0,0,0-.02-.13l-.0044-.0017a.582.582,0,0,1-.0629.02l-.0389.0086a.1438.1438,0,0,0,.02-.0247A.1717.1717,0,0,0,4.62,2.4437l.008-.02c.0066-.0155.0142-.0311.0225-.0463l-.0063-.0034c-.0084.0154-.0161.0311-.0228.0469l-.0081.02a.1622.1622,0,0,1-.0155.0322.1417.1417,0,0,1-.028.0315l-.0009.0042Z"/><path d="M5.3991,1.77a.1994.1994,0,0,0,.03.0414.2038.2038,0,0,0,.0389.0316l.0038-.0061a.1934.1934,0,0,1-.0668-.07Z"/><path d="M0,0V5.1882H7.9818V0ZM2.5191,4.8406H.34V.3477h2.18Zm5.1621,0h-4.82V.3477h4.82Z" fill="#ffbf25"/><path d="M7.1742.854a.235.235,0,0,0-.0159.0689.2876.2876,0,0,0,0,.0464.287.287,0,0,1,.0481-.07.3068.3068,0,0,1,.1054-.072A.251.251,0,0,1,7.3843.8058.3486.3486,0,0,0,7.4585.7865c.0546-.02.1018-.0377.12-.08a.15.15,0,0,0,.007-.0752A.1963.1963,0,0,0,7.5679.5778L7.5629.5693a.07.07,0,0,1-.011-.0266A.2351.2351,0,0,1,7.5511.51V.491L7.5215.49A.39.39,0,0,1,7.4744.4845.0942.0942,0,0,1,7.4392.47.09.09,0,0,0,7.4155.4589.1206.1206,0,0,0,7.3814.454a.1846.1846,0,0,0-.0562.01L7.322.4654a.1365.1365,0,0,0-.06.0308.1527.1527,0,0,0-.0366.0794.2981.2981,0,0,0-.009.06L7.2135.6679a.8511.8511,0,0,1-.0229.1342C7.1847.8242,7.1791.84,7.1742.854Z" fill="#ffbf25"/><path d="M7.1553.9923h.0006L7.16.9893A.2759.2759,0,0,1,7.2138.9055a.2984.2984,0,0,1,.1023-.07.2377.2377,0,0,1,.07-.02.3544.3544,0,0,0,.0761-.02c.0567-.021.1057-.0391.1253-.0854A.1614.1614,0,0,0,7.5948.63.2005.2005,0,0,0,7.5764.5731L7.5713.5643a.0587.0587,0,0,1-.01-.0232A.192.192,0,0,1,7.5608.51V.4862L7.556.4813,7.5222.48a.3816.3816,0,0,1-.0459-.005.0835.0835,0,0,1-.0319-.013A.1.1,0,0,0,7.4183.45a.16.16,0,0,0-.096.0055l-.0031.001A.1435.1435,0,0,0,7.255.4892a.1618.1618,0,0,0-.0392.0839.305.305,0,0,0-.0093.0618l-.0027.032A.8439.8439,0,0,1,7.1812.8C7.1754.8214,7.17.837,7.1651.8508a.2413.2413,0,0,0-.0165.0714.2983.2983,0,0,0,.0025.066ZM7.2162.6356a.2981.2981,0,0,1,.009-.06A.1527.1527,0,0,1,7.2618.4962a.1365.1365,0,0,1,.06-.0308l.0032-.001a.1846.1846,0,0,1,.0562-.01.1206.1206,0,0,1,.0341.0049A.09.09,0,0,1,7.4392.47a.0942.0942,0,0,0,.0352.0143A.39.39,0,0,0,7.5215.49l.03.0014V.51a.2351.2351,0,0,0,.0008.0324.07.07,0,0,0,.011.0266l.005.0085a.1963.1963,0,0,1,.0173.0534.15.15,0,0,1-.007.0752c-.0179.0424-.0651.06-.12.08a.3486.3486,0,0,1-.0742.0193.251.251,0,0,0-.0722.0211.3068.3068,0,0,0-.1054.072.287.287,0,0,0-.0481.07.2876.2876,0,0,1,0-.0464A.235.235,0,0,1,7.1742.854c.0049-.0139.0105-.03.0164-.0519A.8511.8511,0,0,0,7.2135.6679Z"/><path d="M7.1742,4.3343c.0049.0139.0105.03.0164.0519a.8511.8511,0,0,1,.0229.1342l.0027.0323a.2981.2981,0,0,0,.009.06.1527.1527,0,0,0,.0366.0794.1365.1365,0,0,0,.06.0308l.0032.001a.1491.1491,0,0,0,.09.0054.0875.0875,0,0,0,.0237-.0112.0942.0942,0,0,1,.0352-.0143.39.39,0,0,1,.0471-.0051l.03-.0014V4.678a.2351.2351,0,0,1,.0008-.0324.07.07,0,0,1,.011-.0266l.005-.0085h0a.1905.1905,0,0,0,.0173-.0534.15.15,0,0,0-.007-.0752c-.0179-.0424-.0651-.06-.12-.08a.3486.3486,0,0,0-.0742-.0193.251.251,0,0,1-.0722-.0211.3068.3068,0,0,1-.1054-.072.2889.2889,0,0,1-.0481-.07.2876.2876,0,0,0,0,.0464A.2357.2357,0,0,0,7.1742,4.3343Z" fill="#ffbf25"/><path d="M7.1651,4.3375c.0048.0138.01.0294.0161.0513a.8439.8439,0,0,1,.0226.1326l.0027.032a.305.305,0,0,0,.0093.0618.1618.1618,0,0,0,.0392.0839.1445.1445,0,0,0,.0642.0331l.0031.001a.1963.1963,0,0,0,.0592.0108.1289.1289,0,0,0,.0368-.0053.1.1,0,0,0,.0261-.0123.0819.0819,0,0,1,.0319-.013.3643.3643,0,0,1,.0459-.005L7.556,4.707l.0048-.0049V4.678a.192.192,0,0,1,.0008-.0308.0587.0587,0,0,1,.01-.0232l.0052-.0089a.2031.2031,0,0,0,.0183-.0563.1614.1614,0,0,0-.0076-.0807c-.02-.0463-.0686-.0644-.1253-.0854a.3544.3544,0,0,0-.0761-.02.2377.2377,0,0,1-.07-.02.2975.2975,0,0,1-.1023-.07A.2742.2742,0,0,1,7.16,4.199l-.0051-.003L7.1511,4.2a.2983.2983,0,0,0-.0025.066A.2413.2413,0,0,0,7.1651,4.3375ZM7.1586,4.219a.2889.2889,0,0,0,.0481.07.3068.3068,0,0,0,.1054.072.251.251,0,0,0,.0722.0211.3486.3486,0,0,1,.0742.0193c.0546.02.1018.0377.12.08a.15.15,0,0,1,.007.0752.1905.1905,0,0,1-.0173.0534h0l-.005.0085a.07.07,0,0,0-.011.0266.2351.2351,0,0,0-.0008.0324v.0193l-.03.0014a.39.39,0,0,0-.0471.0051.0942.0942,0,0,0-.0352.0143.0875.0875,0,0,1-.0237.0112.1491.1491,0,0,1-.09-.0054l-.0032-.001a.1365.1365,0,0,1-.06-.0308.1527.1527,0,0,1-.0366-.0794.2981.2981,0,0,1-.009-.06L7.2135,4.52a.8511.8511,0,0,0-.0229-.1342c-.0059-.0221-.0115-.038-.0164-.0519a.2357.2357,0,0,1-.0159-.0689A.2876.2876,0,0,1,7.1586,4.219Z"/><path d="M3.0882.7865a.3476.3476,0,0,0,.0743.0193.2514.2514,0,0,1,.0721.0211A.3068.3068,0,0,1,3.34.8989a.2842.2842,0,0,1,.0481.07.2876.2876,0,0,0,0-.0464A.2319.2319,0,0,0,3.3725.854C3.3676.84,3.362.8242,3.3561.8021A.8379.8379,0,0,1,3.3333.668L3.3305.6356a.2911.2911,0,0,0-.009-.06A.1519.1519,0,0,0,3.2849.4962a.1359.1359,0,0,0-.06-.0308L3.2215.4644a.15.15,0,0,0-.09-.0055A.09.09,0,0,0,3.1075.47a.0942.0942,0,0,1-.0352.0143A.39.39,0,0,1,3.0252.49l-.03.0014V.51a.2351.2351,0,0,1-.0008.0324.07.07,0,0,1-.011.0266l-.005.0085a.1963.1963,0,0,0-.0173.0534.15.15,0,0,0,.007.0752C2.9864.7488,3.0336.7663,3.0882.7865Z" fill="#ffbf25"/><path d="M3.0848.7956a.3544.3544,0,0,0,.0761.02.2377.2377,0,0,1,.07.02.2984.2984,0,0,1,.1023.07.2759.2759,0,0,1,.0534.0838l.0045.003h.0006L3.3957.9882a.2983.2983,0,0,0,.0024-.066A.2438.2438,0,0,0,3.3817.8508C3.3768.837,3.3714.8214,3.3655.8A.842.842,0,0,1,3.3429.6669L3.34.6349A.2981.2981,0,0,0,3.3309.5731.1618.1618,0,0,0,3.2917.4892.1437.1437,0,0,0,3.2276.4561L3.2244.4551A.16.16,0,0,0,3.1284.45a.0973.0973,0,0,0-.026.0123.0848.0848,0,0,1-.032.013A.3816.3816,0,0,1,3.0245.48L2.9907.4813,2.9859.4862V.51L2.9852.5411a.06.06,0,0,1-.01.0232L2.97.5731A.2005.2005,0,0,0,2.9519.63.1614.1614,0,0,0,2.96.71C2.9791.7565,3.0281.7746,3.0848.7956ZM2.9615.6312A.1963.1963,0,0,1,2.9788.5778l.005-.0085a.07.07,0,0,0,.011-.0266A.2351.2351,0,0,0,2.9956.51V.491L3.0252.49A.39.39,0,0,0,3.0723.4845.0942.0942,0,0,0,3.1075.47.09.09,0,0,1,3.1312.4589a.15.15,0,0,1,.09.0055l.0032.001a.1359.1359,0,0,1,.06.0308.1519.1519,0,0,1,.0366.0794.2911.2911,0,0,1,.009.06L3.3333.668a.8379.8379,0,0,0,.0228.1341c.0059.0221.0115.038.0164.0519a.2319.2319,0,0,1,.0159.0689.2876.2876,0,0,1,0,.0464A.2842.2842,0,0,0,3.34.8989a.3068.3068,0,0,0-.1054-.072A.2514.2514,0,0,0,3.1625.8058.3476.3476,0,0,1,3.0882.7865c-.0546-.02-.1018-.0377-.12-.08A.15.15,0,0,1,2.9615.6312Z"/><path d="M2.9685,4.4819a.15.15,0,0,0-.007.0752.1944.1944,0,0,0,.0173.0534h0l.005.0085a.07.07,0,0,1,.011.0266.2351.2351,0,0,1,.0008.0324v.0193l.03.0014a.39.39,0,0,1,.0471.0051.0942.0942,0,0,1,.0352.0143.0875.0875,0,0,0,.0237.0112.1491.1491,0,0,0,.09-.0054l.0032-.001a.1359.1359,0,0,0,.06-.0308.1519.1519,0,0,0,.0366-.0794.2911.2911,0,0,0,.009-.06L3.3333,4.52a.837.837,0,0,1,.0228-.1342c.0059-.0221.0115-.038.0164-.0519a.2326.2326,0,0,0,.0159-.0689.2766.2766,0,0,0,0-.0464.2861.2861,0,0,1-.0481.07.3068.3068,0,0,1-.1054.072.2514.2514,0,0,1-.0721.0211.3476.3476,0,0,0-.0743.0193C3.0336,4.422,2.9864,4.44,2.9685,4.4819Z" fill="#ffbf25"/><path d="M2.97,4.6152l.0051.0088a.06.06,0,0,1,.01.0232l.0007.0308v.0241l.0048.0049.0338.0014a.3623.3623,0,0,1,.0459.005.0832.0832,0,0,1,.032.013.0973.0973,0,0,0,.026.0123.1289.1289,0,0,0,.0368.0053.1957.1957,0,0,0,.0592-.0108l.0032-.001a.1447.1447,0,0,0,.0641-.0331.1618.1618,0,0,0,.0392-.084A.2963.2963,0,0,0,3.34,4.5534l.0027-.0321a.8412.8412,0,0,1,.0226-.1325c.0059-.0219.0113-.0375.0162-.0513a.2446.2446,0,0,0,.0164-.0714A.2983.2983,0,0,0,3.3957,4.2L3.3914,4.196l-.0051.003a.2742.2742,0,0,1-.0534.0837.2975.2975,0,0,1-.1023.07.2377.2377,0,0,1-.07.02.3544.3544,0,0,0-.0761.02c-.0567.021-.1057.0391-.1253.0854a.1614.1614,0,0,0-.0076.0807A.2043.2043,0,0,0,2.97,4.6152Zm.1922-.2327a.2514.2514,0,0,0,.0721-.0211.3068.3068,0,0,0,.1054-.072.2861.2861,0,0,0,.0481-.07.2766.2766,0,0,1,0,.0464.2326.2326,0,0,1-.0159.0689c-.0049.0139-.01.03-.0164.0519a.837.837,0,0,0-.0228.1342l-.0028.0323a.2911.2911,0,0,1-.009.06.1519.1519,0,0,1-.0366.0794.1359.1359,0,0,1-.06.0308l-.0032.001a.1491.1491,0,0,1-.09.0054.0875.0875,0,0,1-.0237-.0112.0942.0942,0,0,0-.0352-.0143.39.39,0,0,0-.0471-.0051l-.03-.0014V4.678a.2351.2351,0,0,0-.0008-.0324.07.07,0,0,0-.011-.0266l-.005-.0085h0a.1944.1944,0,0,1-.0173-.0534.15.15,0,0,1,.007-.0752c.0179-.0424.0651-.06.12-.08A.3476.3476,0,0,1,3.1625,4.3825Z"/><rect x="0.3395" y="0.3477" width="1.0898" height="4.4929" fill="#005145"/><rect x="1.4293" y="0.3477" width="1.0898" height="4.4929" fill="#e26b00"/></svg>