<svg xmlns="http://www.w3.org/2000/svg" viewBox="0 0 7.9819 5.1882"><rect width="3.991" height="5.1882" fill="#063"/><rect x="3.991" width="3.9909" height="5.1882" fill="#fff"/><path d="M5.1086,1.9348a1.2785,1.2785,0,0,0-.334-.3773,1.3013,1.3013,0,0,0-.7361-.2561,1.3264,1.3264,0,0,0-.882.2983A1.3589,1.3589,0,0,0,2.69,2.6416a1.3,1.3,0,0,0,2.058,1.0117,1.2839,1.2839,0,0,0,.366-.4092,1.0445,1.0445,0,0,1-.2651.232,1.0878,1.0878,0,0,1-.7383.1387,1.0372,1.0372,0,0,1-.4413-1.8411,1.0486,1.0486,0,0,1,.6636-.2158A1.0953,1.0953,0,0,1,5.1086,1.9348Z" fill="#c03"/><polygon points="4.716 1.994 4.716 2.45 5.15 2.591 4.716 2.731 4.716 3.187 4.448 2.819 4.015 2.959 4.283 2.591 4.015 2.222 4.448 2.363 4.716 1.994" fill="#c03"/></svg>