<svg xmlns="http://www.w3.org/2000/svg" viewBox="0 0 7.9818 5.1882"><path d="M7.882,0H0V5.1882H7.9818V0Zm-1.91.4951.3312.5-.1809.12-.3313-.5ZM5.701.6745l.2978.45.0334.05.39.5884-.1809.12-.3895-.5884-.0334-.05L5.52.7943ZM5.97,3.1322l.181.12-.3322.5019-.181-.12ZM5.6375,1.5606l.181-.12.3322.5019-.181.12Zm.6033,1.751.1809.12L6.09,3.9333l-.1809-.12ZM5.43.8539l.3312.5005-.1809.12-.3313-.5Zm-2.6963.12L2.013,2.0625l-.181-.12L2.5528.8539ZM2.4626.7943,1.7419,1.8831l-.1809-.12L2.2817.6745ZM2.0731,3.8121l-.1809.12-.3312-.5.1809-.12ZM2.0106.4951l.181.12L1.4709,1.7037l-.181-.12Zm0,4.2046-.2439-.3685-.0883-.1334L1.29,3.6108l.181-.12.3885.587.0883.1334.2439.3685ZM2.2817,4.52,1.95,4.0184l.1809-.12.3322.5019Zm.2711-.1794-.26-.3926-.0724-.1094L1.832,3.252l.181-.12.3885.587.0723.1094.26.3925ZM5.1459,3.17h0A1.29,1.29,0,1,1,2.8469,1.9973a1.3179,1.3179,0,0,1,1.144-.6932,1.3174,1.3174,0,0,1,1.29,1.29,1.2835,1.2835,0,0,1-.135.5748ZM5.249,4.2211l.3313-.5.1809.12L5.43,4.3409Zm.2711.1794.3312-.5.1809.12-.3312.5Zm.452.2992-.181-.12.3313-.5.1809.12Zm.3885-.587L6.18,3.993l.3322-.502.1809.12Zm.1513-2.409L6.18,1.2018l.1809-.12.3322.5019Z" fill="#fff"/><polygon points="5.146 3.169 5.146 3.169 5.146 3.169 5.146 3.169" fill="#f1f2f2"/><path d="M3.9909,1.3041a1.3179,1.3179,0,0,0-1.144.6932.6618.6618,0,0,0,.0876.6314A.6724.6724,0,0,0,3.76,2.814a.6445.6445,0,0,0,.2408-.2283A.6237.6237,0,0,1,4.233,2.38a.6413.6413,0,0,1,.2825-.0771.6625.6625,0,0,1,.5721.3185.6887.6887,0,0,1,.0584.5475,1.2835,1.2835,0,0,0,.135-.5748A1.3174,1.3174,0,0,0,3.9909,1.3041Z" fill="#c03"/><path d="M5.0876,2.6215a.6625.6625,0,0,0-.5721-.3185A.6413.6413,0,0,0,4.233,2.38a.6237.6237,0,0,0-.2321.2056A.6445.6445,0,0,1,3.76,2.814a.6724.6724,0,0,1-.8256-.1853.6618.6618,0,0,1-.0876-.6314A1.29,1.29,0,1,0,5.1458,3.17l0-.0005A.6887.6887,0,0,0,5.0876,2.6215Z" fill="#336"/><rect x="1.63" y="1.3497" width="1.3058" height="0.217" transform="translate(-0.1931 2.557) rotate(-56.4986)"/><rect x="1.3589" y="1.1704" width="1.3058" height="0.2169" transform="translate(-0.165 2.2506) rotate(-56.4986)"/><rect x="1.0879" y="0.9909" width="1.3058" height="0.217" transform="translate(-0.1368 1.9442) rotate(-56.5003)"/><polygon points="1.859 4.078 1.471 3.491 1.29 3.611 1.678 4.198 1.767 4.331 2.011 4.7 2.192 4.58 1.948 4.211 1.859 4.078"/><rect x="1.7086" y="3.3217" width="0.2169" height="0.6001" transform="translate(-1.6969 1.604) rotate(-33.4923)"/><rect x="2.0976" y="3.9085" width="0.217" height="0.6019" transform="translate(-1.9569 1.9168) rotate(-33.4993)"/><polygon points="2.402 3.719 2.013 3.132 1.832 3.252 2.221 3.839 2.293 3.948 2.553 4.341 2.734 4.221 2.474 3.829 2.402 3.719"/><rect x="5.9387" y="0.5051" width="0.217" height="0.6001" transform="translate(0.5601 3.4714) rotate(-33.4994)"/><rect x="6.3278" y="1.092" width="0.2169" height="0.6019" transform="translate(0.3004 3.7838) rotate(-33.5)"/><polygon points="5.851 1.295 6.241 1.883 6.422 1.763 6.032 1.175 5.999 1.124 5.701 0.675 5.52 0.794 5.818 1.244 5.851 1.295"/><rect x="5.3966" y="0.864" width="0.217" height="0.6001" transform="translate(0.2718 3.2313) rotate(-33.4941)"/><rect x="5.7856" y="1.4508" width="0.217" height="0.6019" transform="translate(0.0122 3.5441) rotate(-33.4992)"/><rect x="5.7472" y="4.2811" width="0.6001" height="0.217" transform="translate(-0.9509 7.0095) rotate(-56.5003)"/><rect x="6.1353" y="3.6934" width="0.6019" height="0.2169" transform="translate(-0.286 7.0715) rotate(-56.5077)"/><rect x="5.4761" y="4.1017" width="0.6001" height="0.2169" transform="translate(-0.9227 6.7031) rotate(-56.5006)"/><rect x="5.8642" y="3.514" width="0.6019" height="0.217" transform="translate(-0.2591 6.7625) rotate(-56.4857)"/><rect x="5.2051" y="3.9223" width="0.6001" height="0.217" transform="translate(-0.8949 6.3959) rotate(-56.4926)"/><rect x="5.5932" y="3.3345" width="0.6019" height="0.2171" transform="matrix(0.5519, -0.8339, 0.8339, 0.5519, -0.2301, 6.4578)"/></svg>