<svg xmlns="http://www.w3.org/2000/svg" viewBox="0 0 7.9818 5.1882"><rect y="1.0592" width="7.9818" height="3.0578" fill="#9f090b"/><rect width="7.9818" height="0.9729" fill="#4563b3"/><path d="M5.9828,2.3729a.0376.0376,0,0,0,0-.0751H5.9446a.0748.0748,0,0,1,0,.0751Z" fill="#f9d40b"/><path d="M6.2091,2.1477h.0272a.0638.0638,0,0,0,0-.0731H6.2092a.0626.0626,0,0,1,0,.0731Z" fill="#f9d40b"/><path d="M2.5845,2.138l.0711-.0634h-.935a.0366.0366,0,1,0,0,.0731h.8532Z" fill="#f9d40b"/><path d="M6.0315,2.3354a.0488.0488,0,0,1-.0286.0442l.1843.0643.3033-.1085L6.1872,2.23l-.1839.0617A.0486.0486,0,0,1,6.0315,2.3354Z" fill="#fff"/><path d="M6.2892,2.1477a.0366.0366,0,0,0,0-.0731h-.04a.0744.0744,0,0,1,0,.0731Z" fill="#f9d40b"/><path d="M6.3369,2.1112a.0479.0479,0,0,1-.0276.0432l.1831.0634.3068-.1067-.3093-.11-.1811.0667A.0478.0478,0,0,1,6.3369,2.1112Z" fill="#fff"/><path d="M3.8784,1.6261a.2341.2341,0,0,0-.0475.1386.2233.2233,0,0,0,.0482.1194l.0118.0132a.1041.1041,0,0,1,.0262.0392.0889.0889,0,0,1,.0041.0464.0327.0327,0,0,0,.0027.0241c.0093.0146.0295.0148.0528.0151a.093.093,0,0,1,.074.0225.0619.0619,0,0,1,.0138.0354.0657.0657,0,0,0,.0158.0388.0558.0558,0,0,0,.03.0183.07.07,0,0,1,.0279.0145c.04.0352.0333.1086.0228.22l-.0025.0242a.1291.1291,0,0,0,.0022.0631.1718.1718,0,0,0,.0195.0378v-.293h.088v.2956H4.1818a.0957.0957,0,0,0,.0526.0394.1037.1037,0,0,0,.0215.0025.04.04,0,0,1,.0305.01.0566.0566,0,0,1,.0088.0537c-.007.0227-.0235.0314-.0443.0423a.2515.2515,0,0,0-.04.0247.2171.2171,0,0,0-.0233.0209h.0807v.2956H4.18V2.7a.2048.2048,0,0,0-.053.1118.166.166,0,0,0,.0009.0369.0837.0837,0,0,1-.0058.05.1677.1677,0,0,1-.0547.06.3184.3184,0,0,1-.0364.0251.1256.1256,0,0,0-.0348.0277.0936.0936,0,0,0-.0268.0433c-.0022.034.0794.0655.1513.0932s.1326.0511.1316.0808c-.0012.033-.0774.05-.1655.07-.0746.0166-.1592.0355-.1607.0613-.0012.0223.0651.0455.1353.07.1215.0426.2878.101.3088.2147l.0022.02a1.8145,1.8145,0,0,0,.5056-.1971,2.8429,2.8429,0,0,0,.6763-.5722l.0031-.0036a3.0424,3.0424,0,0,1,.2073-.2241c.0257-.0252.052-.05.0783-.0741-.0677-.0689-.1364-.1395-.2044-.21h0v0L5.6342,2.38c-.0888-.0921-.1492-.156-.1892-.1983L5.4062,2.14a2.3879,2.3879,0,0,0-.5782-.4357,1.7384,1.7384,0,0,0-.8349-.2217A.591.591,0,0,0,3.8784,1.6261Zm1.2094.5772h.0881v.2956H5.0878Zm0,.4892h.0881v.2956H5.0878Zm-.1815-.4892h.088v.2956h-.088Zm0,.4892h.088v.2956h-.088Zm-.1816-.4892h.088v.2956h-.088Zm0,.4892h.088v.2956h-.088Zm-.1816-.4892h.088v.2956h-.088Zm0,.4892h.088v.2956h-.088Zm-.1816-.4892H4.45v.2956h-.088Zm0,.4892H4.45v.2956h-.088Z" fill="#fff"/><path d="M6.1673,2.1477h.0275a.052.052,0,0,0,0-.0731H6.1673a.062.062,0,0,1,0,.0731Z" fill="#f9d40b"/><path d="M3.1419,2.0338a.0733.0733,0,0,0,.029-.0254l.0053-.009.0049-.0013.0015.0049-.0053.0092a.1743.1743,0,0,0-.0215.0975.163.163,0,0,0,.0123.0493.067.067,0,0,0,.03-.0452l.0032-.0031.0039.0022a.5075.5075,0,0,0,.0508.09l.0007.001.0235.03.017.02.0273-.0528L3.3278,2.2l.0032.0025a.2765.2765,0,0,0,.0269.0542l.0157.0222a.2848.2848,0,0,0,.0634.0594l.0193-.05.0029-.0024H3.46l.0019.0006.0011.0008a.3137.3137,0,0,0,.0537.0537.3089.3089,0,0,0,.0388.026.3323.3323,0,0,0,.088.0344l.0092.002a.1592.1592,0,0,1,.0015-.0891l.0071-.0175a.132.132,0,0,0,.0113-.035.1344.1344,0,0,0-.0037-.0571L3.67,2.2h.0042l.0625.0442V2.226l-.0051-.0185a.3992.3992,0,0,0-.0211-.0525c-.0071-.0152-.01-.0214-.0055-.025s.013.0028.03.019c.011.01.0313.03.0368.027.0081-.0046-.0021-.0605-.0336-.1173a.3987.3987,0,0,0-.039-.0568c-.0114-.0144-.0166-.0209-.0125-.0263s.0093-.0122.1093.0486a.3067.3067,0,0,0-.0672-.178.3609.3609,0,0,0-.269-.1173l-.0017,0a.07.07,0,0,1-.06-.0106.0439.0439,0,0,1-.01-.02l-.006-.0111c-.0047-.0026-.02-.004-.0645.04h0a.6377.6377,0,0,0-.1908.2807l-.0087.0324A.0721.0721,0,0,0,3.1419,2.0338Zm.4133.2926-.02-.0249c-.0165-.0222-.0532-.0718-.0383-.0926A.024.024,0,0,1,3.5178,2.2c.0171.0018.0279.024.0374.0476l.0071.0179a.7722.7722,0,0,0,.063.1236A.411.411,0,0,1,3.5552,2.3264Zm.1615-.2015A.2092.2092,0,0,1,3.6314,2.11a.2121.2121,0,0,1-.09-.0742c-.006-.0089-.0222-.033-.0149-.042.0055-.0067.0216-.002.0285,0a.2035.2035,0,0,1,.0864.0692A.4164.4164,0,0,0,3.7167,2.1249ZM3.45,1.8321c.0132-.0164.1.0314.1593.0642.0364.02.0657.0382.0852.0507-.0294.0025-.1668.0117-.2273-.07C3.4641,1.8724,3.4418,1.8421,3.45,1.8321Zm-.0482.2384c.0047-.0064.0157-.0169.0259-.0148.0244.0051.0421.0807.0214.1476a.1771.1771,0,0,1-.0113.0279.1689.1689,0,0,1-.0335.0444c-.0006-.0113-.0012-.0285-.0013-.0494l0-.0229c0-.0134.0011-.0183.001-.0315C3.4033,2.1115,3.3864,2.0911,3.4017,2.0705Zm-.1285.047c.0087-.0454.0155-.051.021-.0791.0084-.0423,0-.0625.01-.1319.0015-.01.004-.0251.0122-.0275.0105-.0029.0251.0156.0317.0267a.1533.1533,0,0,1-.007.1253.3835.3835,0,0,1-.0741.126C3.2681,2.1479,3.27,2.1341,3.2732,2.1175Z" fill="#4563b3"/><path d="M5.8624,2.3729H5.89a.0523.0523,0,0,0,0-.0751H5.8624a.0635.0635,0,0,1,.0126.036A.0626.0626,0,0,1,5.8624,2.3729Z" fill="#f9d40b"/><path d="M5.859,2.5946l-.0043.0038Q5.827,2.6236,5.8,2.65h.7772l.0356-.03a.7571.7571,0,0,1,.1133-.0772l.0065.0009.0012.0065a.0524.0524,0,0,0-.0056.0215.0533.0533,0,0,0,.0012.0138.6007.6007,0,0,1,.247.0658V2.65h.1378a.0558.0558,0,0,0,0-.1116h-1.31l.0511.0521Z" fill="#f9d40b"/><path d="M2.123,2.5944l.0035-.0038.0483-.0523H.9208a.0558.0558,0,1,0,0,.1116h.1378v0l.0046-.0044.0007,0A.1074.1074,0,0,1,1.1,2.6327a.1087.1087,0,0,1,.0322-.0007A.03.03,0,0,1,1.13,2.6092a.0323.0323,0,0,1,.0168-.0183l.0033,0,.0019.0028a.0233.0233,0,0,0,.0464,0l.0037-.0351.002-.0029h.0036a.4852.4852,0,0,0,.0582.03.3014.3014,0,0,0,.0755.0254.13.13,0,0,0,.0639-.0067.1294.1294,0,0,1,.047-.0079.1567.1567,0,0,1,.1027.0534v0h.6213l-.05-.0517Z" fill="#f9d40b"/><path d="M5.9042,2.3729h.0272a.0639.0639,0,0,0,0-.0751H5.9042a.0626.0626,0,0,1,0,.0751Z" fill="#f9d40b"/><path d="M1.5554,2.661h0v0a.1547.1547,0,0,0-.1029-.0566.1229.1229,0,0,0-.0446.0076.1347.1347,0,0,1-.0672.0069.3046.3046,0,0,1-.0773-.0259.51.51,0,0,1-.0542-.0275l-.0031.0294a.0306.0306,0,0,1-.06.0054.023.023,0,0,0-.0087.0115.0256.0256,0,0,0,.0049.0229l0,.0043-.004.0018A.1028.1028,0,0,0,1.101,2.64a.1009.1009,0,0,0-.033.0117l-.0094.009v0h0a.4762.4762,0,0,0-.06.0725.4705.4705,0,0,0-.0727.185.06.06,0,0,0,.0266-.0121.0614.0614,0,0,0,.0169-.0209l.0043-.0019.0027.004a.3408.3408,0,0,0-.0006.0782.3366.3366,0,0,0,.01.0544.2439.2439,0,0,0,.02-.0287.239.239,0,0,0,.0207-.0451L1.03,2.944l.0032.0034a.6243.6243,0,0,0,.0135.0933c.0031.0137.0066.0273.0107.0408a.06.06,0,0,1,.0111-.0273.062.062,0,0,1,.0184-.0165l.0047.0008a.2084.2084,0,0,1,.05.101.1351.1351,0,0,0,.01.0327.1389.1389,0,0,0,.06.06l.0051-.0133a.1069.1069,0,0,1,.0179-.0269l.0026-.0012h0l.0025.001a.2317.2317,0,0,0,.0858.0519.0406.0406,0,0,1,.0012-.0388.0392.0392,0,0,1,.02-.0157A.1632.1632,0,0,0,1.439,3.116l.0049-.0088.0049-.0008.0013.0048-.0044.0081a.022.022,0,0,0-.0008.0116l.002.0054a.3893.3893,0,0,0,.0269-.0458.3848.3848,0,0,0,.0306-.0856l.0037-.0029.0036.0032a.0118.0118,0,0,0,.0075.0094L1.53,3.0131c.0033-.0307.0053-.0619.006-.0927A1.08,1.08,0,0,0,1.53,2.78l.0032-.004.0042.0031a.0354.0354,0,0,0,.0144.0234l.01.0044a.361.361,0,0,0,.006-.0485.355.355,0,0,0-.0065-.09Zm-.5218.2706a.9181.9181,0,0,0,.0494-.089.35.35,0,0,0,.02-.046c.0138-.0449.0049-.071.0229-.0824a.0285.0285,0,0,1,.0309,0c.0133.01.008.0366.0037.0568a.22.22,0,0,1-.0507.1038A.2316.2316,0,0,1,1.0336,2.9316ZM1.188,3a.1534.1534,0,0,1-.06.0667.5038.5038,0,0,0,.0272-.0951c.01-.0549.0077-.0933.0185-.0951.0087-.0014.02.0216.0247.0371A.1209.1209,0,0,1,1.188,3Zm.0939.084c-.0141.04-.04.0745-.0457.0717s.012-.0289.0161-.0754c.005-.0571-.0139-.092-.0013-.0988.0085-.0046.0249.0067.0334.0185A.0937.0937,0,0,1,1.2819,3.0835Zm.12-.0716a.2285.2285,0,0,1-.089-.08c-.017-.0237-.03-.0426-.0235-.0581A.024.024,0,0,1,1.3054,2.86c.0134-.0023.0291.0119.07.0766.0137.0215.0313.05.0507.0853Zm-.0062-.1767a.2747.2747,0,0,1-.0877-.063c-.0242-.0237-.0506-.05-.0433-.0692A.0222.0222,0,0,1,1.28,2.69c.019-.0046.0328.0264.0778.07.0093.0091.0035.0026.0716.0617l.0383.0334A.2621.2621,0,0,1,1.3956,2.8352Z" fill="#4563b3"/><path d="M2.4122,2.2978H1.426a.0376.0376,0,0,0,0,.0751h.91Q2.3734,2.3351,2.4122,2.2978Z" fill="#f9d40b"/><path d="M5.4286,2.1477h.7243a.0515.0515,0,0,0,0-.0731H5.3561c.02.0192.0394.0386.0581.058Z" fill="#f9d40b"/><path d="M6.7193,2.5922a.064.064,0,0,1-.0027-.0213L6.7181,2.56a.7376.7376,0,0,0-.0987.0687c-.0116.01-.0245.02-.0381.0324v0h0a.4766.4766,0,0,0-.1494.2481.0688.0688,0,0,0,.0543-.0449l.0066-.0035.0041.0063a.3967.3967,0,0,0,.0457.26l.0753-.0544.0032-.0011.0043.002c.0387.0471.0793.0936.1209.1381.0221.0238.045.0475.0679.0705a.4485.4485,0,0,1,.0382-.0734.4394.4394,0,0,1,.0488-.0625l.0047-.0018.0042.0028a.11.11,0,0,1,.01.0247l.0017.0069A.2962.2962,0,0,0,6.938,3.14.3057.3057,0,0,0,6.95,3.0865l.004-.0046.0059.002a.1734.1734,0,0,0,.0251.0263.1648.1648,0,0,0,.0238.0168l-.0045-.11.0033-.0054.0061.0012a.1125.1125,0,0,0,.0236.0176l.0073.0037-.0032-.0653L7.039,2.912l.0035-.0054.0062.0016a.1337.1337,0,0,0,.025.0225l.021.012a.6334.6334,0,0,1-.02-.0662c-.0045-.0177-.0082-.0359-.0111-.054l.0021-.0052.0055-.0008.0174.01.0082.0074A.22.22,0,0,0,7.08,2.7752c-.0746-.17-.3441-.1787-.3555-.179Zm-.1167.38a.2492.2492,0,0,1-.0778.0509.41.41,0,0,0,.0574-.0917c.02-.0453.0263-.0807.0426-.0816.0115-.0006.0233.016.0269.0306C6.66,2.916,6.6241,2.9514,6.6026,2.9724Zm.11.113a.0966.0966,0,0,1-.0315.0417.0992.0992,0,0,0,.0055-.06c-.0061-.0247-.0218-.0377-.0157-.0556.0029-.0087.0105-.0175.0185-.0176.015,0,.0247.03.0259.0342A.09.09,0,0,1,6.7129,3.0854Zm.1639-.0639a.093.093,0,0,1-.04-.0343c-.0177-.0222-.0291-.0365-.0278-.0556.0007-.01.0052-.025.0139-.0269s.0158.0075.02.013a.139.139,0,0,1,.0232.0556.1353.1353,0,0,0,.0342.0528A.0733.0733,0,0,1,6.8768,3.0215Zm-.0713-.2428c.0084-.002.0142.0085.0426.0324l.026.02a.3671.3671,0,0,0,.0555.0343.1031.1031,0,0,1-.0435.0046.1257.1257,0,0,1-.0519-.02c-.0263-.0149-.04-.0223-.0426-.037S6.7958,2.781,6.8055,2.7787Zm-.0269.2326c.0068-.0038.0187.006.02.0074a.0915.0915,0,0,1,.0232.0658.1636.1636,0,0,1-.0019.0667.14.14,0,0,1-.0278.0528.2554.2554,0,0,0,.0056-.0593.1861.1861,0,0,0-.0056-.0482.2648.2648,0,0,1-.0185-.0686C6.7738,3.0215,6.7741,3.0138,6.7786,3.0113Z" fill="#4563b3"/><path d="M5.6432,2.3729h.2045a.0538.0538,0,0,0,.0162-.0388.0531.0531,0,0,0-.0162-.0363H5.5711l.0711.074Z" fill="#f9d40b"/><rect y="4.2158" width="7.9818" height="0.9724" fill="#4563b3"/><path d="M3.7413,2.2477,3.7368,2.226v.0185Z" fill="#fff"/><path d="M3.8248,2.2033H3.7381l.0006.002a.3172.3172,0,0,1,.0113.05l-.0017.0037H3.7442l-.0074-.0053v.2453h.088Z" fill="#fff"/><path d="M3.6432,2.4086a.345.345,0,0,1-.088-.0335v.1238h.088Z" fill="#fff"/><path d="M3.4616,2.2974l-.0007-.0009-.0187.0484L3.44,2.3471l-.0032-.0005A.2939.2939,0,0,1,3.3736,2.29v.2087h.088Z" fill="#fff"/><path d="M3.28,2.2463c-.01-.0121-.02-.0247-.03-.0377l-.0036-.0053H3.192v.2956H3.28Z" fill="#fff"/><rect x="3.0104" y="2.2033" width="0.088" height="0.2956" fill="#fff"/><rect x="2.8288" y="2.2033" width="0.088" height="0.2956" fill="#fff"/><rect x="3.7368" y="2.6925" width="0.088" height="0.2956" fill="#fff"/><rect x="3.5552" y="2.6925" width="0.088" height="0.2956" fill="#fff"/><rect x="3.3736" y="2.6925" width="0.088" height="0.2956" fill="#fff"/><rect x="3.192" y="2.6925" width="0.088" height="0.2956" fill="#fff"/><rect x="3.0104" y="2.6925" width="0.088" height="0.2956" fill="#fff"/><rect x="2.8288" y="2.6925" width="0.088" height="0.2956" fill="#fff"/><path d="M3.3481,1.9057c-.0066-.0111-.0212-.03-.0317-.0267-.0082.0024-.0107.0173-.0122.0275-.01.0694-.0016.09-.01.1319-.0055.0281-.0123.0337-.021.0791-.0032.0166-.0051.03-.0062.0395a.3835.3835,0,0,0,.0741-.126A.1533.1533,0,0,0,3.3481,1.9057Z" fill="#9f090b"/><path d="M3.4032,2.2033l0,.0229c0,.0209.0007.0381.0013.0494a.1689.1689,0,0,0,.0335-.0444.1771.1771,0,0,0,.0113-.0279c.0207-.0669.003-.1425-.0214-.1476-.01-.0021-.0212.0084-.0259.0148-.0153.0206.0016.041.0025.1013C3.4043,2.185,3.4036,2.19,3.4032,2.2033Z" fill="#9f090b"/><path d="M3.5552,2.2478c-.01-.0236-.02-.0458-.0374-.0476a.024.024,0,0,0-.021.0087c-.0149.0208.0218.07.0383.0926l.02.0249a.411.411,0,0,0,.07.0629.7722.7722,0,0,1-.063-.1236Z" fill="#9f090b"/><path d="M3.5549,1.9939c-.0069-.002-.023-.0067-.0285,0-.0073.009.0089.0331.0149.042a.2121.2121,0,0,0,.09.0742.2092.2092,0,0,0,.0853.0148.4164.4164,0,0,1-.0754-.0618A.2035.2035,0,0,0,3.5549,1.9939Z" fill="#9f090b"/><path d="M3.6944,1.947c-.0195-.0125-.0488-.0306-.0852-.0507-.0595-.0328-.1461-.0806-.1593-.0642-.0081.01.0142.04.0172.0445C3.5276,1.9587,3.665,1.95,3.6944,1.947Z" fill="#9f090b"/><path d="M1.1572,2.7142a.0285.0285,0,0,0-.0309,0c-.018.0114-.0091.0375-.0229.0824a.35.35,0,0,1-.02.046.9181.9181,0,0,1-.0494.089A.2316.2316,0,0,0,1.11,2.8748a.22.22,0,0,0,.0507-.1038C1.1652,2.7508,1.1705,2.7244,1.1572,2.7142Z" fill="#9f090b"/><path d="M1.3573,2.76c-.045-.044-.0588-.075-.0778-.07a.0222.0222,0,0,0-.0149.0135c-.0073.02.0191.0455.0433.0692a.2747.2747,0,0,0,.0877.063.2621.2621,0,0,0,.0716.02l-.0383-.0334C1.3608,2.7625,1.3666,2.769,1.3573,2.76Z" fill="#9f090b"/><path d="M1.3054,2.86a.024.024,0,0,0-.0161.0136c-.0069.0155.0065.0344.0235.0581a.2285.2285,0,0,0,.089.08l.0247.01c-.0194-.035-.037-.0638-.0507-.0853C1.3345,2.8718,1.3188,2.8576,1.3054,2.86Z" fill="#9f090b"/><path d="M1.1732,2.876c-.0108.0018-.0085.04-.0185.0951a.5038.5038,0,0,1-.0272.0951A.1534.1534,0,0,0,1.188,3a.1209.1209,0,0,0,.01-.0864C1.1932,2.8976,1.1819,2.8746,1.1732,2.876Z" fill="#9f090b"/><path d="M1.251,2.981c-.0126.0068.0063.0417.0013.0988-.0041.0465-.021.073-.0161.0754s.0316-.0313.0457-.0717A.0937.0937,0,0,0,1.2844,3C1.2759,2.9877,1.26,2.9764,1.251,2.981Z" fill="#9f090b"/><path d="M.9208,2.5272a.0669.0669,0,0,0,0,.1338h.1271a.4657.4657,0,0,0-.0556.0684.4779.4779,0,0,0-.0747.193l.0009.0031.0031.0011a.07.07,0,0,0,.0353-.0143l.01-.01a.3485.3485,0,0,0,.0009.0646.3432.3432,0,0,0,.0125.0624l.0028.0026L.987,3.03a.241.241,0,0,0,.0251-.0351.2535.2535,0,0,0,.0155-.0308.6161.6161,0,0,0,.0123.0779.6257.6257,0,0,0,.0186.0659l.0045.0024.0027-.0043a.061.061,0,0,1,.0092-.0477.0557.0557,0,0,1,.0136-.0129.2093.2093,0,0,1,.0344.0553.2058.2058,0,0,1,.0118.04.1448.1448,0,0,0,.01.0343.1488.1488,0,0,0,.067.0659l.0033,0,.0021-.0025.0059-.0167A.1.1,0,0,1,1.2377,3.2a.2395.2395,0,0,0,.0951.0539h.001l.003-.0015V3.2481a.0352.0352,0,0,1-.0035-.0391A.0311.0311,0,0,1,1.35,3.1964a.1717.1717,0,0,0,.0568-.0309.1762.1762,0,0,0,.031-.0335v0l.0063.0127.003.0013L1.45,3.145a.395.395,0,0,0,.03-.0512.39.39,0,0,0,.0288-.0773l.0074.005a.019.019,0,0,0,.02-.0038l.0012-.0023c.0034-.0314.0055-.0633.0062-.0949a1.1031,1.1031,0,0,0-.004-.1191l.0081.0073a.0391.0391,0,0,0,.0171.0061l.0041-.0029a.38.38,0,0,0,.0068-.0531.3672.3672,0,0,0-.0068-.0929l-.0009-.0017L1.5654,2.661h.622c.0864.0884.1755.1756.2659.26a4.161,4.161,0,0,0,.56.4747,2.073,2.073,0,0,0,.3584.1913,1.6962,1.6962,0,0,0,.6193.1283l.0233,0a1.7446,1.7446,0,0,0,.8691-.2378,2.8524,2.8524,0,0,0,.6794-.5748l.0031-.0036c.064-.0766.1335-.1517.2066-.2233l.0155-.0151h.7766a.4855.4855,0,0,0-.1455.2533l.0012.0048.0045.002a.0826.0826,0,0,0,.0491-.02l.0082-.0084a.405.405,0,0,0,.0011.09.41.41,0,0,0,.0526.1553l.0037.0027.0044-.001.0761-.055c.0377.0459.0774.0912.1179.1346.0242.0259.0492.0518.0743.0767l.0039.0017.0012,0,.004-.0034a.4343.4343,0,0,1,.04-.0793A.4511.4511,0,0,1,6.9037,3.16l.0058.0154.0035.0222.0042.0052L6.9234,3.2a.3087.3087,0,0,0,.0251-.0567A.3023.3023,0,0,0,6.9592,3.1l.0187.0183a.1838.1838,0,0,0,.0344.0229l.0056,0L7.02,3.1364,7.016,3.03l.0159.0106.0169.0078.0052-.0008.0023-.0047-.0037-.0741-.0019-.0421.0166.0136a.1466.1466,0,0,0,.0353.0179l.0059-.0014L7.11,2.9505a.64.64,0,0,1-.0247-.0767c-.0034-.0139-.0065-.028-.009-.0422l.0054.0037a.0633.0633,0,0,1,.0176.0211l.0064.0027.0041-.0056A.2368.2368,0,0,0,7.09,2.7707a.2516.2516,0,0,0-.0975-.11h.1211a.0669.0669,0,0,0,0-.1338H5.793C5.7467,2.48,5.7,2.4319,5.6539,2.384h.328l.2054.0717.3366-.12-.3366-.1175-.2054.0689H5.5605c-.0461-.0482-.0812-.0854-.1074-.1131l-.014-.0147h.8491l.2042.0707.34-.1184L6.49,1.9893l-.2017.0742H5.3444a2.4087,2.4087,0,0,0-.5112-.3687,1.7487,1.7487,0,0,0-.8363-.2231h-.006a1.7647,1.7647,0,0,0-.8862.2564,2.4922,2.4922,0,0,0-.4366.3353H1.7206a.0477.0477,0,0,0,0,.0954h.8408q-.07.0629-.1376.1278H1.426a.0487.0487,0,0,0,0,.0973h.8983q-.0708.0707-.139.1432Zm1.996.1653v.2956h-.088V2.6925Zm-.088-.1936V2.2033h.088v.2956Zm.27.1936v.2956H3.01V2.6925ZM3.01,2.4989V2.2033h.088v.2956Zm.1816.1936H3.28v.2956H3.192Zm0-.1936V2.2033h.0548l.0036.0053c.0092.013.0192.0256.03.0377v.2526Zm.1816.1936h.088v.2956h-.088Zm0-.1936V2.29a.2939.2939,0,0,0,.0631.0564l.0032.0005.0023-.0022.0187-.0484.0007.0009v.2015Zm.1816.1936h.088v.2956h-.088Zm0-.1936V2.3751a.345.345,0,0,0,.088.0335v.09Zm.1816.1936h.088v.2956h-.088Zm0-.1936V2.2536l.0074.0053h.0041L3.75,2.2553a.3172.3172,0,0,0-.0113-.05l-.0006-.002h.0867v.2956Zm-.42-.7714h0c.0441-.0444.06-.043.0645-.04l.006.0111a.0439.0439,0,0,0,.01.02.07.07,0,0,0,.06.0106l.0017,0a.3609.3609,0,0,1,.269.1173.3067.3067,0,0,1,.0672.178c-.1-.0608-.1058-.0532-.1093-.0486s.0011.0119.0125.0263a.3987.3987,0,0,1,.039.0568c.0315.0568.0417.1127.0336.1173-.0055.0031-.0258-.0165-.0368-.027-.0168-.0162-.0244-.0232-.03-.019s-.0016.01.0055.025a.3992.3992,0,0,1,.0211.0525l.0051.0185.0045.0217-.0045-.0032L3.6743,2.2H3.67l-.0015.004a.1344.1344,0,0,1,.0037.0571.132.132,0,0,1-.0113.035l-.0071.0175a.1592.1592,0,0,0-.0015.0891l-.0092-.002a.3323.3323,0,0,1-.088-.0344.3089.3089,0,0,1-.0388-.026.3137.3137,0,0,1-.0537-.0537l-.0011-.0008L3.46,2.2855H3.4592l-.0029.0024-.0193.05a.2848.2848,0,0,1-.0634-.0594l-.0157-.0222a.2765.2765,0,0,1-.0269-.0542L3.3278,2.2l-.0035.002-.0273.0528-.017-.02-.0235-.03-.0007-.001a.5075.5075,0,0,1-.0508-.09l-.0039-.0022-.0032.0031a.067.067,0,0,1-.03.0452A.163.163,0,0,1,3.1558,2.11a.1743.1743,0,0,1,.0215-.0975l.0053-.0092-.0015-.0049-.0049.0013-.0053.009a.0733.0733,0,0,1-.029.0254.0721.0721,0,0,1-.0246.0068l.0087-.0324A.6377.6377,0,0,1,3.3168,1.7275ZM1.5685,2.7584a.361.361,0,0,1-.006.0485l-.01-.0044a.0354.0354,0,0,1-.0144-.0234L1.5334,2.776,1.53,2.78a1.08,1.08,0,0,1,.0062.14c-.0007.0308-.0027.062-.006.0927l-.0112.0015a.0118.0118,0,0,1-.0075-.0094L1.5081,3.002l-.0037.0029a.3848.3848,0,0,1-.0306.0856.3893.3893,0,0,1-.0269.0458l-.002-.0054a.022.022,0,0,1,.0008-.0116L1.45,3.1112l-.0013-.0048-.0049.0008L1.439,3.116a.1632.1632,0,0,1-.0916.0734.0392.0392,0,0,0-.02.0157.0406.0406,0,0,0-.0012.0388A.2317.2317,0,0,1,1.24,3.192l-.0025-.001h0l-.0026.0012a.1069.1069,0,0,0-.0179.0269l-.0051.0133a.1389.1389,0,0,1-.06-.06.1351.1351,0,0,1-.01-.0327.2084.2084,0,0,0-.05-.101l-.0047-.0008a.062.062,0,0,0-.0184.0165.06.06,0,0,0-.0111.0273c-.0041-.0135-.0076-.0271-.0107-.0408a.6243.6243,0,0,1-.0135-.0933L1.03,2.944l-.004.0024a.239.239,0,0,1-.0207.0451.2439.2439,0,0,1-.02.0287.3366.3366,0,0,1-.01-.0544.3408.3408,0,0,1,.0006-.0782l-.0027-.004-.0043.0019a.0614.0614,0,0,1-.0169.0209.06.06,0,0,1-.0266.0121.4705.4705,0,0,1,.0727-.185.4762.4762,0,0,1,.06-.0725h0v0l.0094-.009A.1009.1009,0,0,1,1.101,2.64a.1028.1028,0,0,1,.0375.0006l.004-.0018,0-.0043a.0256.0256,0,0,1-.0049-.0229A.023.023,0,0,1,1.1459,2.6a.0306.0306,0,0,0,.06-.0054l.0031-.0294a.51.51,0,0,0,.0542.0275.3046.3046,0,0,0,.0773.0259.1347.1347,0,0,0,.0672-.0069.1229.1229,0,0,1,.0446-.0076.1547.1547,0,0,1,.1029.0566v0h0l.0066.0073A.355.355,0,0,1,1.5685,2.7584ZM1.5552,2.65v0a.1567.1567,0,0,0-.1027-.0534.1294.1294,0,0,0-.047.0079.13.13,0,0,1-.0639.0067.3014.3014,0,0,1-.0755-.0254.4852.4852,0,0,1-.0582-.03H1.2043l-.002.0029-.0037.0351a.0233.0233,0,0,1-.0464,0L1.15,2.5911l-.0033,0a.0323.0323,0,0,0-.0168.0183.03.03,0,0,0,.0017.0228A.1087.1087,0,0,0,1.1,2.6327a.1074.1074,0,0,0-.0358.0128l-.0007,0L1.0586,2.65v0H.9208a.0558.0558,0,1,1,0-.1116h1.254l-.0483.0523-.0035.0038.0036.0038.05.0517ZM7.08,2.7752a.22.22,0,0,1,.0163.0587l-.0082-.0074-.0174-.01-.0055.0008-.0021.0052c.0029.0181.0066.0363.0111.054a.6334.6334,0,0,0,.02.0662l-.021-.012a.1337.1337,0,0,1-.025-.0225l-.0062-.0016L7.039,2.912l.0025.0569.0032.0653-.0073-.0037a.1125.1125,0,0,1-.0236-.0176l-.0061-.0012-.0033.0054.0045.11A.1648.1648,0,0,1,6.9851,3.11.1734.1734,0,0,1,6.96,3.0839l-.0059-.002-.004.0046A.3057.3057,0,0,1,6.938,3.14a.2962.2962,0,0,1-.0161.0392L6.92,3.1722a.11.11,0,0,0-.01-.0247l-.0042-.0028-.0047.0018a.4394.4394,0,0,0-.0488.0625.4485.4485,0,0,0-.0382.0734c-.0229-.023-.0458-.0467-.0679-.07-.0416-.0445-.0822-.091-.1209-.1381l-.0043-.002-.0032.0011-.0753.0544a.3967.3967,0,0,1-.0457-.26l-.0041-.0063-.0066.0035a.0688.0688,0,0,1-.0543.0449A.4766.4766,0,0,1,6.581,2.661h0v0c.0136-.0122.0265-.0229.0381-.0324A.7376.7376,0,0,1,6.7181,2.56l-.0015.0113a.064.064,0,0,0,.0027.0213l.0052.004C6.7359,2.5965,7.0054,2.6053,7.08,2.7752Zm.0337-.2369a.0558.0558,0,0,1,0,.1116H6.9759V2.651a.6007.6007,0,0,0-.247-.0658.0533.0533,0,0,1-.0012-.0138A.0524.0524,0,0,1,6.7333,2.55l-.0012-.0065-.0065-.0009a.7571.7571,0,0,0-.1133.0772l-.0356.03H5.8q.0274-.0263.0552-.0515l.0043-.0038L5.8549,2.59l-.0511-.0521ZM6.1872,2.23l.3033.1058-.3033.1085L6.0029,2.38a.0485.0485,0,0,0,0-.0883Zm-.2426.0682h.0382a.0376.0376,0,0,1,0,.0751H5.9446a.0748.0748,0,0,0,0-.0751Zm-.0132,0a.0639.0639,0,0,1,0,.0751H5.9042a.0626.0626,0,0,0,0-.0751Zm-.0417,0a.0523.0523,0,0,1,0,.0751H5.8624a.0626.0626,0,0,0,.0126-.0391.0635.0635,0,0,0-.0126-.036Zm-.042,0a.0531.0531,0,0,1,.0162.0363.0538.0538,0,0,1-.0162.0388H5.6432l-.001-.0011-.0711-.074ZM6.49,2.0011l.3093.11-.3068.1067-.1831-.0634a.0476.0476,0,0,0-.0005-.0866Zm-.2406.0735h.04a.0366.0366,0,0,1,0,.0731h-.04a.0744.0744,0,0,0,0-.0731Zm-.013,0a.0638.0638,0,0,1,0,.0731H6.2091a.0626.0626,0,0,0,0-.0731Zm-.0415,0a.052.052,0,0,1,0,.0731H6.1673a.062.062,0,0,0,0-.0731Zm-.0419,0a.0515.0515,0,0,1,0,.0731H5.4286l-.0144-.0151c-.0187-.0194-.0381-.0388-.0581-.058Zm-2.16-.5917a1.7384,1.7384,0,0,1,.8349.2217,2.3879,2.3879,0,0,1,.5782.4357l.0388.0409c.04.0423.1.1062.1892.1983l.004.0042v0h0c.068.0706.1367.1412.2044.21-.0263.024-.0526.0489-.0783.0741a3.0424,3.0424,0,0,0-.2073.2241l-.0031.0036a2.8429,2.8429,0,0,1-.6763.5722,1.8145,1.8145,0,0,1-.5056.1971l-.0022-.02c-.021-.1137-.1873-.1721-.3088-.2147-.07-.0247-.1365-.0479-.1353-.07.0015-.0258.0861-.0447.1607-.0613.0881-.02.1643-.0368.1655-.07.001-.03-.06-.0534-.1316-.0808s-.1535-.0592-.1513-.0932a.0936.0936,0,0,1,.0268-.0433.1256.1256,0,0,1,.0348-.0277.3184.3184,0,0,0,.0364-.0251.1677.1677,0,0,0,.0547-.06.0837.0837,0,0,0,.0058-.05.166.166,0,0,1-.0009-.0369A.2048.2048,0,0,1,4.18,2.7v.2877h.088V2.6925H4.1872a.2171.2171,0,0,1,.0233-.0209.2515.2515,0,0,1,.04-.0247c.0208-.0109.0373-.02.0443-.0423a.0566.0566,0,0,0-.0088-.0537.04.04,0,0,0-.0305-.01.1037.1037,0,0,1-.0215-.0025.0957.0957,0,0,1-.0526-.0394h.0861V2.2033H4.18v.293A.1718.1718,0,0,1,4.16,2.4585a.1291.1291,0,0,1-.0022-.0631l.0025-.0242c.01-.111.0175-.1844-.0228-.22A.07.07,0,0,0,4.11,2.1371a.0558.0558,0,0,1-.03-.0183A.0657.0657,0,0,1,4.0645,2.08a.0619.0619,0,0,0-.0138-.0354.093.093,0,0,0-.074-.0225c-.0233,0-.0435-.0005-.0528-.0151a.0327.0327,0,0,1-.0027-.0241.0889.0889,0,0,0-.0041-.0464.1041.1041,0,0,0-.0262-.0392l-.0118-.0132a.2233.2233,0,0,1-.0482-.1194.2341.2341,0,0,1,.0475-.1386A.591.591,0,0,1,3.9931,1.4829Zm-2.2725.6648a.0366.0366,0,1,1,0-.0731h.935l-.0711.0634-.0107.01Zm-.2946.2252a.0376.0376,0,0,1,0-.0751h.9862q-.0387.0372-.0767.0751Z"/><path d="M6.6248,2.85c-.0163.0009-.0221.0363-.0426.0816a.41.41,0,0,1-.0574.0917.2492.2492,0,0,0,.0778-.0509c.0215-.021.0578-.0564.0491-.0918C6.6481,2.866,6.6363,2.8494,6.6248,2.85Z" fill="#9f090b"/><path d="M6.69,2.9937c-.008,0-.0156.0089-.0185.0176-.0061.0179.01.0309.0157.0556a.0992.0992,0,0,1-.0055.06.0966.0966,0,0,0,.0315-.0417.09.09,0,0,0,.0027-.0575C6.7144,3.024,6.7047,2.9934,6.69,2.9937Z" fill="#9f090b"/><path d="M6.7981,3.1447a.2554.2554,0,0,1-.0056.0593A.14.14,0,0,0,6.82,3.1512a.1636.1636,0,0,0,.0019-.0667.0915.0915,0,0,0-.0232-.0658c-.0017-.0014-.0136-.0112-.02-.0074-.0045.0025-.0048.01-.0046.0166a.2648.2648,0,0,0,.0185.0686A.1861.1861,0,0,1,6.7981,3.1447Z" fill="#9f090b"/><path d="M6.8435,2.9177c-.0046-.0055-.0126-.0147-.02-.013s-.0132.0167-.0139.0269c-.0013.0191.01.0334.0278.0556a.093.093,0,0,0,.04.0343.0733.0733,0,0,0,.0241.0046.1353.1353,0,0,1-.0342-.0528A.139.139,0,0,0,6.8435,2.9177Z" fill="#9f090b"/><path d="M6.8342,2.85a.1257.1257,0,0,0,.0519.02A.1031.1031,0,0,0,6.93,2.8658a.3671.3671,0,0,1-.0555-.0343l-.026-.02c-.0284-.0239-.0342-.0344-.0426-.0324s-.0169.02-.0139.0343S6.8079,2.8351,6.8342,2.85Z" fill="#9f090b"/><rect x="5.0878" y="2.2033" width="0.0881" height="0.2956"/><rect x="4.9063" y="2.2033" width="0.088" height="0.2956"/><rect x="4.7247" y="2.2033" width="0.088" height="0.2956"/><rect x="4.5431" y="2.2033" width="0.088" height="0.2956"/><rect x="4.3615" y="2.2033" width="0.088" height="0.2956"/><rect x="5.0878" y="2.6925" width="0.0881" height="0.2956"/><rect x="4.9063" y="2.6925" width="0.088" height="0.2956"/><rect x="4.7247" y="2.6925" width="0.088" height="0.2956"/><rect x="4.5431" y="2.6925" width="0.088" height="0.2956"/><rect x="4.3615" y="2.6925" width="0.088" height="0.2956"/><polygon points="0 1.13 0 1.181 0 1.288 7.982 1.288 7.982 1.181 7.982 1.13 7.982 0.973 0 0.973 0 1.13" fill="#f9d40b"/><polygon points="0 4.007 0 4.058 0 4.216 7.982 4.216 7.982 4.058 7.982 4.007 7.982 3.901 0 3.901 0 4.007" fill="#f9d40b"/></svg>