<svg xmlns="http://www.w3.org/2000/svg" viewBox="0 0 7.9818 5.1882"><rect width="7.9818" height="5.1882" fill="#0a2d8c"/><polygon points="1.841 0.003 6.426 5.188 6.426 0 1.841 0.003" fill="#fad20a"/><polygon points="1.008 0.13 1.265 0.341 1.167 0 0.849 0 0.751 0.341 1.008 0.13" fill="#fff"/><polygon points="1.583 0.097 1.485 0.439 1.167 0.439 1.424 0.65 1.326 0.992 1.583 0.781 1.84 0.992 1.742 0.65 1.999 0.439 1.681 0.439 1.583 0.097" fill="#fff"/><polygon points="1.999 1.301 1.901 1.642 2.158 1.431 2.416 1.642 2.317 1.301 2.574 1.089 2.257 1.089 2.158 0.748 2.06 1.089 1.742 1.089 1.999 1.301" fill="#fff"/><polygon points="2.575 1.951 2.477 2.293 2.734 2.082 2.991 2.293 2.893 1.951 3.15 1.74 2.832 1.74 2.734 1.398 2.635 1.74 2.318 1.74 2.575 1.951" fill="#fff"/><polygon points="3.15 2.602 3.052 2.943 3.309 2.732 3.566 2.943 3.468 2.602 3.725 2.39 3.407 2.39 3.309 2.049 3.211 2.39 2.893 2.39 3.15 2.602" fill="#fff"/><polygon points="3.725 3.252 3.627 3.594 3.884 3.383 4.141 3.594 4.043 3.252 4.3 3.041 3.982 3.041 3.884 2.699 3.786 3.041 3.468 3.041 3.725 3.252" fill="#fff"/><polygon points="4.301 3.903 4.202 4.244 4.46 4.033 4.717 4.244 4.618 3.903 4.876 3.691 4.558 3.691 4.46 3.35 4.361 3.691 4.044 3.691 4.301 3.903" fill="#fff"/><polygon points="4.876 4.553 4.778 4.895 5.035 4.684 5.292 4.895 5.194 4.553 5.451 4.342 5.133 4.342 5.035 4 4.937 4.342 4.619 4.342 4.876 4.553" fill="#fff"/><polygon points="5.708 4.992 5.61 4.651 5.512 4.992 5.194 4.992 5.432 5.188 5.788 5.188 6.026 4.992 5.708 4.992" fill="#fff"/></svg>