<svg xmlns="http://www.w3.org/2000/svg" viewBox="0 0 7.9818 5.1882"><polygon points="0 5.188 0.002 5.188 7.98 5.188 7.982 5.188 7.982 3.891 0 3.891 0 5.188" fill="#285f3c"/><polygon points="7.98 0 0.002 0 0 0 0 2.594 7.982 2.594 7.982 0 7.98 0" fill="#069fdc"/><rect y="2.5944" width="7.9818" height="1.2968" fill="#ffcd0a"/><path d="M6.5137,1.0969l-.03-.5907-.03.5909a.265.265,0,0,1,.0311-.0019Z" fill="#ffcd0a"/><path d="M6.7031.5349l-.1824.5629a.2581.2581,0,0,1,.0589.0156Z" fill="#ffcd0a"/><path d="M6.639,1.1464,6.908.62l-.3218.4965A.263.263,0,0,1,6.639,1.1464Z" fill="#ffcd0a"/><path d="M6.6878,1.1937,7.084.7545l-.4394.3963A.2656.2656,0,0,1,6.6878,1.1937Z" fill="#ffcd0a"/><path d="M6.7227,1.252,7.2191.93l-.5269.269A.26.26,0,0,1,6.7227,1.252Z" fill="#ffcd0a"/><path d="M6.7414,1.3173l.5627-.1822-.5786.1235A.257.257,0,0,1,6.7414,1.3173Z" fill="#ffcd0a"/><path d="M6.7442,1.3555l-.0018.03.5908-.03-.5909-.03Z" fill="#ffcd0a"/><path d="M6.726,1.4512l.5784.1235-.5629-.1823A.261.261,0,0,1,6.726,1.4512Z" fill="#ffcd0a"/><path d="M6.6929,1.5106,7.22,1.78l-.4964-.3217A.26.26,0,0,1,6.6929,1.5106Z" fill="#ffcd0a"/><path d="M6.6456,1.5594l.4393.3962-.3963-.4394A.2585.2585,0,0,1,6.6456,1.5594Z" fill="#ffcd0a"/><path d="M6.5874,1.5944l.3217.4963L6.64,1.5638A.26.26,0,0,1,6.5874,1.5944Z" fill="#ffcd0a"/><path d="M6.522,1.613l.1823.5627-.1235-.5786A.2564.2564,0,0,1,6.522,1.613Z" fill="#ffcd0a"/><path d="M6.4541,1.6141l.03.5907.03-.5909-.031.0019Z" fill="#ffcd0a"/><path d="M6.2647,2.1761l.1823-.5629a.2559.2559,0,0,1-.0588-.0156Z" fill="#ffcd0a"/><path d="M6.3288,1.5646,6.06,2.0914l.3218-.4965A.26.26,0,0,1,6.3288,1.5646Z" fill="#ffcd0a"/><path d="M6.28,1.5173l-.3963.4392L6.3231,1.56A.2611.2611,0,0,1,6.28,1.5173Z" fill="#ffcd0a"/><path d="M6.245,1.459l-.4964.3217.5269-.269A.26.26,0,0,1,6.245,1.459Z" fill="#ffcd0a"/><path d="M6.2263,1.3937l-.5627.1822.5786-.1235A.2622.2622,0,0,1,6.2263,1.3937Z" fill="#ffcd0a"/><path d="M6.2235,1.3555l.0018-.03-.5908.03.5909.03Z" fill="#ffcd0a"/><path d="M6.2418,1.26l-.5785-.1235.5629.1823A.2559.2559,0,0,1,6.2418,1.26Z" fill="#ffcd0a"/><path d="M6.2748,1.2,5.748.9314l.4964.3218A.2579.2579,0,0,1,6.2748,1.2Z" fill="#ffcd0a"/><path d="M6.3221,1.1516,5.8828.7554l.3964.4394A.2579.2579,0,0,1,6.3221,1.1516Z" fill="#ffcd0a"/><path d="M6.38,1.1166,6.0586.62l.2691.5269A.26.26,0,0,1,6.38,1.1166Z" fill="#ffcd0a"/><path d="M6.4457,1.098,6.2634.5353l.1235.5786A.2578.2578,0,0,1,6.4457,1.098Z" fill="#ffcd0a"/><path d="M6.4839,1.122a.2335.2335,0,1,0,.2334.2335A.2335.2335,0,0,0,6.4839,1.122Z" fill="#ffcd0a"/></svg>