<svg xmlns="http://www.w3.org/2000/svg" viewBox="0 0 7.9818 5.1882"><rect x="4.8563" y="3.7463" width="0.1882" height="0.0008" fill="#fff"/><rect x="4.7176" y="3.7463" width="0.1064" height="0.0008" fill="#fff"/><rect x="4.7556" y="3.6577" width="0.1007" height="0.0007" fill="#fff"/><rect x="4.433" y="3.7463" width="0.038" height="0.0008" fill="#fff"/><rect x="5.8542" y="3.7463" width="0.038" height="0.0008" fill="#fff"/><rect x="4.5016" y="3.7463" width="0.1837" height="0.0008" fill="#fff"/><rect x="4.3964" y="3.6577" width="0.1052" height="0.0007" fill="#fff"/><rect x="5.1436" y="3.7463" width="0.038" height="0.0008" fill="#fff"/><rect x="4.5736" y="3.6577" width="0.0737" height="0.0007" fill="#fff"/><rect x="5.069" y="3.5748" width="0.4656" height="0.0008" fill="#fff"/><rect x="5.4282" y="3.7463" width="0.1064" height="0.0008" fill="#fff"/><rect x="5.4662" y="3.6577" width="0.1007" height="0.0007" fill="#fff"/><rect x="5.5669" y="3.7463" width="0.1881" height="0.0008" fill="#fff"/><rect x="5.2122" y="3.7463" width="0.1837" height="0.0008" fill="#fff"/><rect x="5.7796" y="3.5748" width="0.4656" height="0.0008" fill="#fff"/><rect x="5.069" y="3.7463" width="0.038" height="0.0008" fill="#fff"/><rect x="5.2842" y="3.6577" width="0.0737" height="0.0007" fill="#fff"/><rect x="5.107" y="3.6577" width="0.1052" height="0.0007" fill="#fff"/><rect x="4.3584" y="3.7463" width="0.038" height="0.0008" fill="#fff"/><rect x="2.9753" y="3.6577" width="0.1051" height="0.0007" fill="#fff"/><rect x="3.1525" y="3.6577" width="0.0736" height="0.0007" fill="#fff"/><rect x="2.9373" y="3.7463" width="0.038" height="0.0008" fill="#fff"/><rect x="3.4352" y="3.7463" width="0.1881" height="0.0008" fill="#fff"/><rect x="3.0804" y="3.7463" width="0.1837" height="0.0008" fill="#fff"/><rect x="2.9373" y="3.5748" width="0.4656" height="0.0008" fill="#fff"/><rect x="2.6239" y="3.6577" width="0.1007" height="0.0007" fill="#fff"/><rect x="3.2964" y="3.7463" width="0.1065" height="0.0008" fill="#fff"/><rect x="3.0119" y="3.7463" width="0.038" height="0.0008" fill="#fff"/><rect x="3.7224" y="3.7463" width="0.038" height="0.0008" fill="#fff"/><rect x="4.1458" y="3.7463" width="0.1881" height="0.0008" fill="#fff"/><rect x="4.007" y="3.7463" width="0.1064" height="0.0008" fill="#fff"/><rect x="3.3345" y="3.6577" width="0.1007" height="0.0007" fill="#fff"/><rect x="3.8631" y="3.6577" width="0.0736" height="0.0007" fill="#fff"/><rect x="4.045" y="3.6577" width="0.1008" height="0.0007" fill="#fff"/><rect x="3.6478" y="3.7463" width="0.038" height="0.0008" fill="#fff"/><rect x="3.6478" y="3.5748" width="0.4656" height="0.0008" fill="#fff"/><rect x="4.3584" y="3.5748" width="0.4656" height="0.0008" fill="#fff"/><rect x="3.791" y="3.7463" width="0.1837" height="0.0008" fill="#fff"/><rect x="5.7796" y="3.7463" width="0.038" height="0.0008" fill="#fff"/><rect x="0.1696" y="1.6134" width="0.038" height="0.0016" fill="#fff"/><rect x="0.095" y="1.5248" width="0.1811" height="0.0016" fill="#fff"/><rect x="0.2761" y="1.6134" width="0.1077" height="0.0016" fill="#fff"/><rect x="7.5979" y="3.6577" width="0.1007" height="0.0007" fill="#fff"/><rect x="7.2007" y="3.7463" width="0.038" height="0.0008" fill="#fff"/><rect x="7.2387" y="3.6577" width="0.1052" height="0.0007" fill="#fff"/><rect x="0.3102" y="1.5248" width="0.1116" height="0.0016" fill="#fff"/><rect x="7.6986" y="3.7463" width="0.1882" height="0.0008" fill="#fff"/><rect x="7.5599" y="3.7463" width="0.1064" height="0.0008" fill="#fff"/><rect x="7.4159" y="3.6577" width="0.0737" height="0.0007" fill="#fff"/><rect x="0.743" y="1.4419" width="0.038" height="0.0016" fill="#fff"/><rect x="0.4542" y="1.5248" width="0.1387" height="0.0016" fill="#fff"/><rect x="0.4922" y="1.6134" width="0.0684" height="0.0016" fill="#fff"/><rect x="0.8801" y="1.6134" width="0.038" height="0.0016" fill="#fff"/><rect x="0.7056" y="1.6134" width="0.0374" height="0.0016" fill="#fff"/><rect x="5.9227" y="3.7463" width="0.1837" height="0.0008" fill="#fff"/><rect x="0.6676" y="1.4419" width="0.038" height="0.0016" fill="#fff"/><rect x="0.095" y="1.4419" width="0.4656" height="0.0016" fill="#fff"/><rect x="0.6309" y="1.6134" width="0.0367" height="0.0016" fill="#fff"/><rect x="0.5929" y="1.4419" width="0.038" height="0.0016" fill="#fff"/><rect x="7.3439" y="3.7463" width="0.1837" height="0.0008" fill="#fff"/><rect x="6.1768" y="3.6577" width="0.1007" height="0.0007" fill="#fff"/><rect x="6.1387" y="3.7463" width="0.1065" height="0.0008" fill="#fff"/><rect x="6.5647" y="3.7463" width="0.038" height="0.0008" fill="#fff"/><rect x="6.6333" y="3.7463" width="0.1837" height="0.0008" fill="#fff"/><rect x="5.9948" y="3.6577" width="0.0736" height="0.0007" fill="#fff"/><rect x="2.5859" y="3.7463" width="0.1064" height="0.0008" fill="#fff"/><rect x="6.2775" y="3.7463" width="0.1881" height="0.0008" fill="#fff"/><rect x="5.8176" y="3.6577" width="0.1051" height="0.0007" fill="#fff"/><rect x="6.4901" y="3.5748" width="0.4656" height="0.0008" fill="#fff"/><rect x="6.4901" y="3.7463" width="0.038" height="0.0008" fill="#fff"/><rect x="7.2007" y="3.5748" width="0.4656" height="0.0008" fill="#fff"/><rect x="6.8873" y="3.6577" width="0.1007" height="0.0007" fill="#fff"/><rect x="7.2753" y="3.7463" width="0.038" height="0.0008" fill="#fff"/><rect x="6.8493" y="3.7463" width="0.1064" height="0.0008" fill="#fff"/><rect x="6.7054" y="3.6577" width="0.0736" height="0.0007" fill="#fff"/><rect x="6.988" y="3.7463" width="0.1882" height="0.0008" fill="#fff"/><rect x="6.5281" y="3.6577" width="0.1052" height="0.0007" fill="#fff"/><rect x="2.9373" y="3.5021" width="0.3268" height="0.0007" fill="#fff"/><rect x="6.4901" y="3.5021" width="0.3269" height="0.0007" fill="#fff"/><rect x="6.1387" y="3.5021" width="0.3269" height="0.0007" fill="#fff"/><rect x="5.7796" y="3.5021" width="0.3268" height="0.0007" fill="#fff"/><rect x="6.8493" y="3.5021" width="0.3269" height="0.0007" fill="#fff"/><rect x="7.5599" y="1.6848" width="0.3269" height="0.0016" fill="#fff"/><rect x="5.4282" y="3.5021" width="0.3268" height="0.0007" fill="#fff"/><rect x="7.2007" y="1.6848" width="0.3269" height="0.0016" fill="#fff"/><rect x="7.2007" y="3.5021" width="0.3269" height="0.0007" fill="#fff"/><rect x="7.5599" y="3.5021" width="0.3269" height="0.0007" fill="#fff"/><rect x="2.2267" y="3.5021" width="0.3269" height="0.0007" fill="#fff"/><rect x="2.5859" y="3.5021" width="0.3269" height="0.0007" fill="#fff"/><rect x="0.8055" y="1.5248" width="0.1812" height="0.0016" fill="#fff"/><rect x="3.2964" y="3.5021" width="0.3269" height="0.0007" fill="#fff"/><rect x="6.8493" y="1.6848" width="0.3269" height="0.0016" fill="#fff"/><rect x="4.7176" y="3.5021" width="0.3269" height="0.0007" fill="#fff"/><rect x="3.6478" y="3.5021" width="0.3269" height="0.0007" fill="#fff"/><rect x="5.069" y="3.5021" width="0.3269" height="0.0007" fill="#fff"/><rect x="1.8753" y="3.5021" width="0.3269" height="0.0007" fill="#fff"/><rect x="4.007" y="3.5021" width="0.3269" height="0.0007" fill="#fff"/><rect x="4.3584" y="3.5021" width="0.3269" height="0.0007" fill="#fff"/><rect x="1.5161" y="1.6848" width="0.3269" height="0.0016" fill="#fff"/><rect x="1.8753" y="1.6848" width="0.3269" height="0.0016" fill="#fff"/><rect x="2.2267" y="1.6848" width="0.3269" height="0.0016" fill="#fff"/><rect x="2.5859" y="1.6848" width="0.3269" height="0.0016" fill="#fff"/><rect x="2.9373" y="1.6848" width="0.3268" height="0.0016" fill="#fff"/><rect x="0.4542" y="1.6848" width="0.3268" height="0.0016" fill="#fff"/><rect x="0.095" y="1.6848" width="0.3268" height="0.0016" fill="#fff"/><rect x="0.8055" y="1.6848" width="0.3269" height="0.0016" fill="#fff"/><rect x="1.1647" y="1.6848" width="0.3269" height="0.0016" fill="#fff"/><rect x="4.7176" y="1.6848" width="0.3269" height="0.0016" fill="#fff"/><rect x="3.2964" y="1.6848" width="0.3269" height="0.0016" fill="#fff"/><rect x="5.069" y="1.6848" width="0.3269" height="0.0016" fill="#fff"/><rect x="2.7246" y="3.7463" width="0.1882" height="0.0008" fill="#fff"/><rect x="6.1387" y="1.6848" width="0.3269" height="0.0016" fill="#fff"/><rect x="5.4282" y="1.6848" width="0.3268" height="0.0016" fill="#fff"/><rect x="3.6478" y="1.6848" width="0.3269" height="0.0016" fill="#fff"/><rect x="4.007" y="1.6848" width="0.3269" height="0.0016" fill="#fff"/><rect x="4.3584" y="1.6848" width="0.3269" height="0.0016" fill="#fff"/><rect x="6.4901" y="1.6848" width="0.3269" height="0.0016" fill="#fff"/><rect x="5.7796" y="1.6848" width="0.3268" height="0.0016" fill="#fff"/><rect x="1.5161" y="3.7463" width="0.038" height="0.0008" fill="#fff"/><rect x="1.5907" y="3.7463" width="0.038" height="0.0008" fill="#fff"/><rect x="1.6593" y="3.7463" width="0.1837" height="0.0008" fill="#fff"/><rect x="1.7313" y="3.6577" width="0.0737" height="0.0007" fill="#fff"/><rect x="0.8436" y="3.6577" width="0.1051" height="0.0007" fill="#fff"/><rect x="1.5541" y="3.6577" width="0.1052" height="0.0007" fill="#fff"/><rect x="1.5161" y="3.5748" width="0.4656" height="0.0008" fill="#fff"/><rect x="1.1647" y="3.7463" width="0.1065" height="0.0008" fill="#fff"/><rect x="1.2027" y="3.6577" width="0.1008" height="0.0007" fill="#fff"/><rect x="1.3035" y="3.7463" width="0.1881" height="0.0008" fill="#fff"/><rect x="2.3699" y="3.7463" width="0.1837" height="0.0008" fill="#fff"/><rect x="2.014" y="3.7463" width="0.1882" height="0.0008" fill="#fff"/><rect x="2.4419" y="3.6577" width="0.0737" height="0.0007" fill="#fff"/><rect x="2.2647" y="3.6577" width="0.1052" height="0.0007" fill="#fff"/><rect x="2.2267" y="3.7463" width="0.038" height="0.0008" fill="#fff"/><rect x="1.9133" y="3.6577" width="0.1007" height="0.0007" fill="#fff"/><rect x="1.8753" y="3.7463" width="0.1064" height="0.0008" fill="#fff"/><rect x="2.2267" y="3.5748" width="0.4656" height="0.0008" fill="#fff"/><rect x="2.3013" y="3.7463" width="0.038" height="0.0008" fill="#fff"/><rect x="0.095" y="3.5748" width="0.4656" height="0.0008" fill="#fff"/><rect x="0.2381" y="3.7463" width="0.1837" height="0.0008" fill="#fff"/><rect x="0.1696" y="3.7463" width="0.038" height="0.0008" fill="#fff"/><rect x="0.3102" y="3.6577" width="0.0736" height="0.0007" fill="#fff"/><rect x="1.5161" y="3.5021" width="0.3269" height="0.0007" fill="#fff"/><rect x="0.095" y="3.7463" width="0.038" height="0.0008" fill="#fff"/><rect x="1.1647" y="3.5021" width="0.3269" height="0.0007" fill="#fff"/><rect x="0.8055" y="3.5021" width="0.3269" height="0.0007" fill="#fff"/><rect x="0.095" y="3.5021" width="0.3268" height="0.0007" fill="#fff"/><rect x="0.4542" y="3.5021" width="0.3268" height="0.0007" fill="#fff"/><rect x="0.5929" y="3.7463" width="0.1881" height="0.0008" fill="#fff"/><rect x="0.9487" y="3.7463" width="0.1837" height="0.0008" fill="#fff"/><rect x="0.8801" y="3.7463" width="0.038" height="0.0008" fill="#fff"/><rect x="0.8055" y="3.7463" width="0.0381" height="0.0008" fill="#fff"/><rect x="0.8055" y="3.5748" width="0.4657" height="0.0008" fill="#fff"/><rect x="1.0208" y="3.6577" width="0.0736" height="0.0007" fill="#fff"/><rect x="0.133" y="3.6577" width="0.1051" height="0.0007" fill="#fff"/><rect x="0.4542" y="3.7463" width="0.1064" height="0.0008" fill="#fff"/><rect x="0.4922" y="3.6577" width="0.1007" height="0.0007" fill="#fff"/><rect x="3.6858" y="3.6577" width="0.1052" height="0.0007" fill="#fff"/><rect x="4.969" y="1.6134" width="0.0375" height="0.0016" fill="#fff"/><rect x="4.7556" y="1.6134" width="0.0684" height="0.0016" fill="#fff"/><rect x="4.8943" y="1.6134" width="0.0367" height="0.0016" fill="#fff"/><rect x="4.7176" y="1.5248" width="0.1387" height="0.0016" fill="#fff"/><rect x="3.4352" y="1.4419" width="0.038" height="0.0016" fill="#fff"/><rect x="4.5396" y="1.6134" width="0.1077" height="0.0016" fill="#fff"/><rect x="4.5736" y="1.5248" width="0.1117" height="0.0016" fill="#fff"/><rect x="4.8563" y="1.4419" width="0.038" height="0.0016" fill="#fff"/><rect x="4.3584" y="1.4419" width="0.4656" height="0.0016" fill="#fff"/><rect x="4.3584" y="1.5248" width="0.1812" height="0.0016" fill="#fff"/><rect x="5.6416" y="1.4419" width="0.038" height="0.0016" fill="#fff"/><rect x="5.5669" y="1.4419" width="0.038" height="0.0016" fill="#fff"/><rect x="5.6796" y="1.6134" width="0.0374" height="0.0016" fill="#fff"/><rect x="5.069" y="1.4419" width="0.4656" height="0.0016" fill="#fff"/><rect x="5.1436" y="1.6134" width="0.038" height="0.0016" fill="#fff"/><rect x="5.069" y="1.5248" width="0.1812" height="0.0016" fill="#fff"/><rect x="5.0065" y="1.4419" width="0.038" height="0.0016" fill="#fff"/><rect x="5.2842" y="1.5248" width="0.1117" height="0.0016" fill="#fff"/><rect x="5.2502" y="1.6134" width="0.1077" height="0.0016" fill="#fff"/><rect x="4.2205" y="1.4419" width="0.038" height="0.0016" fill="#fff"/><rect x="3.5853" y="1.4419" width="0.038" height="0.0016" fill="#fff"/><rect x="3.7224" y="1.6134" width="0.038" height="0.0016" fill="#fff"/><rect x="3.3345" y="1.6134" width="0.0684" height="0.0016" fill="#fff"/><rect x="3.829" y="1.6134" width="0.1077" height="0.0016" fill="#fff"/><rect x="3.6478" y="1.5248" width="0.1812" height="0.0016" fill="#fff"/><rect x="3.5479" y="1.6134" width="0.0374" height="0.0016" fill="#fff"/><rect x="3.5099" y="1.4419" width="0.038" height="0.0016" fill="#fff"/><rect x="3.2964" y="1.5248" width="0.1388" height="0.0016" fill="#fff"/><rect x="4.433" y="1.6134" width="0.038" height="0.0016" fill="#fff"/><rect x="3.4732" y="1.6134" width="0.0367" height="0.0016" fill="#fff"/><rect x="4.1838" y="1.6134" width="0.0367" height="0.0016" fill="#fff"/><rect x="4.045" y="1.6134" width="0.0684" height="0.0016" fill="#fff"/><rect x="4.007" y="1.5248" width="0.1388" height="0.0016" fill="#fff"/><rect x="4.2959" y="1.4419" width="0.038" height="0.0016" fill="#fff"/><rect x="5.6049" y="1.6134" width="0.0367" height="0.0016" fill="#fff"/><rect x="3.6478" y="1.4419" width="0.4656" height="0.0016" fill="#fff"/><rect x="4.2585" y="1.6134" width="0.0374" height="0.0016" fill="#fff"/><rect x="4.1458" y="1.4419" width="0.038" height="0.0016" fill="#fff"/><rect x="3.8631" y="1.5248" width="0.1116" height="0.0016" fill="#fff"/><rect x="4.931" y="1.4419" width="0.038" height="0.0016" fill="#fff"/><rect x="7.2007" y="1.5248" width="0.1812" height="0.0016" fill="#fff"/><rect x="7.4159" y="1.5248" width="0.1117" height="0.0016" fill="#fff"/><rect x="7.2753" y="1.6134" width="0.038" height="0.0016" fill="#fff"/><rect x="7.3819" y="1.6134" width="0.1077" height="0.0016" fill="#fff"/><rect x="7.0628" y="1.4419" width="0.038" height="0.0016" fill="#fff"/><rect x="6.8873" y="1.6134" width="0.0684" height="0.0016" fill="#fff"/><rect x="7.1008" y="1.6134" width="0.0374" height="0.0016" fill="#fff"/><rect x="7.0261" y="1.6134" width="0.0367" height="0.0016" fill="#fff"/><rect x="6.8493" y="1.5248" width="0.1387" height="0.0016" fill="#fff"/><rect x="7.1382" y="1.4419" width="0.038" height="0.0016" fill="#fff"/><rect x="7.8488" y="1.4419" width="0.038" height="0.0016" fill="#fff"/><rect x="7.5979" y="1.6134" width="0.0684" height="0.0016" fill="#fff"/><rect x="7.2007" y="1.4419" width="0.4656" height="0.0016" fill="#fff"/><rect x="0.9867" y="1.6134" width="0.1077" height="0.0016" fill="#fff"/><rect x="5.4282" y="1.5248" width="0.1387" height="0.0016" fill="#fff"/><rect x="7.7733" y="1.4419" width="0.038" height="0.0016" fill="#fff"/><rect x="7.6986" y="1.4419" width="0.038" height="0.0016" fill="#fff"/><rect x="7.8113" y="1.6134" width="0.0375" height="0.0016" fill="#fff"/><rect x="7.7366" y="1.6134" width="0.0367" height="0.0016" fill="#fff"/><rect x="7.5599" y="1.5248" width="0.1387" height="0.0016" fill="#fff"/><rect x="5.9948" y="1.5248" width="0.1116" height="0.0016" fill="#fff"/><rect x="6.3522" y="1.4419" width="0.038" height="0.0016" fill="#fff"/><rect x="6.2775" y="1.4419" width="0.038" height="0.0016" fill="#fff"/><rect x="5.9607" y="1.6134" width="0.1077" height="0.0016" fill="#fff"/><rect x="5.7796" y="1.4419" width="0.4656" height="0.0016" fill="#fff"/><rect x="5.717" y="1.4419" width="0.038" height="0.0016" fill="#fff"/><rect x="5.7796" y="1.5248" width="0.1811" height="0.0016" fill="#fff"/><rect x="5.4662" y="1.6134" width="0.0684" height="0.0016" fill="#fff"/><rect x="5.8542" y="1.6134" width="0.038" height="0.0016" fill="#fff"/><rect x="6.4901" y="1.4419" width="0.4656" height="0.0016" fill="#fff"/><rect x="6.7054" y="1.5248" width="0.1116" height="0.0016" fill="#fff"/><rect x="6.4901" y="1.5248" width="0.1812" height="0.0016" fill="#fff"/><rect x="6.6713" y="1.6134" width="0.1077" height="0.0016" fill="#fff"/><rect x="6.988" y="1.4419" width="0.0381" height="0.0016" fill="#fff"/><rect x="6.1768" y="1.6134" width="0.0684" height="0.0016" fill="#fff"/><rect x="6.3155" y="1.6134" width="0.0367" height="0.0016" fill="#fff"/><rect x="6.1387" y="1.5248" width="0.1388" height="0.0016" fill="#fff"/><rect x="6.5647" y="1.6134" width="0.038" height="0.0016" fill="#fff"/><rect x="6.4276" y="1.4419" width="0.038" height="0.0016" fill="#fff"/><rect x="6.3902" y="1.6134" width="0.0374" height="0.0016" fill="#fff"/><rect x="1.9133" y="1.6134" width="0.0684" height="0.0016" fill="#fff"/><rect x="2.1642" y="1.4419" width="0.038" height="0.0016" fill="#fff"/><rect x="2.3013" y="1.6134" width="0.038" height="0.0016" fill="#fff"/><rect x="2.052" y="1.6134" width="0.0367" height="0.0016" fill="#fff"/><rect x="1.8753" y="1.5248" width="0.1387" height="0.0016" fill="#fff"/><rect x="2.0887" y="1.4419" width="0.0381" height="0.0016" fill="#fff"/><rect x="2.2267" y="1.5248" width="0.1812" height="0.0016" fill="#fff"/><rect x="2.1268" y="1.6134" width="0.0374" height="0.0016" fill="#fff"/><rect x="2.7246" y="1.4419" width="0.038" height="0.0016" fill="#fff"/><rect x="2.4079" y="1.6134" width="0.1077" height="0.0016" fill="#fff"/><rect x="2.8373" y="1.6134" width="0.0374" height="0.0016" fill="#fff"/><rect x="2.7993" y="1.4419" width="0.038" height="0.0016" fill="#fff"/><rect x="2.2267" y="1.4419" width="0.4656" height="0.0016" fill="#fff"/><rect x="2.4419" y="1.5248" width="0.1117" height="0.0016" fill="#fff"/><rect x="1.2027" y="1.6134" width="0.0685" height="0.0016" fill="#fff"/><rect x="1.3415" y="1.6134" width="0.0367" height="0.0016" fill="#fff"/><rect x="1.1647" y="1.5248" width="0.1388" height="0.0016" fill="#fff"/><rect x="1.4162" y="1.6134" width="0.0374" height="0.0016" fill="#fff"/><rect x="0.8055" y="1.4419" width="0.4657" height="0.0016" fill="#fff"/><rect x="1.3782" y="1.4419" width="0.038" height="0.0016" fill="#fff"/><rect x="2.7626" y="1.6134" width="0.0367" height="0.0016" fill="#fff"/><rect x="2.014" y="1.4419" width="0.038" height="0.0016" fill="#fff"/><rect x="1.3035" y="1.4419" width="0.038" height="0.0016" fill="#fff"/><rect x="1.7313" y="1.5248" width="0.1117" height="0.0016" fill="#fff"/><rect x="1.6973" y="1.6134" width="0.1077" height="0.0016" fill="#fff"/><rect x="1.4536" y="1.4419" width="0.038" height="0.0016" fill="#fff"/><rect x="1.5161" y="1.4419" width="0.4656" height="0.0016" fill="#fff"/><rect x="1.5907" y="1.6134" width="0.038" height="0.0016" fill="#fff"/><rect x="1.5161" y="1.5248" width="0.1812" height="0.0016" fill="#fff"/><rect x="1.0208" y="1.5248" width="0.1116" height="0.0016" fill="#fff"/><rect x="3.1184" y="1.6134" width="0.1077" height="0.0016" fill="#fff"/><rect x="2.6239" y="1.6134" width="0.0684" height="0.0016" fill="#fff"/><rect x="2.9373" y="1.5248" width="0.1811" height="0.0016" fill="#fff"/><rect x="3.0119" y="1.6134" width="0.038" height="0.0016" fill="#fff"/><rect x="2.8747" y="1.4419" width="0.0381" height="0.0016" fill="#fff"/><rect x="2.5859" y="1.5248" width="0.1387" height="0.0016" fill="#fff"/><rect x="3.1525" y="1.5248" width="0.1116" height="0.0016" fill="#fff"/><rect x="2.9373" y="1.4419" width="0.4656" height="0.0016" fill="#fff"/><path d="M7.8868,3.46v.0433H7.56v-.044H7.5276v.044H7.2007v-.044H7.1762v.044H6.8493v-.044H6.817v.044H6.49v-.044H6.4656v.044H6.1387v-.044H6.1064v.044H5.78v-.044H5.755v.044H5.4282v-.044H5.3959v.044H5.069v-.044H5.0445v.044H4.7176v-.044H4.6853v.044H4.3584v-.044H4.3339v.044H4.007v-.044H3.9747v.044H3.6478v-.044H3.6233v.044H3.2964v-.044H3.2641v.044H2.9373v-.044H2.9128v.044H2.5859v-.044H2.5536v.044H2.2267v-.044H2.2022v.044H1.8753v-.044H1.843v.044H1.5161v-.044H1.4916v.044H1.1647v-.044H1.1324v.044H.8055v-.044H.781v.044H.4542v-.044H.4218v.044H.095v-.044H0V5.1882H7.9818V3.4588h-.095ZM.095,3.5748V3.5316H.5606v.044H.095Zm.1126.129v.0433H.17v-.044h.038Zm.2142-.0886v.1319H.2381V3.6584H.133v.0887H.095V3.6145H.2761v.0886H.3838V3.6584H.31V3.6145H.4218ZM.781,3.5323v.2148H.5929V3.6584H.4922v.0447H.5606v.044H.4542V3.6145H.5929V3.5316h.038v.1715H.6676V3.5316h.038v.1715H.743V3.5316H.781Zm.0245.0425V3.5316h.4657v.044H.8055Zm.1126.129v.0433H.88v-.044h.038Zm.2143-.0886v.1319H.9487V3.6584H.8436v.0887H.8055V3.6145H.9867v.0886h.1077V3.6584H1.0208V3.6145h.1116Zm.3592-.0829v.2148H1.3035V3.6584H1.2027v.0447h.0685v.044H1.1647V3.6145h.1388V3.5316h.038v.1715h.0367V3.5316h.038v.1715h.0374V3.5316h.038Zm.0245.0425V3.5316h.4656v.044H1.5161Zm.1126.129v.0433h-.038v-.044h.038Zm.2143-.0886v.1319H1.6593V3.6584H1.5541v.0887h-.038V3.6145h.1812v.0886H1.805V3.6584H1.7313V3.6145H1.843Zm.3592-.0829v.2148H2.014V3.6584H1.9133v.0447h.0684v.044H1.8753V3.6145H2.014V3.5316h.038v.1715h.0367V3.5316h.0381v.1715h.0374V3.5316h.038Zm.0245.0425V3.5316h.4656v.044H2.2267Zm.1126.129v.0433h-.038v-.044h.038Zm.2143-.0886v.1319H2.37V3.6584H2.2647v.0887h-.038V3.6145h.1812v.0886h.1077V3.6584H2.4419V3.6145h.1117Zm.3592-.0829v.2148H2.7246V3.6584H2.6239v.0447h.0684v.044H2.5859V3.6145h.1387V3.5316h.038v.1715h.0367V3.5316h.038v.1715h.0374V3.5316h.0381Zm.0245.0425V3.5316h.4656v.044H2.9373Zm.1126.129v.0433h-.038v-.044H3.05Zm.2142-.0886v.1319H3.08V3.6584H2.9753v.0887h-.038V3.6145h.1811v.0886h.1077V3.6584H3.1525V3.6145h.1116Zm.3592-.0829v.2148H3.4352V3.6584H3.3345v.0447h.0684v.044H3.2964V3.6145h.1388V3.5316h.038v.1715H3.51V3.5316h.038v.1715h.0374V3.5316h.038Zm.0245.0425V3.5316h.4656v.044H3.6478Zm.1126.129v.0433h-.038v-.044H3.76Zm.2143-.0886v.1319H3.791V3.6584H3.6858v.0887h-.038V3.6145H3.829v.0886h.1077V3.6584H3.8631V3.6145h.1116Zm.3592-.0829v.2148H4.1458V3.6584H4.045v.0447h.0684v.044H4.007V3.6145h.1388V3.5316h.038v.1715h.0367V3.5316h.038v.1715h.0374V3.5316h.038Zm.0245.0425V3.5316H4.824v.044H4.3584Zm.1126.129v.0433H4.433v-.044h.038Zm.2143-.0886v.1319H4.5016V3.6584H4.3964v.0887h-.038V3.6145H4.54v.0886h.1077V3.6584H4.5736V3.6145h.1117Zm.3592-.0829v.2148H4.8563V3.6584H4.7556v.0447H4.824v.044H4.7176V3.6145h.1387V3.5316h.038v.1715H4.931V3.5316h.038v.1715h.0375V3.5316h.038Zm.0245.0425V3.5316h.4656v.044H5.069Zm.1126.129v.0433h-.038v-.044h.038Zm.2143-.0886v.1319H5.2122V3.6584H5.107v.0887H5.069V3.6145H5.25v.0886h.1077V3.6584H5.2842V3.6145h.1117Zm.3591-.0829v.2148H5.5669V3.6584H5.4662v.0447h.0684v.044H5.4282V3.6145h.1387V3.5316h.038v.1715h.0367V3.5316H5.68v.1715H5.717V3.5316h.038Zm.0246.0425V3.5316h.4656v.044H5.78Zm.1126.129v.0433h-.038v-.044h.038Zm.2142-.0886v.1319H5.9227V3.6584H5.8176v.0887H5.78V3.6145h.1811v.0886h.1077V3.6584H5.9948V3.6145h.1116Zm.3592-.0829v.2148H6.2775V3.6584H6.1768v.0447h.0684v.044H6.1387V3.6145h.1388V3.5316h.038v.1715h.0367V3.5316H6.39v.1715h.0374V3.5316h.038Zm.0245.0425V3.5316h.4656v.044H6.49Zm.1126.129v.0433h-.038v-.044h.038Zm.2143-.0886v.1319H6.6333V3.6584H6.5281v.0887H6.49V3.6145h.1812v.0886H6.779V3.6584H6.7054V3.6145H6.817Zm.3592-.0829v.2148H6.988V3.6584H6.8873v.0447h.0684v.044H6.8493V3.6145H6.988V3.5316h.0381v.1715h.0367V3.5316h.038v.1715h.0374V3.5316h.038Zm.0245.0425V3.5316h.4656v.044H7.2007Zm.1126.129v.0433h-.038v-.044h.038Zm.2143-.0886v.1319H7.3439V3.6584H7.2387v.0887h-.038V3.6145h.1812v.0886H7.49V3.6584H7.4159V3.6145h.1117Zm.3592-.0829v.2148H7.6986V3.6584H7.5979v.0447h.0684v.044H7.56V3.6145h.1387V3.5316h.038v.1715h.0367V3.5316h.038v.1715h.0375V3.5316h.038Z" fill="#c00"/><path d="M0,0V1.7294H.095V1.6848H.4218v.0446H.4542V1.6848H.781v.0446H.8055V1.6848h.3269v.0446h.0323V1.6848h.3269v.0446h.0245V1.6848H1.843v.0446h.0323V1.6848h.3269v.0446h.0245V1.6848h.3269v.0446h.0323V1.6848h.3269v.0446h.0245V1.6848h.3268v.0446h.0323V1.6848h.3269v.0446h.0245V1.6848h.3269v.0446H4.007V1.6848h.3269v.0446h.0245V1.6848h.3269v.0446h.0323V1.6848h.3269v.0446H5.069V1.6848h.3269v.0446h.0323V1.6848H5.755v.0446H5.78V1.6848h.3268v.0446h.0323V1.6848h.3269v.0446H6.49V1.6848H6.817v.0446h.0323V1.6848h.3269v.0446h.0245V1.6848h.3269v.0446H7.56V1.6848h.3269v.0446h.095V0ZM.2076,1.615v.0433H.17V1.6134h.038Zm.2142-.0886v.1319H.2381V1.57H.133v.0887H.095V1.5248H.2761v.0886H.3838V1.57H.31V1.5248H.4218Zm-.3268-.04V1.4419H.5606v.0449Zm.686-.0433v.2148H.5929V1.57H.4922v.0438H.5606v.0449H.4542V1.5248H.5929V1.4419h.038v.1715H.6676V1.4419h.038v.1715H.743V1.4419H.781Zm.1371.1715v.0433H.88V1.6134h.038Zm.2143-.0886v.1319H.9487V1.57H.8436v.0887H.8055V1.5248H.9867v.0886h.1077V1.57H1.0208V1.5248h.1116Zm-.3269-.04V1.4419h.4657v.0449Zm.6861-.0433v.2148H1.3035V1.57H1.2027v.0438h.0685v.0449H1.1647V1.5248h.1388V1.4419h.038v.1715h.0367V1.4419h.038v.1715h.0374V1.4419h.038Zm.1371.1715v.0433h-.038V1.6134h.038Zm.2143-.0886v.1319H1.6593V1.57H1.5541v.0887h-.038V1.5248h.1812v.0886H1.805V1.57H1.7313V1.5248H1.843Zm-.3269-.04V1.4419h.4656v.0449Zm.6861-.0433v.2148H2.014V1.57H1.9133v.0438h.0684v.0449H1.8753V1.5248H2.014V1.4419h.038v.1715h.0367V1.4419h.0381v.1715h.0374V1.4419h.038Zm.1371.1715v.0433h-.038V1.6134h.038Zm.2143-.0886v.1319H2.37V1.57H2.2647v.0887h-.038V1.5248h.1812v.0886h.1077V1.57H2.4419V1.5248h.1117Zm-.3269-.04V1.4419h.4656v.0449Zm.6861-.0433v.2148H2.7246V1.57H2.6239v.0438h.0684v.0449H2.5859V1.5248h.1387V1.4419h.038v.1715h.0367V1.4419h.038v.1715h.0374V1.4419h.0381ZM3.05,1.615v.0433h-.038V1.6134H3.05Zm.2142-.0886v.1319H3.08V1.57H2.9753v.0887h-.038V1.5248h.1811v.0886h.1077V1.57H3.1525V1.5248h.1116Zm-.3268-.04V1.4419h.4656v.0449Zm.686-.0433v.2148H3.4352V1.57H3.3345v.0438h.0684v.0449H3.2964V1.5248h.1388V1.4419h.038v.1715H3.51V1.4419h.038v.1715h.0374V1.4419h.038ZM3.76,1.615v.0433h-.038V1.6134H3.76Zm.2143-.0886v.1319H3.791V1.57H3.6858v.0887h-.038V1.5248H3.829v.0886h.1077V1.57H3.8631V1.5248h.1116Zm-.3269-.04V1.4419h.4656v.0449Zm.6861-.0433v.2148H4.1458V1.57H4.045v.0438h.0684v.0449H4.007V1.5248h.1388V1.4419h.038v.1715h.0367V1.4419h.038v.1715h.0374V1.4419h.038Zm.1371.1715v.0433H4.433V1.6134h.038Zm.2143-.0886v.1319H4.5016V1.57H4.3964v.0887h-.038V1.5248H4.54v.0886h.1077V1.57H4.5736V1.5248h.1117Zm-.3269-.04V1.4419H4.824v.0449Zm.6861-.0433v.2148H4.8563V1.57H4.7556v.0438H4.824v.0449H4.7176V1.5248h.1387V1.4419h.038v.1715H4.931V1.4419h.038v.1715h.0375V1.4419h.038Zm.1371.1715v.0433h-.038V1.6134h.038Zm.2143-.0886v.1319H5.2122V1.57H5.107v.0887H5.069V1.5248H5.25v.0886h.1077V1.57H5.2842V1.5248h.1117Zm-.3269-.04V1.4419h.4656v.0449Zm.686-.0433v.2148H5.5669V1.57H5.4662v.0438h.0684v.0449H5.4282V1.5248h.1387V1.4419h.038v.1715h.0367V1.4419H5.68v.1715H5.717V1.4419h.038Zm.1372.1715v.0433h-.038V1.6134h.038Zm.2142-.0886v.1319H5.9227V1.57H5.8176v.0887H5.78V1.5248h.1811v.0886h.1077V1.57H5.9948V1.5248h.1116Zm-.3268-.04V1.4419h.4656v.0449Zm.686-.0433v.2148H6.2775V1.57H6.1768v.0438h.0684v.0449H6.1387V1.5248h.1388V1.4419h.038v.1715h.0367V1.4419H6.39v.1715h.0374V1.4419h.038Zm.1371.1715v.0433h-.038V1.6134h.038Zm.2143-.0886v.1319H6.6333V1.57H6.5281v.0887H6.49V1.5248h.1812v.0886H6.779V1.57H6.7054V1.5248H6.817Zm-.3269-.04V1.4419h.4656v.0449Zm.6861-.0433v.2148H6.988V1.57H6.8873v.0438h.0684v.0449H6.8493V1.5248H6.988V1.4419h.0381v.1715h.0367V1.4419h.038v.1715h.0374V1.4419h.038Zm.1371.1715v.0433h-.038V1.6134h.038Zm.2143-.0886v.1319H7.3439V1.57H7.2387v.0887h-.038V1.5248h.1812v.0886H7.49V1.57H7.4159V1.5248h.1117Zm-.3269-.04V1.4419h.4656v.0449Zm.6861-.0433v.2148H7.6986V1.57H7.5979v.0438h.0684v.0449H7.56V1.5248h.1387V1.4419h.038v.1715h.0367V1.4419h.038v.1715h.0375V1.4419h.038Z" fill="#393"/><path d="M3.9973,2.026c.0049.0019.0077.0074.0188.02h0C4.005,2.0334,4.0022,2.0279,3.9973,2.026Z" fill="none"/><path d="M7.8868,1.7294v0H7.56v0H7.5276v0H7.2007v0H7.1762v0H6.8493v0H6.817v0H6.49v0H6.4656v0H6.1387v0H6.1064v0H5.78v0H5.755v0H5.4282v0H5.3959v0H5.069v0H5.0445v0H4.7176v0H4.6853v0H4.3584v0H4.3339v0H4.007v0H3.9747v0H3.6478v0H3.6233v0H3.2965v0H3.2641v0H2.9373v0H2.9128v0H2.5859v0H2.5536v0H2.2267v0H2.2022v0H1.8753v0H1.843v0H1.5161v0H1.4916v0H1.1647v0H1.1324v0H.8055v0H.781v0H.4542v0H.4219v0H.095v0H0V3.4588H7.9818V1.7294Zm-3.8707.3167h0c-.0111-.0127-.0139-.0182-.0188-.02.0049.0019.0077.0074.0188.02Z" fill="#fff"/><polygon points="0.561 1.485 0.561 1.444 0.095 1.444 0.095 1.485 0.095 1.487 0.561 1.487 0.561 1.485" fill="#fff"/><polygon points="0.31 1.568 0.31 1.57 0.384 1.57 0.384 1.613 0.384 1.615 0.276 1.615 0.276 1.613 0.276 1.526 0.095 1.526 0.095 1.657 0.095 1.658 0.133 1.658 0.133 1.657 0.133 1.57 0.238 1.57 0.238 1.657 0.238 1.658 0.422 1.658 0.422 1.657 0.422 1.526 0.31 1.526 0.31 1.568" fill="#fff"/><polygon points="0.743 1.613 0.743 1.615 0.706 1.615 0.706 1.613 0.706 1.444 0.668 1.444 0.668 1.613 0.668 1.615 0.631 1.615 0.631 1.613 0.631 1.548 0.631 1.546 0.631 1.526 0.631 1.525 0.631 1.444 0.593 1.444 0.593 1.525 0.593 1.526 0.454 1.526 0.454 1.657 0.454 1.658 0.561 1.658 0.561 1.657 0.561 1.615 0.492 1.615 0.492 1.613 0.492 1.57 0.593 1.57 0.593 1.657 0.593 1.658 0.781 1.658 0.781 1.657 0.781 1.444 0.743 1.444 0.743 1.613" fill="#fff"/><polygon points="0.17 1.657 0.17 1.658 0.208 1.658 0.208 1.657 0.208 1.615 0.17 1.615 0.17 1.657" fill="#fff"/><polygon points="0.422 1.73 0.422 1.729 0.422 1.728 0.422 1.686 0.095 1.686 0.095 1.728 0.095 1.729 0.095 1.73 0.422 1.73" fill="#fff"/><polygon points="0.781 1.73 0.781 1.729 0.781 1.728 0.781 1.686 0.454 1.686 0.454 1.728 0.454 1.729 0.454 1.73 0.781 1.73" fill="#fff"/><polygon points="1.271 1.485 1.271 1.444 0.806 1.444 0.806 1.485 0.806 1.487 1.271 1.487 1.271 1.485" fill="#fff"/><polygon points="1.021 1.568 1.021 1.57 1.094 1.57 1.094 1.613 1.094 1.615 0.987 1.615 0.987 1.613 0.987 1.526 0.806 1.526 0.806 1.657 0.806 1.658 0.844 1.658 0.844 1.657 0.844 1.57 0.949 1.57 0.949 1.657 0.949 1.658 1.132 1.658 1.132 1.657 1.132 1.526 1.021 1.526 1.021 1.568" fill="#fff"/><polygon points="1.454 1.613 1.454 1.615 1.416 1.615 1.416 1.613 1.416 1.444 1.378 1.444 1.378 1.613 1.378 1.615 1.342 1.615 1.342 1.613 1.342 1.548 1.342 1.546 1.342 1.526 1.342 1.525 1.342 1.444 1.304 1.444 1.304 1.525 1.304 1.526 1.165 1.526 1.165 1.657 1.165 1.658 1.271 1.658 1.271 1.657 1.271 1.615 1.203 1.615 1.203 1.613 1.203 1.57 1.304 1.57 1.304 1.657 1.304 1.658 1.492 1.658 1.492 1.657 1.492 1.444 1.454 1.444 1.454 1.613" fill="#fff"/><polygon points="0.88 1.657 0.88 1.658 0.918 1.658 0.918 1.657 0.918 1.615 0.88 1.615 0.88 1.657" fill="#fff"/><polygon points="1.132 1.73 1.132 1.729 1.132 1.728 1.132 1.686 0.806 1.686 0.806 1.728 0.806 1.729 0.806 1.73 1.132 1.73" fill="#fff"/><polygon points="1.492 1.73 1.492 1.729 1.492 1.728 1.492 1.686 1.165 1.686 1.165 1.728 1.165 1.729 1.165 1.73 1.492 1.73" fill="#fff"/><polygon points="1.982 1.485 1.982 1.444 1.516 1.444 1.516 1.485 1.516 1.487 1.982 1.487 1.982 1.485" fill="#fff"/><polygon points="1.731 1.568 1.731 1.57 1.805 1.57 1.805 1.613 1.805 1.615 1.697 1.615 1.697 1.613 1.697 1.526 1.516 1.526 1.516 1.657 1.516 1.658 1.554 1.658 1.554 1.657 1.554 1.57 1.659 1.57 1.659 1.657 1.659 1.658 1.843 1.658 1.843 1.657 1.843 1.526 1.731 1.526 1.731 1.568" fill="#fff"/><polygon points="2.164 1.613 2.164 1.615 2.127 1.615 2.127 1.613 2.127 1.444 2.089 1.444 2.089 1.613 2.089 1.615 2.052 1.615 2.052 1.613 2.052 1.548 2.052 1.546 2.052 1.526 2.052 1.525 2.052 1.444 2.014 1.444 2.014 1.525 2.014 1.526 1.875 1.526 1.875 1.657 1.875 1.658 1.982 1.658 1.982 1.657 1.982 1.615 1.913 1.615 1.913 1.613 1.913 1.57 2.014 1.57 2.014 1.657 2.014 1.658 2.202 1.658 2.202 1.657 2.202 1.444 2.164 1.444 2.164 1.613" fill="#fff"/><polygon points="1.591 1.657 1.591 1.658 1.629 1.658 1.629 1.657 1.629 1.615 1.591 1.615 1.591 1.657" fill="#fff"/><polygon points="1.843 1.73 1.843 1.729 1.843 1.728 1.843 1.686 1.516 1.686 1.516 1.728 1.516 1.729 1.516 1.73 1.843 1.73" fill="#fff"/><polygon points="2.202 1.73 2.202 1.729 2.202 1.728 2.202 1.686 1.875 1.686 1.875 1.728 1.875 1.729 1.875 1.73 2.202 1.73" fill="#fff"/><polygon points="2.692 1.485 2.692 1.444 2.227 1.444 2.227 1.485 2.227 1.487 2.692 1.487 2.692 1.485" fill="#fff"/><polygon points="2.442 1.568 2.442 1.57 2.516 1.57 2.516 1.613 2.516 1.615 2.408 1.615 2.408 1.613 2.408 1.526 2.227 1.526 2.227 1.657 2.227 1.658 2.265 1.658 2.265 1.657 2.265 1.57 2.37 1.57 2.37 1.657 2.37 1.658 2.554 1.658 2.554 1.657 2.554 1.526 2.442 1.526 2.442 1.568" fill="#fff"/><polygon points="2.875 1.613 2.875 1.615 2.837 1.615 2.837 1.613 2.837 1.444 2.799 1.444 2.799 1.613 2.799 1.615 2.763 1.615 2.763 1.613 2.763 1.548 2.763 1.546 2.763 1.526 2.763 1.525 2.763 1.444 2.725 1.444 2.725 1.525 2.725 1.526 2.586 1.526 2.586 1.657 2.586 1.658 2.692 1.658 2.692 1.657 2.692 1.615 2.624 1.615 2.624 1.613 2.624 1.57 2.725 1.57 2.725 1.657 2.725 1.658 2.913 1.658 2.913 1.657 2.913 1.444 2.875 1.444 2.875 1.613" fill="#fff"/><polygon points="2.301 1.657 2.301 1.658 2.339 1.658 2.339 1.657 2.339 1.615 2.301 1.615 2.301 1.657" fill="#fff"/><polygon points="2.554 1.73 2.554 1.729 2.554 1.728 2.554 1.686 2.227 1.686 2.227 1.728 2.227 1.729 2.227 1.73 2.554 1.73" fill="#fff"/><polygon points="2.913 1.73 2.913 1.729 2.913 1.728 2.913 1.686 2.586 1.686 2.586 1.728 2.586 1.729 2.586 1.73 2.913 1.73" fill="#fff"/><polygon points="3.403 1.485 3.403 1.444 2.937 1.444 2.937 1.485 2.937 1.487 3.403 1.487 3.403 1.485" fill="#fff"/><polygon points="3.153 1.568 3.153 1.57 3.226 1.57 3.226 1.613 3.226 1.615 3.118 1.615 3.118 1.613 3.118 1.526 2.937 1.526 2.937 1.657 2.937 1.658 2.975 1.658 2.975 1.657 2.975 1.57 3.08 1.57 3.08 1.657 3.08 1.658 3.264 1.658 3.264 1.657 3.264 1.526 3.153 1.526 3.153 1.568" fill="#fff"/><polygon points="3.585 1.613 3.585 1.615 3.548 1.615 3.548 1.613 3.548 1.444 3.51 1.444 3.51 1.613 3.51 1.615 3.473 1.615 3.473 1.613 3.473 1.548 3.473 1.546 3.473 1.526 3.473 1.525 3.473 1.444 3.435 1.444 3.435 1.525 3.435 1.526 3.296 1.526 3.296 1.657 3.296 1.658 3.403 1.658 3.403 1.657 3.403 1.615 3.335 1.615 3.335 1.613 3.335 1.57 3.435 1.57 3.435 1.657 3.435 1.658 3.623 1.658 3.623 1.657 3.623 1.444 3.585 1.444 3.585 1.613" fill="#fff"/><polygon points="3.012 1.657 3.012 1.658 3.05 1.658 3.05 1.657 3.05 1.615 3.012 1.615 3.012 1.657" fill="#fff"/><polygon points="3.264 1.73 3.264 1.729 3.264 1.728 3.264 1.686 2.937 1.686 2.937 1.728 2.937 1.729 2.937 1.73 3.264 1.73" fill="#fff"/><polygon points="3.623 1.73 3.623 1.729 3.623 1.728 3.623 1.686 3.296 1.686 3.296 1.728 3.296 1.729 3.296 1.73 3.623 1.73" fill="#fff"/><polygon points="4.113 1.485 4.113 1.444 3.648 1.444 3.648 1.485 3.648 1.487 4.113 1.487 4.113 1.485" fill="#fff"/><polygon points="3.863 1.568 3.863 1.57 3.937 1.57 3.937 1.613 3.937 1.615 3.829 1.615 3.829 1.613 3.829 1.526 3.648 1.526 3.648 1.657 3.648 1.658 3.686 1.658 3.686 1.657 3.686 1.57 3.791 1.57 3.791 1.657 3.791 1.658 3.975 1.658 3.975 1.657 3.975 1.526 3.863 1.526 3.863 1.568" fill="#fff"/><polygon points="4.296 1.613 4.296 1.615 4.259 1.615 4.259 1.613 4.259 1.444 4.221 1.444 4.221 1.613 4.221 1.615 4.184 1.615 4.184 1.613 4.184 1.548 4.184 1.546 4.184 1.526 4.184 1.525 4.184 1.444 4.146 1.444 4.146 1.525 4.146 1.526 4.007 1.526 4.007 1.657 4.007 1.658 4.113 1.658 4.113 1.657 4.113 1.615 4.045 1.615 4.045 1.613 4.045 1.57 4.146 1.57 4.146 1.657 4.146 1.658 4.334 1.658 4.334 1.657 4.334 1.444 4.296 1.444 4.296 1.613" fill="#fff"/><polygon points="3.722 1.657 3.722 1.658 3.76 1.658 3.76 1.657 3.76 1.615 3.722 1.615 3.722 1.657" fill="#fff"/><polygon points="3.975 1.73 3.975 1.729 3.975 1.728 3.975 1.686 3.648 1.686 3.648 1.728 3.648 1.729 3.648 1.73 3.975 1.73" fill="#fff"/><polygon points="4.334 1.73 4.334 1.729 4.334 1.728 4.334 1.686 4.007 1.686 4.007 1.728 4.007 1.729 4.007 1.73 4.334 1.73" fill="#fff"/><polygon points="4.824 1.485 4.824 1.444 4.358 1.444 4.358 1.485 4.358 1.487 4.824 1.487 4.824 1.485" fill="#fff"/><polygon points="4.574 1.568 4.574 1.57 4.647 1.57 4.647 1.613 4.647 1.615 4.54 1.615 4.54 1.613 4.54 1.526 4.358 1.526 4.358 1.657 4.358 1.658 4.396 1.658 4.396 1.657 4.396 1.57 4.502 1.57 4.502 1.657 4.502 1.658 4.685 1.658 4.685 1.657 4.685 1.526 4.574 1.526 4.574 1.568" fill="#fff"/><polygon points="5.007 1.613 5.007 1.615 4.969 1.615 4.969 1.613 4.969 1.444 4.931 1.444 4.931 1.613 4.931 1.615 4.894 1.615 4.894 1.613 4.894 1.548 4.894 1.546 4.894 1.526 4.894 1.525 4.894 1.444 4.856 1.444 4.856 1.525 4.856 1.526 4.718 1.526 4.718 1.657 4.718 1.658 4.824 1.658 4.824 1.657 4.824 1.615 4.756 1.615 4.756 1.613 4.756 1.57 4.856 1.57 4.856 1.657 4.856 1.658 5.045 1.658 5.045 1.657 5.045 1.444 5.007 1.444 5.007 1.613" fill="#fff"/><polygon points="4.433 1.657 4.433 1.658 4.471 1.658 4.471 1.657 4.471 1.615 4.433 1.615 4.433 1.657" fill="#fff"/><polygon points="4.685 1.73 4.685 1.729 4.685 1.728 4.685 1.686 4.358 1.686 4.358 1.728 4.358 1.729 4.358 1.73 4.685 1.73" fill="#fff"/><polygon points="5.045 1.73 5.045 1.729 5.045 1.728 5.045 1.686 4.718 1.686 4.718 1.728 4.718 1.729 4.718 1.73 5.045 1.73" fill="#fff"/><polygon points="5.535 1.485 5.535 1.444 5.069 1.444 5.069 1.485 5.069 1.487 5.535 1.487 5.535 1.485" fill="#fff"/><polygon points="5.284 1.568 5.284 1.57 5.358 1.57 5.358 1.613 5.358 1.615 5.25 1.615 5.25 1.613 5.25 1.526 5.069 1.526 5.069 1.657 5.069 1.658 5.107 1.658 5.107 1.657 5.107 1.57 5.212 1.57 5.212 1.657 5.212 1.658 5.396 1.658 5.396 1.657 5.396 1.526 5.284 1.526 5.284 1.568" fill="#fff"/><polygon points="5.717 1.613 5.717 1.615 5.68 1.615 5.68 1.613 5.68 1.444 5.642 1.444 5.642 1.613 5.642 1.615 5.605 1.615 5.605 1.613 5.605 1.548 5.605 1.546 5.605 1.526 5.605 1.525 5.605 1.444 5.567 1.444 5.567 1.525 5.567 1.526 5.428 1.526 5.428 1.657 5.428 1.658 5.535 1.658 5.535 1.657 5.535 1.615 5.466 1.615 5.466 1.613 5.466 1.57 5.567 1.57 5.567 1.657 5.567 1.658 5.755 1.658 5.755 1.657 5.755 1.444 5.717 1.444 5.717 1.613" fill="#fff"/><polygon points="5.144 1.657 5.144 1.658 5.182 1.658 5.182 1.657 5.182 1.615 5.144 1.615 5.144 1.657" fill="#fff"/><polygon points="5.396 1.73 5.396 1.729 5.396 1.728 5.396 1.686 5.069 1.686 5.069 1.728 5.069 1.729 5.069 1.73 5.396 1.73" fill="#fff"/><polygon points="5.755 1.73 5.755 1.729 5.755 1.728 5.755 1.686 5.428 1.686 5.428 1.728 5.428 1.729 5.428 1.73 5.755 1.73" fill="#fff"/><polygon points="6.245 1.485 6.245 1.444 5.78 1.444 5.78 1.485 5.78 1.487 6.245 1.487 6.245 1.485" fill="#fff"/><polygon points="5.995 1.568 5.995 1.57 6.068 1.57 6.068 1.613 6.068 1.615 5.961 1.615 5.961 1.613 5.961 1.526 5.78 1.526 5.78 1.657 5.78 1.658 5.818 1.658 5.818 1.657 5.818 1.57 5.923 1.57 5.923 1.657 5.923 1.658 6.106 1.658 6.106 1.657 6.106 1.526 5.995 1.526 5.995 1.568" fill="#fff"/><polygon points="6.428 1.613 6.428 1.615 6.39 1.615 6.39 1.613 6.39 1.444 6.352 1.444 6.352 1.613 6.352 1.615 6.316 1.615 6.316 1.613 6.316 1.548 6.316 1.546 6.316 1.526 6.316 1.525 6.316 1.444 6.278 1.444 6.278 1.525 6.278 1.526 6.139 1.526 6.139 1.657 6.139 1.658 6.245 1.658 6.245 1.657 6.245 1.615 6.177 1.615 6.177 1.613 6.177 1.57 6.278 1.57 6.278 1.657 6.278 1.658 6.466 1.658 6.466 1.657 6.466 1.444 6.428 1.444 6.428 1.613" fill="#fff"/><polygon points="5.854 1.657 5.854 1.658 5.892 1.658 5.892 1.657 5.892 1.615 5.854 1.615 5.854 1.657" fill="#fff"/><polygon points="6.106 1.73 6.106 1.729 6.106 1.728 6.106 1.686 5.78 1.686 5.78 1.728 5.78 1.729 5.78 1.73 6.106 1.73" fill="#fff"/><polygon points="6.466 1.73 6.466 1.729 6.466 1.728 6.466 1.686 6.139 1.686 6.139 1.728 6.139 1.729 6.139 1.73 6.466 1.73" fill="#fff"/><polygon points="6.956 1.485 6.956 1.444 6.49 1.444 6.49 1.485 6.49 1.487 6.956 1.487 6.956 1.485" fill="#fff"/><polygon points="6.705 1.568 6.705 1.57 6.779 1.57 6.779 1.613 6.779 1.615 6.671 1.615 6.671 1.613 6.671 1.526 6.49 1.526 6.49 1.657 6.49 1.658 6.528 1.658 6.528 1.657 6.528 1.57 6.633 1.57 6.633 1.657 6.633 1.658 6.817 1.658 6.817 1.657 6.817 1.526 6.705 1.526 6.705 1.568" fill="#fff"/><polygon points="7.138 1.613 7.138 1.615 7.101 1.615 7.101 1.613 7.101 1.444 7.063 1.444 7.063 1.613 7.063 1.615 7.026 1.615 7.026 1.613 7.026 1.548 7.026 1.546 7.026 1.526 7.026 1.525 7.026 1.444 6.988 1.444 6.988 1.525 6.988 1.526 6.849 1.526 6.849 1.657 6.849 1.658 6.956 1.658 6.956 1.657 6.956 1.615 6.887 1.615 6.887 1.613 6.887 1.57 6.988 1.57 6.988 1.657 6.988 1.658 7.176 1.658 7.176 1.657 7.176 1.444 7.138 1.444 7.138 1.613" fill="#fff"/><polygon points="6.565 1.657 6.565 1.658 6.603 1.658 6.603 1.657 6.603 1.615 6.565 1.615 6.565 1.657" fill="#fff"/><polygon points="6.817 1.73 6.817 1.729 6.817 1.728 6.817 1.686 6.49 1.686 6.49 1.728 6.49 1.729 6.49 1.73 6.817 1.73" fill="#fff"/><polygon points="7.176 1.73 7.176 1.729 7.176 1.728 7.176 1.686 6.849 1.686 6.849 1.728 6.849 1.729 6.849 1.73 7.176 1.73" fill="#fff"/><polygon points="7.666 1.485 7.666 1.444 7.201 1.444 7.201 1.485 7.201 1.487 7.666 1.487 7.666 1.485" fill="#fff"/><polygon points="7.416 1.568 7.416 1.57 7.49 1.57 7.49 1.613 7.49 1.615 7.382 1.615 7.382 1.613 7.382 1.526 7.201 1.526 7.201 1.657 7.201 1.658 7.239 1.658 7.239 1.657 7.239 1.57 7.344 1.57 7.344 1.657 7.344 1.658 7.528 1.658 7.528 1.657 7.528 1.526 7.416 1.526 7.416 1.568" fill="#fff"/><polygon points="7.849 1.613 7.849 1.615 7.811 1.615 7.811 1.613 7.811 1.444 7.773 1.444 7.773 1.613 7.773 1.615 7.737 1.615 7.737 1.613 7.737 1.548 7.737 1.546 7.737 1.526 7.737 1.525 7.737 1.444 7.699 1.444 7.699 1.525 7.699 1.526 7.56 1.526 7.56 1.657 7.56 1.658 7.666 1.658 7.666 1.657 7.666 1.615 7.598 1.615 7.598 1.613 7.598 1.57 7.699 1.57 7.699 1.657 7.699 1.658 7.887 1.658 7.887 1.657 7.887 1.444 7.849 1.444 7.849 1.613" fill="#fff"/><polygon points="7.275 1.657 7.275 1.658 7.313 1.658 7.313 1.657 7.313 1.615 7.275 1.615 7.275 1.657" fill="#fff"/><polygon points="7.528 1.73 7.528 1.729 7.528 1.728 7.528 1.686 7.201 1.686 7.201 1.728 7.201 1.729 7.201 1.73 7.528 1.73" fill="#fff"/><polygon points="7.887 1.73 7.887 1.729 7.887 1.728 7.887 1.686 7.56 1.686 7.56 1.728 7.56 1.729 7.56 1.73 7.887 1.73" fill="#fff"/><polygon points="0.561 3.532 0.561 3.532 0.095 3.532 0.095 3.532 0.095 3.575 0.561 3.575 0.561 3.532" fill="#fff"/><polygon points="0.31 3.615 0.31 3.658 0.384 3.658 0.384 3.658 0.384 3.703 0.276 3.703 0.276 3.615 0.276 3.615 0.095 3.615 0.095 3.615 0.095 3.746 0.133 3.746 0.133 3.658 0.133 3.658 0.238 3.658 0.238 3.658 0.238 3.746 0.422 3.746 0.422 3.615 0.422 3.615 0.31 3.615 0.31 3.615" fill="#fff"/><polygon points="0.743 3.532 0.743 3.703 0.706 3.703 0.706 3.532 0.706 3.532 0.668 3.532 0.668 3.532 0.668 3.703 0.631 3.703 0.631 3.637 0.631 3.636 0.631 3.615 0.631 3.615 0.631 3.532 0.631 3.532 0.593 3.532 0.593 3.532 0.593 3.615 0.454 3.615 0.454 3.615 0.454 3.746 0.561 3.746 0.561 3.704 0.561 3.703 0.492 3.703 0.492 3.658 0.492 3.658 0.593 3.658 0.593 3.658 0.593 3.746 0.781 3.746 0.781 3.532 0.781 3.532 0.743 3.532 0.743 3.532" fill="#fff"/><polygon points="0.17 3.704 0.17 3.746 0.208 3.746 0.208 3.704 0.208 3.703 0.17 3.703 0.17 3.704" fill="#fff"/><polygon points="0.095 3.502 0.422 3.502 0.422 3.459 0.422 3.459 0.095 3.459 0.095 3.459 0.095 3.502" fill="#fff"/><polygon points="0.454 3.502 0.781 3.502 0.781 3.459 0.781 3.459 0.454 3.459 0.454 3.459 0.454 3.502" fill="#fff"/><polygon points="1.271 3.532 1.271 3.532 0.806 3.532 0.806 3.532 0.806 3.575 1.271 3.575 1.271 3.532" fill="#fff"/><polygon points="1.021 3.615 1.021 3.658 1.094 3.658 1.094 3.658 1.094 3.703 0.987 3.703 0.987 3.615 0.987 3.615 0.806 3.615 0.806 3.615 0.806 3.746 0.844 3.746 0.844 3.658 0.844 3.658 0.949 3.658 0.949 3.658 0.949 3.746 1.132 3.746 1.132 3.615 1.132 3.615 1.021 3.615 1.021 3.615" fill="#fff"/><polygon points="1.454 3.532 1.454 3.703 1.416 3.703 1.416 3.532 1.416 3.532 1.378 3.532 1.378 3.532 1.378 3.703 1.342 3.703 1.342 3.637 1.342 3.636 1.342 3.615 1.342 3.615 1.342 3.532 1.342 3.532 1.304 3.532 1.304 3.532 1.304 3.615 1.165 3.615 1.165 3.615 1.165 3.746 1.271 3.746 1.271 3.704 1.271 3.703 1.203 3.703 1.203 3.658 1.203 3.658 1.304 3.658 1.304 3.658 1.304 3.746 1.492 3.746 1.492 3.532 1.492 3.532 1.454 3.532 1.454 3.532" fill="#fff"/><polygon points="0.88 3.704 0.88 3.746 0.918 3.746 0.918 3.704 0.918 3.703 0.88 3.703 0.88 3.704" fill="#fff"/><polygon points="0.806 3.502 1.132 3.502 1.132 3.459 1.132 3.459 0.806 3.459 0.806 3.459 0.806 3.502" fill="#fff"/><polygon points="1.165 3.502 1.492 3.502 1.492 3.459 1.492 3.459 1.165 3.459 1.165 3.459 1.165 3.502" fill="#fff"/><polygon points="1.982 3.532 1.982 3.532 1.516 3.532 1.516 3.532 1.516 3.575 1.982 3.575 1.982 3.532" fill="#fff"/><polygon points="1.731 3.615 1.731 3.658 1.805 3.658 1.805 3.658 1.805 3.703 1.697 3.703 1.697 3.615 1.697 3.615 1.516 3.615 1.516 3.615 1.516 3.746 1.554 3.746 1.554 3.658 1.554 3.658 1.659 3.658 1.659 3.658 1.659 3.746 1.843 3.746 1.843 3.615 1.843 3.615 1.731 3.615 1.731 3.615" fill="#fff"/><polygon points="2.164 3.532 2.164 3.703 2.127 3.703 2.127 3.532 2.127 3.532 2.089 3.532 2.089 3.532 2.089 3.703 2.052 3.703 2.052 3.637 2.052 3.636 2.052 3.615 2.052 3.615 2.052 3.532 2.052 3.532 2.014 3.532 2.014 3.532 2.014 3.615 1.875 3.615 1.875 3.615 1.875 3.746 1.982 3.746 1.982 3.704 1.982 3.703 1.913 3.703 1.913 3.658 1.913 3.658 2.014 3.658 2.014 3.658 2.014 3.746 2.202 3.746 2.202 3.532 2.202 3.532 2.164 3.532 2.164 3.532" fill="#fff"/><polygon points="1.591 3.704 1.591 3.746 1.629 3.746 1.629 3.704 1.629 3.703 1.591 3.703 1.591 3.704" fill="#fff"/><polygon points="1.516 3.502 1.843 3.502 1.843 3.459 1.843 3.459 1.516 3.459 1.516 3.459 1.516 3.502" fill="#fff"/><polygon points="1.875 3.502 2.202 3.502 2.202 3.459 2.202 3.459 1.875 3.459 1.875 3.459 1.875 3.502" fill="#fff"/><polygon points="2.692 3.532 2.692 3.532 2.227 3.532 2.227 3.532 2.227 3.575 2.692 3.575 2.692 3.532" fill="#fff"/><polygon points="2.442 3.615 2.442 3.658 2.516 3.658 2.516 3.658 2.516 3.703 2.408 3.703 2.408 3.615 2.408 3.615 2.227 3.615 2.227 3.615 2.227 3.746 2.265 3.746 2.265 3.658 2.265 3.658 2.37 3.658 2.37 3.658 2.37 3.746 2.554 3.746 2.554 3.615 2.554 3.615 2.442 3.615 2.442 3.615" fill="#fff"/><polygon points="2.875 3.532 2.875 3.703 2.837 3.703 2.837 3.532 2.837 3.532 2.799 3.532 2.799 3.532 2.799 3.703 2.763 3.703 2.763 3.637 2.763 3.636 2.763 3.615 2.763 3.615 2.763 3.532 2.763 3.532 2.725 3.532 2.725 3.532 2.725 3.615 2.586 3.615 2.586 3.615 2.586 3.746 2.692 3.746 2.692 3.704 2.692 3.703 2.624 3.703 2.624 3.658 2.624 3.658 2.725 3.658 2.725 3.658 2.725 3.746 2.913 3.746 2.913 3.532 2.913 3.532 2.875 3.532 2.875 3.532" fill="#fff"/><polygon points="2.301 3.704 2.301 3.746 2.339 3.746 2.339 3.704 2.339 3.703 2.301 3.703 2.301 3.704" fill="#fff"/><polygon points="2.227 3.502 2.554 3.502 2.554 3.459 2.554 3.459 2.227 3.459 2.227 3.459 2.227 3.502" fill="#fff"/><polygon points="2.586 3.502 2.913 3.502 2.913 3.459 2.913 3.459 2.586 3.459 2.586 3.459 2.586 3.502" fill="#fff"/><polygon points="3.403 3.532 3.403 3.532 2.937 3.532 2.937 3.532 2.937 3.575 3.403 3.575 3.403 3.532" fill="#fff"/><polygon points="3.153 3.615 3.153 3.658 3.226 3.658 3.226 3.658 3.226 3.703 3.118 3.703 3.118 3.615 3.118 3.615 2.937 3.615 2.937 3.615 2.937 3.746 2.975 3.746 2.975 3.658 2.975 3.658 3.08 3.658 3.08 3.658 3.08 3.746 3.264 3.746 3.264 3.615 3.264 3.615 3.153 3.615 3.153 3.615" fill="#fff"/><polygon points="3.585 3.532 3.585 3.703 3.548 3.703 3.548 3.532 3.548 3.532 3.51 3.532 3.51 3.532 3.51 3.703 3.473 3.703 3.473 3.637 3.473 3.636 3.473 3.615 3.473 3.615 3.473 3.532 3.473 3.532 3.435 3.532 3.435 3.532 3.435 3.615 3.296 3.615 3.296 3.615 3.296 3.746 3.403 3.746 3.403 3.704 3.403 3.703 3.335 3.703 3.335 3.658 3.335 3.658 3.435 3.658 3.435 3.658 3.435 3.746 3.623 3.746 3.623 3.532 3.623 3.532 3.585 3.532 3.585 3.532" fill="#fff"/><polygon points="3.012 3.704 3.012 3.746 3.05 3.746 3.05 3.704 3.05 3.703 3.012 3.703 3.012 3.704" fill="#fff"/><polygon points="2.937 3.502 3.264 3.502 3.264 3.459 3.264 3.459 2.937 3.459 2.937 3.459 2.937 3.502" fill="#fff"/><polygon points="3.296 3.502 3.623 3.502 3.623 3.459 3.623 3.459 3.296 3.459 3.296 3.459 3.296 3.502" fill="#fff"/><polygon points="4.113 3.532 4.113 3.532 3.648 3.532 3.648 3.532 3.648 3.575 4.113 3.575 4.113 3.532" fill="#fff"/><polygon points="3.863 3.615 3.863 3.658 3.937 3.658 3.937 3.658 3.937 3.703 3.829 3.703 3.829 3.615 3.829 3.615 3.648 3.615 3.648 3.615 3.648 3.746 3.686 3.746 3.686 3.658 3.686 3.658 3.791 3.658 3.791 3.658 3.791 3.746 3.975 3.746 3.975 3.615 3.975 3.615 3.863 3.615 3.863 3.615" fill="#fff"/><polygon points="4.296 3.532 4.296 3.703 4.259 3.703 4.259 3.532 4.259 3.532 4.221 3.532 4.221 3.532 4.221 3.703 4.184 3.703 4.184 3.637 4.184 3.636 4.184 3.615 4.184 3.615 4.184 3.532 4.184 3.532 4.146 3.532 4.146 3.532 4.146 3.615 4.007 3.615 4.007 3.615 4.007 3.746 4.113 3.746 4.113 3.704 4.113 3.703 4.045 3.703 4.045 3.658 4.045 3.658 4.146 3.658 4.146 3.658 4.146 3.746 4.334 3.746 4.334 3.532 4.334 3.532 4.296 3.532 4.296 3.532" fill="#fff"/><polygon points="3.722 3.704 3.722 3.746 3.76 3.746 3.76 3.704 3.76 3.703 3.722 3.703 3.722 3.704" fill="#fff"/><polygon points="3.648 3.502 3.975 3.502 3.975 3.459 3.975 3.459 3.648 3.459 3.648 3.459 3.648 3.502" fill="#fff"/><polygon points="4.007 3.502 4.334 3.502 4.334 3.459 4.334 3.459 4.007 3.459 4.007 3.459 4.007 3.502" fill="#fff"/><polygon points="4.824 3.532 4.824 3.532 4.358 3.532 4.358 3.532 4.358 3.575 4.824 3.575 4.824 3.532" fill="#fff"/><polygon points="4.574 3.615 4.574 3.658 4.647 3.658 4.647 3.658 4.647 3.703 4.54 3.703 4.54 3.615 4.54 3.615 4.358 3.615 4.358 3.615 4.358 3.746 4.396 3.746 4.396 3.658 4.396 3.658 4.502 3.658 4.502 3.658 4.502 3.746 4.685 3.746 4.685 3.615 4.685 3.615 4.574 3.615 4.574 3.615" fill="#fff"/><polygon points="5.007 3.532 5.007 3.703 4.969 3.703 4.969 3.532 4.969 3.532 4.931 3.532 4.931 3.532 4.931 3.703 4.894 3.703 4.894 3.637 4.894 3.636 4.894 3.615 4.894 3.615 4.894 3.532 4.894 3.532 4.856 3.532 4.856 3.532 4.856 3.615 4.718 3.615 4.718 3.615 4.718 3.746 4.824 3.746 4.824 3.704 4.824 3.703 4.756 3.703 4.756 3.658 4.756 3.658 4.856 3.658 4.856 3.658 4.856 3.746 5.045 3.746 5.045 3.532 5.045 3.532 5.007 3.532 5.007 3.532" fill="#fff"/><polygon points="4.433 3.704 4.433 3.746 4.471 3.746 4.471 3.704 4.471 3.703 4.433 3.703 4.433 3.704" fill="#fff"/><polygon points="4.358 3.502 4.685 3.502 4.685 3.459 4.685 3.459 4.358 3.459 4.358 3.459 4.358 3.502" fill="#fff"/><polygon points="4.718 3.502 5.045 3.502 5.045 3.459 5.045 3.459 4.718 3.459 4.718 3.459 4.718 3.502" fill="#fff"/><polygon points="5.535 3.532 5.535 3.532 5.069 3.532 5.069 3.532 5.069 3.575 5.535 3.575 5.535 3.532" fill="#fff"/><polygon points="5.284 3.615 5.284 3.658 5.358 3.658 5.358 3.658 5.358 3.703 5.25 3.703 5.25 3.615 5.25 3.615 5.069 3.615 5.069 3.615 5.069 3.746 5.107 3.746 5.107 3.658 5.107 3.658 5.212 3.658 5.212 3.658 5.212 3.746 5.396 3.746 5.396 3.615 5.396 3.615 5.284 3.615 5.284 3.615" fill="#fff"/><polygon points="5.717 3.532 5.717 3.703 5.68 3.703 5.68 3.532 5.68 3.532 5.642 3.532 5.642 3.532 5.642 3.703 5.605 3.703 5.605 3.637 5.605 3.636 5.605 3.615 5.605 3.615 5.605 3.532 5.605 3.532 5.567 3.532 5.567 3.532 5.567 3.615 5.428 3.615 5.428 3.615 5.428 3.746 5.535 3.746 5.535 3.704 5.535 3.703 5.466 3.703 5.466 3.658 5.466 3.658 5.567 3.658 5.567 3.658 5.567 3.746 5.755 3.746 5.755 3.532 5.755 3.532 5.717 3.532 5.717 3.532" fill="#fff"/><polygon points="5.144 3.704 5.144 3.746 5.182 3.746 5.182 3.704 5.182 3.703 5.144 3.703 5.144 3.704" fill="#fff"/><polygon points="5.069 3.502 5.396 3.502 5.396 3.459 5.396 3.459 5.069 3.459 5.069 3.459 5.069 3.502" fill="#fff"/><polygon points="5.428 3.502 5.755 3.502 5.755 3.459 5.755 3.459 5.428 3.459 5.428 3.459 5.428 3.502" fill="#fff"/><polygon points="6.245 3.532 6.245 3.532 5.78 3.532 5.78 3.532 5.78 3.575 6.245 3.575 6.245 3.532" fill="#fff"/><polygon points="5.995 3.615 5.995 3.658 6.068 3.658 6.068 3.658 6.068 3.703 5.961 3.703 5.961 3.615 5.961 3.615 5.78 3.615 5.78 3.615 5.78 3.746 5.818 3.746 5.818 3.658 5.818 3.658 5.923 3.658 5.923 3.658 5.923 3.746 6.106 3.746 6.106 3.615 6.106 3.615 5.995 3.615 5.995 3.615" fill="#fff"/><polygon points="6.428 3.532 6.428 3.703 6.39 3.703 6.39 3.532 6.39 3.532 6.352 3.532 6.352 3.532 6.352 3.703 6.316 3.703 6.316 3.637 6.316 3.636 6.316 3.615 6.316 3.615 6.316 3.532 6.316 3.532 6.278 3.532 6.278 3.532 6.278 3.615 6.139 3.615 6.139 3.615 6.139 3.746 6.245 3.746 6.245 3.704 6.245 3.703 6.177 3.703 6.177 3.658 6.177 3.658 6.278 3.658 6.278 3.658 6.278 3.746 6.466 3.746 6.466 3.532 6.466 3.532 6.428 3.532 6.428 3.532" fill="#fff"/><polygon points="5.854 3.704 5.854 3.746 5.892 3.746 5.892 3.704 5.892 3.703 5.854 3.703 5.854 3.704" fill="#fff"/><polygon points="5.78 3.502 6.106 3.502 6.106 3.459 6.106 3.459 5.78 3.459 5.78 3.459 5.78 3.502" fill="#fff"/><polygon points="6.139 3.502 6.466 3.502 6.466 3.459 6.466 3.459 6.139 3.459 6.139 3.459 6.139 3.502" fill="#fff"/><polygon points="6.956 3.532 6.956 3.532 6.49 3.532 6.49 3.532 6.49 3.575 6.956 3.575 6.956 3.532" fill="#fff"/><polygon points="6.705 3.615 6.705 3.658 6.779 3.658 6.779 3.658 6.779 3.703 6.671 3.703 6.671 3.615 6.671 3.615 6.49 3.615 6.49 3.615 6.49 3.746 6.528 3.746 6.528 3.658 6.528 3.658 6.633 3.658 6.633 3.658 6.633 3.746 6.817 3.746 6.817 3.615 6.817 3.615 6.705 3.615 6.705 3.615" fill="#fff"/><polygon points="7.138 3.532 7.138 3.703 7.101 3.703 7.101 3.532 7.101 3.532 7.063 3.532 7.063 3.532 7.063 3.703 7.026 3.703 7.026 3.637 7.026 3.636 7.026 3.615 7.026 3.615 7.026 3.532 7.026 3.532 6.988 3.532 6.988 3.532 6.988 3.615 6.849 3.615 6.849 3.615 6.849 3.746 6.956 3.746 6.956 3.704 6.956 3.703 6.887 3.703 6.887 3.658 6.887 3.658 6.988 3.658 6.988 3.658 6.988 3.746 7.176 3.746 7.176 3.532 7.176 3.532 7.138 3.532 7.138 3.532" fill="#fff"/><polygon points="6.565 3.704 6.565 3.746 6.603 3.746 6.603 3.704 6.603 3.703 6.565 3.703 6.565 3.704" fill="#fff"/><polygon points="6.49 3.502 6.817 3.502 6.817 3.459 6.817 3.459 6.49 3.459 6.49 3.459 6.49 3.502" fill="#fff"/><polygon points="6.849 3.502 7.176 3.502 7.176 3.459 7.176 3.459 6.849 3.459 6.849 3.459 6.849 3.502" fill="#fff"/><polygon points="7.666 3.532 7.666 3.532 7.201 3.532 7.201 3.532 7.201 3.575 7.666 3.575 7.666 3.532" fill="#fff"/><polygon points="7.416 3.615 7.416 3.658 7.49 3.658 7.49 3.658 7.49 3.703 7.382 3.703 7.382 3.615 7.382 3.615 7.201 3.615 7.201 3.615 7.201 3.746 7.239 3.746 7.239 3.658 7.239 3.658 7.344 3.658 7.344 3.658 7.344 3.746 7.528 3.746 7.528 3.615 7.528 3.615 7.416 3.615 7.416 3.615" fill="#fff"/><polygon points="7.849 3.532 7.849 3.703 7.811 3.703 7.811 3.532 7.811 3.532 7.773 3.532 7.773 3.532 7.773 3.703 7.737 3.703 7.737 3.637 7.737 3.636 7.737 3.615 7.737 3.615 7.737 3.532 7.737 3.532 7.699 3.532 7.699 3.532 7.699 3.615 7.56 3.615 7.56 3.615 7.56 3.746 7.666 3.746 7.666 3.704 7.666 3.703 7.598 3.703 7.598 3.658 7.598 3.658 7.699 3.658 7.699 3.658 7.699 3.746 7.887 3.746 7.887 3.532 7.887 3.532 7.849 3.532 7.849 3.532" fill="#fff"/><polygon points="7.275 3.704 7.275 3.746 7.313 3.746 7.313 3.704 7.313 3.703 7.275 3.703 7.275 3.704" fill="#fff"/><polygon points="7.201 3.502 7.528 3.502 7.528 3.459 7.528 3.459 7.201 3.459 7.201 3.459 7.201 3.502" fill="#fff"/><polygon points="7.56 3.502 7.887 3.502 7.887 3.459 7.887 3.459 7.56 3.459 7.56 3.459 7.56 3.502" fill="#fff"/><path d="M3.4836,2.7652a.6133.6133,0,0,1,.0657-.46.8668.8668,0,0,1,.071-.104,1.1933,1.1933,0,0,1,.0889-.1.318.318,0,0,0-.0673.02.4552.4552,0,0,0-.0631.0319.5007.5007,0,0,0-.1111.0913.4945.4945,0,0,0-.0821.1226l-.0077.017L3.371,2.402c-.0049.0116-.0082.0236-.0122.0355l-.0049.0181L3.35,2.4739c-.0025.0122-.005.0245-.0066.0369a.5158.5158,0,0,0-.0053.0746.531.531,0,0,0,.006.0746.5088.5088,0,0,0,.0169.0725.5274.5274,0,0,0,.0274.0684A.4938.4938,0,0,0,3.47,2.92a.4448.4448,0,0,0,.0521.0479.3123.3123,0,0,0,.0594.0377,1.1491,1.1491,0,0,1-.0581-.12A.8339.8339,0,0,1,3.4836,2.7652Z" fill="#c00"/><path d="M4.6322,2.4739l-.0044-.0183-.0049-.0181c-.0039-.0119-.0073-.0239-.0121-.0355l-.0069-.0174-.0078-.017A.4918.4918,0,0,0,4.514,2.245a.5.5,0,0,0-.111-.0913A.4509.4509,0,0,0,4.34,2.1218a.3163.3163,0,0,0-.0673-.02,1.1757,1.1757,0,0,1,.0889.1.8552.8552,0,0,1,.071.104.6133.6133,0,0,1,.0657.46.8333.8333,0,0,1-.0392.1195,1.1693,1.1693,0,0,1-.0581.12A.3116.3116,0,0,0,4.46,2.9675.4457.4457,0,0,0,4.5123,2.92a.4934.4934,0,0,0,.0815-.1187A.492.492,0,0,0,4.6382,2.66a.5463.5463,0,0,0,.0059-.0746.5158.5158,0,0,0-.0053-.0746C4.6372,2.4984,4.6348,2.4861,4.6322,2.4739Z" fill="#c00"/><path d="M4.4189,2.5462a.6.6,0,0,0-.0113-.103.5892.5892,0,0,0-.0735-.19.5307.5307,0,0,0-.0595-.08.45.45,0,0,0-.0727-.0661c.0157.0286.03.0569.0425.0856a.7724.7724,0,0,1,.032.0869.71.71,0,0,1,.03.176.6185.6185,0,0,1-.2572.5357l.0223-.8482-.08-.0692-.08.0692.0222.8483a.6186.6186,0,0,1-.2573-.5358.71.71,0,0,1,.03-.176.7924.7924,0,0,1,.032-.0869c.0125-.0287.0268-.057.0425-.0856a.45.45,0,0,0-.0727.0661.5376.5376,0,0,0-.06.08.5939.5939,0,0,0-.0848.2925.603.603,0,0,0,.0742.3032.6081.6081,0,0,0,.233.2357c-.0143.0051-.0288.01-.0435.014a.7776.7776,0,0,1-.09.02c-.0309.0052-.0625.0086-.095.0111a.4622.4622,0,0,0,.0949.0251.5426.5426,0,0,0,.1.0064.5677.5677,0,0,0,.1082-.0134l.0461.0885.0461-.0884a.5735.5735,0,0,0,.108.0133.5426.5426,0,0,0,.1-.0064A.4622.4622,0,0,0,4.34,3.1306c-.0325-.0025-.0641-.0059-.095-.0111a.7776.7776,0,0,1-.09-.02c-.0147-.0043-.0292-.0089-.0435-.014a.6034.6034,0,0,0,.3072-.5389Z" fill="#c00"/><path d="M3.9126,2.0605a.065.065,0,0,0,.05-.0147c.0174-.0175.0185-.0208.0293-.0208s.0111.0042.028.0211h0a.0867.0867,0,0,0,.05.0141c.0542-.0027.0854-.0626.0913-.0865a.1054.1054,0,0,0-.0007-.054c-.0446.0673-.0752.077-.0956.074-.0325-.0048-.0427-.0488-.0745-.0481s-.0385.0419-.07.0479c-.0206.004-.0522-.007-.1005-.0738a.1169.1169,0,0,0,.0922.1408Z" fill="#c00"/></svg>