<svg xmlns="http://www.w3.org/2000/svg" viewBox="0 0 7.9818 5.1882"><polygon points="0.432 5.188 7.982 1.297 7.982 1.038 0 5.188 0.432 5.188" fill="#fc0"/><polygon points="7.982 5.188 7.982 1.297 0.432 5.188 7.982 5.188" fill="#06f"/><polygon points="0 4.151 0 5.188 7.982 1.038 7.982 0 0 4.151" fill="#c03"/><path d="M0,0V3.8966L7.5493,0ZM1.7972,1.7678l-.5954.4451.2167-.72L.8059,1.0476h.7573l.234-.72.234.72h.7573l-.6127.4451.2168.72Z" fill="#06f"/><polygon points="7.549 0 0 3.897 0 4.151 7.982 0 7.549 0" fill="#fc0"/><polygon points="2.788 1.048 2.031 1.048 1.797 0.327 1.563 1.048 0.806 1.048 1.418 1.493 1.202 2.213 1.797 1.768 2.393 2.213 2.176 1.493 2.788 1.048" fill="#fc0"/></svg>