<svg xmlns="http://www.w3.org/2000/svg" viewBox="0 0 7.9818 5.1882"><polygon points="0 0 0 3.879 5.918 0 0 0" fill="#00a449"/><polygon points="7.982 5.188 7.982 1.31 2.064 5.188 7.982 5.188" fill="#ce1826"/><polygon points="2.064 5.188 7.982 1.31 7.982 0.935 1.503 5.188 2.064 5.188" fill="#fcd116"/><polygon points="5.918 0 0 3.879 0 4.253 6.479 0 5.918 0" fill="#fcd116"/><path d="M6.4791,0,0,4.2529v.9353H1.5027L7.9818.9353V0ZM2.6674,3.8118l-.1806.4961L2.3413,3.8,1.8137,3.782l.4377-.2953-.1456-.5075.4161.3251L2.96,3.009l-.1806.4962.416.325ZM5.62,1.84l-.1806.4961-.1455-.5075-.5276-.0184.4377-.2953-.1456-.5075.4161.3251.4377-.2953-.1806.4961.416.3251Z"/><polygon points="2.96 3.009 2.522 3.304 2.106 2.979 2.251 3.487 1.814 3.782 2.341 3.8 2.487 4.308 2.667 3.812 3.195 3.83 2.779 3.505 2.96 3.009" fill="#fff"/><polygon points="5.912 1.038 5.474 1.333 5.058 1.008 5.203 1.515 4.766 1.811 5.293 1.829 5.439 2.336 5.619 1.84 6.147 1.859 5.731 1.534 5.912 1.038" fill="#fff"/></svg>