<svg xmlns="http://www.w3.org/2000/svg" viewBox="0 0 7.9819 5.1882"><path d="M2.0075,3.2068a.2855.2855,0,0,1,.2547-.2059.2814.2814,0,0,1,.2446.1408.4816.4816,0,0,1,.23-.272V2.4515H2.4648A.6648.6648,0,0,0,2.2054,2.5a1.1689,1.1689,0,0,0,.0093-.1446,1.1479,1.1479,0,0,0-.0093-.1482.9664.9664,0,0,0,.2594.0482h.2718v-.273H2.5772a.651.651,0,0,0-.1334.0111.66.66,0,0,0-.126.037,1.1659,1.1659,0,0,0,.0093-.1445,1.1479,1.1479,0,0,0-.0093-.1482.9664.9664,0,0,0,.2594.0482h.1594v-.139a.6769.6769,0,0,0-.0482-.2594,1.1506,1.1506,0,0,0,.1445.0092,1.1678,1.1678,0,0,0,.1483-.0092.9561.9561,0,0,0-.0482.2594v.139h.1593a.6523.6523,0,0,0,.1335-.0112.66.66,0,0,0,.126-.037,1.156,1.156,0,0,0,0,.2927.9726.9726,0,0,0-.13-.0333.95.95,0,0,0-.13-.0148H2.933v.273h.2718a.6823.6823,0,0,0,.2594-.0482,1.1568,1.1568,0,0,0,0,.2928.9561.9561,0,0,0-.2594-.0482H2.933v.4159a.4941.4941,0,0,1,.2316.2715.3015.3015,0,0,1,.2334-.1408.2886.2886,0,0,1,.2615.208,1.5138,1.5138,0,0,0,.21-.7617c.0019-.2081.001-.4192-.0026-.6273l-.0018-.0877c-.0031-.1425-.0074-.286-.0131-.4282H1.8231c-.007.1421-.0125.2855-.0164.4282-.0014.0516-.0026.1032-.0036.1545-.0036.1877-.0046.3782-.0028.566A1.535,1.535,0,0,0,2.0075,3.2068Z" fill="#e2292d"/><path d="M3.398,2.9981a.3015.3015,0,0,0-.2334.1408.4941.4941,0,0,0-.2316-.2715.2268.2268,0,0,0-.1177-.0217.2342.2342,0,0,0-.0787.024.4816.4816,0,0,0-.23.272.2814.2814,0,0,0-.2446-.1408.2855.2855,0,0,0-.2547.2059,1.4779,1.4779,0,0,0,.136.1955h0l.0122.0147.0368.0418a1.5738,1.5738,0,0,0,.6421.4262,1.6018,1.6018,0,0,0,.6372-.4262l.034-.0384c.0282-.033.0554-.0676.0807-.1028s.05-.0734.073-.1115A.2886.2886,0,0,0,3.398,2.9981Z" fill="#184b9e"/><path d="M3.96,1.8155c.0037.2089.0046.4208.0027.63a1.63,1.63,0,0,1-.0786.4865,1.5877,1.5877,0,0,1-.2222.44c-.0213.03-.0439.0588-.0673.0871H7.9819V1.7294H3.9581Z" fill="#184b9e"/><path d="M1.7077,2.4508c-.0018-.1887-.0009-.38.0028-.5687.0009-.0507.0021-.1017.0035-.1527H0V3.4588H2.07A1.616,1.616,0,0,1,1.7077,2.4508Z" fill="#184b9e"/><path d="M0,0V1.7294H1.714c.0044-.159.0106-.3188.0187-.4769l.0023-.0439H3.9412l.0019.0443c.0066.158.0116.3179.015.4765H7.9819V0Z" fill="#fdfeff"/><path d="M3.5763,3.4806a1.694,1.694,0,0,1-.7262.4972l-.0151.0053L2.82,3.9779a1.6644,1.6644,0,0,1-.7349-.5012l-.013-.0155L2.07,3.4588H0V5.1882H7.9819V3.4588H3.5944Z" fill="#e2292d"/><path d="M2.933,2.8674V2.4515h.2718A.9561.9561,0,0,1,3.4642,2.5a1.1568,1.1568,0,0,1,0-.2928.6823.6823,0,0,1-.2594.0482H2.933v-.273h.1593a.95.95,0,0,1,.13.0148.9726.9726,0,0,1,.13.0333,1.156,1.156,0,0,1,0-.2927.66.66,0,0,1-.126.037.6523.6523,0,0,1-.1335.0112H2.933v-.139a.9561.9561,0,0,1,.0482-.2594,1.1678,1.1678,0,0,1-.1483.0092,1.1506,1.1506,0,0,1-.1445-.0092.6769.6769,0,0,1,.0482.2594v.139H2.5772a.9664.9664,0,0,1-.2594-.0482,1.1479,1.1479,0,0,1,.0093.1482,1.1659,1.1659,0,0,1-.0093.1445.66.66,0,0,1,.126-.037.651.651,0,0,1,.1334-.0111h.1594v.273H2.4648a.9664.9664,0,0,1-.2594-.0482,1.1479,1.1479,0,0,1,.0093.1482A1.1689,1.1689,0,0,1,2.2054,2.5a.6648.6648,0,0,1,.2594-.0482h.2718V2.87a.2342.2342,0,0,1,.0787-.024A.2268.2268,0,0,1,2.933,2.8674Z" fill="#fdfeff"/><path d="M1.7077,2.4508A1.616,1.616,0,0,0,2.07,3.4588l.0019.0024.013.0155a1.6644,1.6644,0,0,0,.7349.5012l.0151.0052L2.85,3.9778a1.694,1.694,0,0,0,.7262-.4972l.0181-.0218c.0234-.0283.046-.0575.0673-.0871a1.5877,1.5877,0,0,0,.2222-.44,1.63,1.63,0,0,0,.0786-.4865c.0019-.209.001-.4209-.0027-.63l-.0017-.0861c-.0034-.1586-.0084-.3185-.015-.4765l-.0019-.0443H1.735l-.0023.0439c-.0081.1581-.0143.3179-.0187.4769-.0014.051-.0026.102-.0035.1527C1.7068,2.0707,1.7059,2.2621,1.7077,2.4508Zm.0954-.5669c.001-.0513.0022-.1029.0036-.1545.0039-.1427.0094-.2861.0164-.4282H3.8523c.0057.1422.01.2857.0131.4282l.0018.0877c.0036.2081.0045.4192.0026.6273a1.5138,1.5138,0,0,1-.21.7617q-.0339.0572-.073.1115c-.0253.0352-.0525.07-.0807.1028l-.034.0384a1.6018,1.6018,0,0,1-.6372.4262,1.5738,1.5738,0,0,1-.6421-.4262L2.1557,3.417l-.0122-.0147h0a1.4779,1.4779,0,0,1-.136-.1955A1.535,1.535,0,0,1,1.8,2.45C1.7985,2.2621,1.8,2.0716,1.8031,1.8839Z" fill="#fdfeff"/></svg>