<svg xmlns="http://www.w3.org/2000/svg" viewBox="0 0 7.9818 5.1882"><rect width="7.9818" height="4.0027" fill="#18b222"/><rect y="2.5921" width="7.9818" height="2.5921" fill="#4589d9"/><polygon points="0 5.188 7.982 2.596 0 0.004 0 5.188" fill="#e6052e"/><path d="M1.9569,2.3022c-.01-.0045.0139-.0449.0044-.1051a.1946.1946,0,0,0-.0724-.1183c-.0119-.0085-.038-.027-.0548-.0176s-.0143.0462-.0131.057a.1451.1451,0,0,0,.046.0876.3981.3981,0,0,1-.1359-.2081.302.302,0,0,0-.0154.1117c.0061.1081.0727.1841.055.1981-.01.008-.0377-.0117-.044-.0162a.1084.1084,0,0,1-.0417-.0657.3126.3126,0,0,0,0,.0788.2012.2012,0,0,0,.0636.1424.1542.1542,0,0,0,.0746.0307.1718.1718,0,0,0,.103-.0175q.0077.1961.0154.3922a1.2717,1.2717,0,0,0-.11-.1162c-.0426-.04-.1051-.0981-.1228-.0854-.0113.0081,0,.0423.0066.0613a.735.735,0,0,0,.0735.126c-.0074.0087-.09-.048-.0987-.0537-.0509-.0349-.0684-.0533-.0756-.0482-.0108.0077.0086.0621.0394.1074a.52.52,0,0,0,.1513.1293.2644.2644,0,0,1-.1315-.0548c-.04-.0269-.0522-.0459-.0592-.0416-.0158.0094.0067.1267.0855.1884a.27.27,0,0,0,.2861.0076q.0108.1653.02.3331l.0055.1062a.37.37,0,0,1-.0691-.0153c-.022-.0072-.0316-.0127-.0482-.0186a.2889.2889,0,0,0-.0932-.0154.3694.3694,0,0,1-.1962-.115.619.619,0,0,1-.1327-.1862.8441.8441,0,0,1-.0548-.1337c0,.01-.0012.0255-.0033.0438-.0031.0276-.0066.0576-.0131.0581s-.01-.0245-.0227-.0622A.5892.5892,0,0,0,1.33,2.9639c-.0159-.0286-.0466-.084-.057-.08-.0057.0023-.0016.021.0022.0584a.4107.4107,0,0,1,.0011.1257.1891.1891,0,0,1-.034-.1107A.2554.2554,0,0,1,1.2487,2.88a.7342.7342,0,0,1,.034-.0777.2973.2973,0,0,0-.011-.1348c-.0089-.0458-.014-.0561-.0285-.1238-.0064-.03-.0112-.0545-.0142-.0712l-.0209.0767a.9491.9491,0,0,1-.0548.1775.3381.3381,0,0,1,.0044-.0811.823.823,0,0,1,.01-.1161c.0111-.0424.0212-.0347.0537-.115a.3225.3225,0,0,0,.0241-.092c0-.0042.0053-.0547-.0044-.057-.0066-.0016-.0173.02-.0252.035a.38.38,0,0,1-.0285.06c-.0071.01-.0215.026-.0274.023s.0018-.0351.0044-.0438a.3024.3024,0,0,1,.0537-.103.6829.6829,0,0,1,.0954-.09.6059.6059,0,0,0,.0625-.0548A.2078.2078,0,0,0,1.43,2.0065c.0112-.04.0076-.0921-.01-.0975-.0035-.0011-.0108-.0014-.0493.0416a1.2626,1.2626,0,0,0-.0822.103c-.02.0283-.0283.0421-.0318.0405-.0055-.0024.0047-.0394.0153-.0668a.3216.3216,0,0,1,.1173-.1556.3266.3266,0,0,1,.1042-.046.6068.6068,0,0,1,.1227-.0164.4514.4514,0,0,0,.091-.0066c.0541-.015.0968-.0516.0932-.0591-.001-.0022-.0053-.0013-.034.0032a.45.45,0,0,1-.0877.01c-.0127,0-.0441-.0016-.046-.011s.0321-.027.0581-.0361a.4764.4764,0,0,1,.1535-.0132.295.295,0,0,0,.1041-.012.1221.1221,0,0,0,.0669-.05A.1.1,0,0,0,2.0271,1.6a.2859.2859,0,0,1-.0538.02.3571.3571,0,0,1-.1019.0076c-.0273-.0006-.1046-.0024-.1053-.012,0-.0052.0218-.0077.07-.023s.0485-.02.09-.0329c.03-.01.0252-.0056.1053-.0263a.3575.3575,0,0,0,.0909-.035c.0332-.0186.0345-.027.034-.0307-.0015-.0112-.0246-.0166-.0482-.0219a.2676.2676,0,0,0-.0833-.0088.4394.4394,0,0,0-.1129.0241,1.27,1.27,0,0,0-.13.0438.7815.7815,0,0,0-.1557.09.5893.5893,0,0,1,.0658-.0734.45.45,0,0,0,.07-.0822c.0068-.01.0131-.019.01-.0241-.0064-.01-.0462.0032-.069.0132a.2965.2965,0,0,0-.0834.0569c-.0595.0532-.0893.08-.11.1019a1.0422,1.0422,0,0,0-.1052.1369c-.0177.0265-.0316.05-.0417.0669a.3032.3032,0,0,0-.0373.0284.32.32,0,0,0-.0394.0428c-.0345.044-.0465.0782-.05.0766A.2838.2838,0,0,1,1.25,1.8728c.0042-.0178.01-.0491.0208-.1117.0162-.0914.0136-.0847.0176-.0986.01-.0348.0207-.058.0131-.0635-.0061-.0046-.0209.0052-.0329.0142a.36.36,0,0,0-.1.1117.4667.4667,0,0,0-.0417.1545c-.0147.1084-.0006.1466-.0121.299a.5246.5246,0,0,1-.0131.1041c-.0034,0,0-.0667-.0077-.172a1.2587,1.2587,0,0,0-.023-.1358c-.0079-.0384-.0138-.0609-.0252-.0624-.0147-.002-.03.0314-.0362.0438a.3137.3137,0,0,0-.0274.1457c.0053.1547-.0093.0948,0,.2191a2.3844,2.3844,0,0,0,.0427.3045A.51.51,0,0,0,.9823,2.518a.3.3,0,0,1-.0241-.0471c-.0172-.0464-.012-.0823-.02-.0832-.006-.0008-.0133.02-.02.0394a.3611.3611,0,0,0-.02.08.4192.4192,0,0,0,.0153.1566.6184.6184,0,0,0,.0877.172,2.4751,2.4751,0,0,1,.1557.2235c-.0061.0063-.0423-.02-.0724-.0416a.8155.8155,0,0,1-.1611-.1545.8956.8956,0,0,1-.0724-.1062A.4072.4072,0,0,0,.8573,2.84.4584.4584,0,0,0,.9505,3.04a.821.821,0,0,0,.2236.1785c.0906.0591.1678.1.1656.1041A.6621.6621,0,0,1,1.2542,3.29.4215.4215,0,0,0,1.1533,3.26a.1974.1974,0,0,0-.0723.0022c-.0264.006-.0595.02-.0581.03.001.0071.02.0075.0526.0154a.7687.7687,0,0,1,.0767.0263.67.67,0,0,1,.1228.0525.4339.4339,0,0,1,.0592.0482.7473.7473,0,0,0,.159.1.8277.8277,0,0,0,.2894.06c.0712.0075.13.01.1688.0109a.23.23,0,0,0-.0438.02.1774.1774,0,0,0-.0746.0723.1569.1569,0,0,0-.0164.0777H2.27a.17.17,0,0,0-.0213-.0821A.183.183,0,0,0,2.2,3.6373.234.234,0,0,0,2.1315,3.6c.0258,0,.0614-.0009.1036-.0032,0,0,.0853-.0049.1636-.0157a1.339,1.339,0,0,0,.4539-.1347c.0834-.0435.1817-.1082.1726-.13-.0113-.0272-.1864.0268-.1924.0082-.0034-.0107.0539-.0314.1283-.0772A.934.934,0,0,0,3.18,3.06a.6338.6338,0,0,0,.1086-.1676.2671.2671,0,0,0,.023-.11c0-.0029-.0012-.0683-.0165-.0706s-.0286.0662-.0641.1331a.3711.3711,0,0,1-.2023.189,2.7048,2.7048,0,0,1,.1546-.2367A.5816.5816,0,0,0,3.26,2.6391a.2869.2869,0,0,0,.0066-.1709c-.0143-.045-.0443-.09-.0592-.0854s-.0025.0454-.0181.1035c-.0205.0759-.0743.1331-.0839.1281a.9649.9649,0,0,1,.0494-.1577.7268.7268,0,0,0,.0427-.3385.6384.6384,0,0,0-.0641-.184c-.0049-.01-.0363-.0742-.0461-.0707-.0081.003.0088.05.0116.115a.2892.2892,0,0,1-.0313.1693.7158.7158,0,0,1-.0164-.1364,1.1761,1.1761,0,0,0-.0395-.1906c-.0351-.1164-.0665-.1443-.0822-.1561-.03-.0223-.0726-.0387-.0839-.0263-.0139.0153.0335.06.0641.1512a.2734.2734,0,0,1,.0181.161c-.008.002-.0148-.0462-.0559-.1035-.0428-.06-.0771-.0655-.13-.1216a.6893.6893,0,0,1-.0839-.1282c-.0945-.1459-.2443-.25-.27-.23-.0067.0054-.0017.0239.0083.0608a.3964.3964,0,0,0,.074.1511c.0488.0615.1.0887.0953.0953-.003.0047-.03-.0063-.0526-.02a.3419.3419,0,0,1-.0723-.0673c-.0439-.0444-.0658-.0665-.0987-.0723a.2413.2413,0,0,0-.09.0131.6171.6171,0,0,1-.0675.0181c-.0537.0056-.09-.0164-.0937-.0082s.0293.0358.051.0509c.0179.0125.0308.0183.03.0246s-.02.01-.0313.01a.1035.1035,0,0,1-.0411-.01l-.0526-.02c-.0036.0045.02.03.0428.051a.295.295,0,0,0,.0838.0542.2518.2518,0,0,0,.0855.0213.5612.5612,0,0,0,.0987-.0131.4035.4035,0,0,1,.125.01c.041.0083.11.0275.1085.041-.0014.0119-.0568.0146-.0625.0148-.0737.0035-.12-.0227-.1266-.0115s.036.0468.0411.051a.2371.2371,0,0,0,.1233.0558.3009.3009,0,0,0,.1-.0065c.0405-.0093.0629-.023.0937-.0132a.0988.0988,0,0,1,.0378.0247c.037.0331.0385.0584.074.115.0311.05.0557.071.0494.0789s-.0283-.0017-.0445-.0115c-.033-.02-.04-.0478-.0641-.0888-.0072-.0121-.0589-.0981-.0838-.09-.0218.0067-.0157.0821-.0149.092a.2748.2748,0,0,0,.0346.1183c.0563.1.1295.0871.1579.1676.0154.0439-.0073.0451.0082.1216a.7585.7585,0,0,0,.0542.1479.71.71,0,0,1,.0461.1117c.0134.0543.0163.1207.0016.1249s-.0475-.0624-.0608-.09a.2922.2922,0,0,1-.0378-.1167c-.003-.054.0162-.0854.0049-.092s-.0457.0177-.0641.051a.2412.2412,0,0,0,.0082.1889.2562.2562,0,0,1,.0148.0378.1682.1682,0,0,1-.0082.1134c-.0132.0268-.0228.0237-.0329.0493a.1711.1711,0,0,0-.005.0789.18.18,0,0,1-.0608.1429c-.0029-.001-.0014-.01.0033-.0854.0022-.0365.0025-.0441-.0017-.046-.01-.0046-.0308.0316-.08.092s-.06.0618-.0773.0953c-.0209.0405-.0106.0468-.0313.092A.259.259,0,0,1,2.504,3.38c-.0182.0125-.0261.0133-.1234.0394-.0872.0235-.1309.0352-.1463.0411-.084.0319-.115.0638-.1349.0493-.0126-.0092-.01-.0352-.0049-.0871a.21.21,0,0,1,.0329-.12A.124.124,0,0,1,2.1833,3.26c.03-.0107.0414.0017.074-.0033a.1857.1857,0,0,0,.1019-.0657.1819.1819,0,0,0,.056-.0822c.0129-.0473-.0005-.0988-.0132-.1-.0063-.0007-.0084.0114-.0312.0444a.1533.1533,0,0,1-.0477.0509c-.016.0091-.0376.0153-.0411.01s.0127-.019.0378-.0477a.36.36,0,0,0,.0658-.0953A.19.19,0,0,0,2.402,2.9c0-.0319-.0081-.0673-.0164-.0674-.0055,0-.0063.0151-.0165.0394a.2159.2159,0,0,1-.0723.09c-.0177.0132-.04.0258-.0444.0214s.019-.0243.0279-.0608c.0013-.0054.0114-.0487-.0066-.0608s-.0486.01-.0575.0164a.2187.2187,0,0,0-.079.1183c-.034.0983-.0308.1709-.0394.1709a.6437.6437,0,0,1-.0247-.1249.91.91,0,0,0-.0312-.1314c-.0164-.0437-.03-.06-.0263-.0921a.0994.0994,0,0,1,.0328-.0673.107.107,0,0,1,.079-.02.2229.2229,0,0,1,.0575.0164.2159.2159,0,0,0,.1464-.0164.1587.1587,0,0,0,.0773-.0756c.0133-.031.0166-.0725.0033-.0789s-.03.0282-.074.0526c-.0629.0351-.1427.0276-.148.01-.0038-.0125.0322-.0213.0723-.0673a.1894.1894,0,0,0,.0559-.1315c-.0035-.0486-.036-.0968-.0559-.0937s-.0112.0485-.0444.11c-.029.0539-.08.1035-.1019.0937-.0121-.0054-.0126-.0283-.0132-.0739a1.1039,1.1039,0,0,0,.0049-.1331c-.01-.0033-.04.0613-.0411.064a1.326,1.326,0,0,0-.0608.1824c-.0044-.0006.0071-.0558.0148-.1626a.29.29,0,0,1,.03-.1.0507.0507,0,0,1,.0263-.0279c.016-.0055.03.0037.051.0115a.2534.2534,0,0,0,.0756.0131.202.202,0,0,0,.1118-.0147A.1633.1633,0,0,0,2.3872,2.24c.0154-.0306.0212-.0691.0115-.0739s-.02.0208-.0543.0394c-.0383.021-.0838.0221-.0871.0131s.0357-.0212.0822-.0673a.18.18,0,0,0,.0559-.0822c.0118-.045-.0021-.0941-.0148-.0953-.0081-.0007-.01.0187-.03.0444-.03.04-.08.0663-.0921.0558s.0089-.0518.0132-.0608c.03-.0613.0792-.0861.0723-.1-.0035-.0073-.0193-.0061-.0361-.0049a.1769.1769,0,0,0-.1.0378.2075.2075,0,0,0-.0576.0756c-.0215.0431-.0194.0687-.028.069S2.1059,2.0434,2.09,1.949a.0716.0716,0,0,1,.0032-.0428c.0068-.0151.0152-.0159.0247-.0295a.1171.1171,0,0,0,.0115-.074.1238.1238,0,0,0-.01-.0624.1487.1487,0,0,0-.0428-.0395c-.0319-.024-.0479-.036-.0576-.0312-.0125.0062-.0111.0336-.01.0575.0025.0493.0181.0747.0084.0824-.007.0056-.0181-.005-.0462-.015a.2141.2141,0,0,0-.102-.01c-.0055.001-.0573.01-.0592.03-.0012.0121.0167.023.0329.0329a.1456.1456,0,0,0,.0723.0246c.0508.0019.0829-.0279.0905-.0181.0048.0063-.005.0224-.0132.0313a.0755.0755,0,0,1-.0509.0213c-.0521.0045-.0889-.0269-.0971-.0164-.003.0039,0,.011.0033.0181.0047.01.0149.027.0559.0509a.2008.2008,0,0,0,.0675.03c.0341.0066.0415-.0038.0559.0033.041.02.0391.1333,0,.2207C2.004,2.264,1.9676,2.3072,1.9569,2.3022Z" fill="#f7ca2b"/></svg>