<svg xmlns="http://www.w3.org/2000/svg" viewBox="0 0 7.9818 5.1882"><polygon points="4.997 2.596 4.995 2.604 5.135 2.604 5.064 2.596 4.997 2.596" fill="#d8241b"/><path d="M0,0V2.6037H3.277v-.01a.6038.6038,0,0,1,.01-.11.5677.5677,0,0,1,.06-.1716,1.12,1.12,0,0,0,.1729.282l.0014.0017.0068.0079H4.7909l.002-.0079,0-.0017a1.1837,1.1837,0,0,0-.8871-1.4294L3.9423.97a1.3721,1.3721,0,0,1,.2278.072L4.2348.9183l.2226.1169-.065.1237a1.396,1.396,0,0,1,.2053.1626l.1066-.0927.1649.19-.1066.0926a1.38,1.38,0,0,1,.1676.3076L5.0649,1.78l.0693.2416L5,2.06a1.3838,1.3838,0,0,1,.0242.2584v.02l.1374.0145-.0253.2413,0,.0017-.0008.0072v.0007H7.9818V0ZM3.9885,1.7282h.3281l-.2654.1928.1014.312L3.8872,2.04l-.2654.1928.1013-.312-.2654-.1928h.3281l.1014-.312Z" fill="#d8241b"/><path d="M4.9954,2.6037a1.37,1.37,0,0,1-.078.25l.001.0005,0,0,.0005,0,.1265.0673,0,0-.1187.2233,0,0L4.8,3.0778l0,0,0-.0009-.0011-.0007-.0106.0162a1.3935,1.3935,0,0,1-.1482.1832l.0011.0013,0,0,0,0,.094.1082,0,0L4.65,3.4592l-.2757-.211a1.18,1.18,0,0,0,.4162-.6445H3.5282c.0112.0132.0223.0255.033.0369l.8036.6154h0l.2761.2115.3012.2307L4.9128,3.73l-.0013.0023-.0035.0029-.11.1187c-.1775-.1188-.3407-.2279-.4866-.3252h0L4.2386,3.48,4.11,3.3941c-.266-.1767-.4512-.2979-.5244-.3411a.7276.7276,0,0,1-.1836-.15.4911.4911,0,0,1-.0825-.1184.4414.4414,0,0,1-.0421-.1806H0V5.1882H7.9818V2.6037H4.9954Zm-.8093.9878.0023-.0008,0,.0005.0442.1362,0,0-.2405.0781v0L3.99,3.7983l0,0-.0425-.1306A1.38,1.38,0,0,1,3.7009,3.7v.002h.0013v0l-.0075.1431h0l-.2525-.0132V3.8323l.0075-.1431H3.45v-.002a1.3669,1.3669,0,0,1-.2425-.0566l.0015-.0033,0-.0005-.0556.125-.23-.1022.0541-.1257h0l-.0023.0052a1.3911,1.3911,0,0,1-.1985-.1334h0L2.7762,3.395h0l.0007.0006.1408-.1407a1.1851,1.1851,0,0,0,1.1849.1544l.004-.0017.1922.1281c-.0369.02-.0746.0384-.113.0549Zm1.2229.5511a.1029.1029,0,0,1-.03.0725.1093.1093,0,0,1-.1.02.115.115,0,0,1-.0649-.0505.1186.1186,0,0,1-.0166-.0619l-.3665-.25.1357-.155c.1419.1162.2805.2384.4224.3546A.12.12,0,0,1,5.409,4.1426Z" fill="#1f1916"/><polygon points="2.776 3.395 2.777 3.396 2.777 3.396 2.776 3.395 2.776 3.395" fill="#f7d418"/><path d="M4.4789,3.1556a1.181,1.181,0,0,1-.1042.0926l.2757.211.0855-.0743,0,0-.094-.1082,0,0,0,0-.0011-.0013a1.3935,1.3935,0,0,0,.1482-.1832l.0106-.0162L4.8,3.0764l0,.0009,0,0,.1265.0672,0,0,.1187-.2233,0,0-.1265-.0673-.0005,0,0,0-.001-.0005a1.37,1.37,0,0,0,.078-.25l.0017-.0079h.0672l.07.0079V2.603l.0008-.0072,0-.0017.0253-.2413-.1374-.0145v-.02A1.3838,1.3838,0,0,0,5,2.06l.1346-.0386L5.0649,1.78,4.93,1.8187a1.38,1.38,0,0,0-.1676-.3076l.1066-.0926-.1649-.19-.1066.0927a1.396,1.396,0,0,0-.2053-.1626l.065-.1237L4.2348.9183,4.17,1.0417A1.3721,1.3721,0,0,0,3.9423.97l-.0361.195a1.1852,1.1852,0,0,1,.8871,1.4294l0,.0017-.002.0079a1.1789,1.1789,0,0,1-.312.5519Z" fill="#f7d418"/><path d="M4.1066,3.4076l-.004.0017a1.1818,1.1818,0,0,1-1.1849-.1544l-.1408.1407a1.3911,1.3911,0,0,0,.1985.1334l.0023-.0052h0L2.9239,3.65l.23.1022.0556-.125,0,.0005-.0015.0033a1.3669,1.3669,0,0,0,.2425.0566v.002H3.4491l-.0075.1431v.0005l.2525.0132h0l.0075-.1431v0H3.7008V3.7a1.38,1.38,0,0,0,.2457-.0325l.0425.1306,0,0,.0023.0069v0l.2405-.0781,0,0-.0442-.1362,0-.0005-.0023.0008,0-.0009c.0384-.0165.0761-.0349.113-.0549Z" fill="#f7d418"/><path d="M4.831,3.8725l.3665.25a.1186.1186,0,0,0,.0166.0619.115.115,0,0,0,.0649.0505.1093.1093,0,0,0,.1-.02.1029.1029,0,0,0,.03-.0725.12.12,0,0,0-.02-.07c-.1419-.1162-.28-.2384-.4224-.3546Zm.3885.1257a.0153.0153,0,1,1-.0153.0153A.0154.0154,0,0,1,5.22,3.9982Zm-.0772-.0618a.0153.0153,0,1,1-.0153.0153A.0152.0152,0,0,1,5.1423,3.9364Zm-.08-.06a.0153.0153,0,1,1-.0153.0153A.0153.0153,0,0,1,5.0618,3.8765Z" fill="#f7d418"/><circle cx="5.1423" cy="3.9517" r="0.0153" fill="#1f1916"/><circle cx="5.0618" cy="3.8918" r="0.0153" fill="#1f1916"/><circle cx="5.2195" cy="4.0135" r="0.0153" fill="#1f1916"/><polygon points="4.912 3.732 4.913 3.73 4.908 3.735 4.912 3.732" fill="#f7d418"/><path d="M4.91,3.7183l-.2954-.2277L4.6135,3.49l-.113-.0872L4.4982,3.401l0,0L4.337,3.2768l-.0013-.001-.588-.4534a.01.01,0,1,0-.0122.0158l.5833.45.0013.001.1627.1255h0l.0012.001.1139.0878.0009.0006.2985.23.0061.0021.0044-.001L4.9128,3.73A.01.01,0,0,0,4.91,3.7183Z" fill="#1f1916"/><polygon points="3.786 1.728 3.458 1.728 3.723 1.921 3.622 2.233 3.887 2.04 4.153 2.233 4.051 1.921 4.317 1.728 3.989 1.728 3.887 1.416 3.786 1.728" fill="#f7d418"/><path d="M3.4016,2.9027a.7276.7276,0,0,0,.1836.15c.0732.0432.2584.1644.5244.3411l.129.0858.0732.0488h0c.1459.0973.3091.2064.4866.3252l.11-.1187-.0044.001-.0061-.0021-.2985-.23-.0009-.0006-.1139-.0878-.0012-.001h0L4.32,3.2889l-.0013-.001-.5833-.45a.01.01,0,1,1,.0122-.0158l.588.4534.0013.001.1607.1239,0,0,.0023.0018.113.0872.0008.0006.2954.2277a.01.01,0,0,1,.0031.0117l.0293-.0318-.3012-.2307L4.3648,3.256h0l-.8036-.6154c-.0107-.0114-.0218-.0237-.033-.0369l-.0068-.0079L3.52,2.5941a1.12,1.12,0,0,1-.1729-.282.5677.5677,0,0,0-.06.1716.6038.6038,0,0,0-.01.11v.01a.4414.4414,0,0,0,.0421.1806A.4911.4911,0,0,0,3.4016,2.9027Z" fill="#f7d418"/></svg>