<svg xmlns="http://www.w3.org/2000/svg" viewBox="0 0 7.9818 5.1882"><path d="M6.6568,1.3563l.015-.0031-.015.0031Z" fill="none"/><path d="M6.7585,1.1349h0s.0006-.0032-.0071-.0133C6.7591,1.1317,6.7586,1.1345,6.7585,1.1349Z" fill="none"/><path d="M0,0V5.1882H5.0854V1.8351H7.9818V0ZM7.7037.5747A.3071.3071,0,0,1,7.6174.65C7.6879.62,7.693.6284,7.6959.6329s.0027.0143-.0272.0434c-.0225.0219-.05.0434-.0576.0495L7.5918.74c.0271-.01.0341-.0075.0369-.0031.01.0155-.055.0724-.1023.1032a.62.62,0,0,1-.2779.0854A.2884.2884,0,0,1,7.17.9722a.3117.3117,0,0,1-.1054.02c.017.0074.0194.0127.019.017l-.004.0066a.1331.1331,0,0,1-.0631.0124.0135.0135,0,0,1,.007.0118c-.0015.0144-.04.02-.0665.02l-.0092,0-.021-.0032c.0454.0359.0486.0482.045.0554-.0047.0095-.0237.0075-.042.0055a.2178.2178,0,0,1-.0688-.0195c-.03-.0134-.0519-.0256-.0666-.0337l-.01-.0056a.2391.2391,0,0,0,.0269.0242.3409.3409,0,0,0,.0375.025c.0162.01.0259.0154.0249.0249s-.0109.0134-.0147.0151a.0459.0459,0,0,1-.02.0041.1629.1629,0,0,1-.0811-.0335c.0089.0122.0086.0173.0063.0207l-.0092.0041A.1292.1292,0,0,1,6.6717,1.1l0,0a.0234.0234,0,0,0,.0162.025.0867.0867,0,0,1,.0188.0119c.0023.002.022.0191.0167.0262L6.72,1.1649a.1182.1182,0,0,1-.0518-.0256l-.0069-.0055-.0026-.002a.1543.1543,0,0,0,.0254.0559l.0151.0189c.0056.0064.0094.0106.0068.0154l-.007.0045-.0059.0005A.0948.0948,0,0,1,6.644,1.21c0,.0123.0033.02.0087.0238a.02.02,0,0,0,.0136.0016.06.06,0,0,1,.0275.0027.0335.0335,0,0,1,.0207.0148.0319.0319,0,0,1,0,.0265l-.003.0022L6.7078,1.28,6.7,1.2722c-.0113-.0091-.021-.0125-.0267-.0094L6.6679,1.27l.0094.0091a.04.04,0,0,1,.0188.0189.0432.0432,0,0,1-.0038.0327.0421.0421,0,0,1-.0205.0223l-.015.0031h0l-.0032-.0019V1.3507c.0109-.0178.009-.0226.0081-.0237s-.0047-.0011-.0089-.0006a.0291.0291,0,0,1-.0215-.0033.0312.0312,0,0,1-.011-.0194l-.0052-.01-.0108.0047c-.0034.0047-.0013.0114.0012.0193a.0336.0336,0,0,1,0,.0289l-.0042.0044-.0074.0068a.059.059,0,0,0-.013.0176.0191.0191,0,0,0,.0032.0129l0,.0043-.0029.0014-.0012,0-.0156-.0086a.0676.0676,0,0,1-.0195-.0564L6.5464,1.32a.0435.0435,0,0,1-.015.01l-.01.0028-.0117.0051a.0156.0156,0,0,0-.0009.0124l-.0019.0042-.0045-.0008A.0782.0782,0,0,1,6.49,1.335l0,.0077-.0027.0064-.0089.0154c-.008.0146-.0089.0174-.0088.02a.0257.0257,0,0,0,.0111.018l.0007.0049-.0031.0017-.0017,0a.1145.1145,0,0,1-.05-.0488l-.0062-.0145-.0041.0085a.0637.0637,0,0,1-.0173.0172l-.01.0066-.0067.0054A.0218.0218,0,0,0,6.3814,1.4L6.38,1.4044l-.0044,0a.0756.0756,0,0,1-.0235-.0666l.0045-.013a.069.069,0,0,1-.0266.0085l-.01,0a.0445.0445,0,0,0-.0222.0041.0416.0416,0,0,0-.016.0155l-.004.0017-.0029-.0032a.0817.0817,0,0,1,.0039-.0368.0739.0739,0,0,1,.0378-.0438A.0453.0453,0,0,1,6.34,1.2679a.0445.0445,0,0,0,.0233-.003.0738.0738,0,0,0,.0287-.0225.0879.0879,0,0,0,.0153-.0287l-.01.0041-.0012,0-.0022-.0007-.0015-.0032L6.3943,1.18l.0014-.018-.01.0156a.078.078,0,0,1-.0252.019H6.357l-.0019-.0029a.1659.1659,0,0,1,0-.03.2071.2071,0,0,1,.0139-.0518l.0116-.0327c-.0089.01-.0134.01-.0168.0085-.0056-.0023-.0066-.0112-.0055-.0167L6.36,1.0665a.1466.1466,0,0,1-.05.009.13.13,0,0,1-.0284-.0032c-.0165-.0037-.0592-.0178-.0588-.0384,0-.01.01-.0177.0323-.03a.4.4,0,0,1-.0771.0223c-.0412.0066-.0637.0051-.067-.0045-.0024-.0071.0051-.0144.0218-.027L6.14.9892,6.132.9932h0a.1384.1384,0,0,1-.0519.0176c-.02.0021-.0559,0-.0575-.0132-.0007-.0056.0052-.01.0131-.0139L6.0061.9884A.3538.3538,0,0,1,5.97.9906c-.022,0-.034-.0035-.036-.01-.0008-.0028-.0025-.0085.0148-.021l-.011.0026a.1944.1944,0,0,1-.04.0043.1407.1407,0,0,1-.0568-.011c-.01-.0044-.032-.0156-.03-.0262C5.8127.9221,5.8216.9211,5.835.92A.2273.2273,0,0,0,5.8632.915a.1408.1408,0,0,0,.045-.02.8276.8276,0,0,1-.0858.0195A.2334.2334,0,0,1,5.7439.919a.1386.1386,0,0,1-.0733-.03L5.6686.8816c.0014-.0074.0116-.0085.03-.01L5.7271.8679A.3229.3229,0,0,0,5.8.8473c-.0406.0087-.0812.0156-.1212.02A.1817.1817,0,0,1,5.5771.8563c-.01-.0048-.0337-.017-.0309-.0275.0018-.0065.01-.007.0246-.0077A.2626.2626,0,0,0,5.61.8167a.19.19,0,0,0,.0335-.01.1168.1168,0,0,1-.0188,0,.464.464,0,0,0-.0571,0H5.5655l-.015,0A.09.09,0,0,1,5.5124.8C5.5029.7953,5.479.7818,5.4824.77c.002-.0068.0107-.0077.0251-.0092l.0041,0L5.5384.7572a.44.44,0,0,1-.0607-.01A.57.57,0,0,1,5.2954.6631.0839.0839,0,0,1,5.2674.628S5.2549.5974,5.266.5911c.006-.0035.0127.0026.0227.0118A.218.218,0,0,0,5.31.621a.1488.1488,0,0,0,.0282.0157A.1519.1519,0,0,1,5.2871.5886c-.009-.014-.0253-.0468-.0155-.0538.0053-.0039.0119.0014.0261.013.0084.0068.0188.0153.0322.0245L5.3577.59,5.3258.55A.109.109,0,0,1,5.299.5019C5.2963.4887,5.2943.473,5.3026.4681s.0208.0062.04.0252a.4677.4677,0,0,0,.04.036.2814.2814,0,0,0,.1.0484A.1261.1261,0,0,1,5.4588.549a.2669.2669,0,0,0-.04-.0483A.1118.1118,0,0,1,5.3907.4564C5.3876.447,5.3841.4364,5.39.4311c.0081-.0075.0258.0034.05.0186L5.4576.46A.2725.2725,0,0,0,5.5.4808c.0129.0053.0307.0126.0592.025.0149.0065.1111.0484.1947.0865A.2381.2381,0,0,0,5.7224.5586L5.7113.55C5.6957.537,5.6822.5262,5.6839.5116L5.6873.5025c.0108-.0127.0433.0037.0972.0309.0243.0123.0518.0262.0816.0395a.5888.5888,0,0,0,.1546.0547l.0582.0081C6.1124.64,6.15.6452,6.1806.65a.2848.2848,0,0,1,.056.0151l.0126.0053A.1751.1751,0,0,1,6.3435.5189.1591.1591,0,0,1,6.4869.5172a.1124.1124,0,0,1,.0238.02C6.56.5346,6.6.5494,6.6041.5719a.0443.0443,0,0,1-.01.0328.0463.0463,0,0,1-.02.0142l-.0032,0L6.5688.6159A.04.04,0,0,0,6.5611.5972L6.553.5889,6.5408.5953a.0464.0464,0,0,1-.02.0027A.042.042,0,0,0,6.5059.6a.044.044,0,0,0-.02.0137.0473.0473,0,0,0-.01.0249A.0718.0718,0,0,0,6.4838.68l0,0,.0071.0131L6.4976.69A.0854.0854,0,0,1,6.5213.6841c.087-.01.1-.01.1008-.01.059,0,.0845.0011.1.0017a.2391.2391,0,0,0,.0293,0A.1727.1727,0,0,0,6.818.6606.443.443,0,0,1,6.9151.6329L6.9625.6248a.7786.7786,0,0,0,.1193-.026L7.116.5877l.0258-.01c.0261-.01.0657-.0252.0869-.033.0049-.0018.015-.0056.0207,0s.0019.0186-.002.0275A.0877.0877,0,0,1,7.22.6063l.035-.013a1.8235,1.8235,0,0,0,.2291-.098L7.4937.49c.0393-.0222.0572-.0312.0631-.0238s-.0036.0187-.0213.0392A.3513.3513,0,0,1,7.47.5645c.0217-.0107.0411-.0208.0577-.03L7.5432.5261,7.5711.51,7.5878.4993a.1331.1331,0,0,1,.0489-.024c.012-.0026.027-.0059.0327.002.0111.0155-.0312.061-.05.08A.47.47,0,0,1,7.5172.63c.0287-.013.0567-.0271.0836-.0422L7.6472.5607c.0454-.0272.0659-.0389.0736-.03C7.7265.5366,7.7215.5494,7.7037.5747Z" fill="#1e8f06"/><path d="M7.1074.6538,7.1025.6556c-.0311.0113-.0611.0222-.086.0286L7.0444.69c.03.0055.0534.0078.0648.0088L7.1277.7A1.4016,1.4016,0,0,0,7.3082.6408a1.1465,1.1465,0,0,0,.1383-.07A.3432.3432,0,0,0,7.53.5c.0166-.0193.0207-.0268.0209-.03a.2253.2253,0,0,0-.0535.0255l-.01.0056A1.8075,1.8075,0,0,1,7.2574.6c-.0281.0107-.0359.0134-.05.0182S7.17.6313,7.1074.6538Z" fill="#f47c0a"/><path d="M7.0225.7691l.0013,0c.0772.013.0813.0032.0814.0031L7.1024.7663A.0331.0331,0,0,0,7.0845.752L7.072.75A.2015.2015,0,0,1,7.0165.7329L7.02.7262a.1962.1962,0,0,0,.12.0164A.1485.1485,0,0,0,7.196.7249.0808.0808,0,0,0,7.2221.7042L7.2054.7054l-.03.0027A.4567.4567,0,0,1,7.1086.7062.638.638,0,0,1,7.0431.6973C7.0286.6946,7.014.6915,7,.6879L6.98.69H6.9789a.121.121,0,0,0-.037.0054l-.016.0065.0022.0049a.0247.0247,0,0,1-.0075.0208.0378.0378,0,0,1-.03.009L6.8734.736l-.0151,0c-.012,0-.0243,0-.0367,0,.0143.01.0176.0163.0175.02a.0816.0816,0,0,0,.0186.0176.09.09,0,0,0,.0336.0134.8436.8436,0,0,0,.11.014.1721.1721,0,0,0,.06,0L7.0569.7939,7.0563.7931A.0428.0428,0,0,0,7.0315.7782L7.0226.7767l-.0014,0A.4486.4486,0,0,1,6.9376.754L6.94.747A.43.43,0,0,0,7.0225.7691Z" fill="#f47c0a"/><path d="M7.3111.6477a1.4172,1.4172,0,0,1-.158.0535L7.1749.7006l.03-.0026c.0154-.0018.0224-.0026.0248.0031.0039.01-.0194.0243-.03.03A.1587.1587,0,0,1,7.1407.75a.2324.2324,0,0,1-.0363.0031H7.101l.0079.01.0037.0091A1.4534,1.4534,0,0,0,7.2661.7305c.0227-.0075.07-.024.131-.05A.7224.7224,0,0,0,7.6142.5519c.0324-.0326.054-.0635.0491-.07C7.6605.4778,7.646.4809,7.6383.4826A.1255.1255,0,0,0,7.592.5055L7.5751.5167,7.5466.5326,7.5313.5409c-.0352.02-.0819.0426-.1387.0683C7.3454.6338,7.3115.6476,7.3111.6477Z" fill="#f47c0a"/><path d="M5.9709.7011C5.9428.6973,5.9331.693,5.93.69L5.9174.696A.054.054,0,0,0,5.9038.71L5.9033.71a.0466.0466,0,0,1-.0175.0135.2181.2181,0,0,1-.0419.04L5.8388.7674,5.83.7738a.1648.1648,0,0,0,.0445,0h.0015a.1384.1384,0,0,0,.0509-.01A.0723.0723,0,0,0,5.9444.7531.1785.1785,0,0,1,5.9651.7384.2213.2213,0,0,1,6.0006.7208L6.0148.7033A.2691.2691,0,0,1,5.9709.7011Z" fill="#f47c0a"/><path d="M7.0734.9408c-.0024.01-.0184.02-.03.0255a.08.08,0,0,1-.0307.0059A.1364.1364,0,0,1,6.9716.9648L6.9544.9594c.0127.0069.0274.0141.0368.0182a.1366.1366,0,0,0,.0672.0071.32.32,0,0,0,.1091-.02.275.275,0,0,0,.0671-.038C7.2074.93,7.18.9327,7.1507.9353,7.125.9377,7.099.94,7.0734.9408Z" fill="#f47c0a"/><path d="M6.9452.84,6.9485.83C6.9473.8261,6.9423.8249,6.9336.823L6.9158.8182A.0876.0876,0,0,1,6.88.7918.0881.0881,0,0,1,6.8535.78.0891.0891,0,0,1,6.8348.7625a.1169.1169,0,0,1-.0372.0033l-.0192,0-.03.0011L6.7506.775C6.749.78,6.7427.78,6.7361.78H6.7316a.3245.3245,0,0,0,.0325.0225.39.39,0,0,0,.1671.04A.018.018,0,0,0,6.9452.84Z" fill="#f47c0a"/><path d="M6.8241.9l.0276.0145a.9782.9782,0,0,0,.1221.0429A.0958.0958,0,0,0,7.04.9594c.0154-.0065.0272-.0178.0262-.0211L7.0484.9343l-.0036,0a.2372.2372,0,0,1-.05-.0124L6.9692.9138a.51.51,0,0,1-.151-.0615.3974.3974,0,0,1-.0528-.04L6.76.8093A.3542.3542,0,0,1,6.72.7809c-.0162.0006-.0254.0008-.031.0006a.2531.2531,0,0,0-.0261,0c.0054.0041.0064.007.0056.01S6.6625.7966,6.655.7979L6.6413.7991l-.0085,0L6.6144.7973l-.01-.0007L6.5874.796a.8588.8588,0,0,0,.1335.12.2875.2875,0,0,0,.1462.0669A.1151.1151,0,0,0,6.924.9794a.1462.1462,0,0,0-.04-.02C6.87.9527,6.8512.9448,6.8325.9354a.5649.5649,0,0,1-.13-.09L6.6578.8213,6.6613.8147C6.7181.8449,6.772.8731,6.8241.9Z" fill="#f47c0a"/><path d="M6.2128.754a.352.352,0,0,1-.07.0541.2007.2007,0,0,1-.0644.0507L6.0634.8654c-.01.0041-.0215.0092-.0214.0128,0,.0016.0039.0059.0178.01a.1553.1553,0,0,0,.113-.0311A.4.4,0,0,0,6.24.8072L6.2346.7965a.0946.0946,0,0,1-.003-.0306A.1365.1365,0,0,1,6.2339.7308Z" fill="#f47c0a"/><path d="M7.0373.9929A.1124.1124,0,0,1,6.9882.9844.36.36,0,0,1,6.9259.95.627.627,0,0,1,6.8483.9214L6.8206.9069,6.7315.86a.5491.5491,0,0,0,.1043.0686c.0185.0092.0361.0168.0516.0234.0326.014.0458.02.044.0286S6.91.9916,6.8927.9916h0a.24.24,0,0,0,.0837.0268A.1957.1957,0,0,0,7.0751,1.01l.0013-.0015s0-.0053-.03-.0154Z" fill="#f47c0a"/><path d="M6.4283.5325a.0574.0574,0,0,0-.0228.008L6.4013.5428,6.393.547,6.3908.548,6.41.5512A.0589.0589,0,0,0,6.4384.5507c.005-.0029.01-.0085.0093-.0117S6.4373.5321,6.4283.5325Z" fill="#f47c0a"/><path d="M6.12.9375c.0163-.01.0331-.02.05-.0295.02-.0111.0414-.0227.062-.0345A.0662.0662,0,0,1,6.25.8586c.0061-.0038.0093-.006.01-.0107S6.2588.838,6.2534.8271L6.2447.8131a.4022.4022,0,0,1-.0681.05.2025.2025,0,0,1-.0955.0352A.08.08,0,0,1,6.0584.8955.2667.2667,0,0,1,5.9959.941h0c-.0571.0277-.0551.037-.0551.0371.0011.0036.0195.0076.0645.0029A.2833.2833,0,0,0,6.0712.9661C6.0878.9571,6.1041.9472,6.12.9375Z" fill="#f47c0a"/><path d="M7.0023,1.0277l-.027-.0019A.248.248,0,0,1,6.8765.9911L6.8664.99a.2114.2114,0,0,1-.032-.0059.1709.1709,0,0,0,.1141.0678c.0327.0023.0671-.007.0678-.0134C7.0163,1.0384,7.0163,1.0347,7.0023,1.0277Z" fill="#f47c0a"/><path d="M6.5087.7094l.0248.0211a.2567.2567,0,0,1,.03.0311.1816.1816,0,0,1,.0186.0269l.023.0006L6.615.79l.0183.0014A.0833.0833,0,0,0,6.6538.7906L6.6606.7892A.13.13,0,0,0,6.6314.7729L6.6345.7662,6.6523.775A.2913.2913,0,0,1,6.69.774c.0069,0,.02,0,.0462-.0012L6.7429.7722A.0755.0755,0,0,0,6.7238.7588.1492.1492,0,0,0,6.6952.7461L6.6975.739a.1579.1579,0,0,1,.03.0134L6.74.76,6.7782.7589,6.7974.7584A.1236.1236,0,0,0,6.8316.7557s0-.0065-.0352-.0276L6.8.7216,6.811.7283c.016-.0006.0319-.0007.0475,0l.0152.0006c.0226.0009.034.0014.0416-.0064,0,0,.0072-.0073.0056-.0137S6.9079.6957,6.89.6969L6.89.69A.048.048,0,0,1,6.92.6962L6.94.6882A.13.13,0,0,1,6.979.6825H6.98A.4618.4618,0,0,0,7.1.6486l.005-.0018c.0578-.021.0815-.0291.0966-.0342L7.2.61a.09.09,0,0,0,.04-.0411C7.247.5544,7.245.5508,7.2442.55S7.24.5486,7.2313.5518l-.0869.033-.0258.01L7.0839.6059a.7851.7851,0,0,1-.12.0263L6.9165.64a.431.431,0,0,0-.0957.0273.1782.1782,0,0,1-.0693.0156.273.273,0,0,1-.03,0C6.7063.6823,6.6809.6812,6.6221.6812c0,0-.014,0-.1.01a.0792.0792,0,0,0-.0216.0056l-.0042.002.0073.0061Z" fill="#f47c0a"/><path d="M6.4972,1.2064a.3377.3377,0,0,1-.03-.0331c-.003.0416.0024.065.01.07l.0124.0072.0163.0076a.1079.1079,0,0,1,.0293-.011.12.12,0,0,1,.0391-.0037V1.2049l-.0115.0108-.0041,0-.002-.0035a.3074.3074,0,0,0-.0043-.0792.2159.2159,0,0,0-.0128-.0458.12.12,0,0,0-.0136-.0248.2811.2811,0,0,1-.0166-.027l-.01-.0185c.0009.0495,0,.0863-.0015.1095v0a.23.23,0,0,0-.0006.0323.2439.2439,0,0,0,.0061.0434l-.0018.0041Z" fill="#f47c0a"/><path d="M6.4832,1.2943a.0216.0216,0,0,0-.0058.0124.0243.0243,0,0,0,.006.0149l.0038.006-.0013-.0043A.0833.0833,0,0,1,6.4832,1.2943Z" fill="#f47c0a"/><path d="M6.4985,1.2632,6.4856,1.257l-.013-.0077c-.0175-.0117-.014-.0661-.0122-.0847l-.0116-.0164-.0058.02a.0846.0846,0,0,1-.0268.04.0927.0927,0,0,1-.0188.0392.08.08,0,0,1-.0316.0247.0516.0516,0,0,1-.0267.0035.0377.0377,0,0,0-.02.0024.0662.0662,0,0,0-.0336.0394.0687.0687,0,0,0-.0041.0235l.0125-.01a.0516.0516,0,0,1,.0257-.005l.01,0a.0746.0746,0,0,0,.0424-.0213h0l.0053,0,0,.0053h0a.0568.0568,0,0,0-.0174.0293.0616.0616,0,0,0,.0136.0509l.0031-.0108.01-.008.01-.0061A.0579.0579,0,0,0,6.41,1.35a.0416.0416,0,0,0,.0057-.0243l.0033-.0039.0041.0032a.1.1,0,0,0,.01.0314.1017.1017,0,0,0,.03.0354l-.0014-.0072c0-.0045.0012-.0079.01-.0236l.009-.0156.0018-.0036a.0222.0222,0,0,0-.0058-.0159.0306.0306,0,0,1-.0073-.02.0352.0352,0,0,1,.0162-.0248L6.4921,1.27Z" fill="#f47c0a"/><path d="M6.6365,1.204A.1453.1453,0,0,1,6.616,1.18a.223.223,0,0,1-.0173-.0275.1011.1011,0,0,1-.0105.032l-.0069.0109v.0518L6.58,1.25l-.0029.001a.113.113,0,0,0-.0406.0031.0628.0628,0,0,0-.0384.02.054.054,0,0,0-.005.0467l.0076.0179.0024-.0055A.0229.0229,0,0,1,6.52,1.3255l.0092-.0025a.048.048,0,0,0,.0241-.0238l.0049-.0018.0016.0055a.11.11,0,0,0-.007.0269.0608.0608,0,0,0,.0168.05l.0051.0036,0-.0087c0-.003.002-.0071.0149-.0215l.0085-.0079L6.6,1.3427A.028.028,0,0,0,6.5984,1.32a.0282.0282,0,0,1,0-.0259.0186.0186,0,0,1,.019-.0074c.0068.002.0085.0087.01.0151a.0244.0244,0,0,0,.008.0152.0231.0231,0,0,0,.0164.002c.0058-.0007.0118-.0014.0156.0034s.0028.0133-.0039.0257l.005-.0017a.035.035,0,0,0,.0168-.0186.0362.0362,0,0,0,.0036-.0269.0329.0329,0,0,0-.0156-.0152c-.0065-.0039-.0131-.0079-.013-.0156A.017.017,0,0,1,6.67,1.2562c.0086-.0047.0207-.0012.0348.01l.0045.0041a.0207.0207,0,0,0-.0013-.0143.0263.0263,0,0,0-.0165-.0113.0538.0538,0,0,0-.0245-.0023A.0268.0268,0,0,1,6.6487,1.24C6.64,1.2343,6.6361,1.2225,6.6365,1.204Z" fill="#f47c0a"/><path d="M6.8218.9806A.2291.2291,0,0,1,6.7937.9693c.0483.0477.05.0615.0457.068-.011.0162-.0772-.0138-.1081-.0338L6.72.9961c.0208.0238.0269.035.0223.0423-.01.0154-.0658-.0074-.0937-.023L6.6237.9993l.0027.0031.0092.0112a.1262.1262,0,0,1,.0242.048.0746.0746,0,0,0,.0174.0333.126.126,0,0,0,.0762.0409h0l.005-.0009s.0006-.0032-.0071-.0133a.2906.2906,0,0,0-.0246-.0271l0-.0052.0052,0c.02.0165.0874.0692.1241.0521.0024-.0012.01-.0047.01-.0091s-.0086-.01-.0213-.0178a.3544.3544,0,0,1-.0383-.0255c-.01-.0074-.04-.0321-.0345-.04.003-.0041.007-.0019.026.0085.0146.0081.0367.02.0661.0335a.212.212,0,0,0,.0665.0189c.0112.0012.0321.0035.0345-.0014.0009-.0018.0021-.0129-.06-.0591A.2165.2165,0,0,1,6.8218.9806Z" fill="#f47c0a"/><path d="M7.651.5671,7.6044.5944a1.1126,1.1126,0,0,1-.1685.0768L7.4.6871c-.0613.0264-.1088.0429-.1317.05a1.4607,1.4607,0,0,1-.1615.0429.0538.0538,0,0,1-.0214.003l-.03-.0021.007.0071.0006.0008c.004.0051.0071.0092.0056.0138S7.06.8107,7.0455.8107c-.01,0-.0245-.0009-.0443-.0024A.8368.8368,0,0,1,6.8927.7947a.0741.0741,0,0,0,.0257.0165l.0167.0045c.01.0021.0178.0038.02.0113A.018.018,0,0,1,6.95.8448h0A.7421.7421,0,0,0,7.6065.72C7.66.6783,7.6933.6428,7.69.6369,7.6882.6347,7.6741.6276,7.5288.6984h0a1.85,1.85,0,0,1-.1863.0765L7.34.7678A.8919.8919,0,0,0,7.6976.57c.0214-.03.0179-.0349.0177-.0351C7.7113.5309,7.6765.5519,7.651.5671Z" fill="#f47c0a"/><path d="M7.2628.8731a.7581.7581,0,0,1-.1073.0076A.7735.7735,0,0,1,6.9406.85L6.9338.8507h-.003A.46.46,0,0,1,6.79.8229.3883.3883,0,0,0,6.8222.846a.5063.5063,0,0,0,.1489.0606l.0257.0078a.2361.2361,0,0,0,.0487.0121l.0036,0c.01.0009.0189.0018.0228.0065C7.0977.9321,7.124.93,7.15.9279A.7706.7706,0,0,0,7.5223.834a.2885.2885,0,0,0,.1-.0931C7.6215.74,7.6137.7375,7.5628.76A.7717.7717,0,0,1,7.2628.8731Z" fill="#f47c0a"/><path d="M5.9491.7589A.0829.0829,0,0,1,5.93.7711L5.9182.7757C5.8844.793,5.8805.8,5.88.8012c.0017.0015.0091.0034.04,0A.2779.2779,0,0,0,5.9878.7861.477.477,0,0,0,6.07.7471l0-.0008L6.0894.7219A.2246.2246,0,0,1,6.0455.729.22.22,0,0,1,6.0034.7277.22.22,0,0,0,5.969.7448Z" fill="#f47c0a"/><path d="M5.9442.673,5.9286.6706,5.9048.6669A.2007.2007,0,0,1,5.8505.6462L5.8454.6436,5.8289.6355a.1366.1366,0,0,1-.0355.0156.1786.1786,0,0,1-.032.0054L5.7471.6593c-.0006.0019.0051.0082.0131.0124.0031.0017.0125.0067.0506,0L5.8421.664l.004.0013,0,.0043a.1019.1019,0,0,1-.04.0376L5.7873.7146l-.0081.003a.0836.0836,0,0,0,.0273.0078A.1089.1089,0,0,0,5.8973.706l0-.0007A.0617.0617,0,0,1,5.9131.69L5.9287.6821,5.94.6746Z" fill="#f47c0a"/><path d="M5.9888.9362A.2559.2559,0,0,0,6.05.8929C6.04.8888,6.0348.884,6.0346.8785c0-.0087.0112-.0137.0259-.02L6.0749.8521a.1823.1823,0,0,0,.0468-.033L6.1153.8223a.3556.3556,0,0,1-.0739.0245A.25.25,0,0,1,5.9888.853L5.9747.8524C5.9289.849,5.9282.84,5.9279.8374c-.0005-.0063.0065-.009.0192-.0138A.2188.2188,0,0,0,5.9929.8014.17.17,0,0,0,6.0161.783L5.99.7931a.2884.2884,0,0,1-.07.016L5.8945.8107c-.0125,0-.02-.0019-.0217-.0073S5.8736.7927,5.8955.78L5.877.7812H5.8755l-.03.0016c-.0141,0-.0214-.002-.0228-.0073s.0038-.0089.0117-.0143L5.84.7577A.2151.2151,0,0,0,5.8713.7294a.1539.1539,0,0,1-.0407.0052L5.8053.7327C5.79.73,5.7709.7258,5.771.7174c0-.0053.0056-.0071.014-.01L5.8028.7006A.09.09,0,0,0,5.8343.6738L5.8122.6787c-.0365.0067-.0492.003-.0555,0S5.7375.6656,5.74.6572c.0018-.0063.0094-.007.0208-.0081A.17.17,0,0,0,5.7914.644.135.135,0,0,0,5.8208.6316C5.7334.59,5.576.521,5.5567.5127,5.5282.5,5.5105.493,5.4976.4877A.2719.2719,0,0,1,5.4538.4668L5.4361.456c-.0157-.01-.0373-.0231-.0412-.02L5.3978.454a.1027.1027,0,0,0,.026.0413.2777.2777,0,0,1,.0412.05A.1117.1117,0,0,0,5.4979.58a.1285.1285,0,0,0,.0383.0179L5.57.61A1.12,1.12,0,0,1,5.68.66L5.6766.6662A1.1394,1.1394,0,0,0,5.5671.617L5.5337.6048A.1486.1486,0,0,1,5.4983.589a.2957.2957,0,0,1-.12-.0538.4644.4644,0,0,1-.04-.0366c-.0126-.0124-.027-.0264-.0311-.024-.0008,0-.0046.0039,0,.0258a.1031.1031,0,0,0,.0253.045c.023.0289.0356.0448.04.0486a.2272.2272,0,0,0,.0814.0384c.0355.0126.0533.0189.0888.031a1.3028,1.3028,0,0,1,.1239.05L5.6625.72A1.29,1.29,0,0,0,5.5392.6705C5.5037.6584,5.4859.652,5.45.6394A.3534.3534,0,0,1,5.38.61.38.38,0,0,1,5.3257.5784C5.3121.569,5.3015.5605,5.293.5536L5.2758.5411a.0962.0962,0,0,0,.0176.0434.1947.1947,0,0,0,.1037.0709c.06.0232.12.0454.1787.0658l-.0024.007c-.059-.02-.1192-.0426-.179-.0658L5.376.655a.1622.1622,0,0,1-.07-.028A.212.212,0,0,1,5.2837.6084L5.27.5976a.0448.0448,0,0,0,.0047.0276A.0762.0762,0,0,0,5.3.6571a.558.558,0,0,0,.18.0825A.3446.3446,0,0,0,5.57.7508.3138.3138,0,0,0,5.6248.7446l.0015.0073a.3143.3143,0,0,1-.05.0061h0c-.0215.0045-.0429.0079-.0636.01l-.0042,0L5.49.7725c-.0008.0027.0094.0129.0259.02a.1013.1013,0,0,0,.05.0063h.0021a.4858.4858,0,0,1,.0578,0A.1193.1193,0,0,0,5.654.7978.356.356,0,0,0,5.74.7754l.0028.0069a.3655.3655,0,0,1-.0758.0211A.1959.1959,0,0,1,5.6115.824a.2618.2618,0,0,1-.04.0045L5.5533.8309A.0619.0619,0,0,0,5.58.85.1745.1745,0,0,0,5.6783.86,1.41,1.41,0,0,0,5.8321.8325l.0043.0023L5.8347.8394a.3368.3368,0,0,1-.1065.0358L5.7.8787a.0643.0643,0,0,0-.0237.0044A.1192.1192,0,0,0,5.745.9116.2206.2206,0,0,0,5.8211.907.8492.8492,0,0,0,5.9254.882L5.93.8837,5.929.8883a.1548.1548,0,0,1-.064.0339A.2315.2315,0,0,1,5.8358.927L5.8184.9306c0,.002.0078.01.0254.0176A.1494.1494,0,0,0,5.936.9545a.2159.2159,0,0,0,.0521-.018Z" fill="#f47c0a"/><path d="M6.4361,1.1655a.1148.1148,0,0,0,.0069-.028l.0029-.0032.004.0017a.3349.3349,0,0,0,.02.0288.328.328,0,0,0,.0238.0275A.2526.2526,0,0,1,6.49,1.16a.2439.2439,0,0,1,.0006-.0332v0c.0021-.0255.0024-.0679.001-.1259A.0513.0513,0,0,0,6.4763.9784.1636.1636,0,0,0,6.44.96L6.4142.95A.0892.0892,0,0,1,6.3916.94L6.382.9331,6.3708.9261V.9276l0,.0063a.0322.0322,0,0,1-.0154.0213l.0032.0062a.2138.2138,0,0,1,.0184.0487c.0048.02.009.0377-.0008.0492l-.0043.0042-.0061.0086.0011.0084s.005,0,.022-.0239l.0048-.0011.0018.0045-.0193.054a.1953.1953,0,0,0-.0134.05.1455.1455,0,0,0,0,.0229.0716.0716,0,0,0,.018-.0147.095.095,0,0,0,.0156-.03l.003-.01.0055-.0424.004-.0032.0034.0037a.1772.1772,0,0,1-.0056.0433l-.0043.047L6.4,1.2088l.0093-.005A.0759.0759,0,0,0,6.4361,1.1655Z" fill="#f47c0a"/><path d="M6.37,1.0118a.2085.2085,0,0,0-.0177-.047c-.014-.0273-.035-.0686-.0542-.0667L6.2946.9,6.2805.9074a.2025.2025,0,0,1-.0342.0152C6.2236.93,6.2128.93,6.2091.9241c-.0023-.0039,0-.0074.0043-.0159l.0055-.01.006-.0118L6.1737.9146c-.0169.0091-.0336.0193-.05.0292s-.0328.02-.05.0288l0,0L6.0723.9735,6.0487.9858,6.0472.9864,6.03.9969a.079.079,0,0,0,.0493.0066A.1325.1325,0,0,0,6.1283.9867l0,0c.027-.0138.0562-.0284.0892-.0447l.005.0017-.0017.005A.5307.5307,0,0,0,6.1374,1c-.0168.0127-.02.0171-.0192.0186.0012.0035.02.0057.0587,0a.4655.4655,0,0,0,.09-.0269L6.3028.9777,6.3076.98,6.3059.9845l-.0192.01c-.0351.0193-.0562.0309-.0564.0395,0,.0114.0272.0253.053.0311a.1366.1366,0,0,0,.0874-.0112C6.3774,1.0452,6.3738,1.03,6.37,1.0118Z" fill="#f47c0a"/><path d="M7.6472.5607,7.6008.588C7.5739.6031,7.5459.6172,7.5172.63A.47.47,0,0,0,7.62.5572c.0187-.0189.061-.0644.05-.08C7.6637.4694,7.6487.4727,7.6367.4753a.1331.1331,0,0,0-.0489.024L7.5711.51,7.5432.5261,7.5276.5344c-.0166.0093-.036.0194-.0577.03A.3513.3513,0,0,0,7.5355.5051c.0177-.0205.0263-.0329.0213-.0392S7.533.4675,7.4937.49l-.01.0056a1.8235,1.8235,0,0,1-.2291.098L7.22.6063A.0877.0877,0,0,0,7.2474.5722c.0039-.0089.0082-.0215.002-.0275s-.0158-.0016-.0207,0c-.0212.0078-.0608.0229-.0869.033l-.0258.01L7.0818.5988a.7786.7786,0,0,1-.1193.026L6.9151.6329A.443.443,0,0,0,6.818.6606a.1727.1727,0,0,1-.0669.015.2391.2391,0,0,1-.0293,0c-.0152-.0006-.0407-.0017-.1-.0017-.0006,0-.0138,0-.1008.01A.0854.0854,0,0,0,6.4976.69L6.4911.6934,6.484.68l0,0A.0718.0718,0,0,1,6.4762.6383a.0473.0473,0,0,1,.01-.0249A.044.044,0,0,1,6.5059.6.042.042,0,0,1,6.5211.598a.0464.0464,0,0,0,.02-.0027L6.553.5889l.0081.0083a.04.04,0,0,1,.0077.0187l.0017.0027.0032,0a.0463.0463,0,0,0,.02-.0142.0443.0443,0,0,0,.01-.0328C6.6.5494,6.56.5346,6.5107.5371a.1124.1124,0,0,0-.0238-.02.1591.1591,0,0,0-.1434.0017.1751.1751,0,0,0-.0943.1517L6.2366.6653A.2848.2848,0,0,0,6.1806.65C6.15.6452,6.1124.64,6.0789.6357L6.0207.6276A.5888.5888,0,0,1,5.8661.5729C5.8363.56,5.8088.5457,5.7845.5334,5.7306.5062,5.6981.49,5.6873.5025L5.6839.5116c-.0017.0146.0118.0254.0274.0379l.0111.0091a.2381.2381,0,0,1,.0319.0337c-.0836-.0381-.18-.08-.1947-.0865C5.5311.4934,5.5133.4861,5.5.4808A.2725.2725,0,0,1,5.4576.46L5.44.45C5.4156.4345,5.3979.4236,5.39.4311c-.0057.0053-.0022.0159.0009.0253a.1118.1118,0,0,0,.0279.0443.2669.2669,0,0,1,.04.0483A.1261.1261,0,0,0,5.483.5777a.2814.2814,0,0,1-.1-.0484.4677.4677,0,0,1-.04-.036c-.0193-.019-.031-.03-.04-.0252S5.2963.4887,5.299.5019A.109.109,0,0,0,5.3258.55l.0319.04L5.33.5723C5.3165.5631,5.3061.5546,5.2977.5478,5.2835.5362,5.2769.5309,5.2716.5348c-.01.007.0065.04.0155.0538a.1519.1519,0,0,0,.0513.0481A.1488.1488,0,0,1,5.31.621.218.218,0,0,1,5.2887.6029C5.2787.5937,5.272.5876,5.266.5911c-.0111.0063.0012.0366.0014.0369a.0839.0839,0,0,0,.028.0351.57.57,0,0,0,.1823.0838.44.44,0,0,0,.0607.01L5.5116.7607l-.0041,0C5.4931.7627,5.4844.7636,5.4824.77c-.0034.0114.0205.0249.03.0291a.09.09,0,0,0,.0381.0074l.015,0h.0021a.464.464,0,0,1,.0571,0,.1168.1168,0,0,0,.0188,0,.19.19,0,0,1-.0335.01.2626.2626,0,0,1-.0392.0044c-.0143.0007-.0228.0012-.0246.0077-.0028.0105.0206.0227.0309.0275a.1817.1817,0,0,0,.1021.0115C5.7192.8629,5.76.856,5.8.8473a.3229.3229,0,0,1-.0733.0206L5.6989.8713c-.0187.0018-.0289.0029-.03.01l.002.0071a.1386.1386,0,0,0,.0733.03A.2334.2334,0,0,0,5.8224.9143.8276.8276,0,0,0,5.9082.8948a.1408.1408,0,0,1-.045.02A.2273.2273,0,0,1,5.835.92c-.0134.0015-.0223.0025-.0239.0093-.0024.0106.02.0218.03.0262a.1407.1407,0,0,0,.0568.011.1944.1944,0,0,0,.04-.0043l.011-.0026c-.0173.0125-.0156.0182-.0148.021.002.0069.014.01.036.01A.3538.3538,0,0,0,6.0061.9884L6.0354.9838c-.0079.004-.0138.0083-.0131.0139.0016.0127.0377.0153.0575.0132A.1384.1384,0,0,0,6.1317.9933h0L6.14.9892,6.1329.9943c-.0167.0126-.0242.02-.0218.027.0033.01.0258.0111.067.0045a.4.4,0,0,0,.0771-.0223c-.0219.0127-.0322.0208-.0323.03,0,.0206.0423.0347.0588.0384a.13.13,0,0,0,.0284.0032.1466.1466,0,0,0,.05-.009l-.0013.0041c-.0011.0055,0,.0144.0055.0167.0034.0015.0079.0011.0168-.0085l-.0116.0327a.2071.2071,0,0,0-.0139.0518.1659.1659,0,0,0,0,.03l.0019.0029h.0035a.078.078,0,0,0,.0252-.019l.01-.0156-.0014.018-.0021.0345.0015.0032.0022.0007.0012,0,.01-.0041a.0879.0879,0,0,1-.0153.0287.0738.0738,0,0,1-.0287.0225.0445.0445,0,0,1-.0233.003.0453.0453,0,0,0-.0236.0029.0739.0739,0,0,0-.0378.0438.0817.0817,0,0,0-.0039.0368l.0029.0032.004-.0017a.0416.0416,0,0,1,.016-.0155A.0445.0445,0,0,1,6.32,1.3333l.01,0a.069.069,0,0,0,.0266-.0085l-.0045.013a.0756.0756,0,0,0,.0235.0666l.0044,0L6.3814,1.4a.0218.0218,0,0,1,.0008-.0172l.0067-.0054.01-.0066a.0637.0637,0,0,0,.0173-.0172l.0041-.0085.0062.0145a.1145.1145,0,0,0,.05.0488l.0017,0,.0031-.0017-.0007-.0049a.0257.0257,0,0,1-.0111-.018c0-.0025.0008-.0053.0088-.02l.0089-.0154L6.49,1.3427l0-.0077a.0782.0782,0,0,0,.012.0187l.0045.0008L6.5085,1.35a.0156.0156,0,0,1,.0009-.0124l.0117-.0051.01-.0028a.0435.0435,0,0,0,.015-.01l-.0014.0085a.0676.0676,0,0,0,.0195.0564l.0156.0086.0012,0,.0029-.0014,0-.0043a.0191.0191,0,0,1-.0032-.0129.059.059,0,0,1,.013-.0176l.0074-.0068.0042-.0044a.0336.0336,0,0,0,0-.0289c-.0025-.0079-.0046-.0146-.0012-.0193l.0108-.0047.0052.01a.0312.0312,0,0,0,.011.0194.0291.0291,0,0,0,.0215.0033c.0042,0,.0078-.0009.0089.0006s.0028.0059-.0081.0237v.0037l.0032.0019h0l.015-.0031a.0421.0421,0,0,0,.0205-.0223.0432.0432,0,0,0,.0038-.0327.04.04,0,0,0-.0188-.0189L6.6679,1.27l.0055-.0074c.0057-.0031.0154,0,.0267.0094l.0077.0078.0034.0013.003-.0022a.0319.0319,0,0,0,0-.0265.0335.0335,0,0,0-.0207-.0148.06.06,0,0,0-.0275-.0027.02.02,0,0,1-.0136-.0016C6.6473,1.23,6.6444,1.222,6.644,1.21a.0948.0948,0,0,0,.0486.0173l.0059-.0005.007-.0045c.0026-.0048-.0012-.009-.0068-.0154l-.0151-.0189a.1543.1543,0,0,1-.0254-.0559l.0026.002.0069.0055a.1182.1182,0,0,0,.0518.0256l.0037-.0021c.0053-.0071-.0144-.0242-.0167-.0262a.0867.0867,0,0,0-.0188-.0119A.0234.0234,0,0,1,6.6715,1.1l0,0a.1292.1292,0,0,0,.0837.0433l.0092-.0041c.0023-.0034.0026-.0085-.0063-.0207a.1629.1629,0,0,0,.0811.0335.0459.0459,0,0,0,.02-.0041c.0038-.0017.0138-.0064.0147-.0151s-.0087-.0153-.0249-.0249a.3409.3409,0,0,1-.0375-.025.2391.2391,0,0,1-.0269-.0242l.01.0056c.0147.0081.037.02.0666.0337a.2178.2178,0,0,0,.0688.0195c.0183.002.0373.004.042-.0055.0036-.0072,0-.02-.045-.0554l.021.0032.0092,0c.0261,0,.065-.006.0665-.02a.0135.0135,0,0,0-.007-.0118A.1331.1331,0,0,0,7.08,1.0154l.004-.0066c0-.0043-.002-.01-.019-.017A.3117.3117,0,0,0,7.17.9722.2884.2884,0,0,0,7.2485.9256.62.62,0,0,0,7.5264.84c.0473-.0308.1122-.0877.1023-.1032C7.6259.7326,7.6189.73,7.5918.74L7.6111.7258C7.6189.72,7.6462.6982,7.6687.6763c.03-.0291.03-.0384.0272-.0434S7.6879.62,7.6174.65A.3071.3071,0,0,0,7.7037.5747C7.7215.5494,7.7265.5366,7.7208.53,7.7131.5218,7.6926.5335,7.6472.5607Zm-.1159-.02L7.5466.5326,7.5751.5167,7.592.5055A.1255.1255,0,0,1,7.6383.4826c.0077-.0017.0222-.0048.025-.0009.0049.0067-.0167.0376-.0491.07A.7224.7224,0,0,1,7.3971.68c-.061.0262-.1083.0427-.131.05a1.4534,1.4534,0,0,1-.1535.0412L7.1089.7626,7.101.753h.0034A.2324.2324,0,0,0,7.1407.75.1587.1587,0,0,0,7.2.7313c.01-.0059.0334-.0206.03-.03C7.2269.6954,7.22.6962,7.2045.698l-.03.0026L7.1531.7012a1.4172,1.4172,0,0,0,.158-.0535s.0343-.0139.0815-.0385C7.4494.5835,7.4961.5605,7.5313.5409Zm-.51.2356.0014,0,.0089.0015a.0428.0428,0,0,1,.0248.0149l.0006.0008.0044.007a.1721.1721,0,0,1-.06,0,.8436.8436,0,0,1-.11-.014A.09.09,0,0,1,6.8577.7735.0816.0816,0,0,1,6.8391.7559c0-.0041-.0032-.01-.0175-.02.0124,0,.0247,0,.0367,0l.0151,0,.0175.0005a.0378.0378,0,0,0,.03-.009A.0247.0247,0,0,0,6.9281.7067L6.9259.7018l.016-.0065A.121.121,0,0,1,6.9789.69H6.98L7,.6879c.0143.0036.0289.0067.0434.0094a.638.638,0,0,0,.0655.0089.4567.4567,0,0,0,.0667.0019l.03-.0027L7.2221.7042A.0808.0808,0,0,1,7.196.7249.1485.1485,0,0,1,7.14.7426.1962.1962,0,0,1,7.02.7262L7.0165.7329A.2015.2015,0,0,0,7.072.75L7.0845.752a.0331.0331,0,0,1,.0179.0143l.0028.0062s-.0042.01-.0814-.0031l-.0013,0A.43.43,0,0,1,6.94.747L6.9376.754A.4486.4486,0,0,0,7.0212.7765ZM6.7029.8452a.5649.5649,0,0,0,.13.09c.0187.0094.0371.0173.052.0237a.1462.1462,0,0,1,.04.02.1151.1151,0,0,1-.0569.0035A.2875.2875,0,0,1,6.7209.916a.8588.8588,0,0,1-.1335-.12l.0174.0006.01.0007.0184.0014.0085,0L6.655.7979c.0075-.0013.0125-.0021.0137-.0064s0-.0057-.0056-.01a.2531.2531,0,0,1,.0261,0c.0056,0,.0148,0,.031-.0006a.3542.3542,0,0,0,.04.0284l.0052.0028a.3974.3974,0,0,0,.0528.04.51.51,0,0,0,.151.0615l.0253.0077a.2372.2372,0,0,0,.05.0124l.0036,0,.0178.004c.001.0033-.0108.0146-.0262.0211A.0958.0958,0,0,1,6.9738.9577.9782.9782,0,0,1,6.8517.9148L6.8241.9C6.772.8731,6.7181.8449,6.6613.8147L6.6578.8213ZM6.7641.8029A.3245.3245,0,0,1,6.7316.78h.0045c.0066,0,.0129,0,.0145-.0053L6.7484.7674l.03-.0011.0192,0A.1169.1169,0,0,0,6.8348.7625.0891.0891,0,0,0,6.8535.78.0881.0881,0,0,0,6.88.7918a.0876.0876,0,0,0,.0361.0264L6.9336.823c.0087.0019.0137.0031.0149.0065L6.9452.84a.018.018,0,0,1-.014.0035A.39.39,0,0,1,6.7641.8029ZM7.2574.6a1.8075,1.8075,0,0,0,.23-.0985l.01-.0056A.2253.2253,0,0,1,7.5508.4707c0,.0028-.0043.01-.0209.03a.3432.3432,0,0,1-.0834.0705,1.1465,1.1465,0,0,1-.1383.07A1.4016,1.4016,0,0,1,7.1277.7L7.1092.6988C7.0978.6978,7.0741.6955,7.0444.69L7.0165.6842c.0249-.0064.0549-.0173.086-.0286L7.1074.6538c.0622-.0225.0849-.03.1-.0353S7.2293.611,7.2574.6ZM6.5005.6971A.0792.0792,0,0,1,6.5221.6915c.086-.01.1-.01.1-.01.0588,0,.0842.0011.0994.0018a.273.273,0,0,0,.03,0A.1782.1782,0,0,0,6.8208.6675.431.431,0,0,1,6.9165.64l.0472-.008a.7851.7851,0,0,0,.12-.0263L7.1186.5947l.0258-.01.0869-.033C7.24.5486,7.2432.5491,7.2442.55s.0028.0043-.0036.0191A.09.09,0,0,1,7.2.61l.0012.0023c-.0151.0051-.0388.0132-.0966.0342L7.1.6486a.4618.4618,0,0,1-.12.0339H6.979A.13.13,0,0,0,6.94.6882L6.92.6962A.048.048,0,0,0,6.89.69l0,.0074c.0176-.0012.0289.0051.0306.0116s-.0055.0137-.0056.0137C6.9077.73,6.8963.73,6.8737.7286L6.8585.728c-.0156,0-.0315,0-.0475,0L6.8.7216,6.7964.7281c.0356.0211.0352.0274.0352.0276a.1236.1236,0,0,1-.0342.0027L6.7782.7589,6.74.76,6.7275.7524a.1579.1579,0,0,0-.03-.0134L6.6952.7461a.1492.1492,0,0,1,.0286.0127.0755.0755,0,0,1,.0191.0134L6.7357.7728C6.71.7738,6.6964.7743,6.69.774a.2913.2913,0,0,0-.0372.001L6.6345.7662,6.6314.7729a.13.13,0,0,1,.0292.0163L6.6538.7906a.0833.0833,0,0,1-.0205.0007L6.615.79l-.01-.0008L6.5823.7885A.1816.1816,0,0,0,6.5637.7616a.2567.2567,0,0,0-.03-.0311L6.5087.7094,6.5036.7052,6.4963.6991ZM5.936.9545A.1494.1494,0,0,1,5.8438.9482C5.8262.94,5.8179.9326,5.8184.9306L5.8358.927A.2315.2315,0,0,0,5.865.9222.1548.1548,0,0,0,5.929.8883L5.93.8837,5.9254.882a.8492.8492,0,0,1-.1043.025A.2206.2206,0,0,1,5.745.9116.1192.1192,0,0,1,5.6759.8831.0643.0643,0,0,1,5.7.8787L5.7282.8752A.3368.3368,0,0,0,5.8347.8394L5.8364.8348,5.8321.8325A1.41,1.41,0,0,1,5.6783.86.1745.1745,0,0,1,5.58.85.0619.0619,0,0,1,5.5533.8309L5.5712.8285a.2618.2618,0,0,0,.04-.0045A.1959.1959,0,0,0,5.6668.8034.3655.3655,0,0,0,5.7426.7823L5.74.7754A.356.356,0,0,1,5.654.7978a.1193.1193,0,0,1-.0289.001.4858.4858,0,0,0-.0578,0H5.5652a.1013.1013,0,0,1-.05-.0063C5.4989.7854,5.4887.7752,5.49.7725L5.5083.7686l.0042,0c.0207-.0022.0421-.0056.0636-.01h0a.3143.3143,0,0,0,.05-.0061L5.6248.7446A.3138.3138,0,0,1,5.57.7508.3446.3446,0,0,1,5.4794.74.558.558,0,0,1,5.3.6571.0762.0762,0,0,1,5.2743.6252.0448.0448,0,0,1,5.27.5976l.0141.0108A.212.212,0,0,0,5.3059.627a.1622.1622,0,0,0,.07.028l.0184.0074c.06.0232.12.0454.179.0658l.0024-.007c-.0589-.02-.119-.0426-.1787-.0658A.1947.1947,0,0,1,5.2934.5845.0962.0962,0,0,1,5.2758.5411L5.293.5536c.0085.0069.0191.0154.0327.0248A.38.38,0,0,0,5.38.61a.3534.3534,0,0,0,.07.0295c.0355.0126.0533.019.0888.0311A1.29,1.29,0,0,1,5.6625.72L5.6656.7132a1.3028,1.3028,0,0,0-.1239-.05C5.5062.6513,5.4884.645,5.4529.6324A.2272.2272,0,0,1,5.3715.594c-.0043-.0038-.0169-.02-.04-.0486A.1031.1031,0,0,1,5.3063.5c-.0045-.0219-.0007-.0254,0-.0258.0041-.0024.0185.0116.0311.024a.4644.4644,0,0,0,.04.0366.2957.2957,0,0,0,.12.0538.1486.1486,0,0,0,.0354.0158L5.5671.617a1.1394,1.1394,0,0,1,.1095.0492L5.68.66A1.12,1.12,0,0,0,5.57.61L5.5362.5977A.1285.1285,0,0,1,5.4979.58.1117.1117,0,0,1,5.465.5449a.2777.2777,0,0,0-.0412-.05A.1027.1027,0,0,1,5.3978.454L5.3949.4365c.0039-.0036.0255.01.0412.02l.0177.0108a.2719.2719,0,0,0,.0438.0209c.0129.0053.0306.0126.0591.025.0193.0083.1767.0769.2641.1189A.135.135,0,0,1,5.7914.644a.17.17,0,0,1-.0307.0051C5.7493.65,5.7417.6509,5.74.6572c-.0024.0084.01.0175.0168.0211s.019.0071.0555,0L5.8343.6738a.09.09,0,0,1-.0315.0268L5.785.7075c-.0084.0028-.014.0046-.014.01,0,.0084.0186.013.0343.0153l.0253.0019A.1539.1539,0,0,0,5.8713.7294.2151.2151,0,0,1,5.84.7577L5.8345.7613c-.0079.0054-.0131.009-.0117.0143s.0087.0073.0228.0073l.03-.0016H5.877L5.8955.78c-.0219.0131-.0241.0194-.0227.0238s.0092.0073.0217.0073L5.92.8091a.2884.2884,0,0,0,.07-.016l.0258-.01a.17.17,0,0,1-.0232.0184.2188.2188,0,0,1-.0458.0222c-.0127.0048-.02.0075-.0192.0138,0,.0029.001.0116.0468.015L5.9888.853A.25.25,0,0,0,6.0414.8468.3556.3556,0,0,0,6.1153.8223L6.1217.8191a.1823.1823,0,0,1-.0468.033L6.0605.8585c-.0147.0063-.0263.0113-.0259.02,0,.0055.0056.01.0158.0144a.2559.2559,0,0,1-.0616.0433l-.0007,0A.2159.2159,0,0,1,5.936.9545ZM6.0006.7208a.2213.2213,0,0,0-.0355.0176.1785.1785,0,0,0-.0207.0147.0723.0723,0,0,1-.0171.0112.1384.1384,0,0,1-.0509.01H5.8749a.1648.1648,0,0,1-.0445,0L5.8388.7674,5.8439.7637a.2181.2181,0,0,0,.0419-.04A.0466.0466,0,0,0,5.9033.71L5.9038.71A.054.054,0,0,1,5.9174.696L5.93.69c.0034.0034.0131.0077.0412.0115a.2691.2691,0,0,0,.0439.0022Zm.0028.0069A.22.22,0,0,0,6.0455.729.2246.2246,0,0,0,6.0894.7219L6.0707.7463l0,.0008a.477.477,0,0,1-.0825.039A.2779.2779,0,0,1,5.92.8017c-.03.0029-.0378.001-.04,0,0-.0014.0044-.0082.0382-.0255L5.93.7711A.0829.0829,0,0,0,5.9491.7589l.02-.0141A.22.22,0,0,1,6.0034.7277ZM5.9287.6821,5.9131.69a.0617.0617,0,0,0-.0153.0154l0,.0007a.1089.1089,0,0,1-.0908.0194A.0836.0836,0,0,1,5.7792.7176l.0081-.003L5.8062.7072A.1019.1019,0,0,0,5.8463.67l0-.0043L5.8421.664,5.8108.6714c-.0381.007-.0475.002-.0506,0-.008-.0042-.0137-.01-.0131-.0124L5.7614.6565a.1786.1786,0,0,0,.032-.0054A.1366.1366,0,0,0,5.8289.6355l.0165.0081.0051.0026a.2007.2007,0,0,0,.0543.0207l.0238.0037L5.9442.673,5.94.6746Zm.3059.1144L6.24.8072a.4.4,0,0,1-.0674.05A.1553.1553,0,0,1,6.06.8882C6.0459.8841,6.0421.88,6.042.8782c0-.0036.0118-.0087.0214-.0128L6.0781.8588A.2007.2007,0,0,0,6.1425.8081a.352.352,0,0,0,.07-.0541L6.2339.7308a.1365.1365,0,0,0-.0023.0351A.0946.0946,0,0,0,6.2346.7965ZM6.0053.981C5.96.9857,5.9419.9817,5.9408.9781c0,0-.002-.0094.0551-.0371h0A.2667.2667,0,0,0,6.0584.8955a.08.08,0,0,0,.0227.0032A.2025.2025,0,0,0,6.1766.8635a.4022.4022,0,0,0,.0681-.05l.0087.014c.0054.0109.0081.0164.0071.0208s-.0042.0069-.01.0107a.0662.0662,0,0,0-.018.0149C6.2116.8853,6.1907.8969,6.17.908c-.0171.0092-.0339.0195-.05.0295s-.0322.02-.0488.0286A.2833.2833,0,0,1,6.0053.981Zm.278.0841c-.0258-.0058-.0532-.02-.053-.0311,0-.0086.0213-.02.0564-.0395l.0192-.01L6.3076.98,6.3028.9777,6.2666.9915a.4655.4655,0,0,1-.09.0269c-.0385.0062-.0575.004-.0587,0,0-.0015.0024-.0059.0192-.0186A.5307.5307,0,0,1,6.2211.9485l.0017-.005L6.2178.9418c-.033.0163-.0622.0309-.0892.0447l0,0a.1325.1325,0,0,1-.0493.0168A.079.079,0,0,1,6.03.9969l.0175-.01L6.0487.9858,6.0723.9735,6.0741.973l0,0c.0171-.0092.0338-.0189.05-.0288s.033-.02.05-.0292L6.2249.8863l-.006.0118-.0055.01c-.0047.0085-.0066.012-.0043.0159C6.2128.93,6.2236.93,6.2463.9226A.2025.2025,0,0,0,6.2805.9074L6.2946.9l.003-.0014c.0192-.0019.04.0394.0542.0667a.2085.2085,0,0,1,.0177.047c.0043.0179.0079.0334.0012.0421A.1366.1366,0,0,1,6.2833,1.0651ZM6.4,1.2088,6.4017,1.18l.0043-.047A.1772.1772,0,0,0,6.4116,1.09l-.0034-.0037-.004.0032-.0055.0424-.003.01a.095.095,0,0,1-.0156.03.0716.0716,0,0,1-.018.0147.1455.1455,0,0,1,0-.0229.1953.1953,0,0,1,.0134-.05l.0193-.054-.0018-.0045-.0048.0011c-.017.0239-.022.0239-.022.0239l-.0011-.0084.0061-.0086.0043-.0042c.01-.0115.0056-.029.0008-.0492A.2138.2138,0,0,0,6.3584.9614L6.3552.9552A.0322.0322,0,0,0,6.3706.9339l0-.0063V.9261l.0112.007.01.0065a.0892.0892,0,0,0,.0226.01L6.44.96a.1636.1636,0,0,1,.0364.0187A.0513.0513,0,0,1,6.4915,1c.0014.058.0011.1-.001.1259v0A.2439.2439,0,0,0,6.49,1.16a.2526.2526,0,0,0,.0037.0325A.328.328,0,0,1,6.47,1.1648a.3349.3349,0,0,1-.02-.0288l-.004-.0017-.0029.0032a.1148.1148,0,0,1-.0069.028.0759.0759,0,0,1-.0269.0383ZM6.4973,1.16a.23.23,0,0,1,.0006-.0323v0c.0019-.0232.0024-.06.0015-.1095l.01.0185a.2811.2811,0,0,0,.0166.027.12.12,0,0,1,.0136.0248.2159.2159,0,0,1,.0128.0458.3074.3074,0,0,1,.0043.0792l.002.0035.0041,0,.0115-.0108v.0384a.12.12,0,0,0-.0391.0037.1079.1079,0,0,0-.0293.011L6.4891,1.25l-.0124-.0072c-.0072-.0049-.0126-.0283-.01-.07a.3377.3377,0,0,0,.03.0331l.0044.0006.0018-.0041A.2439.2439,0,0,1,6.4973,1.16Zm-.0139.1621a.0243.0243,0,0,1-.006-.0149.0216.0216,0,0,1,.0058-.0124.0833.0833,0,0,0,.0027.029l.0013.0043Zm.0028-.04a.0352.0352,0,0,0-.0162.0248.0306.0306,0,0,0,.0073.02.0222.0222,0,0,1,.0058.0159l-.0018.0036-.009.0156c-.0086.0157-.01.0191-.01.0236l.0014.0072a.1017.1017,0,0,1-.03-.0354.1.1,0,0,1-.01-.0314l-.0041-.0032-.0033.0039A.0416.0416,0,0,1,6.41,1.35a.0579.0579,0,0,1-.0155.0151l-.01.0061-.01.008L6.3727,1.39a.0616.0616,0,0,1-.0136-.0509A.0568.0568,0,0,1,6.3765,1.31h0l0-.0053-.0053,0h0a.0746.0746,0,0,1-.0424.0213l-.01,0a.0516.0516,0,0,0-.0257.005l-.0125.01a.0687.0687,0,0,1,.0041-.0235.0662.0662,0,0,1,.0336-.0394.0377.0377,0,0,1,.02-.0024.0516.0516,0,0,0,.0267-.0035.08.08,0,0,0,.0316-.0247.0927.0927,0,0,0,.0188-.0392.0846.0846,0,0,0,.0268-.04l.0058-.02.0116.0164c-.0018.0186-.0053.073.0122.0847l.013.0077.0129.0062L6.4921,1.27ZM6.6487,1.24a.0268.0268,0,0,0,.0182.0027.0538.0538,0,0,1,.0245.0023.0263.0263,0,0,1,.0165.0113.0207.0207,0,0,1,.0013.0143l-.0045-.0041c-.0141-.0113-.0262-.0148-.0348-.01a.017.017,0,0,0-.0094.0139c0,.0077.0065.0117.013.0156a.0329.0329,0,0,1,.0156.0152.0362.0362,0,0,1-.0036.0269.035.035,0,0,1-.0168.0186l-.005.0017c.0067-.0124.0079-.0207.0039-.0257s-.01-.0041-.0156-.0034a.0231.0231,0,0,1-.0164-.002.0244.0244,0,0,1-.008-.0152c-.0018-.0064-.0035-.0131-.01-.0151a.0186.0186,0,0,0-.019.0074.0282.0282,0,0,0,0,.0259A.028.028,0,0,1,6.6,1.3427l-.0023.0023-.0085.0079c-.0129.0144-.0144.0185-.0149.0215l0,.0087L6.5692,1.38a.0608.0608,0,0,1-.0168-.05.11.11,0,0,1,.007-.0269l-.0016-.0055-.0049.0018a.048.048,0,0,1-.0241.0238L6.52,1.3255a.0229.0229,0,0,0-.0164.0083l-.0024.0055-.0076-.0179a.054.054,0,0,1,.005-.0467.0628.0628,0,0,1,.0384-.02.113.113,0,0,1,.0406-.0031L6.58,1.25l.0012-.0027V1.1956l.0069-.0109a.1011.1011,0,0,0,.0105-.032A.223.223,0,0,0,6.616,1.18a.1453.1453,0,0,0,.0205.0238C6.6361,1.2225,6.64,1.2343,6.6487,1.24Zm.0357-.1084a.0775.0775,0,0,1,.0173.0109l.0136.0148a.1563.1563,0,0,1-.0431-.0237l-.0067-.0053c-.005-.0041-.0082-.0068-.0118-.0045l-.0027.0042a.13.13,0,0,0,.0264.0641l.0157.02.0057.0071a.0723.0723,0,0,1-.0533-.0169.115.115,0,0,1-.0235-.0259.2182.2182,0,0,1-.0226-.0385l-.0041-.0021-.003.0036a.0927.0927,0,0,1-.0107.0424.0946.0946,0,0,1-.0173.0229.3085.3085,0,0,0-.005-.0721.2169.2169,0,0,0-.0132-.0473.12.12,0,0,0-.0144-.0261c-.004-.006-.009-.0134-.0162-.0265S6.5033,1.0083,6.5,1.0005A.063.063,0,0,0,6.4811.9727a.1643.1643,0,0,0-.0382-.02.2312.2312,0,0,0-.0264-.01A.0819.0819,0,0,1,6.3956.9333L6.3863.927C6.3773.9207,6.3708.9161,6.3659.92L6.3634.9279l0,.0049a.0247.0247,0,0,1-.0115.0157c-.0154-.0294-.034-.06-.0549-.0578L6.2906.8932,6.277.9008a.1955.1955,0,0,1-.0329.0147C6.2213.9227,6.2165.9209,6.2156.92L6.22.9118l.0055-.01L6.2328.8866,6.2353.882A.0538.0538,0,0,1,6.2541.8649.0242.0242,0,0,0,6.2678.85C6.2693.8426,6.2662.8363,6.26.8238A.0889.0889,0,0,0,6.249.8065L6.2416.7939A.0932.0932,0,0,1,6.239.7658.1247.1247,0,0,1,6.2421.7286L6.2506.7081,6.2441.7044,6.2422.7081a.3361.3361,0,0,1-.0347.0407.34.34,0,0,1-.0953.0667A.3454.3454,0,0,1,6.04.84.2148.2148,0,0,1,5.9752.845a.0924.0924,0,0,1-.04-.008L5.95.8306A.2275.2275,0,0,0,5.997.8076a.1837.1837,0,0,0,.0376-.033A.4612.4612,0,0,0,6.0761.7523l.0386,0V.7444l-.0333,0,.021-.0275V.7129L6.0982.7115a.2156.2156,0,0,1-.0532.01A.226.226,0,0,1,6.01.721L6.0258.7016l0-.0041L6.0227.6955A.2615.2615,0,0,1,5.9719.6937.0992.0992,0,0,1,5.9358.6849L5.9431.6816C5.9489.6792,5.9544.677,5.954.6722S5.9455.6653,5.93.6632L5.9063.66A.1939.1939,0,0,1,5.8538.64L5.8487.6369c-.0209-.0105-.05-.024-.0809-.0384h0A.2409.2409,0,0,0,5.7273.553L5.716.5437C5.7021.5325,5.69.5229,5.6913.5125L5.6929.5073C5.7.4991,5.7394.519,5.7812.54c.0243.0123.0519.0262.0819.04A.5929.5929,0,0,0,6.02.6349c.0132.0022.0342.005.0585.0082.0333.0044.0712.0095.1014.0145a.2674.2674,0,0,1,.0545.0147l.0279.0125L6.2653.6782,6.2566.6739a.1679.1679,0,0,1,.09-.1483.1538.1538,0,0,1,.136-.002.1047.1047,0,0,1,.0234.02l.003.0012c.05-.0029.0845.0126.0874.0286A.0372.0372,0,0,1,6.5882.6a.0385.0385,0,0,1-.0129.01A.0483.0483,0,0,0,6.567.5927.04.04,0,0,0,6.5465.5774.0285.0285,0,0,0,6.5346.5765l-.009,0A.0367.0367,0,0,1,6.5078.5678L6.503.5736a.046.046,0,0,0,.0213.01.0368.0368,0,0,0,.0109,0l.0092.0006.001,0L6.5383.5883a.0419.0419,0,0,1-.017.0023.0487.0487,0,0,0-.0177.002A.052.052,0,0,0,6.48.6087a.0557.0557,0,0,0-.0113.0285.0757.0757,0,0,0,.0064.0417L6.4529.6536,6.4471.6583A.3642.3642,0,0,0,6.4988.711l.0053.0042L6.5285.736a.25.25,0,0,1,.0294.03.1461.1461,0,0,1,.0229.0362.1133.1133,0,0,1,.0078.0364l.0019.0154c.0025.02.0059.04.01.06L6.6078.9127c-.0041-.02-.0074-.04-.01-.0593L6.596.8381A.1813.1813,0,0,0,6.5919.8119a.8694.8694,0,0,0,.1246.11A.5707.5707,0,0,0,6.77.9572c.0679.0638.0636.0748.0629.0759-.0048.007-.055-.0081-.098-.0358A.3937.3937,0,0,1,6.6822.9547L6.6689.9407,6.649.92l-.0052,0,0,.0052A.46.46,0,0,0,6.677.96c.0354.0374.0633.068.0593.0743s-.0437-.0031-.0838-.0255a.24.24,0,0,1-.064-.052L6.5769.9428,6.5717.9422,6.571.9474l.0118.0143.0086.01.0293.0351.009.0109a.1209.1209,0,0,1,.023.0455.0871.0871,0,0,0,.0121.0275.0389.0389,0,0,0,.0045.0286A.0338.0338,0,0,0,6.6844,1.1314Zm.2809-.0228c-.0024.0049-.0233.0026-.0345.0014a.212.212,0,0,1-.0665-.0189c-.0294-.0132-.0515-.0254-.0661-.0335-.019-.01-.023-.0126-.026-.0085-.0055.0075.025.0322.0345.04a.3544.3544,0,0,0,.0383.0255c.0127.0076.0218.013.0213.0178s-.008.0079-.01.0091c-.0367.0171-.1043-.0356-.1241-.0521l-.0052,0,0,.0052a.2906.2906,0,0,1,.0246.0271c.0077.01.0072.0129.0071.0133h0l-.005.0009h0a.126.126,0,0,1-.0762-.0409A.0746.0746,0,0,1,6.66,1.0616a.1262.1262,0,0,0-.0242-.048l-.0092-.0112L6.6237.9993l.0252.0161c.0279.0156.0841.0384.0937.023C6.7472,1.0311,6.7411,1.02,6.72.9961l.011.0074c.0309.02.0971.05.1081.0338.0045-.0065.0026-.02-.0457-.068a.2291.2291,0,0,0,.0281.0113.2165.2165,0,0,0,.0839.0689C6.9674,1.0957,6.9662,1.1068,6.9653,1.1086Zm-.0168-.0564A.1709.1709,0,0,1,6.8344.9844.2114.2114,0,0,0,6.8664.99l.01.0008a.248.248,0,0,0,.0988.0347l.027.0019c.014.007.014.0107.014.0111C7.0156,1.0452,6.9812,1.0545,6.9485,1.0522Zm.1279-.0441L7.0751,1.01a.1957.1957,0,0,1-.0989.0088A.24.24,0,0,1,6.8925.9916h0C6.91.9916,6.93.99,6.9314.9808S6.92.9662,6.8874.9522C6.8719.9456,6.8543.938,6.8358.9288A.5491.5491,0,0,1,6.7315.86l.0891.0467.0277.0145A.627.627,0,0,0,6.9259.95a.36.36,0,0,0,.0623.0342.1124.1124,0,0,0,.0491.0085l.0089,0C7.076,1.0028,7.0764,1.0081,7.0764,1.0081ZM7.1675.9652a.32.32,0,0,1-.1091.02A.1366.1366,0,0,1,6.9912.9776C6.9818.9735,6.9671.9663,6.9544.9594l.0172.0054a.1364.1364,0,0,0,.0406.0074A.08.08,0,0,0,7.0429.9663C7.055.9612,7.071.95,7.0734.9408,7.099.94,7.125.9377,7.1507.9353,7.18.9327,7.2074.93,7.2346.9272A.275.275,0,0,1,7.1675.9652ZM7.6224.7409a.2885.2885,0,0,1-.1.0931A.7706.7706,0,0,1,7.15.9279C7.124.93,7.0977.9321,7.0719.9334,7.068.9287,7.0588.9278,7.0491.9269l-.0036,0A.2361.2361,0,0,1,6.9968.9144L6.9711.9066A.5063.5063,0,0,1,6.8222.846.3883.3883,0,0,1,6.79.8229a.46.46,0,0,0,.141.0277h.003L6.9406.85a.7735.7735,0,0,0,.2149.0307A.7581.7581,0,0,0,7.2628.8731a.7717.7717,0,0,0,.3-.1131C7.6137.7375,7.6215.74,7.6224.7409ZM7.6976.57A.8919.8919,0,0,1,7.34.7678l.0025.007A1.85,1.85,0,0,0,7.5287.6983h0C7.6741.6276,7.6882.6347,7.69.6369c.0037.0059-.03.0414-.0831.083A.7421.7421,0,0,1,6.95.8449h0A.018.018,0,0,0,6.9555.827C6.9529.82,6.9446.8178,6.9351.8157L6.9184.8112A.0741.0741,0,0,1,6.8927.7947a.8368.8368,0,0,0,.1085.0136c.02.0015.0341.0024.0443.0024.0149,0,.0211-.002.0229-.0076S7.0668.7944,7.0628.7893L7.0622.7885,7.0552.7814l.03.0021a.0538.0538,0,0,0,.0214-.003A1.4607,1.4607,0,0,0,7.2684.7376c.0229-.0076.07-.0241.1317-.05L7.4359.6712A1.1126,1.1126,0,0,0,7.6044.5944L7.651.5671c.0255-.0152.06-.0362.0643-.0318C7.7155.5355,7.719.54,7.6976.57Z"/><path d="M6.5082.9342,6.4927.9191A.1232.1232,0,0,1,6.47.8782L6.4633.8805A.1291.1291,0,0,0,6.487.9239L6.5033.94a.1109.1109,0,0,1,.016.0157A.1124.1124,0,0,1,6.54.994L6.5468.9918A.1189.1189,0,0,0,6.525.9508.1232.1232,0,0,0,6.5082.9342Z"/><path d="M6.4279.5251a.0633.0633,0,0,0-.0257.0087L6.3977.5363,6.39.54,6.3851.5423,6.379.548h0L6.38.5511c.0024.0029.01.005.0289.0075L6.4272.56A.0272.0272,0,0,0,6.442.5572c.0063-.0036.0149-.0118.013-.02C6.4527.5275,6.4372.5247,6.4279.5251Zm.01.0256A.0589.0589,0,0,1,6.41.5512L6.3908.548,6.393.547,6.4013.5428,6.4055.5405a.0574.0574,0,0,1,.0228-.008c.009,0,.0186.0028.0194.0065S6.4434.5478,6.4384.5507Z"/><path d="M6.6648,1.0912a.0871.0871,0,0,1-.0121-.0275.1209.1209,0,0,0-.023-.0455l-.009-.0109L6.5914.9722l-.0086-.01L6.571.9474,6.5717.9422l.0052.0006.0116.0141a.24.24,0,0,0,.064.052c.04.0224.08.0316.0838.0255S6.7124.9975,6.677.96A.46.46,0,0,1,6.6435.9252l0-.0052.0052,0,.02.02.0133.014a.3937.3937,0,0,0,.0531.0426c.043.0277.0932.0428.098.0358.0007-.0011.005-.0121-.0629-.0759A.5707.5707,0,0,1,6.7165.9221a.8694.8694,0,0,1-.1246-.11A.1813.1813,0,0,1,6.596.8381l.0019.0153c.0025.0195.0058.0395.01.0593L6.6005.9142c-.0041-.02-.0075-.04-.01-.06L6.5886.8389A.1133.1133,0,0,0,6.5808.8025.1461.1461,0,0,0,6.5579.7663a.25.25,0,0,0-.0294-.03L6.5041.7152,6.4988.711A.3642.3642,0,0,1,6.4471.6583L6.4529.6536l.0223.0253A.0757.0757,0,0,1,6.4688.6372.0557.0557,0,0,1,6.48.6087.052.052,0,0,1,6.5036.5926a.0487.0487,0,0,1,.0177-.002.0419.0419,0,0,0,.017-.0023L6.5454.5849l-.001,0L6.5352.5839a.0368.0368,0,0,1-.0109,0,.046.046,0,0,1-.0213-.01L6.5078.5678a.0367.0367,0,0,0,.0178.0085l.009,0a.0285.0285,0,0,1,.0119.0009A.04.04,0,0,1,6.567.5927.0483.0483,0,0,1,6.5753.61.0385.0385,0,0,0,6.5882.6.0372.0372,0,0,0,6.5967.5732C6.5938.5572,6.56.5417,6.5093.5446L6.5063.5434a.1047.1047,0,0,0-.0234-.02.1538.1538,0,0,0-.136.002.1679.1679,0,0,0-.09.1483l.0087.0043L6.2618.6848,6.2339.6723A.2674.2674,0,0,0,6.1794.6576c-.03-.005-.0681-.01-.1014-.0145C6.0537.64,6.0327.6371,6.02.6349A.5929.5929,0,0,1,5.8631.58c-.03-.0134-.0576-.0273-.0819-.04C5.7394.519,5.7.4991,5.6929.5073L5.6913.5125c-.0012.01.0108.02.0247.0312L5.7273.553A.2409.2409,0,0,1,5.768.5984h0c.0313.0144.06.0279.0809.0384L5.8538.64a.1939.1939,0,0,0,.0525.02L5.93.6632c.0159.0021.0239.0031.0244.009s-.0051.007-.0109.0094L5.9358.6849a.0992.0992,0,0,0,.0361.0088.2615.2615,0,0,0,.0508.0018l.0035.002,0,.0041L6.01.721A.226.226,0,0,0,6.045.7216a.2156.2156,0,0,0,.0532-.01l.0041.0014V.7173l-.021.0275.0333,0V.7519l-.0386,0a.4612.4612,0,0,1-.0415.0223.1837.1837,0,0,1-.0376.033A.2275.2275,0,0,1,5.95.8306L5.9355.837a.0924.0924,0,0,0,.04.008A.2148.2148,0,0,0,6.04.84a.3454.3454,0,0,0,.0724-.024A.34.34,0,0,0,6.2075.7488.3361.3361,0,0,0,6.2422.7081L6.2441.7044l.0065.0037L6.2421.7286A.1247.1247,0,0,0,6.239.7658a.0932.0932,0,0,0,.0026.0281L6.249.8065A.0889.0889,0,0,1,6.26.8238c.0062.0125.0093.0188.0078.0257a.0242.0242,0,0,1-.0137.0154A.0538.0538,0,0,0,6.2353.882L6.2328.8866,6.2255.9015,6.22.9118,6.2156.92c.0009.0006.0057.0024.0285-.0048A.1955.1955,0,0,0,6.277.9008L6.2906.8932,6.2968.8907c.0209-.0021.0395.0284.0549.0578A.0247.0247,0,0,0,6.3632.9328l0-.0049L6.3659.92c.0049-.0037.0114.0009.02.0072l.0093.0063a.0819.0819,0,0,0,.0209.0095.2312.2312,0,0,1,.0264.01.1643.1643,0,0,1,.0382.02A.063.063,0,0,1,6.5,1.0005c.0035.0078.0079.0176.0157.0316s.0122.02.0162.0265a.12.12,0,0,1,.0144.0261.2169.2169,0,0,1,.0132.0473.3085.3085,0,0,1,.005.0721.0946.0946,0,0,0,.0173-.0229.0927.0927,0,0,0,.0107-.0424l.003-.0036.0041.0021a.2182.2182,0,0,0,.0226.0385.115.115,0,0,0,.0235.0259.0723.0723,0,0,0,.0533.0169l-.0057-.0071-.0157-.02a.13.13,0,0,1-.0264-.0641l.0027-.0042c.0036-.0023.0068,0,.0118.0045l.0067.0053a.1563.1563,0,0,0,.0431.0237l-.0136-.0148a.0775.0775,0,0,0-.0173-.0109A.0338.0338,0,0,1,6.6693,1.12.0389.0389,0,0,1,6.6648,1.0912ZM6.442.5572A.0272.0272,0,0,1,6.4272.56L6.409.5586C6.39.5561,6.3825.554,6.38.5511L6.379.548h0L6.3851.5423,6.39.54,6.3977.5363,6.4022.5338A.0633.0633,0,0,1,6.4279.5251c.0093,0,.0248.0024.0271.0121C6.4569.5454,6.4483.5536,6.442.5572ZM6.54.994a.1124.1124,0,0,0-.02-.0384A.1109.1109,0,0,0,6.5033.94L6.487.9239A.1291.1291,0,0,1,6.4633.8805L6.47.8782a.1232.1232,0,0,0,.0223.0409l.0155.0151A.1232.1232,0,0,1,6.525.9508a.1189.1189,0,0,1,.0218.041Z" fill="#f47c0a"/><polygon points="6.03 1.835 6.019 1.835 5.088 1.835 5.085 1.835 5.085 5.188 5.088 5.188 6.019 5.188 6.03 5.188 6.051 5.188 6.051 1.835 6.03 1.835" fill="#e11f14"/><polygon points="6.975 1.835 6.951 1.835 6.051 1.835 6.051 5.188 6.951 5.188 6.975 5.188 7.016 5.188 7.016 1.835 6.975 1.835" fill="#010001"/><rect x="7.0163" y="1.8351" width="0.9655" height="3.3531" fill="#f47c0a"/></svg>