<svg xmlns="http://www.w3.org/2000/svg" viewBox="0 0 7.9818 5.1882"><polygon points="0 0.681 0 4.507 3.396 2.594 0 0.681"/><polygon points="0 0 0 2.46 0 2.46 0 0.681 0 0.376 0 0.376 0 0.012 3.915 2.191 7.982 2.191 7.982 0 0 0" fill="#d21034"/><polygon points="0 5.176 0 4.813 0 4.813 0 4.507 0 2.46 0 2.46 0 5.188 7.982 5.188 7.982 2.997 3.915 2.997 0 5.176" fill="#009543"/><polygon points="4.437 2.459 7.982 2.459 7.982 2.191 3.915 2.191 4.437 2.459"/><polygon points="3.915 2.997 7.982 2.997 7.982 2.729 4.437 2.729 3.915 2.997"/><polygon points="4.437 2.459 3.915 2.191 0 0.012 0 0.376 3.728 2.459 4.437 2.459"/><polygon points="0 5.176 3.915 2.997 4.437 2.729 3.728 2.729 0 4.813 0 5.176"/><polygon points="3.396 2.594 0 4.507 0 4.813 0 4.813 3.728 2.729 3.539 2.729 3.539 2.459 3.728 2.459 0 0.376 0 0.376 0 0.681 3.396 2.594" fill="#fdce12"/><polygon points="3.728 2.459 3.539 2.459 3.539 2.729 3.728 2.729 4.437 2.729 7.982 2.729 7.982 2.727 7.982 2.461 7.982 2.46 7.982 2.459 4.437 2.459 3.728 2.459" fill="#fdce12"/><path d="M.5345,2.7325a.5744.5744,0,0,0,.2789.227.5159.5159,0,0,0,.3416.03.4271.4271,0,0,0,.2118-.13.4481.4481,0,0,0,.0994-.3329.4471.4471,0,0,1-.2334.3113.3908.3908,0,0,1-.2032.026.4318.4318,0,0,1-.3113-.1773.3986.3986,0,0,1-.0649-.2119.4481.4481,0,0,1,.2551-.402.4367.4367,0,0,1,.1773-.0389.4773.4773,0,0,1,.3156.1253.482.482,0,0,1,.0908.1211.5517.5517,0,0,1,.0648.19.5346.5346,0,0,1-.0345.2638.5391.5391,0,0,1-.2292.29.5033.5033,0,0,1-.2356.067V3.39a.7954.7954,0,0,0,.4237-.1384A.8186.8186,0,0,0,1.81,2.72a.971.971,0,0,0,.0108-.1837.8254.8254,0,0,0-.0584-.3048.7363.7363,0,0,0-.3632-.3675A.6878.6878,0,0,0,.7334,1.92a.6284.6284,0,0,0-.2378.294A.605.605,0,0,0,.5345,2.7325Z" fill="#fdce12"/><path d="M1.213,2.4235c-.0225-.0157-.0133.0391-.0073.0675a.004.004,0,0,1-.0069.0034l-.0082-.0093L1.19,2.4822c.0013-.0147.0058-.08-.0167-.0959-.0045-.0032-.0075-.0029-.0094,0L1.16,2.3875l-.0074-.0008-.0039-.0032h0l.0035-.0047c.0256-.0026.0544-.0085.0607-.0215.0084-.0174-.03-.0119-.0527-.0073a.004.004,0,0,1-.0033-.007l.0059-.0047.0025-.0009c.0108,0,.08,0,.09-.0173.0071-.0125-.0261-.0082-.05-.0038l-.0018-.001-.0029-.0067.0006,0,.0025-.0008c.0106,0,.0811.0029.09-.0164s-.069.0009-.0724.0018l.0021-.0015L1.2406,2.28l.0018-.0007c.0115-.0012.122-.0136.1126-.0326s-.0926.0191-.0926.0191l.0227-.0127h0s.068-.0318.0544-.0536-.0526.0491-.0526.0491l-.0013.0007L1.2831,2.25,1.278,2.2445c.0133-.0176.0292-.0419.0134-.0389-.0221.0041-.0487.06-.0536.0708l-.0015.0016-.0156.01c.01-.0138.05-.0752.0262-.068s-.0441.07-.0476.0816l-.0014.0021-.0023.0016L1.19,2.3c.012-.0224.0281-.0574.0081-.0511-.026.0081-.0367.0691-.0387.082l-.0014.0024-.0054.0042-.0061-.0045c.0095-.0245.0244-.0683.0053-.0623-.0233.0072-.031.0767-.0324.0928l-.0014.0026-.0015.0014L1.11,2.3653l-.001-.0072V2.3563c.0075-.0232.0132-.05-.0054-.0418l-.0065.0045H1.0915L1.085,2.3145c-.0186-.0087-.0129.0186-.0054.0418v.0018l-.001.0072-.0066.0025-.0015-.0014-.0014-.0026c-.0014-.0161-.0091-.0856-.0324-.0928-.0191-.006-.0042.0378.0053.0623l-.0061.0045-.0054-.0042-.0014-.0024c-.002-.0129-.0127-.0739-.0387-.082-.02-.0063-.0039.0287.0081.0511l-.0058.0051L.9905,2.3038.9891,2.3017C.9856,2.29.9662,2.2275.9415,2.22s.0167.0542.0262.068l-.0156-.01L.9506,2.2764C.9457,2.2655.9191,2.21.897,2.2056c-.0158-.003,0,.0213.0134.0389L.9053,2.25.9028,2.249.9015,2.2483s-.039-.0709-.0526-.0491.0543.0535.0544.0536h0l.0227.0127s-.0827-.039-.0927-.0191.1011.0314.1126.0326L.9478,2.28l.0168.0115.0021.0015C.9633,2.2918.8845,2.2705.8943,2.2909s.08.0169.09.0164l.0025.0008.0006,0-.0034.008C.9606,2.312.926,2.3072.9333,2.32c.01.0176.0795.0174.09.0173l.0026.0009.0058.0047a.004.004,0,0,1-.0033.007c-.0229-.0046-.0611-.01-.0527.0073.0063.013.0351.0189.0607.0215l.0035.0047h0l-.0039.0033-.0074.0008-.0041-.0014c-.0019-.0027-.0049-.003-.0094,0-.0225.0161-.018.0812-.0167.0959l-.0009.0029L.99,2.4944A.004.004,0,0,1,.9827,2.491c.006-.0284.0152-.0832-.0073-.0675-.0265.0185-.0189.09-.0168.1057l-.0008.0029-.008.01a.004.004,0,0,1-.0071-.003c.0032-.0279.0079-.0861-.0109-.0729-.0224.0158-.0106.0949-.0085.108l-.0007.0029-.0065.0087-.0079.01s.0127-.1116-.0127-.0917c-.0228.018-.0068.0968-.0033.1126L.8915,2.62l-.0043.0063A.004.004,0,0,1,.88,2.6236C.8828,2.59.8859,2.5223.86,2.5488c-.03.03-.0034.0949.0031.11l0,.0037-.028.0441.0012.0054.0083.0054L.85,2.7154l.0163-.0318L.869,2.6817c.0159-.0039.1027-.0262.1019-.0484C.97,2.6148.92,2.639.8947,2.6521L.89,2.6465l.0024-.0037.0024-.0017c.012-.0029.0908-.0228.0984-.05s-.0787.0226-.0874.0277L.91,2.6128l.0089-.0121L.92,2.5993c.01-.0035.0866-.03.0942-.0541C1.02,2.527.9829,2.5439.9593,2.5561L.9544,2.55l.0021-.0028.0026-.0031s.089-.0209.1017-.0518c.0089-.0217-.0335-.0011-.0593.013l-.005-.0061.0115-.0138.0025-.0014a.2175.2175,0,0,0,.0815-.0265h.0044a.2175.2175,0,0,0,.0815.0265l.0025.0014.0115.0138-.0049.0061c-.0259-.0141-.0683-.0347-.0594-.013.0127.0309.1017.0518.1017.0518l.0026.0031L1.234,2.55l-.0049.0059c-.0236-.0122-.0608-.0291-.0552-.0109.0077.0245.0838.0506.0942.0541l.0019.0014.0089.0121.0042.0064c-.0087-.0051-.0951-.0553-.0874-.0277s.0865.0467.0984.05l.0024.0017.0024.0037-.0052.0056c-.025-.0131-.0755-.0373-.0762-.0188-.0008.0222.086.0445.1019.0484l.0025.0019.0163.0318.0058.0016.0083-.0054.0012-.0054-.028-.0441,0-.0037c.0065-.0147.0328-.0791.0031-.11-.0258-.0265-.0227.0416-.02.0748a.004.004,0,0,1-.0072.0026L1.2969,2.62l-.0007-.003c.0035-.0158.02-.0946-.0033-.1126-.0254-.02-.0127.0917-.0127.0917l-.0079-.01-.0065-.0087-.0007-.0029c.0021-.0131.0139-.0922-.0085-.108-.0188-.0132-.0141.045-.0109.0729a.004.004,0,0,1-.0071.003l-.008-.01L1.23,2.5292C1.2319,2.5133,1.24,2.442,1.213,2.4235Zm-.06-.0173.0015-.001.006.0031a.3233.3233,0,0,0,.0055.04L1.16,2.4513l-.0071-.0074L1.1514,2.441c0-.005.0007-.0172,0-.0311Zm-.0246.01.0012.0052-.0044-.0043Zm-.0134-.0352h.0032l.004.0034,0,.0033-.003.0044-.0037.001L1.1115,2.389l0-.0039Zm-.0212.0157.0021.002-.0021.0006-.0021-.0006Zm-.0284-.0124.004-.0034H1.073l.0041.0043,0,.0039-.0049.0038-.0037-.001-.003-.0044ZM1.06,2.416l.0032.0009-.0044.0043Zm-.0376.0319a.305.305,0,0,0,.0055-.04l.006-.0031.0015.001.0021.0037c-.0008.0139,0,.0261,0,.0311l-.0011.0029-.0071.0074Zm.0726-.0105H1.0938a.0171.0171,0,0,0-.0122.0015L1.08,2.44c-.0177.0038-.0381.01-.0416.0117l.0091-.0094.0112-.0113L1.0612,2.43l.0323-.0052H1.095l.0322.0052.0023.0011.0113.0113.009.0094c-.0035-.0012-.0239-.0079-.0416-.0117l-.0014-.0009A.0171.0171,0,0,0,1.0946,2.4374Z" fill="#fdce12"/></svg>