<svg xmlns="http://www.w3.org/2000/svg" viewBox="0 0 7.9818 5.1882"><polygon points="0 0.304 0 4.884 3.523 2.594 0 0.304" fill="#c81428"/><polygon points="0.7 4.733 7.279 2.594 0.7 0.455 3.991 2.594 0.7 4.733" fill="#ffd214"/><polygon points="7.982 5.188 7.982 2.594 0 5.188 7.982 5.188" fill="#06a046"/><polygon points="0 0 7.982 2.594 7.982 0 0 0" fill="#06a046"/><polygon points="0.67 4.743 0.7 4.733 3.991 2.594 0.7 0.455 0.67 0.445 0.7 0.455 0 0 0 0.304 3.523 2.594 0 4.884 0 5.188 0.7 4.733 0.67 4.743"/><polygon points="0.7 0.455 7.279 2.594 0.7 4.733 0 5.188 7.982 2.594 0 0 0.7 0.455" fill="#fff"/></svg>