<svg xmlns="http://www.w3.org/2000/svg" viewBox="0 0 7.9818 5.1882"><rect width="7.9818" height="5.1882" fill="#c03"/><rect x="1.3683" y="1.3156" width="5.2452" height="2.557" fill="#0d823c"/><path d="M4.5354,1.7718a1.0529,1.0529,0,0,0-.6707.1.8879.8879,0,0,0-.448.6145.8181.8181,0,0,0,.1943.6306.9221.9221,0,0,0,.3363.24,1.0521,1.0521,0,0,0,.5912.0595.9877.9877,0,0,1-.3989-.15A.8455.8455,0,0,1,3.8,2.83a.7549.7549,0,0,1-.0131-.4339.8928.8928,0,0,1,.4545-.5311A.996.996,0,0,1,4.5354,1.7718Z" fill="#fdfdff"/></svg>