<svg xmlns="http://www.w3.org/2000/svg" viewBox="0 0 7.9819 5.1882"><rect width="7.9819" height="5.1882" fill="#062983"/><polygon points="0 1.729 0 2.521 1.214 1.729 0 1.729" fill="#062983"/><polygon points="0 0.29 0 0.865 0.888 0.865 0 0.29" fill="#062983"/><polygon points="1.663 0 0.449 0 1.663 0.791 1.663 0" fill="#062983"/><polygon points="3.542 0 2.328 0 2.328 0.791 3.542 0" fill="#062983"/><polygon points="6.007 1.247 6.159 1.137 6.31 1.247 6.252 1.069 6.404 0.959 6.217 0.959 6.159 0.781 6.101 0.959 5.914 0.959 6.065 1.069 6.007 1.247" fill="#cf142b"/><path d="M5.9086,1.383l.25-.1818.25.1818-.0956-.2942.25-.1817H6.2544L6.1588.6129,6.0632.9071H5.7539l.25.1817Zm.005-.4241h.1873L6.1588.7808l.0579.1781H6.404l-.1516.11.0579.1782-.1515-.11-.1515.11.0578-.1782Z" fill="#fff"/><polygon points="6.223 4.063 6.159 3.864 6.094 4.063 5.885 4.063 6.054 4.186 5.99 4.385 6.159 4.262 6.328 4.385 6.263 4.186 6.432 4.063 6.223 4.063" fill="#cf142b"/><path d="M6.2611,4.0114l-.1023-.3148-.1023.3148H5.7254l.2679.1946-.1023.3149.2678-.1946.2678.1946L6.3243,4.206l.2679-.1946Zm.0669.3736-.1692-.1229L5.99,4.385l.0647-.1988-.1692-.1229h.2091l.0646-.1989.0646.1989h.2091l-.1692.1229Z" fill="#fff"/><polygon points="5.015 2.167 4.957 1.991 4.9 2.167 4.716 2.167 4.865 2.275 4.808 2.451 4.957 2.342 5.107 2.451 5.05 2.275 5.199 2.167 5.015 2.167" fill="#cf142b"/><path d="M5.0522,2.115l-.0947-.2915-.0947.2915H4.5563l.248.18L4.71,2.5866l.2479-.18.248.18-.0947-.2915.2479-.18Zm.0546.3358-.1493-.1085-.1492.1085.057-.1755L4.716,2.1669h.1845l.057-.1755.0571.1755h.1845L5.05,2.2753Z" fill="#fff"/><polygon points="7.236 1.87 7.188 1.723 7.141 1.87 6.986 1.87 7.111 1.961 7.063 2.108 7.188 2.017 7.314 2.108 7.266 1.961 7.391 1.87 7.236 1.87" fill="#cf142b"/><path d="M7.274,1.8181l-.0856-.2633-.0855.2633H6.8261l.2239.1627-.0855.2633.2239-.1628.224.1628-.0855-.2633.2239-.1627Zm.04.29-.1253-.091-.1252.091L7.111,1.961,6.9857,1.87h.1549l.0478-.1472.0479.1472h.1549l-.1253.0911Z" fill="#fff"/><polygon points="2.328 1.556 2.195 1.556 2.195 2.594 2.328 2.594 2.328 2.019 3.216 2.594 3.362 2.594 2.328 1.92 2.328 1.729 3.662 2.594 3.991 2.594 3.991 2.521 2.777 1.729 3.991 1.729 3.991 1.556 2.351 1.556 2.328 1.556" fill="#fff"/><polygon points="1.663 1.729 1.663 1.92 0.629 2.594 0.775 2.594 1.663 2.019 1.663 2.594 1.796 2.594 1.796 1.556 0 1.556 0 1.729 1.214 1.729 0 2.521 0 2.594 0.329 2.594 1.663 1.729" fill="#fff"/><polygon points="2.195 1.038 2.328 1.038 2.351 1.038 3.991 1.038 3.991 0.865 3.103 0.865 3.991 0.29 3.991 0.19 2.957 0.865 2.657 0.865 3.991 0 3.542 0 2.328 0.791 2.328 0 2.195 0 2.195 0.865 2.195 1.038" fill="#fff"/><polygon points="1.796 1.038 1.796 0.865 1.796 0 1.663 0 1.663 0.791 0.449 0 0 0 1.334 0.865 1.034 0.865 0 0.19 0 0.29 0.888 0.865 0 0.865 0 1.038 1.663 1.038 1.796 1.038" fill="#fff"/><polygon points="2.328 1.92 3.362 2.594 3.662 2.594 2.328 1.729 2.328 1.92" fill="#cf142b"/><polygon points="1.334 0.865 0 0 0 0.19 1.034 0.865 1.334 0.865" fill="#cf142b"/><polygon points="1.663 1.729 0.329 2.594 0.629 2.594 1.663 1.92 1.663 1.729" fill="#cf142b"/><polygon points="2.957 0.865 3.991 0.19 3.991 0 2.657 0.865 2.957 0.865" fill="#cf142b"/><polygon points="1.796 2.594 2.195 2.594 2.195 1.556 2.328 1.556 2.351 1.556 3.991 1.556 3.991 1.038 2.351 1.038 2.328 1.038 2.195 1.038 2.195 0.865 2.195 0 1.796 0 1.796 0.865 1.796 1.038 1.663 1.038 0 1.038 0 1.556 1.796 1.556 1.796 2.594" fill="#cf142b"/></svg>