<svg xmlns="http://www.w3.org/2000/svg" viewBox="0 0 4.2571 5.1882"><path d="M3.7421,2.5162.1476.2668V5.04H3.73L1.2017,2.5162ZM.4529,1.8677a.88.88,0,0,0,.2016.1836l.0589-.0455-.1168-.09L.74,1.88.6625,1.75l.15.0214-.02-.1451.1264.0746.0372-.1445.09.117.09-.117.0374.1442.1262-.0783L1.2805,1.77l.1482-.0241-.0758.1317.1417.04-.1158.0838c.0206.0153.0383.0321.0589.0474a.7985.7985,0,0,0,.1686-.1372.7833.7833,0,0,0,.15-.2354.71.71,0,1,1-1.4208-.002A.8772.8772,0,0,0,.4529,1.8677Zm.9694,1.2516-.042.317.317-.042-.1947.2536.2953.1223-.2953.1223.1947.2536L1.38,4.104l.042.317-.2536-.1946-.1223.2953L.9241,4.2264.6705,4.421l.042-.317-.317.0421L.59,3.8925.2949,3.77.59,3.6479.3955,3.3943l.317.042-.042-.317.2468.19.1291-.3047.1291.3047Z" fill="#dc143c"/><polygon points="1.046 3.019 1.169 3.314 1.175 3.309 1.046 3.004 0.917 3.309 0.924 3.314 1.046 3.019" fill="#dc143c"/><polygon points="1.169 3.314 1.046 3.019 0.924 3.314 0.917 3.309 0.67 3.119 0.712 3.436 0.395 3.394 0.59 3.648 0.295 3.77 0.59 3.892 0.395 4.146 0.712 4.104 0.67 4.421 0.924 4.226 1.046 4.522 1.169 4.226 1.422 4.421 1.38 4.104 1.697 4.146 1.503 3.892 1.798 3.77 1.503 3.648 1.697 3.394 1.38 3.436 1.422 3.119 1.175 3.309 1.169 3.314" fill="#fff"/><path d="M1.0416,2.3905a.7148.7148,0,0,0,.7144-.7143.7833.7833,0,0,1-.15.2354.7985.7985,0,0,1-.1686.1372c-.0206-.0153-.0383-.0321-.0589-.0474l.1158-.0838-.1417-.04.0758-.1317L1.2805,1.77l.0185-.1478-.1262.0783-.0374-.1442-.09.117-.09-.117-.0372.1445L.7922,1.6263l.02.1451L.6625,1.75.74,1.88l-.1437.0359.1168.09-.0589.0455a.8769.8769,0,0,1-.3193-.3771A.7146.7146,0,0,0,1.0416,2.3905Z" fill="#fff"/><path d="M4.2571,2.6641,0,0V5.1882H4.0875L1.559,2.6641ZM3.73,5.04H.1476V.2668L3.7421,2.5162h-2.54Z" fill="#053c96"/></svg>