<svg xmlns="http://www.w3.org/2000/svg" viewBox="0 0 7.9819 5.1882"><polygon points="0 0 0 4.15 6.386 0 0 0" fill="#073c85"/><polygon points="7.982 5.188 7.982 1.038 1.596 5.188 7.982 5.188" fill="#07964b"/><polygon points="1.596 5.188 7.982 1.038 7.982 0.778 1.197 5.188 1.596 5.188" fill="#fff"/><polygon points="6.386 0 0 4.15 0 4.41 6.785 0 6.386 0" fill="#fff"/><polygon points="7.982 0.778 7.982 0 6.785 0 0 4.41 0 5.188 1.197 5.188 7.982 0.778" fill="#ce1536"/><path d="M1.7879.9123,1.6563.5383,1.5238.9126a.5229.5229,0,0,1,.2641,0Z" fill="#f9c608"/><path d="M1.2178.6557l.0725.3906A.5177.5177,0,0,1,1.5189.914Z" fill="#f9c608"/><path d="M.8968.9767l.258.302a.5182.5182,0,0,1,.132-.2289Z" fill="#f9c608"/><path d="M1.1534,1.2836l-.3741.1316.3743.1325a.5214.5214,0,0,1,0-.2641Z" fill="#f9c608"/><path d="M.8968,1.8537l.3905-.0725a.5194.5194,0,0,1-.1323-.2287Z" fill="#f9c608"/><path d="M1.2178,2.1747l.3019-.258a.52.52,0,0,1-.2289-.132Z" fill="#f9c608"/><path d="M1.5246,1.9181l.1317.3741.1324-.3744a.5168.5168,0,0,1-.1324.0171A.5247.5247,0,0,1,1.5246,1.9181Z" fill="#f9c608"/><path d="M2.0947,2.1747l-.0724-.3906a.52.52,0,0,1-.2287.1324Z" fill="#f9c608"/><path d="M2.4157,1.8537l-.258-.3019a.5184.5184,0,0,1-.132.2288Z" fill="#f9c608"/><path d="M2.1591,1.5468l.3741-.1316-.3743-.1324a.521.521,0,0,1,0,.264Z" fill="#f9c608"/><path d="M2.4157.9767l-.3905.0725a.52.52,0,0,1,.1323.2287Z" fill="#f9c608"/><path d="M2.0947.6557l-.3019.258a.5206.5206,0,0,1,.2289.132Z" fill="#f9c608"/><path d="M1.6563.98a.4352.4352,0,1,0,.4352.4352A.4352.4352,0,0,0,1.6563.98Z" fill="#f9c608"/></svg>