<svg xmlns="http://www.w3.org/2000/svg" viewBox="0 0 7.9818 5.1882"><polygon points="2.596 1.729 2.596 3.459 7.982 3.459 7.982 1.729 2.596 1.729 2.596 1.729" fill="#fcfcfc"/><polygon points="0 5.188 0.002 5.188 0.002 5.187 0 5.188" fill="#c90d36"/><polygon points="0.002 5.188 7.982 5.188 7.982 3.494 7.982 3.459 2.596 3.459 0.002 5.188" fill="#c60924"/><polygon points="0.002 0 2.596 1.729 7.982 1.729 7.982 1.695 7.982 0 0.002 0" fill="#007a31"/><polygon points="0 0 0.002 0.002 0.002 0 0 0" fill="#0d7f30"/><polygon points="2.596 3.459 2.596 1.729 2.596 1.729 0.002 0 0.002 0 0.002 0 0.002 0.002 0.002 1.729 0.002 3.459 0.002 5.187 0.002 5.188 2.596 3.459" fill="#0c0007"/></svg>