<svg xmlns="http://www.w3.org/2000/svg" viewBox="0 0 7.9819 5.1882"><rect width="7.9819" height="5.1882" fill="#dc2328"/><path d="M5.4376,3.1965a.0826.0826,0,0,0-.0519-.0221.0818.0818,0,0,0-.1392.0078l-.205.0043.1159-.0856c.054.0133.08.0038.0929-.0083.0082-.0075.0085-.0129.029-.0367.0261-.03.0361-.0333.04-.0343a.0567.0567,0,0,1,.0445.0093.0566.0566,0,0,0-.0156-.026.0543.0543,0,0,0-.0562-.0121c-.0107.0052-.0127.0135-.0258.0161a.045.045,0,0,1-.0191-.0011c-.0181-.0039-.0217-.011-.0329-.0141a.0561.0561,0,0,0-.0532.02.0622.0622,0,0,0-.0143.0432l-.1617.1108-.3234-.09a.1533.1533,0,0,1,.0407-.0493c.0139-.0108.0289-.0183.032-.0342a.0345.0345,0,0,0-.0032-.0211c-.0118-.0222-.05-.0236-.06-.0243a.4745.4745,0,0,1-.24-.141A.3347.3347,0,0,1,4.3472,2.64c-.0018-.0157-.0057-.0508.0125-.0622a.0311.0311,0,0,1,.0307,0,.04.04,0,0,1,.0156.0268.3825.3825,0,0,0,.0578.1124.1809.1809,0,0,0,.1086.09c.01.0015.0318.005.0429-.0082a.0353.0353,0,0,0,.0025-.0363.0393.0393,0,0,0-.0164-.0164.2211.2211,0,0,1-.0916-.147c-.0006-.0071-.0039-.0526.02-.0649a.0545.0545,0,0,1,.0535.0138.1206.1206,0,0,1,.0322.08.3313.3313,0,0,0,.1323.2037c.02.0143.0626.0443.1.03a.0619.0619,0,0,0,.0363-.0389A.0517.0517,0,0,0,4.8793,2.79c-.02-.0433-.0722-.0331-.1214-.0751a.2052.2052,0,0,1-.0605-.1237c-.0117-.0553.0037-.0728.0078-.077l.01-.007c.0362-.0166.1373.1384.2784.2777.1222.1205.1767.1329.2136.1336A.1864.1864,0,0,0,5.34,2.8657c.0167-.0186.0423-.0574.0289-.08-.007-.0121-.0222-.0155-.04-.0195a.2812.2812,0,0,0-.0821.0005.2482.2482,0,0,1-.0813-.0147.4192.4192,0,0,1-.1574-.0995c-.0086-.0077-.1469-.1327-.1513-.2265,0-.0088-.0017-.0356.0091-.04.0091-.0036.0225.0106.0272.0156a1.3757,1.3757,0,0,0,.227.1971.2171.2171,0,0,0,.2427-.0031.0792.0792,0,0,0,.0167-.0773.0528.0528,0,0,0-.0341-.0268c-.0176-.0041-.027.005-.0619.0125a.3983.3983,0,0,1-.04.0057.2385.2385,0,0,1-.1219-.029.6118.6118,0,0,1-.1781-.1276.1773.1773,0,0,1-.0709-.11c-.001-.01-.0032-.0343.01-.0432.0225-.0158.0733.0286.128.0653.0328.022.2264.1517.3193.095a.0958.0958,0,0,0,.0464-.095.07.07,0,0,0-.0493-.048.0586.0586,0,0,0-.0311.0026.3438.3438,0,0,1-.1569-.0052.8.8,0,0,1-.176-.1113c-.02-.0142-.0678-.0487-.0675-.0824,0-.0041,0-.019.009-.024a.0247.0247,0,0,1,.0213.0024c.09.043.2817.1349.3857.0934a.1041.1041,0,0,0,.0609-.0584A.0663.0663,0,0,0,5.36,1.9682a.07.07,0,0,0-.0584-.0117.1616.1616,0,0,0-.0636.03A.1892.1892,0,0,1,5.1,1.9869a.8766.8766,0,0,1-.1618-.0914c-.033-.02-.0605-.0359-.0609-.06a.0384.0384,0,0,1,.0206-.035.04.04,0,0,1,.0321.0047,1.1527,1.1527,0,0,0,.2041.0731.2215.2215,0,0,0,.185-.0428c.0513-.0449.0784-.1249.0546-.1523a.0547.0547,0,0,0-.0529-.0125.0493.0493,0,0,0-.0228.0165.2913.2913,0,0,1-.1561.0691.2953.2953,0,0,1-.2041-.0592C4.9171,1.6841,4.88,1.66,4.884,1.6352A.034.034,0,0,1,4.907,1.61a.0344.0344,0,0,1,.0249.005.3919.3919,0,0,0,.15.0189.3793.3793,0,0,0,.1208-.0094.25.25,0,0,0,.1654-.1307c.0028-.0077.0239-.0646-.0017-.09a.0492.0492,0,0,0-.0347-.0122c-.06-.002-.0766.0594-.1547.0978a.7.7,0,0,1-.1565.0285c-.0462.0062-.0712.0076-.094-.0076-.02-.0137-.0409-.0419-.0331-.0633a.0465.0465,0,0,1,.0277-.0233.1381.1381,0,0,1,.076-.0078c.0471.0051.0908-.0174.1782-.0623A.4675.4675,0,0,0,5.275,1.292c.0663-.0563.1379-.1587.109-.2257a.081.081,0,0,0-.0512-.048.0587.0587,0,0,0-.037.0056.0765.0765,0,0,0-.0333.0437c-.0291.0806-.3163.2866-.3814.23-.0091-.008-.0053-.0137-.0155-.0221-.017-.0139-.0526-.0182-.2184.0727-.1291.0707-.1413.0919-.1474.1076-.0192.05.0124.0714-.0091.1414a.15.15,0,0,1-.0812.1046.1111.1111,0,0,1-.082-.0038.16.16,0,0,1-.065-.154.2578.2578,0,0,1,.1024-.17.5029.5029,0,0,1,.2756-.1232.1853.1853,0,0,0,.1243-.04.1284.1284,0,0,0,.0223-.0273.3431.3431,0,0,1-.0707.0221.1066.1066,0,0,1-.0713,0,.0748.0748,0,0,1-.0324-.0337H4.77a.1969.1969,0,0,0,.0822-.02c.01-.0052.0689-.0329.0709-.0735,0-.0024.001-.0218-.01-.0288a.0285.0285,0,0,0-.0244.0009.0911.0911,0,0,0-.0437.0474c-.0133.0263-.0607.0513-.2092.0466A.1044.1044,0,0,1,4.74,1.08a.0859.0859,0,0,1,.0487.0292.0648.0648,0,0,0-.0033-.0419c-.0165-.0359-.0741-.0543-.1414-.0385A.14.14,0,0,0,4.5935.9839a.1681.1681,0,0,0-.1086-.008c-.096.0153-.1053.0424-.1913.0584-.07.013-.12.0053-.1224.019-.0036.02.0968.0466.0926.0718-.0016.01-.0169.0112-.04.0214-.0559.0243-.1022.0724-.0953.0882.0079.0179.0863-.0038.0884.0045.0032.0121-.1615.062-.1569.0839.0023.011.0458.0058.0509.0231.0037.0123-.0146.0271-.0349.0452a1.0668,1.0668,0,0,0-.0848.0847,1.0688,1.0688,0,0,0-.0847-.0847c-.02-.0181-.0386-.0329-.035-.0452.0052-.0173.0487-.0121.051-.0231.0046-.0219-.16-.0718-.1569-.0839.0021-.0083.0805.0134.0884-.0045.0068-.0158-.0394-.0639-.0954-.0882-.0233-.01-.0386-.0119-.04-.0214-.0042-.0252.0962-.0521.0926-.0718-.0026-.0137-.0521-.006-.1224-.019C3.6022,1.0183,3.593.9912,3.497.9759a.1685.1685,0,0,0-.1087.008.14.14,0,0,0-.0509.0452c-.0673-.0158-.1248.0026-.1414.0385a.0656.0656,0,0,0-.0032.0419A.0859.0859,0,0,1,3.2415,1.08a.1044.1044,0,0,1,.105.0642c-.1485.0047-.1959-.02-.2092-.0466a.0916.0916,0,0,0-.0437-.0474A.0285.0285,0,0,0,3.0692,1.05c-.0115.007-.01.0264-.01.0288.0019.0406.06.0683.0709.0735a.1963.1963,0,0,0,.0821.02h.1574a.0753.0753,0,0,1-.0324.0337.1066.1066,0,0,1-.0713,0,.3431.3431,0,0,1-.0707-.0221.1306.1306,0,0,0,.0222.0273.1856.1856,0,0,0,.1243.04.503.503,0,0,1,.2757.1232.2582.2582,0,0,1,.1024.17.16.16,0,0,1-.065.154.1111.1111,0,0,1-.082.0038.1508.1508,0,0,1-.0813-.1046c-.0214-.07.01-.0918-.009-.1414-.0061-.0157-.0183-.0369-.1475-.1076-.1658-.0909-.2013-.0866-.2183-.0727-.01.0084-.0064.0141-.0156.0221-.0651.0566-.3523-.1494-.3813-.23a.0765.0765,0,0,0-.0333-.0437.0591.0591,0,0,0-.037-.0056.081.081,0,0,0-.0512.048c-.0289.067.0427.1694.109.2257a.465.465,0,0,0,.0994.0613c.0874.0449.1311.0674.1781.0623a.1384.1384,0,0,1,.0761.0078.0468.0468,0,0,1,.0277.0233c.0078.0214-.0127.05-.0331.0633-.0228.0152-.0478.0138-.094.0076a.7.7,0,0,1-.1565-.0285c-.0782-.0384-.0946-.1-.1547-.0978a.0492.0492,0,0,0-.0347.0122c-.0256.0253-.0046.0822-.0017.09a.25.25,0,0,0,.1654.1307A.3793.3793,0,0,0,2.9,1.6335a.3919.3919,0,0,0,.15-.0189.03.03,0,0,1,.0479.0206c.004.0244-.0332.0489-.0538.0623a.2956.2956,0,0,1-.2041.0592.2913.2913,0,0,1-.1561-.0691.0492.0492,0,0,0-.0229-.0165.0546.0546,0,0,0-.0528.0125c-.0239.0274.0033.1074.0546.1523a.2215.2215,0,0,0,.185.0428,1.1527,1.1527,0,0,0,.2041-.0731.04.04,0,0,1,.0321-.0047.0386.0386,0,0,1,.0206.035c-.0005.0237-.028.04-.0609.06a.8813.8813,0,0,1-.1618.0914.19.19,0,0,1-.1379-.0006.16.16,0,0,0-.0635-.03.07.07,0,0,0-.0584.0117.0666.0666,0,0,0-.0117.0661.1042.1042,0,0,0,.061.0584c.1039.0415.2957-.05.3857-.0934a.0247.0247,0,0,1,.0213-.0024c.0087.005.0089.02.0089.024,0,.0337-.0474.0682-.0674.0824a.8.8,0,0,1-.176.1113A.3438.3438,0,0,1,2.687,2.22a.059.059,0,0,0-.0312-.0026.07.07,0,0,0-.0492.048.0958.0958,0,0,0,.0464.095c.0929.0567.2865-.073.3193-.095.0547-.0367.1054-.0811.128-.0653.0127.0089.01.0328.01.0432a.1773.1773,0,0,1-.0709.11.6132.6132,0,0,1-.1781.1276.2387.2387,0,0,1-.1219.029.4044.4044,0,0,1-.04-.0057c-.0348-.0075-.0442-.0166-.0618-.0125a.0528.0528,0,0,0-.0341.0268.0792.0792,0,0,0,.0167.0773.2171.2171,0,0,0,.2427.0031,1.3757,1.3757,0,0,0,.227-.1971c.0047-.005.0181-.0192.0272-.0156.0107.0042.01.031.0091.04-.0044.0938-.1427.2188-.1513.2265a.4192.4192,0,0,1-.1574.0995.2487.2487,0,0,1-.0813.0147.2818.2818,0,0,0-.0822-.0005c-.0179.004-.0331.0074-.04.0195-.0133.023.0123.0618.029.08a.1864.1864,0,0,0,.1332.0532c.0369-.0007.0914-.0131.2136-.1336.1411-.1393.2421-.2943.2784-.2777l.01.007c.0041.0042.0195.0217.0078.077a.2054.2054,0,0,1-.0606.1237c-.0492.042-.1017.0318-.1213.0751a.0523.0523,0,0,0-.0045.0325.0622.0622,0,0,0,.0364.0389c.0372.0145.08-.0155.1-.03a.3317.3317,0,0,0,.1323-.2037.1206.1206,0,0,1,.0322-.08.0544.0544,0,0,1,.0534-.0138c.0238.0123.02.0578.02.0649a.2211.2211,0,0,1-.0916.147.04.04,0,0,0-.0165.0164.0356.0356,0,0,0,.0026.0363c.0111.0132.0333.01.0428.0082a.1809.1809,0,0,0,.1087-.09.3851.3851,0,0,0,.0578-.1124.04.04,0,0,1,.0155-.0268.0311.0311,0,0,1,.0307,0c.0183.0114.0143.0465.0126.0622a.3347.3347,0,0,1-.0846.1677.4749.4749,0,0,1-.24.141c-.01.0007-.0481.0021-.06.0243a.0345.0345,0,0,0-.0032.0211c.003.0159.0181.0234.032.0342a.152.152,0,0,1,.0406.0493l-.3233.09-.1618-.1108a.0614.0614,0,0,0-.0142-.0432.0562.0562,0,0,0-.0532-.02c-.0112.0031-.0148.01-.033.0141a.0449.0449,0,0,1-.0191.0011C2.7023,3.0063,2.7,2.998,2.69,2.9928a.0543.0543,0,0,0-.0562.0121.0557.0557,0,0,0-.0156.026.0566.0566,0,0,1,.0445-.0093c.0041.001.0142.0043.04.0343.0206.0238.0208.0292.0291.0367.0133.0121.0388.0216.0929.0083l.1158.0856-.2049-.0043a.0818.0818,0,0,0-.1392-.0078.0825.0825,0,0,0-.0519.0221.0816.0816,0,0,0-.0246.0479.0752.0752,0,0,1,.0523-.0311c.0286,0,.0409.0256.0717.0333a.109.109,0,0,0,.0908-.0272l.2076-.0009-.1332.0778a.09.09,0,0,0-.0684-.0125.096.096,0,0,0-.0665.0938.0943.0943,0,0,0-.0156.0969.07.07,0,0,1,.0156-.0459L2.69,3.4131A.1014.1014,0,0,1,2.71,3.3966c.0116-.0057.0216,0,.0354.0025a.082.082,0,0,0,.077-.03.0618.0618,0,0,0,.0086-.04L2.99,3.2375l.1634.0657c0,.0266.0078.037.0147.0415s.0114.0019.0294.0078c.0164.0054.0182.01.0277.01a.0453.0453,0,0,0,.03-.0095.0371.0371,0,0,1,.0207,0,.0635.0635,0,0,1,.0346.0649.0729.0729,0,0,0,.0139-.0459.0787.0787,0,0,0-.0372-.0588A.065.065,0,0,0,3.2732,3.27a.0669.0669,0,0,0-.051-.0234.0708.0708,0,0,0-.0458.0173l-.1436-.0536.3427-.082c.0321.0277.0559.0507.0724.0673a.0566.0566,0,0,0,.0329.0212c.0223.0024.0418-.018.0531-.0311a1.4073,1.4073,0,0,0,.1172-.214c.0128-.0213.0879-.1421.1505-.128a.0769.0769,0,0,1,.0452.0423c.039.0725-.0158.1689-.0392.21a.4839.4839,0,0,1-.1271.14c-.0612.0508-.1014.0842-.15.0778a.1848.1848,0,0,0-.0683-.0069c-.0072.0011-.0537.0081-.06.0328-.0063.0262.0368.055.0441.06a.1469.1469,0,0,0,.1419.013c.0331-.0186.05-.0533.0951-.0761a.03.03,0,0,1,.0493.025c.0011.0084.0012.0291-.0632.0882a.2668.2668,0,0,1-.08.0614c-.0362.0111-.058-.0013-.1029.0182-.0154.0067-.03.0132-.032.0251-.0039.0206.0306.0462.06.0565a.1477.1477,0,0,0,.1006-.0055c.0964-.0357.1381-.13.1652-.1167a.0272.0272,0,0,1,.0112.0155.0708.0708,0,0,1-.0112.0571c-.0315.0618-.0472.0928-.0666.1055a.1651.1651,0,0,1-.0623.0242c-.0218.0028-.04-.0005-.0575.0129a.0351.0351,0,0,0-.0151.02c-.0045.023.0282.0482.0519.0588a.1081.1081,0,0,0,.0761.0051c.05-.0166.082-.0748.1124-.13.0161-.029.0266-.0537.0432-.0536.0138,0,.0258.0172.0312.0294.03.0673-.0531.1794-.08.2024a.05.05,0,0,0-.013.0155.072.072,0,0,0-.0035.0467,1.1876,1.1876,0,0,0,.192.2387v-.001l.0008.001.0009-.001v.001a1.1876,1.1876,0,0,0,.192-.2387A.072.072,0,0,0,4.18,3.8523a.0514.0514,0,0,0-.013-.0155c-.0273-.023-.11-.1351-.08-.2024.0054-.0122.0173-.0293.0311-.0294.0167,0,.0272.0246.0433.0536.03.0549.0626.1131.1124.13A.1082.1082,0,0,0,4.35,3.7832c.0237-.0106.0564-.0358.0519-.0588a.0351.0351,0,0,0-.0151-.02c-.0174-.0134-.0358-.01-.0576-.0129a.1649.1649,0,0,1-.0622-.0242c-.0194-.0127-.0351-.0437-.0666-.1055a.0708.0708,0,0,1-.0112-.0571A.0272.0272,0,0,1,4.2,3.4892c.0271-.0131.0688.081.1652.1167a.1478.1478,0,0,0,.1006.0055c.0295-.01.064-.0359.06-.0565C4.524,3.543,4.51,3.5365,4.4942,3.53c-.0449-.0195-.0667-.0071-.1029-.0182a.2668.2668,0,0,1-.08-.0614c-.0643-.0591-.0642-.08-.0631-.0882a.03.03,0,0,1,.0493-.025c.0453.0228.062.0575.0951.0761A.1467.1467,0,0,0,4.5348,3.4c.0073-.0047.0505-.0335.0441-.06-.006-.0247-.0525-.0317-.06-.0328a.1848.1848,0,0,0-.0683.0069c-.0483.0064-.0884-.027-.15-.0778a.4825.4825,0,0,1-.1271-.14c-.0235-.0413-.0782-.1377-.0392-.21A.0766.0766,0,0,1,4.18,2.8441c.0625-.0141.1377.1067.1505.128a1.4067,1.4067,0,0,0,.1171.214c.0114.0131.0309.0335.0532.0311A.0566.0566,0,0,0,4.534,3.196c.0164-.0166.04-.04.0723-.0673l.3427.082-.1435.0536A.0708.0708,0,0,0,4.76,3.247a.0672.0672,0,0,0-.0511.0234.0653.0653,0,0,0-.0138.0432.0785.0785,0,0,0-.0372.0588.0729.0729,0,0,0,.0139.0459.0636.0636,0,0,1,.0345-.0649.0374.0374,0,0,1,.0208,0,.0453.0453,0,0,0,.03.0095c.01-.0009.0113-.005.0276-.01.0181-.0059.0223-.0031.0294-.0078s.0145-.0149.0147-.0415l.1635-.0657.1591.0917a.0612.0612,0,0,0,.0086.04.0817.0817,0,0,0,.0769.03c.0139-.0022.0239-.0082.0355-.0025a.1036.1036,0,0,1,.019.0165l.0165.0155a.0694.0694,0,0,1,.0155.0459A.0937.0937,0,0,0,5.33,3.4252a.0949.0949,0,0,0-.0216-.0476.0963.0963,0,0,0-.0665-.0938.09.09,0,0,0-.0684.0125L5.04,3.2185l.2075.0009a.1092.1092,0,0,0,.0909.0272c.0308-.0077.0431-.0338.0717-.0333a.0752.0752,0,0,1,.0523.0311A.0816.0816,0,0,0,5.4376,3.1965ZM4.4467,1.0759c.0086-.0078.0173-.0069.0548-.007.0328,0,.042-.0009.051.0068a.0278.0278,0,0,1,.01.0174c.0014.0147-.0134.0275-.0247.0329a.1117.1117,0,0,1-.0448.0033.0809.0809,0,0,1-.0314-.0036c-.0019-.0008-.0249-.0114-.0249-.03A.0291.0291,0,0,1,4.4467,1.0759Zm-.9264.05a.082.082,0,0,1-.0314.0036.1114.1114,0,0,1-.0448-.0033c-.0113-.0054-.0261-.0182-.0247-.0329a.0278.0278,0,0,1,.01-.0174c.009-.0077.0182-.007.0509-.0068.0376,0,.0462-.0008.0549.007a.0291.0291,0,0,1,.01.02C3.5452,1.1143,3.5222,1.1249,3.52,1.1257Z" fill="#050505"/><path d="M4.4616,1.1257a.0809.0809,0,0,0,.0314.0036.1117.1117,0,0,0,.0448-.0033c.0113-.0054.0261-.0182.0247-.0329a.0278.0278,0,0,0-.01-.0174c-.009-.0077-.0182-.007-.051-.0068-.0375,0-.0462-.0008-.0548.007a.0291.0291,0,0,0-.01.02C4.4367,1.1143,4.46,1.1249,4.4616,1.1257Z" fill="#e41e20"/><path d="M3.5352,1.0759c-.0087-.0078-.0173-.0069-.0549-.007-.0327,0-.0419-.0009-.0509.0068a.0278.0278,0,0,0-.01.0174c-.0014.0147.0134.0275.0247.0329a.1114.1114,0,0,0,.0448.0033A.082.082,0,0,0,3.52,1.1257c.0019-.0008.0249-.0114.0249-.03A.0291.0291,0,0,0,3.5352,1.0759Z" fill="#e41e20"/></svg>