<svg xmlns="http://www.w3.org/2000/svg" viewBox="0 0 7.9819 5.1882"><rect y="2.8202" width="7.9819" height="2.368" fill="#0b964c"/><rect width="7.9819" height="2.3755" fill="#09299e"/><rect y="1.5528" width="7.9819" height="2.0827" fill="#fefffe"/><path d="M4.6145,3.047l-.4089-.5358a.6672.6672,0,0,0,.0021-.76.3271.3271,0,0,0-.1489-.0765.0875.0875,0,0,0-.1362.0007.3347.3347,0,0,0-.1552.08.669.669,0,0,0,.009.7654l-.3986.5265-.0869-.0108-.1356.3006a1.7839,1.7839,0,0,0,1.6821-.0087l-.146-.3028ZM4.0618,1.7727a.2159.2159,0,0,1,.0829.0419c.1228.1021.12.3517.0056.6246L4.08,2.3545V2.16H4.181l-.1192-.1192Zm-.2246.0419A.2166.2166,0,0,1,3.92,1.7727v.268L3.8009,2.16h.1013v.1946l-.0706.0847C3.7171,2.1663,3.7145,1.9167,3.8372,1.8146Zm-.5164,1.39.0266-.0593q.0072.0252.016.0519l.0138.039a.2649.2649,0,0,1-.0354.01.2623.2623,0,0,1-.0412.005Zm.0309.113a.2584.2584,0,0,1-.0389-.0228l.079-.0229.013.0643A.2577.2577,0,0,1,3.3517,3.318Zm.076-.1575.0438.0115c.0555.0156.0645.0219.0708.0289a.0722.0722,0,0,1,.0157.0535l-.0908.0241Zm.1433.2261a.6281.6281,0,0,1-.0692-.0207L3.49,3.32l.0908-.0288.0482.1066C3.6108,3.3949,3.5915,3.3914,3.571,3.3866ZM3.6343,3.22a.2928.2928,0,0,1,.06.011.1184.1184,0,0,1,.066.035.0826.0826,0,0,1,.0136.0253l-.0973.0371Zm.1394.2048c-.0207-.0028-.0407-.0059-.06-.0093l-.0157-.0445.101-.0426.0611.1047C3.8329,3.4309,3.804,3.4282,3.7737,3.4243Zm.069-.17c.0338.0022.07.0033.1081.0028.0242,0,.0475-.0013.07-.0028l.0195.0447-.1409.0447Zm.1992.18c-.032,0-.0626-.0008-.0917-.0023L3.927,3.3881l.1334-.06.0649.1047Q4.0854,3.4347,4.0419,3.4349Zm.0676-.18a.5644.5644,0,0,0,.0871-.01c.0141-.0027.0273-.0059.04-.0092l.03.0481-.11.0519Zm.1785.16a.3652.3652,0,0,1-.0764.0081l-.0307-.0464.1074-.06.07.0759A.3626.3626,0,0,1,4.288,3.4144Zm.0414-.1835q.03-.0076.0624-.0179c.0209-.0066.0407-.0135.0594-.0205l.0289.0344-.0945.0725Zm.1631.1322q-.03.0075-.0578.0121l-.0213-.0368.0853-.0673.0583.073C4.5373,3.3508,4.5158,3.3573,4.4925,3.3631ZM4.52,3.1667a.44.44,0,0,0,.108-.0457l.0183.0411-.0649.088Zm.1457.1291a.22.22,0,0,1-.037.0108l-.0112-.0329.0495-.0669.0339.0711A.2043.2043,0,0,1,4.6654,3.2958Z" fill="#010001"/></svg>