<svg xmlns="http://www.w3.org/2000/svg" viewBox="0 0 7.9818 5.1882"><path d="M5.3935,2.1528a1.4786,1.4786,0,0,1,0,.8833L7.9818,4.7919V.3977Z" fill="#23b142"/><path d="M2.5885,3.0361a1.4786,1.4786,0,0,1,0-.8833L0,.3977V4.7919Z" fill="#23b142"/><path d="M2.943,1.5633a1.47,1.47,0,0,1,2.0958,0L7.307,0H.6748Z" fill="#d11a2a"/><path d="M5.0387,3.6251a1.47,1.47,0,0,1-2.0956,0L.6748,5.1879v0H7.3076Z" fill="#d11a2a"/><path d="M7.3076,0H7.307L5.0388,1.5633a1.47,1.47,0,0,0-2.0958,0L.6748,0H0V.3977L2.5883,2.1528a1.4786,1.4786,0,0,0,0,.8833L0,4.7919v.3963H.6742l.0006,0L2.9431,3.6251a1.47,1.47,0,0,0,2.0956,0L7.3076,5.1882h.6742V4.7919L5.3933,3.0361a1.4786,1.4786,0,0,0,0-.8833L7.9818.3977V0ZM4.2994,2.0145H4.0937l-.1028.1781-.1028-.1781H3.6824l.1029-.1781-.1029-.178h.2057L3.9909,1.48l.1028.1781h.2057l-.1029.178Zm-1.173.9666-.1028-.178h.2057l.1028-.1781.1028.1781h.2056l-.1028.178.1028.1781H3.4349l-.1028.1781-.1028-.1781H3.0236Zm1.6261.1781L4.65,3.3373l-.1028-.1781H4.3413l.1028-.1781-.1028-.178h.2056L4.65,2.625l.1028.1781h.2057l-.1028.178.1028.1781Z" fill="#fefeff"/><polygon points="4.163 1.836 4.249 1.687 4.077 1.687 3.991 1.538 3.905 1.687 3.732 1.687 3.818 1.836 3.732 1.986 3.905 1.986 3.991 2.135 4.077 1.986 4.249 1.986 4.163 1.836" fill="#d11a2a"/><path d="M4.2994,1.6584H4.0937L3.9909,1.48l-.1028.1781H3.6824l.1029.178-.1029.1781h.2057l.1028.1781.1028-.1781h.2057l-.1029-.1781Zm-.3085.4766-.0862-.1493H3.7324l.0861-.1493-.0861-.1492h.1723l.0862-.1493.0862.1493h.1723l-.0861.1492.0861.1493H4.0771Z" fill="#1eb53a"/><polygon points="4.65 3.28 4.736 3.13 4.908 3.13 4.822 2.981 4.908 2.832 4.736 2.832 4.65 2.683 4.563 2.832 4.391 2.832 4.477 2.981 4.391 3.13 4.563 3.13 4.65 3.28" fill="#d11a2a"/><path d="M4.8554,2.9811l.1028-.178H4.7525L4.65,2.625l-.1028.1781H4.3413l.1028.178-.1028.1781h.2056l.1028.1781.1028-.1781h.2057Zm-.378,0-.0862-.1492h.1723L4.65,2.6826l.0862.1493h.1723l-.0861.1492.0861.1493H4.7359L4.65,3.28,4.5635,3.13H4.3912Z" fill="#1eb53a"/><polygon points="3.074 3.13 3.246 3.13 3.332 3.28 3.418 3.13 3.591 3.13 3.504 2.981 3.591 2.832 3.418 2.832 3.332 2.683 3.246 2.832 3.074 2.832 3.16 2.981 3.074 3.13" fill="#d11a2a"/><path d="M3.2293,3.1592l.1028.1781.1028-.1781h.2056l-.1028-.1781.1028-.178H3.4349L3.3321,2.625l-.1028.1781H3.0236l.1028.178-.1028.1781Zm-.1557-.3273h.1723l.0862-.1493.0862.1493h.1723l-.0862.1492.0862.1493H3.4183L3.3321,3.28,3.2459,3.13H3.0736L3.16,2.9811Z" fill="#1eb53a"/></svg>