<svg xmlns="http://www.w3.org/2000/svg" viewBox="0 0 7.9819 5.1882"><rect width="7.9819" height="5.1882" fill="#e10020"/><path d="M4.0511,2.1928l.0027.0041A.0852.0852,0,0,1,4.0721,2.17l.0113-.01H4.0225A.2316.2316,0,0,1,4.0511,2.1928Z" fill="#fff"/><path d="M3.878,2.36l.0006.0013V2.43l.0024.0024.0056.0065a.4819.4819,0,0,1,.0268-.0777.3267.3267,0,0,1,.0242-.0443h-.09l.0135.0149A.1414.1414,0,0,1,3.878,2.36Z" fill="#fff"/><path d="M4.12,2.16H4.1115a.0734.0734,0,0,0-.0492.05.3659.3659,0,0,1,.0238.044L4.1016,2.24a.3684.3684,0,0,1,.0343-.0265l.01-.0066v.0593H4.173V2.1752l.0406-.0406V2.0933L4.21,2.089l-.004.0053-.0053.0074a.0885.0885,0,0,1-.0179.0172L4.1812,2.12H4.12Z" fill="#fff"/><path d="M3.9342,2.0611a.1678.1678,0,0,1,.0169-.0205h-.036l.0042.0032A.0689.0689,0,0,1,3.9342,2.0611Z" fill="#fff"/><path d="M4.2125,2.3963a.2051.2051,0,0,0-.0364.0255.2.2,0,0,0-.0458.0594v.0109h.0822Z" fill="#fff"/><path d="M3.89,2.2759l-.0066-.0068-.0212-.02L3.8392,2.23v.0743h.1067c.01-.015.0209-.0283.03-.0395l.0105-.0133.01.0133c.0089.0112.0194.0245.03.0395h.1068V2.23L4.11,2.249l-.0213.02-.0065.0068-.0037-.0087A.3741.3741,0,0,0,4.0409,2.2a.2966.2966,0,0,0-.048-.05l-.0067-.0058L3.98,2.15a.2966.2966,0,0,0-.048.05.3622.3622,0,0,0-.0374.0672Z" fill="#fff"/><path d="M3.9186,2.1969l.0027-.0041A.2316.2316,0,0,1,3.95,2.16h-.061L3.9,2.17A.0869.0869,0,0,1,3.9186,2.1969Z" fill="#fff"/><path d="M4.0858,2.4392l.0056-.0065L4.0938,2.43V2.361l0-.0013a.1418.1418,0,0,1,.0169-.0276l.0135-.0149h-.09a.3267.3267,0,0,1,.0242.0443A.4819.4819,0,0,1,4.0858,2.4392Z" fill="#fff"/><path d="M4.1457,2.3172H4.1439A.1289.1289,0,0,0,4.121,2.34a.1248.1248,0,0,0-.0147.0239v.0555l.0148-.01L4.13,2.4045v.0517a.21.21,0,0,1,.0822-.074V2.2066l.0008-.0014.0054-.0086a.0094.0094,0,0,0-.0028-.012l-.0061,0-.0056.0058v.0878H4.1457Z" fill="#fff"/><path d="M3.9208,2.0041l-.0061-.0057-.0194-.0172-.0186-.0155v.0624h.0874l.0181-.0148L3.986,2.01l.004.0029.0182.015h.0875V1.9657l-.0186.0155-.0194.0172-.0062.0057-.0037-.0075a.489.489,0,0,0-.0251-.0446.3849.3849,0,0,0-.0339-.0434l-.0026-.0031-.0027.0031A.382.382,0,0,0,3.95,1.952c-.0091.0144-.0176.0294-.0252.0446Z" fill="#fff"/><path d="M3.9137,2.1333l-.007-.01a.1163.1163,0,0,0-.0217-.0237.1148.1148,0,0,0-.02-.0132v.0619h.0988l.0079-.007.0107-.0095.0042-.0038.0042.0038.0107.0095.0078.007h.0988V2.086a.1177.1177,0,0,0-.02.0132.1163.1163,0,0,0-.0217.0237l-.0071.01-.004-.0119a.2073.2073,0,0,0-.0263-.0526.2013.2013,0,0,0-.0421-.0428.2015.2015,0,0,0-.0422.0428.2106.2106,0,0,0-.0263.0526Z" fill="#fff"/><path d="M4.0828,1.9074l-.0035.0017a.11.11,0,0,0-.044.04c.0071.0113.0138.023.02.0349l.0137-.012.0291-.0238.01-.0078v.05h.0449a.0433.0433,0,0,1-.0064-.03.0463.0463,0,0,1,.0125-.0212.1291.1291,0,0,0,.0153-.021l.01-.02v-.04L4.179,1.8516a.0842.0842,0,0,1-.0074.0215.0783.0783,0,0,1-.0166.0218l-.0018.0017h-.07Z" fill="#fff"/><polygon points="5.268 2.414 5.268 2.411 5.268 2.319 5.25 2.319 5.25 2.502 5.268 2.502 5.268 2.414" fill="#fff"/><path d="M4.0531,2.0438l.0042-.0032h-.036l.0169.0205A.067.067,0,0,1,4.0531,2.0438Z" fill="#fff"/><polygon points="4.77 2.435 4.71 2.435 4.71 2.505 4.77 2.566 4.77 2.435" fill="#fff"/><rect x="5.1924" y="2.3422" width="0.0456" height="0.0347" fill="#fff"/><polygon points="5.25 2.96 5.263 2.96 5.263 2.692 5.317 2.614 5.317 2.38 5.281 2.417 5.281 2.591 5.25 2.622 5.25 2.96" fill="#fff"/><path d="M4.1082,2.0406H4.0961a.059.059,0,0,0-.0351.0128.0571.0571,0,0,0-.0151.02.2269.2269,0,0,1,.0166.0335L4.08,2.09a.1242.1242,0,0,1,.0322-.019L4.12,2.0671v.0405h.0389V2.0705l.0017-.0018a.3649.3649,0,0,0,.0272-.0335.3555.3555,0,0,0,.0239-.0375V1.96L4.21,1.9574l-.0082.018a.1044.1044,0,0,1-.02.025L4.18,2.0021H4.1082Z" fill="#fff"/><path d="M3.918,1.8566l-.0159-.0091V1.9a.1215.1215,0,0,1,.0243.0172.1259.1259,0,0,1,.0182.02.4433.4433,0,0,1,.03-.037l.0073-.0085.0048-.0057.0047.0057L3.9983,1.9a.4433.4433,0,0,1,.03.037.13.13,0,0,1,.0181-.02A.1221.1221,0,0,1,4.07,1.9V1.8475l-.0159.0091a.1165.1165,0,0,0-.0264.0251l-.01.0128-.0014-.0161A.0946.0946,0,0,0,4.01,1.8491a.0893.0893,0,0,0-.0235-.0309.0869.0869,0,0,0-.0235.0309.0976.0976,0,0,0-.0072.0293l-.0013.0161-.01-.0128A.116.116,0,0,0,3.918,1.8566Z" fill="#fff"/><polygon points="5.268 2.586 5.268 2.514 5.247 2.514 5.19 2.57 5.19 2.591 5.263 2.591 5.268 2.586" fill="#fff"/><path d="M2.98,2.0545a.0728.0728,0,0,1,.0169-.0167l.0033-.0022.0034.0022a.0728.0728,0,0,1,.0169.0167v0l.0121-.0123.0148-.0139V2.01l-.0049.0039L3.0372,2.02l-.0056.0075-.0048-.0081L3.014,2.0022l-.006-.0067-.0075-.0079-.0074.0079-.0061.0067-.0128.0171L2.97,2.0274,2.9639,2.02l-.0058-.0062L2.9533,2.01v.0187l.0148.0139.012.0123Z" fill="#fff"/><polygon points="5.084 2.972 5.121 3.025 5.156 3.025 5.119 2.972 5.084 2.972" fill="#fff"/><polygon points="5.069 2.972 5.053 2.972 5.053 3.025 5.106 3.025 5.069 2.972" fill="#fff"/><polygon points="5.171 3.025 5.265 3.025 5.228 2.972 5.134 2.972 5.171 3.025" fill="#fff"/><rect x="4.9217" y="3.4457" width="0.1184" height="0.0716" fill="#fff"/><polygon points="5.132 2.96 5.145 2.96 5.145 2.737 5.212 2.737 5.212 2.96 5.238 2.96 5.238 2.616 5.251 2.604 5.183 2.604 5.132 2.655 5.132 2.96" fill="#fff"/><path d="M2.8763,2.4745a.1358.1358,0,0,1,.0445.0664.191.191,0,0,1,.0253-.0517A.1943.1943,0,0,1,2.997,2.44h.007a.1847.1847,0,0,1,.0763.1008.1372.1372,0,0,1,.0113-.0268.1347.1347,0,0,1,.0332-.04V2.4133l-.0189.0085a.08.08,0,0,0-.029.0315l-.0064.0033-.0053-.005a.1908.1908,0,0,0-.0647-.11.1883.1883,0,0,0-.0405.0473.1864.1864,0,0,0-.0241.0631l-.0053.005-.0064-.0033a.0812.0812,0,0,0-.029-.0315l-.0189-.0085Z" fill="#fff"/><polygon points="5.238 2.389 5.192 2.389 5.192 2.551 5.238 2.505 5.238 2.389" fill="#fff"/><rect x="2.9418" y="2.9721" width="0.1184" height="0.0533" fill="#fff"/><path d="M3.9821,1.7378l.0041-.0036.0041.0036.0039.0032.0093.008L4.018,1.74l.0085-.0029V1.7148l-.0032.0018-.0088.0079-.0052.0066-.0048-.0068-.01-.0148L3.9871,1.7l-.001-.0011L3.9777,1.71l-.01.0141-.0047.0077-.0055-.0071-.0088-.0079-.0033-.0018v.0227l.0085.0029.0145.0086.0094-.008Z" fill="#fff"/><polygon points="2.904 2.676 2.873 2.645 2.863 2.645 2.863 2.604 2.816 2.604 2.862 2.65 2.862 2.96 2.904 2.96 2.904 2.676" fill="#fff"/><polygon points="4.159 2.61 4.19 2.578 4.111 2.578 4.111 2.643 4.092 2.643 4.092 2.96 4.159 2.96 4.159 2.61" fill="#fff"/><polygon points="4.33 3.025 4.293 2.972 4.182 2.972 4.22 3.025 4.33 3.025" fill="#fff"/><path d="M4.2125,2.5046H4.1941a.3736.3736,0,0,0-.05.02.3631.3631,0,0,0-.0333.0187v.0224h.19V2.3172H4.2771v.1874H4.2125Z" fill="#fff"/><polygon points="5.243 2.972 5.28 3.025 5.303 3.025 5.266 2.972 5.243 2.972" fill="#fff"/><polygon points="4.305 2.967 4.308 2.972 4.308 2.96 4.321 2.96 4.321 2.749 4.305 2.749 4.305 2.967" fill="#fff"/><path d="M2.9554,2.0965l.0058.004.01.0083A.1857.1857,0,0,1,2.9974,2.09l.0031-.0018.0032.0018a.1857.1857,0,0,1,.0265.0184l.01-.0083.0058-.004V2.0757l-.0224.0137L3.021,2.0817a.063.063,0,0,0-.01-.02l-.01-.0113-.01.0113a.0615.0615,0,0,0-.01.0195l-.0023.0078-.0224-.0137Z" fill="#fff"/><polygon points="4.696 2.709 4.305 2.709 4.305 2.737 4.334 2.737 4.334 2.96 4.37 2.96 4.37 2.737 4.435 2.737 4.435 2.96 4.467 2.96 4.467 2.737 4.532 2.737 4.532 2.96 4.565 2.96 4.565 2.737 4.63 2.737 4.63 2.96 4.665 2.96 4.665 2.737 4.696 2.737 4.696 2.709" fill="#fff"/><path d="M4.7848,2.5913h.0591V2.5246l.01.0059c.0109.0068.0217.014.032.0217l.0075.0057A.1265.1265,0,0,0,4.8794,2.52a.1244.1244,0,0,0-.0324-.0376l-.0024-.005V2.4054l.0023-.0049.0051-.0013a.0925.0925,0,0,1,.0231.0078l-.0064-.01a.1.1,0,0,0-.02-.02L4.846,2.3752V2.28l.01.0058a.2146.2146,0,0,1,.0335.025l.0195.02a.317.317,0,0,1,.0137-.0367.15.15,0,0,1-.0212-.0194A.1465.1465,0,0,1,4.8829,2.25L4.8821,2.248V2.18l.0089.0044a.1348.1348,0,0,1,.0255.016l.01.009L4.93,2.2011l-.0143-.0168L4.8979,2.17,4.895,2.1686V2.1148l.0077.0018a.0527.0527,0,0,1,.0192.0089l.0073.0066.0134-.0148-.008-.0068-.0078-.0052-.0031-.0018v-.05l.028.0171.0023-.0049L4.94,2.0513l-.0165-.0154L4.9216,2.034V1.99l.0087.0037a.0579.0579,0,0,1,.017.0108l.0016.0014.01-.0121.0058-.0065a.0571.0571,0,0,1,.0136-.0126l.0032-.002.0033.002a.0571.0571,0,0,1,.0136.0126l.0058.0065.01.0122.0015-.0015a.06.06,0,0,1,.0171-.0108L5.0411,1.99V2.034l-.0021.0019-.0165.0154-.0138.0143.0023.0049.028-.0171v.05l-.0031.0018-.0078.0052-.008.0068.0134.0148.0073-.0066A.0527.0527,0,0,1,5.06,2.1166l.0077-.0018v.0538L5.0648,2.17l-.0173.0139-.0143.0168.0028.0078.01-.009a.1318.1318,0,0,1,.0255-.016L5.0806,2.18V2.248L5.08,2.25a.1465.1465,0,0,1-.0181.0254.15.15,0,0,1-.0212.0194.317.317,0,0,1,.0137.0367l.0195-.02a.2146.2146,0,0,1,.0335-.025l.01-.0058v.0948l-.0025.0018a.1.1,0,0,0-.02.02l-.0064.01a.0925.0925,0,0,1,.0231-.0078l.0051.0013.0023.0049v.0721l-.0024.005a.1244.1244,0,0,0-.0324.0376.1265.1265,0,0,0-.0135.0378l.0075-.0057c.01-.0076.021-.0149.032-.0217l.01-.0059v.0667h.0591v-.026l.002-.002V2.2491a.0628.0628,0,0,1-.0462.0275.0294.0294,0,0,1-.0248-.0092c-.0091-.0124-.0017-.0349.0184-.0564V2.1757l-.0118.0084c-.0085.0051-.0165.01-.0246.006a.0186.0186,0,0,1-.0094-.0116.0253.0253,0,0,1,.0014-.0194.02.02,0,0,1,.01-.0084L5.1,2.1462l.01-.0116V2.1119a.0383.0383,0,0,1-.02.0075A.0251.0251,0,0,1,5.07,2.1133a.0258.0258,0,0,1-.002-.0291l.0087-.0092.0073-.0061.0072-.0112,0-.0266-.01.0071a.0757.0757,0,0,1-.02.0091l-.008.0024v-.082l-.0551-.0551L4.9994,1.91a.0288.0288,0,0,0-.0063-.0232l-.01-.0064H4.98l-.01.0064a.0284.0284,0,0,0-.0063.0232l.0006.0031-.0551.0551V2.05l-.008-.0024a.0742.0742,0,0,1-.02-.0091l-.01-.0071,0,.0266.0072.0112.0072.0061.0088.0092a.0258.0258,0,0,1-.002.0291.0251.0251,0,0,1-.0206.0061.039.039,0,0,1-.02-.0075v.0227l.01.0116.0075.0045a.02.02,0,0,1,.01.0084.0253.0253,0,0,1,.0014.0194.0186.0186,0,0,1-.0094.0116c-.0081.0038-.0161-.0009-.0246-.006l-.0118-.0084V2.211c.02.0215.0274.044.0184.0564a.0294.0294,0,0,1-.0248.0092.0628.0628,0,0,1-.0462-.0275v.3293l.002.002Z" fill="#fff"/><rect x="4.9217" y="3.5297" width="0.1184" height="0.0674" fill="#fff"/><rect x="4.3052" y="2.6453" width="0.3909" height="0.0516" fill="#fff"/><polygon points="4.696 2.633 4.696 2.625 4.675 2.604 4.34 2.604 4.311 2.633 4.696 2.633" fill="#fff"/><rect x="3.2857" y="2.6453" width="0.3815" height="0.0516" fill="#fff"/><polygon points="3.286 2.737 3.311 2.737 3.311 2.96 3.345 2.96 3.345 2.737 3.411 2.737 3.411 2.96 3.443 2.96 3.443 2.737 3.509 2.737 3.509 2.96 3.54 2.96 3.54 2.737 3.606 2.737 3.606 2.96 3.642 2.96 3.642 2.737 3.667 2.737 3.667 2.709 3.286 2.709 3.286 2.737" fill="#fff"/><rect x="3.6544" y="2.7493" width="0.0128" height="0.2103" fill="#fff"/><polygon points="2.719 2.96 2.731 2.96 2.731 2.622 2.701 2.591 2.701 2.417 2.665 2.38 2.665 2.614 2.719 2.692 2.719 2.96" fill="#fff"/><path d="M3.7963,2.4218A.2023.2023,0,0,0,3.76,2.3963v.0958h.0823V2.4812A.202.202,0,0,0,3.7963,2.4218Z" fill="#fff"/><polygon points="3.286 2.633 3.661 2.633 3.632 2.604 3.307 2.604 3.286 2.625 3.286 2.633" fill="#fff"/><polygon points="3.782 2.578 3.813 2.61 3.813 2.96 3.88 2.96 3.88 2.643 3.861 2.643 3.861 2.578 3.782 2.578" fill="#fff"/><path d="M3.77,2.5659h.0914V2.5435a.3716.3716,0,0,0-.083-.0389H3.6953V2.3172H3.6708v.2487H3.77Z" fill="#fff"/><polygon points="2.791 2.591 2.791 2.57 2.735 2.514 2.713 2.514 2.713 2.586 2.719 2.591 2.791 2.591" fill="#fff"/><polygon points="3.79 2.972 3.682 2.972 3.645 3.025 3.753 3.025 3.79 2.972" fill="#fff"/><polygon points="2.731 2.319 2.713 2.319 2.713 2.411 2.713 2.414 2.713 2.502 2.731 2.502 2.731 2.319" fill="#fff"/><polygon points="2.789 2.389 2.744 2.389 2.744 2.505 2.789 2.551 2.789 2.389" fill="#fff"/><polygon points="2.744 2.616 2.744 2.96 2.77 2.96 2.77 2.737 2.836 2.737 2.836 2.96 2.849 2.96 2.849 2.655 2.799 2.604 2.731 2.604 2.744 2.616" fill="#fff"/><path d="M2.804,2.5913h.0591V2.5246l.0095.0059.032.0217.0075.0057A.1265.1265,0,0,0,2.8986,2.52a.1244.1244,0,0,0-.0324-.0376l-.0024-.005V2.4054l.0023-.0049.0051-.0013a.0925.0925,0,0,1,.0231.0078l-.0064-.01a.1.1,0,0,0-.02-.02l-.0025-.0018V2.28l.0095.0058a.2146.2146,0,0,1,.0335.025l.0194.02a.3176.3176,0,0,1,.0138-.0367A.15.15,0,0,1,2.92,2.2749.1465.1465,0,0,1,2.9021,2.25L2.9013,2.248V2.18l.0089.0044a.1348.1348,0,0,1,.0255.016l.01.009.0028-.0078-.0143-.0168L2.9171,2.17l-.0029-.0018V2.1148l.0077.0018a.0527.0527,0,0,1,.0192.0089l.0073.0066.0134-.0148-.0081-.0068L2.946,2.1053l-.0031-.0018v-.05l.028.0171.0023-.0049-.0139-.0143-.0164-.0154L2.9408,2.034V1.99l.0087.0037a.0592.0592,0,0,1,.017.0108l.0016.0015.01-.0122.0058-.0065a.0571.0571,0,0,1,.0136-.0126l.0032-.002.0033.002a.0591.0591,0,0,1,.0136.0126l.0058.0065.01.0122.0015-.0015a.06.06,0,0,1,.0171-.0108L3.06,1.99V2.034l-.0021.0019-.0165.0154-.0138.0143.0023.0049.028-.0171v.05l-.0031.0018-.0078.0052-.008.0068.0134.0148L3.06,2.1255a.0527.0527,0,0,1,.0192-.0089l.0076-.0018v.0538L3.084,2.17l-.0173.0139-.0143.0168.0028.0078.01-.009a.1318.1318,0,0,1,.0255-.016L3.1,2.18V2.248L3.099,2.25a.1465.1465,0,0,1-.0181.0254.15.15,0,0,1-.0212.0194.317.317,0,0,1,.0137.0367l.02-.02a.2146.2146,0,0,1,.0335-.025l.01-.0058v.0948l-.0025.0018a.1.1,0,0,0-.02.02l-.0064.01A.0925.0925,0,0,1,3.13,2.3992l.0051.0013.0023.0049v.0721l-.0024.005a.1244.1244,0,0,0-.0324.0376.1265.1265,0,0,0-.0135.0378l.0075-.0057c.01-.0076.021-.0149.032-.0217l.01-.0059v.0667h.0591V2.58l.002-.002V2.2491a.0628.0628,0,0,1-.0463.0275.0294.0294,0,0,1-.0247-.0092c-.0091-.0124-.0017-.0349.0184-.0564V2.1757l-.0118.0084c-.0085.0051-.0165.01-.0246.006a.0186.0186,0,0,1-.0094-.0116.0253.0253,0,0,1,.0014-.0194.02.02,0,0,1,.01-.0084l.0075-.0045.01-.0116V2.1119a.0383.0383,0,0,1-.02.0075.0251.0251,0,0,1-.0206-.0061.0258.0258,0,0,1-.002-.0291l.0087-.0092.0072-.0061.0073-.0112,0-.0266-.0095.0071a.0757.0757,0,0,1-.02.0091l-.008.0024v-.082L3.018,1.9126,3.0185,1.91a.0283.0283,0,0,0-.0062-.0232l-.01-.0064H2.9987l-.01.0064a.0284.0284,0,0,0-.0063.0232l.0006.0031-.0551.0551V2.05L2.92,2.0473a.0772.0772,0,0,1-.02-.0091l-.0094-.0071,0,.0266.0072.0112.0072.0061.0088.0092a.0258.0258,0,0,1-.002.0291.0251.0251,0,0,1-.0206.0061.039.039,0,0,1-.02-.0075v.0227l.01.0116.0074.0045a.02.02,0,0,1,.01.0084.0253.0253,0,0,1,.0014.0194.0186.0186,0,0,1-.0094.0116c-.0081.0038-.0161-.0009-.0246-.006l-.0118-.0084V2.211c.02.0215.0274.044.0184.0564a.03.03,0,0,1-.0248.0092.0628.0628,0,0,1-.0462-.0275v.3142l.002.002Z" fill="#fff"/><polygon points="2.717 3.025 2.81 3.025 2.847 2.972 2.754 2.972 2.717 3.025" fill="#fff"/><rect x="3.3108" y="2.5525" width="0.3122" height="0.0388" fill="#fff"/><rect x="2.9025" y="3.0379" width="0.0268" height="0.6433" fill="#fff"/><rect x="3.3108" y="2.5197" width="0.3122" height="0.0203" fill="#fff"/><polygon points="2.738 2.972 2.716 2.972 2.679 3.025 2.701 3.025 2.738 2.972" fill="#fff"/><polygon points="3.298 2.514 3.281 2.514 3.21 2.586 3.21 2.591 3.298 2.591 3.298 2.514" fill="#fff"/><path d="M3.9521,1.7888a.097.097,0,0,0-.0215-.0143L3.9181,1.77v.0274a.1476.1476,0,0,1,.0231.0142L3.96,1.828a.1288.1288,0,0,1,.02-.0216l.0055-.0049.0055.0049a.133.133,0,0,1,.02.0216l.0191-.0169a.1533.1533,0,0,1,.0232-.0142V1.77l-.0125.005a.097.097,0,0,0-.0215.0143l-.0073.0064L4.01,1.786a.0873.0873,0,0,0-.0123-.0246l-.0114-.0106,0,0,0,0-.0114.0106a.0873.0873,0,0,0-.0123.0246l-.0029.0092Z" fill="#fff"/><rect x="4.3493" y="2.4352" width="0.3218" height="0.0158" fill="#fff"/><rect x="4.3493" y="2.4635" width="0.3218" height="0.0437" fill="#fff"/><path d="M4.0386,1.8211a.1413.1413,0,0,0-.02.018l.0025.0051.006.0192a.1317.1317,0,0,1,.02-.0171.1284.1284,0,0,1,.027-.0141l.0085-.0033v.0552h.044A.0484.0484,0,0,1,4.12,1.8624a.0546.0546,0,0,1,.027-.05V1.7874l-.0024-.006-.01.0119-.0191.0183-.0042.0037H4.0472Z" fill="#fff"/><rect x="3.3108" y="2.4635" width="0.3122" height="0.0437" fill="#fff"/><rect x="3.3108" y="2.4352" width="0.3122" height="0.0158" fill="#fff"/><path d="M3.759,2.2052l.0008.0014v.1756a.21.21,0,0,1,.0448.03.2146.2146,0,0,1,.0375.0437V2.4045l.0092.0051.0148.01V2.3637a.1245.1245,0,0,0-.0377-.0465H3.8267V2.2783H3.7681V2.1906l-.0056-.0058-.0061,0a.01.01,0,0,0-.0027.012Z" fill="#fff"/><rect x="4.3493" y="2.5525" width="0.3218" height="0.0388" fill="#fff"/><polygon points="4.772 2.586 4.701 2.514 4.684 2.514 4.684 2.591 4.772 2.591 4.772 2.586" fill="#fff"/><rect x="4.6836" y="2.4201" width="0.0136" height="0.0815" fill="#fff"/><path d="M4.0814,1.7418H4.039v.006l-.0051.0009-.011.0032-.0117.007.0078.0149.0173-.01a.1015.1015,0,0,1,.0228-.0081l.0077-.0018v.0408h.0287l-.0013-.0087a.0478.0478,0,0,1,.0141-.0287L4.12,1.7433V1.7246l-.0021-.0025-.0025.0042-.011.0138-.0018.0017H4.0814Z" fill="#fff"/><rect x="4.3493" y="2.5197" width="0.3218" height="0.0203" fill="#fff"/><rect x="2.7439" y="2.3422" width="0.0456" height="0.0347" fill="#fff"/><path d="M3.8133,2.0705v.0371h.0388V2.0671l.0086.0035a.1259.1259,0,0,1,.0322.019l.017.0169a.2175.2175,0,0,1,.0166-.0335.0576.0576,0,0,0-.0152-.02.0587.0587,0,0,0-.035-.0128H3.8642V2.0021H3.7921L3.79,2a.1044.1044,0,0,1-.02-.025l-.0082-.018L3.7605,1.96v.038a.3831.3831,0,0,0,.0238.0375.3659.3659,0,0,0,.0273.0335Z" fill="#fff"/><path d="M3.8193,1.99h.0449V1.94l.01.0078.0291.0238.0137.012c.0061-.0119.0128-.0236.02-.035a.1075.1075,0,0,0-.019-.0225.1147.1147,0,0,0-.0249-.0171L3.89,1.9074V1.8966h-.07l-.0018-.0017a.08.08,0,0,1-.0165-.0218.0772.0772,0,0,1-.0074-.0215l-.0051.0051v.04l.01.02a.1287.1287,0,0,0,.0154.021.0453.0453,0,0,1,.0124.0212A.0432.0432,0,0,1,3.8193,1.99Z" fill="#fff"/><path d="M3.7994,2.2659h.0273V2.2065l.01.0066a.3864.3864,0,0,1,.0343.0265l.0155.0143A.38.38,0,0,1,3.91,2.21a.074.074,0,0,0-.0186-.0313.0748.0748,0,0,0-.03-.0183H3.8521V2.12h-.061L3.79,2.1189a.086.086,0,0,1-.0179-.0172l-.0054-.0074L3.7623,2.089l-.0036.0043v.0413l.0407.0406Z" fill="#fff"/><path d="M3.891,1.7293h.0423v-.031L3.9409,1.7l.0148.006.0062.0046.0058-.0082.0138-.0176.0052-.0059.0045.0063.0055.0069.0082.0106.0053.0081.0064-.0048L4.0315,1.7l.0075-.0017v.031h.0424V1.6941l.0149-.0149V1.6717h-.22v.0075l.015.0149Z" fill="#fff"/><path d="M3.8769,1.7942h.0287V1.7534l.0076.0018a.104.104,0,0,1,.0229.0081l.0173.01.0078-.0149L3.95,1.7519l-.011-.0032-.0052-.0009v-.006H3.8694L3.8676,1.74l-.0111-.0138-.0024-.0042-.0021.0025v.0187l.012.0135a.048.048,0,0,1,.0142.0287Z" fill="#fff"/><polygon points="3.272 2.435 3.212 2.435 3.212 2.566 3.272 2.505 3.272 2.435" fill="#fff"/><rect x="3.2847" y="2.4201" width="0.0136" height="0.0815" fill="#fff"/><path d="M3.8528,1.8624a.0484.0484,0,0,1-.0073.0217H3.89V1.8289l.0085.0033a.1309.1309,0,0,1,.027.0141.1359.1359,0,0,1,.02.0171l.0061-.0192.0024-.0051a.1406.1406,0,0,0-.02-.018l-.0086-.0058H3.8619l-.0042-.0037-.0192-.0183-.01-.0119-.0024.006v.0251A.0548.0548,0,0,1,3.8528,1.8624Z" fill="#fff"/><rect x="2.9418" y="3.2827" width="0.1184" height="0.0659" fill="#fff"/><polygon points="4.879 2.972 4.841 2.972 4.803 3.025 4.842 3.025 4.879 2.972" fill="#fff"/><rect x="4.9217" y="2.9721" width="0.1184" height="0.0533" fill="#fff"/><polygon points="4.857 3.025 4.909 3.025 4.909 2.972 4.894 2.972 4.857 3.025" fill="#fff"/><path d="M4.9813,2.4529a.1733.1733,0,0,0-.0736.1168l.011.0094a.1357.1357,0,0,1,.0134-.0365.1382.1382,0,0,1,.0458-.0494l.0034-.0024.0035.0024a.1382.1382,0,0,1,.0458.0494.1354.1354,0,0,1,.0133.0365L5.055,2.57a.1784.1784,0,0,0-.0295-.0733A.176.176,0,0,0,4.9813,2.4529Z" fill="#fff"/><polygon points="5.119 2.604 5.119 2.645 5.109 2.645 5.078 2.676 5.078 2.96 5.12 2.96 5.12 2.65 5.166 2.604 5.119 2.604" fill="#fff"/><polygon points="4.825 2.972 4.716 2.972 4.709 2.983 4.709 2.983 4.708 2.983 4.679 3.025 4.788 3.025 4.825 2.972" fill="#fff"/><rect x="4.9217" y="2.6453" width="0.1184" height="0.3143" fill="#fff"/><path d="M4.914,2.3582l-.0077-.01a.2158.2158,0,0,0-.0256-.0276L4.8585,2.303v.066a.1124.1124,0,0,1,.0364.0514l.0129.0139A.1967.1967,0,0,1,4.93,2.382a.1989.1989,0,0,1,.0473-.0538h.0077a.2039.2039,0,0,1,.07.1061L5.0678,2.42a.1124.1124,0,0,1,.0364-.0514V2.303l-.0222.0175a.2158.2158,0,0,0-.0256.0276l-.0078.01-.0032-.0122a.2922.2922,0,0,0-.0183-.051.3.3,0,0,0-.0457-.07.3013.3013,0,0,0-.0458.07.2922.2922,0,0,0-.0183.051Z" fill="#fff"/><path d="M5.1046,2.6318l.001.001h.0007V2.5472l-.0216.015a.4708.4708,0,0,0-.0408.0337l-.0089.0083-.0015-.0121a.1226.1226,0,0,0-.0522-.0862.1257.1257,0,0,0-.0382.0426.1231.1231,0,0,0-.0139.0436l-.0015.0121-.0089-.0083a.4708.4708,0,0,0-.0408-.0337l-.0216-.015v.0856h.0007l.001-.001.001.001h.2445Z" fill="#fff"/><rect x="4.7636" y="2.7493" width="0.0411" height="0.2103" fill="#fff"/><polygon points="5.053 2.645 5.053 2.96 5.066 2.96 5.066 2.671 5.091 2.645 5.053 2.645" fill="#fff"/><polygon points="4.884 2.676 4.854 2.645 4.844 2.645 4.844 2.604 4.797 2.604 4.843 2.65 4.843 2.96 4.884 2.96 4.884 2.676" fill="#fff"/><rect x="3.932" y="3.2021" width="0.1184" height="0.0681" fill="#fff"/><path d="M4.9087,2.21,4.8946,2.2v.0449a.1236.1236,0,0,0,.0157.0217l.0173.0162a.3162.3162,0,0,1,.0492-.0717l.0046-.0051.0046.0051a.3168.3168,0,0,1,.0491.0717l.0173-.0162a.1347.1347,0,0,0,.0157-.0217V2.2l-.0141.01-.0165.0158-.0085.01-.0024-.0127A.094.094,0,0,0,4.9813,2.16a.0922.0922,0,0,0-.0264.0227.0911.0911,0,0,0-.0188.04l-.0024.0126-.0085-.01Z" fill="#fff"/><rect x="4.5775" y="2.7493" width="0.0402" height="0.2103" fill="#fff"/><rect x="3.932" y="3.2827" width="0.1184" height="0.0659" fill="#fff"/><rect x="3.932" y="3.3611" width="0.1184" height="0.0721" fill="#fff"/><path d="M4.9362,2.0965l.0058.004.01.0083A.1857.1857,0,0,1,4.9782,2.09l.0031-.0018.0032.0018a.1857.1857,0,0,1,.0265.0184l.01-.0083.0058-.004V2.0757l-.0224.0137-.0023-.0078a.0636.0636,0,0,0-.01-.0195l-.01-.0113-.01.0113a.0619.0619,0,0,0-.01.02l-.0023.0077-.0224-.0137Z" fill="#fff"/><path d="M4.929,2.1533l-.005-.0076-.01-.01-.0069-.0041v.03l.0164.0134.0117.0131.01-.014a.1.1,0,0,1,.0333-.0273l.0027-.0013.0028.0013a.1.1,0,0,1,.0333.0273l.01.014.0117-.0131.0164-.0134v-.03l-.0069.0041-.01.01-.005.0076L5.0284,2.146a.1633.1633,0,0,0-.0214-.0241.1552.1552,0,0,0-.0257-.0188.1592.1592,0,0,0-.0256.0188.1633.1633,0,0,0-.0214.0241Z" fill="#fff"/><path d="M4.9611,2.0545a.0728.0728,0,0,1,.0169-.0167l.0033-.0022.0034.0022a.0728.0728,0,0,1,.0169.0167l0,0,.012-.0123.0148-.0139V2.01l-.0048.0039L5.018,2.02l-.0056.0075-.0048-.0081-.0127-.0171-.0061-.0067-.0075-.0079-.0074.0079-.0061.0067-.0128.0171L4.95,2.0274,4.9447,2.02l-.0058-.0062L4.9341,2.01v.0187l.0148.0139.012.0123Z" fill="#fff"/><path d="M4.8571,2.4745a.1358.1358,0,0,1,.0445.0664A.1851.1851,0,0,1,4.9778,2.44h.007a.1847.1847,0,0,1,.0763.1008.1358.1358,0,0,1,.0445-.0664V2.4133l-.0189.0085a.08.08,0,0,0-.029.0315l-.0064.0033-.0053-.005a.1895.1895,0,0,0-.0647-.11.1883.1883,0,0,0-.04.0473.1856.1856,0,0,0-.0241.0631l-.0053.005L4.905,2.4533a.08.08,0,0,0-.029-.0315l-.0189-.0085Z" fill="#fff"/><polygon points="4.709 2.62 4.709 2.961 4.71 2.96 4.751 2.96 4.751 2.737 4.817 2.737 4.817 2.96 4.83 2.96 4.83 2.655 4.779 2.604 4.692 2.604 4.709 2.62" fill="#fff"/><polygon points="2.898 2.972 2.863 2.972 2.826 3.025 2.861 3.025 2.898 2.972" fill="#fff"/><rect x="2.9418" y="3.3611" width="0.1184" height="0.0721" fill="#fff"/><rect x="2.9418" y="3.2021" width="0.1184" height="0.0681" fill="#fff"/><rect x="2.9418" y="3.4457" width="0.1184" height="0.0716" fill="#fff"/><rect x="2.9418" y="3.1165" width="0.1184" height="0.0731" fill="#fff"/><rect x="3.112" y="3.0379" width="0.7682" height="0.0661" fill="#fff"/><rect x="2.9418" y="3.5297" width="0.1184" height="0.0674" fill="#fff"/><rect x="3.112" y="3.2215" width="0.7682" height="0.1319" fill="#fff"/><rect x="3.112" y="3.1165" width="0.7682" height="0.0925" fill="#fff"/><rect x="2.9418" y="3.0379" width="0.1184" height="0.0661" fill="#fff"/><rect x="2.7827" y="2.7493" width="0.0412" height="0.2103" fill="#fff"/><rect x="3.358" y="2.7493" width="0.0402" height="0.2103" fill="#fff"/><rect x="3.932" y="3.1165" width="0.1184" height="0.0731" fill="#fff"/><rect x="5.158" y="2.7493" width="0.0411" height="0.2103" fill="#fff"/><rect x="4.6774" y="2.7493" width="0.0187" height="0.2103" fill="#fff"/><rect x="3.112" y="3.3659" width="0.7682" height="0.1472" fill="#fff"/><polygon points="4.897 2.671 4.897 2.96 4.909 2.96 4.909 2.645 4.872 2.645 4.897 2.671" fill="#fff"/><rect x="3.553" y="2.7493" width="0.0402" height="0.2103" fill="#fff"/><rect x="3.4558" y="2.7493" width="0.0403" height="0.2103" fill="#fff"/><rect x="3.932" y="3.0379" width="0.1184" height="0.0661" fill="#fff"/><polygon points="4.664 3.025 4.696 2.979 4.696 2.972 4.309 2.972 4.346 3.025 4.664 3.025" fill="#fff"/><rect x="2.9418" y="2.6453" width="0.1184" height="0.3143" fill="#fff"/><polygon points="2.916 2.671 2.916 2.96 2.929 2.96 2.929 2.645 2.891 2.645 2.916 2.671" fill="#fff"/><path d="M3.1238,2.6318l.001.001h.0007V2.5472l-.0216.015a.4708.4708,0,0,0-.0408.0337l-.0089.0083-.0015-.0121a.1226.1226,0,0,0-.0522-.0862.1257.1257,0,0,0-.0382.0426.1237.1237,0,0,0-.0139.0436l-.0015.0121L2.938,2.5959a.4708.4708,0,0,0-.0408-.0337l-.0216-.015v.0856h.0007l.001-.001.001.001h.2445Z" fill="#fff"/><polygon points="3.088 2.972 3.073 2.972 3.073 3.025 3.125 3.025 3.088 2.972" fill="#fff"/><polygon points="3.303 3.025 3.273 2.983 3.273 2.983 3.273 2.983 3.266 2.972 3.156 2.972 3.194 3.025 3.303 3.025" fill="#fff"/><polygon points="3.178 3.025 3.141 2.972 3.103 2.972 3.14 3.025 3.178 3.025" fill="#fff"/><polygon points="3.885 2.972 3.813 2.972 3.807 2.972 3.805 2.972 3.768 3.025 3.848 3.025 3.885 2.972" fill="#fff"/><rect x="4.9217" y="3.2021" width="0.1184" height="0.0681" fill="#fff"/><path d="M4.0987,2.548a.0478.0478,0,0,0-.0295.0288l-.007.0192-.0049-.02a.2883.2883,0,0,0-.0323-.0787.2168.2168,0,0,0-.0341-.04l-.0047-.0048-.0048.0048a.2165.2165,0,0,0-.034.04.2885.2885,0,0,0-.0324.0787l-.0048.02-.0071-.0191a.0472.0472,0,0,0-.0134-.02.0478.0478,0,0,0-.0161-.0092v.0829h.2251Z" fill="#fff"/><rect x="3.1772" y="2.7493" width="0.0411" height="0.2103" fill="#fff"/><polygon points="3.073 2.645 3.073 2.96 3.085 2.96 3.085 2.671 3.11 2.645 3.073 2.645" fill="#fff"/><path d="M3.0005,2.4529a.1733.1733,0,0,0-.0736.1168l.011.0094a.1357.1357,0,0,1,.0134-.0365.1382.1382,0,0,1,.0458-.0494l.0034-.0024.0035.0024a.1382.1382,0,0,1,.0458.0494.1354.1354,0,0,1,.0133.0365L3.0742,2.57a.1729.1729,0,0,0-.0737-.1168Z" fill="#fff"/><path d="M2.9332,2.3581l-.0077-.01A.2158.2158,0,0,0,2.9,2.3205L2.8777,2.303v.066a.1124.1124,0,0,1,.0364.0514l.0129.0139a.2039.2039,0,0,1,.07-.1061h.0077a.2039.2039,0,0,1,.07.1061L3.087,2.42a.1105.1105,0,0,1,.0364-.0514V2.303l-.0222.0175a.2158.2158,0,0,0-.0256.0276l-.0078.01-.0032-.0123a.2922.2922,0,0,0-.0183-.051.3013.3013,0,0,0-.0458-.07.3.3,0,0,0-.0457.07.2922.2922,0,0,0-.0183.051Z" fill="#fff"/><path d="M2.9279,2.21,2.9137,2.2v.0449a.1353.1353,0,0,0,.0158.0217l.0173.0162a.3168.3168,0,0,1,.0491-.0717l.0046-.0051.0046.0051a.3126.3126,0,0,1,.0491.0717l.0174-.0162a.1347.1347,0,0,0,.0157-.0217V2.2l-.0141.01-.0165.0158-.0085.01-.0024-.0127A.094.094,0,0,0,3.0005,2.16a.0922.0922,0,0,0-.0264.0227.09.09,0,0,0-.0188.04l-.0025.0127-.0084-.01Z" fill="#fff"/><rect x="4.9217" y="3.3611" width="0.1184" height="0.0721" fill="#fff"/><rect x="3.2857" y="2.7493" width="0.0126" height="0.2103" fill="#fff"/><polygon points="3.63 3.025 3.667 2.972 3.286 2.972 3.286 2.979 3.318 3.025 3.63 3.025" fill="#fff"/><rect x="4.9217" y="3.2827" width="0.1184" height="0.0659" fill="#fff"/><polygon points="3.139 2.65 3.185 2.604 3.138 2.604 3.138 2.645 3.128 2.645 3.097 2.676 3.097 2.96 3.139 2.96 3.139 2.65" fill="#fff"/><polygon points="3.152 2.96 3.165 2.96 3.165 2.737 3.231 2.737 3.231 2.96 3.272 2.96 3.273 2.961 3.273 2.62 3.289 2.604 3.202 2.604 3.152 2.655 3.152 2.96" fill="#fff"/><rect x="3.932" y="3.4457" width="0.1184" height="0.0716" fill="#fff"/><polygon points="4.204 3.025 4.167 2.972 4.166 2.972 4.159 2.972 4.099 2.972 4.136 3.025 4.204 3.025" fill="#fff"/><rect x="4.1022" y="3.0379" width="0.7677" height="0.0661" fill="#fff"/><rect x="4.0529" y="2.6434" width="0.0268" height="0.3162" fill="#fff"/><rect x="3.8927" y="2.6434" width="0.0268" height="0.3162" fill="#fff"/><polygon points="3.863 3.025 3.919 3.025 3.919 2.972 3.901 2.972 3.863 3.025" fill="#fff"/><rect x="3.932" y="2.6434" width="0.1084" height="0.3162" fill="#fff"/><rect x="4.4796" y="2.7493" width="0.0403" height="0.2103" fill="#fff"/><rect x="4.3825" y="2.7493" width="0.0402" height="0.2103" fill="#fff"/><path d="M3.87,2.5341a.06.06,0,0,1,.0282.0137l.0092.01a.2948.2948,0,0,1,.0184-.0464H3.8291l.0043.0021A.3709.3709,0,0,1,3.87,2.5341Z" fill="#fff"/><rect x="3.932" y="3.5297" width="0.1184" height="0.0674" fill="#fff"/><path d="M2.9482,2.1533l-.005-.0076-.01-.01-.0069-.0041v.03l.0164.0134.0117.0131.01-.014a.1007.1007,0,0,1,.0334-.0273l.0027-.0013.0028.0013a.1.1,0,0,1,.0333.0273l.01.014.0117-.0131.0164-.0134v-.03l-.007.0041-.01.01-.005.0076L3.0476,2.146a.1633.1633,0,0,0-.0214-.0241.16.16,0,0,0-.0257-.0188.1592.1592,0,0,0-.0256.0188.1633.1633,0,0,0-.0214.0241Z" fill="#fff"/><rect x="4.9217" y="3.1165" width="0.1184" height="0.0731" fill="#fff"/><rect x="4.9217" y="3.0379" width="0.1184" height="0.0661" fill="#fff"/><path d="M4.0653,2.5579l.0092-.01a.06.06,0,0,1,.0281-.0137.3611.3611,0,0,1,.0364-.0205l.0043-.0021H4.0469A.3155.3155,0,0,1,4.0653,2.5579Z" fill="#fff"/><path d="M3.8546,2.4921H3.936l.0006-.0011a.2284.2284,0,0,1,.036-.0429l.009-.0092.0046-.0048.0045.0048L4,2.4481a.2282.2282,0,0,1,.0359.0429l.0007.0011h.0814V2.4262l-.0173.015-.0123.0162-.008.0131-.0034-.015a.47.47,0,0,0-.0293-.0889.4408.4408,0,0,0-.0606-.0936l-.0007-.0009-.0007.0008a.4443.4443,0,0,0-.0607.0937.4772.4772,0,0,0-.0293.0889l-.0033.015-.0081-.0131-.0123-.0162-.0172-.015Z" fill="#fff"/><rect x="4.1022" y="3.2215" width="0.7677" height="0.1319" fill="#fff"/><polygon points="4.084 2.972 4.053 2.972 4.053 3.025 4.121 3.025 4.084 2.972" fill="#fff"/><rect x="4.1022" y="3.3659" width="0.7677" height="0.1472" fill="#fff"/><rect x="4.1022" y="3.1165" width="0.7677" height="0.0925" fill="#fff"/><rect x="3.932" y="2.9721" width="0.1084" height="0.0533" fill="#fff"/><rect x="4.9217" y="3.6096" width="0.1184" height="0.0716" fill="#fff"/><rect x="3.0727" y="3.0379" width="0.0268" height="0.6433" fill="#fff"/><rect x="2.9418" y="3.6096" width="0.1184" height="0.0716" fill="#fff"/><rect x="3.112" y="3.5256" width="0.7682" height="0.1556" fill="#fff"/><polygon points="4.172 2.737 4.211 2.737 4.211 2.96 4.293 2.96 4.293 2.634 4.309 2.617 4.172 2.617 4.172 2.737" fill="#fff"/><polygon points="5.613 3.526 5.092 3.526 5.092 3.681 5.688 3.681 5.688 3.526 5.619 3.526 5.613 3.526" fill="#fff"/><path d="M4.2646,2.3138,4.2433,2.295V2.2515l0-.0011A.075.075,0,0,1,4.26,2.2253a.0715.0715,0,0,1,.0206-.0142V2.159A.125.125,0,0,0,4.225,2.21v.2822h.04Z" fill="#fff"/><rect x="4.1022" y="3.5256" width="0.7677" height="0.1556" fill="#fff"/><polygon points="4.191 2.595 4.331 2.595 4.337 2.59 4.337 2.257 4.314 2.279 4.314 2.578 4.208 2.578 4.191 2.595" fill="#fff"/><polygon points="2.467 3.222 2.467 3.353 2.89 3.353 2.89 3.222 2.534 3.222 2.467 3.222" fill="#fff"/><path d="M3.7473,2.21a.1275.1275,0,0,0-.025-.0307.1255.1255,0,0,0-.0307-.02v.0521a.0729.0729,0,0,1,.0206.0142.075.075,0,0,1,.0165.0251l0,.0011V2.295l-.0213.0188v.1783h.0395Z" fill="#fff"/><rect x="3.932" y="3.6096" width="0.1184" height="0.0716" fill="#fff"/><rect x="3.892" y="1.6358" width="0.1883" height="0.0234" fill="#fff"/><rect x="5.0526" y="3.0379" width="0.0268" height="0.6433" fill="#fff"/><rect x="4.0629" y="3.0379" width="0.0268" height="0.6433" fill="#fff"/><rect x="3.8927" y="3.0379" width="0.0268" height="0.6433" fill="#fff"/><polygon points="5.092 3.513 5.607 3.513 5.607 3.366 5.527 3.366 5.092 3.366 5.092 3.513" fill="#fff"/><rect x="4.1719" y="2.7493" width="0.0271" height="0.2103" fill="#fff"/><path d="M4.006,1.52a.0221.0221,0,0,0-.04,0v.033h.04Z" fill="#fff"/><polygon points="3.68 2.634 3.68 2.96 3.761 2.96 3.761 2.737 3.8 2.737 3.8 2.617 3.663 2.617 3.68 2.634" fill="#fff"/><polygon points="3.781 2.595 3.764 2.578 3.658 2.578 3.658 2.279 3.635 2.257 3.635 2.59 3.641 2.595 3.781 2.595" fill="#fff"/><polygon points="5.092 3.353 5.515 3.353 5.515 3.222 5.448 3.222 5.092 3.222 5.092 3.353" fill="#fff"/><polygon points="2.876 3.025 2.929 3.025 2.929 2.972 2.913 2.972 2.876 3.025" fill="#fff"/><rect x="2.5991" y="3.0379" width="0.2909" height="0.0661" fill="#fff"/><polygon points="2.294 3.526 2.294 3.681 2.89 3.681 2.89 3.526 2.362 3.526 2.294 3.526" fill="#fff"/><rect x="3.9065" y="1.5968" width="0.1593" height="0.0265" fill="#fff"/><polygon points="2.546 3.117 2.546 3.209 2.89 3.209 2.89 3.117 2.587 3.117 2.546 3.117" fill="#fff"/><rect x="5.0919" y="3.1165" width="0.3438" height="0.0925" fill="#fff"/><rect x="4.8824" y="3.0379" width="0.0268" height="0.6433" fill="#fff"/><rect x="3.9336" y="1.565" width="0.1052" height="0.0193" fill="#fff"/><rect x="5.0919" y="3.0379" width="0.2909" height="0.0661" fill="#fff"/><polygon points="2.375 3.366 2.375 3.513 2.89 3.513 2.89 3.366 2.454 3.366 2.375 3.366" fill="#fff"/><rect x="3.7734" y="2.7493" width="0.027" height="0.2103" fill="#fff"/><path d="M5.62,3.5131v-.16H5.5273V3.209H5.4482V3.104H5.3953V3.0254H5.3185l-.0428-.0615V2.6958l.054-.0776V2.35l-.0488.0488V2.3061H5.238V2.33H5.1924V2.2012l-.0119.0237c-.0019.0039-.02.0388-.0471.0392-.0075,0-.0124-.0012-.0144-.004-.0039-.0054-.0006-.022.019-.0422L5.14,2.216l0-.0732-.0111.0136a.0733.0733,0,0,1-.0195.017l-.0129.0054-.0028-.0042,0-.01.0046-.0033.0094-.0057a.0543.0543,0,0,0,.0144-.0167l.0008-.0014v-.06l-.0113.0157a.0321.0321,0,0,1-.0218.0137l-.0106-.0022a.0139.0139,0,0,1,0-.0146l.0049-.0048.0093-.008a.0556.0556,0,0,0,.01-.0159L5.1039,2.06l0-.0636-.0111.015a.0667.0667,0,0,1-.0174.0161l-.0086.0047v-.07l-.0543-.0544a.04.04,0,0,0-.01-.03.0369.0369,0,0,0-.0162-.01l-.0009,0H4.9776l-.0009,0a.0378.0378,0,0,0-.0163.01.04.04,0,0,0-.01.03l-.0543.0544v.07l-.0086-.0047A.0667.0667,0,0,1,4.87,2.0116l-.0111-.015,0,.0636.0005.0012a.0556.0556,0,0,0,.01.0159l.0093.008.0049.0048a.0139.0139,0,0,1,0,.0146l-.0106.0022a.0321.0321,0,0,1-.0218-.0137L4.84,2.0775v.06l.0008.0014a.0543.0543,0,0,0,.0144.0167l.0094.0057.0046.0033,0,.01-.0028.0041-.0129-.0054a.0718.0718,0,0,1-.0195-.017l-.0111-.0136,0,.0732.0018.0019c.02.02.0229.0368.019.0422-.002.0028-.0069.0042-.0145.004-.0269,0-.0451-.0353-.047-.0392L4.77,2.2012v.2215H4.71V2.4076H4.6711v.0151H4.3493V2.2265l-.0477.0477v.03H4.2732l-.0174-.0153V2.2539a.0609.0609,0,0,1,.0132-.02.0593.0593,0,0,1,.02-.0132l.004-.0016V2.1405l-.0085.0032a.14.14,0,0,0-.0431.0262L4.23,2.1821l-.0082-.0086a.02.02,0,0,0-.0166,0,.0228.0228,0,0,0-.013.0143l0,.0009v.0774H4.1855V2.18L4.2261,2.14V2.09l-.0008-.0014c-.0017-.0031-.0071-.0124-.0157-.0122-.0065,0-.01.0054-.0138.0109L4.191,2.094l-.0138.0136H4.1716V2.0753a.3809.3809,0,0,0,.0266-.0328.3888.3888,0,0,0,.0254-.04l.0007-.0014V1.9557l-.02-.0278-.0029.0139a.0981.0981,0,0,1-.01.0273.0931.0931,0,0,1-.0159.02H4.1679a.0368.0368,0,0,1-.0089-.0279.035.035,0,0,1,.01-.0156.1442.1442,0,0,0,.0166-.0227A.1413.1413,0,0,0,4.1962,1.9l0-.001V1.8516l-.0283-.0284,0,.0147a.0681.0681,0,0,1-.0074.0295.0689.0689,0,0,1-.0122.0167h-.006a.04.04,0,0,1-.01-.0227.0429.0429,0,0,1,.0239-.04L4.1591,1.82V1.785l-.0116-.0289-.0066.0091-.0162.02-.0135.0132a.021.021,0,0,1-.0045-.0124c0-.0061.0036-.0109.0115-.0212l.0127-.0138.002-.0019V1.72l-.0188-.0227-.0036.0108L4.1052,1.72l-.0073.01h-.004v-.03l.0149-.015V1.6592h-.016V1.6233H4.0783v-.039h-.027V1.5525H4.0185V1.5169l-.0006-.0012a.0345.0345,0,0,0-.0635,0l-.0005.0012v.0356H3.9211v.0318H3.894v.039H3.88v.0359h-.016v.0251l.015.015v.03h-.004l-.0073-.01-.0054-.0116-.0035-.0108L3.84,1.72v.0286l.002.0019.0126.0138c.008.01.0115.0151.0116.0212a.02.02,0,0,1-.0046.0124l-.0134-.0132-.0162-.02-.0067-.0091-.0115.0289V1.82l.0032.0018a.043.043,0,0,1,.0239.04.0392.0392,0,0,1-.01.0227H3.8241a.067.067,0,0,1-.0122-.0167.0686.0686,0,0,1-.0075-.0295l0-.0147-.0283.0284v.0475l0,.001a.1408.1408,0,0,0,.0108.0233.1437.1437,0,0,0,.0167.0227.036.036,0,0,1,.01.0156.0373.0373,0,0,1-.0089.0279H3.797a.09.09,0,0,1-.0158-.02.0923.0923,0,0,1-.01-.0273l-.0029-.0139-.02.0278v.0452l.0008.0014a.3726.3726,0,0,0,.0254.04.3629.3629,0,0,0,.0266.0328v.0323H3.7952L3.7814,2.094l-.0048-.0067c-.0038-.0055-.0073-.0107-.0138-.0109-.0087,0-.014.0091-.0158.0122L3.7462,2.09v.05l.0407.0407v.0855H3.7806V2.1885l0-.0009a.0231.0231,0,0,0-.013-.0143.02.02,0,0,0-.0167,0l-.0082.0086L3.7307,2.17a.1393.1393,0,0,0-.0432-.0262l-.0084-.0032v.0789l.004.0016a.06.06,0,0,1,.02.0132.0609.0609,0,0,1,.0132.02v.0355l-.0174.0153H3.6708v-.03L3.623,2.2265v.1962H3.3108V2.4076H3.2722v.0151H3.2116V2.2012L3.2,2.2249c-.002.0039-.02.0388-.0471.0392-.0075,0-.0124-.0012-.0144-.004-.0039-.0054-.0006-.022.019-.0422l.0018-.002,0-.0731-.0111.0136a.0733.0733,0,0,1-.0195.017l-.0129.0054-.0028-.0042,0-.01.0046-.0033.0094-.0057a.0556.0556,0,0,0,.0144-.0167l.0008-.0014v-.06l-.0113.0157a.0323.0323,0,0,1-.0218.0137l-.0106-.0022a.0139.0139,0,0,1,0-.0146l.0049-.0048.0093-.008a.0556.0556,0,0,0,.01-.0159L3.1231,2.06l0-.0636-.0111.015a.0683.0683,0,0,1-.0174.0161l-.0086.0047v-.07l-.0543-.0544a.04.04,0,0,0-.01-.03.0369.0369,0,0,0-.0162-.01l-.0009,0H2.9968l-.0009,0a.0378.0378,0,0,0-.0163.01.04.04,0,0,0-.01.03l-.0543.0544v.07l-.0086-.0047A.0667.0667,0,0,1,2.89,2.0116l-.0111-.015,0,.0636,0,.0012a.0556.0556,0,0,0,.01.0159l.0093.008.0049.0048a.0139.0139,0,0,1,0,.0146l-.0106.0022A.0321.0321,0,0,1,2.87,2.0932l-.0113-.0156v.06l.0008.0014a.0543.0543,0,0,0,.0144.0167l.0094.0057.0046.0033,0,.01-.0028.0042-.0129-.0054a.0737.0737,0,0,1-.02-.017l-.011-.0135,0,.0731.0018.0019c.02.02.0229.0368.019.0422-.002.0028-.0069.0041-.0145.004-.0269,0-.0451-.0353-.0471-.0392L2.79,2.2012V2.33H2.7439V2.3061H2.701v.0927L2.6522,2.35v.2682l.054.0776v.2681l-.0428.0615H2.5866V3.104H2.5337v.105H2.4545v.1444H2.3624v.16H2.2811v.1806h3.42V3.5131ZM5.607,3.3659v.1472H5.0919V3.3659H5.607Zm-1.6256-.735H3.8736V2.548a.0478.0478,0,0,1,.0161.0092.0472.0472,0,0,1,.0134.02l.0071.0191.0048-.02a.2885.2885,0,0,1,.0324-.0787.2165.2165,0,0,1,.034-.04l.0048-.0048.0047.0048a.2168.2168,0,0,1,.0341.04.2883.2883,0,0,1,.0323.0787l.0049.02.007-.0192a.0478.0478,0,0,1,.0295-.0288v.0829Zm.0983.0125V2.96H4.0529V2.6434ZM3.932,2.96V2.6434H4.04V2.96Zm.1084.0125v.0533H3.932V2.9721Zm-1.1929,0L2.81,3.0254H2.7166l.0371-.0533ZM2.7827,2.96v-.21h.0412v.21Zm.08.0125H2.898l-.0372.0533H2.8256ZM2.862,2.96V2.65l-.0457-.0458h.0468v.0415h.01l.03.0306V2.96Zm.0153-.3278-.001.001H2.8756V2.5472l.0216.015a.4708.4708,0,0,1,.0408.0337l.0089.0083.0015-.0121a.1237.1237,0,0,1,.0139-.0436.1257.1257,0,0,1,.0382-.0426.1226.1226,0,0,1,.0522.0862l.0015.0121.0089-.0083a.4708.4708,0,0,1,.0408-.0337l.0216-.015v.0856H3.1248l-.001-.001-.001.001H2.8783Zm.1028-.55a.0615.0615,0,0,1,.01-.0195l.01-.0113.01.0113a.063.063,0,0,1,.01.02l.0023.0077.0224-.0137v.0208l-.0058.004-.01.0083A.1857.1857,0,0,0,3.0037,2.09l-.0032-.0018L2.9974,2.09a.1857.1857,0,0,0-.0265.0184l-.01-.0083-.0058-.004V2.0757l.0224.0137Zm-.012-.0392-.0148-.0139V2.01l.0048.0039.0058.0062.0056.0075.0047-.0081.0128-.0171.0061-.0067.0074-.0079.0075.0079.006.0067.0128.0171.0048.0081L3.0372,2.02l.0057-.0062L3.0478,2.01v.0187l-.0148.0139-.0121.0123v0a.0728.0728,0,0,0-.0169-.0167l-.0034-.0022-.0033.0022a.0728.0728,0,0,0-.0169.0167l0,0Zm.0068.0795a.1592.1592,0,0,1,.0256-.0188.16.16,0,0,1,.0257.0188.1633.1633,0,0,1,.0214.0241l.0053.0073.005-.0076.01-.01.007-.0041v.03l-.0164.0134-.0117.0131-.01-.014a.1.1,0,0,0-.0333-.0273l-.0028-.0013-.0027.0013a.1007.1007,0,0,0-.0334.0273l-.01.014-.0117-.0131-.0164-.0134v-.03l.0069.0041.01.01.005.0076.0053-.0073A.1633.1633,0,0,1,2.9749,2.1219Zm-.02.1007a.09.09,0,0,1,.0188-.04A.0922.0922,0,0,1,3.0005,2.16a.094.094,0,0,1,.0453.0629l.0024.0127.0085-.01L3.0732,2.21l.0141-.01v.0449a.1347.1347,0,0,1-.0157.0217l-.0174.0162a.3126.3126,0,0,0-.0491-.0717l-.0046-.0051-.0046.0051a.3168.3168,0,0,0-.0491.0717L2.93,2.2665a.1353.1353,0,0,1-.0158-.0217V2.2l.0142.01.0165.0158.0084.01Zm0,.0723a.3.3,0,0,1,.0457-.07.3013.3013,0,0,1,.0458.07.2922.2922,0,0,1,.0183.051l.0032.0123.0078-.01a.2158.2158,0,0,1,.0256-.0276l.0222-.0175v.066A.1105.1105,0,0,0,3.087,2.42l-.0129.0139a.2039.2039,0,0,0-.07-.1061H2.9967a.2039.2039,0,0,0-.07.1061L2.9141,2.42a.1124.1124,0,0,0-.0364-.0514V2.303L2.9,2.3205a.2158.2158,0,0,1,.0256.0276l.0077.01.0033-.0122A.2922.2922,0,0,1,2.9548,2.2949Zm-.0306.1584.0064.0033.0053-.005A.1864.1864,0,0,1,2.96,2.3885a.1883.1883,0,0,1,.0405-.0473.1908.1908,0,0,1,.0647.11l.0053.005.0064-.0033a.08.08,0,0,1,.029-.0315l.0189-.0085v.0612a.1347.1347,0,0,0-.0332.04.1372.1372,0,0,0-.0113.0268A.1847.1847,0,0,0,3.004,2.44H2.997a.1943.1943,0,0,0-.0509.0491.191.191,0,0,0-.0253.0517.1358.1358,0,0,0-.0445-.0664V2.4133l.0189.0085A.0812.0812,0,0,1,2.9242,2.4533Zm.15.1164-.0111.0094A.1354.1354,0,0,0,3.05,2.5426a.1382.1382,0,0,0-.0458-.0494l-.0035-.0024-.0034.0024a.1382.1382,0,0,0-.0458.0494.1357.1357,0,0,0-.0134.0365L2.9269,2.57a.1733.1733,0,0,1,.0736-.1168.1729.1729,0,0,1,.0737.1168Zm.0232.1062.03-.0306h.01V2.6038h.0468L3.1391,2.65v.31H3.0974Zm-.0125-.0052V2.96H3.0727V2.6453H3.11Zm-.0122.3014h.0152l.0371.0533H3.0727Zm.03,0h.0382l.0371.0533H3.14Zm.0534,0h.1091l.0077.0109v0h0l.0293.0421H3.1936ZM3.1772,2.96v-.21h.0411v.21Zm.1085.0195v-.007h.3811L3.63,3.0254H3.318ZM3.88,2.6434V2.96H3.8129V2.61l-.031-.032h.0793v.0651Zm.0453-.1319a.2948.2948,0,0,0-.0184.0464l-.0092-.01A.06.06,0,0,0,3.87,2.5341a.3709.3709,0,0,0-.0363-.0205l-.0043-.0021ZM3.76,2.4921V2.3963a.1974.1974,0,0,1,.0823.0849v.0109Zm.2147-.7307.0114-.0106,0,0,0,0,.0114.0106A.0873.0873,0,0,1,4.01,1.786l.0028.0092L4.02,1.7888a.097.097,0,0,1,.0215-.0143l.0125-.005v.0274a.1533.1533,0,0,0-.0232.0142L4.012,1.828a.133.133,0,0,0-.02-.0216l-.0055-.0049-.0055.0049a.1288.1288,0,0,0-.02.0216l-.0192-.0169a.1476.1476,0,0,0-.0231-.0142V1.77l.0125.005a.097.097,0,0,1,.0215.0143l.0072.0064.0029-.0092A.0873.0873,0,0,1,3.9745,1.7614Zm-.02-.021-.0085-.0029V1.7148l.0033.0018.0088.0079.0055.0071.0047-.0077.01-.0141.0084-.0109.001.0011.0073.01.01.0148.0048.0068.0052-.0066.0088-.0079.0032-.0018v.0227L4.018,1.74l-.0145.0086-.0093-.008L3.99,1.7378l-.0041-.0036-.0041.0036-.0039.0032-.0094.008Zm.0012.138a.0976.0976,0,0,1,.0072-.0293.0869.0869,0,0,1,.0235-.0309.0893.0893,0,0,1,.0235.0309.0946.0946,0,0,1,.0071.0293l.0014.0161.01-.0128a.1165.1165,0,0,1,.0264-.0251L4.07,1.8475V1.9a.1221.1221,0,0,0-.0244.0172.13.13,0,0,0-.0181.02.4433.4433,0,0,0-.03-.037l-.0074-.0085-.0047-.0057-.0048.0057L3.9741,1.9a.4433.4433,0,0,0-.03.037.1259.1259,0,0,0-.0182-.02A.1215.1215,0,0,0,3.9021,1.9V1.8475l.0159.0091a.116.116,0,0,1,.0263.0251l.01.0128ZM3.95,1.952a.382.382,0,0,1,.0338-.0434l.0027-.0031.0026.0031a.3849.3849,0,0,1,.0339.0434.489.489,0,0,1,.0251.0446l.0037.0075.0062-.0057.0194-.0172.0186-.0155v.0624H4.0082L3.99,2.0131,3.986,2.01l-.0038.0031-.0181.0148H3.8767V1.9657l.0186.0155.0194.0172.0061.0057.0037-.0075C3.9321,1.9814,3.9406,1.9664,3.95,1.952Zm.1076.0886-.0042.0032a.067.067,0,0,0-.0149.0173l-.0169-.0205Zm-.1062,0a.1678.1678,0,0,0-.0169.0205.0689.0689,0,0,0-.0149-.0173l-.0042-.0032Zm-.0071.0282a.2015.2015,0,0,1,.0422-.0428.2013.2013,0,0,1,.0421.0428.2073.2073,0,0,1,.0263.0526l.004.0119.0071-.01a.1163.1163,0,0,1,.0217-.0237.1177.1177,0,0,1,.02-.0132v.0619H4.0089l-.0078-.007L3.99,2.1314l-.0042-.0038-.0042.0038-.0107.0095-.0079.007H3.8646V2.086a.1148.1148,0,0,1,.02.0132.1163.1163,0,0,1,.0217.0237l.007.01.004-.0119A.2106.2106,0,0,1,3.944,2.0688Zm.1394.0915-.0113.01a.0852.0852,0,0,0-.0183.0271l-.0027-.0041A.2316.2316,0,0,0,4.0225,2.16Zm-.1335,0a.2316.2316,0,0,0-.0286.0325l-.0027.0041A.0869.0869,0,0,0,3.9,2.17l-.0114-.01Zm-.0184.04a.2966.2966,0,0,1,.048-.05l.0067-.0058.0067.0058a.2966.2966,0,0,1,.048.05.3741.3741,0,0,1,.0374.0672l.0037.0087.0065-.0068.0213-.02L4.1332,2.23v.0743H4.0264c-.01-.015-.0209-.0283-.03-.0395l-.01-.0133-.0105.0133c-.0089.0112-.0193.0245-.03.0395H3.8392V2.23l.0234.0186.0212.02.0066.0068.0037-.0087A.3622.3622,0,0,1,3.9315,2.2Zm.1932.1172-.0135.0149a.1418.1418,0,0,0-.0169.0276l0,.0013V2.43l-.0024.0024-.0056.0065a.4819.4819,0,0,0-.0268-.0777.3267.3267,0,0,0-.0242-.0443Zm-.1871,0a.3267.3267,0,0,0-.0242.0443.4819.4819,0,0,0-.0268.0777L3.881,2.4327,3.8786,2.43V2.361L3.878,2.36a.1414.1414,0,0,0-.0168-.0276l-.0135-.0149Zm-.0658.124.0123.0162.0081.0131.0033-.015a.4772.4772,0,0,1,.0293-.0889.4443.4443,0,0,1,.0607-.0937l.0007-.0008.0007.0009a.4408.4408,0,0,1,.0606.0936.47.47,0,0,1,.0293.0889l.0034.015.008-.0131.0123-.0162.0173-.015v.0659H4.0364L4.0357,2.491A.2282.2282,0,0,0,4,2.4481l-.0091-.0092-.0045-.0048-.0046.0048-.009.0092a.2284.2284,0,0,0-.036.0429l-.0006.0011H3.8546V2.4262Zm.2715.07-.0043.0021a.3611.3611,0,0,0-.0364.0205.06.06,0,0,0-.0281.0137l-.0092.01a.3155.3155,0,0,0-.0184-.0464ZM4.13,2.4921V2.4812a.2.2,0,0,1,.0458-.0594.2051.2051,0,0,1,.0364-.0255v.0958Zm-.33.1252v.1195H3.7609V2.96H3.68v-.326l-.0164-.0163Zm0,.132v.21h-.027v-.21Zm-.1332-.104v.0516H3.2857V2.6453Zm0,.0641v.0274H3.642V2.96H3.6057V2.7368H3.5405V2.96H3.5086V2.7368H3.4433V2.96H3.4107V2.7368H3.3455V2.96H3.3108V2.7368H3.2857V2.7094Zm0,.04v.21H3.6544v-.21Zm-.074,0v.21h-.04v-.21Zm-.0971,0v.21h-.04v-.21Zm-.0979,0v.21h-.04v-.21Zm-.1,0v.21H3.2857v-.21Zm.3837.2228H3.79l-.0372.0533h-.108Zm.1233,0h.08l-.0371.0533h-.08Zm.2869-.3287h.019V2.5783h.0793L4.16,2.61V2.96H4.0922Zm.5727.0934V2.96H4.63V2.7368H4.565V2.96H4.5324V2.7368H4.4671V2.96H4.4352V2.7368H4.37V2.96H4.3337V2.7368H4.3052V2.7094h.3909v.0274Zm.0312.0125v.21H4.6774v-.21Zm-.0784,0v.21h-.04v-.21Zm-.0978,0v.21H4.48v-.21Zm-.0972,0v.21h-.04v-.21Zm-.1014,0v.21H4.3085v.0122l-.0033-.0047V2.7493Zm-.0161-.0524V2.6453h.3909v.0516Zm-.0125-.0633V2.96H4.2115V2.7368h-.04V2.6173h.1372Zm-.0937.1157v.21H4.1719v-.21ZM4.16,2.9721h.0078l.0371.0533H4.1361L4.099,2.9721Zm.023,0h.1109l.0371.0533H4.22Zm.1261,0h.3875v.007l-.0322.0463H4.3458Zm.4.0112h0v0l.0076-.0109h.1092l-.0371.0533H4.6791ZM4.7636,2.96v-.21h.0411v.21Zm.077.0125h.0382l-.0371.0533H4.8035ZM4.8428,2.96V2.65l-.0457-.0458h.0468v.0415h.01l.03.0306V2.96Zm.0153-.3278-.001.001H4.8564V2.5472l.0216.015a.4708.4708,0,0,1,.0408.0337l.0089.0083.0015-.0121a.1231.1231,0,0,1,.0139-.0436.1257.1257,0,0,1,.0382-.0426.1226.1226,0,0,1,.0522.0862l.0015.0121.0089-.0083a.4708.4708,0,0,1,.0408-.0337l.0216-.015v.0856H5.1056l-.001-.001-.001.001H4.8591Zm.1028-.55a.0619.0619,0,0,1,.01-.02l.01-.0113.01.0113a.0636.0636,0,0,1,.01.0195l.0023.0078.0224-.0137v.0208l-.0058.004-.01.0083A.1857.1857,0,0,0,4.9845,2.09l-.0032-.0018L4.9782,2.09a.1857.1857,0,0,0-.0265.0184l-.01-.0083-.0058-.004V2.0757l.0224.0137Zm-.012-.0393-.0148-.0139V2.01l.0048.0039.0058.0062.0056.0075.0047-.0081.0128-.0171.0061-.0067.0074-.0079.0075.0079.0061.0067.0127.0171.0048.0081L5.018,2.02l.0058-.0062L5.0286,2.01v.0187l-.0148.0139-.012.0123,0,0a.0728.0728,0,0,0-.0169-.0167l-.0034-.0022-.0033.0022a.0728.0728,0,0,0-.0169.0167l0,0Zm.0068.0795a.1592.1592,0,0,1,.0256-.0188.1552.1552,0,0,1,.0257.0188.1633.1633,0,0,1,.0214.0241l.0053.0073.005-.0076.01-.01.0069-.0041v.03l-.0164.0134-.0117.0131-.01-.014a.1.1,0,0,0-.0333-.0273l-.0028-.0013-.0027.0013a.1.1,0,0,0-.0333.0273l-.01.014-.0117-.0131-.0164-.0134v-.03l.0069.0041.01.01.005.0076.0053-.0073A.1633.1633,0,0,1,4.9557,2.1219Zm-.02.1007a.0911.0911,0,0,1,.0188-.04A.0922.0922,0,0,1,4.9813,2.16a.094.094,0,0,1,.0453.0629l.0024.0127.0085-.01L5.054,2.21l.0141-.01v.0449a.1347.1347,0,0,1-.0157.0217l-.0173.0162A.3168.3168,0,0,0,4.986,2.211l-.0046-.0051-.0046.0051a.3162.3162,0,0,0-.0492.0717L4.91,2.2665a.1236.1236,0,0,1-.0157-.0217V2.2l.0141.01.0165.0158.0085.01Zm0,.0723a.3013.3013,0,0,1,.0458-.07.3.3,0,0,1,.0457.07.2922.2922,0,0,1,.0183.051l.0032.0122.0078-.01a.2158.2158,0,0,1,.0256-.0276l.0222-.0175v.066a.1124.1124,0,0,0-.0364.0514l-.0129.0139a.2039.2039,0,0,0-.07-.1061H4.9775A.1989.1989,0,0,0,4.93,2.382a.1967.1967,0,0,0-.0224.0523L4.8949,2.42a.1124.1124,0,0,0-.0364-.0514V2.303l.0222.0175a.2158.2158,0,0,1,.0256.0276l.0077.01.0033-.0123A.2922.2922,0,0,1,4.9356,2.2949Zm-.0306.1584.0064.0033.0053-.005a.1856.1856,0,0,1,.0241-.0631.1883.1883,0,0,1,.04-.0473.1895.1895,0,0,1,.0647.11l.0053.005.0064-.0033a.08.08,0,0,1,.029-.0315l.0189-.0085v.0612a.1358.1358,0,0,0-.0445.0664A.1847.1847,0,0,0,4.9848,2.44h-.007a.1851.1851,0,0,0-.0762.1008.1358.1358,0,0,0-.0445-.0664V2.4133l.0189.0085A.08.08,0,0,1,4.905,2.4533Zm.15.1164-.0111.0094a.1354.1354,0,0,0-.0133-.0365.1382.1382,0,0,0-.0458-.0494l-.0035-.0024-.0034.0024a.1382.1382,0,0,0-.0458.0494.1357.1357,0,0,0-.0134.0365L4.9077,2.57a.1733.1733,0,0,1,.0736-.1168.176.176,0,0,1,.0442.0435A.1784.1784,0,0,1,5.055,2.57Zm.1732.4024.0371.0533H5.1715l-.0371-.0533ZM5.158,2.96v-.21h.0411v.21Zm-.0017.0658H5.121l-.0371-.0533h.0353ZM5.12,2.96H5.0782V2.6759l.03-.0306h.01V2.6038h.0468L5.12,2.65Zm-.0542-.2889V2.96H5.0526V2.6453h.0385Zm-.0131.3014h.0161l.0371.0533H5.0526Zm.4623.2494v.1319h-.423V3.2215h.423Zm-.0792-.105V3.209H5.0919V3.1165Zm-.0529-.0786V3.104H5.0919V3.0379Zm-.0795-.0125H5.2805l-.0371-.0533h.0227Zm-.0224-.6089L5.3172,2.38v.234l-.054.0777V2.96H5.2505v-.338l.03-.03Zm-.03-.0979h.0179v.1829H5.2505Zm-.0581.0236H5.238v.0347H5.1924Zm0,.0472H5.238v.1157l-.0456.0457ZM5.19,2.57l.0565-.0564h.0215v.072l-.0053.0053H5.19Zm-.0071.0334h.0673l-.0126.0126V2.96H5.2116V2.7368H5.1455V2.96H5.1324V2.6547Zm-.4005-.2207v-.134a.0628.0628,0,0,0,.0462.0275.0294.0294,0,0,0,.0248-.0092c.009-.0124.0016-.0349-.0184-.0564V2.1757l.0118.0084c.0085.0051.0165.01.0246.006a.0186.0186,0,0,0,.0094-.0116A.0253.0253,0,0,0,4.88,2.1591a.02.02,0,0,0-.01-.0084l-.0075-.0045-.01-.0116V2.1119a.039.039,0,0,0,.02.0075.0251.0251,0,0,0,.0206-.0061.0258.0258,0,0,0,.002-.0291L4.8857,2.075l-.0072-.0061-.0072-.0112,0-.0266.01.0071a.0742.0742,0,0,0,.02.0091l.008.0024v-.082l.0551-.0551L4.9633,1.91A.0284.0284,0,0,1,4.97,1.8863L4.98,1.88h.0037l.01.0064a.0288.0288,0,0,1,.0063.0232l-.0006.0031.0551.0551V2.05l.008-.0024a.0757.0757,0,0,0,.02-.0091l.01-.0071,0,.0266-.0072.0112-.0073.0061-.0087.0092a.0258.0258,0,0,0,.002.0291.0251.0251,0,0,0,.0206.0061.0383.0383,0,0,0,.02-.0075v.0227l-.01.0116-.0075.0045a.02.02,0,0,0-.01.0084.0253.0253,0,0,0-.0014.0194.0186.0186,0,0,0,.0094.0116c.0081.0038.0161-.0009.0246-.006l.0118-.0084V2.211c-.02.0215-.0275.044-.0184.0564a.0294.0294,0,0,0,.0248.0092A.0628.0628,0,0,0,5.18,2.2491v.3142l-.002.002v.026H5.1188V2.5246l-.01.0059c-.011.0068-.0217.0141-.032.0217L5.07,2.5579A.1265.1265,0,0,1,5.0833,2.52a.1244.1244,0,0,1,.0324-.0376l.0024-.005V2.4054l-.0023-.0049-.0051-.0013a.0925.0925,0,0,0-.0231.0078l.0064-.01a.1.1,0,0,1,.02-.02l.0025-.0018V2.28l-.01.0058a.2146.2146,0,0,0-.0335.025l-.0195.02a.317.317,0,0,0-.0137-.0367.15.15,0,0,0,.0212-.0194A.1465.1465,0,0,0,5.08,2.25l.0008-.0015V2.18l-.0089.0044a.1318.1318,0,0,0-.0255.016l-.01.009-.0028-.0078.0143-.0168L5.0648,2.17l.0029-.0018V2.1148L5.06,2.1166a.0527.0527,0,0,0-.0192.0089l-.0073.0066L5.02,2.1173l.008-.0068.0078-.0052.0031-.0018v-.05l-.028.0171-.0023-.0049.0138-.0143.0165-.0154.0021-.0019V1.99l-.0087.0037a.06.06,0,0,0-.0171.0108l-.0015.0015-.01-.0122-.0058-.0065a.0571.0571,0,0,0-.0136-.0126l-.0033-.002-.0032.002a.0571.0571,0,0,0-.0136.0126l-.0058.0065-.01.0121-.0016-.0014a.0579.0579,0,0,0-.017-.0108L4.9216,1.99V2.034l.0021.0019.0165.0154.0138.0143-.0023.0049-.028-.0171v.05l.0031.0018.0078.0052.008.0068-.0134.0148-.0073-.0066a.0527.0527,0,0,0-.0192-.0089L4.895,2.1148v.0538l.0029.0018.0173.0139.0143.0168-.0028.0078-.01-.009a.1348.1348,0,0,0-.0255-.016L4.8821,2.18V2.248l.0008.0015a.1465.1465,0,0,0,.0181.0254.15.15,0,0,0,.0212.0194.317.317,0,0,0-.0137.0367l-.0195-.02a.2146.2146,0,0,0-.0335-.025L4.846,2.28v.0948l.0025.0018a.1.1,0,0,1,.02.02l.0064.01a.0925.0925,0,0,0-.0231-.0078l-.0051.0013-.0023.0049v.0721l.0024.005a.1244.1244,0,0,1,.0324.0376.1265.1265,0,0,1,.0135.0378l-.0075-.0057c-.01-.0077-.0211-.0149-.032-.0217l-.01-.0059v.0667H4.7848V2.58l-.002-.002Zm.0475.2716V2.96H4.8172V2.7368H4.7511V2.96H4.71l-.0011.0015V2.62l-.0161-.0162h.0869Zm-.1206-.22H4.77v.1307L4.71,2.5053ZM4.6836,2.42h.0136v.0815H4.6836Zm0,.094h.0172l.0715.0715v.0057H4.6836Zm-.3343-.0789h.3218V2.451H4.3493Zm0,.0283h.3218v.0437H4.3493Zm0,.0562h.3218v.02H4.3493Zm0,.0328h.3218v.0388H4.3493Zm.3255.0513.0213.0214v.0076H4.3112l.029-.029Zm-.3607-.0255V2.2794l.0227-.0228V2.59l-.0057.0057h-.14l.0164-.0169ZM4.225,2.21a.125.125,0,0,1,.0558-.0509v.0521a.0715.0715,0,0,0-.0206.0142.075.075,0,0,0-.0165.0251l0,.0011V2.295l.0213.0188v.1783h-.04Zm.0521.2947V2.3172h.0245v.2487h-.19V2.5435a.3631.3631,0,0,1,.0333-.0187.3736.3736,0,0,1,.05-.02h.083Zm-.0729-.2262V2.1906L4.21,2.1848l.0061,0a.0094.0094,0,0,1,.0028.012l-.0054.0086-.0008.0014v.1756a.21.21,0,0,0-.0822.074V2.4045L4.1211,2.41l-.0148.01V2.3637A.1248.1248,0,0,1,4.121,2.34a.1289.1289,0,0,1,.0229-.0226h.0018V2.2783ZM4.1812,2.12l.0017-.0012a.0885.0885,0,0,0,.0179-.0172l.0053-.0074L4.21,2.089l.0035.0043v.0413l-.0406.0406v.0907H4.1457V2.2065l-.01.0066a.3684.3684,0,0,0-.0343.0265l-.0155.0143a.3659.3659,0,0,0-.0238-.044.0734.0734,0,0,1,.0492-.05H4.12V2.12ZM4.18,2.0021,4.1821,2a.1044.1044,0,0,0,.02-.025l.0082-.018.0017.0023v.038a.3555.3555,0,0,1-.0239.0375.3649.3649,0,0,1-.0272.0335l-.0017.0018v.0371H4.12V2.0671l-.0085.0035A.1242.1242,0,0,0,4.08,2.09l-.017.0169a.2269.2269,0,0,0-.0166-.0335.0571.0571,0,0,1,.0151-.02.059.059,0,0,1,.0351-.0128h.0121V2.0021Zm-.0271-.1055.0018-.0017a.0783.0783,0,0,0,.0166-.0218.0842.0842,0,0,0,.0074-.0215l.0051.0052v.04l-.01.02a.1291.1291,0,0,1-.0153.021.0463.0463,0,0,0-.0125.0212.0433.0433,0,0,0,.0064.03H4.1082V1.94l-.01.0078-.0291.0238-.0137.012c-.0062-.0119-.0129-.0236-.02-.0349a.11.11,0,0,1,.044-.04l.0035-.0017V1.8966ZM4.11,1.8153h0l.0042-.0037.0191-.0183.01-.0119.0024.006v.0251a.0546.0546,0,0,0-.027.05.0484.0484,0,0,0,.0072.0217h-.044V1.8289l-.0085.0033a.1284.1284,0,0,0-.027.0141.1317.1317,0,0,0-.02.0171l-.006-.0192-.0025-.0051a.1413.1413,0,0,1,.02-.018l.0086-.0058ZM4.103,1.7418,4.1048,1.74l.011-.0138.0025-.0042.0021.0025v.0187l-.0121.0135a.0478.0478,0,0,0-.0141.0287l.0013.0087H4.0668V1.7534l-.0077.0018a.1015.1015,0,0,0-.0228.0081l-.0173.01-.0078-.0149.0117-.007.011-.0032.0051-.0009v-.006h.064ZM3.9664,1.52a.0221.0221,0,0,1,.04,0v.033h-.04Zm-.0328.0455h.1052v.0193H3.9336Zm-.0271.0318h.1593v.0265H3.9065Zm-.0145.039H4.08v.0234H3.892Zm-.016.0434V1.6717h.22v.0075l-.0149.0149v.0352H4.039v-.031L4.0315,1.7l-.0149.006L4.01,1.7108l-.0053-.0081-.0082-.0106-.0055-.0069-.0045-.0063-.0052.0059-.0138.0176-.0058.0082L3.9557,1.706,3.9409,1.7l-.0076-.0017v.031H3.891V1.6941Zm-.012.0776-.012-.0135V1.7246l.0021-.0025.0024.0042.0111.0138.0018.0017h.0639v.006l.0052.0009.011.0032.0117.007-.0078.0149-.0173-.01a.104.104,0,0,0-.0229-.0081l-.0076-.0018v.0408H3.8769l.0013-.0087A.048.048,0,0,0,3.864,1.7568Zm-.0382.0557V1.7874l.0024-.006.01.0119.0192.0183.0042.0037h.0633l.0086.0058a.1406.1406,0,0,1,.02.018l-.0024.0051-.0061.0192a.1359.1359,0,0,0-.02-.0171.1309.1309,0,0,0-.027-.0141L3.89,1.8289v.0552H3.8455a.0484.0484,0,0,0,.0073-.0217A.0548.0548,0,0,0,3.8258,1.8125Zm-.0126.1255a.1287.1287,0,0,1-.0154-.021l-.01-.02v-.04l.0051-.0051a.0772.0772,0,0,0,.0074.0215.08.08,0,0,0,.0165.0218l.0018.0017H3.89v.0108l.0035.0017a.1147.1147,0,0,1,.0249.0171.1075.1075,0,0,1,.019.0225c-.0071.0114-.0138.0231-.02.035l-.0137-.012-.0291-.0238-.01-.0078v.05H3.8193a.0432.0432,0,0,0,.0063-.03A.0453.0453,0,0,0,3.8132,1.938Zm-.0289.0972a.3831.3831,0,0,1-.0238-.0375V1.96l.0017-.0023.0082.018A.1044.1044,0,0,0,3.79,2l.0018.0017h.0721v.0385h.0121a.0587.0587,0,0,1,.035.0128.0576.0576,0,0,1,.0152.02.2175.2175,0,0,0-.0166.0335L3.8929,2.09a.1259.1259,0,0,0-.0322-.019l-.0086-.0035v.0405H3.8133V2.0705l-.0017-.0018A.3659.3659,0,0,1,3.7843,2.0352Zm-.0256.0994V2.0933l.0036-.0043.0039.0053.0054.0074a.086.086,0,0,0,.0179.0172l.0016.0012h.061v.04h.0088a.0748.0748,0,0,1,.03.0183A.074.074,0,0,1,3.91,2.21a.38.38,0,0,0-.0237.044L3.8708,2.24a.3864.3864,0,0,0-.0343-.0265l-.01-.0066v.0593H3.7994V2.1752Zm-.0023.05.0061,0,.0056.0058v.0878h.0586v.0389h.0017a.1245.1245,0,0,1,.0377.0465v.0555l-.0148-.01-.0092-.0051v.0517a.2146.2146,0,0,0-.0375-.0437.21.21,0,0,0-.0448-.03V2.2066L3.759,2.2052l-.0053-.0086A.01.01,0,0,1,3.7564,2.1846Zm-.0486.1292.0213-.0188V2.2515l0-.0011a.075.075,0,0,0-.0165-.0251.0729.0729,0,0,0-.0206-.0142V2.159a.1255.1255,0,0,1,.0307.02.1275.1275,0,0,1,.025.0307v.2822H3.7078Zm-.037.0034h.0245v.1874h.0829a.3716.3716,0,0,1,.083.0389v.0224h-.19Zm-.0353-.0606.0228.0228v.2989h.1062l.0163.0169h-.14L3.6355,2.59Zm-.3247.1786H3.623V2.451H3.3108Zm0,.0283H3.623v.0437H3.3108Zm0,.0562H3.623v.02H3.3108Zm0,.0328H3.623v.0388H3.3108Zm.3214.0513.029.029H3.2857V2.6252l.0214-.0214ZM3.2847,2.42h.0136v.0815H3.2847Zm-.0731.0151h.0606v.07l-.0606.0606Zm-.002.15.0714-.0715h.0173v.0772H3.21Zm-.0071.0182h.0869L3.2733,2.62v.3411L3.2722,2.96H3.2308V2.7368H3.1647V2.96H3.1516V2.6547ZM2.802,2.3831v-.134a.0628.0628,0,0,0,.0462.0275.03.03,0,0,0,.0248-.0092c.009-.0124.0016-.0349-.0184-.0564V2.1757l.0118.0084c.0085.0051.0165.01.0246.006a.0186.0186,0,0,0,.0094-.0116.0253.0253,0,0,0-.0014-.0194.02.02,0,0,0-.01-.0084l-.0074-.0045-.01-.0116V2.1119a.039.039,0,0,0,.02.0075.0251.0251,0,0,0,.0206-.0061.0258.0258,0,0,0,.002-.0291L2.9049,2.075l-.0072-.0061-.0072-.0112,0-.0266L2.9,2.0382a.0772.0772,0,0,0,.02.0091L2.928,2.05v-.082l.0551-.0551L2.9825,1.91a.0284.0284,0,0,1,.0063-.0232l.01-.0064h.0037l.01.0064a.0283.0283,0,0,1,.0062.0232l-.0005.0031.0551.0551V2.05l.008-.0024a.0757.0757,0,0,0,.02-.0091L3.11,2.0311l0,.0266-.0073.0112-.0072.0061-.0087.0092a.0258.0258,0,0,0,.002.0291.0251.0251,0,0,0,.0206.0061.0383.0383,0,0,0,.02-.0075v.0227l-.01.0116-.0075.0045a.02.02,0,0,0-.01.0084.0253.0253,0,0,0-.0014.0194A.0186.0186,0,0,0,3.11,2.19c.0081.0038.0161-.0009.0246-.006l.0118-.0084V2.211c-.02.0215-.0275.044-.0184.0564a.0294.0294,0,0,0,.0247.0092.0628.0628,0,0,0,.0463-.0275v.3293l-.002.002v.0109H3.138V2.5246l-.01.0059c-.011.0068-.0217.0141-.032.0217l-.0075.0057A.1265.1265,0,0,1,3.1025,2.52a.1244.1244,0,0,1,.0324-.0376l.0024-.005V2.4054L3.135,2.4005,3.13,2.3992a.0925.0925,0,0,0-.0231.0078l.0064-.01a.1.1,0,0,1,.02-.02l.0025-.0018V2.28l-.01.0058a.2146.2146,0,0,0-.0335.025l-.02.02A.317.317,0,0,0,3.06,2.2943a.15.15,0,0,0,.0212-.0194A.1465.1465,0,0,0,3.099,2.25L3.1,2.248V2.18l-.0089.0044a.1318.1318,0,0,0-.0255.016l-.01.009-.0028-.0078.0143-.0168L3.084,2.17l.0028-.0018V2.1148l-.0076.0018a.0527.0527,0,0,0-.0192.0089l-.0073.0066-.0134-.0148.008-.0068.0078-.0052.0031-.0018v-.05l-.028.0171-.0023-.0049.0138-.0143.0165-.0154L3.06,2.034V1.99l-.0087.0037a.06.06,0,0,0-.0171.0108l-.0015.0015-.01-.0122-.0058-.0065a.0591.0591,0,0,0-.0136-.0126l-.0033-.002-.0032.002a.0571.0571,0,0,0-.0136.0126l-.0058.0065-.01.0122-.0016-.0015a.0592.0592,0,0,0-.017-.0108L2.9408,1.99V2.034l.0021.0019.0164.0154.0139.0143-.0023.0049-.028-.0171v.05l.0031.0018.0077.0052.0081.0068-.0134.0148-.0073-.0066a.0527.0527,0,0,0-.0192-.0089l-.0077-.0018v.0538l.0029.0018.0173.0139.0143.0168-.0028.0078-.01-.009a.1348.1348,0,0,0-.0255-.016L2.9013,2.18V2.248l.0008.0015a.1465.1465,0,0,0,.0181.0254.15.15,0,0,0,.0212.0194.3176.3176,0,0,0-.0138.0367l-.0194-.02a.2146.2146,0,0,0-.0335-.025L2.8652,2.28v.0948l.0025.0018a.1.1,0,0,1,.02.02l.0064.01a.0925.0925,0,0,0-.0231-.0078l-.0051.0013-.0023.0049v.0721l.0024.005a.1244.1244,0,0,1,.0324.0376.1265.1265,0,0,1,.0135.0378l-.0075-.0057-.032-.0217-.0095-.0059v.0667H2.804v-.026l-.002-.002Zm.0475.2716V2.96H2.8364V2.7368H2.77V2.96H2.7439V2.6164l-.0126-.0126h.0673Zm-.1056-.3125H2.79v.0347H2.7439Zm0,.0472H2.79v.1614l-.0456-.0457Zm-.03.0245V2.3186h.0179v.1829H2.7135Zm0,.1H2.735l.0565.0564v.0209H2.7188L2.7135,2.586Zm-.0488.1V2.38l.0363.0363v.1747l.03.03V2.96H2.7187V2.6919Zm.051.3579h.0228l-.0371.0533H2.6786Zm.1743.7091H2.2936V3.5256H2.89Zm0-.1681H2.3749V3.3659H2.89Zm0-.16H2.467V3.2215H2.89Zm0-.1444H2.5462V3.1165H2.89Zm0-.105H2.5991V3.0379H2.89Zm.0393.5772H2.9025V3.0379h.0268Zm0-.6558H2.8761l.0371-.0533h.0161Zm0-.0658H2.9162V2.6707l-.0254-.0254h.0385Zm.1309.7216H2.9418V3.61H3.06Zm0-.0841H2.9418V3.53H3.06Zm0-.08H2.9418V3.4457H3.06Zm0-.0841H2.9418V3.3611H3.06Zm0-.0846H2.9418V3.2827H3.06Zm0-.0784H2.9418V3.2021H3.06Zm0-.0806H2.9418V3.1165H3.06Zm0-.0856H2.9418V3.0379H3.06Zm0-.0786H2.9418V2.9721H3.06Zm0-.0658H2.9418V2.6453H3.06ZM3.1,3.6812H3.0727V3.0379H3.1Zm.7807,0H3.112V3.5256H3.88Zm0-.1681H3.112V3.3659H3.88Zm0-.16H3.112V3.2215H3.88Zm0-.1444H3.112V3.1165H3.88Zm0-.105H3.112V3.0379H3.88Zm.0393.5772H3.8927V3.0379H3.92Zm0-.6558h-.056l.0371-.0533H3.92Zm0-.0658H3.8927V2.6434H3.92Zm.1309.7216H3.932V3.61H4.05Zm0-.0841H3.932V3.53H4.05Zm0-.08H3.932V3.4457H4.05Zm0-.0841H3.932V3.3611H4.05Zm0-.0846H3.932V3.2827H4.05Zm0-.0784H3.932V3.2021H4.05Zm0-.0806H3.932V3.1165H4.05Zm0-.0856H3.932V3.0379H4.05Zm.0025-.1319h.0309l.0371.0533h-.068Zm.0368.7091H4.0629V3.0379H4.09Zm.78,0H4.1022V3.5256H4.87Zm0-.1681H4.1022V3.3659H4.87Zm0-.16H4.1022V3.2215H4.87Zm0-.1444H4.1022V3.1165H4.87Zm0-.105H4.1022V3.0379H4.87Zm.0393.5772H4.8824V3.0379h.0268Zm0-.6558H4.8569l.0371-.0533h.0152Zm0-.0658H4.897V2.6707l-.0254-.0254h.0376Zm.1309.7216H4.9217V3.61H5.04Zm0-.0841H4.9217V3.53H5.04Zm0-.08H4.9217V3.4457H5.04Zm0-.0841H4.9217V3.3611H5.04Zm0-.0846H4.9217V3.2827H5.04Zm0-.0784H4.9217V3.2021H5.04Zm0-.0806H4.9217V3.1165H5.04Zm0-.0856H4.9217V3.0379H5.04Zm0-.0786H4.9217V2.9721H5.04Zm0-.0658H4.9217V2.6453H5.04Zm.0393.7216H5.0526V3.0379h.0268Zm.6089,0H5.0919V3.5256h.5964Z"/><rect width="7.9819" height="1.2961" fill="#002aa2"/><rect y="3.8922" width="7.9819" height="1.296" fill="#002aa2"/></svg>