<svg xmlns="http://www.w3.org/2000/svg" viewBox="0 0 7.9819 5.1882"><rect width="7.9819" height="5.1882" fill="red"/><rect width="3.991" height="2.5941" fill="#009"/><path d="M2.1649.7567,2.0454.32,1.9259.7567a.5557.5557,0,0,1,.239,0Z" fill="#fff"/><path d="M2.5339.4509,2.2121.7694a.5536.5536,0,0,1,.2069.12Z" fill="#fff"/><path d="M2.8916.8085l-.4383.115a.5542.5542,0,0,1,.12.2069Z" fill="#fff"/><path d="M2.5858,1.4166l.4367-.12-.4367-.1195a.5557.5557,0,0,1,0,.239Z" fill="#fff"/><path d="M2.8916,1.7857l-.3185-.3219a.5542.5542,0,0,1-.12.2069Z" fill="#fff"/><path d="M2.5339,2.1433,2.419,1.705a.5536.5536,0,0,1-.2069.12Z" fill="#fff"/><path d="M1.9259,1.8375l.1195.4367.1195-.4367a.5557.5557,0,0,1-.239,0Z" fill="#fff"/><path d="M1.5568,2.1433l.3219-.3185a.552.552,0,0,1-.2069-.12Z" fill="#fff"/><path d="M1.1992,1.7857l.4383-.115a.5544.5544,0,0,1-.12-.2069Z" fill="#fff"/><path d="M1.505,1.1776l-.4368.1195.4368.12a.5557.5557,0,0,1,0-.239Z" fill="#fff"/><path d="M1.1992.8085l.3184.3219a.5544.5544,0,0,1,.12-.2069Z" fill="#fff"/><path d="M1.5568.4509l.115.4383a.552.552,0,0,1,.2069-.12Z" fill="#fff"/><path d="M2.0454.8137a.4834.4834,0,1,0,.4833.4834A.484.484,0,0,0,2.0454.8137Z" fill="#fff"/></svg>