<svg xmlns="http://www.w3.org/2000/svg" viewBox="0 0 7.9818 5.1882"><rect width="2.6606" height="5.1882" fill="#0a1e87"/><path d="M2.6606,0V5.1882H5.3212V0ZM4.86,2.1655A2.6766,2.6766,0,0,0,4.61,3.2379L4.124,3.1721v.6746h-.27V3.1722l-.4856.0658A2.677,2.677,0,0,0,3.118,2.1655a2.67,2.67,0,0,0-.284-.471.9512.9512,0,0,1,.3815.1158.9236.9236,0,0,1,.2338.1853.3415.3415,0,0,1-.0615-.0179c-.0264-.0106-.0487-.0237-.0688-.0146l-.0065.0038a3.1022,3.1022,0,0,1,.1767.5271,3.0718,3.0718,0,0,1,.0735.4645l.2914-.0358v-.97a.8937.8937,0,0,0-.1131.01.8846.8846,0,0,0-.11.0237,1.8219,1.8219,0,0,0,.1774-.2437,1.8012,1.8012,0,0,0,.1824-.4061,1.718,1.718,0,0,0,.1093.28,1.745,1.745,0,0,0,.2467.37c-.0289-.0069-.06-.0132-.0928-.0186-.0464-.0076-.09-.0122-.13-.0148v.97l.2913.0357a3.0707,3.0707,0,0,1,.0735-.4644,3.1052,3.1052,0,0,1,.1767-.5271L4.659,1.9631c-.02-.009-.0424.004-.0689.0146a.3284.3284,0,0,1-.0614.018A.9225.9225,0,0,1,4.7624,1.81a.9517.9517,0,0,1,.3815-.1158A2.6591,2.6591,0,0,0,4.86,2.1655Z" fill="#fac828"/><rect x="5.3212" width="2.6606" height="5.1882" fill="#0a1e87"/><path d="M4.5287,1.9957a.3284.3284,0,0,0,.0614-.018c.0265-.0106.0488-.0236.0689-.0146l.0065.0038a3.1052,3.1052,0,0,0-.1767.5271,3.0707,3.0707,0,0,0-.0735.4644L4.124,2.9227v-.97c.04.0026.0837.0072.13.0148.0329.0054.0639.0117.0928.0186a1.745,1.745,0,0,1-.2467-.37,1.718,1.718,0,0,1-.1093-.28,1.8012,1.8012,0,0,1-.1824.4061,1.8219,1.8219,0,0,1-.1774.2437.8846.8846,0,0,1,.11-.0237.8937.8937,0,0,1,.1131-.01v.97l-.2914.0358a3.0718,3.0718,0,0,0-.0735-.4645,3.1022,3.1022,0,0,0-.1767-.5271l.0065-.0038c.02-.0091.0424.004.0688.0146a.3415.3415,0,0,0,.0615.0179A.9236.9236,0,0,0,3.2155,1.81a.9512.9512,0,0,0-.3815-.1158,2.67,2.67,0,0,1,.284.471A2.677,2.677,0,0,1,3.3685,3.238l.4856-.0658v.6745h.27V3.1721l.4855.0658a2.6515,2.6515,0,0,1,.5344-1.5433.9517.9517,0,0,0-.3815.1158A.9225.9225,0,0,0,4.5287,1.9957Z" fill="#050505"/></svg>