<svg xmlns="http://www.w3.org/2000/svg" viewBox="0 0 7.9819 5.1882"><path d="M1.2561,2.05l.004.0166v0Z" fill="none"/><path d="M1.2282,1.9078a.7964.7964,0,0,0,.02.1439A.85.85,0,0,1,1.2282,1.9078Z" fill="none"/><polygon points="2.19 1.482 1.199 0.741 0.208 0 0 0 0.991 0.741 1.981 1.482 2.972 2.224 3.467 2.594 2.972 2.965 1.981 3.706 0.991 4.447 0 5.188 0.208 5.188 1.199 4.447 2.19 3.706 3.18 2.965 7.982 2.965 7.982 2.224 3.18 2.224 2.19 1.482" fill="#010101"/><polygon points="3.18 2.224 7.982 2.224 7.982 1.482 2.19 1.482 3.18 2.224" fill="#cf0506"/><polygon points="0.208 5.188 7.982 5.188 7.982 4.447 1.199 4.447 0.208 5.188" fill="#096505"/><polygon points="2.19 3.706 7.982 3.706 7.982 2.965 3.18 2.965 2.19 3.706" fill="#cf0506"/><polygon points="0.208 0 1.199 0.741 7.982 0.741 7.982 0 0.208 0" fill="#096505"/><polygon points="2.19 1.482 7.982 1.482 7.982 0.741 1.199 0.741 2.19 1.482" fill="#f9cd09"/><polygon points="1.199 4.447 7.982 4.447 7.982 3.706 2.19 3.706 1.199 4.447" fill="#f9cd09"/><path d="M1.343,2.9992c-.0559,0-.1123.002-.1683.0067Q1.132,3.01,1.09,3.015l.0085.0466.0077.051a1.3921,1.3921,0,0,1,.5138.0113l.0226.0049c0-.0349.0012-.07.0042-.1041a1.926,1.926,0,0,0-.1934-.0218C1.4163,3.0006,1.38,2.9993,1.343,2.9992Z" fill="#f9cd09"/><path d="M1.2691,2.9647l-.015-.0165L1.246,2.9393l-.0212.0254-.01.0124-.0158.0189q.0474-.0033.095-.0044Z" fill="#f9cd09"/><path d="M1.0894,1.8355a.0172.0172,0,1,0-.0171-.0171A.0172.0172,0,0,0,1.0894,1.8355Z" fill="#f9cd09"/><path d="M1.3217,2.9647l.0233-.0293c-.0253,0-.0507.0009-.076.0021l-.0133.0006.0049.0054.0193.0212.0223.0246Z" fill="#f9cd09"/><path d="M1.4246,2.9822l.0144-.0175.0222-.0271C1.4306,2.9361,1.4,2.9354,1.37,2.9353H1.3634l.0082.0084.02.021.0256.0263Z" fill="#f9cd09"/><path d="M1.343,2.9912c.0216,0,.0432,0,.0649.0014l-.0271-.0279L1.3539,2.937l-.022.0277-.0211.0266H1.343Z" fill="#f9cd09"/><path d="M1.9812,3.7058l.9906-.7411.4953-.3706-.4953-.3706-.9906-.7412L.9906.7412,0,0V5.1882L.9906,4.447ZM.38,2.2235.2,2.0928h.8522l.001-.0032V1.96a.0578.0578,0,0,0-.0184-.0342.0532.0532,0,0,0-.0238-.01A.0915.0915,0,0,1,.9766,1.902C.972,1.8989.95,1.8832.9542,1.8731c.0023-.005.0092-.0049.03-.0044H.9847c.028.0006.0334.0007.0386-.0033s.0085-.009.0076-.0114C1.0285,1.8474.9937,1.8485.9629,1.85L.9486,1.85c-.0173.0007-.0237.001-.0277-.005A.0192.0192,0,0,1,.92,1.83a.07.07,0,0,1,.0335-.04.0527.0527,0,0,1,.0275-.0056.124.124,0,0,0,.0274-.0028A.0786.0786,0,0,0,1.0362,1.77.0986.0986,0,0,1,1.06,1.7582a.146.146,0,0,1,.0987.0062h0l.0916-.2822.0651-.2.065.2.1983.6105h.8523l-.18.1307-.4.2906c.0533.04.0733.0561.0663.07-.0056.0111-.0175.01-.1152-.0143q-.0233.0383-.043.0784l.1029.3167.1429.4395-.37-.2686a1.3807,1.3807,0,0,0-.616.0022l-.0031-.0006-.0017-.0026-.0021-.011-.3862.2806.1428-.4395L.89,2.5937Z" fill="#fefefe"/><path d="M1.5075,2.999l-.0246-.0343-.0157-.0218-.0179.0218-.0182.0222-.0053.0064.0153.0009C1.4633,2.9955,1.4854,2.997,1.5075,2.999Z" fill="#f9cd09"/><path d="M1.0615,2.8953l.0051.0192.056-.0578q-.0351.0034-.07.008Z" fill="#f9cd09"/><path d="M1.1919,2.9008l.0448-.0536q-.0486.0031-.097.0078Z" fill="#f9cd09"/><path d="M.6265,3.4042l.3862-.2806c-.01-.0533-.0215-.1064-.0348-.1589-.01-.04-.0216-.0805-.0338-.12l-.012-.0376L.9284,2.8063c-.0129-.0052-.0138-.03-.01-.0455a.06.06,0,0,1,.0132-.0255l.0073-.01a.07.07,0,0,0,.0107-.0366.1417.1417,0,0,1,.0048-.03.2625.2625,0,0,1,.0593-.088l.0181-.0208c.0154-.0174.0225-.0253.0236-.0394a.0627.0627,0,0,0-.0118-.0378l-.0051-.0093a.2052.2052,0,0,1-.0066-.1348.2577.2577,0,0,1,.0223-.0618l0-.0007V2.09l-.001.0032H.2l.18.1307.51.37-.1205.371Z" fill="#cf0506"/><path d="M1.0753,2.9169q.0549-.0066.11-.0109l-.0539-.0474Z" fill="#f9cd09"/><path d="M1.1988,2.905c.0327-.0023.0655-.004.0982-.0051l-.0509-.0516Z" fill="#f9cd09"/><path d="M1.3064,2.9l.0459-.0009c.0189,0,.0379,0,.0569,0l-.0553-.0529Z" fill="#f9cd09"/><path d="M1.3015,2.8931l.0451-.051q-.0457.0013-.0915.0039Z" fill="#f9cd09"/><path d="M1.3523,2.9067l-.0309.0006-.0113,0c-.08.0022-.161.0083-.2406.0182l.0053.0213c.0215-.003.0432-.0056.0649-.0079l.003-.0013.0023.0007q.0488-.0049.0977-.0077v0l.003-.0014.0029.0012.0319-.0014c.0229-.0009.0457-.0015.0685-.0016h.0027l.0016-.0005.002,0H1.37c.0662,0,.1328.0035.199.01h.0006c.029.0028.058.0062.0867.01L1.66,2.9226A2.5142,2.5142,0,0,0,1.3523,2.9067Z" fill="#f9cd09"/><path d="M1.6616,2.9147c.0033-.0171.0071-.0342.0112-.0512l-.04.0482Z" fill="#f9cd09"/><path d="M1.5435,2.9647l.0171-.02c-.029-.0026-.0579-.0047-.087-.0062l.0191.0265.0234.0325Z" fill="#f9cd09"/><path d="M1.6689,2.92h0l-.0076.0451a1.0911,1.0911,0,0,0-.011.1691l-.0015.0032-.0025.0009H1.6454l-.01-.0022.37.2686-.1429-.4395L1.76,2.648a1.0606,1.0606,0,0,0-.0458.1071A1.0426,1.0426,0,0,0,1.6689,2.92Z" fill="#cf0506"/><path d="M1.6447,2.9647l.0073-.01q-.0378-.0051-.0761-.009l.011.0188.0254.0434Z" fill="#f9cd09"/><path d="M1.5777,2.9647l-.01-.0166-.014.0166-.03.0358q.04.004.0805.01Z" fill="#f9cd09"/><path d="M1.1324,2.9479l-.0558.0069.0023.01.0082.0379.0314-.0379Z" fill="#f9cd09"/><path d="M1.19,2.9944l.0248-.03.0213-.0255c-.0283.0017-.0565.0039-.0846.0068l.0149.0187Z" fill="#f9cd09"/><path d="M1.1558,2.9647l-.0132-.0166-.0137.0166-.0345.0416q.0435-.0055.0873-.009Z" fill="#f9cd09"/><path d="M1.6731,2.8506q-.0479-.0039-.096-.0061l.0508.0612Z" fill="#f9cd09"/><path d="M1.2837,2.6385l-.0125.0069a.3.3,0,0,0-.0574.0417.17.17,0,0,1-.0494.033c-.0125.0059-.0245.0107-.0351.0148-.0272.0107-.0469.0184-.0522.0368l-.0018.0109a.0947.0947,0,0,1-.0074.029.0729.0729,0,0,1-.0218.0315l.0042.0138c.0643-.0081.1292-.0142.1941-.0182l.0013,0h.0011q.0618-.0038.1234-.005a3.0705,3.0705,0,0,1,.3078.01q.0122-.0459.0284-.0906c.0073-.02.0153-.04.0238-.06-.0679-.0151-.1372-.0273-.2061-.0361A2.3021,2.3021,0,0,0,1.2837,2.6385Zm.0132.1688a.0607.0607,0,1,1,.0607-.0607A.0608.0608,0,0,1,1.2969,2.8073Zm.3039-.054A.0607.0607,0,1,1,1.54,2.6926.0608.0608,0,0,1,1.6008,2.7533Z" fill="#f9cd09"/><path d="M1.0784,2.2235a.4524.4524,0,0,1,.1475-.137.0871.0871,0,0,1,.0279-.0116l-.0055-.0232a.7964.7964,0,0,1-.02-.1439l0-.0066A.1555.1555,0,0,0,1.2089,1.82a.1273.1273,0,0,0-.0521-.0478l-.0011,0a.1374.1374,0,0,0-.0929-.0058.0947.0947,0,0,0-.0224.01.0865.0865,0,0,1-.0308.0125.1314.1314,0,0,1-.0291.003.0443.0443,0,0,0-.0238.0047.0605.0605,0,0,0-.0294.035.0121.0121,0,0,0,0,.0092c.0014.0022.0065.002.0208.0014l.0144-.0006c.0482-.0015.0715-.0018.0757.01.0029.008-.0055.0169-.01.02-.0076.0057-.0152.0055-.0436.0048H.9837a.1593.1593,0,0,0-.0221,0,.0611.0611,0,0,0,.0194.0184.0845.0845,0,0,0,.0321.0127A.0606.0606,0,0,1,1.04,1.92a.0652.0652,0,0,1,.0213.0392v.2925Zm.011-.43a.0252.0252,0,1,1-.0251.0252A.0252.0252,0,0,1,1.0894,1.7932Z" fill="#f9cd09"/><path d="M1.088,2.2235a.298.298,0,0,0-.0486.1059.1991.1991,0,0,0,.0058.13l.005.0091a.07.07,0,0,1,.0127.0423c-.0013.0168-.0094.0259-.0256.0441L1.02,2.5754A.2576.2576,0,0,0,.9617,2.66a.1406.1406,0,0,0-.0046.0287.0762.0762,0,0,1-.0118.04L.9375,2.74a.0536.0536,0,0,0-.0117.0225c-.0035.0158-.0008.0338.0056.0363l.0059-.0008.0012-.0028V2.7906l0-.0088a.1016.1016,0,0,1,.0083-.0311l.0067-.0139.0054-.0015.0015.0054-.0062.013a.0918.0918,0,0,0-.0077.0288l0,.0081v.0046l.0065.0087L.96,2.8058.964,2.7975l.0009-.0043,0-.0051V2.7857l0-.0071a.0308.0308,0,0,1,.008-.0169l.0068-.01a.0717.0717,0,0,0,.0086-.0261L.99,2.7219a.4.4,0,0,1,.1066-.13l.0218-.0214c.0449-.0444.0554-.0575.0626-.0778a.1492.1492,0,0,0,.0048-.0768l.0032-.0046.0047.0032a.1569.1569,0,0,1-.0052.0808c-.0077.0218-.0185.0354-.0644.0808l-.0219.0215a.4028.4028,0,0,0-.1044.1256l-.0006.0034a.08.08,0,0,1-.01.0288L.98,2.7666A.023.023,0,0,0,.9734,2.78v.009h0v0l0,.0052v.0084l.0029.0139L.9836,2.82l.0046-.0237V2.7951L.9909,2.78a.0591.0591,0,0,1,.0123-.0219l.0046-.0011.0024.0041c-.0044.0492,0,.0655.003.0672l.0032.0008.0049-.01a.3347.3347,0,0,0,.0069-.0438l.0042-.0036.0038.0041c-.0015.0563.005.0606.0057.0609.0027,0,.0115-.0108.0187-.0277a.0855.0855,0,0,0,.0067-.0268L1.07,2.77c.0063-.0222.0286-.0309.0569-.042.01-.0041.0223-.0088.0346-.0146a.1618.1618,0,0,0,.0474-.0317.323.323,0,0,1,.0587-.0427l.0141-.0077h0c.02-.01.0472-.022.0928-.0417l.0278-.0118a.0989.0989,0,0,0,.0352-.045.06.06,0,0,0,.0048-.0239.0654.0654,0,0,0-.0243-.0455c-.0446-.0135-.09-.0269-.1349-.0387a.1567.1567,0,0,1-.036-.0149l-.0007,0c-.0166-.0093-.0672-.0376-.0652-.0817a.08.08,0,0,1,.03-.0561l.0057,0-.0006.0056a.0717.0717,0,0,0-.0271.05c-.0018.0392.0455.0658.0611.0745l.0007,0a.1432.1432,0,0,0,.0342.014c.0454.012.091.0255.1358.0391h0l.05.0154c.0732.0225.1489.0458.2245.0642l.07.017.0257.0063c.0866.0212.117.0281.12.0219.0041-.008-.0235-.0292-.0659-.0613L1.84,2.5153c-.0421-.0318-.1-.0753-.1743-.139-.06-.0511-.1248-.0978-.1877-.143l-.0136-.01c-.0576-.0414-.1164-.0842-.1711-.1306a.0466.0466,0,0,0-.0195-.01.0615.0615,0,0,0-.0437.0106A.4477.4477,0,0,0,1.088,2.2235Z" fill="#f9cd09"/><path d="M1.0707,2.9647q-.0078-.0339-.0169-.0672l-.016-.0543c-.0037-.0021-.0069-.0078-.0086-.0232v.0005c-.0011.0047-.0035.0145-.0109.0164a.0126.0126,0,0,1-.009-.0017c-.0029-.0017-.0114-.0066-.0081-.0595l-.0025.0066-.0024.0139v.0007c-.0035.0237-.004.0274-.0091.03A.0161.0161,0,0,1,.97,2.8218l-.0044-.01-.0033.002L.9584,2.814l-.01-.0033L.9422,2.8043.94,2.8057l.0117.0366c.0125.04.0239.0812.0344.1224.0129.0508.0242.1022.0338.1537l.002.0106c.0252-.0057.05-.0108.076-.0151l-.007-.047Q1.0824,3.0155,1.0707,2.9647Z" fill="#f9cd09"/><path d="M1.6471,3.0167c.0016-.0166.0035-.0332.0059-.05l-.0339.0454Z" fill="#f9cd09"/><circle cx="1.5401" cy="2.7533" r="0.0527" fill="#f9cd09"/><path d="M1.37,2.8415l-.0093,0,.0516.0493.0437-.05Q1.4133,2.8407,1.37,2.8415Z" fill="#f9cd09"/><path d="M1.7631,2.56l-.07-.017c-.0315-.0077-.0631-.0163-.0945-.0252a.0931.0931,0,0,1-.0476.05.0778.0778,0,0,1-.0459.0018.1684.1684,0,0,0-.0444-.0029.29.29,0,0,0-.0838.03c-.0355.0154-.06.026-.0782.0346.0754.0022.1514.0081.2261.0177.07.0089.14.0212.2084.0366.0071-.0162.0147-.0323.0227-.0481q.0178-.0355.0384-.07l-.0124-.003Z" fill="#f9cd09"/><path d="M1.2157,1.8158a.1641.1641,0,0,1,.02.0851l0,.0066a.845.845,0,0,0,.02.1425l.0039.0163v0l.0015.0063v.001a.0473.0473,0,0,1,.0139.001.0532.0532,0,0,1,.0227.0119c.0574.0487.1195.0934.18.1367l.0046.0033c.0631.0453.1283.0921.1883.1434.0744.0635.1319.107.1739.1387l.0069.0052.4-.2906.18-.1307H1.5793l-.1983-.61-.065-.2-.0651.2-.0916.2822A.1348.1348,0,0,1,1.2157,1.8158Z" fill="#cf0506"/><path d="M1.4162,2.8989c.0329.0005.0659.0017.0988.0035l-.0522-.0566Z" fill="#f9cd09"/><path d="M1.5209,2.9024l0,0c.0336.0019.0673.0045.1008.0078L1.57,2.8479Z" fill="#f9cd09"/><path d="M1.5179,2.8938l.0448-.05c-.0311-.0014-.0622-.0022-.0933-.0026Z" fill="#f9cd09"/><circle cx="1.2969" cy="2.7466" r="0.0527" fill="#f9cd09"/><path d="M1.0536,2.2529v.0127l0,.0007a.2577.2577,0,0,0-.0223.0618.2052.2052,0,0,0,.0066.1348l.0051.0093A.0627.0627,0,0,1,1.055,2.51c-.0011.0141-.0082.022-.0236.0394L1.0133,2.57a.2625.2625,0,0,0-.0593.088.1417.1417,0,0,0-.0048.03.07.07,0,0,1-.0107.0366l-.0073.01a.06.06,0,0,0-.0132.0255c-.0034.0153-.0025.04.01.0455l.0037.0008.012.0376c.0122.0395.0235.08.0338.12.0133.0525.025.1056.0348.1589l.0021.011.0017.0026.0031.0006a1.3807,1.3807,0,0,1,.616-.0022l.01.0022h.0009l.0025-.0009L1.65,3.1338a1.0911,1.0911,0,0,1,.011-.1691L1.6689,2.92h0a1.0426,1.0426,0,0,1,.045-.1645A1.0606,1.0606,0,0,1,1.76,2.648q.02-.04.043-.0784c.0977.0238.11.0254.1152.0143.007-.0137-.013-.03-.0663-.07l-.0069-.0052c-.042-.0317-.0995-.0752-.1739-.1387-.06-.0513-.1252-.0981-.1883-.1434l-.0046-.0033c-.06-.0433-.1223-.088-.18-.1367a.0532.0532,0,0,0-.0227-.0119.0473.0473,0,0,0-.0139-.001v-.001L1.26,2.0666,1.2561,2.05a.845.845,0,0,1-.02-.1425l0-.0066a.1641.1641,0,0,0-.02-.0851.1348.1348,0,0,0-.0564-.0513h0A.146.146,0,0,0,1.06,1.7582a.0986.0986,0,0,0-.0242.0113.0786.0786,0,0,1-.0283.0115.124.124,0,0,1-.0274.0028.0527.0527,0,0,0-.0275.0056A.07.07,0,0,0,.92,1.83a.0192.0192,0,0,0,.0014.0156c.004.006.01.0057.0277.005L.9629,1.85c.0308-.001.0656-.0021.068.0046.0009.0024-.0028.0079-.0076.0114s-.0106.0039-.0386.0033H.9839c-.02,0-.0274-.0006-.03.0044-.0047.01.0178.0258.0224.0289a.0915.0915,0,0,0,.0348.0139.0532.0532,0,0,1,.0238.01.0578.0578,0,0,1,.0184.0342v.293Zm-.0317.8761L1.02,3.1184C1.01,3.0669.999,3.0155.9861,2.9647c-.01-.0412-.0219-.0821-.0344-.1224L.94,2.8057l.0022-.0014.0066.0064.01.0033.0038-.0006.0033-.002.0044.01a.0161.0161,0,0,0,.0171.0049c.0051-.0024.0056-.0061.0091-.03V2.7962l.0024-.0139.0025-.0066c-.0033.0529.0052.0578.0081.0595a.0126.0126,0,0,0,.009.0017c.0074-.0019.01-.0117.0109-.0164V2.82c.0017.0154.0049.0211.0086.0232l.016.0543q.0091.0333.0169.0672.0117.0507.02.1022l.007.047C1.0724,3.1182,1.0471,3.1233,1.0219,3.129Zm.634-.1816c-.0287-.004-.0577-.0074-.0867-.01H1.5686c-.0662-.0064-.1328-.01-.199-.01H1.3554l-.002,0-.0016.0005H1.3491c-.0228,0-.0456.0007-.0685.0016L1.2487,2.93l-.0029-.0012-.003.0014v0q-.0489.0027-.0977.0077l-.0023-.0007-.003.0013c-.0217.0023-.0434.0049-.0649.0079L1.07,2.9257c.08-.01.16-.016.2406-.0182l.0113,0,.0309-.0006a2.5142,2.5142,0,0,1,.3079.0159Zm-.0088.0693-.028-.0044.0339-.0454C1.6506,2.9835,1.6487,3,1.6471,3.0167Zm-.5682-.052-.0023-.01.0558-.0069-.0139.0168-.0314.0379Zm.05,0,.0137-.0166.0132.0166.0259.0326q-.0438.0034-.0873.009Zm.0222-.0187c.0281-.0029.0563-.0051.0846-.0068l-.0213.0255-.0248.03-.0236-.03Zm.0633.0311.01-.0124.0212-.0254.0081.0089.015.0165.0245.0269q-.0476.0011-.095.0044ZM1.28,2.9647l-.0193-.0212-.0049-.0054.0133-.0006c.0253-.0012.0507-.0019.076-.0021l-.0233.0293-.02.0246Zm.052,0,.022-.0277.0269.0277.0271.0279c-.0217-.0009-.0433-.0013-.0649-.0014H1.3108Zm.06,0-.02-.021-.0082-.0084H1.37c.03,0,.061.0008.0916.0023l-.0222.0271-.0144.0175-.0071.0088Zm.0392.0222.0182-.0222.0179-.0218.0157.0218.0246.0343c-.0221-.002-.0442-.0035-.0664-.0048l-.0153-.0009Zm.0616-.0222-.0191-.0265c.0291.0015.058.0036.087.0062l-.0171.02-.0274.0325Zm.0613,0,.014-.0166.01.0166.0266.0455q-.04-.0057-.0805-.01Zm.0329,0-.011-.0188q.0382.0039.0761.009l-.0073.01-.0324.0434Zm.0346-.0542c-.0335-.0033-.0672-.0059-.1008-.0078l0,0L1.57,2.8479Zm-.0444-.066q.0481.0023.096.0061l-.0452.0551Zm-.0592.0493-.0485-.0526c.0311,0,.0622.0012.0933.0026Zm-.0029.0086c-.0329-.0018-.0659-.003-.0988-.0035l.0466-.0531ZM1.4126,2.891,1.361,2.8417l.0093,0q.0429-.0007.086,0Zm-.0034.0078c-.019,0-.038,0-.0569,0L1.3064,2.9l.0475-.0537Zm-.1077-.0057L1.2551,2.846q.0457-.0026.0915-.0039ZM1.297,2.9c-.0327.0011-.0655.0028-.0982.0051l.0473-.0567Zm-.1051.0009L1.14,2.855q.0484-.0046.097-.0078Zm-.0062.0052q-.0555.0042-.11.0109l.0565-.0583Zm-.1191.0085-.0051-.0192-.0088-.0306q.0348-.0045.07-.008Zm.5756.2143L1.62,3.1239a1.3921,1.3921,0,0,0-.5138-.0113l-.0077-.051L1.09,3.015q.0423-.0056.0851-.0091c.056-.0047.1124-.007.1683-.0067.0366,0,.0733.0014.11.0037a1.926,1.926,0,0,1,.1934.0218C1.6434,3.0591,1.642,3.0939,1.6422,3.1288Zm.0194-.2141-.0283-.003.04-.0482C1.6687,2.8805,1.6649,2.8976,1.6616,2.9147Zm.0448-.1623q-.0162.0447-.0284.0906a3.0705,3.0705,0,0,0-.3078-.01q-.0615.0014-.1234.005H1.2457l-.0013,0c-.0649.004-.13.01-.1941.0182l-.0042-.0138a.0729.0729,0,0,0,.0218-.0315.0947.0947,0,0,0,.0074-.029l.0018-.0109c.0053-.0184.025-.0261.0522-.0368.0106-.0041.0226-.0089.0351-.0148a.17.17,0,0,0,.0494-.033.3.3,0,0,1,.0574-.0417l.0125-.0069a2.3021,2.3021,0,0,1,.24.0181c.0689.0088.1382.021.2061.0361C1.7217,2.7124,1.7137,2.7323,1.7064,2.7524Zm.05-.1152c-.008.0158-.0156.0319-.0227.0481-.0687-.0154-.1387-.0277-.2084-.0366-.0747-.01-.1507-.0155-.2261-.0177.0182-.0086.0427-.0192.0782-.0346a.29.29,0,0,1,.0838-.03.1684.1684,0,0,1,.0444.0029.0778.0778,0,0,0,.0459-.0018.0931.0931,0,0,0,.0476-.05c.0314.0089.063.0175.0945.0252l.07.017.0191.0047.0124.003Q1.7741,2.6017,1.7562,2.6372ZM1.5476,2.533,1.54,2.5281l.0074-.005c.0041,0,.0074.0022.0074.005S1.5517,2.533,1.5476,2.533Zm.01.01c0,.0027-.0033.005-.0074.005s-.0074-.0023-.0074-.005.0033-.005.0074-.005S1.5576,2.5405,1.5576,2.5433Zm-.0148.01-.0073.0049c-.0041,0-.0074-.0022-.0074-.0049s.0033-.005.0074-.005S1.5428,2.5505,1.5428,2.5533ZM1.54,2.5166l-.0073-.005c0-.0027.0033-.005.0073-.005s.0074.0023.0074.005S1.5443,2.5166,1.54,2.5166Zm-.0034.0217c0,.0028-.0033.005-.0074.005s-.0074-.0022-.0074-.005.0033-.005.0074-.005S1.5368,2.5355,1.5368,2.5383Zm-.0148-.012c-.0041,0-.0074-.0022-.0074-.005s.0033-.005.0074-.005.0074.0022.0074.005S1.5261,2.5263,1.522,2.5263Zm-.0024.022c0,.0027-.0034.005-.0074.005s-.0074-.0023-.0074-.005.0033-.005.0074-.005Zm-.005-.039c-.004,0-.0073-.0023-.0073-.005l.0073-.005c.0041,0,.0074.0022.0074.005S1.5187,2.5093,1.5146,2.5093Zm-.0024.0224c0,.0028-.0033.005-.0074.005s-.0074-.0022-.0074-.005.0033-.005.0074-.005S1.5122,2.529,1.5122,2.5317ZM1.4954,2.52c-.0041,0-.0074-.0023-.0074-.005s.0033-.005.0074-.005.0074.0022.0074.005S1.5,2.52,1.4954,2.52Zm0,.0216c0,.0027-.0033.005-.0074.005l-.0073-.005c0-.0028.0033-.005.0073-.005S1.4954,2.5389,1.4954,2.5417ZM1.49,2.5023c-.004,0-.0073-.0022-.0073-.005s.0033-.005.0073-.005.0074.0023.0074.005S1.4941,2.5023,1.49,2.5023Zm-.0047.0228L1.478,2.53c-.0041,0-.0074-.0022-.0074-.0049s.0033-.005.0074-.005Zm-.0147.0182c.0041,0,.0074.0022.0074.005s-.0033.005-.0074.005-.0074-.0023-.0074-.005S1.4665,2.5433,1.4706,2.5433ZM1.4617,2.54c-.0041,0-.0074-.0022-.0074-.005s.0033-.005.0074-.005.0074.0023.0074.005S1.4658,2.54,1.4617,2.54Zm.0118-.0284c-.0041,0-.0074-.0022-.0074-.005s.0033-.005.0074-.005l.0073.005C1.4808,2.5094,1.4775,2.5116,1.4735,2.5116ZM1.4617,2.494c-.0041,0-.0074-.0022-.0074-.005s.0033-.005.0074-.005.0074.0022.0074.005S1.4658,2.494,1.4617,2.494Zm-.0047.0211c.0041,0,.0074.0022.0074.005s-.0033.005-.0074.005L1.45,2.52C1.45,2.5173,1.453,2.5151,1.457,2.5151Zm0,.0332c0,.0027-.0033.005-.0073.005s-.0074-.0023-.0074-.005.0033-.005.0074-.005Zm.1089-.0232c-.0041,0-.0074-.0023-.0074-.005s.0033-.005.0074-.005.0073.0022.0073.005Zm.01.0116c0,.0027-.0033.005-.0074.005s-.0074-.0023-.0074-.005.0033-.005.0074-.005S1.5762,2.5339,1.5762,2.5367Zm-.3025-.454a.0466.0466,0,0,1,.0195.01c.0547.0464.1135.0892.1711.1306l.0136.01c.0629.0452.128.0919.1877.143.0746.0637.1322.1072.1743.139l.005.0037c.0424.0321.07.0533.0659.0613-.0031.0062-.0335-.0007-.12-.0219L1.765,2.5521l-.07-.017c-.0756-.0184-.1513-.0417-.2245-.0642l-.05-.0154h0c-.0448-.0136-.09-.0271-.1358-.0391a.1432.1432,0,0,1-.0342-.014l-.0007,0c-.0156-.0087-.0629-.0353-.0611-.0745a.0717.0717,0,0,1,.0271-.05l.0006-.0056-.0057,0a.08.08,0,0,0-.03.0561c-.002.0441.0486.0724.0652.0817l.0007,0a.1567.1567,0,0,0,.036.0149c.0451.0118.09.0252.1349.0387a.0654.0654,0,0,1,.0243.0455.06.06,0,0,1-.0048.0239.0989.0989,0,0,1-.0352.045l-.0278.0118c-.0456.02-.0732.0317-.0927.0417h0l-.0141.0077a.323.323,0,0,0-.0587.0427.1618.1618,0,0,1-.0474.0317c-.0123.0058-.0242.01-.0346.0146-.0283.0111-.0506.02-.0569.042l-.0022.0122a.0855.0855,0,0,1-.0067.0268c-.0072.0169-.016.0277-.0187.0277-.0007,0-.0072-.0046-.0057-.0609l-.0038-.0041-.0042.0036a.3347.3347,0,0,1-.0069.0438l-.0049.01-.0032-.0008c-.0029-.0017-.0074-.018-.003-.0672L1.0078,2.757l-.0046.0011A.0591.0591,0,0,0,.9909,2.78l-.0026.0151v.0007L.9836,2.82.9757,2.8163.9728,2.8024V2.794l0-.0052v0h0V2.78A.023.023,0,0,1,.98,2.7666l.0075-.0109a.08.08,0,0,0,.01-.0288l.0006-.0034a.4028.4028,0,0,1,.1044-.1256l.0219-.0215c.0459-.0454.0567-.059.0644-.0808a.1569.1569,0,0,0,.0052-.0808l-.0047-.0032-.0032.0046a.1492.1492,0,0,1-.0048.0768c-.0072.02-.0177.0334-.0626.0778l-.0218.0214a.4.4,0,0,0-.1066.13l-.0007.0037A.0717.0717,0,0,1,.98,2.7517l-.0068.01a.0308.0308,0,0,0-.008.0169l0,.0071v.0024l0,.0051L.964,2.7975.96,2.8058.953,2.8039.9465,2.7952V2.7906l0-.0081a.0918.0918,0,0,1,.0077-.0288l.0062-.013L.9593,2.7353l-.0054.0015-.0067.0139a.1016.1016,0,0,0-.0083.0311l0,.0088v.0047l-.0012.0028-.0059.0008C.925,2.7964.9223,2.7784.9258,2.7626A.0536.0536,0,0,1,.9375,2.74l.0078-.0109a.0762.0762,0,0,0,.0118-.04A.1406.1406,0,0,1,.9617,2.66.2576.2576,0,0,1,1.02,2.5754l.0178-.0207c.0162-.0182.0243-.0273.0256-.0441A.07.07,0,0,0,1.05,2.4683l-.005-.0091a.1991.1991,0,0,1-.0058-.13.298.298,0,0,1,.0486-.1059.4477.4477,0,0,1,.142-.13A.0615.0615,0,0,1,1.2737,2.0827ZM1.0616,2.065V1.9587A.0652.0652,0,0,0,1.04,1.92a.0606.0606,0,0,0-.0271-.0114A.0845.0845,0,0,1,.981,1.8954.0611.0611,0,0,1,.9616,1.877a.1593.1593,0,0,1,.0221,0H.9845c.0284.0007.036.0009.0436-.0048.0048-.0036.0132-.0125.01-.02-.0042-.0117-.0275-.0114-.0757-.01l-.0144.0006c-.0143.0006-.0194.0008-.0208-.0014a.0121.0121,0,0,1,0-.0092.0605.0605,0,0,1,.0294-.035.0443.0443,0,0,1,.0238-.0047.1314.1314,0,0,0,.0291-.003A.0865.0865,0,0,0,1.04,1.7763a.0947.0947,0,0,1,.0224-.01.1374.1374,0,0,1,.0929.0058l.0011,0a.1273.1273,0,0,1,.0521.0478.1555.1555,0,0,1,.0191.0813l0,.0066a.85.85,0,0,0,.02.1439l.0055.0232a.0871.0871,0,0,0-.0279.0116.4524.4524,0,0,0-.1475.137l-.0168.0277V2.065Z" fill="#010101"/><path d="M1.0894,1.8435a.0252.0252,0,1,0-.0251-.0251A.0252.0252,0,0,0,1.0894,1.8435Zm0-.0423a.0172.0172,0,1,1-.0171.0172A.0172.0172,0,0,1,1.0894,1.8012Z" fill="#010101"/><path d="M1.2969,2.6859a.0607.0607,0,1,0,.0607.0607A.0607.0607,0,0,0,1.2969,2.6859Zm0,.1134A.0527.0527,0,1,1,1.35,2.7466.0528.0528,0,0,1,1.2969,2.7993Z" fill="#010101"/><path d="M1.4794,2.7533A.0607.0607,0,1,0,1.54,2.6926.0607.0607,0,0,0,1.4794,2.7533ZM1.54,2.7006a.0527.0527,0,1,1-.0527.0527A.0528.0528,0,0,1,1.54,2.7006Z" fill="#010101"/><circle cx="1.4617" cy="2.489" r="0.0074" fill="#f9cd09"/><path d="M1.49,2.4923c-.004,0-.0073.0023-.0073.005s.0033.005.0073.005.0074-.0022.0074-.005S1.4941,2.4923,1.49,2.4923Z" fill="#f9cd09"/><path d="M1.5146,2.4993l-.0073.005c0,.0027.0033.005.0073.005s.0074-.0023.0074-.005S1.5187,2.4993,1.5146,2.4993Z" fill="#f9cd09"/><path d="M1.54,2.5066c-.004,0-.0073.0023-.0073.005l.0073.005c.0041,0,.0074-.0022.0074-.005S1.5443,2.5066,1.54,2.5066Z" fill="#f9cd09"/><path d="M1.5659,2.5151c-.0041,0-.0074.0022-.0074.005s.0033.005.0074.005l.0073-.005C1.5732,2.5173,1.57,2.5151,1.5659,2.5151Z" fill="#f9cd09"/><path d="M1.5476,2.5231l-.0074.005.0074.0049c.0041,0,.0074-.0022.0074-.0049S1.5517,2.5231,1.5476,2.5231Z" fill="#f9cd09"/><circle cx="1.522" cy="2.5213" r="0.0074" fill="#f9cd09"/><circle cx="1.4954" cy="2.5151" r="0.0074" fill="#f9cd09"/><path d="M1.4735,2.5016c-.0041,0-.0074.0023-.0074.005s.0033.005.0074.005.0073-.0022.0073-.005Z" fill="#f9cd09"/><path d="M1.45,2.52l.0073.005c.0041,0,.0074-.0023.0074-.005s-.0033-.005-.0074-.005S1.45,2.5173,1.45,2.52Z" fill="#f9cd09"/><path d="M1.4706,2.5251c0,.0027.0033.0049.0074.0049l.0073-.0049L1.478,2.52C1.4739,2.52,1.4706,2.5223,1.4706,2.5251Z" fill="#f9cd09"/><circle cx="1.5048" cy="2.5317" r="0.0074" fill="#f9cd09"/><circle cx="1.5294" cy="2.5383" r="0.0074" fill="#f9cd09"/><circle cx="1.5502" cy="2.5433" r="0.0074" fill="#f9cd09"/><circle cx="1.5122" cy="2.5483" r="0.0074" fill="#f9cd09"/><path d="M1.5281,2.5533c0,.0027.0033.0049.0074.0049l.0073-.0049c0-.0028-.0033-.005-.0073-.005S1.5281,2.5505,1.5281,2.5533Z" fill="#f9cd09"/><circle cx="1.4706" cy="2.5483" r="0.0074" fill="#f9cd09"/><path d="M1.4423,2.5483c0,.0027.0033.005.0074.005s.0073-.0023.0073-.005L1.45,2.5433C1.4456,2.5433,1.4423,2.5455,1.4423,2.5483Z" fill="#f9cd09"/><path d="M1.4807,2.5417l.0073.005c.0041,0,.0074-.0023.0074-.005s-.0033-.005-.0074-.005S1.4807,2.5389,1.4807,2.5417Z" fill="#f9cd09"/><circle cx="1.4617" cy="2.535" r="0.0074" fill="#f9cd09"/><circle cx="1.5688" cy="2.5367" r="0.0074" fill="#f9cd09"/></svg>