<svg xmlns="http://www.w3.org/2000/svg" viewBox="0 0 7.9818 5.1882"><rect width="7.9818" height="5.1882" fill="#003d93"/><polygon points="0 5.023 0 5.113 7.982 2.118 7.982 1.069 0 5.023" fill="#fff"/><polygon points="2.78 2.168 2.208 1.951 2.208 1.951 3.247 1.89 2.208 1.828 2.208 1.828 2.78 1.611 2.177 1.71 2.176 1.709 2.673 1.352 2.116 1.604 2.115 1.603 2.502 1.129 2.029 1.516 2.028 1.516 2.28 0.958 1.923 1.455 1.922 1.454 2.021 0.851 1.804 1.423 1.804 1.423 1.742 0.384 1.681 1.422 1.681 1.423 1.464 0.85 1.563 1.454 1.562 1.454 1.205 0.958 1.456 1.515 1.456 1.516 0.982 1.128 1.369 1.602 1.369 1.602 0.811 1.351 1.308 1.708 1.307 1.709 0.704 1.61 1.276 1.827 1.276 1.827 0.237 1.888 1.275 1.949 1.275 1.95 0.703 2.167 1.307 2.068 1.307 2.069 0.81 2.426 1.368 2.174 1.368 2.175 0.981 2.649 1.455 2.261 1.455 2.262 1.204 2.82 1.561 2.323 1.561 2.323 1.463 2.927 1.679 2.355 1.68 2.355 1.741 3.394 1.802 2.355 1.803 2.355 2.019 2.927 1.921 2.324 1.921 2.324 2.279 2.82 2.027 2.263 2.028 2.262 2.501 2.65 2.114 2.176 2.115 2.176 2.672 2.427 2.176 2.07 2.176 2.069 2.78 2.168" fill="#fff"/><polygon points="0 4.938 7.982 0.08 7.982 1.099 0 5.023 0 4.938" fill="#dd7500"/></svg>