<svg xmlns="http://www.w3.org/2000/svg" viewBox="0 0 7.9818 5.1882"><rect width="7.9818" height="1.7294" fill="#ce0026"/><rect y="1.7294" width="7.9818" height="1.7294" fill="#fff5f9"/><rect y="3.4588" width="7.9818" height="1.7294" fill="#0a0205"/><polygon points="4.095 3.063 4.11 2.982 4.062 2.909 4.095 3.063" fill="#fdfefb"/><path d="M4.0656,2.7642l-.0289.0277.0206.0961.0012.0019.03-.0978Z" fill="#fdfefb"/><path d="M4.14,2.7436l-.031-.0283q-.0178.0223-.0377.043l.06.0737Z" fill="#fdfefb"/><path d="M4.225,2.7572,4.18,2.6046c-.0077.0151-.0162.03-.0254.0454l.0033-.0055L4.1575,2.65l-.0092.09.0585.0534Z" fill="#fdfefb"/><path d="M4.0267,3.1611l-.004.0005a.0282.0282,0,0,0-.0141.0169.06.06,0,0,0,.01.0488l.0112-.0129.02-.0192-.0028-.0041L4.04,3.1824l-.0047-.0042L4.0289,3.17l-.0012-.0089Z" fill="#fdfefb"/><path d="M3.834,2.6661l.0069.0675L3.8664,2.71c-.009-.0112-.0177-.0227-.0259-.0345Z" fill="#fdfefb"/><polygon points="3.92 2.909 3.871 2.982 3.887 3.063 3.92 2.909" fill="#fdfefb"/><path d="M4.1484,2.66l-.0059.009c-.009.0136-.0186.0269-.0286.04l.027.0246Z" fill="#fdfefb"/><path d="M3.9244,2.888l.0208-.097-.0293-.0265-.0224.0276.03.0978Z" fill="#fdfefb"/><path d="M3.7546,3.1307l-.0169-.0644-.039.0544C3.7172,3.1246,3.7359,3.1279,3.7546,3.1307Z" fill="#fdfefb"/><path d="M4.0447,3.1413l.0036-.0019c.0182.0009.0365.0012.0548.001l-.007-.0328-.02.0242-.0056,0L4.037,3.1055l-.0015-.0026-.0164-.1151.0074.1134-.0008.0027-.0321.0429L3.99,3.1484h0l-.0032-.0016-.0312-.0426-.0008-.0026.0064-.1195-.0161.12-.0014.0025-.0329.0274-.0055,0-.02-.0218L3.8786,3.14c.0183,0,.0366,0,.0549-.001l.0036.0019a.0238.0238,0,0,0,.0132.0113l.0047,0,.0067.0009a.0347.0347,0,0,1,.0189.0215l.0018.0054h.017l.0017-.0054A.0349.0349,0,0,1,4.02,3.154l.0067-.0009.0047,0A.0238.0238,0,0,0,4.0447,3.1413Z" fill="#fdfefb"/><path d="M3.7844,3.1346l.0348.0033-.0141-.0368Z" fill="#fdfefb"/><path d="M3.87,3.14l.0122-.0568-.0177-.0919-.0462.0692-.0039.0017L3.8115,3.06l-.0241-.07-.0437.0676.0195.0745h.001l.0114.0014L3.8025,3.09l.0038-.0019.0034.0025.0184.0479Z" fill="#fdfefb"/><path d="M4.1625,3.1379l.0349-.0033-.0207-.0335Z" fill="#fdfefb"/><path d="M4.05,3.1475a.0309.0309,0,0,1-.0142.012l0,.0076.0043.0049.0052.0047.0079.01.0043.0051a.0239.0239,0,0,0,.015.0033c.0136,0,.0595-.0025.1256-.0068a.0349.0349,0,0,1-.001-.0152c.0019-.0128.0117-.0272.024-.0282a.0246.0246,0,0,1,.0195.0087.0435.0435,0,0,1,.0121.0262c.0592-.0109.1246-.0237.1324-.0272l.0029-.0019c.0027-.0026.0037-.007.0035-.0155A.1178.1178,0,0,0,4.3885,3.11l-.0094-.0067a.9306.9306,0,0,1-.16.0367A.92.92,0,0,1,4.05,3.1475Zm.0655.0307-.0051.0037-.0017,0L4.0864,3.176l-.0211-.0021L4.06,3.1683l.0053-.0051h0l.0226.0023.0241.006Zm.0718-.0034h0L4.162,3.1739c-.0072,0-.0144,0-.0217,0l-.0056-.0051L4.14,3.1636c.0075,0,.0149-.0005.0222,0l.0258.0009.005.0057Zm.1435-.044.02-.0089a.1133.1133,0,0,1,.0258-.0057l.0058.0048-.0048.0059a.1032.1032,0,0,0-.0233.0051L4.3363,3.14l-.0027.0007L4.329,3.1381Zm-.0734.021.0264-.0081.0245-.0055.0063.0043-.0043.0063-.0238.0052-.0255.0079-.0018,0-.005-.0036Z" fill="#fdfefb"/><path d="M4.0992,3.0835l.0121.0568.0423-.0018.0185-.0479.0033-.0025.0038.0019.0269.0435.0114-.0014h.001l.02-.0745L4.1944,2.99,4.17,3.06l-.0033.0026-.0038-.0017-.0462-.0692Z" fill="#fdfefb"/><path d="M3.7485,2.7569l.0079-.2591q-.0084-.03-.0136-.058l-.0161.3914Z" fill="#fdfefb"/><path d="M3.91,2.7588q-.02-.02-.0386-.0423l-.03.0271.009.0884Z" fill="#fdfefb"/><path d="M3.735,3.0562h0l-.0312-.1186L3.6532,3.11l.0369.0089Z" fill="#fdfefb"/><polygon points="3.774 2.855 3.777 2.858 3.797 2.927 3.842 2.867 3.846 2.865 3.849 2.869 3.869 2.971 3.917 2.899 3.887 2.8 3.851 2.845 3.848 2.846 3.847 2.846 3.844 2.843 3.834 2.75 3.776 2.803 3.774 2.804 3.773 2.804 3.77 2.802 3.753 2.769 3.71 2.918 3.77 2.856 3.774 2.855" fill="#fdfefb"/><polygon points="4.084 3.307 4.079 3.312 4.084 3.318 4.09 3.312 4.084 3.307" fill="#fdfefb"/><path d="M3.7568,2.7572l.0182.0366L3.8335,2.74l-.0091-.0892Q3.8112,2.63,3.8,2.6089Z" fill="#fdfefb"/><path d="M4.2831,3.1207l-.039-.0544-.0169.0644Q4.2553,3.1265,4.2831,3.1207Z" fill="#fdfefb"/><path d="M3.7742,3.2662l-.0047,0-.0055.0091a.0088.0088,0,0,0,.0117.0044l.0034-.0033A.0083.0083,0,0,0,3.7742,3.2662Z" fill="#fdfefb"/><path d="M3.6,3.2486a.0078.0078,0,1,0,.0079.0078A.0078.0078,0,0,0,3.6,3.2486Z" fill="#fdfefb"/><path d="M4.389,3.16c-.01.0047-.0986.0212-.136.0281l0-.0009-.0049.011-.01.0209L4.2327,3.23l-.0035.0025h0l-.0035-.0021-.0062-.01-.0079-.01-.0035-.0041-.0063-.01h0c-.0675.0045-.1145.0067-.1283.0071H4.0709A.0311.0311,0,0,1,4.0562,3.2l-.0209.02-.0142.0168-.0032.0015h0l-.0033-.0016a.0937.0937,0,0,1-.0161-.04H3.9833a.0934.0934,0,0,1-.0162.04l-.0032.0016h0l-.0033-.0015L3.9465,3.22,3.9256,3.2a.0311.0311,0,0,1-.0147.0032H3.9084c-.0137,0-.0607-.0026-.1282-.0071h0l-.0063.01-.0034.0041-.008.01-.0062.01-.0035.0021h0L3.7491,3.23l-.0047-.0111-.01-.0209-.0049-.011,0,.0009c-.0374-.0069-.1256-.0234-.136-.0281l-.005-.0032h0a.09.09,0,0,0-.026.0126l-.0078.0061-.0047.0224-.006.0062a.0532.0532,0,0,0-.0251.013l-.0064.0074a.0489.0489,0,0,1-.0154.0143L3.4948,3.24l0,0a.0424.0424,0,0,1,.01.025.0292.0292,0,0,0,.0056.0162.0247.0247,0,0,0,.0144.0073.0081.0081,0,0,1,.0064.0091.0439.0439,0,0,0,.0043.03.0491.0491,0,0,0,.0288.02,1.5109,1.5109,0,0,0,.3695.0391l.0483-.0006H4l.0484.0006a1.5109,1.5109,0,0,0,.3695-.0391.0489.0489,0,0,0,.0287-.02.0439.0439,0,0,0,.0044-.03.008.008,0,0,1,.0064-.0091.025.025,0,0,0,.0144-.0073.0291.0291,0,0,0,.0055-.0162.0419.0419,0,0,1,.01-.025l0,0-.0017-.0009A.05.05,0,0,1,4.47,3.2246l-.0064-.0074a.0527.0527,0,0,0-.0251-.013L4.4325,3.198l-.0047-.0223L4.42,3.17a.0883.0883,0,0,0-.026-.0126h0Zm-.7931.0538a.0078.0078,0,1,1-.0079.0078A.0078.0078,0,0,1,3.5959,3.2139Zm.0013.0845a.0079.0079,0,1,1,.0078-.0079A.0078.0078,0,0,1,3.5972,3.2984ZM3.62,3.304a.0079.0079,0,1,1,.0079-.0079A.0078.0078,0,0,1,3.62,3.304Zm.0356.0114a.0079.0079,0,1,1,.0078-.0079A.0078.0078,0,0,1,3.6551,3.3154Zm-.07-.0438c-.0085-.0022-.01-.0069-.0066-.0149a.03.03,0,0,1,.0222-.0173.0413.0413,0,0,0,.018-.033L3.6113,3.204l-.01.0042a.0071.0071,0,0,1-.0086-.0064A.0058.0058,0,0,1,3.6,3.1959a.0552.0552,0,0,0,.0286-.0037c.0079-.0029.0063.0045.0049.0091l-.0156.051c-.0014.0044-.0049.0094,0,.0136a.0137.0137,0,0,0,.014.0024c.0048-.0017.0053-.0072.0064-.0134a.0092.0092,0,0,0-.0008-.0072L3.6347,3.245l.0119-.0069.0093-.0054c.0031.0018-.0017.0218-.006.0318l-.0006.0085.0032.0022c.0066.002.0137.0062.0205.0032.0053-.0024.0058-.0086.0052-.0142,0-.0036-.006-.0074-.0012-.0106a.0464.0464,0,0,1,.0168-.0076c.0044-.001.0038.0039.0031.0068l-.0091.0349a.0093.0093,0,0,1-.0132.0072Zm.25-.0347c-.0054.0276-.0057.0559-.012.0833-.0027.0115-.0086.0193-.0207.0188a.0152.0152,0,0,1-.0153-.019c0-.0044-.0021-.0056-.0055-.0056a.0113.0113,0,0,1-.0124-.01c-.0013-.0052-.0059-.0051-.008-.002-.0064.01-.0145.0059-.0227.0046a.0241.0241,0,0,0-.0253.0071l-.008.0059c-.01.006-.0273,0-.0272-.004s.0231-.0021.0288-.0148a.0234.0234,0,0,0,.0006-.0206l-.002-.0074c.0025-.0045.0039-.0116.0093-.012l.0031,0,.0032.0108a.03.03,0,0,0,.0059.02.0176.0176,0,0,0,.0129.0027c.0027,0,.0124,0,.0144-.0057L3.754,3.2844,3.745,3.28l-.0071-.0032-.0008-.0033c0-.0047.0052-.0079.0071-.0092.0071-.0046.01-.0018.0149-.0058l.0075-.01c.002-.0017.0065-.0057.011-.0048l.0091.01c.01.0149.0045.0107.0115.0186.0085.01.0067.0141-.0057.0162-.0034.0006-.0079,0-.0085.0045s.0024.0065.0065.0069a.0108.0108,0,0,1,.0106.0136c0,.004.0015.0074.006.0072l.0047-.0071L3.82,3.2554l0-.0066c-.01-.0117.0013-.013.0079-.0168S3.8368,3.2308,3.8356,3.2369ZM3.838,3.32l-.0015-.0072.01-.0751.0024-.006.0085.0082.0078.008L3.86,3.2532l-.0028.005a.0942.0942,0,0,0-.0037.0255l-.0009.0172-.0012.0114c-.0007.0027-.0031.0111-.0077.0115Zm.1792.0116c-.01,0-.0184-.0013-.024.0122s-.0246.012-.0306-.0029A.0126.0126,0,0,0,3.95,3.3321L3.9034,3.328a.0139.0139,0,0,0-.0141.0078.0432.0432,0,0,1-.0172.0144c-.0118.0053-.0275,0-.0278-.0032l.0016-.0021.0109-.001a.0234.0234,0,0,0,.021-.0157.0259.0259,0,0,0-.004-.0207l-.0051-.0083.0069-.01c.0042-.004.0057-.004.0063-.0039l.0042.0049.0066.0161a.0076.0076,0,0,0,.0082.0054c.0053,0,.005-.0039.0055-.0074a.0257.0257,0,0,0-.0015-.0157l-.0015-.0036.0051-.01h.0109l.0032.0069.0018.0057.0114.0026a.4072.4072,0,0,1,.0468.0021c.01,0,.0157.0025.0147.0137,0,.0032-.0012.0079.004.0085s.005-.0042.0061-.0073c.0051-.0141.0187-.0152.03-.0195l.0053.003.0013.0052C4.0517,3.3293,4.0506,3.3307,4.0172,3.332Zm.0466-.0846a.0079.0079,0,1,1-.0079.0079A.0078.0078,0,0,1,4.0638,3.2474Zm-.0062.0286a.0079.0079,0,1,1,.0078.0079A.0078.0078,0,0,1,4.0576,3.276Zm.033.0763a.0079.0079,0,0,1-.0078-.0079.0078.0078,0,1,1,.0156,0A.0079.0079,0,0,1,4.0906,3.3523Zm.0214,0a.0079.0079,0,0,1-.0078-.0079.0079.0079,0,0,1,.0157,0A.0079.0079,0,0,1,4.112,3.3523Zm.0193-.0264c-.0176.0028-.0357.0007-.053.0051-.012.002-.0135-.0035-.0121-.0139a.0247.0247,0,0,1,.014-.0225l.0078-.0065c.0016-.0027.0006-.0042,0-.0142l-.0034-.0171-.0035-.0026-.003-.0023c-.0013-.0031.0065-.0094.013-.0121l.0039,0,.0022.0075L4.1027,3.3c.0007.0054,0,.0127.0073.0142a.0124.0124,0,0,0,.012-.0215c-.0026-.0027-.0061-.005-.0019-.0085s.0073-.0074.0125-.0066.004.0051.0044.0087a.2558.2558,0,0,0,.0036.0277C4.1424,3.3225,4.1391,3.3247,4.1313,3.3259Zm.0412.0115a.032.032,0,0,1-.0328.0081l.0044-.0036L4.15,3.3383a.0247.0247,0,0,0,.0139-.018.0227.0227,0,0,0-.01-.0192l-.0047-.0047.0022-.0055L4.16,3.2776l.0026.0016.0057.0079.0079.0153A.0368.0368,0,0,1,4.1725,3.3374Zm.2091-.0311a.0078.0078,0,1,1,.0078-.0078A.0078.0078,0,0,1,4.3816,3.3063Zm.0221-.0446c.0033.0032.01.0051.0089.0106s-.0062.0042-.01.0052l-.03.0079a.0429.0429,0,0,0-.026.0142.02.02,0,0,1-.0275.0033c-.0078-.0044-.0132-.0052-.0143.0062a.02.02,0,0,1-.0154.0183.019.019,0,0,1-.0211-.0108A.011.011,0,0,0,4.2544,3.31a.05.05,0,0,0-.0239.0072c-.004.0033-.0019.0045-.0074.0113A.0314.0314,0,0,1,4.21,3.34a.03.03,0,0,1-.0126.0017L4.1913,3.34l.0022-.0032c.0054-.0045.0092-.0031.0144-.0068.001-.0007.0063-.0045.0055-.0085s-.0052-.0037-.0088-.0034-.0108.0039-.0132-.0019a.023.023,0,0,1,.0005-.0206.04.04,0,0,1,.0116-.0128c.0132-.0086.0153-.0078.02.0071.0012.004.0011.0092.0076.0091s.0051-.0059.0061-.01A.0319.0319,0,0,1,4.25,3.268c.0057-.0036.0075-.0073.0025-.0127-.0078-.0085,0-.0136.0051-.0174s.0078.0017.0083.0059a.0213.0213,0,0,0,.0192.0212c.0066.0012.0092.0078.0127.0131.0064.01.0108.01.0172.0006.01-.015.0155-.0159.0315-.0052.0035.0023.0071.0046.0111.0024s.0019-.0068.001-.0106L4.35,3.2262c-.0035-.0135-.01-.0166-.0224-.01l-.0093,0c-.0023-.0031-.0068-.0053-.0064-.01s.0056-.0052.0092-.0062c.0269-.0075.0407.002.0442.03L4.37,3.255c.0039.0134.0107.016.0229.0089Z" fill="#fdfefb"/><polygon points="4.26 3.284 4.26 3.284 4.257 3.283 4.257 3.283 4.255 3.283 4.255 3.284 4.254 3.284 4.254 3.284 4.253 3.295 4.26 3.295 4.261 3.294 4.261 3.294 4.26 3.284" fill="#fdfefb"/><path d="M3.7594,3.1531H3.7586a.0183.0183,0,0,0-.0123.0064.0334.0334,0,0,0-.01.0244l.0044.0106.0108.0215.0017.0039.0025-.0037.0086-.0108.0031-.0037a.039.039,0,0,0,.0086-.0271C3.7747,3.1649,3.7674,3.1537,3.7594,3.1531Z" fill="#fdfefb"/><path d="M4.2834,3.3123a.0057.0057,0,0,0,.0081-.0081A.0057.0057,0,0,0,4.2834,3.3123Z" fill="#fdfefb"/><path d="M3.9463,3.1782l-.0047.0042-.0067.0087-.0028.0041.02.0192.0112.0129a.06.06,0,0,0,.01-.0488c-.0016-.0038-.0057-.014-.0141-.0169L3.955,3.1611H3.9541L3.9528,3.17Z" fill="#fdfefb"/><path d="M3.8537,2.18a.1543.1543,0,0,0,.05-.0261l.0071-.0128v0a.6016.6016,0,0,0,.0409-.1559L3.96,1.986a.5984.5984,0,0,1-.0419.1587l0,0-.0092.0172A.1818.1818,0,0,0,3.8959,2.2l.0276-.0174.001-.0007A.0779.0779,0,0,0,3.9513,2.16a.0581.0581,0,0,0,.0079-.018,1.641,1.641,0,0,0,.024-.1625l.008.0009c-.0091.0788-.0184.1416-.0242.1637a.0671.0671,0,0,1-.0073.0177l.03.0318.0284-.0289,0,0-.003-.0137c-.0013-.0251-.0037-.0812-.0067-.1634l.0081,0c.0029.0822.0054.1382.0067.1632l.0024.0111c.007.0167.03.0274.0655.0312l-.0052-.023a.12.12,0,0,1-.0251-.0635c-.0077-.0363-.0139-.0739-.0181-.1117l.008-.0009c.0042.0376.01.0749.018.1109.008.0375.0134.0527.0273.0634a.0692.0692,0,0,0,.0479.0115.3023.3023,0,0,1-.02-.0352.3776.3776,0,0,1-.0321-.1446c-.0006-.0152,0-.0273,0-.0391A.4557.4557,0,0,0,4.09,1.8914a.1077.1077,0,0,0-.0125-.0456l-.0067-.0046c-.004-.0019-.008-.0028-.0268-.0016-.0249.0015-.0374.0023-.0426.0078s-.0055.013-.0129.0156a.0151.0151,0,0,1-.0111,0c-.0066-.0032-.0046-.01-.0107-.0126s-.01.0013-.0159-.0025l-.0029-.0023c-.0049-.0051-.0511-.0441-.0851-.0319a.0319.0319,0,0,0-.017.0129.0351.0351,0,0,0-.0016.029.0416.0416,0,0,1,.0226-.0232c.0254-.0093.0655.0156.0927.0669a.0265.0265,0,0,0-.0292.0022l-.0054.0071a.137.137,0,0,1-.0007.0482.4148.4148,0,0,1-.027.1119.4713.4713,0,0,1-.0686.1166Z" fill="#fdfefb"/><path d="M4.1106,2.2893a.4181.4181,0,0,1-.1175-.0551.45.45,0,0,1-.2532.0717.67.67,0,0,0,.0046.0917h0v0a.6221.6221,0,0,0,.02.0988h0a.5908.5908,0,0,0,.2285.3213.6414.6414,0,0,0,.1428-.1533.6648.6648,0,0,0,.1086-.359A.4173.4173,0,0,1,4.1106,2.2893Zm.0178.3663a.5912.5912,0,0,1-.1329.142l-.0025.0008-.0023-.0007a.5475.5475,0,0,1-.1359-.1361.5664.5664,0,0,1-.0981-.3383l.0012-.0028.0029-.0011a.3979.3979,0,0,0,.23-.0648h.0045a.3714.3714,0,0,0,.2283.0646l.003.0011.0012.0029A.61.61,0,0,1,4.1284,2.6556Z" fill="#fdfefb"/><path d="M3.9017,2.3066l-.0013,0v.4a.5457.5457,0,0,0,.0925.0828.5917.5917,0,0,0,.0833-.0786V2.305a.3786.3786,0,0,1-.0832-.0422A.4079.4079,0,0,1,3.9017,2.3066Z" fill="#fdfefb"/><polygon points="3.789 2.977 3.792 2.98 3.816 3.05 3.863 2.98 3.843 2.879 3.799 2.938 3.795 2.94 3.792 2.937 3.771 2.867 3.71 2.929 3.741 3.047 3.785 2.979 3.789 2.977" fill="#fdfefb"/><polygon points="4.21 2.867 4.19 2.937 4.187 2.94 4.183 2.938 4.138 2.879 4.119 2.98 4.165 3.05 4.189 2.98 4.193 2.977 4.197 2.979 4.241 3.047 4.272 2.929 4.21 2.867" fill="#fdfefb"/><polygon points="4.027 3.307 4.021 3.312 4.027 3.318 4.032 3.312 4.027 3.307" fill="#fdfefb"/><path d="M3.4478,2.17l.0572-.0315h.004l.0019.0036-.04.9472.0161-.0149L3.53,2.1621l.0042-.0038.0023.0009h0l.0581.0461.0016.0033-.0338.7971.0194-.0179.0314-.7585.0024-.0035.0042.0006.0474.04.0014.0032L3.6442,2.93l.0211-.0194.022-.6289.0018-.0033.0038,0,.044.0194a.4448.4448,0,0,0,.1525-.0227.44.44,0,0,0,.1015-.0491h.0045a.41.41,0,0,0,.25.0716l.0438-.0192.0037,0,.0019.0033.022.6289.0211.0194L4.3133,2.27l.0014-.0032.0474-.04.0042-.0006.0024.0035L4.4,2.9877l.0194.0179-.0338-.7971.0015-.0033.0581-.0461h0l.0023-.0009.0042.0038.0425.9123.0161.0149-.04-.9472.0019-.0036h.0041L4.534,2.17V2.1666a.0954.0954,0,0,0-.0276-.0724.0916.0916,0,0,0-.0528-.022.1912.1912,0,0,0-.0856.017.196.196,0,0,0-.0383.0192.3771.3771,0,0,1-.0462.0245.3441.3441,0,0,1-.0974.0316.281.281,0,0,1-.04.0027l.0082.013,0,.0039-.0031.0023a.0821.0821,0,0,1-.0555-.0092L4.1,2.1961,4.0993,2.2l-.003.0014h0a.0977.0977,0,0,1-.0734-.029l-.03.03L3.99,2.2034h0L3.987,2.2022l-.0321-.0337a.0984.0984,0,0,1-.0261.02l-.001.0007-.0354.0224L3.89,2.2124,3.888,2.2117l-.0018-.004a.188.188,0,0,1,.0111-.0395.1609.1609,0,0,1-.0412.0192.1663.1663,0,0,1-.0365.0065h0l-.0036-.0022.0005-.0044.0158-.02a.2758.2758,0,0,1-.0363-.0027.3444.3444,0,0,1-.0975-.0316.3659.3659,0,0,1-.0461-.0245.1945.1945,0,0,0-.0384-.0192.1912.1912,0,0,0-.0856-.017.0921.0921,0,0,0-.0528.022.0948.0948,0,0,0-.0275.0724V2.17Z" fill="#fdfefb"/><path d="M4.3984,3.15a.0949.0949,0,0,1,.0261.0129l.0106.0085a.0476.0476,0,0,0-.0014-.035c-.0048-.01-.0164-.0246-.0275-.0246h0l-.0023,0-.0061,0L4.4,3.1352A.0419.0419,0,0,1,4.3984,3.15Z" fill="#fdfefb"/><path d="M3.596,3.1528c.0078.0035.0732.0163.1325.0272a.0424.0424,0,0,1,.0121-.0262A.0246.0246,0,0,1,3.76,3.1451c.0124.001.0222.0154.0241.0282a.0382.0382,0,0,1-.001.0152c.0661.0043.112.0065.1255.0068a.024.024,0,0,0,.0151-.0033l.0043-.0051.0079-.01.0052-.0047.0042-.0049L3.9458,3.16a.0309.0309,0,0,1-.0142-.012.9223.9223,0,0,1-.3289-.0441L3.5933,3.11a.1119.1119,0,0,0-.0036.0253c0,.0085.0008.0129.0035.0155Zm.2732.0161.0253-.0027.02-.0027.0061.0046-.0046.0061-.0205.0027L3.87,3.18h0l-.0053-.0049Zm-.0747-.005.0234-.0024a.1321.1321,0,0,1,.0235.0017l.0044.0062L3.84,3.1738a.1191.1191,0,0,0-.0215-.0016l-.0215.0022H3.7955L3.79,3.17Zm-.1283-.0225.0063-.0043.027.0065.0226.0079.003.0069-.005.0034-.002,0-.0216-.0075-.026-.0063Zm-.0674-.02L3.605,3.117l.0186.0045a.1185.1185,0,0,1,.0227.01l.002.0073-.0046.0027L3.641,3.141,3.62,3.1317l-.0169-.0042Z" fill="#fdfefb"/><path d="M4.2253,2.4964l.008.26.0218.0743-.0164-.3961q-.0054.027-.0136.0554Z" fill="#fdfefb"/><path d="M3.5572,3.1629A.0977.0977,0,0,1,3.5833,3.15a.04.04,0,0,1-.0016-.0148l.0028-.0228-.0061,0-.0023,0c-.0112,0-.0231.0141-.028.0246a.0477.0477,0,0,0-.0015.035Z" fill="#fdfefb"/><path d="M4.2469,3.0564l.0447.0624L4.3285,3.11l-.0506-.1724-.0311.1186Z" fill="#fdfefb"/><polygon points="4.212 2.802 4.209 2.804 4.208 2.804 4.205 2.803 4.147 2.75 4.138 2.843 4.135 2.846 4.134 2.846 4.131 2.845 4.094 2.8 4.064 2.899 4.113 2.971 4.132 2.869 4.135 2.865 4.139 2.867 4.185 2.927 4.205 2.858 4.207 2.855 4.211 2.856 4.272 2.918 4.228 2.769 4.212 2.802" fill="#fdfefb"/><path d="M4.2173,3.2053l.0085.0108.0025.0037L4.23,3.2159l.0109-.0215.0043-.0106a.033.033,0,0,0-.01-.0244.0183.0183,0,0,0-.0122-.0064H4.2224c-.0081.0006-.0153.0118-.0168.0214a.0385.0385,0,0,0,.0086.0271Z" fill="#fdfefb"/><path d="M3.8279,3.232c-.0066.0038-.0179.0051-.0079.0168l0,.0066-.0084.0594-.0047.0071c-.0045,0-.0064-.0032-.006-.0072a.0108.0108,0,0,0-.0106-.0136c-.0041,0-.007-.0026-.0065-.0069s.0051-.0039.0085-.0045c.0124-.0021.0142-.0067.0057-.0162-.007-.0079-.0018-.0037-.0115-.0186l-.0091-.01c-.0045-.0009-.009.0031-.011.0048l-.0075.01c-.0049.004-.0078.0012-.0149.0058-.0019.0013-.0069.0045-.0071.0092l.0008.0033L3.745,3.28l.009.004.0007.0057c-.002.0053-.0117.0056-.0144.0057a.0176.0176,0,0,1-.0129-.0027.03.03,0,0,1-.0059-.02l-.0032-.0108-.0031,0c-.0054,0-.0068.0075-.0093.012l.002.0074a.0234.0234,0,0,1-.0006.0206c-.0057.0127-.0288.01-.0288.0148s.0175.01.0272.004l.008-.0059a.0241.0241,0,0,1,.0253-.0071c.0082.0013.0163.0049.0227-.0046.0021-.0031.0067-.0032.008.002a.0113.0113,0,0,0,.0124.01c.0034,0,.0059.0012.0055.0056a.0152.0152,0,0,0,.0153.019c.0121.0005.018-.0073.0207-.0188.0063-.0274.0066-.0557.012-.0833C3.8368,3.2308,3.8338,3.2285,3.8279,3.232Zm-.0488.0446L3.7757,3.28a.0088.0088,0,0,1-.0117-.0044L3.77,3.2664l.0047,0A.0083.0083,0,0,1,3.7791,3.2766Z" fill="#c09404"/><path d="M4.1685,3.2871l-.0057-.0079L4.16,3.2776l-.0086.0133-.0022.0055.0047.0047a.0227.0227,0,0,1,.01.0192.0247.0247,0,0,1-.0139.018l-.0059.0036L4.14,3.3455a.032.032,0,0,0,.0328-.0081.0368.0368,0,0,0,.0039-.035Z" fill="#c09404"/><path d="M3.8516,3.3123l.0012-.0114.0009-.0172a.0942.0942,0,0,1,.0037-.0255l.0028-.005.0053-.0049L3.8577,3.24l-.0085-.0082-.0024.006-.01.0751L3.838,3.32l.0059.0034C3.8485,3.3234,3.8509,3.315,3.8516,3.3123Z" fill="#c09404"/><path d="M4.2236,2.3192a.3714.3714,0,0,1-.2283-.0646H3.9908a.3979.3979,0,0,1-.23.0648l-.0029.0011-.0012.0028a.5664.5664,0,0,0,.0981.3383.5475.5475,0,0,0,.1359.1361l.0023.0007.0025-.0008a.5912.5912,0,0,0,.1329-.142.61.61,0,0,0,.0994-.3324L4.2266,2.32Zm-.1474.3916a.5917.5917,0,0,1-.0833.0786A.5457.5457,0,0,1,3.9,2.7066v-.4l.0013,0a.4079.4079,0,0,0,.0913-.0438.3786.3786,0,0,0,.0832.0422Z" fill="#c3900a"/><path d="M3.399,3.163l.0017,0,.0027-.0011.0907-.0831h0l.0693-.0638c.049-.0451.1-.0917.1493-.1371l-.0674.23L3.6027,3.095l-.0043.0012a.0225.0225,0,0,1-.0117.0077l-.0073,0-.0029,0c-.016-.0008-.03.017-.0357.0292a.0557.0557,0,0,0-.0025.0388L3.5346,3.19a.067.067,0,0,0-.0276.0158l-.0079.009a.0333.0333,0,0,1-.0106.01l-.0151.004a.008.008,0,0,0-.0016.0158l.0115.0064a.0274.0274,0,0,1,.0057.0164.0436.0436,0,0,0,.0094.0246.0376.0376,0,0,0,.0162.01.057.057,0,0,0,.0071.033.065.065,0,0,0,.0377.0271,1.4257,1.4257,0,0,0,.3607.04h.014l.0482-.0006h.0171l.0482.0006a1.5013,1.5013,0,0,0,.3748-.04A.0648.0648,0,0,0,4.46,3.3355a.0562.0562,0,0,0,.0072-.033.0382.0382,0,0,0,.0162-.01.0434.0434,0,0,0,.0093-.0247.0281.0281,0,0,1,.0058-.0163L4.51,3.2447a.008.008,0,0,0,.0061-.0086.0081.0081,0,0,0-.0078-.0072l-.0151-.004a.0344.0344,0,0,1-.0106-.01l-.0078-.009A.0676.0676,0,0,0,4.4472,3.19l-.0038-.0181A.055.055,0,0,0,4.441,3.133c-.0057-.0122-.02-.03-.0357-.0292l-.0029,0-.0074,0a.0222.0222,0,0,1-.0116-.0077L4.3791,3.095l-.0428.0128-.0674-.23c.05.0454.1.092.1494.1371l.0693.0638h0l.0907.0831.0027.0011.0017,0,.0023-.0038q-.0108-.2513-.0218-.5035l-.0213-.4889a.1029.1029,0,0,0-.03-.0785.1008.1008,0,0,0-.0572-.0241.1884.1884,0,0,0-.09.0175.2092.2092,0,0,0-.04.02.3682.3682,0,0,1-.0453.0241.3341.3341,0,0,1-.0952.0309.2835.2835,0,0,1-.0431.0027V2.16l-.01-.02A.37.37,0,0,1,4.1,1.999c-.0006-.0149,0-.0269,0-.0385a.4608.4608,0,0,0-.0024-.07.1021.1021,0,0,0-.02-.0575.1048.1048,0,0,0-.0447-.03c-.0183-.0082-.0668-.03-.09-.0087l-.0055.0067L3.91,1.7971c-.03-.0033-.0486-.0053-.0616.0059a.0485.0485,0,0,0-.0141.0263c-.0034.0124-.0054.0371.005.0406.0044.0014.0076-.0016.01-.0042l.011-.0068a.0312.0312,0,0,1,.02.0028.06.06,0,0,1,.03.0312.1037.1037,0,0,1,.005.0624.4055.4055,0,0,1-.0266.11.455.455,0,0,1-.0517.0938.2828.2828,0,0,1-.0411-.0027.3341.3341,0,0,1-.0952-.0309.3606.3606,0,0,1-.0453-.0241.2092.2092,0,0,0-.04-.02.1888.1888,0,0,0-.09-.0175.1006.1006,0,0,0-.0571.0241.1031.1031,0,0,0-.03.0785q-.0108.2477-.0215.4964l-.0216.496Zm.3544-.3945.0168.0337.0028.0022h.0008l.0027-.001.058-.053.0094.0922.0028.0034.0012,0,.0031-.0015L3.8874,2.8l.03.0988-.0483.0723-.02-.1021-.0031-.0032-.0041.0015-.0451.06-.02-.0688-.0029-.0027-.0039.001L3.71,2.9177Zm.3824-.1038a.6414.6414,0,0,1-.1428.1533.5908.5908,0,0,1-.2285-.3213h0a.6221.6221,0,0,1-.02-.0988v0h0A.67.67,0,0,1,3.74,2.3059a.45.45,0,0,0,.2532-.0717.42.42,0,0,0,.2513.0715A.6648.6648,0,0,1,4.1358,2.6647Zm.1193.1665-.0218-.0743-.008-.26,0-.0059q.0082-.0283.0136-.0554Zm-.0143.2158-.0442-.0684-.0038-.0018L4.1894,2.98l-.0241.07L4.119,2.98l.0195-.1013.0445.0589.0039.0016L4.19,2.9367l.02-.07.0614.0621Zm.0033.0193.039.0544q-.0279.0059-.0559.01Zm-.081-.0055.0038.0017L4.17,3.06l.0242-.07.0437.0676-.02.0745h-.001l-.0114.0014L4.1792,3.09l-.0038-.0019-.0033.0025-.0185.0479L4.1113,3.14l-.0121-.0568.0177-.0919Zm.0343.0738-.0349.0033.0142-.0368ZM4.0289,3.17l.0066.0082.0047.0042.0067.0087.0028.0041-.02.0192-.0112.0129a.06.06,0,0,1-.01-.0488.0282.0282,0,0,1,.0141-.0169l.004-.0005h.001Zm.0026-.0174-.0047,0L4.02,3.154a.0349.0349,0,0,0-.019.0215l-.0017.0054h-.017l-.0018-.0054a.0347.0347,0,0,0-.0189-.0215L3.955,3.1531l-.0047,0a.0238.0238,0,0,1-.0132-.0113l-.0036-.0019c-.0183.0009-.0366.0012-.0549.001L3.8852,3.11l.02.0218.0055,0,.0329-.0274.0014-.0025.0161-.12-.0064.1195.0008.0026.0312.0426.0032.0016h0l.0033-.0016.0321-.0429.0008-.0027-.0074-.1134.0164.1151.0015.0026.0331.0268.0056,0,.02-.0242.007.0328c-.0183,0-.0366,0-.0548-.001l-.0036.0019A.0238.0238,0,0,1,4.0315,3.1526Zm-.0774.0085H3.955l.0041.0005c.0084.0029.0125.0131.0141.0169a.06.06,0,0,1-.01.0488l-.0112-.0129-.02-.0192.0028-.0041.0067-.0087.0047-.0042L3.9528,3.17Zm-.1444-.07-.0034-.0025L3.8025,3.09l-.0269.0435-.0114-.0014h-.001l-.0195-.0745L3.7874,2.99l.0241.07.0033.0026.0039-.0017.0462-.0692.0177.0919L3.87,3.14l-.0423-.0018Zm.01.0473-.0348-.0033.0207-.0335Zm-.0646-.0072c-.0187-.0028-.0374-.0061-.0559-.01l.039-.0544ZM3.71,2.9289l.0614-.0621.02.07.0031.0029.004-.0016.0445-.0589.0194.1013L3.8165,3.05l-.0242-.07L3.789,2.9768l-.0039.0018-.0442.0684Zm.1616-.2124q.0183.0221.0386.0423l-.0592.0732-.009-.0884Zm-.0306.0171L3.834,2.6661l.0065.01c.0082.0118.0169.0233.0259.0345Zm.075.0309.0293.0265-.0208.097L3.9232,2.89l-.03-.0978Zm-.0446.2176L3.92,2.9093l-.033.1541Zm.2236.0813-.033-.1541.0486.0728ZM4.0585,2.89,4.0573,2.888l-.0206-.0961.0289-.0277.0226.0279Zm.0127-.1316q.02-.0207.0377-.043l.031.0283-.009.0884Zm.0427-.0493c.01-.0129.02-.0262.0286-.04l.0059-.009-.0075.0734ZM4.1575,2.65l.0006-.0057L4.1548,2.65c.0092-.0151.0177-.03.0254-.0454l.0448.1526-.0182.0366L4.1483,2.74Zm-.324.09-.0585.0534-.0182-.0366L3.8,2.6089q.0109.0212.0241.0423ZM3.7428,2.44q.0053.0283.0136.058l-.0079.2591-.0218.0743Zm-.039.4977.0312.1186h0L3.69,3.1188,3.6532,3.11ZM3.59,3.1354A.1119.1119,0,0,1,3.5933,3.11l.0094-.0067a.9223.9223,0,0,0,.3289.0441.0309.0309,0,0,0,.0142.012l-.0005.0076-.0042.0049-.0052.0047-.0079.01-.0043.0051a.024.024,0,0,1-.0151.0033c-.0135,0-.0594-.0025-.1255-.0068a.0382.0382,0,0,0,.001-.0152c-.0019-.0128-.0117-.0272-.0241-.0282a.0246.0246,0,0,0-.0194.0087.0424.0424,0,0,0-.0121.0262c-.0593-.0109-.1247-.0237-.1325-.0272l-.0028-.0019C3.5905,3.1483,3.59,3.1439,3.59,3.1354Zm.1779.0662-.0031.0037-.0086.0108L3.7534,3.22l-.0017-.0039-.0108-.0215-.0044-.0106a.0334.0334,0,0,1,.01-.0244.0183.0183,0,0,1,.0123-.0064h.0008c.008.0006.0153.0118.0168.0214A.039.039,0,0,1,3.7676,3.2016Zm-.22-.0652c.0049-.01.0168-.025.028-.0246l.0023,0,.0061,0-.0028.0228a.04.04,0,0,0,.0016.0148.0977.0977,0,0,0-.0261.0129l-.0106.0085A.0477.0477,0,0,1,3.5481,3.1364Zm.8553-.0243.0023,0h0c.0111,0,.0227.0143.0275.0246a.0476.0476,0,0,1,.0014.035l-.0106-.0085A.0949.0949,0,0,0,4.3984,3.15.0419.0419,0,0,0,4.4,3.1352l-.0028-.0228ZM4.42,3.17l.0079.0062.0047.0223.0059.0062a.0527.0527,0,0,1,.0251.013l.0064.0074a.05.05,0,0,0,.0154.0143L4.487,3.24l0,0a.0419.0419,0,0,0-.01.025.0291.0291,0,0,1-.0055.0162.025.025,0,0,1-.0144.0073.008.008,0,0,0-.0064.0091.0439.0439,0,0,1-.0044.03.0489.0489,0,0,1-.0287.02,1.5109,1.5109,0,0,1-.3695.0391L4,3.3858H3.9822l-.0483.0006a1.5109,1.5109,0,0,1-.3695-.0391.0491.0491,0,0,1-.0288-.02.0439.0439,0,0,1-.0043-.03.0081.0081,0,0,0-.0064-.0091.0247.0247,0,0,1-.0144-.0073.0292.0292,0,0,1-.0056-.0162.0424.0424,0,0,0-.01-.025l0,0,.0016-.0009a.0489.0489,0,0,0,.0154-.0143l.0064-.0074a.0532.0532,0,0,1,.0251-.013l.006-.0062.0047-.0224L3.5618,3.17a.09.09,0,0,1,.026-.0126h0l.005.0032c.01.0047.0986.0212.136.0281l0-.0009.0049.011.01.0209.0047.0111.0035.0025h0l.0035-.0021.0062-.01.008-.01.0034-.0041.0063-.01h0c.0675.0045.1145.0067.1282.0071h.0025A.0311.0311,0,0,0,3.9256,3.2l.0209.02.0141.0168.0033.0015h0l.0032-.0016a.0934.0934,0,0,0,.0162-.04h.0152a.0937.0937,0,0,0,.0161.04l.0033.0016h0l.0032-.0015L4.0353,3.22l.0209-.02a.0311.0311,0,0,0,.0147.0032h.0024c.0138,0,.0608-.0026.1283-.0071h0l.0063.01.0035.0041.0079.01.0062.01.0035.0021h0L4.2327,3.23l.0047-.0111.01-.0209.0049-.011,0,.0009c.0374-.0069.1256-.0234.136-.0281l.0049-.0032h0A.0883.0883,0,0,1,4.42,3.17Zm-.2143.005c.0015-.01.0087-.0208.0168-.0214h.0008a.0183.0183,0,0,1,.0122.0064.033.033,0,0,1,.01.0244l-.0043.0106L4.23,3.2159,4.2283,3.22l-.0025-.0037-.0085-.0108-.0031-.0037A.0385.0385,0,0,1,4.2056,3.1745Zm.1735-.0711.0094.0067a.1178.1178,0,0,1,.0036.0253c0,.0085-.0008.0129-.0035.0155l-.0029.0019c-.0078.0035-.0732.0163-.1324.0272a.0435.0435,0,0,0-.0121-.0262.0246.0246,0,0,0-.0195-.0087c-.0123.001-.0221.0154-.024.0282a.0349.0349,0,0,0,.001.0152c-.0661.0043-.112.0065-.1256.0068a.0239.0239,0,0,1-.015-.0033l-.0043-.0051-.0079-.01L4.0407,3.172l-.0043-.0049,0-.0076a.0309.0309,0,0,0,.0142-.012A.92.92,0,0,0,4.2186,3.14.9306.9306,0,0,0,4.3791,3.1034ZM4.3285,3.11l-.0369.0089-.0447-.0624v0l.0311-.1186Zm-.0564-.1922-.0608-.0614-.0038-.001-.0029.0027-.02.0688L4.14,2.867l-.0042-.0015-.003.0032-.02.1021-.0484-.0723.03-.0988.0365.045.0031.0015.0011,0,.0029-.0034L4.1473,2.75l.058.053.0027.001h.0007l.0029-.0022.0167-.0337ZM3.9816,1.8261a.0111.0111,0,1,1-.011.0111A.0111.0111,0,0,1,3.9816,1.8261Zm-.0844.2423a.4148.4148,0,0,0,.027-.1119.137.137,0,0,0,.0007-.0482L3.93,1.9012A.0265.0265,0,0,1,3.96,1.899c-.0272-.0513-.0673-.0762-.0927-.0669a.0416.0416,0,0,0-.0226.0232.0351.0351,0,0,1,.0016-.029.0319.0319,0,0,1,.017-.0129c.034-.0122.08.0268.0851.0319l.0029.0023c.0061.0038.0106,0,.0159.0025s.0041.0094.0107.0126a.0151.0151,0,0,0,.0111,0c.0074-.0026.0073-.01.0129-.0156s.0177-.0063.0426-.0078c.0188-.0012.0228,0,.0268.0016l.0067.0046a.1077.1077,0,0,1,.0125.0456.4557.4557,0,0,1,.0023.0688c0,.0118-.0006.0239,0,.0391a.3776.3776,0,0,0,.0321.1446.3023.3023,0,0,0,.02.0352.0692.0692,0,0,1-.0479-.0115c-.0139-.0107-.0193-.0259-.0273-.0634-.0077-.036-.0138-.0733-.018-.1109l-.008.0009c.0042.0378.01.0754.0181.1117a.12.12,0,0,0,.0251.0635l.0052.023c-.0359-.0038-.0585-.0145-.0655-.0312L4.0232,2.15c-.0013-.025-.0038-.081-.0067-.1632l-.0081,0c.003.0822.0054.1383.0067.1634l.003.0137,0,0L3.99,2.1936l-.03-.0318a.0671.0671,0,0,0,.0073-.0177c.0058-.0221.0151-.0849.0242-.1637L3.9832,1.98a1.641,1.641,0,0,1-.024.1625.0581.0581,0,0,1-.0079.018.0779.0779,0,0,1-.0268.0218l-.001.0007L3.8959,2.2a.1818.1818,0,0,1,.0127-.0377l.0092-.0172,0,0A.5984.5984,0,0,0,3.96,1.986L3.952,1.9846a.6016.6016,0,0,1-.0409.1559v0l-.0071.0128a.1543.1543,0,0,1-.05.0261l-.0251.0053A.4713.4713,0,0,0,3.8972,2.0684Zm-.4218.0258a.0921.0921,0,0,1,.0528-.022.1912.1912,0,0,1,.0856.017.1945.1945,0,0,1,.0384.0192.3659.3659,0,0,0,.0461.0245.3444.3444,0,0,0,.0975.0316.2758.2758,0,0,0,.0363.0027l-.0158.02-.0005.0044.0036.0022h0a.1663.1663,0,0,0,.0365-.0065.1609.1609,0,0,0,.0412-.0192.188.188,0,0,0-.0111.0395l.0018.004.0022.0007.0022-.0007.0354-.0224.001-.0007a.0984.0984,0,0,0,.0261-.02l.0321.0337.0029.0012h0l.0029-.0012.03-.03a.0977.0977,0,0,0,.0734.029h0L4.0993,2.2,4.1,2.1961l-.0043-.0189a.0821.0821,0,0,0,.0555.0092l.0031-.0023,0-.0039-.0082-.013a.281.281,0,0,0,.04-.0027.3441.3441,0,0,0,.0974-.0316A.3771.3771,0,0,0,4.33,2.1084a.196.196,0,0,1,.0383-.0192.1912.1912,0,0,1,.0856-.017.0916.0916,0,0,1,.0528.022.0954.0954,0,0,1,.0276.0724V2.17l-.0572-.0315H4.4727l-.0019.0036.04.9472-.0161-.0149-.0425-.9123-.0042-.0038-.0023.0009h0l-.0581.0461-.0015.0033.0338.7971L4.4,2.9877l-.0314-.7585-.0024-.0035-.0042.0006-.0474.04L4.3133,2.27l.0243.6606-.0211-.0194-.022-.6289-.0019-.0033-.0037,0-.0438.0192a.41.41,0,0,1-.25-.0716H3.9909a.44.44,0,0,1-.1015.0491.4448.4448,0,0,1-.1525.0227l-.044-.0194-.0038,0-.0018.0033-.022.6289L3.6442,2.93,3.6685,2.27l-.0014-.0032-.0474-.04-.0042-.0006-.0024.0035-.0314.7585-.0194.0179.0338-.7971-.0016-.0033-.0581-.0461h0l-.0023-.0009L3.53,2.1621l-.0425.9123-.0161.0149.04-.9472L3.509,2.1385H3.505L3.4478,2.17V2.1666A.0948.0948,0,0,1,3.4754,2.0942Z" fill="#c3900a"/><path d="M3.9816,1.8483a.0111.0111,0,1,0-.011-.0111A.0111.0111,0,0,0,3.9816,1.8483Z" fill="#fdfefb"/><path d="M3.6033,3.1275l.0169.0042.0208.0093.0027.0007.0046-.0027-.002-.0073a.1185.1185,0,0,0-.0227-.01L3.605,3.117l-.0062.0044Z" fill="#c3900a"/><path d="M3.6705,3.1476l.026.0063.0216.0075.002,0,.005-.0034-.003-.0069L3.7,3.1436l-.027-.0065-.0063.0043Z" fill="#c3900a"/><path d="M3.7955,3.1745h.0011l.0215-.0022a.1191.1191,0,0,1,.0215.0016l.0062-.0044-.0044-.0062a.1321.1321,0,0,0-.0235-.0017l-.0234.0024L3.79,3.17Z" fill="#c3900a"/><path d="M3.87,3.18h0l.0257-.0027.0205-.0027.0046-.0061-.0061-.0046-.02.0027-.0253.0027-.0049.0058Z" fill="#c3900a"/><path d="M4.1123,3.1715l-.0241-.006-.0226-.0023h0L4.06,3.1683l.0052.0056.0211.0021.0225.0057.0017,0,.0051-.0037Z" fill="#c3900a"/><path d="M4.1878,3.1641,4.162,3.1632c-.0073,0-.0147,0-.0222,0l-.0051.0056.0056.0051c.0073,0,.0145-.0005.0217,0l.0251.0009h0l.0053-.005Z" fill="#c3900a"/><path d="M4.2594,3.1623l.0018,0,.0255-.0079.0238-.0052.0043-.0063-.0063-.0043-.0245.0055-.0264.0081-.0032.0069Z" fill="#c3900a"/><path d="M4.3336,3.1408,4.3363,3.14l.0179-.0081a.1032.1032,0,0,1,.0233-.0051l.0048-.0059-.0058-.0048a.1133.1133,0,0,0-.0258.0057l-.02.0089-.002.0073Z" fill="#c3900a"/><path d="M3.5959,3.23a.0078.0078,0,1,0-.0079-.0078A.0078.0078,0,0,0,3.5959,3.23Z" fill="#c3900a"/><path d="M3.6878,3.2877l.0091-.0349c.0007-.0029.0013-.0078-.0031-.0068a.0464.0464,0,0,0-.0168.0076c-.0048.0032.0008.007.0012.0106.0006.0056,0,.0118-.0052.0142-.0068.003-.0139-.0012-.0205-.0032L3.6493,3.273,3.65,3.2645c.0043-.01.0091-.03.006-.0318l-.0093.0054-.0119.0069.0028.0027a.0092.0092,0,0,1,.0008.0072c-.0011.0062-.0016.0117-.0064.0134a.0137.0137,0,0,1-.014-.0024c-.0045-.0042-.001-.0092,0-.0136l.0156-.051c.0014-.0046.003-.012-.0049-.0091A.0552.0552,0,0,1,3.6,3.1959a.0058.0058,0,0,0-.0073.0059.0071.0071,0,0,0,.0086.0064l.01-.0042.0077.0024a.0413.0413,0,0,1-.018.033.03.03,0,0,0-.0222.0173c-.0038.008-.0019.0127.0066.0149l.0892.0233A.0093.0093,0,0,0,3.6878,3.2877ZM3.6,3.2642a.0078.0078,0,1,1,.0079-.0078A.0078.0078,0,0,1,3.6,3.2642Z" fill="#c09404"/><path d="M3.5972,3.2827a.0079.0079,0,1,0,.0078.0078A.0078.0078,0,0,0,3.5972,3.2827Z" fill="#c3900a"/><path d="M3.62,3.2883a.0079.0079,0,1,0,.0079.0078A.0078.0078,0,0,0,3.62,3.2883Z" fill="#c3900a"/><path d="M3.6551,3.3a.0079.0079,0,1,0,.0078.0078A.0078.0078,0,0,0,3.6551,3.3Z" fill="#c3900a"/><path d="M4.0638,3.2631a.0079.0079,0,1,0-.0079-.0078A.0078.0078,0,0,0,4.0638,3.2631Z" fill="#c3900a"/><path d="M4.0733,3.276a.0079.0079,0,1,0-.0079.0079A.0078.0078,0,0,0,4.0733,3.276Z" fill="#c3900a"/><path d="M4.0906,3.3366a.0078.0078,0,0,0-.0078.0078.0078.0078,0,1,0,.0156,0A.0078.0078,0,0,0,4.0906,3.3366Z" fill="#c3900a"/><path d="M4.112,3.3366a.0078.0078,0,0,0-.0078.0078.0079.0079,0,1,0,.0078-.0078Z" fill="#c3900a"/><circle cx="4.3816" cy="3.2985" r="0.0078" fill="#c3900a"/><path d="M4.1406,3.314a.2558.2558,0,0,1-.0036-.0277c0-.0036,0-.0081-.0044-.0087s-.0089.0035-.0125.0066-.0007.0058.0019.0085a.0124.0124,0,0,1-.012.0215c-.0076-.0015-.0066-.0088-.0073-.0142L4.097,3.2469l-.0022-.0075-.0039,0c-.0065.0027-.0143.009-.013.0121l.003.0023.0035.0026.0034.0171c.0008.01.0018.0115,0,.0142L4.08,3.2946a.0247.0247,0,0,0-.014.0225c-.0014.01,0,.0159.0121.0139.0173-.0044.0354-.0023.053-.0051C4.1391,3.3247,4.1424,3.3225,4.1406,3.314Zm-.0562.0039-.0056-.0055.0056-.0055.0055.0055Z" fill="#c09404"/><path d="M3.9649,3.3067,3.9516,3.306h0l-.0074,0-.0073,0H3.9317l-.01.0018L3.92,3.31l.0024.0042.0094.0023.0269,0c.0094,0,.0118.0011.0135.0029a.0115.0115,0,0,1,.0016.0092l.0047.0055c.0045,0,.0042-.0035.0047-.0064C3.9858,3.3108,3.9831,3.3076,3.9649,3.3067Z" fill="#fdfefb"/><path d="M4.0428,3.2913l-.0053-.003c-.0114.0043-.025.0054-.03.0195-.0011.0031-.0011.0079-.0061.0073s-.0043-.0053-.004-.0085c.001-.0112-.0052-.0135-.0147-.0137a.4072.4072,0,0,0-.0468-.0021l-.0114-.0026-.0018-.0057-.0032-.0069H3.9085l-.0051.01.0015.0036a.0257.0257,0,0,1,.0015.0157c-.0005.0035,0,.0074-.0055.0074a.0076.0076,0,0,1-.0082-.0054l-.0066-.0161-.0042-.0049c-.0006,0-.0021,0-.0063.0039l-.0069.01.0051.0083a.0259.0259,0,0,1,.004.0207.0234.0234,0,0,1-.021.0157l-.0109.001-.0016.0021c0,.0034.016.0085.0278.0032a.0432.0432,0,0,0,.0172-.0144.0139.0139,0,0,1,.0141-.0078l.0467.0041a.0126.0126,0,0,1,.0125.0092c.006.0149.0246.0173.0306.0029s.0143-.0118.024-.0122c.0334-.0013.0345-.0027.0269-.0355Zm-.06.0372c-.0005.0029,0,.0068-.0047.0064l-.0047-.0055A.0115.0115,0,0,0,3.972,3.32c-.0017-.0018-.0041-.0027-.0135-.0029l-.0269,0-.0094-.0023L3.92,3.31l.0024-.0032.01-.0018h.0052l.0073,0,.0074,0h0l.0133.0007C3.9831,3.3076,3.9858,3.3108,3.983,3.3285Zm.0439-.0106-.0055-.0055.0055-.0055.0056.0055Z" fill="#c09404"/><polygon points="4.287 3.287 4.287 3.287 4.28 3.28 4.279 3.28 4.274 3.285 4.273 3.286 4.28 3.293 4.287 3.287" fill="#fdfefb"/><path d="M4.2046,3.3037a.0058.0058,0,0,0,.0082-.0081A.0058.0058,0,0,0,4.2046,3.3037Z" fill="#fdfefb"/><path d="M4.3312,3.282l-.0044.0055.0058.0042c.0032,0,.006-.0018.0059-.0063Z" fill="#fdfefb"/><path d="M4.37,3.255,4.365,3.23c-.0035-.028-.0173-.0375-.0442-.03-.0036.001-.0088.001-.0092.0062s.0041.0066.0064.01l.0093,0c.0122-.0063.0189-.0032.0224.01l.0087.0391c.0009.0038.004.0078-.001.0106s-.0076,0-.0111-.0024c-.016-.0107-.0212-.01-.0315.0052-.0064.0093-.0108.0092-.0172-.0006-.0035-.0053-.0061-.0119-.0127-.0131a.0213.0213,0,0,1-.0192-.0212c0-.0042-.0026-.0106-.0083-.0059s-.0129.0089-.0051.0174c.005.0054.0032.0091-.0025.0127a.0319.0319,0,0,0-.0129.0211c-.001.0038.0013.01-.0061.01s-.0064-.0051-.0076-.0091c-.0044-.0149-.0065-.0157-.02-.0071a.04.04,0,0,0-.0116.0128.023.023,0,0,0-.0005.0206c.0024.0058.0086.0023.0132.0019s.008-.0013.0088.0034-.0045.0078-.0055.0085c-.0052.0037-.009.0023-.0144.0068L4.1913,3.34l.0064.0016A.03.03,0,0,0,4.21,3.34a.0314.0314,0,0,0,.0128-.0108c.0055-.0068.0034-.008.0074-.0113A.05.05,0,0,1,4.2544,3.31a.011.011,0,0,1,.0142.0062.019.019,0,0,0,.0211.0108.02.02,0,0,0,.0154-.0183c.0011-.0114.0065-.0106.0143-.0062A.02.02,0,0,0,4.3469,3.3a.0429.0429,0,0,1,.026-.0142l.03-.0079c.0038-.001.0094-.0011.01-.0052s-.0056-.0074-.0089-.0106l-.0107.0022C4.3808,3.271,4.374,3.2684,4.37,3.255Zm-.1655.0487a.0058.0058,0,0,1,.0082-.0081A.0058.0058,0,0,1,4.2046,3.3037Zm.0561-.0093h0l0,0H4.2528l.001-.0108h0l.001,0,0,0h.0015l.0029.001h0Zm.0128-.0085,0-.0013L4.2789,3.28H4.28l.0064.0067v0L4.28,3.2925Zm.01.0264a.0057.0057,0,0,1,.0081-.0081A.0057.0057,0,0,1,4.2834,3.3123Zm.0492-.0206-.0058-.0042.0044-.0055.0073.0034C4.3386,3.29,4.3358,3.2913,4.3326,3.2917Z" fill="#c09404"/><path d="M4.2553,3.2834h.0015" fill="none" stroke="#c09404" stroke-linecap="round" stroke-linejoin="round" stroke-width="0"/></svg>