<svg xmlns="http://www.w3.org/2000/svg" viewBox="0 0 7.9818 5.1882"><rect x="2.6606" width="2.6606" height="5.1882" fill="#0046a0"/><rect width="2.6606" height="5.1882" fill="#c82832"/><rect x="5.3212" width="2.6606" height="5.1882" fill="#c82832"/><rect x="0.3765" y="2.3347" width="0.439" height="2.0752" fill="#ffd807"/><rect x="1.8451" y="2.3347" width="0.439" height="2.0752" fill="#ffd807"/><polygon points="0.899 2.335 1.762 2.335 1.33 2.594 0.899 2.335" fill="#ffd807"/><polygon points="0.899 4.151 1.762 4.151 1.33 4.41 0.899 4.151" fill="#ffd807"/><rect x="0.8913" y="2.6739" width="0.878" height="0.1796" fill="#ffd807"/><rect x="0.8913" y="3.8911" width="0.878" height="0.1796" fill="#ffd807"/><path d="M1.1362,3.7554a.4381.4381,0,0,1-.0589-.7413.4019.4019,0,0,1,.2115-.08.2406.2406,0,0,1,.16.0319.211.211,0,0,1,.0838.1178.2172.2172,0,0,1-.0359.18.23.23,0,0,1-.1237.0718c-.0648.0187-.0812.0008-.13.016a.26.26,0,0,0-.1436.1436A.2873.2873,0,0,0,1.1362,3.7554Z" fill="#ffd807"/><path d="M1.2491,3.1365a.0852.0852,0,1,1,.0851.0852A.0851.0851,0,0,1,1.2491,3.1365Z" fill="#c3232d"/><path d="M1.5244,2.9833a.4381.4381,0,0,1,.0589.7413.4015.4015,0,0,1-.2115.08.2406.2406,0,0,1-.16-.0319.2115.2115,0,0,1-.0838-.1178.2173.2173,0,0,1,.0359-.1795.23.23,0,0,1,.1238-.0719c.0647-.0187.0811-.0007.13-.0159a.26.26,0,0,0,.1436-.1437A.2873.2873,0,0,0,1.5244,2.9833Z" fill="#ffd807"/><path d="M1.4115,3.6022a.0852.0852,0,1,1-.0851-.0851A.0851.0851,0,0,1,1.4115,3.6022Z" fill="#c3232d"/><circle cx="1.3303" cy="1.6442" r="0.3472" fill="#ffd807"/><path d="M.8541,1.7527a.5053.5053,0,0,0,.0153.1323.4793.4793,0,0,0,.7975.2315A.4834.4834,0,0,0,1.8062,1.76.5085.5085,0,0,1,1.12,2.026.5368.5368,0,0,1,.8541,1.7527Z" fill="#ffd807"/><path d="M1.3347.5138a.0571.0571,0,0,0-.0179.0309c-.0049.0276.0173.0494.0409.0829a.3569.3569,0,0,1,.0528.0987.1843.1843,0,0,1-.003.1392.2014.2014,0,0,0-.0259.0474c-.004.0126-.0152.0473.002.0649a.0448.0448,0,0,0,.0279.0109.0476.0476,0,0,0,.031-.006.0523.0523,0,0,0,.0189-.04C1.4647.9058,1.4383.8984,1.4385.858A.1045.1045,0,0,1,1.45.8087.1265.1265,0,0,0,1.4674.7742.0591.0591,0,0,0,1.4634.74a.0669.0669,0,0,1,.029.0249A.0876.0876,0,0,1,1.5.8231C1.4978.8462,1.4919.848,1.4934.862c.0022.0211.0171.0315.0289.0469a.149.149,0,0,1,.0249.0888.2094.2094,0,0,1-.0548.1427.217.217,0,0,1-.3572-.0519A.1829.1829,0,0,1,1.1276.93.2239.2239,0,0,0,1.1462.9039.1584.1584,0,0,0,1.1641.866c.0082-.03-.0086-.0436-.0065-.07A.0913.0913,0,0,1,1.201.7323.0732.0732,0,0,0,1.1978.78c.004.0135.01.0171.0172.0346a.12.12,0,0,1,.008.04c0,.0255-.01.03-.017.0689-.0059.0313-.0017.0406,0,.0439A.0424.0424,0,0,0,1.2409.99.0447.0447,0,0,0,1.2818.9618C1.2852.9537,1.2857.945,1.2739.9039c-.0123-.0426-.0146-.04-.017-.0549A.1581.1581,0,0,1,1.2669.77c.0132-.037.025-.0338.0309-.0608s-.0046-.031-.01-.0858c-.0057-.0584.0038-.0748.007-.08A.0785.0785,0,0,1,1.3347.5138Z" fill="#ffd807"/></svg>