<svg xmlns="http://www.w3.org/2000/svg" viewBox="0 0 7.9818 5.1882"><rect width="7.9818" height="5.1882" fill="#e4070d"/><rect y="1.2975" width="7.9818" height="3.8907"/><rect y="3.8908" width="7.9818" height="1.2974" fill="#24994a"/><path d="M4.2057,2.118a.7082.7082,0,0,0-.4681-.2147.6934.6934,0,0,0-.5784.2772.7011.7011,0,0,0-.1368.402.6819.6819,0,0,0,.3156.5894.7265.7265,0,0,0,.2736.101.65.65,0,0,0,.3409-.0273.6311.6311,0,0,0,.2567-.1811.6185.6185,0,0,1-.3051.1074A.63.63,0,0,1,3.378,2.934a.6064.6064,0,0,1-.0989-.4673.6146.6146,0,0,1,.3495-.4248A.6251.6251,0,0,1,4.2057,2.118Z" fill="#fff"/><polygon points="4.401 2.118 4.614 2.412 4.96 2.301 4.745 2.594 4.958 2.889 4.613 2.776 4.399 3.069 4.4 2.706 4.054 2.593 4.4 2.481 4.401 2.118" fill="#fff"/></svg>