<svg xmlns="http://www.w3.org/2000/svg" viewBox="0 0 7.9819 5.1882"><path d="M.7528,5.1v-.085h-.05V4.93h-.05v-.085h-.05V4.76h.05v-.085h.05V4.59h.05v-.085h.05V4.42H.8524v-.085h.051V4.42H.9527v.085h.05V4.59h.05v.0851h.05V4.76h.05V4.59H1.1041v-.085h.0487V4.25h-.05v.085h-.05V4.42h-.049v-.085h-.05V4.25h-.05v-.085h.05V4.08h.05v-.085h.049V4.08h.05v.085h.05V3.91H1.1041v-.085h.0487V3.6542h-.042v.085h-.05v.085h-.05v.085h-.05v.085H.91v.085H.86v-.085H.81v-.085H.76v-.085H.71v-.085H.66v-.085H.61v-.085H.56v.085H.51v.085H.46v.085H.41v.085H.36v.085H.31v.085H.259v-.085h-.05v-.085h-.05v-.085h-.05v-.085h-.05v-.085h-.05v-.17h.05v-.085h.05v-.085h.05V3.2291H.21v.0851H.26v.085H.31v.085H.21v.085H.3594v-.085H.41v-.085H.46v-.085H.41V3.2291h-.05v-.085h-.05v-.085H.259v-.085h-.05v-.085H.16v.085H.11v.085H.06v.085H.0081v-.255h.05v-.085h.05v-.085h.05v-.085h.05v-.085h-.05v-.085h-.05v-.085h-.05v-.085h-.05v-.255H.06v.085H.11v.085H.16v.085H.2088v-.085h.05v-.085h.05v-.085h.05V1.954H.41V1.869H.46V1.784H.41V1.699h-.05V1.614H.21v.085h.1v.085H.26v.085H.21v.085H.1586V1.869h-.05V1.784h-.05V1.699h-.05v-.17h.05V1.444h.05V1.359h.05V1.274h.05V1.189h.05V1.104H.31v.085H.36v.085H.41v.085H.46v.085H.51v.085H.56v.085H.61V1.529H.66V1.444h.05V1.359h.05V1.274h.05V1.189h.05V1.104H.9113v.085H.9607v.085h.0509v.085h.0491v.085h.0514v.085h.0407V1.36H1.1041v-.085h.0487V1.02H1.1041v.085H1.0527V1.19h-.049v-.085H.9525V1.02H.9034V.9351H.9525V.85h.0512V.765h.049V.85h.0514v.085h.0487V.68H1.1041V.595h.0487V.425h-.05V.51H1.0539V.595H1.0027V.68H.9535V.765H.9026V.85h-.05V.765H.803V.68h-.05V.595h-.05V.51h-.05V.425h-.05V.34h.05V.255h.05V.17h.05V.085h.05V0h-.2V.17h-.05V0h-.2V.085h.05V.17h.05V.255h.05V.34h.05V.425h-.05V.51h-.05V.595h-.05V.68h-.05V.765h-.05V.85H.251V.765h-.05V.68h-.05V.595H.1V.51H.05V.425H0v.17H.0519V.68H0V.9351H.05V.85H.1V.765H.152V.85h.05v.085h.05V1.02H.202v.085H.152V1.19H.1v-.085H.05V1.02H0v.255H.0519V1.36H0v.51H.0519v.085H0V3.23H.0519v.085H0v.51H.0519V3.91H0v.255H.05V4.08H.1v-.085H.152V4.08h.05v.085h.05V4.25H.202v.085H.152V4.42H.1v-.085H.05V4.25H0v.255H.0519V4.59H0v.17H.05v-.085H.1V4.59h.05v-.085h.05V4.42h.05v-.085H.3021V4.42h.05v.085h.05V4.59h.05v.0851h.05V4.76h.05v.085h-.05V4.93h-.05v.085h-.05V5.1h-.05v.0878h.2V5.0154h.05v.1728H.803V5.1Zm-.15-3.8253V1.36h-.05V1.19h.05ZM.6523.85h.05V.765h.05V.85H.803v.085h.05V1.02H.803v.085H.7525V1.19h-.05v-.085h-.05V1.02h-.05V.9351h.05Zm-.1-.17V.595h.05v.17h-.05ZM.3011.9351h.05V.85h.05V.765H.4523V.85h.05v.085h.05V1.02h-.05v.085h-.05V1.19H.4015v-.085h-.05V1.02h-.05Zm.3513,3.23V4.08h.05v-.085h.05V4.08h.05v.085h.05V4.25h-.05v.085h-.05V4.42h-.05v-.085h-.05V4.25h-.05v-.085Zm-.1-.255v-.085h.05v.17h-.05Zm-.05.425h-.05V4.42H.4015v-.085h-.05V4.25h-.05v-.085h.05V4.08h.05v-.085H.4523V4.08h.05v.085h.05V4.25h-.05Zm.05.255V4.42h.05v.17Z" fill="#fff"/><polygon points="0.151 5.1 0.151 5.015 0.1 5.015 0.1 4.93 0.05 4.93 0.05 4.845 0 4.845 0 5.015 0.052 5.015 0.052 5.1 0 5.1 0 5.188 0.201 5.188 0.201 5.1 0.151 5.1" fill="#fff"/><polygon points="0.05 0.255 0.1 0.255 0.1 0.17 0.151 0.17 0.151 0.085 0.201 0.085 0.201 0 0 0 0 0.085 0.052 0.085 0.052 0.17 0 0.17 0 0.34 0.05 0.34 0.05 0.255" fill="#fff"/><polygon points="1.153 3.484 1.153 3.654 1.153 3.825 1.153 3.91 1.153 4.165 1.153 4.25 1.153 4.505 1.153 4.59 1.153 4.76 1.153 4.845 1.153 5.015 1.153 5.1 1.153 5.188 7.982 5.188 7.982 3.459 1.153 3.459 1.153 3.484" fill="#50a050"/><polygon points="1.104 5.1 1.104 5.015 1.153 5.015 1.153 4.845 1.103 4.845 1.103 4.93 1.053 4.93 1.053 5.015 1.003 5.015 1.003 5.1 0.953 5.1 0.953 5.188 1.153 5.188 1.153 5.1 1.104 5.1" fill="#fff"/><polygon points="1.003 0.085 1.003 0.17 1.054 0.17 1.054 0.255 1.103 0.255 1.103 0.34 1.153 0.34 1.153 0.17 1.104 0.17 1.104 0.085 1.153 0.085 1.153 0 0.953 0 0.953 0.085 1.003 0.085" fill="#fff"/><polygon points="1.153 0 1.153 0.085 1.153 0.17 1.153 0.34 1.153 0.425 1.153 0.595 1.153 0.68 1.153 0.935 1.153 1.02 1.153 1.275 1.153 1.36 1.153 1.529 1.153 1.699 1.153 1.87 1.153 1.955 1.153 2.039 1.153 2.294 1.153 2.889 1.153 3.144 1.153 3.23 1.153 3.315 1.153 3.459 7.982 3.459 7.982 0 1.153 0" fill="#d22846"/><polygon points="1.111 2.379 1.061 2.379 1.061 2.464 1.011 2.464 1.011 2.549 0.961 2.549 0.961 2.634 1.011 2.634 1.011 2.719 1.061 2.719 1.061 2.804 1.111 2.804 1.111 2.889 1.153 2.889 1.153 2.294 1.111 2.294 1.111 2.379" fill="#fff"/><polygon points="1.112 1.784 1.061 1.784 1.061 1.869 1.012 1.869 1.012 1.954 0.961 1.954 0.961 1.869 0.911 1.869 0.911 1.784 0.861 1.784 0.861 1.699 0.911 1.699 0.913 1.699 0.961 1.699 0.961 1.614 0.911 1.614 0.86 1.614 0.811 1.614 0.811 1.699 0.76 1.699 0.76 1.784 0.711 1.784 0.711 1.869 0.76 1.869 0.76 1.954 0.81 1.954 0.81 2.039 0.861 2.039 0.861 2.124 0.91 2.124 0.91 2.209 0.961 2.209 0.961 2.294 1.011 2.294 1.011 2.209 1.061 2.209 1.061 2.124 1.111 2.124 1.111 2.039 1.153 2.039 1.153 1.955 1.104 1.955 1.104 1.87 1.153 1.87 1.153 1.699 1.112 1.699 1.112 1.784" fill="#fff"/><polygon points="1.111 3.059 1.061 3.059 1.061 2.974 1.011 2.974 1.011 2.889 0.961 2.889 0.961 2.974 0.91 2.974 0.91 3.059 0.861 3.059 0.861 3.144 0.81 3.144 0.81 3.229 0.76 3.229 0.76 3.314 0.71 3.314 0.71 3.399 0.76 3.399 0.76 3.484 0.81 3.484 0.81 3.569 0.86 3.569 0.91 3.569 0.96 3.569 0.96 3.484 0.912 3.484 0.911 3.484 0.861 3.484 0.861 3.399 0.911 3.399 0.911 3.314 0.96 3.314 0.96 3.229 1.011 3.229 1.011 3.314 1.061 3.314 1.061 3.399 1.111 3.399 1.111 3.484 1.153 3.484 1.153 3.459 1.153 3.315 1.104 3.315 1.104 3.23 1.153 3.23 1.153 3.144 1.111 3.144 1.111 3.059" fill="#fff"/><rect x="1.0037" y="4.1653" width="0.049" height="0.085" fill="#fff"/><rect x="0.7026" y="4.1653" width="0.0499" height="0.085" fill="#fff"/><path d="M.4015,4.76h-.05v-.085h-.05V4.59H.2521v.0851H.202V4.76H.152v.085h.05V4.93h.05v.085h.049V4.93h.05v-.085h.05Zm-.0994.085H.251V4.76H.3021Z" fill="#fff"/><rect x="0.102" y="0.9351" width="0.0486" height="0.085" fill="#fff"/><rect x="0.4022" y="0.9351" width="0.0495" height="0.085" fill="#fff"/><rect x="0.102" y="4.1653" width="0.0486" height="0.085" fill="#fff"/><path d="M.202.51h.05V.595h.049V.51h.05V.425h.05V.34h-.05V.255h-.05V.17H.2521V.255H.202V.34H.152V.425h.05ZM.251.34H.3021V.425H.251Z" fill="#fff"/><path d="M.9527,4.8454h.05V4.76h-.05v-.085H.9034V4.59H.8526v.0851H.803V4.76h-.05v.085h.05V4.93h.05v.085H.9034V4.93H.9527Zm-.05,0H.8532V4.76H.9026Z" fill="#fff"/><path d="M.8025.34h-.05V.425h.05V.51h.05V.595h.05V.51h.051V.425h.0492V.34h-.05V.255H.9034V.17H.8526V.255h-.05Zm.0507,0H.9026V.425H.8532Z" fill="#fff"/><rect x="0.7026" y="0.9351" width="0.0498" height="0.085" fill="#fff"/><path d="M.7107,2.1241H.66v-.085H.61V1.954H.56v.0851H.51v.085H.46v.085H.41v.085H.36v.085H.31v.425H.36v.085H.41v.085H.46v.085H.51v.085H.56v.085H.61v-.085H.66v-.085H.71v-.085H.76v-.085H.81v-.085H.8611v-.425H.81v-.085h-.05v-.085h-.05Zm-.3085.5111H.3513V2.55H.4022Zm.15-.51h.05V2.21h-.05Zm.05.935h-.05v-.085h.05Zm.1-.68v.085h-.05V2.55h-.05v.085h.05V2.72h.05v.17h-.05v-.085h-.05V2.72h-.05v.085h-.05V2.89H.4517V2.72h.05v-.085h.05V2.55h-.05v-.085h-.05v-.17H.5023V2.38h.05v.085h.05V2.38h.05v-.085h.05Zm.05.17h.05v.085h-.05Z" fill="#fff"/><rect x="1.0037" y="0.9351" width="0.0489" height="0.085" fill="#fff"/><rect x="0.4022" y="4.1653" width="0.0495" height="0.085" fill="#fff"/><rect y="0.085" width="0.0519" height="0.085" fill="#d22846"/><polygon points="0.552 0.17 0.602 0.17 0.602 0.085 0.602 0 0.552 0 0.552 0.085 0.552 0.17" fill="#d22846"/><rect x="1.1041" y="0.085" width="0.0487" height="0.085" fill="#d22846"/><path d="M.7528.085V.17h-.05V.255h-.05V.34h-.05V.425h.05V.51h.05V.595h.05V.68h.05V.765h.05V.85h.05V.765H.9535V.68h.0492V.595h.0512V.51h.0489V.425h.05V.34h-.05V.255H1.0539V.17H1.0027V.085h-.05V0h-.15V.085Zm.1.17V.17H.9034V.255H.9527V.34h.05V.425H.9535V.51H.9025V.595h-.05V.51H.803V.425h-.05V.34h.05V.255Z" fill="#d22846"/><path d="M.05.51H.1V.595h.05V.68h.05V.765h.05V.85H.3021V.765h.05V.68h.05V.595h.05V.51h.05V.425h.05V.34h-.05V.255h-.05V.17h-.05V.085h-.05V0H.2008V.085h-.05V.17H.1V.255H.05V.34H0V.425H.05ZM.152.34h.05V.255h.05V.17h.049V.255h.05V.34h.05V.425h-.05V.51h-.05V.595H.2521V.51H.202V.425H.152Z" fill="#d22846"/><rect x="0.251" y="0.34" width="0.0511" height="0.085" fill="#d22846"/><rect x="0.8532" y="0.34" width="0.0494" height="0.085" fill="#d22846"/><rect y="0.595" width="0.0519" height="0.085" fill="#d22846"/><rect x="1.1041" y="0.595" width="0.0487" height="0.085" fill="#d22846"/><polygon points="0.602 0.68 0.602 0.595 0.552 0.595 0.552 0.68 0.552 0.765 0.602 0.765 0.602 0.68" fill="#d22846"/><path d="M.6023,1.02h.05v.085h.05V1.19h.05v-.085H.803V1.02h.05V.9351H.803V.85H.7525V.765h-.05V.85h-.05v.085h-.05Zm.1-.085h.05V1.02h-.05Z" fill="#d22846"/><path d="M1.1041.85H1.0527V.765h-.049V.85H.9525v.085H.9034V1.02H.9525v.085h.0512V1.19h.049v-.085h.0514V1.02h.0487V.9351H1.1041Zm-.0515.17H1.0037V.9351h.0489Z" fill="#d22846"/><path d="M.05,1.1051H.1V1.19H.152v-.085h.05V1.02h.05V.9351H.202V.85H.152V.765H.1V.85H.05v.085H0V1.02H.05ZM.102.9351H.1506V1.02H.102Z" fill="#d22846"/><path d="M.3513,1.1051h.05V1.19H.4523v-.085h.05V1.02h.05V.9351h-.05V.85h-.05V.765H.4015V.85h-.05v.085h-.05V1.02h.05Zm.0509-.17H.4517V1.02H.4022Z" fill="#d22846"/><polygon points="0.552 1.275 0.552 1.36 0.602 1.36 0.602 1.275 0.602 1.19 0.552 1.19 0.552 1.275" fill="#d22846"/><rect y="1.2751" width="0.0519" height="0.085" fill="#d22846"/><rect x="1.1041" y="1.2751" width="0.0487" height="0.085" fill="#d22846"/><path d="M1.1121,1.444H1.0607V1.359H1.0116V1.274H.9607V1.189H.9113V1.104H.8605v.085h-.05v.085h-.05v.085h-.05v.085H.66v.085H.61v.085H.56V1.529H.51V1.444H.46V1.359H.41V1.274H.36V1.189H.31V1.104H.259v.085h-.05v.085h-.05v.085h-.05v.085h-.05v.085h-.05v.17h.05v.085h.05v.085h.05v.085H.21V1.869H.26V1.784H.31V1.699H.21V1.614H.3594v.085H.41v.085H.46v.085H.41v.085h-.05v.0851h-.05v.085H.259v.085h-.05v.085H.16v-.085H.11v-.085H.06v-.085H.0081v.255h.05v.085h.05v.085h.05v.085h.05v.085h-.05v.085h-.05v.085h-.05v.085h-.05v.255H.06v-.085H.11v-.085H.16v-.085H.2088v.085h.05v.085h.05v.085h.05v.085H.41v.0851H.46v.085H.41v.085h-.05v.085H.21v-.085h.1v-.085H.26v-.085H.21V3.2291H.1586v.0851h-.05v.085h-.05v.085h-.05v.17h.05v.085h.05v.085h.05v.085h.05v.085h.05v.085H.31v-.085H.36v-.085H.41v-.085H.46v-.085H.51v-.085H.56v-.085H.61v.085H.66v.085H.71v.085H.76v.085H.81v.085H.86v.085H.91v-.085h.05v-.085h.05v-.085h.05v-.085h.05v-.085h.042v-.17h-.042v-.085h-.05v-.085h-.05V3.2291h-.05v.0851H.9112v.085H.861v.085h.1v.085H.81v-.085H.76v-.085H.71v-.085h.05V3.2291H.81v-.085H.8611v-.085H.9105v-.085h.05v-.085h.0509v.085h.0492v.085h.05v.085h.042v-.255h-.042v-.085h-.05v-.085H1.0115v-.085H.9606v-.085h.05v-.085h.05v-.085h.05v-.085h.042v-.255h-.042v.085h-.05v.085h-.05v.085h-.05v-.085h-.05v-.085H.8611v-.085H.81V1.954h-.05V1.869h-.05V1.784h.05V1.699h.05V1.614h.15v.085h-.1v.085h.05v.085H.9607v.085h.0509V1.869h.0491V1.784h.0514V1.699h.0407v-.17H1.1121Zm-.3515.7651v.085H.81v.085H.8611v.425H.81v.085H.76v.085H.71v.085H.66v.085H.61v.085H.56v-.085H.51v-.085H.46v-.085H.41v-.085H.36v-.085H.31v-.425H.36v-.085H.41v-.085H.46v-.085H.51v-.085H.56V1.954H.61v.0851H.66v.085h.05v.085Z" fill="#d22846"/><rect y="1.8701" width="0.0519" height="0.085" fill="#d22846"/><rect x="1.1041" y="1.8701" width="0.0487" height="0.085" fill="#d22846"/><rect x="0.5521" y="2.1252" width="0.0503" height="0.085" fill="#d22846"/><rect x="0.3513" y="2.5502" width="0.0509" height="0.085" fill="#d22846"/><rect x="0.7528" y="2.5502" width="0.0497" height="0.085" fill="#d22846"/><polygon points="0.652 2.38 0.602 2.38 0.602 2.465 0.552 2.465 0.552 2.38 0.502 2.38 0.502 2.295 0.452 2.295 0.452 2.38 0.452 2.465 0.502 2.465 0.502 2.55 0.552 2.55 0.552 2.635 0.502 2.635 0.502 2.72 0.452 2.72 0.452 2.805 0.452 2.89 0.502 2.89 0.502 2.805 0.552 2.805 0.552 2.72 0.602 2.72 0.602 2.805 0.652 2.805 0.652 2.89 0.702 2.89 0.702 2.805 0.702 2.72 0.652 2.72 0.652 2.635 0.602 2.635 0.602 2.55 0.652 2.55 0.652 2.465 0.702 2.465 0.702 2.38 0.702 2.295 0.652 2.295 0.652 2.38" fill="#d22846"/><rect x="0.5521" y="2.9752" width="0.0503" height="0.085" fill="#d22846"/><rect y="3.2302" width="0.0519" height="0.085" fill="#d22846"/><rect x="1.1041" y="3.2302" width="0.0487" height="0.085" fill="#d22846"/><rect y="3.8253" width="0.0519" height="0.085" fill="#d22846"/><rect x="1.1041" y="3.8253" width="0.0487" height="0.085" fill="#d22846"/><polygon points="0.602 3.91 0.602 3.825 0.552 3.825 0.552 3.91 0.552 3.995 0.602 3.995 0.602 3.91" fill="#d22846"/><path d="M.5523,4.1653h-.05V4.08h-.05v-.085H.4015V4.08h-.05v.085h-.05V4.25h.05v.085h.05V4.42H.4523v-.085h.05V4.25h.05ZM.4517,4.25H.4022v-.085H.4517Z" fill="#d22846"/><path d="M.05,4.3353H.1V4.42H.152v-.085h.05V4.25h.05v-.085H.202V4.08H.152v-.085H.1V4.08H.05v.085H0V4.25H.05Zm.0518-.17H.1506V4.25H.102Z" fill="#d22846"/><path d="M.6023,4.25h.05v.085h.05V4.42h.05v-.085h.05V4.25h.05v-.085h-.05V4.08h-.05v-.085h-.05V4.08h-.05v.085h-.05Zm.1-.085h.05V4.25h-.05Z" fill="#d22846"/><path d="M1.1028,4.08h-.05v-.085h-.049V4.08h-.05v.085h-.05V4.25h.05v.085h.05V4.42h.049v-.085h.05V4.25h.05v-.085h-.05Zm-.05.17h-.049v-.085h.049Z" fill="#d22846"/><polygon points="0.602 4.505 0.602 4.42 0.552 4.42 0.552 4.505 0.552 4.59 0.602 4.59 0.602 4.505" fill="#d22846"/><rect y="4.5053" width="0.0519" height="0.085" fill="#d22846"/><rect x="1.1041" y="4.5053" width="0.0487" height="0.085" fill="#d22846"/><path d="M1.0027,5.1v-.085h.05V4.93h.05v-.085h.05V4.76h-.05v-.085h-.05V4.59h-.05v-.085h-.05V4.42H.9034v-.085H.8524V4.42H.803v.085h-.05V4.59h-.05v.0851h-.05V4.76h-.05v.085h.05V4.93h.05v.085h.05V5.1h.05v.0878h.15V5.1ZM.9034,4.93v.085H.8526V4.93H.803v-.085h-.05V4.76h.05v-.085h.05V4.59H.9034v.0851H.9527V4.76h.05v.085h-.05V4.93Z" fill="#d22846"/><rect x="0.251" y="4.7604" width="0.0511" height="0.085" fill="#d22846"/><path d="M.4022,5.1v-.085h.05V4.93h.05v-.085h.05V4.76h-.05v-.085h-.05V4.59h-.05v-.085h-.05V4.42h-.05v-.085H.251V4.42h-.05v.085h-.05V4.59H.1v.0851H.05V4.76H0v.085H.05V4.93H.1v.085h.05V5.1h.05v.0878H.3522V5.1Zm-.0509-.255V4.93h-.05v.085H.2521V4.93H.202v-.085H.152V4.76h.05v-.085h.05V4.59h.049v.0851h.05V4.76h.05v.085Z" fill="#d22846"/><rect x="0.8532" y="4.7604" width="0.0494" height="0.085" fill="#d22846"/><rect y="5.0154" width="0.0519" height="0.085" fill="#d22846"/><polygon points="0.602 5.015 0.552 5.015 0.552 5.1 0.552 5.188 0.602 5.188 0.602 5.1 0.602 5.015" fill="#d22846"/><rect x="1.1041" y="5.0154" width="0.0487" height="0.085" fill="#d22846"/></svg>